<?xml version="1.0" encoding="iso-8859-1"?>
<!-- Generator: Adobe Illustrator 19.0.0, SVG Export Plug-In . SVG Version: 6.00 Build 0)  -->
<svg xmlns="http://www.w3.org/2000/svg" xmlns:xlink="http://www.w3.org/1999/xlink" version="1.1" id="Capa_1" x="0px" y="0px" viewBox="0 0 511 511" style="enable-background:new 0 0 511 511;" xml:space="preserve" width="512px" height="512px">
<g>
	<path d="M343,56V32h-48.714C290.773,13.793,274.717,0,255.5,0s-35.273,13.793-38.786,32H168v24H72v455h367V56H343z M424,496H87V71   h81v16.5h15V47h48v-7.5c0-13.509,10.991-24.5,24.5-24.5S280,25.991,280,39.5V47h48v40.5h15V71h81V496z" fill="#FFFFFF"/>
	<rect x="247.5" y="32" width="16" height="15" fill="#FFFFFF"/>
	<path d="M104,479h303V88H104V479z M119,103h273v361H119V103z" fill="#FFFFFF"/>
	<rect x="231.502" y="136" width="127.998" height="15" fill="#FFFFFF"/>
	<rect x="151.5" y="136" width="63.998" height="15" fill="#FFFFFF"/>
	<rect x="303.503" y="176" width="55.997" height="15" fill="#FFFFFF"/>
	<rect x="151.5" y="176" width="135.997" height="15" fill="#FFFFFF"/>
	<rect x="199.499" y="216" width="160.001" height="15" fill="#FFFFFF"/>
	<rect x="151.5" y="216" width="32.002" height="15" fill="#FFFFFF"/>
	<rect x="271.497" y="256" width="88.003" height="15" fill="#FFFFFF"/>
	<rect x="151.5" y="256" width="104" height="15" fill="#FFFFFF"/>
	<rect x="319.503" y="296" width="39.997" height="15" fill="#FFFFFF"/>
	<rect x="151.5" y="296" width="151.999" height="15" fill="#FFFFFF"/>
	<rect x="223.503" y="336" width="135.997" height="15" fill="#FFFFFF"/>
	<rect x="151.5" y="336" width="55.997" height="15" fill="#FFFFFF"/>
	<rect x="287.498" y="376" width="72.002" height="15" fill="#FFFFFF"/>
	<rect x="151.5" y="376" width="119.997" height="15" fill="#FFFFFF"/>
	<rect x="199.499" y="416" width="160.001" height="15" fill="#FFFFFF"/>
	<rect x="151.5" y="416" width="32.002" height="15" fill="#FFFFFF"/>
</g>
<g>
</g>
<g>
</g>
<g>
</g>
<g>
</g>
<g>
</g>
<g>
</g>
<g>
</g>
<g>
</g>
<g>
</g>
<g>
</g>
<g>
</g>
<g>
</g>
<g>
</g>
<g>
</g>
<g>
</g>
</svg>
