<?xml version="1.0" encoding="iso-8859-1"?>
<!-- Generator: Adobe Illustrator 19.0.0, SVG Export Plug-In . SVG Version: 6.00 Build 0)  -->
<svg xmlns="http://www.w3.org/2000/svg" xmlns:xlink="http://www.w3.org/1999/xlink" version="1.1" id="Capa_1" x="0px" y="0px" viewBox="0 0 60 60" style="enable-background:new 0 0 60 60;" xml:space="preserve" width="512px" height="512px">
<g>
	<g>
		<path d="M55.142,14h-4.196H50v-3h-8v3h-1c0-6.065-4.935-11-11-11S19,7.935,19,14h-1v-3h-8v3H9.054H4.858C2.18,14,0,16.18,0,18.858    v4.196v24.892v4.196C0,54.821,2.18,57,4.858,57h4.196H10h8h24h8h0.946h4.196C57.82,57,60,54.821,60,52.142v-4.196V23.054v-4.196    C60,16.18,57.82,14,55.142,14z M55.142,16C56.718,16,58,17.282,58,18.858v1.706c-2.124-0.753-3.812-2.44-4.564-4.564    C53.436,16,55.142,16,55.142,16z M44,13h4v1h-4V13z M30,5c4.962,0,9,4.038,9,9h-2c0-3.86-3.14-7-7-7s-7,3.14-7,7h-2    C21,9.038,25.038,5,30,5z M35,14H25c0-2.757,2.243-5,5-5S35,11.243,35,14z M12,13h4v1h-4V13z M2,18.858    C2,17.282,3.282,16,4.858,16h1.706C5.812,18.124,4.124,19.811,2,20.564V18.858z M4.858,55C3.282,55,2,53.718,2,52.142v-1.707    c2.124,0.753,3.811,2.44,4.564,4.564H4.858V55z M8.63,55C7.747,51.781,5.219,49.253,2,48.37V22.63    c3.219-0.883,5.747-3.411,6.63-6.63H10v39H8.63z M12,55V16h4v39H12z M18,55V16h1h4h14h4h1v39H18z M44,55V16h4v39H44z M50,55V16    h1.37c0.883,3.219,3.41,5.747,6.63,6.63v25.74c-3.219,0.883-5.747,3.411-6.63,6.63H50z M58,52.142C58,53.718,56.718,55,55.142,55    h-1.706c0.753-2.124,2.44-3.811,4.564-4.564C58,50.436,58,52.142,58,52.142z" fill="#FFFFFF"/>
		<path d="M36.019,21.111l-12.94,6.042L24.408,30H23v5.218l-1.355-0.572l-3.137,7.436l10.231,4.317L30.596,42H40V30.496l0.329-0.154    L36.019,21.111z M25.737,28.119l9.316-4.349l2.618,5.607L36.334,30h-9.719L25.737,28.119z M27.674,43.778l-6.546-2.762l1.582-3.75    L23,37.388l0,0l6.257,2.64L28.425,42l0,0L27.674,43.778z M38,32v8h-6.56l0.437-1.037L25,36.062V32h0.342h11.437H38z" fill="#FFFFFF"/>
	</g>
</g>
<g>
</g>
<g>
</g>
<g>
</g>
<g>
</g>
<g>
</g>
<g>
</g>
<g>
</g>
<g>
</g>
<g>
</g>
<g>
</g>
<g>
</g>
<g>
</g>
<g>
</g>
<g>
</g>
<g>
</g>
</svg>
