<?xml version="1.0" encoding="iso-8859-1"?>
<!-- Generator: Adobe Illustrator 18.0.0, SVG Export Plug-In . SVG Version: 6.00 Build 0)  -->
<!DOCTYPE svg PUBLIC "-//W3C//DTD SVG 1.1//EN" "http://www.w3.org/Graphics/SVG/1.1/DTD/svg11.dtd">
<svg xmlns="http://www.w3.org/2000/svg" xmlns:xlink="http://www.w3.org/1999/xlink" version="1.1" id="Capa_1" x="0px" y="0px" viewBox="0 0 410.014 410.014" style="enable-background:new 0 0 410.014 410.014;" xml:space="preserve" width="512px" height="512px">
<g>
	<path d="M347.707,0.487h-46.933c-31.819,0-58.125,23.979-61.84,54.812h-67.818c-3.715-30.833-30.021-54.812-61.84-54.812H62.306   C27.95,0.487,0,28.438,0,62.794v156.896c0,37.04,28.206,67.612,64.266,71.377v92.264c0,14.445,11.751,26.196,26.196,26.196h229.127   c14.445,0,26.197-11.751,26.197-26.196v-92.269c36.042-3.782,64.228-34.345,64.228-71.372V62.794   C410.014,28.438,382.063,0.487,347.707,0.487z M291.187,57.923c2.042-19.867,16.429-36.128,35.341-40.965   c20.716,5.293,35.571,24.285,35.571,45.838v156.892c0,14.994-6.025,29.282-16.313,39.785V129.401   C345.786,95.291,322.612,66.507,291.187,57.923z M297.628,15.604c-11.521,9.93-19.376,23.988-21.246,39.861   c-1.555-0.098-3.119-0.165-4.699-0.165h-17.616C257.508,33.778,275.515,17.064,297.628,15.604z M155.983,55.3h-17.616   c-1.592,0-3.168,0.068-4.736,0.167c-1.869-15.876-9.726-29.936-21.25-39.867C134.513,17.042,152.54,33.764,155.983,55.3z    M64.266,259.844c-10.512-10.536-16.686-24.982-16.686-40.155V62.796c0-21.611,14.935-40.643,35.736-45.878   c18.998,4.783,33.469,21.083,35.512,41.015c-31.407,8.597-54.563,37.371-54.563,71.468V259.844z M15,219.689V62.794   c0-23.067,16.6-42.32,38.478-46.468C40.58,27.885,32.58,44.651,32.58,62.796v156.892c0,21.406,9.711,41.671,25.922,55.19   C33.58,268.886,15,246.423,15,219.689z M330.786,383.33c0,6.174-5.023,11.196-11.197,11.196H90.462   c-6.174,0-11.196-5.022-11.196-11.196V129.401c0-32.589,26.513-59.102,59.102-59.102h133.316c32.589,0,59.103,26.513,59.103,59.102   V383.33z M395.014,219.689c0,26.901-18.814,49.476-43.972,55.298c16.291-13.519,26.057-33.834,26.057-55.299V62.796   c0-18.183-8.032-34.983-20.979-46.545c22.083,3.982,38.894,23.329,38.894,46.542V219.689z" fill="#FFFFFF"/>
	<path d="M297.174,157.371H112.878c-4.142,0-7.5,3.358-7.5,7.5v68.048c0,4.142,3.358,7.5,7.5,7.5h1.473v71.447   c0,21.053,17.128,38.181,38.181,38.181h104.986c21.053,0,38.181-17.128,38.181-38.181v-71.447h1.476c4.143,0,7.5-3.358,7.5-7.5   v-68.048C304.674,160.729,301.316,157.371,297.174,157.371z M120.378,172.371h169.296v53.048H120.378V172.371z M188.898,280.113   h32.255v13.445c0,6.203-5.046,11.249-11.249,11.249h-9.757c-6.203,0-11.249-5.046-11.249-11.249V280.113z M221.153,265.113h-32.255   v-24.694h32.255V265.113z M280.698,311.866c0,12.782-10.398,23.181-23.181,23.181H152.532c-12.782,0-23.181-10.399-23.181-23.181   v-71.447h44.547v53.14c0,14.474,11.775,26.249,26.249,26.249h9.757c14.474,0,26.249-11.775,26.249-26.249v-53.14h44.545V311.866z" fill="#FFFFFF"/>
	<path d="M115.241,100.543h179.57c4.143,0,7.5-3.358,7.5-7.5s-3.357-7.5-7.5-7.5h-179.57c-4.142,0-7.5,3.358-7.5,7.5   S111.099,100.543,115.241,100.543z" fill="#FFFFFF"/>
</g>
<g>
</g>
<g>
</g>
<g>
</g>
<g>
</g>
<g>
</g>
<g>
</g>
<g>
</g>
<g>
</g>
<g>
</g>
<g>
</g>
<g>
</g>
<g>
</g>
<g>
</g>
<g>
</g>
<g>
</g>
</svg>
