<svg height="512pt" viewBox="-34 0 512 512" width="512pt" xmlns="http://www.w3.org/2000/svg"><style>path{fill: #fff}</style><path d="m418.132812 512h-392.53125c-14.117187 0-25.601562-11.484375-25.601562-25.601562v-426.664063c0-14.113281 11.484375-25.601563 25.601562-25.601563h392.53125c14.113282 0 25.601563 11.488282 25.601563 25.601563v426.664063c0 14.117187-11.488281 25.601562-25.601563 25.601562zm-392.53125-460.800781c-4.703124 0-8.535156 3.832031-8.535156 8.535156v426.664063c0 4.703124 3.832032 8.535156 8.535156 8.535156h392.53125c4.703126 0 8.535157-3.832032 8.535157-8.535156v-426.664063c0-4.703125-3.832031-8.535156-8.535157-8.535156zm0 0"/><path d="m435.199219 153.601562h-426.664063c-4.710937 0-8.535156-3.824218-8.535156-8.535156v-85.332031c0-14.113281 11.484375-25.601563 25.601562-25.601563h392.53125c14.113282 0 25.601563 11.488282 25.601563 25.601563v85.332031c0 4.710938-3.824219 8.535156-8.535156 8.535156zm-418.132813-17.066406h409.601563v-76.800781c0-4.703125-3.832031-8.535156-8.535157-8.535156h-392.53125c-4.703124 0-8.535156 3.832031-8.535156 8.535156zm0 0"/><path d="m392.535156 358.398438h-341.335937c-4.710938 0-8.53125-3.820313-8.53125-8.53125v-204.800782c0-4.710937 3.820312-8.53125 8.53125-8.53125h341.335937c4.707032 0 8.53125 3.820313 8.53125 8.53125v204.800782c0 4.710937-3.824218 8.53125-8.53125 8.53125zm-332.800781-17.066407h324.265625v-187.730469h-324.265625zm0 0"/><path d="m153.601562 512h-76.800781c-4.710937 0-8.535156-3.824219-8.535156-8.535156v-17.066406c0-14.113282 11.488281-25.597657 25.601563-25.597657h42.667968c14.113282 0 25.597656 11.484375 25.597656 25.597657v17.066406c0 4.710937-3.824218 8.535156-8.53125 8.535156zm-68.269531-17.066406h59.734375v-8.535156c0-4.699219-3.832031-8.53125-8.53125-8.53125h-42.667968c-4.703126 0-8.535157 3.832031-8.535157 8.53125zm0 0"/><path d="m409.601562 51.199219h-375.46875c-4.710937 0-8.53125-3.820313-8.53125-8.53125v-17.066407c0-14.117187 11.484376-25.601562 25.597657-25.601562h341.335937c14.113282 0 25.597656 11.484375 25.597656 25.601562v17.066407c0 4.710937-3.824218 8.53125-8.53125 8.53125zm-366.933593-17.066407h358.398437v-8.53125c0-4.703124-3.832031-8.535156-8.53125-8.535156h-341.335937c-4.699219 0-8.53125 3.832032-8.53125 8.535156zm0 0"/><path d="m110.933594 119.464844h-51.199219c-4.710937 0-8.535156-3.820313-8.535156-8.53125v-34.132813c0-4.710937 3.824219-8.535156 8.535156-8.535156h51.199219c4.710937 0 8.53125 3.824219 8.53125 8.535156v34.132813c0 4.710937-3.820313 8.53125-8.53125 8.53125zm-42.667969-17.066406h34.132813v-17.066407h-34.132813zm0 0"/><path d="m85.332031 230.398438c-2.183593 0-4.367187-.835938-6.03125-2.5-3.335937-3.335938-3.335937-8.726563 0-12.066407l42.667969-42.664062c3.335938-3.335938 8.726562-3.335938 12.0625 0 3.339844 3.335937 3.339844 8.730469 0 12.066406l-42.664062 42.664063c-1.664063 1.664062-3.847657 2.5-6.035157 2.5zm0 0"/><path d="m145.066406 213.332031c-2.183594 0-4.367187-.835937-6.03125-2.5-3.339844-3.335937-3.339844-8.730469 0-12.066406l25.597656-25.597656c3.335938-3.335938 8.730469-3.335938 12.066407 0 3.335937 3.335937 3.335937 8.730469 0 12.066406l-25.597657 25.597656c-1.664062 1.664063-3.851562 2.5-6.035156 2.5zm0 0"/><path d="m85.332031 273.066406c-2.183593 0-4.367187-.835937-6.03125-2.5-3.335937-3.335937-3.335937-8.730468 0-12.066406l17.066407-17.066406c3.335937-3.335938 8.730468-3.335938 12.066406 0 3.335937 3.335937 3.335937 8.730468 0 12.066406l-17.066406 17.066406c-1.664063 1.664063-3.847657 2.5-6.035157 2.5zm0 0"/><path d="m247.464844 119.464844h-34.132813c-4.710937 0-8.53125-3.820313-8.53125-8.53125v-34.132813c0-4.710937 3.820313-8.535156 8.53125-8.535156h34.132813c4.710937 0 8.535156 3.824219 8.535156 8.535156v34.132813c0 4.710937-3.824219 8.53125-8.535156 8.53125zm-25.597656-17.066406h17.066406v-17.066407h-17.066406zm0 0"/><path d="m315.734375 119.464844h-34.132813c-4.710937 0-8.535156-3.820313-8.535156-8.53125v-34.132813c0-4.710937 3.824219-8.535156 8.535156-8.535156h34.132813c4.710937 0 8.53125 3.824219 8.53125 8.535156v34.132813c0 4.710937-3.820313 8.53125-8.53125 8.53125zm-25.601563-17.066406h17.066407v-17.066407h-17.066407zm0 0"/><path d="m384 119.464844h-34.132812c-4.710938 0-8.535157-3.820313-8.535157-8.53125v-34.132813c0-4.710937 3.824219-8.535156 8.535157-8.535156h34.132812c4.710938 0 8.535156 3.824219 8.535156 8.535156v34.132813c0 4.710937-3.824218 8.53125-8.535156 8.53125zm-25.601562-17.066406h17.066406v-17.066407h-17.066406zm0 0"/><path d="m264.535156 435.199219h-85.335937c-4.710938 0-8.53125-3.820313-8.53125-8.53125 0-4.710938 3.820312-8.535157 8.53125-8.535157h85.335937c4.707032 0 8.53125 3.824219 8.53125 8.535157 0 4.710937-3.824218 8.53125-8.53125 8.53125zm0 0"/><path d="m418.132812 512h-392.53125c-14.117187 0-25.601562-11.484375-25.601562-25.601562v-93.863282c0-4.710937 3.824219-8.535156 8.535156-8.535156h426.664063c4.710937 0 8.535156 3.824219 8.535156 8.535156v93.863282c0 14.117187-11.488281 25.601562-25.601563 25.601562zm-401.066406-110.933594v85.332032c0 4.703124 3.832032 8.535156 8.535156 8.535156h392.53125c4.703126 0 8.535157-3.832032 8.535157-8.535156v-85.332032zm0 0"/><path d="m119.464844 238.933594c-2.183594 0-4.367188-.835938-6.03125-2.5-3.335938-3.335938-3.335938-8.730469 0-12.066406l8.535156-8.535157c3.335938-3.335937 8.726562-3.335937 12.0625 0 3.339844 3.339844 3.339844 8.730469 0 12.066407l-8.53125 8.535156c-1.664062 1.664062-3.847656 2.5-6.035156 2.5zm0 0"/><path d="m179.199219 102.398438h-34.132813c-4.710937 0-8.53125-3.820313-8.53125-8.53125 0-4.710938 3.820313-8.535157 8.53125-8.535157h34.132813c4.710937 0 8.535156 3.824219 8.535156 8.535157 0 4.710937-3.824219 8.53125-8.535156 8.53125zm0 0"/></svg>