<?xml version="1.0" standalone="no"?>
<!DOCTYPE svg PUBLIC "-//W3C//DTD SVG 1.1//EN" "http://www.w3.org/Graphics/SVG/1.1/DTD/svg11.dtd" >
<svg>
<metadata>
Created by FontForge 20090622 at Fri Apr  7 12:54:28 2017
 By deploy user
Copyright &#194;&#169; 2011 ParaType Inc., ParaType Ltd. All rights reserved.
</metadata>
<defs>
<font id="Circe-Light" horiz-adv-x="662" >
  <font-face 
    font-family="Circe Light"
    font-weight="350"
    font-stretch="normal"
    units-per-em="1000"
    panose-1="2 11 4 2 2 2 3 2 2 3"
    ascent="800"
    descent="-200"
    x-height="450"
    cap-height="700"
    bbox="-522 -367 1686 999"
    underline-thickness="50"
    underline-position="-50"
    unicode-range="U+0020-U+FB02"
  />
<missing-glyph horiz-adv-x="235" 
 />
    <glyph glyph-name="uniF350.var.accented" unicode="&#xf350;`" horiz-adv-x="574" 
d="M73 0h-56l247 529h46l247 -529h-59l-77 167h-271zM397 218l-112 243l-112 -243h224zM370 758l32 -39l-125 -131l-27 28z" />
    <glyph glyph-name="uniF355.var.accented" unicode="&#xf355;`" horiz-adv-x="481" 
d="M421 0h-332v525h324v-52h-269v-181h245v-52h-245v-188h277v-52zM327 758l32 -39l-125 -131l-27 28z" />
    <glyph glyph-name="uniF358.var.accented" unicode="&#xf358;`" horiz-adv-x="650" 
d="M506 438l-368 -438h-49v525h55v-438l368 438h49v-525h-55v438zM401 758l32 -39l-125 -131l-27 28z" />
    <glyph glyph-name="uniF35E.var.accented" unicode="&#xf35e;`" horiz-adv-x="650" 
d="M43 262q0 115 80 192q80 78 202 78t201 -76q81 -76 81 -194q0 -116 -81 -193q-80 -77 -201 -77q-123 0 -202 76q-80 77 -80 194zM101 262q0 -93 64 -156q65 -62 160 -62q99 0 161 62q63 62 63 156t-65 156t-159 62q-95 0 -160 -62q-64 -61 -64 -156zM403 758l32 -39
l-125 -131l-27 28z" />
    <glyph glyph-name="uniF363.var.accented" unicode="&#xf363;`" horiz-adv-x="530" 
d="M461 525h57l-198 -404q-30 -64 -62.5 -92.5t-74.5 -28.5q-37 0 -63 18l20 47q23 -14 45 -14q41 0 74 63l11 19l-257 392h68l217 -337zM351 758l32 -39l-125 -131l-27 28z" />
    <glyph glyph-name="uniF36B.var.accented" unicode="&#xf36b;`" horiz-adv-x="682" 
d="M593 0h-55v525h55v-525zM223 277q-33 0 -79 -3v-222q64 -2 76 -2q159 0 159 118q0 53 -40 81t-116 28zM89 525h55v-199q49 3 82 3q104 0 157.5 -41.5t53.5 -118.5q0 -81 -59 -126t-164 -45q-40 0 -68 1t-57 1v525zM411 758l32 -39l-125 -131l-27 28z" />
    <glyph glyph-name="uniF36D.var.accented" unicode="&#xf36d;`" horiz-adv-x="554" 
d="M455 242h-295v52h294q-9 88 -70 137t-161 49t-159 -43l-23 41q67 54 184 54q128 0 207 -73t79 -195q0 -119 -80 -196q-79 -75 -210 -75q-115 0 -189 55l24 45q72 -48 171 -48q96 0 158 53q63 55 70 144zM311 758l32 -39l-125 -131l-27 28z" />
    <glyph glyph-name="uniF36E.var.accented" unicode="&#xf36e;`" horiz-adv-x="866" 
d="M144 0h-55v525h55v-231h137q11 105 83 171q73 67 185 67q121 0 198 -75q76 -75 76 -194q0 -118 -76 -194t-198 -76q-113 0 -188 69q-73 69 -81 180h-136v-242zM337 263q0 -94 59 -156q60 -62 154 -62q98 0 156 61q59 62 59 157t-60 156t-155 61q-94 0 -154 -61
q-59 -62 -59 -156zM472 758l32 -39l-125 -131l-27 28z" />
    <glyph glyph-name="uniF36F.var.accented" unicode="&#xf36f;`" horiz-adv-x="514" 
d="M425 0h-55v196h-128l-153 -196h-65l161 205q-51 19 -83.5 58.5t-32.5 90.5q0 78 56.5 126t158.5 48q11 0 77 -2q33 -1 64 -1v-525zM236 248h134v225q-66 3 -92 3q-72 0 -111.5 -33t-39.5 -86q0 -41 33 -72q32 -31 76 -37zM341 758l32 -39l-125 -131l-27 28z" />
    <glyph glyph-name="uniF371.var.accented" unicode="&#xf371;`" horiz-adv-x="481" 
d="M117 661q0 13 9.5 22t23.5 9q12 0 21.5 -9t9.5 -22q0 -14 -9.5 -23.5t-21.5 -9.5q-14 0 -23.5 9t-9.5 24zM313 661q0 13 9.5 22t23.5 9q12 0 21.5 -9t9.5 -22q0 -15 -9.5 -24t-21.5 -9q-14 0 -23.5 9t-9.5 24zM421 0h-332v525h324v-52h-269v-181h245v-52h-245v-188h277
v-52zM297 758l32 -39l-125 -131l-27 28z" />
    <glyph glyph-name="afii10017.var.accented" unicode="&#x410;`" horiz-adv-x="697" 
d="M77 0h-56l305 706h45l305 -706h-59l-102 238h-336zM492 290l-145 340l-146 -340h291zM480 868l19 -44l-182 -86l-16 31z" />
    <glyph glyph-name="afii10022.var.accented" unicode="&#x415;`" horiz-adv-x="575" 
d="M508 0h-397v700h387v-52h-332v-267h302v-52h-302v-277h342v-52zM422 868l19 -44l-182 -86l-16 31z" />
    <glyph glyph-name="afii10026.var.accented" unicode="&#x418;`" horiz-adv-x="797" 
d="M631 610l-471 -610h-49v700h55v-610l471 610h49v-700h-55v610zM512 868l19 -44l-182 -86l-16 31z" />
    <glyph glyph-name="afii10032.var.accented" unicode="&#x41e;`" horiz-adv-x="810" 
d="M54 350q0 153 100 256t251 103q149 0 250 -102q101 -101 101 -257q0 -153 -101 -257q-101 -102 -250 -102q-150 0 -251 101q-100 101 -100 258zM112 350q0 -130 84 -219q85 -88 209 -88q128 0 210 88q83 89 83 219q0 133 -85 219q-84 88 -208 88q-125 0 -209 -88
q-84 -87 -84 -219zM522 868l19 -44l-182 -86l-16 31z" />
    <glyph glyph-name="afii10037.var.accented" unicode="&#x423;`" horiz-adv-x="652" 
d="M579 700h56l-244 -542q-37 -84 -74.5 -121t-87.5 -37q-48 0 -77 23l20 47q28 -19 56 -19q57 0 99 88l13 28l-323 533h62l288 -478zM465 868l19 -44l-182 -86l-16 31z" />
    <glyph glyph-name="afii10045.var.accented" unicode="&#x42b;`" horiz-adv-x="829" 
d="M718 0h-55v700h55v-700zM269 377q-53 0 -103 -6v-318q93 -3 99 -3q102 0 155.5 43t53.5 127q0 76 -52.5 116.5t-152.5 40.5zM111 700h55v-276q80 5 106 5q128 0 194 -54t66 -154q0 -107 -72 -165t-201 -58q-47 0 -80 1t-68 1v700zM518 868l19 -44l-182 -86l-16 31z" />
    <glyph glyph-name="afii10047.var.accented" unicode="&#x42d;`" horiz-adv-x="680" 
d="M570 331h-372v52h372q-10 127 -92 200q-83 74 -214 74q-113 0 -187 -59l-23 41q79 70 222 70q158 0 254 -97q96 -96 96 -259q0 -159 -97 -260q-97 -102 -256 -102q-137 0 -232 73l25 45q93 -66 206 -66q129 0 209 79q81 78 89 209zM410 868l19 -44l-182 -86l-16 31z" />
    <glyph glyph-name="afii10048.var.accented" unicode="&#x42e;`" horiz-adv-x="1076" 
d="M166 0h-55v700h55v-317h178q11 141 104 233q94 93 233 93q149 0 245 -101q96 -100 96 -258q0 -155 -96 -257t-245 -102q-141 0 -236 95q-94 96 -102 245h-177v-331zM401 350q0 -131 80 -220q79 -87 201 -87q128 0 204 87q78 87 78 220q0 134 -79 220q-80 87 -203 87
q-122 0 -202 -87q-79 -86 -79 -220zM672 868l19 -44l-182 -86l-16 31z" />
    <glyph glyph-name="afii10049.var.accented" unicode="&#x42f;`" horiz-adv-x="615" 
d="M504 0h-55v274h-156l-199 -274h-63l208 282q-65 21 -108 73q-44 53 -44 124q0 98 67 161q68 63 195 63q6 0 80 -2q37 -1 75 -1v-700zM286 326h163v322q-84 3 -110 3q-92 0 -143 -46.5t-51 -122.5q0 -60 42 -104q43 -43 99 -52zM483 868l19 -44l-182 -86l-16 31z" />
    <glyph glyph-name="afii10023.var.accented" unicode="&#x401;`" horiz-adv-x="575" 
d="M146 804q0 14 9 23t22 9q12 0 20.5 -9t8.5 -23q0 -15 -8.5 -25t-20.5 -10q-13 0 -22 10t-9 25zM407 804q0 20 15.5 28t30.5 0t15 -28q0 -15 -9 -25t-21 -10q-13 0 -22 10t-9 25zM364 868l42 -15l-146 -112l-19 12zM508 0h-397v700h387v-52h-332v-267h302v-52h-302v-277
h342v-52z" />
    <glyph glyph-name="afii10065.var.accented" unicode="&#x430;`" horiz-adv-x="459" 
d="M93 375l-14 43q67 41 143 41q88 0 127.5 -44t39.5 -136v-279h-52v69q-55 -75 -154 -75q-63 0 -101 36.5t-38 97.5q0 66 48 103q47 37 123 37t122 -34q0 70 -10 107q-8 36 -32.5 51t-75.5 18q-61 0 -126 -35zM199 43q84 0 138 71v75q-49 36 -117 36q-51 0 -86 -25t-35 -69
q0 -40 28 -64t72 -24zM304 716l40 -31l-116 -143l-32 23z" />
    <glyph glyph-name="afii10070.var.accented" unicode="&#x435;`" horiz-adv-x="524" 
d="M435 95l17 -40q-61 -64 -166 -64q-108 0 -173 64q-66 65 -66 170q0 102 60 168q61 66 168 66q87 0 146 -56q58 -55 58 -147q0 -24 -3 -42h-371q3 -81 53 -127.5t131 -46.5q94 0 146 55zM270 410q-72 0 -116.5 -42t-51.5 -111h324q-1 71 -43 112t-113 41zM336 716l40 -31
l-116 -143l-32 23z" />
    <glyph glyph-name="afii10074.var.accented" unicode="&#x438;`" horiz-adv-x="562" 
d="M431 375l-300 -375h-52v450h52v-375l300 375h52v-450h-52v375zM342 716l40 -31l-116 -143l-32 23z" />
    <glyph glyph-name="afii10080.var.accented" unicode="&#x43e;`" horiz-adv-x="567" 
d="M113 57q-66 66 -66 168t66 168t170 66t170 -66t66 -168t-66 -168t-170 -66t-170 66zM283 40q81 0 130 51q51 53 51 134t-51 133t-130 52q-78 0 -130 -52q-51 -52 -51 -133t51 -133t130 -52zM347 716l40 -31l-116 -143l-32 23z" />
    <glyph glyph-name="afii10085.var.accented" unicode="&#x443;`" horiz-adv-x="481" 
d="M408 450h59l-182 -450q-49 -119 -85 -158q-36 -42 -84 -42q-37 0 -77 23l17 40q31 -15 53 -15q34 0 61 29.5t56 98.5l10 24l-222 450h62l154 -318l32 -70q1 4 25 72zM321 716l40 -31l-116 -143l-32 23z" />
    <glyph glyph-name="afii10093.var.accented" unicode="&#x44b;`" horiz-adv-x="621" 
d="M203 0h-124v450h52v-151h78q178 0 178 -148q0 -70 -45 -110.5t-139 -40.5zM200 250h-69v-201h68q71 0 102 25t31 76q0 100 -132 100zM542 0h-52v450h52v-450zM363 716l40 -31l-116 -143l-32 23z" />
    <glyph glyph-name="afii10095.var.accented" unicode="&#x44d;`" horiz-adv-x="490" 
d="M390 208h-238v43h237q-7 75 -56.5 117t-126.5 42q-90 0 -146 -56l-23 39q29 30 75 48t93 18q106 0 171 -64q67 -64 67 -170q0 -100 -64 -167t-160 -67q-119 0 -177 55l25 39q51 -45 148 -45q73 0 121.5 46t53.5 122zM283 716l40 -31l-116 -143l-32 23z" />
    <glyph glyph-name="afii10096.var.accented" unicode="&#x44e;`" horiz-adv-x="750" 
d="M134 0h-55v450h55v-194h114q11 92 71 146q61 57 154 57q101 0 165 -66q64 -65 64 -168t-64 -168q-64 -66 -165 -66q-95 0 -157 59q-62 60 -69 154h-113v-204zM352 356q-47 -50 -47 -131q0 -80 47 -132q48 -50 123 -50t122 50q47 52 47 132q0 81 -47 131q-47 51 -122 51
t-123 -51zM441 716l40 -31l-116 -143l-32 23z" />
    <glyph glyph-name="afii10097.var.accented" unicode="&#x44f;`" horiz-adv-x="477" 
d="M264 450h134v-450h-52v168h-112l-129 -168h-64l142 180q-45 7 -76.5 42.5t-31.5 85.5q0 65 47 103.5t142 38.5zM130 307q0 -40 31 -65t66 -25h119v184h-91q-62 0 -93.5 -25.5t-31.5 -68.5zM347 716l40 -31l-116 -143l-32 23z" />
    <glyph glyph-name="afii10071.var.accented" unicode="&#x451;`" horiz-adv-x="524" 
d="M116 614q0 12 8.5 20t20.5 8q11 0 19 -8t8 -20q0 -14 -7.5 -22t-19.5 -8t-20.5 8t-8.5 22zM360 614q0 12 8.5 20t20.5 8q11 0 19 -8t8 -20q0 -14 -7.5 -22t-19.5 -8t-20.5 8t-8.5 22zM315 711l34 -26l-116 -143l-26 18zM435 95l17 -40q-61 -64 -166 -64q-108 0 -173 64
q-66 65 -66 170q0 102 60 168q61 66 168 66q87 0 146 -56q58 -55 58 -147q0 -24 -3 -42h-371q3 -81 53 -127.5t131 -46.5q94 0 146 55zM270 410q-72 0 -116.5 -42t-51.5 -111h324q-1 71 -43 112t-113 41z" />
    <glyph glyph-name="fi" unicode="fi" horiz-adv-x="501" 
d="M412 0h-52v401h-215v-401h-52v516q0 95 46.5 144t130.5 49q94 0 143 -58l-37 -32q-39 41 -98 41q-133 0 -133 -153v-57h267v-450z" />
    <glyph glyph-name="fl" unicode="fl" horiz-adv-x="554" 
d="M352 116v514q-40 30 -90 30q-117 0 -117 -146v-64h120v-49h-120v-401h-52v523q0 186 155 186q70 0 113 -33h43v-532q0 -53 14.5 -77t49.5 -24q34 0 63 22l13 -41q-39 -30 -95 -30q-97 0 -97 122z" />
    <glyph glyph-name=".notdef" horiz-adv-x="235" 
 />
    <glyph glyph-name=".null" horiz-adv-x="0" 
 />
    <glyph glyph-name="nonmarkingreturn" horiz-adv-x="333" 
 />
    <glyph glyph-name="space" unicode=" " horiz-adv-x="235" 
 />
    <glyph glyph-name="exclam" unicode="!" horiz-adv-x="310" 
d="M182 193h-55v507h55v-507zM116 38q0 15 11.5 25.5t28.5 10.5q15 0 26 -11t11 -25q0 -16 -11 -28t-26 -12q-17 0 -28.5 12t-11.5 28z" />
    <glyph glyph-name="quotedbl" unicode="&#x22;" horiz-adv-x="401" 
d="M302 492h-52v208h52v-208zM151 492h-52v208h52v-208z" />
    <glyph glyph-name="numbersign" unicode="#" horiz-adv-x="688" 
d="M362 -9l-42 15l74 201h-210l-80 -216l-41 15l74 201h-97v46h114l72 194h-186v46h203l81 216l41 -15l-75 -201h210l81 216l41 -14l-75 -202h101v-46h-118l-71 -194h189v-46h-206zM483 447h-210l-72 -194h210z" />
    <glyph glyph-name="dollar" unicode="$" horiz-adv-x="589" 
d="M455 174q0 46 -27 79t-67 50l-87 37.5t-87 40.5t-67 59.5t-27 93.5q0 71 49.5 119t132.5 55v82h52v-82q108 -9 163 -70l-31 -41q-59 60 -156 60q-71 0 -111.5 -33t-40.5 -90q0 -45 27 -77.5t67 -48.5l87 -35.5t87 -39.5t67 -60.5t27 -97.5q0 -74 -51.5 -124t-134.5 -58
v-93h-52v92q-64 5 -118 31q-55 27 -79 69l33 38q29 -39 80.5 -63t101.5 -24q69 0 115 34q47 35 47 97z" />
    <glyph glyph-name="percent" unicode="%" horiz-adv-x="850" 
d="M100 425q-49 46 -49 117t49 116q49 46 123 46t123 -46q49 -45 49 -116t-49 -117t-123 -46t-123 46zM100 542q0 -52 36 -87q38 -33 87 -33q52 0 87.5 34t35.5 86t-37 85q-35 34 -86 34q-50 0 -87 -34q-36 -33 -36 -85zM504 42q-49 46 -49 117t49 116q49 46 123 46t123 -46
q49 -45 49 -116t-49 -117t-123 -46t-123 46zM504 159q0 -53 36 -87q38 -33 87 -33q52 0 87.5 34t35.5 86t-37 85q-35 34 -86 34q-50 0 -87 -34q-36 -33 -36 -85zM182 -9l-31 22l521 696l31 -22z" />
    <glyph glyph-name="ampersand" unicode="&#x26;" horiz-adv-x="737" 
d="M669 0h-65l-85 107q-81 -116 -223 -116q-94 0 -156 56t-62 143q0 74 45 133.5t129 115.5q-46 11 -74 47t-28 84q0 60 42 99q43 40 103 40q61 0 102 -40q43 -39 43 -99q0 -52 -34 -89q-34 -39 -81 -43l198 -252q66 114 66 264h51q0 -179 -85 -306zM297 43q119 0 190 105
l-202 261q-74 -54 -111.5 -103.5t-37.5 -105.5q0 -69 47 -113q49 -44 114 -44zM199 570q0 -39 28 -67t68 -28t68 28t28 67q0 40 -28.5 68t-67.5 28q-40 0 -68 -28t-28 -68z" />
    <glyph glyph-name="quotesingle" unicode="'" horiz-adv-x="250" 
d="M151 492h-52v208h52v-208z" />
    <glyph glyph-name="parenleft" unicode="(" horiz-adv-x="276" 
d="M276 -177l-34 -29q-202 174 -202 431q0 248 203 431l33 -29q-96 -89 -140 -187t-44 -215q0 -114 47 -218.5t137 -183.5z" />
    <glyph glyph-name="parenright" unicode=")" horiz-adv-x="276" 
d="M34 -206l-34 29q90 79 137 183.5t47 218.5q0 117 -44 215t-140 187l33 29q203 -183 203 -431q0 -257 -202 -431z" />
    <glyph glyph-name="asterisk" unicode="*" horiz-adv-x="460" 
d="M194 668q0 17 11.5 29t27.5 12t27.5 -12t11.5 -29q0 -15 -11.5 -26.5t-27.5 -11.5t-27.5 11.5t-11.5 26.5zM232 456q15 0 26 -12.5t11 -28.5t-11 -27.5t-26 -11.5q-17 0 -29 11.5t-12 27.5t12 28.5t29 12.5zM297 602q0 17 12 29t29 12q16 0 27.5 -12t11.5 -29
q0 -16 -11.5 -27t-27.5 -11q-17 0 -29 11t-12 27zM338 521q24 1 33.5 -19.5t0 -40.5t-33.5 -19q-17 0 -29 11.5t-12 27.5t12 28t29 12zM83 481q0 16 11.5 28t29.5 12q15 0 26.5 -12t11.5 -28t-11.5 -27.5t-26.5 -11.5q-18 0 -29.5 11t-11.5 28zM83 602q0 17 11.5 29t29.5 12
q15 0 26.5 -12t11.5 -29q0 -16 -11.5 -27t-26.5 -11q-18 0 -29.5 11t-11.5 27z" />
    <glyph glyph-name="plus" unicode="+" horiz-adv-x="589" 
d="M269 337h-198v46h198v199h49v-199h199v-46h-199v-201h-49v201z" />
    <glyph glyph-name="comma" unicode="," horiz-adv-x="200" 
d="M60 33q0 16 11.5 26.5t29.5 10.5q25 0 42 -24t17 -62q0 -48 -27 -83t-70 -48l-14 26q26 9 44.5 29.5t22.5 49.5q4 35 -10 52q-4 -10 -18 -10q-11 0 -19.5 9.5t-8.5 23.5z" />
    <glyph glyph-name="hyphen" unicode="-" horiz-adv-x="399" 
d="M314 247h-229v49h229v-49z" />
    <glyph glyph-name="period" unicode="." horiz-adv-x="184" 
d="M54 38q0 15 11.5 25.5t28.5 10.5q15 0 25.5 -11t10.5 -25q0 -16 -10.5 -28t-25.5 -12q-17 0 -28.5 12t-11.5 28z" />
    <glyph glyph-name="slash" unicode="/" horiz-adv-x="317" 
d="M12 -208l-42 16l336 901l41 -15z" />
    <glyph glyph-name="zero" unicode="0" horiz-adv-x="572" 
d="M507 350q0 -164 -54 -262q-53 -96 -165 -96q-113 0 -168 97t-55 261t54 261q55 97 167 97t166 -97q55 -97 55 -261zM288 41q164 0 164 309t-166 309t-166 -309t168 -309z" />
    <glyph glyph-name="one" unicode="1" horiz-adv-x="372" 
d="M73 537l-28 42l159 127h36v-706h-52v630z" />
    <glyph glyph-name="two" unicode="2" horiz-adv-x="529" 
d="M468 0h-417v43l80 79q19 19 84 91q53 61 85 108q29 41 56 102q26 58 26 103q0 56 -36 93t-98 37q-53 0 -94 -33.5t-50 -93.5l-45 17q10 75 66 119q55 43 126 43q90 0 138 -52q48 -51 48 -120q0 -53 -29 -122q-27 -63 -65 -118q-36 -51 -89 -110q-55 -62 -79 -84
q-10 -10 -31 -29.5t-25 -23.5h349v-49z" />
    <glyph glyph-name="three" unicode="3" horiz-adv-x="533" 
d="M249 -9q-71 0 -124.5 30.5t-79.5 90.5l31 36q25 -52 71 -78.5t102 -26.5q71 0 114.5 42t43.5 108q0 62 -43 100.5t-109 38.5h-60v52h54q50 0 91 41q40 40 40 101q0 62 -35.5 96.5t-98.5 34.5q-107 0 -152 -96l-31 33q21 55 70.5 85t116.5 30q86 0 135.5 -47t49.5 -129
q0 -57 -29.5 -102.5t-81.5 -66.5v-3q64 -9 101 -58t37 -112q0 -90 -60 -146q-60 -54 -153 -54z" />
    <glyph glyph-name="four" unicode="4" horiz-adv-x="538" 
d="M401 0h-52v185h-325v35l306 480h60l-296 -463h255v213h52v-213h103v-52h-103v-185z" />
    <glyph glyph-name="five" unicode="5" horiz-adv-x="518" 
d="M113 364l43 336h304v-52h-259l-30 -228q31 9 69 9q98 0 159 -58q62 -59 62 -154q0 -103 -63 -164q-64 -62 -154 -62q-62 0 -115.5 29t-83.5 82l31 37q26 -45 72.5 -70.5t96.5 -25.5q69 0 115 48q46 49 46 124q0 73 -52 119q-51 48 -135 48q-59 0 -106 -18z" />
    <glyph glyph-name="six" unicode="6" horiz-adv-x="550" 
d="M54 248q0 90 30 173t80 142q106 120 227 146l22 -39q-108 -25 -194 -119q-85 -93 -105 -236q24 52 71 83t111 31q90 0 146 -60q57 -60 57 -156q0 -95 -63 -159q-62 -63 -145 -63q-112 0 -175 74q-62 74 -62 183zM109 248q0 -85 47 -146q47 -59 134 -59q64 0 109 49
q45 50 45 117q0 76 -44 123.5t-120 47.5q-66 0 -112 -41t-59 -91z" />
    <glyph glyph-name="seven" unicode="7" horiz-adv-x="475" 
d="M374 648h-340v52h404v-32l-266 -668h-58z" />
    <glyph glyph-name="eight" unicode="8" horiz-adv-x="591" 
d="M280 386h31q49 0 90 39q40 40 40 96q0 61 -44 99q-43 37 -103 37q-61 0 -102 -37q-42 -38 -42 -99q0 -56 40 -96q40 -39 90 -39zM310 334h-26q-66 0 -112 -42q-46 -40 -46 -102q0 -64 49 -106q50 -41 120 -41q74 0 121 40q49 40 49 107q0 65 -44 104.5t-111 39.5zM71 181
q0 64 39 113t103 64v3q-49 15 -84 62q-34 47 -34 104q0 82 58 131q59 51 142 51q85 0 143 -51q58 -49 58 -131q0 -54 -33 -99.5t-88 -65.5v-3q64 -8 104 -57q41 -49 41 -117q0 -89 -66 -142q-64 -52 -158 -52t-159 52q-66 53 -66 138z" />
    <glyph glyph-name="nine" unicode="9" horiz-adv-x="548" 
d="M494 449q0 -191 -96 -314t-246 -144l-19 41q126 22 207 114q80 91 94 236q-21 -49 -68 -78t-110 -29q-91 0 -150 62q-58 61 -58 152q0 94 66 157t150 63q113 0 171 -73q59 -74 59 -187zM439 449q0 86 -44 147q-43 61 -129 61q-65 0 -114 -49q-49 -48 -49 -115
q0 -70 44 -120q43 -49 122 -49q69 0 112 37q44 37 58 88z" />
    <glyph glyph-name="colon" unicode=":" horiz-adv-x="322" 
d="M123 423q0 15 11.5 25.5t28.5 10.5q15 0 25.5 -11t10.5 -25q0 -16 -10.5 -28t-25.5 -12q-17 0 -28.5 12t-11.5 28zM123 38q0 15 11.5 25.5t28.5 10.5q15 0 25.5 -11t10.5 -25q0 -16 -10.5 -28t-25.5 -12q-17 0 -28.5 12t-11.5 28z" />
    <glyph glyph-name="semicolon" unicode=";" horiz-adv-x="325" 
d="M123 33q0 16 11.5 26.5t29.5 10.5q25 0 42 -24t17 -62q0 -48 -27 -83t-70 -48l-14 26q26 9 44.5 29.5t22.5 49.5q4 35 -10 52q-4 -10 -18 -10q-11 0 -19.5 9.5t-8.5 23.5zM123 423q0 15 11.5 25.5t28.5 10.5q15 0 25.5 -11t10.5 -25q0 -16 -10.5 -28t-25.5 -12
q-17 0 -28.5 12t-11.5 28z" />
    <glyph glyph-name="less" unicode="&#x3c;" horiz-adv-x="589" 
d="M484 146v-57l-420 262v22l420 260v-57l-347 -214z" />
    <glyph glyph-name="equal" unicode="=" horiz-adv-x="589" 
d="M517 423h-446v46h446v-46zM517 251h-446v46h446v-46z" />
    <glyph glyph-name="greater" unicode="&#x3e;" horiz-adv-x="589" 
d="M524 373v-22l-419 -262v57l347 216l-347 214v57z" />
    <glyph glyph-name="question" unicode="?" horiz-adv-x="460" 
d="M371 528q0 54 -41 92q-40 37 -104 37q-96 0 -154 -81l-32 33q28 45 79.5 72.5t110.5 27.5q91 0 143 -49q53 -50 53 -121q0 -95 -72 -153l-34.5 -26t-37 -29t-28.5 -28t-24 -37t-7 -41q0 -12 4 -33l-47 -2q-5 30 -5 43q0 74 69 124q6 5 28 21t30.5 23t25 23.5t23.5 29.5
t13.5 32.5t6.5 41.5zM163 38q0 15 11 25.5t28 10.5q15 0 26 -11t11 -25q0 -16 -11 -28t-26 -12q-17 0 -28 12t-11 28z" />
    <glyph glyph-name="at" unicode="@" horiz-adv-x="1014" 
d="M715 0h-63v58q-28 -30 -69 -48.5t-83 -18.5q-102 0 -163 64t-61 170q0 98 71 166t178 68q103 0 179 -49v-361h22q77 0 122 63q46 64 46 156q0 149 -106 246q-107 98 -271 98q-171 0 -284 -110t-113 -277q0 -164 113 -275q113 -112 284 -112q57 0 108 12l5 -48
q-56 -13 -113 -13q-192 0 -320 125q-126 124 -126 311q0 183 127 309q127 127 319 127q183 0 305 -110q121 -109 121 -282q0 -109 -60 -189t-168 -80zM508 40q40 0 80.5 20.5t63.5 48.5v268q-58 33 -128 33q-82 0 -138 -54q-55 -54 -55 -133q0 -84 48 -133.5t129 -49.5z" />
    <glyph glyph-name="A" unicode="A" horiz-adv-x="697" 
d="M77 0h-56l305 706h45l305 -706h-59l-102 238h-336zM492 290l-145 340l-146 -340h291z" />
    <glyph glyph-name="B" unicode="B" horiz-adv-x="617" 
d="M111 1v698q139 4 184 4q221 0 221 -173q0 -64 -37 -106.5t-99 -57.5v-2q78 -9 120.5 -52.5t42.5 -115.5q0 -98 -66.5 -148.5t-182.5 -50.5q-110 0 -183 4zM299 333h-133v-280q100 -4 130 -4q93 0 142.5 38t49.5 112q0 64 -49 99t-140 35zM293 651q-43 0 -127 -3v-266h136
q69 0 113 37q46 37 46 100q0 132 -168 132z" />
    <glyph glyph-name="C" unicode="C" horiz-adv-x="656" 
d="M600 109l22 -41q-36 -36 -94.5 -56.5t-122.5 -20.5q-156 0 -254 98q-97 97 -97 261q0 155 94 256q94 103 249 103q133 0 212 -66l-26 -41q-71 55 -185 55q-128 0 -207 -87q-79 -85 -79 -220q0 -137 82 -222t215 -85q110 0 191 66z" />
    <glyph glyph-name="D" unicode="D" horiz-adv-x="737" 
d="M120 0h-9v700h11q43 0 80 1q74 2 88 2q101 0 178.5 -27.5t123.5 -76t68.5 -109t22.5 -130.5q0 -158 -105 -260q-104 -102 -296 -102q-43 0 -79 1t-83 1zM288 651q-22 0 -64.5 -1.5t-57.5 -1.5v-596q33 0 62 -0.5t42 -1t14 -0.5q163 0 252 86q89 87 89 224q0 129 -85 210
q-86 81 -252 81z" />
    <glyph glyph-name="E" unicode="E" horiz-adv-x="575" 
d="M508 0h-397v700h387v-52h-332v-267h302v-52h-302v-277h342v-52z" />
    <glyph glyph-name="F" unicode="F" horiz-adv-x="542" 
d="M166 0h-55v700h391v-52h-336v-288h306v-52h-306v-308z" />
    <glyph glyph-name="G" unicode="G" horiz-adv-x="727" 
d="M611 287h-205v52h257v-252q-45 -45 -119 -71q-72 -25 -143 -25q-157 0 -252 98t-95 261q0 155 94 256q94 103 246 103q132 0 216 -66l-25 -43q-67 57 -185 57q-128 0 -208 -86t-80 -221q0 -138 80 -223q81 -84 211 -84q56 0 116 20q59 19 92 53v171z" />
    <glyph glyph-name="H" unicode="H" horiz-adv-x="769" 
d="M658 0h-55v331h-437v-331h-55v700h55v-317h437v317h55v-700z" />
    <glyph glyph-name="I" unicode="I" horiz-adv-x="325" 
d="M190 0h-55v700h55v-700z" />
    <glyph glyph-name="J" unicode="J" horiz-adv-x="361" 
d="M195 700h55v-546q0 -163 -140 -163q-59 0 -96 32l20 43q32 -23 69 -23q50 0 71 29.5t21 89.5v538z" />
    <glyph glyph-name="K" unicode="K" horiz-adv-x="637" 
d="M528 700h67l-331 -331l345 -369h-71l-339 365zM166 0h-55v700h55v-700z" />
    <glyph glyph-name="L" unicode="L" horiz-adv-x="552" 
d="M535 0h-424v700h55v-648h369v-52z" />
    <glyph glyph-name="M" unicode="M" horiz-adv-x="884" 
d="M166 0h-55v700h56l282 -384l271 384h53v-700h-55v614l-269 -378h-9l-274 375v-611z" />
    <glyph glyph-name="N" unicode="N" horiz-adv-x="797" 
d="M686 700v-700h-44l-479 602v-602h-52v700h44l479 -604v604h52z" />
    <glyph glyph-name="O" unicode="O" horiz-adv-x="810" 
d="M54 350q0 153 100 256t251 103q149 0 250 -102q101 -101 101 -257q0 -153 -101 -257q-101 -102 -250 -102q-150 0 -251 101q-100 101 -100 258zM112 350q0 -130 84 -219q85 -88 209 -88q128 0 210 88q83 89 83 219q0 133 -85 219q-84 88 -208 88q-125 0 -209 -88
q-84 -87 -84 -219z" />
    <glyph glyph-name="P" unicode="P" horiz-adv-x="585" 
d="M166 281v-281h-55v700q41 0 85 1t86 1q70 0 120.5 -18t77.5 -49t39 -66.5t12 -77.5q0 -91 -63 -152q-64 -62 -186 -62q-69 0 -116 4zM287 650q-33 0 -121 -2v-314q72 -5 114 -5q92 0 142.5 44t50.5 119q0 74 -46.5 116t-139.5 42z" />
    <glyph glyph-name="Q" unicode="Q" horiz-adv-x="810" 
d="M54 350q0 153 100 256t251 103q149 0 250 -102q101 -101 101 -257q0 -164 -112 -267l70 -83h-66l-43 51q-89 -60 -200 -60q-150 0 -251 101q-100 101 -100 258zM112 350q0 -130 84 -219q85 -88 209 -88q92 0 165 49l-62 75l37 33l64 -76q89 89 89 226q0 133 -85 219
q-84 88 -208 88q-125 0 -209 -88q-84 -87 -84 -219z" />
    <glyph glyph-name="R" unicode="R" horiz-adv-x="631" 
d="M166 294v-294h-55v700q45 0 91 1t77 1q245 0 245 -202q0 -72 -47 -127q-47 -53 -119 -68l245 -305h-68l-233 294h-136zM276 650q-22 0 -110 -2v-302h121q71 0 124 43q55 43 55 111q0 150 -190 150z" />
    <glyph glyph-name="S" unicode="S" horiz-adv-x="546" 
d="M434 174q0 46 -27 79t-67 50l-87 37.5t-87 40.5t-67 59.5t-27 93.5q0 76 55 125q56 50 150 50q123 0 188 -71l-30 -41q-60 60 -156 60q-69 0 -109 -33.5t-40 -89.5q0 -45 27 -77.5t67 -48.5l87 -35.5t87 -39.5t67 -60.5t27 -97.5q0 -82 -64 -133t-159 -51q-65 0 -128 27
q-62 29 -87 74l33 38q30 -39 80 -63t101 -24q68 0 117 35q49 34 49 96z" />
    <glyph glyph-name="T" unicode="T" horiz-adv-x="593" 
d="M269 648h-259v52h573v-52h-259v-648h-55v648z" />
    <glyph glyph-name="U" unicode="U" horiz-adv-x="751" 
d="M595 700h55v-407q0 -151 -75 -226t-190 -75q-127 0 -206 79q-78 79 -78 229v400h55v-390q0 -125 61.5 -195.5t167.5 -70.5q98 0 154 67t56 194v395z" />
    <glyph glyph-name="V" unicode="V" horiz-adv-x="656" 
d="M589 700h56l-294 -706h-39l-301 706h59l263 -622z" />
    <glyph glyph-name="W" unicode="W" horiz-adv-x="958" 
d="M890 700h54l-204 -700h-48l-210 608l-206 -608h-48l-214 700h62l181 -602l201 602h51l206 -603z" />
    <glyph glyph-name="X" unicode="X" horiz-adv-x="660" 
d="M557 700h66l-257 -344l266 -356h-66l-236 314l-237 -314h-65l267 356l-256 344h65l227 -302z" />
    <glyph glyph-name="Y" unicode="Y" horiz-adv-x="584" 
d="M509 700h61l-252 -394v-306h-55v306l-249 394h64l215 -342z" />
    <glyph glyph-name="Z" unicode="Z" horiz-adv-x="629" 
d="M501 648h-441v52h519v-35l-463 -613h473v-52h-549v35z" />
    <glyph glyph-name="bracketleft" unicode="[" horiz-adv-x="296" 
d="M290 -200h-230v850h230v-49h-178v-752h178v-49z" />
    <glyph glyph-name="backslash" unicode="\" horiz-adv-x="317" 
d="M-30 694l41 15l336 -901l-42 -16z" />
    <glyph glyph-name="bracketright" unicode="]" horiz-adv-x="296" 
d="M6 650h230v-850h-230v49h178v752h-178v49z" />
    <glyph glyph-name="asciicircum" unicode="^" horiz-adv-x="480" 
d="M105 450h-57l176 258h34l174 -258h-57l-134 203z" />
    <glyph glyph-name="underscore" unicode="_" horiz-adv-x="287" 
d="M287 -200h-287v52h287v-52z" />
    <glyph glyph-name="grave" unicode="`" horiz-adv-x="269" 
d="M209 565l-33 -23l-116 142l41 31z" />
    <glyph glyph-name="a" unicode="a" horiz-adv-x="459" 
d="M93 375l-14 43q67 41 143 41q88 0 127.5 -44t39.5 -136v-279h-52v69q-55 -75 -154 -75q-63 0 -101 36.5t-38 97.5q0 66 48 103q47 37 123 37t122 -34q0 70 -10 107q-8 36 -32.5 51t-75.5 18q-61 0 -126 -35zM199 43q84 0 138 71v75q-49 36 -117 36q-51 0 -86 -25t-35 -69
q0 -40 28 -64t72 -24z" />
    <glyph glyph-name="b" unicode="b" horiz-adv-x="550" 
d="M79 44v656h52v-305q28 28 70.5 46t86.5 18q99 0 156 -63q58 -62 58 -164q0 -110 -68 -176q-68 -65 -177 -65q-108 0 -178 53zM277 410q-42 0 -83 -20.5t-63 -48.5v-262q55 -39 129 -39q82 0 134 51q53 51 53 136t-46 134t-124 49z" />
    <glyph glyph-name="c" unicode="c" horiz-adv-x="490" 
d="M429 102l26 -38q-27 -35 -72.5 -54t-97.5 -19q-105 0 -172 64q-66 65 -66 170q0 99 64 166q65 68 160 68q116 0 175 -56l-25 -42q-53 49 -142 49q-72 0 -125 -53q-52 -52 -52 -132q0 -84 53 -135q53 -50 134 -50q87 0 140 62z" />
    <glyph glyph-name="d" unicode="d" horiz-adv-x="553" 
d="M474 0h-52v64q-63 -72 -155 -72q-100 0 -160 63t-60 168q0 104 69 170q71 66 176 66q78 0 130 -39v280h52v-700zM277 41q41 0 80.5 20t64.5 51v257q-62 41 -129 41q-81 0 -136 -52q-55 -51 -55 -133q0 -84 48 -134t127 -50z" />
    <glyph glyph-name="e" unicode="e" horiz-adv-x="524" 
d="M435 95l17 -40q-61 -64 -166 -64q-108 0 -173 64q-66 65 -66 170q0 102 60 168q61 66 168 66q87 0 146 -56q58 -55 58 -147q0 -24 -3 -42h-371q3 -81 53 -127.5t131 -46.5q94 0 146 55zM270 410q-72 0 -116.5 -42t-51.5 -111h324q-1 71 -43 112t-113 41z" />
    <glyph glyph-name="f" unicode="f" horiz-adv-x="335" 
d="M145 0h-52v523q0 186 155 186q73 0 117 -38l-20 -40q-37 29 -89 29q-111 0 -111 -146v-64h172v-49h-172v-401z" />
    <glyph glyph-name="g" unicode="g" horiz-adv-x="490" 
d="M14 -66q0 51 36 86t102 49q-15 18 -15 43t17 45q-44 19 -69 57t-25 86q0 69 49 114t129 45q64 0 113 -34h1l128 34v-49l-91 -23q27 -41 27 -87q0 -67 -50 -114q-50 -45 -128 -45q-28 0 -45 4q-9 -13 -9 -33q0 -23 13 -36q38 2 42 2q103 0 164 -38t61 -106
q0 -67 -61 -104.5t-164 -37.5q-104 0 -164.5 37t-60.5 105zM67 -66q0 -44 46 -69q47 -26 126 -26q78 0 125 26t47 69q0 44 -46.5 70.5t-125.5 26.5q-78 0 -125 -26t-47 -71zM148 380q-35 -32 -35 -80t35 -80t90 -32t90 32t35 80t-36 80q-35 32 -89 32q-53 0 -90 -32z" />
    <glyph glyph-name="h" unicode="h" horiz-adv-x="551" 
d="M131 0h-52v700h52v-311q27 30 72 49.5t90 19.5q188 0 188 -202v-256h-52v248q0 161 -148 161q-43 0 -84.5 -19.5t-65.5 -49.5v-340z" />
    <glyph glyph-name="i" unicode="i" horiz-adv-x="261" 
d="M156 0h-52v450h52v-450zM95 625q0 15 11 24t26 9q13 0 23.5 -9.5t10.5 -23.5q0 -17 -9.5 -27t-24.5 -10q-16 0 -26.5 10t-10.5 27z" />
    <glyph glyph-name="j" unicode="j" horiz-adv-x="260" 
d="M107 450h52v-483q0 -175 -141 -175q-58 0 -92 28l16 42q31 -21 65 -21q100 0 100 130v479zM97 625q0 15 11 24t26 9q13 0 23.5 -9.5t10.5 -23.5q0 -17 -9.5 -27t-24.5 -10q-16 0 -26.5 10t-10.5 27z" />
    <glyph glyph-name="k" unicode="k" horiz-adv-x="473" 
d="M366 450h68l-210 -211l229 -239h-70l-223 235zM131 0h-52v700h52v-700z" />
    <glyph glyph-name="l" unicode="l" horiz-adv-x="282" 
d="M79 116v584h52v-556q0 -53 15 -77t50 -24q34 0 63 22l13 -41q-39 -30 -95 -30q-98 0 -98 122z" />
    <glyph glyph-name="m" unicode="m" horiz-adv-x="805" 
d="M735 295v-295h-52v281q0 128 -114 128q-93 0 -138 -75q2 -10 2 -32v-302h-52v304q0 49 -30 77t-83 28q-87 0 -137 -71v-338h-52v450h52v-63q26 32 68.5 51.5t87.5 19.5q53 0 89.5 -22t48.5 -61q25 38 69.5 60.5t94.5 22.5q146 0 146 -163z" />
    <glyph glyph-name="n" unicode="n" horiz-adv-x="551" 
d="M131 0h-52v450h52v-63q28 31 72.5 51t89.5 20q94 0 141 -49t47 -152v-257h-52v247q0 162 -148 162q-43 0 -84 -19.5t-66 -49.5v-340z" />
    <glyph glyph-name="o" unicode="o" horiz-adv-x="567" 
d="M113 57q-66 66 -66 168t66 168t170 66t170 -66t66 -168t-66 -168t-170 -66t-170 66zM283 40q81 0 130 51q51 53 51 134t-51 133t-130 52q-78 0 -130 -52q-51 -52 -51 -133t51 -133t130 -52z" />
    <glyph glyph-name="p" unicode="p" horiz-adv-x="554" 
d="M131 -200h-52v650h52v-60q27 30 72.5 49.5t92.5 19.5q96 0 153 -63t57 -164q0 -105 -64 -173q-65 -68 -167 -68q-91 0 -144 38v-229zM282 410q-44 0 -85.5 -20t-65.5 -50v-259q62 -41 140 -41q80 0 130 53t50 136t-45 132t-124 49z" />
    <glyph glyph-name="q" unicode="q" horiz-adv-x="555" 
d="M475 -200h-52v249q-61 -58 -147 -58q-104 0 -167 63q-62 65 -62 171q0 98 71 166t178 68q103 0 179 -49v-610zM282 40q40 0 80 19.5t61 46.5v271q-58 33 -128 33q-83 0 -138 -54t-55 -133q0 -83 49 -133t131 -50z" />
    <glyph glyph-name="r" unicode="r" horiz-adv-x="329" 
d="M131 0h-52v450h52v-60q45 68 121 68q47 0 70 -17l-18 -49q-29 17 -63 17q-67 0 -110 -73v-336z" />
    <glyph glyph-name="s" unicode="s" horiz-adv-x="418" 
d="M312 118q0 31 -25.5 50t-62 30t-73.5 24.5t-62.5 43t-25.5 74.5q0 54 40 86.5t105 32.5q93 0 141 -50l-22 -39q-46 43 -118 43q-40 0 -65.5 -20.5t-25.5 -51.5q0 -32 25.5 -52.5t62 -32t73.5 -24.5t62.5 -41t25.5 -71q0 -61 -45.5 -95t-116.5 -34q-44 0 -92 20
q-45 19 -62 45l29 34q19 -23 57 -38q39 -15 74 -15q44 0 72.5 21.5t28.5 59.5z" />
    <glyph glyph-name="t" unicode="t" horiz-adv-x="348" 
d="M69 171v404h52v-125h181v-49h-181v-222q0 -136 101 -136q40 0 72 24l17 -41q-41 -32 -101 -32q-141 0 -141 177z" />
    <glyph glyph-name="u" unicode="u" horiz-adv-x="544" 
d="M412 450h52v-450h-52v71q-28 -35 -74.5 -57.5t-96.5 -22.5q-172 0 -172 198v261h52v-250q0 -160 139 -160q42 0 84.5 22.5t67.5 55.5v332z" />
    <glyph glyph-name="v" unicode="v" horiz-adv-x="472" 
d="M406 450h55l-203 -456h-36l-211 456h61l129 -283q28 -63 41 -99q17 48 40 102z" />
    <glyph glyph-name="w" unicode="w" horiz-adv-x="694" 
d="M627 450h53l-146 -456h-43l-124 327q-17 47 -20 57q-13 -44 -20 -60l-121 -324h-41l-151 456h56l102 -315l19 -66q17 53 22 66l115 315h43l117 -314l12 -36l11 -32q2 8 11 40l10 33z" />
    <glyph glyph-name="x" unicode="x" horiz-adv-x="495" 
d="M393 450h61l-169 -218l179 -232h-64l-154 199l-154 -199h-61l179 230l-169 220h64l143 -186z" />
    <glyph glyph-name="y" unicode="y" horiz-adv-x="481" 
d="M408 450h59l-182 -450q-49 -119 -85 -158q-36 -42 -84 -42q-37 0 -77 23l17 40q31 -15 53 -15q34 0 61 29.5t56 98.5l10 24l-222 450h62l154 -318l32 -70q1 4 25 72z" />
    <glyph glyph-name="z" unicode="z" horiz-adv-x="481" 
d="M358 401h-296v49h372v-34l-312 -367h307v-49h-382v34z" />
    <glyph glyph-name="braceleft" unicode="{" horiz-adv-x="313" 
d="M110 -73v177q0 51 -25.5 75t-64.5 23v46q39 0 64.5 27t25.5 83v161q0 67 28.5 99t93.5 32h61v-49h-49q-45 0 -63.5 -23t-18.5 -75v-163q0 -48 -20.5 -78.5t-54.5 -35.5q75 -9 75 -114v-166q0 -50 21.5 -73.5t66.5 -23.5h43v-49h-61q-122 0 -122 127z" />
    <glyph glyph-name="bar" unicode="|" horiz-adv-x="322" 
d="M187 0h-52v700h52v-700z" />
    <glyph glyph-name="braceright" unicode="}" horiz-adv-x="313" 
d="M203 104v-177q0 -127 -122 -127h-61v49h43q45 0 66.5 23.5t21.5 73.5v166q0 105 75 114q-34 5 -54.5 35.5t-20.5 78.5v163q0 52 -18.5 75t-63.5 23h-49v49h61q65 0 93.5 -32t28.5 -99v-161q0 -56 25.5 -83t64.5 -27v-46q-39 1 -64.5 -23t-25.5 -75z" />
    <glyph glyph-name="asciitilde" unicode="~" horiz-adv-x="589" 
d="M82 322l-25 34q64 64 128 64q42 0 117 -37q76 -36 114 -36q47 0 93 46l22 -36q-59 -56 -116 -56q-41 0 -116 36q-74 37 -112 37q-53 0 -105 -52z" />
    <glyph glyph-name="uni00A0" unicode="&#xa0;" horiz-adv-x="235" 
 />
    <glyph glyph-name="exclamdown" unicode="&#xa1;" horiz-adv-x="310" 
d="M129 264h55v-507h-55v507zM195 419q0 -15 -11.5 -25.5t-28.5 -10.5q-15 0 -26 11t-11 25q0 16 11 28t26 12q17 0 28.5 -12t11.5 -28z" />
    <glyph glyph-name="cent" unicode="&#xa2;" horiz-adv-x="589" 
d="M473 102l26 -38q-53 -65 -152 -72v-112h-52v113q-92 11 -148 73q-56 64 -56 159q0 94 58 159q58 67 146 74v109h52v-109q91 -6 143 -55l-25 -42q-53 49 -142 49q-72 0 -125 -53q-52 -52 -52 -132q0 -84 53 -135q53 -50 134 -50q87 0 140 62z" />
    <glyph glyph-name="sterling" unicode="&#xa3;" horiz-adv-x="589" 
d="M172 283h-91v43h79q-5 14 -22 49q-34 69 -34 139q0 79 57 136q57 58 151 58q121 0 187 -73l-30 -40q-61 61 -157 61q-67 0 -109 -43q-41 -44 -41 -102q0 -37 9 -69q6 -22 25 -63t23 -53h172v-43h-163q3 -16 3 -35q0 -81 -52 -148h7q39 0 115 -26t112 -26q59 0 110 48
l25 -40q-60 -60 -137 -60q-38 0 -114 26t-114 26q-60 0 -115 -55l-24 41q36 36 78 54q54 68 54 152q0 20 -4 43z" />
    <glyph glyph-name="currency" unicode="&#xa4;" horiz-adv-x="589" 
d="M118 490l-89 91l32 33l90 -90q61 50 144 50t144 -50l95 94l32 -32l-95 -96q48 -62 48 -143q0 -83 -48 -144l92 -91l-33 -32l-90 90q-61 -50 -145 -50q-83 0 -144 50l-96 -95l-32 32l95 97q-47 64 -47 143t47 143zM120 347q0 -75 48 -128t127 -53q80 0 127 53
q48 53 48 128t-48 128t-127 53t-127 -53t-48 -128z" />
    <glyph glyph-name="yen" unicode="&#xa5;" horiz-adv-x="589" 
d="M266 305h-195v43h169l-215 352h64l206 -342l207 342h61l-216 -352h170v-43h-196v-123h196v-43h-196v-139h-55v139h-195v43h195v123z" />
    <glyph glyph-name="brokenbar" unicode="&#xa6;" horiz-adv-x="322" 
d="M187 700v-260h-52v260h52zM135 0v260h52v-260h-52z" />
    <glyph glyph-name="section" unicode="&#xa7;" horiz-adv-x="524" 
d="M71 249q0 66 39 114.5t104 62.5q-93 45 -93 135q0 61 42.5 100t110.5 39q83 0 129 -61l-31 -36q-4 4 -8 8.5t-8.5 8.5t-5.5 5q-26 26 -76 26q-42 0 -71.5 -29t-29.5 -70q0 -78 104 -122q79 -4 127 -55q49 -50 49 -126q0 -66 -39 -114.5t-105 -61.5q92 -47 92 -134
q0 -61 -42.5 -100t-110.5 -39q-83 0 -129 61l31 36q4 -4 8 -8.5t8.5 -8.5t5.5 -5q26 -26 76 -26q42 0 71.5 29t29.5 70q0 78 -105 120q-77 6 -125 56q-48 51 -48 125zM123 249q0 -57 41 -96q40 -39 98 -39t99 38q40 39 40 97q0 57 -41 96q-40 40 -98 40t-99 -39
q-40 -39 -40 -97z" />
    <glyph glyph-name="dieresis" unicode="&#xa8;" horiz-adv-x="393" 
d="M60 618q0 15 9.5 24t24.5 9q12 0 21.5 -9.5t9.5 -23.5q0 -15 -9.5 -25t-21.5 -10q-14 0 -24 9.5t-10 25.5zM268 618q0 15 9.5 24t24.5 9q12 0 21.5 -9.5t9.5 -23.5q0 -15 -9.5 -25t-21.5 -10q-14 0 -24 9.5t-10 25.5z" />
    <glyph glyph-name="copyright" unicode="&#xa9;" horiz-adv-x="1018" 
d="M201 -85q-124 124 -124 306t124 306q125 126 308 126q184 0 308 -126q124 -124 124 -306t-124 -306q-124 -126 -308 -126q-183 0 -308 126zM233 494q-110 -113 -110 -273t110 -273q111 -113 276 -113t275 113q111 112 111 273t-111 273q-110 113 -275 113t-276 -113z
M661 102l26 -38q-27 -35 -72.5 -54t-97.5 -19q-105 0 -172 64q-66 65 -66 170q0 99 64 166q65 68 160 68q116 0 175 -56l-25 -42q-53 49 -142 49q-72 0 -125 -53q-52 -52 -52 -132q0 -84 53 -135q53 -50 134 -50q87 0 140 62z" />
    <glyph glyph-name="ordfeminine" unicode="&#xaa;" horiz-adv-x="409" 
d="M108 590l-21 31q49 37 117 37q61 0 96 -32t35 -91v-196h-46v52q-43 -55 -124 -55q-49 0 -80 28t-31 70q0 48 33 75t91 27q66 0 111 -27v15q0 94 -93 94q-48 0 -88 -28zM185 375q59 0 104 45v58q-44 24 -97 24q-39 0 -64 -17.5t-25 -46.5q0 -28 23.5 -45.5t58.5 -17.5z
" />
    <glyph glyph-name="guillemotleft" unicode="&#xab;" horiz-adv-x="506" 
d="M439 69l-34 -32l-180 211v4l182 209l34 -30l-156 -181zM265 69l-34 -32l-180 211v4l182 209l34 -30l-156 -181z" />
    <glyph glyph-name="logicalnot" unicode="&#xac;" horiz-adv-x="589" 
d="M477 337h-412v46h458v-177h-46v131z" />
    <glyph glyph-name="uni00AD" unicode="&#xad;" horiz-adv-x="399" 
d="M314 247h-229v49h229v-49z" />
    <glyph glyph-name="registered" unicode="&#xae;" horiz-adv-x="582" 
d="M54 497q0 98 69 167q71 69 169 69t167 -70q69 -69 69 -166q0 -99 -69 -169q-69 -69 -167 -69q-100 0 -169 69t-69 169zM154 633q-57 -57 -57 -137t57 -137t137 -57t137 57t57 137t-57 137t-137 57t-137 -57zM240 471v-111h-37v280h83q103 0 103 -83q0 -28 -18 -50
t-48 -29l87 -118h-45l-80 111h-45zM282 612h-42v-113h47q27 0 46 17t19 41q0 55 -70 55z" />
    <glyph glyph-name="overscore" unicode="&#xaf;" horiz-adv-x="372" 
d="M312 604h-252v43h252v-43z" />
    <glyph glyph-name="degree" unicode="&#xb0;" horiz-adv-x="398" 
d="M54 569q0 61 42 103q42 43 102 43q61 0 103 -42q43 -40 43 -102q0 -61 -43 -104q-42 -42 -103 -42q-60 0 -102 42t-42 102zM129 639q-29 -29 -29 -69t29 -70q29 -29 70 -29t70 29q29 30 29 70t-29 69q-29 30 -70 30t-70 -30z" />
    <glyph glyph-name="plusminus" unicode="&#xb1;" horiz-adv-x="589" 
d="M269 416h-198v46h198v199h49v-199h199v-46h-199v-139h-49v139zM517 173h-446v46h446v-46z" />
    <glyph glyph-name="twosuperior" unicode="&#xb2;" horiz-adv-x="339" 
d="M307 350h-268v34l31 22l40 28q4 4 35 28q26 19 38 33l27 32q29 32 29 69q0 30 -20 49t-54 19q-30 0 -54 -17.5t-28 -45.5l-40 13q7 41 42 65.5t83 24.5q58 0 89 -28.5t31 -75.5q0 -99 -187 -210h206v-40z" />
    <glyph glyph-name="threesuperior" unicode="&#xb3;" horiz-adv-x="342" 
d="M164 345q-100 0 -133 67l28 24q13 -24 40 -38t60 -14q41 0 65.5 18.5t24.5 48.5q0 26 -22.5 43t-59.5 17h-36v34h32q29 0 50 18.5t21 45.5t-20.5 42t-55.5 15q-66 0 -92 -48l-24 25q32 62 125 62q54 0 85 -23.5t31 -64.5q0 -29 -19 -52t-52 -33v-1q39 -4 62.5 -27.5
t23.5 -56.5q0 -45 -38 -73.5t-96 -28.5z" />
    <glyph glyph-name="acute" unicode="&#xb4;" horiz-adv-x="268" 
d="M168 716l40 -31l-116 -143l-32 23z" />
    <glyph glyph-name="mu" unicode="&#xb5;" horiz-adv-x="547" 
d="M415 450h52v-450h-52v71q-28 -35 -74.5 -57.5t-96.5 -22.5q-77 0 -120 41v-232h-52v650h52v-250q0 -160 139 -160q42 0 84.5 22.5t67.5 55.5v332z" />
    <glyph glyph-name="mu" unicode="&#x3bc;" horiz-adv-x="547" 
d="M415 450h52v-450h-52v71q-28 -35 -74.5 -57.5t-96.5 -22.5q-77 0 -120 41v-232h-52v650h52v-250q0 -160 139 -160q42 0 84.5 22.5t67.5 55.5v332z" />
    <glyph glyph-name="paragraph" unicode="&#xb6;" horiz-adv-x="437" 
d="M51 481q0 102 56 160.5t152 58.5h144v-49h-94v-680q0 -179 -147 -179q-61 0 -101 35l22 38q31 -24 75 -24q55 0 77 32.5t22 98.5v291q-91 2 -148 59q-58 58 -58 159z" />
    <glyph glyph-name="middot" unicode="&#xb7;" horiz-adv-x="235" 
d="M79 297q0 15 11.5 25.5t28.5 10.5q15 0 25.5 -11t10.5 -25q0 -16 -10.5 -28t-25.5 -12q-17 0 -28.5 12t-11.5 28z" />
    <glyph glyph-name="cedilla" unicode="&#xb8;" horiz-adv-x="330" 
d="M60 -174l16 27q35 -22 72 -22q31 0 50.5 12.5t19.5 33.5q0 47 -71 47h-6v76h30v-50q99 -3 99 -76q0 -34 -31 -55.5t-84 -21.5q-46 0 -95 29z" />
    <glyph glyph-name="onesuperior" unicode="&#xb9;" horiz-adv-x="239" 
d="M46 603l-19 32l99 67h32v-352h-46v297z" />
    <glyph glyph-name="ordmasculine" unicode="&#xba;" horiz-adv-x="458" 
d="M106 379q-49 46 -49 117t49 116q49 46 123 46t123 -46q49 -45 49 -116t-49 -117t-123 -46t-123 46zM106 496q0 -52 36 -87q38 -33 87 -33q52 0 87.5 34t35.5 86t-37 85q-35 34 -86 34q-50 0 -87 -34q-36 -33 -36 -85z" />
    <glyph glyph-name="guillemotright" unicode="&#xbb;" horiz-adv-x="506" 
d="M455 252v-4l-180 -211l-35 32l155 181l-156 181l34 30zM281 252v-4l-180 -211l-35 32l155 181l-156 181l34 30z" />
    <glyph glyph-name="onequarter" unicode="&#xbc;" horiz-adv-x="657" 
d="M575 0h-43v87h-195v29l179 234h45l-175 -226h146v101h43v-101h62v-37h-62v-87zM60 603l-19 32l99 67h32v-352h-46v297zM85 -9l-31 22l521 696l31 -22z" />
    <glyph glyph-name="onehalf" unicode="&#xbd;" horiz-adv-x="673" 
d="M633 0h-268v34l31 22l40 28q3 4 35 28q26 19 38 33l27 32q29 32 29 69q0 30 -20 49t-54 19q-30 0 -54 -17.5t-28 -45.5l-40 13q7 41 42 65.5t83 24.5q58 0 89 -28.5t31 -75.5q0 -99 -187 -210h206v-40zM60 603l-19 32l99 67h32v-352h-46v297zM57 -9l-31 22l521 696
l31 -22z" />
    <glyph glyph-name="threequarters" unicode="&#xbe;" horiz-adv-x="699" 
d="M137 -9l-31 22l521 696l31 -22zM617 0h-43v87h-195v29l179 234h45l-175 -226h146v101h43v-101h62v-37h-62v-87zM167 345q-99 0 -133 67l28 24q13 -24 40 -38t60 -14q41 0 65.5 18.5t24.5 48.5q0 26 -22.5 43t-59.5 17h-36v34h32q29 0 50 18.5t21 45.5t-20.5 42t-55.5 15
q-67 0 -92 -48l-24 25q32 62 125 62q54 0 85 -23.5t31 -64.5q0 -29 -19 -52t-52 -33v-1q39 -4 62.5 -27.5t23.5 -56.5q0 -45 -38 -73.5t-96 -28.5z" />
    <glyph glyph-name="questiondown" unicode="&#xbf;" horiz-adv-x="460" 
d="M89 -71q0 -54 41 -92q40 -37 104 -37q96 0 154 81l32 -33q-28 -45 -79.5 -72.5t-110.5 -27.5q-92 0 -144 49t-52 121q0 96 71 152q10 8 35 26.5t37.5 29.5t29 28.5t23.5 36.5t7 41q0 12 -4 33l47 2q5 -30 5 -43q0 -74 -69 -125l-24 -17.5t-26 -19.5l-22.5 -18.5
t-23 -23.5l-15.5 -25t-12.5 -31.5t-3.5 -34.5zM297 419q0 -15 -11 -25.5t-28 -10.5q-15 0 -26 11t-11 25q0 16 11 28t26 12q17 0 28 -12t11 -28z" />
    <glyph glyph-name="Agrave" unicode="&#xc0;" horiz-adv-x="697" 
d="M77 0h-56l305 706h45l305 -706h-59l-102 238h-336zM492 290l-145 340l-146 -340h291zM398 769l-15 -31l-183 86l20 44z" />
    <glyph glyph-name="Aacute" unicode="&#xc1;" horiz-adv-x="697" 
d="M77 0h-56l305 706h45l305 -706h-59l-102 238h-336zM492 290l-145 340l-146 -340h291zM480 868l19 -44l-182 -86l-16 31z" />
    <glyph glyph-name="Acircumflex" unicode="&#xc2;" horiz-adv-x="697" 
d="M77 0h-56l305 706h45l305 -706h-59l-102 238h-336zM492 290l-145 340l-146 -340h291zM197 737l-20 30l168 98h4l170 -98l-23 -30l-149 81z" />
    <glyph glyph-name="Atilde" unicode="&#xc3;" horiz-adv-x="697" 
d="M77 0h-56l305 706h45l305 -706h-59l-102 238h-336zM492 290l-145 340l-146 -340h291zM198 767l-18 33q40 40 90 40q32 0 80 -22t76 -22q43 0 74 33l16 -33q-39 -46 -93 -46q-28 0 -79 22q-50 22 -80 22q-33 0 -66 -27z" />
    <glyph glyph-name="Adieresis" unicode="&#xc4;" horiz-adv-x="697" 
d="M77 0h-56l305 706h45l305 -706h-59l-102 238h-336zM492 290l-145 340l-146 -340h291zM195 804q0 15 11 23.5t27 8.5q15 0 25.5 -9t10.5 -23q0 -15 -10.5 -24.5t-25.5 -9.5q-16 0 -27 9.5t-11 24.5zM428 804q0 15 11.5 23.5t27.5 8.5q15 0 25 -9t10 -23q0 -15 -10 -24.5
t-25 -9.5q-17 0 -28 9t-11 25z" />
    <glyph glyph-name="Aring" unicode="&#xc5;" horiz-adv-x="697" 
d="M236 785q0 43 30 65.5t81 22.5q52 0 82.5 -22.5t30.5 -65.5q0 -36 -23 -59.5t-62 -29.5l301 -696h-59l-102 238h-336l-102 -238h-56l300 696q-39 5 -62 28.5t-23 60.5zM492 290l-145 340l-146 -340h291zM276 785q0 -28 20 -45q20 -15 52 -15t52 15q20 17 20 45
q0 57 -72 57t-72 -57z" />
    <glyph glyph-name="AE" unicode="&#xc6;" horiz-adv-x="960" 
d="M496 700h387v-52h-332v-267h302v-52h-302v-277h342v-52h-397v244h-264l-172 -244h-65zM496 296v321l-227 -321h227z" />
    <glyph glyph-name="Ccedilla" unicode="&#xc7;" horiz-adv-x="656" 
d="M293 -173l17 28q42 -24 74 -24q31 0 50.5 12.5t19.5 33.5q0 47 -71 47h-6v68q-147 9 -235 106t-88 252t94 256q94 103 249 103q133 0 212 -66l-26 -41q-71 55 -185 55q-128 0 -207 -87q-79 -85 -79 -220q0 -137 82 -222t215 -85q110 0 191 66l22 -41q-35 -35 -93 -55.5
t-122 -21.5v-41q102 -3 102 -76q0 -34 -31 -55q-31 -22 -83 -22q-53 0 -102 30z" />
    <glyph glyph-name="Egrave" unicode="&#xc8;" horiz-adv-x="575" 
d="M508 0h-397v700h387v-52h-332v-267h302v-52h-302v-277h342v-52zM373 769l-15 -31l-183 86l20 44z" />
    <glyph glyph-name="Eacute" unicode="&#xc9;" horiz-adv-x="575" 
d="M508 0h-397v700h387v-52h-332v-267h302v-52h-302v-277h342v-52zM416 868l19 -44l-182 -86l-16 31z" />
    <glyph glyph-name="Ecircumflex" unicode="&#xca;" horiz-adv-x="575" 
d="M155 737l-20 30l168 98h4l170 -98l-23 -30l-149 81zM508 0h-397v700h387v-52h-332v-267h302v-52h-302v-277h342v-52z" />
    <glyph glyph-name="Edieresis" unicode="&#xcb;" horiz-adv-x="575" 
d="M154 804q0 15 11 23.5t27 8.5q15 0 25.5 -9t10.5 -23q0 -15 -10.5 -24.5t-25.5 -9.5q-16 0 -27 9.5t-11 24.5zM387 804q0 15 11.5 23.5t27.5 8.5q15 0 25 -9t10 -23q0 -15 -10 -24.5t-25 -9.5q-17 0 -28 9t-11 25zM508 0h-397v700h387v-52h-332v-267h302v-52h-302v-277
h342v-52z" />
    <glyph glyph-name="Igrave" unicode="&#xcc;" horiz-adv-x="325" 
d="M190 0h-55v700h55v-700zM201 769l-15 -31l-183 86l20 44z" />
    <glyph glyph-name="Iacute" unicode="&#xcd;" horiz-adv-x="325" 
d="M190 0h-55v700h55v-700zM303 868l19 -44l-182 -86l-16 31z" />
    <glyph glyph-name="Icircumflex" unicode="&#xce;" horiz-adv-x="325" 
d="M12 737l-20 30l168 98h4l170 -98l-23 -30l-149 81zM190 0h-55v700h55v-700z" />
    <glyph glyph-name="Idieresis" unicode="&#xcf;" horiz-adv-x="325" 
d="M9 804q0 15 11 23.5t27 8.5q15 0 25.5 -9t10.5 -23q0 -15 -10.5 -24.5t-25.5 -9.5q-16 0 -27 9.5t-11 24.5zM242 804q0 15 11.5 23.5t27.5 8.5q15 0 25 -9t10 -23q0 -15 -10 -24.5t-25 -9.5q-17 0 -28 9t-11 25zM190 0h-55v700h55v-700z" />
    <glyph glyph-name="Eth" unicode="&#xd0;" horiz-adv-x="758" 
d="M132 332h-122v49h122v319h11q43 0 80 1q74 2 88 2q101 0 178.5 -27.5t123.5 -76t68.5 -109t22.5 -130.5q0 -158 -105 -260q-103 -102 -296 -102q-43 0 -79 1t-83 1h-9v332zM309 651q-22 0 -64.5 -1.5t-57.5 -1.5v-267h198v-49h-198v-280q33 0 62 -0.5t42 -1t14 -0.5
q163 0 252 86q89 87 89 224q0 129 -85 210t-252 81z" />
    <glyph glyph-name="Ntilde" unicode="&#xd1;" horiz-adv-x="797" 
d="M686 700v-700h-44l-479 602v-602h-52v700h44l479 -604v604h52zM254 767l-18 33q40 40 90 40q32 0 80 -22t76 -22q42 0 74 33l16 -33q-39 -46 -93 -46q-28 0 -79 22q-50 22 -80 22q-33 0 -66 -27z" />
    <glyph glyph-name="Ograve" unicode="&#xd2;" horiz-adv-x="810" 
d="M54 350q0 153 100 256t251 103q149 0 250 -102q101 -101 101 -257q0 -153 -101 -257q-101 -102 -250 -102q-150 0 -251 101q-100 101 -100 258zM112 350q0 -130 84 -219q85 -88 209 -88q128 0 210 88q83 89 83 219q0 133 -85 219q-84 88 -208 88q-125 0 -209 -88
q-84 -87 -84 -219zM493 769l-15 -31l-183 86l20 44z" />
    <glyph glyph-name="Oacute" unicode="&#xd3;" horiz-adv-x="810" 
d="M54 350q0 153 100 256t251 103q149 0 250 -102q101 -101 101 -257q0 -153 -101 -257q-101 -102 -250 -102q-150 0 -251 101q-100 101 -100 258zM112 350q0 -130 84 -219q85 -88 209 -88q128 0 210 88q83 89 83 219q0 133 -85 219q-84 88 -208 88q-125 0 -209 -88
q-84 -87 -84 -219zM522 868l19 -44l-182 -86l-16 31z" />
    <glyph glyph-name="Ocircumflex" unicode="&#xd4;" horiz-adv-x="810" 
d="M258 737l-20 30l168 98h4l170 -98l-23 -30l-149 81zM54 350q0 153 100 256t251 103q149 0 250 -102q101 -101 101 -257q0 -153 -101 -257q-101 -102 -250 -102q-150 0 -251 101q-100 101 -100 258zM112 350q0 -130 84 -219q85 -88 209 -88q128 0 210 88q83 89 83 219
q0 133 -85 219q-84 88 -208 88q-125 0 -209 -88q-84 -87 -84 -219z" />
    <glyph glyph-name="Otilde" unicode="&#xd5;" horiz-adv-x="810" 
d="M54 350q0 153 100 256t251 103q149 0 250 -102q101 -101 101 -257q0 -153 -101 -257q-101 -102 -250 -102q-150 0 -251 101q-100 101 -100 258zM112 350q0 -130 84 -219q85 -88 209 -88q128 0 210 88q83 89 83 219q0 133 -85 219q-84 88 -208 88q-125 0 -209 -88
q-84 -87 -84 -219zM256 767l-18 33q40 40 90 40q32 0 80 -22t76 -22q42 0 74 33l16 -33q-39 -46 -93 -46q-28 0 -79 22q-50 22 -80 22q-33 0 -66 -27z" />
    <glyph glyph-name="Odieresis" unicode="&#xd6;" horiz-adv-x="810" 
d="M54 350q0 153 100 256t251 103q149 0 250 -102q101 -101 101 -257q0 -153 -101 -257q-101 -102 -250 -102q-150 0 -251 101q-100 101 -100 258zM112 350q0 -130 84 -219q85 -88 209 -88q128 0 210 88q83 89 83 219q0 133 -85 219q-84 88 -208 88q-125 0 -209 -88
q-84 -87 -84 -219zM252 804q0 15 11 23.5t27 8.5q15 0 25.5 -9t10.5 -23q0 -15 -10.5 -24.5t-25.5 -9.5q-16 0 -27 9.5t-11 24.5zM485 804q0 15 11.5 23.5t27.5 8.5q15 0 25 -9t10 -23q0 -15 -10 -24.5t-25 -9.5q-17 0 -28 9t-11 25z" />
    <glyph glyph-name="multiply" unicode="&#xd7;" horiz-adv-x="589" 
d="M262 360l-141 141l33 33l140 -142l141 142l32 -33l-140 -141l142 -142l-32 -32l-143 141l-142 -141l-32 32z" />
    <glyph glyph-name="Oslash" unicode="&#xd8;" horiz-adv-x="810" 
d="M54 350q0 153 100 256t251 103q141 0 238 -90l48 46l30 -30l-48 -47q83 -100 83 -238q0 -153 -101 -257q-101 -102 -250 -102q-144 0 -245 95l-47 -46l-31 32l49 47q-77 97 -77 231zM698 350q0 112 -66 198l-431 -422q83 -83 204 -83q128 0 210 88q83 89 83 219zM112 350
q0 -109 60 -190l431 420q-83 77 -198 77q-125 0 -209 -88q-84 -87 -84 -219z" />
    <glyph glyph-name="Ugrave" unicode="&#xd9;" horiz-adv-x="751" 
d="M595 700h55v-407q0 -151 -75 -226t-190 -75q-127 0 -206 79q-78 79 -78 229v400h55v-390q0 -125 61.5 -195.5t167.5 -70.5q98 0 154 67t56 194v395zM450 769l-15 -31l-183 86l20 44z" />
    <glyph glyph-name="Uacute" unicode="&#xda;" horiz-adv-x="751" 
d="M595 700h55v-407q0 -151 -75 -226t-190 -75q-127 0 -206 79q-78 79 -78 229v400h55v-390q0 -125 61.5 -195.5t167.5 -70.5q98 0 154 67t56 194v395zM489 868l19 -44l-182 -86l-16 31z" />
    <glyph glyph-name="Ucircumflex" unicode="&#xdb;" horiz-adv-x="751" 
d="M224 737l-20 30l168 98h4l170 -98l-23 -30l-149 81zM595 700h55v-407q0 -151 -75 -226t-190 -75q-127 0 -206 79q-78 79 -78 229v400h55v-390q0 -125 61.5 -195.5t167.5 -70.5q98 0 154 67t56 194v395z" />
    <glyph glyph-name="Udieresis" unicode="&#xdc;" horiz-adv-x="751" 
d="M219 804q0 15 11 23.5t27 8.5q15 0 25.5 -9t10.5 -23q0 -15 -10.5 -24.5t-25.5 -9.5q-16 0 -27 9.5t-11 24.5zM452 804q0 15 11.5 23.5t27.5 8.5q15 0 25 -9t10 -23q0 -15 -10 -24.5t-25 -9.5q-17 0 -28 9t-11 25zM595 700h55v-407q0 -151 -75 -226t-190 -75
q-127 0 -206 79q-78 79 -78 229v400h55v-390q0 -125 61.5 -195.5t167.5 -70.5q98 0 154 67t56 194v395z" />
    <glyph glyph-name="Yacute" unicode="&#xdd;" horiz-adv-x="584" 
d="M509 700h61l-252 -394v-306h-55v306l-249 394h64l215 -342zM411 868l19 -44l-182 -86l-16 31z" />
    <glyph glyph-name="Thorn" unicode="&#xde;" horiz-adv-x="585" 
d="M166 174v-174h-55v700h55v-107q31 0 60 1t56 1q70 0 120.5 -18t77.5 -49t39 -66.5t12 -77.5q0 -90 -63 -152q-64 -62 -186 -62q-69 0 -116 4zM283 543q-77 0 -117 -3v-313q72 -5 114 -5q92 0 142.5 44t50.5 119q0 74 -48 116t-142 42z" />
    <glyph glyph-name="germandbls" unicode="&#xdf;" horiz-adv-x="542" 
d="M439 149q0 34 -20.5 61t-49.5 46l-58.5 37.5t-50 45t-20.5 59.5q0 25 10.5 46.5t26 36.5l31 29.5t26 33t10.5 39.5q0 33 -27 55t-65 22q-59 0 -87 -37.5t-28 -118.5v-507h-52v517q0 195 173 195q60 0 100 -34q41 -33 41 -83q0 -60 -52 -102t-52 -83q0 -53 70 -96
q68 -40 91 -66q38 -41 38 -97q0 -69 -43 -113q-44 -44 -107 -44q-91 0 -141 70l20 39q47 -60 109 -60q44 0 75.5 30.5t31.5 78.5z" />
    <glyph glyph-name="agrave" unicode="&#xe0;" horiz-adv-x="459" 
d="M93 375l-14 43q67 41 143 41q88 0 127.5 -44t39.5 -136v-279h-52v69q-55 -75 -154 -75q-63 0 -101 36.5t-38 97.5q0 66 48 103q47 37 123 37t122 -34q0 70 -10 107q-8 36 -32.5 51t-75.5 18q-61 0 -126 -35zM199 43q84 0 138 71v75q-49 36 -117 36q-51 0 -86 -25t-35 -69
q0 -40 28 -64t72 -24zM287 565l-33 -23l-116 142l41 31z" />
    <glyph glyph-name="aacute" unicode="&#xe1;" horiz-adv-x="459" 
d="M93 375l-14 43q67 41 143 41q88 0 127.5 -44t39.5 -136v-279h-52v69q-55 -75 -154 -75q-63 0 -101 36.5t-38 97.5q0 66 48 103q47 37 123 37t122 -34q0 70 -10 107q-8 36 -32.5 51t-75.5 18q-61 0 -126 -35zM199 43q84 0 138 71v75q-49 36 -117 36q-51 0 -86 -25t-35 -69
q0 -40 28 -64t72 -24zM284 716l40 -31l-116 -143l-32 23z" />
    <glyph glyph-name="acircumflex" unicode="&#xe2;" horiz-adv-x="459" 
d="M93 375l-14 43q67 41 143 41q88 0 127.5 -44t39.5 -136v-279h-52v69q-55 -75 -154 -75q-63 0 -101 36.5t-38 97.5q0 66 48 103q47 37 123 37t122 -34q0 70 -10 107q-8 36 -32.5 51t-75.5 18q-61 0 -126 -35zM199 43q84 0 138 71v75q-49 36 -117 36q-51 0 -86 -25t-35 -69
q0 -40 28 -64t72 -24zM228 707h4l128 -131l-25 -32l-105 105l-107 -104l-26 31z" />
    <glyph glyph-name="atilde" unicode="&#xe3;" horiz-adv-x="459" 
d="M93 375l-14 43q67 41 143 41q88 0 127.5 -44t39.5 -136v-279h-52v69q-55 -75 -154 -75q-63 0 -101 36.5t-38 97.5q0 66 48 103q47 37 123 37t122 -34q0 70 -10 107q-8 36 -32.5 51t-75.5 18q-61 0 -126 -35zM199 43q84 0 138 71v75q-49 36 -117 36q-51 0 -86 -25t-35 -69
q0 -40 28 -64t72 -24zM98 573l-23 25q52 52 101 52q23 0 57 -23q35 -23 54 -23q30 0 74 38l19 -27q-52 -54 -98 -54q-21 0 -56 23q-34 23 -56 23q-29 0 -72 -34z" />
    <glyph glyph-name="adieresis" unicode="&#xe4;" horiz-adv-x="459" 
d="M93 375l-14 43q67 41 143 41q88 0 127.5 -44t39.5 -136v-279h-52v69q-55 -75 -154 -75q-63 0 -101 36.5t-38 97.5q0 66 48 103q47 37 123 37t122 -34q0 70 -10 107q-8 36 -32.5 51t-75.5 18q-61 0 -126 -35zM199 43q84 0 138 71v75q-49 36 -117 36q-51 0 -86 -25t-35 -69
q0 -40 28 -64t72 -24zM89 618q0 15 9.5 24t24.5 9q12 0 21.5 -9.5t9.5 -23.5q0 -15 -9.5 -25t-21.5 -10q-15 0 -24.5 9.5t-9.5 25.5zM297 618q0 15 9.5 24t24.5 9q12 0 21.5 -9.5t9.5 -23.5q0 -15 -9.5 -25t-21.5 -10q-15 0 -24.5 9.5t-9.5 25.5z" />
    <glyph glyph-name="aring" unicode="&#xe5;" horiz-adv-x="459" 
d="M93 375l-14 43q67 41 143 41q88 0 127.5 -44t39.5 -136v-279h-52v69q-55 -75 -154 -75q-63 0 -101 36.5t-38 97.5q0 66 48 103q47 37 123 37t122 -34q0 70 -10 107q-8 36 -32.5 51t-75.5 18q-61 0 -126 -35zM199 43q84 0 138 71v75q-49 36 -117 36q-51 0 -86 -25t-35 -69
q0 -40 28 -64t72 -24zM225 718q45 0 76 -30.5t31 -73.5t-31 -73t-76 -30q-44 0 -74.5 30t-30.5 73t30.5 73.5t74.5 30.5zM175 665q-20 -21 -20 -51t20 -51q21 -21 51 -21t50 21q21 21 21 51t-21 51q-20 22 -50 22t-51 -22z" />
    <glyph glyph-name="ae" unicode="&#xe6;" horiz-adv-x="789" 
d="M222 459q108 0 146 -71q62 71 172 71q87 0 146 -56q58 -55 58 -147q0 -24 -3 -42h-352v-89q49 -85 165 -85q94 0 146 55l17 -40q-61 -64 -166 -64q-120 0 -188 80q-74 -77 -171 -77q-69 0 -108.5 36t-39.5 98q0 65 47.5 102.5t123.5 37.5q70 0 122 -13q5 80 -22 117.5
t-96 37.5q-61 0 -126 -35l-14 43q67 41 143 41zM389 279v-22h302q-1 71 -43 112t-113 41q-102 0 -149 -83q3 -23 3 -48zM199 43q84 0 138 71v98q-62 13 -117 13q-51 0 -86 -25t-35 -69q0 -40 28 -64t72 -24z" />
    <glyph glyph-name="ccedilla" unicode="&#xe7;" horiz-adv-x="490" 
d="M175 -174l16 27q35 -22 72 -22q31 0 50.5 12.5t19.5 33.5q0 47 -71 47h-6v69q-93 7 -152 71q-57 63 -57 161q0 99 64 166q65 68 160 68q116 0 175 -56l-25 -42q-53 49 -142 49q-72 0 -125 -53q-52 -52 -52 -132q0 -84 53 -135q53 -50 134 -50q87 0 140 62l26 -38
q-27 -35 -72.5 -54t-96.5 -19v-41q99 -3 99 -76q0 -34 -31 -55.5t-84 -21.5q-46 0 -95 29z" />
    <glyph glyph-name="egrave" unicode="&#xe8;" horiz-adv-x="524" 
d="M435 95l17 -40q-61 -64 -166 -64q-108 0 -173 64q-66 65 -66 170q0 102 60 168q61 66 168 66q87 0 146 -56q58 -55 58 -147q0 -24 -3 -42h-371q3 -81 53 -127.5t131 -46.5q94 0 146 55zM270 410q-72 0 -116.5 -42t-51.5 -111h324q-1 71 -43 112t-113 41zM319 565l-33 -23
l-116 142l41 31z" />
    <glyph glyph-name="eacute" unicode="&#xe9;" horiz-adv-x="524" 
d="M435 95l17 -40q-61 -64 -166 -64q-108 0 -173 64q-66 65 -66 170q0 102 60 168q61 66 168 66q87 0 146 -56q58 -55 58 -147q0 -24 -3 -42h-371q3 -81 53 -127.5t131 -46.5q94 0 146 55zM270 410q-72 0 -116.5 -42t-51.5 -111h324q-1 71 -43 112t-113 41zM344 716l40 -31
l-116 -143l-32 23z" />
    <glyph glyph-name="ecircumflex" unicode="&#xea;" horiz-adv-x="524" 
d="M435 95l17 -40q-61 -64 -166 -64q-108 0 -173 64q-66 65 -66 170q0 102 60 168q61 66 168 66q87 0 146 -56q58 -55 58 -147q0 -24 -3 -42h-371q3 -81 53 -127.5t131 -46.5q94 0 146 55zM270 410q-72 0 -116.5 -42t-51.5 -111h324q-1 71 -43 112t-113 41zM271 707h4
l128 -131l-25 -32l-105 105l-107 -104l-26 31z" />
    <glyph glyph-name="edieresis" unicode="&#xeb;" horiz-adv-x="524" 
d="M435 95l17 -40q-61 -64 -166 -64q-108 0 -173 64q-66 65 -66 170q0 102 60 168q61 66 168 66q87 0 146 -56q58 -55 58 -147q0 -24 -3 -42h-371q3 -81 53 -127.5t131 -46.5q94 0 146 55zM270 410q-72 0 -116.5 -42t-51.5 -111h324q-1 71 -43 112t-113 41zM129 618
q0 15 9.5 24t24.5 9q12 0 21.5 -9.5t9.5 -23.5q0 -15 -9.5 -25t-21.5 -10q-15 0 -24.5 9.5t-9.5 25.5zM337 618q0 15 9.5 24t24.5 9q12 0 21.5 -9.5t9.5 -23.5q0 -15 -9.5 -25t-21.5 -10q-15 0 -24.5 9.5t-9.5 25.5z" />
    <glyph glyph-name="igrave" unicode="&#xec;" horiz-adv-x="261" 
d="M156 0h-52v450h52v-450zM163 565l-33 -23l-116 142l41 31z" />
    <glyph glyph-name="iacute" unicode="&#xed;" horiz-adv-x="261" 
d="M156 0h-52v450h52v-450zM197 716l40 -31l-116 -143l-32 23z" />
    <glyph glyph-name="icircumflex" unicode="&#xee;" horiz-adv-x="261" 
d="M130 707h4l128 -131l-25 -32l-105 105l-107 -104l-26 31zM156 0h-52v450h52v-450z" />
    <glyph glyph-name="idieresis" unicode="&#xef;" horiz-adv-x="261" 
d="M-6 618q0 15 9.5 24t24.5 9q12 0 21.5 -9.5t9.5 -23.5q0 -15 -9.5 -25t-21.5 -10q-14 0 -24 9.5t-10 25.5zM202 618q0 15 9.5 24t24.5 9q12 0 21.5 -9.5t9.5 -23.5q0 -15 -9.5 -25t-21.5 -10q-14 0 -24 9.5t-10 25.5zM156 0h-52v450h52v-450z" />
    <glyph glyph-name="eth" unicode="&#xf0;" horiz-adv-x="567" 
d="M330 589l-127 -61l-16 46l106 50q-53 46 -114 73l58 12q54 -26 100 -64l105 51l16 -46l-83 -40q69 -71 106.5 -163.5t37.5 -188.5q0 -122 -65 -195q-64 -72 -171 -72q-104 0 -170 66t-66 168t66 168t170 66q55 0 99.5 -28t68.5 -77q-26 132 -121 235zM283 40q83 0 132 60
q51 61 49 162q-11 61 -59 103q-49 45 -122 45q-78 0 -130 -52q-51 -52 -51 -133t51 -133t130 -52z" />
    <glyph glyph-name="ntilde" unicode="&#xf1;" horiz-adv-x="551" 
d="M131 0h-52v450h52v-63q28 31 72.5 51t89.5 20q94 0 141 -49t47 -152v-257h-52v247q0 162 -148 162q-43 0 -84 -19.5t-66 -49.5v-340zM144 573l-23 25q52 52 101 52q23 0 57 -23q35 -23 54 -23q30 0 74 38l19 -27q-52 -54 -98 -54q-21 0 -56 23q-34 23 -56 23
q-29 0 -72 -34z" />
    <glyph glyph-name="ograve" unicode="&#xf2;" horiz-adv-x="567" 
d="M113 57q-66 66 -66 168t66 168t170 66t170 -66t66 -168t-66 -168t-170 -66t-170 66zM283 40q81 0 130 51q51 53 51 134t-51 133t-130 52q-78 0 -130 -52q-51 -52 -51 -133t51 -133t130 -52zM330 565l-33 -23l-116 142l41 31z" />
    <glyph glyph-name="oacute" unicode="&#xf3;" horiz-adv-x="567" 
d="M113 57q-66 66 -66 168t66 168t170 66t170 -66t66 -168t-66 -168t-170 -66t-170 66zM283 40q81 0 130 51q51 53 51 134t-51 133t-130 52q-78 0 -130 -52q-51 -52 -51 -133t51 -133t130 -52zM346 716l40 -31l-116 -143l-32 23z" />
    <glyph glyph-name="ocircumflex" unicode="&#xf4;" horiz-adv-x="567" 
d="M282 707h4l128 -131l-25 -32l-105 105l-107 -104l-26 31zM113 57q-66 66 -66 168t66 168t170 66t170 -66t66 -168t-66 -168t-170 -66t-170 66zM283 40q81 0 130 51q51 53 51 134t-51 133t-130 52q-78 0 -130 -52q-51 -52 -51 -133t51 -133t130 -52z" />
    <glyph glyph-name="otilde" unicode="&#xf5;" horiz-adv-x="567" 
d="M113 57q-66 66 -66 168t66 168t170 66t170 -66t66 -168t-66 -168t-170 -66t-170 66zM283 40q81 0 130 51q51 53 51 134t-51 133t-130 52q-78 0 -130 -52q-51 -52 -51 -133t51 -133t130 -52zM152 573l-23 25q52 52 101 52q23 0 57 -23q35 -23 54 -23q30 0 74 38l19 -27
q-52 -54 -98 -54q-21 0 -56 23q-34 23 -56 23q-29 0 -72 -34z" />
    <glyph glyph-name="odieresis" unicode="&#xf6;" horiz-adv-x="567" 
d="M113 57q-66 66 -66 168t66 168t170 66t170 -66t66 -168t-66 -168t-170 -66t-170 66zM283 40q81 0 130 51q51 53 51 134t-51 133t-130 52q-78 0 -130 -52q-51 -52 -51 -133t51 -133t130 -52zM150 618q0 15 9.5 24t24.5 9q12 0 21.5 -9.5t9.5 -23.5q0 -15 -9.5 -25
t-21.5 -10q-14 0 -24 9.5t-10 25.5zM358 618q0 15 9.5 24t24.5 9q12 0 21.5 -9.5t9.5 -23.5q0 -15 -9.5 -25t-21.5 -10q-14 0 -24 9.5t-10 25.5z" />
    <glyph glyph-name="divide" unicode="&#xf7;" horiz-adv-x="589" 
d="M260 570q0 13 10 23.5t25 10.5q14 0 24 -10.5t10 -23.5q0 -15 -9.5 -25.5t-24.5 -10.5t-25 10.5t-10 25.5zM260 151q0 13 10 23t25 10q14 0 24 -10t10 -23q0 -15 -9.5 -25.5t-24.5 -10.5t-25 10.5t-10 25.5zM517 337h-446v46h446v-46z" />
    <glyph glyph-name="oslash" unicode="&#xf8;" horiz-adv-x="567" 
d="M47 225q0 102 66 168t170 66q92 0 159 -56l51 50l29 -32l-50 -50q47 -62 47 -146q0 -102 -66 -168t-170 -66q-85 0 -150 48l-53 -52l-30 33l51 50q-54 62 -54 155zM102 225q0 -71 37 -118l265 259q-50 44 -121 44q-78 0 -130 -52q-51 -52 -51 -133zM464 225q0 62 -31 108
l-262 -257q47 -36 112 -36q81 0 130 51q51 53 51 134z" />
    <glyph glyph-name="ugrave" unicode="&#xf9;" horiz-adv-x="544" 
d="M412 450h52v-450h-52v71q-28 -35 -74.5 -57.5t-96.5 -22.5q-172 0 -172 198v261h52v-250q0 -160 139 -160q42 0 84.5 22.5t67.5 55.5v332zM317 565l-33 -23l-116 142l41 31z" />
    <glyph glyph-name="uacute" unicode="&#xfa;" horiz-adv-x="544" 
d="M412 450h52v-450h-52v71q-28 -35 -74.5 -57.5t-96.5 -22.5q-172 0 -172 198v261h52v-250q0 -160 139 -160q42 0 84.5 22.5t67.5 55.5v332zM336 716l40 -31l-116 -143l-32 23z" />
    <glyph glyph-name="ucircumflex" unicode="&#xfb;" horiz-adv-x="544" 
d="M267 707h4l128 -131l-25 -32l-105 105l-107 -104l-26 31zM412 450h52v-450h-52v71q-28 -35 -74.5 -57.5t-96.5 -22.5q-172 0 -172 198v261h52v-250q0 -160 139 -160q42 0 84.5 22.5t67.5 55.5v332z" />
    <glyph glyph-name="udieresis" unicode="&#xfc;" horiz-adv-x="544" 
d="M412 450h52v-450h-52v71q-28 -35 -74.5 -57.5t-96.5 -22.5q-172 0 -172 198v261h52v-250q0 -160 139 -160q42 0 84.5 22.5t67.5 55.5v332zM135 618q0 15 9.5 24t24.5 9q12 0 21.5 -9.5t9.5 -23.5q0 -15 -9.5 -25t-21.5 -10q-15 0 -24.5 9.5t-9.5 25.5zM343 618
q0 15 9.5 24t24.5 9q12 0 21.5 -9.5t9.5 -23.5q0 -15 -9.5 -25t-21.5 -10q-15 0 -24.5 9.5t-9.5 25.5z" />
    <glyph glyph-name="yacute" unicode="&#xfd;" horiz-adv-x="481" 
d="M408 450h59l-182 -450q-49 -119 -85 -158q-36 -42 -84 -42q-37 0 -77 23l17 40q31 -15 53 -15q34 0 61 29.5t56 98.5l10 24l-222 450h62l154 -318l32 -70q1 4 25 72zM302 716l40 -31l-116 -143l-32 23z" />
    <glyph glyph-name="thorn" unicode="&#xfe;" horiz-adv-x="554" 
d="M131 -200h-52v900h52v-307q28 30 73 48t92 18q96 0 153 -63t57 -164q0 -105 -64 -173q-65 -68 -167 -68q-91 0 -144 38v-229zM282 410q-44 0 -85.5 -20t-65.5 -50v-259q62 -41 140 -41q80 0 130 53t50 136t-45 132t-124 49z" />
    <glyph glyph-name="ydieresis" unicode="&#xff;" horiz-adv-x="481" 
d="M408 450h59l-182 -450q-49 -119 -85 -158q-36 -42 -84 -42q-37 0 -77 23l17 40q31 -15 53 -15q34 0 61 29.5t56 98.5l10 24l-222 450h62l154 -318l32 -70q1 4 25 72zM107 618q0 15 9.5 24t24.5 9q12 0 21.5 -9.5t9.5 -23.5q0 -15 -9.5 -25t-21.5 -10q-15 0 -24.5 9.5
t-9.5 25.5zM315 618q0 15 9.5 24t24.5 9q12 0 21.5 -9.5t9.5 -23.5q0 -15 -9.5 -25t-21.5 -10q-15 0 -24.5 9.5t-9.5 25.5z" />
    <glyph glyph-name="Amacron" unicode="&#x100;" horiz-adv-x="697" 
d="M77 0h-56l305 706h45l305 -706h-59l-102 238h-336zM492 290l-145 340l-146 -340h291zM498 778h-300v43h300v-43z" />
    <glyph glyph-name="amacron" unicode="&#x101;" horiz-adv-x="459" 
d="M93 375l-14 43q67 41 143 41q88 0 127.5 -44t39.5 -136v-279h-52v69q-55 -75 -154 -75q-63 0 -101 36.5t-38 97.5q0 66 48 103q47 37 123 37t122 -34q0 70 -10 107q-8 36 -32.5 51t-75.5 18q-61 0 -126 -35zM199 43q84 0 138 71v75q-49 36 -117 36q-51 0 -86 -25t-35 -69
q0 -40 28 -64t72 -24zM357 604h-252v43h252v-43z" />
    <glyph glyph-name="Abreve" unicode="&#x102;" horiz-adv-x="697" 
d="M77 0h-56l305 706h45l305 -706h-59l-102 238h-336zM492 290l-145 340l-146 -340h291zM184 837l24 27q57 -67 143 -67q85 0 140 67l21 -28q-25 -38 -68 -61.5t-93 -23.5q-58 0 -103 27q-45 28 -64 59z" />
    <glyph glyph-name="abreve" unicode="&#x103;" horiz-adv-x="459" 
d="M93 375l-14 43q67 41 143 41q88 0 127.5 -44t39.5 -136v-279h-52v69q-55 -75 -154 -75q-63 0 -101 36.5t-38 97.5q0 66 48 103q47 37 123 37t122 -34q0 70 -10 107q-8 36 -32.5 51t-75.5 18q-61 0 -126 -35zM199 43q84 0 138 71v75q-49 36 -117 36q-51 0 -86 -25t-35 -69
q0 -40 28 -64t72 -24zM88 654l24 27q56 -65 118 -65q65 0 117 64l20 -26q-59 -81 -139 -81q-89 0 -140 81z" />
    <glyph glyph-name="Aogonek" unicode="&#x104;" horiz-adv-x="697" 
d="M655 -148l16 -33q-28 -19 -73 -19q-49 0 -81 23t-32 68q0 44 35.5 75t92.5 43l-98 229h-336l-102 -238h-56l305 706h45l305 -706h-12q-49 0 -88 -27t-39 -66q0 -33 21.5 -48.5t51.5 -15.5q26 0 45 9zM492 290l-145 340l-146 -340h291z" />
    <glyph glyph-name="aogonek" unicode="&#x105;" horiz-adv-x="459" 
d="M380 -148l16 -33q-28 -19 -73 -19q-49 0 -81 23t-32 68q0 44 35.5 75t91.5 43v60q-55 -75 -154 -75q-63 0 -101 36.5t-38 97.5q0 66 48 103q47 37 123 37t122 -34q0 70 -10 107q-8 36 -32.5 51t-75.5 18q-61 0 -126 -35l-14 43q67 41 143 41q88 0 127.5 -44t39.5 -136
v-279q-49 0 -88 -27t-39 -66q0 -33 21.5 -48.5t51.5 -15.5q25 0 45 9zM199 43q84 0 138 71v75q-49 36 -117 36q-51 0 -86 -25t-35 -69q0 -40 28 -64t72 -24z" />
    <glyph glyph-name="Cacute" unicode="&#x106;" horiz-adv-x="656" 
d="M600 109l22 -41q-36 -36 -94.5 -56.5t-122.5 -20.5q-156 0 -254 98q-97 97 -97 261q0 155 94 256q94 103 249 103q133 0 212 -66l-26 -41q-71 55 -185 55q-128 0 -207 -87q-79 -85 -79 -220q0 -137 82 -222t215 -85q110 0 191 66zM503 868l19 -44l-182 -86l-16 31z" />
    <glyph glyph-name="cacute" unicode="&#x107;" horiz-adv-x="490" 
d="M429 102l26 -38q-27 -35 -72.5 -54t-97.5 -19q-105 0 -172 64q-66 65 -66 170q0 99 64 166q65 68 160 68q116 0 175 -56l-25 -42q-53 49 -142 49q-72 0 -125 -53q-52 -52 -52 -132q0 -84 53 -135q53 -50 134 -50q87 0 140 62zM336 716l40 -31l-116 -143l-32 23z" />
    <glyph glyph-name="Ccircumflex" unicode="&#x108;" horiz-adv-x="656" 
d="M242 737l-20 30l168 98h4l170 -98l-23 -30l-149 81zM600 109l22 -41q-36 -36 -94.5 -56.5t-122.5 -20.5q-156 0 -254 98q-97 97 -97 261q0 155 94 256q94 103 249 103q133 0 212 -66l-26 -41q-71 55 -185 55q-128 0 -207 -87q-79 -85 -79 -220q0 -137 82 -222t215 -85
q110 0 191 66z" />
    <glyph glyph-name="ccircumflex" unicode="&#x109;" horiz-adv-x="490" 
d="M276 707h4l128 -131l-25 -32l-105 105l-107 -104l-26 31zM429 102l26 -38q-27 -35 -72.5 -54t-97.5 -19q-105 0 -172 64q-66 65 -66 170q0 99 64 166q65 68 160 68q116 0 175 -56l-25 -42q-53 49 -142 49q-72 0 -125 -53q-52 -52 -52 -132q0 -84 53 -135q53 -50 134 -50
q87 0 140 62z" />
    <glyph glyph-name="Cdotaccent" unicode="&#x10a;" horiz-adv-x="656" 
d="M600 109l22 -41q-36 -36 -94.5 -56.5t-122.5 -20.5q-156 0 -254 98q-97 97 -97 261q0 155 94 256q94 103 249 103q133 0 212 -66l-26 -41q-71 55 -185 55q-128 0 -207 -87q-79 -85 -79 -220q0 -137 82 -222t215 -85q110 0 191 66zM342 806q0 15 11.5 25.5t27.5 10.5
q15 0 26.5 -10.5t11.5 -25.5q0 -17 -11 -27t-27 -10q-17 0 -28 10t-11 27z" />
    <glyph glyph-name="cdotaccent" unicode="&#x10b;" horiz-adv-x="490" 
d="M429 102l26 -38q-27 -35 -72.5 -54t-97.5 -19q-105 0 -172 64q-66 65 -66 170q0 99 64 166q65 68 160 68q116 0 175 -56l-25 -42q-53 49 -142 49q-72 0 -125 -53q-52 -52 -52 -132q0 -84 53 -135q53 -50 134 -50q87 0 140 62zM245 625q0 15 11 24t26 9q13 0 23.5 -9.5
t10.5 -23.5q0 -17 -9.5 -27t-24.5 -10q-16 0 -26.5 10t-10.5 27z" />
    <glyph glyph-name="Ccaron" unicode="&#x10c;" horiz-adv-x="656" 
d="M396 740h-4l-171 98l23 30l150 -83l149 83l21 -29zM600 109l22 -41q-36 -36 -94.5 -56.5t-122.5 -20.5q-156 0 -254 98q-97 97 -97 261q0 155 94 256q94 103 249 103q133 0 212 -66l-26 -41q-71 55 -185 55q-128 0 -207 -87q-79 -85 -79 -220q0 -137 82 -222t215 -85
q110 0 191 66z" />
    <glyph glyph-name="ccaron" unicode="&#x10d;" horiz-adv-x="490" 
d="M283 546h-4l-130 132l26 31l106 -111l106 111l25 -31zM429 102l26 -38q-27 -35 -72.5 -54t-97.5 -19q-105 0 -172 64q-66 65 -66 170q0 99 64 166q65 68 160 68q116 0 175 -56l-25 -42q-53 49 -142 49q-72 0 -125 -53q-52 -52 -52 -132q0 -84 53 -135q53 -50 134 -50
q87 0 140 62z" />
    <glyph glyph-name="Dcaron" unicode="&#x10e;" horiz-adv-x="737" 
d="M339 740h-4l-171 98l23 30l150 -83l149 83l21 -29zM120 0h-9v700h11q43 0 80 1q74 2 88 2q101 0 178.5 -27.5t123.5 -76t68.5 -109t22.5 -130.5q0 -158 -105 -260q-104 -102 -296 -102q-43 0 -79 1t-83 1zM288 651q-22 0 -64.5 -1.5t-57.5 -1.5v-596q33 0 62 -0.5t42 -1
t14 -0.5q163 0 252 86q89 87 89 224q0 129 -85 210q-86 81 -252 81z" />
    <glyph glyph-name="dcaron" unicode="&#x10f;" horiz-adv-x="553" 
d="M474 0h-52v64q-63 -72 -155 -72q-100 0 -160 63t-60 168q0 104 69 170q71 66 176 66q78 0 130 -39v280h52v-700zM277 41q41 0 80.5 20t64.5 51v257q-62 41 -129 41q-81 0 -136 -52q-55 -51 -55 -133q0 -84 48 -134t127 -50zM578 700h50q9 -15 9 -40q0 -49 -20.5 -85
t-54.5 -52l-23 24q49 37 49 107q0 27 -10 46z" />
    <glyph glyph-name="Dcroat" unicode="&#x110;" horiz-adv-x="758" 
d="M132 332h-122v49h122v319h11q43 0 80 1q74 2 88 2q101 0 178.5 -27.5t123.5 -76t68.5 -109t22.5 -130.5q0 -158 -105 -260q-103 -102 -296 -102q-43 0 -79 1t-83 1h-9v332zM309 651q-22 0 -64.5 -1.5t-57.5 -1.5v-267h198v-49h-198v-280q33 0 62 -0.5t42 -1t14 -0.5
q163 0 252 86q89 87 89 224q0 129 -85 210t-252 81z" />
    <glyph glyph-name="dslash" unicode="&#x111;" horiz-adv-x="553" 
d="M422 545h-178v43h178v112h52v-112h103v-43h-103v-545h-52v64q-63 -72 -155 -72q-100 0 -160 63t-60 168q0 104 69 170q71 66 176 66q78 0 130 -39v125zM277 41q41 0 80.5 20t64.5 51v257q-62 41 -129 41q-81 0 -136 -52q-55 -51 -55 -133q0 -84 48 -134t127 -50z" />
    <glyph glyph-name="Emacron" unicode="&#x112;" horiz-adv-x="575" 
d="M508 0h-397v700h387v-52h-332v-267h302v-52h-302v-277h342v-52zM454 778h-300v43h300v-43z" />
    <glyph glyph-name="emacron" unicode="&#x113;" horiz-adv-x="524" 
d="M435 95l17 -40q-61 -64 -166 -64q-108 0 -173 64q-66 65 -66 170q0 102 60 168q61 66 168 66q87 0 146 -56q58 -55 58 -147q0 -24 -3 -42h-371q3 -81 53 -127.5t131 -46.5q94 0 146 55zM270 410q-72 0 -116.5 -42t-51.5 -111h324q-1 71 -43 112t-113 41zM391 604h-252v43
h252v-43z" />
    <glyph glyph-name="Edotaccent" unicode="&#x116;" horiz-adv-x="575" 
d="M508 0h-397v700h387v-52h-332v-267h302v-52h-302v-277h342v-52zM269 806q0 15 11.5 25.5t27.5 10.5q15 0 26.5 -10.5t11.5 -25.5q0 -17 -11 -27t-27 -10q-17 0 -28 10t-11 27z" />
    <glyph glyph-name="edotaccent" unicode="&#x117;" horiz-adv-x="524" 
d="M435 95l17 -40q-61 -64 -166 -64q-108 0 -173 64q-66 65 -66 170q0 102 60 168q61 66 168 66q87 0 146 -56q58 -55 58 -147q0 -24 -3 -42h-371q3 -81 53 -127.5t131 -46.5q94 0 146 55zM270 410q-72 0 -116.5 -42t-51.5 -111h324q-1 71 -43 112t-113 41zM229 625
q0 15 11 24t26 9q13 0 23.5 -9.5t10.5 -23.5q0 -17 -9.5 -27t-24.5 -10q-16 0 -26.5 10t-10.5 27z" />
    <glyph glyph-name="Eogonek" unicode="&#x118;" horiz-adv-x="575" 
d="M425 0h-314v700h387v-52h-332v-267h302v-52h-302v-277h342v-52q-49 0 -88 -27t-39 -66q0 -33 21.5 -48.5t51.5 -15.5q26 0 45 9l16 -33q-28 -19 -73 -19q-49 0 -81 23t-32 68q0 75 96 109z" />
    <glyph glyph-name="eogonek" unicode="&#x119;" horiz-adv-x="524" 
d="M435 95l17 -40q-30 -32 -79 -49q-73 -46 -73 -99q0 -31 21.5 -47.5t50.5 -16.5q26 0 46 9l16 -33q-28 -19 -73 -19q-49 0 -81 23t-32 68q0 60 70 102q-30 -2 -32 -2q-108 0 -173 64q-66 65 -66 170q0 102 60 168q61 66 168 66q87 0 146 -56q58 -55 58 -147q0 -24 -3 -42
h-371q3 -81 53 -127.5t131 -46.5q94 0 146 55zM270 410q-72 0 -116.5 -42t-51.5 -111h324q-1 71 -43 112t-113 41z" />
    <glyph glyph-name="Ecaron" unicode="&#x11a;" horiz-adv-x="575" 
d="M316 740h-4l-171 98l23 30l150 -83l149 83l21 -29zM508 0h-397v700h387v-52h-332v-267h302v-52h-302v-277h342v-52z" />
    <glyph glyph-name="ecaron" unicode="&#x11b;" horiz-adv-x="524" 
d="M435 95l17 -40q-61 -64 -166 -64q-108 0 -173 64q-66 65 -66 170q0 102 60 168q61 66 168 66q87 0 146 -56q58 -55 58 -147q0 -24 -3 -42h-371q3 -81 53 -127.5t131 -46.5q94 0 146 55zM270 410q-72 0 -116.5 -42t-51.5 -111h324q-1 71 -43 112t-113 41zM277 546h-4
l-130 132l26 31l106 -111l106 111l25 -31z" />
    <glyph glyph-name="Gcircumflex" unicode="&#x11c;" horiz-adv-x="727" 
d="M611 287h-205v52h257v-252q-45 -45 -119 -71q-72 -25 -143 -25q-157 0 -252 98t-95 261q0 155 94 256q94 103 246 103q132 0 216 -66l-25 -43q-67 57 -185 57q-128 0 -208 -86t-80 -221q0 -138 80 -223q81 -84 211 -84q56 0 116 20q59 19 92 53v171zM242 737l-20 30
l168 98h4l170 -98l-23 -30l-149 81z" />
    <glyph glyph-name="gcircumflex" unicode="&#x11d;" horiz-adv-x="490" 
d="M14 -66q0 51 36 86t102 49q-15 18 -15 43t17 45q-44 19 -69 57t-25 86q0 69 49 114t129 45q64 0 113 -34h1l128 34v-49l-91 -23q27 -41 27 -87q0 -67 -50 -114q-50 -45 -128 -45q-28 0 -45 4q-9 -13 -9 -33q0 -23 13 -36q38 2 42 2q103 0 164 -38t61 -106
q0 -67 -61 -104.5t-164 -37.5q-104 0 -164.5 37t-60.5 105zM67 -66q0 -44 46 -69q47 -26 126 -26q78 0 125 26t47 69q0 44 -46.5 70.5t-125.5 26.5q-78 0 -125 -26t-47 -71zM148 380q-35 -32 -35 -80t35 -80t90 -32t90 32t35 80t-36 80q-35 32 -89 32q-53 0 -90 -32z
M241 707h4l128 -131l-25 -32l-105 105l-107 -104l-26 31z" />
    <glyph glyph-name="Gbreve" unicode="&#x11e;" horiz-adv-x="727" 
d="M611 287h-205v52h257v-252q-45 -45 -119 -71q-72 -25 -143 -25q-157 0 -252 98t-95 261q0 155 94 256q94 103 246 103q132 0 216 -66l-25 -43q-67 57 -185 57q-128 0 -208 -86t-80 -221q0 -138 80 -223q81 -84 211 -84q56 0 116 20q59 19 92 53v171zM236 837l24 27
q57 -67 143 -67q85 0 140 67l21 -28q-25 -38 -68 -61.5t-93 -23.5q-58 0 -103 27q-45 28 -64 59z" />
    <glyph glyph-name="gbreve" unicode="&#x11f;" horiz-adv-x="490" 
d="M14 -66q0 51 36 86t102 49q-15 18 -15 43t17 45q-44 19 -69 57t-25 86q0 69 49 114t129 45q64 0 113 -34h1l128 34v-49l-91 -23q27 -41 27 -87q0 -67 -50 -114q-50 -45 -128 -45q-28 0 -45 4q-9 -13 -9 -33q0 -23 13 -36q38 2 42 2q103 0 164 -38t61 -106
q0 -67 -61 -104.5t-164 -37.5q-104 0 -164.5 37t-60.5 105zM67 -66q0 -44 46 -69q47 -26 126 -26q78 0 125 26t47 69q0 44 -46.5 70.5t-125.5 26.5q-78 0 -125 -26t-47 -71zM148 380q-35 -32 -35 -80t35 -80t90 -32t90 32t35 80t-36 80q-35 32 -89 32q-53 0 -90 -32z
M101 654l24 27q56 -65 118 -65q65 0 117 64l20 -26q-59 -81 -139 -81q-89 0 -140 81z" />
    <glyph glyph-name="Gdotaccent" unicode="&#x120;" horiz-adv-x="727" 
d="M611 287h-205v52h257v-252q-45 -45 -119 -71q-72 -25 -143 -25q-157 0 -252 98t-95 261q0 155 94 256q94 103 246 103q132 0 216 -66l-25 -43q-67 57 -185 57q-128 0 -208 -86t-80 -221q0 -138 80 -223q81 -84 211 -84q56 0 116 20q59 19 92 53v171zM346 806
q0 15 11.5 25.5t27.5 10.5q15 0 26.5 -10.5t11.5 -25.5q0 -17 -11 -27t-27 -10q-17 0 -28 10t-11 27z" />
    <glyph glyph-name="gdotaccent" unicode="&#x121;" horiz-adv-x="490" 
d="M14 -66q0 51 36 86t102 49q-15 18 -15 43t17 45q-44 19 -69 57t-25 86q0 69 49 114t129 45q64 0 113 -34h1l128 34v-49l-91 -23q27 -41 27 -87q0 -67 -50 -114q-50 -45 -128 -45q-28 0 -45 4q-9 -13 -9 -33q0 -23 13 -36q38 2 42 2q103 0 164 -38t61 -106
q0 -67 -61 -104.5t-164 -37.5q-104 0 -164.5 37t-60.5 105zM67 -66q0 -44 46 -69q47 -26 126 -26q78 0 125 26t47 69q0 44 -46.5 70.5t-125.5 26.5q-78 0 -125 -26t-47 -71zM148 380q-35 -32 -35 -80t35 -80t90 -32t90 32t35 80t-36 80q-35 32 -89 32q-53 0 -90 -32z
M205 625q0 15 11 24t26 9q13 0 23.5 -9.5t10.5 -23.5q0 -17 -9.5 -27t-24.5 -10q-16 0 -26.5 10t-10.5 27z" />
    <glyph glyph-name="Gcommaaccent" unicode="&#x122;" horiz-adv-x="727" 
d="M611 287h-205v52h257v-252q-45 -45 -119 -71q-72 -25 -143 -25q-157 0 -252 98t-95 261q0 155 94 256q94 103 246 103q132 0 216 -66l-25 -43q-67 57 -185 57q-128 0 -208 -86t-80 -221q0 -138 80 -223q81 -84 211 -84q56 0 116 20q59 19 92 53v171zM362 -71l45 16
q35 -8 35 -50q0 -75 -85 -97l-15 24q48 20 48 65q0 33 -28 42z" />
    <glyph glyph-name="gcommaaccent" unicode="&#x123;" horiz-adv-x="490" 
d="M14 -66q0 51 36 86t102 49q-15 18 -15 43t17 45q-44 19 -69 57t-25 86q0 69 49 114t129 45q64 0 113 -34h1l128 34v-49l-91 -23q27 -41 27 -87q0 -67 -50 -114q-50 -45 -128 -45q-28 0 -45 4q-9 -13 -9 -33q0 -23 13 -36q38 2 42 2q103 0 164 -38t61 -106
q0 -67 -61 -104.5t-164 -37.5q-104 0 -164.5 37t-60.5 105zM67 -66q0 -44 46 -69q47 -26 126 -26q78 0 125 26t47 69q0 44 -46.5 70.5t-125.5 26.5q-78 0 -125 -26t-47 -71zM148 380q-35 -32 -35 -80t35 -80t90 -32t90 32t35 80t-36 80q-35 32 -89 32q-53 0 -90 -32z
M274 568l-45 -16q-35 8 -35 50q0 75 85 97l15 -24q-48 -19 -48 -65q0 -33 28 -42z" />
    <glyph glyph-name="Hcircumflex" unicode="&#x124;" horiz-adv-x="769" 
d="M234 737l-20 30l168 98h4l170 -98l-23 -30l-149 81zM658 0h-55v331h-437v-331h-55v700h55v-317h437v317h55v-700z" />
    <glyph glyph-name="hcircumflex" unicode="&#x125;" horiz-adv-x="551" 
d="M10 737l-20 30l168 98h4l170 -98l-23 -30l-149 81zM131 0h-52v700h52v-311q27 30 72 49.5t90 19.5q188 0 188 -202v-256h-52v248q0 161 -148 161q-43 0 -84.5 -19.5t-65.5 -49.5v-340z" />
    <glyph glyph-name="Hbar" unicode="&#x126;" horiz-adv-x="779" 
d="M116 521h-89v49h89v130h55v-130h437v130h55v-130h89v-49h-89v-521h-55v331h-437v-331h-55v521zM171 521v-138h437v138h-437z" />
    <glyph glyph-name="hbar" unicode="&#x127;" horiz-adv-x="566" 
d="M94 532h-126v49h126v119h52v-119h173v-49h-173v-143q27 30 72 49.5t90 19.5q188 0 188 -202v-256h-52v248q0 161 -148 161q-43 0 -84.5 -19.5t-65.5 -49.5v-340h-52v532z" />
    <glyph glyph-name="Imacron" unicode="&#x12a;" horiz-adv-x="325" 
d="M190 0h-55v700h55v-700zM314 778h-300v43h300v-43z" />
    <glyph glyph-name="imacron" unicode="&#x12b;" horiz-adv-x="261" 
d="M156 0h-52v450h52v-450zM256 604h-252v43h252v-43z" />
    <glyph glyph-name="Iogonek" unicode="&#x12e;" horiz-adv-x="325" 
d="M181 -148l16 -33q-28 -19 -73 -19q-49 0 -81 23t-32 68q0 43 34.5 74t89.5 43v692h55v-700h-5q-47 -1 -86 -28q-36 -27 -36 -65q0 -33 21.5 -48.5t51.5 -15.5q26 0 45 9z" />
    <glyph glyph-name="iogonek" unicode="&#x12f;" horiz-adv-x="261" 
d="M147 -148l16 -33q-28 -19 -73 -19q-49 0 -81 23t-32 68q0 44 35.5 75t91.5 43v441h52v-450h-5q-47 -1 -86 -28q-36 -27 -36 -65q0 -33 21.5 -48.5t51.5 -15.5q26 0 45 9zM93 625q0 15 11 24t26 9q13 0 23.5 -9.5t10.5 -23.5q0 -17 -9.5 -27t-24.5 -10q-16 0 -26.5 10
t-10.5 27z" />
    <glyph glyph-name="Idot" unicode="&#x130;" horiz-adv-x="325" 
d="M125 806q0 15 11.5 25.5t27.5 10.5q15 0 26.5 -10.5t11.5 -25.5q0 -17 -11 -27t-27 -10q-17 0 -28 10t-11 27zM190 0h-55v700h55v-700z" />
    <glyph glyph-name="dotlessi" unicode="&#x131;" horiz-adv-x="261" 
d="M156 0h-52v450h52v-450z" />
    <glyph glyph-name="Jcircumflex" unicode="&#x134;" horiz-adv-x="361" 
d="M65 737l-20 30l168 98h4l170 -98l-23 -30l-149 81zM195 700h55v-546q0 -163 -140 -163q-59 0 -96 32l20 43q32 -23 69 -23q50 0 71 29.5t21 89.5v538z" />
    <glyph glyph-name="jcircumflex" unicode="&#x135;" horiz-adv-x="260" 
d="M132 707h4l128 -131l-25 -32l-105 105l-107 -104l-26 31zM107 450h52v-483q0 -175 -141 -175q-58 0 -92 28l16 42q31 -21 65 -21q100 0 100 130v479z" />
    <glyph glyph-name="Kcommaaccent" unicode="&#x136;" horiz-adv-x="637" 
d="M528 700h67l-331 -331l345 -369h-71l-339 365zM166 0h-55v700h55v-700zM274 -71l45 16q35 -8 35 -50q0 -75 -85 -97l-15 24q48 20 48 65q0 33 -28 42z" />
    <glyph glyph-name="kcommaaccent" unicode="&#x137;" horiz-adv-x="473" 
d="M366 450h68l-210 -211l229 -239h-70l-223 235zM131 0h-52v700h52v-700zM192 -71l45 16q35 -8 35 -50q0 -75 -85 -97l-15 24q48 20 48 65q0 33 -28 42z" />
    <glyph glyph-name="Lacute" unicode="&#x139;" horiz-adv-x="552" 
d="M535 0h-424v700h55v-648h369v-52zM407 868l19 -44l-182 -86l-16 31z" />
    <glyph glyph-name="lacute" unicode="&#x13a;" horiz-adv-x="282" 
d="M79 116v584h52v-556q0 -53 15 -77t50 -24q34 0 63 22l13 -41q-39 -30 -95 -30q-98 0 -98 122zM249 868l19 -44l-182 -86l-16 31z" />
    <glyph glyph-name="Lcommaaccent" unicode="&#x13b;" horiz-adv-x="552" 
d="M276 -71l45 16q35 -8 35 -50q0 -75 -85 -97l-15 24q48 20 48 65q0 33 -28 42zM535 0h-424v700h55v-648h369v-52z" />
    <glyph glyph-name="lcommaaccent" unicode="&#x13c;" horiz-adv-x="282" 
d="M79 116v584h52v-556q0 -53 15 -77t50 -24q34 0 63 22l13 -41q-39 -30 -95 -30q-98 0 -98 122zM126 -71l45 16q35 -8 35 -50q0 -75 -85 -97l-15 24q48 20 48 65q0 33 -28 42z" />
    <glyph glyph-name="Lcaron" unicode="&#x13d;" horiz-adv-x="552" 
d="M357 700h50q9 -15 9 -40q0 -49 -20.5 -85t-54.5 -52l-23 24q49 37 49 107q0 27 -10 46zM535 0h-424v700h55v-648h369v-52z" />
    <glyph glyph-name="lcaron" unicode="&#x13e;" horiz-adv-x="282" 
d="M79 116v584h52v-556q0 -53 15 -77t50 -24q34 0 63 22l13 -41q-39 -30 -95 -30q-98 0 -98 122zM239 700h50q9 -15 9 -40q0 -49 -20.5 -85t-54.5 -52l-23 24q49 37 49 107q0 27 -10 46z" />
    <glyph glyph-name="Ldot" unicode="&#x13f;" horiz-adv-x="552" 
d="M378 374q0 15 11.5 25.5t28.5 10.5q15 0 25.5 -11t10.5 -25q0 -16 -10.5 -28t-25.5 -12q-17 0 -28.5 12t-11.5 28zM535 0h-424v700h55v-648h369v-52z" />
    <glyph glyph-name="ldot" unicode="&#x140;" horiz-adv-x="303" 
d="M79 116v584h52v-556q0 -53 15 -77t50 -24q34 0 63 22l13 -41q-39 -30 -95 -30q-98 0 -98 122zM224 317q0 15 11 24t26 9q13 0 23.5 -9.5t10.5 -23.5q0 -17 -10.5 -27t-23.5 -10q-16 0 -26.5 10t-10.5 27z" />
    <glyph glyph-name="Lslash" unicode="&#x141;" horiz-adv-x="562" 
d="M121 278l-94 -47v55l94 47v367h55v-339l187 94v-54l-187 -95v-254h369v-52h-424v278z" />
    <glyph glyph-name="lslash" unicode="&#x142;" horiz-adv-x="312" 
d="M99 279l-82 -41v55l82 41v366h52v-340l113 57v-54l-113 -57v-162q0 -53 15 -77t50 -24q34 0 63 22l13 -41q-39 -30 -95 -30q-98 0 -98 122v163z" />
    <glyph glyph-name="Nacute" unicode="&#x143;" horiz-adv-x="797" 
d="M686 700v-700h-44l-479 602v-602h-52v700h44l479 -604v604h52zM530 868l19 -44l-182 -86l-16 31z" />
    <glyph glyph-name="nacute" unicode="&#x144;" horiz-adv-x="551" 
d="M131 0h-52v450h52v-63q28 31 72.5 51t89.5 20q94 0 141 -49t47 -152v-257h-52v247q0 162 -148 162q-43 0 -84 -19.5t-66 -49.5v-340zM341 716l40 -31l-116 -143l-32 23z" />
    <glyph glyph-name="Ncommaaccent" unicode="&#x145;" horiz-adv-x="797" 
d="M686 700v-700h-44l-479 602v-602h-52v700h44l479 -604v604h52zM359 -71l45 16q35 -8 35 -50q0 -75 -85 -97l-15 24q48 20 48 65q0 33 -28 42z" />
    <glyph glyph-name="ncommaaccent" unicode="&#x146;" horiz-adv-x="551" 
d="M131 0h-52v450h52v-63q28 31 72.5 51t89.5 20q94 0 141 -49t47 -152v-257h-52v247q0 162 -148 162q-43 0 -84 -19.5t-66 -49.5v-340zM240 -71l45 16q35 -8 35 -50q0 -75 -85 -97l-15 24q48 20 48 65q0 33 -28 42z" />
    <glyph glyph-name="Ncaron" unicode="&#x147;" horiz-adv-x="797" 
d="M401 740h-4l-171 98l23 30l150 -83l149 83l21 -29zM686 700v-700h-44l-479 602v-602h-52v700h44l479 -604v604h52z" />
    <glyph glyph-name="ncaron" unicode="&#x148;" horiz-adv-x="551" 
d="M277 546h-4l-130 132l26 31l106 -111l106 111l25 -31zM131 0h-52v450h52v-63q28 31 72.5 51t89.5 20q94 0 141 -49t47 -152v-257h-52v247q0 162 -148 162q-43 0 -84 -19.5t-66 -49.5v-340z" />
    <glyph glyph-name="Omacron" unicode="&#x14c;" horiz-adv-x="810" 
d="M54 350q0 153 100 256t251 103q149 0 250 -102q101 -101 101 -257q0 -153 -101 -257q-101 -102 -250 -102q-150 0 -251 101q-100 101 -100 258zM112 350q0 -130 84 -219q85 -88 209 -88q128 0 210 88q83 89 83 219q0 133 -85 219q-84 88 -208 88q-125 0 -209 -88
q-84 -87 -84 -219zM558 778h-300v43h300v-43z" />
    <glyph glyph-name="omacron" unicode="&#x14d;" horiz-adv-x="567" 
d="M113 57q-66 66 -66 168t66 168t170 66t170 -66t66 -168t-66 -168t-170 -66t-170 66zM283 40q81 0 130 51q51 53 51 134t-51 133t-130 52q-78 0 -130 -52q-51 -52 -51 -133t51 -133t130 -52zM412 604h-252v43h252v-43z" />
    <glyph glyph-name="Ohungarumlaut" unicode="&#x150;" horiz-adv-x="810" 
d="M54 350q0 153 100 256t251 103q149 0 250 -102q101 -101 101 -257q0 -153 -101 -257q-101 -102 -250 -102q-150 0 -251 101q-100 101 -100 258zM112 350q0 -130 84 -219q85 -88 209 -88q128 0 210 88q83 89 83 219q0 133 -85 219q-84 88 -208 88q-125 0 -209 -88
q-84 -87 -84 -219zM614 868l35 -33l-169 -97l-22 24zM422 868l42 -25l-158 -105l-23 22z" />
    <glyph glyph-name="ohungarumlaut" unicode="&#x151;" horiz-adv-x="567" 
d="M113 57q-66 66 -66 168t66 168t170 66t170 -66t66 -168t-66 -168t-170 -66t-170 66zM283 40q81 0 130 51q51 53 51 134t-51 133t-130 52q-78 0 -130 -52q-51 -52 -51 -133t51 -133t130 -52zM436 712l38 -29l-119 -141l-32 23zM280 716l38 -28l-112 -146l-32 23z" />
    <glyph glyph-name="OE" unicode="&#x152;" horiz-adv-x="1045" 
d="M978 0h-397v36q-73 -45 -176 -45q-156 0 -254 98q-97 97 -97 261q0 155 94 256q94 103 249 103q111 0 184 -46v37h387v-52h-332v-267h302v-52h-302v-277h342v-52zM409 43q101 0 172 52v508q-73 54 -183 54q-128 0 -207 -87q-79 -85 -79 -220q0 -137 82 -222t215 -85z" />
    <glyph glyph-name="oe" unicode="&#x153;" horiz-adv-x="843" 
d="M753 95l17 -40q-61 -64 -166 -64q-99 0 -162 54q-63 -54 -159 -54q-104 0 -170 66t-66 168t66 168t170 66q91 0 156 -53q59 53 154 53q87 0 146 -56t59 -147q0 -21 -4 -42h-370q3 -81 53 -127.5t131 -46.5q93 0 145 55zM283 40q72 0 124 44q-41 59 -41 141q0 83 39 142
q-50 43 -122 43q-79 0 -130 -52t-51 -133t51 -133t130 -52zM589 410q-73 0 -117.5 -41.5t-50.5 -111.5h323q-1 71 -43 112t-112 41z" />
    <glyph glyph-name="Racute" unicode="&#x154;" horiz-adv-x="631" 
d="M166 294v-294h-55v700q45 0 91 1t77 1q245 0 245 -202q0 -72 -47 -127q-47 -53 -119 -68l245 -305h-68l-233 294h-136zM276 650q-22 0 -110 -2v-302h121q71 0 124 43q55 43 55 111q0 150 -190 150zM388 868l19 -44l-182 -86l-16 31z" />
    <glyph glyph-name="racute" unicode="&#x155;" horiz-adv-x="329" 
d="M131 0h-52v450h52v-60q45 68 121 68q47 0 70 -17l-18 -49q-29 17 -63 17q-67 0 -110 -73v-336zM257 716l40 -31l-116 -143l-32 23z" />
    <glyph glyph-name="Rcommaaccent" unicode="&#x156;" horiz-adv-x="631" 
d="M166 294v-294h-55v700q45 0 91 1t77 1q245 0 245 -202q0 -72 -47 -127q-47 -53 -119 -68l245 -305h-68l-233 294h-136zM276 650q-22 0 -110 -2v-302h121q71 0 124 43q55 43 55 111q0 150 -190 150zM271 -71l45 16q35 -8 35 -50q0 -75 -85 -97l-15 24q48 20 48 65
q0 33 -28 42z" />
    <glyph glyph-name="rcommaaccent" unicode="&#x157;" horiz-adv-x="329" 
d="M131 0h-52v450h52v-60q45 68 121 68q47 0 70 -17l-18 -49q-29 17 -63 17q-67 0 -110 -73v-336zM115 -71l45 16q35 -8 35 -50q0 -75 -85 -97l-15 24q48 20 48 65q0 33 -28 42z" />
    <glyph glyph-name="Rcaron" unicode="&#x158;" horiz-adv-x="631" 
d="M166 294v-294h-55v700q45 0 91 1t77 1q245 0 245 -202q0 -72 -47 -127q-47 -53 -119 -68l245 -305h-68l-233 294h-136zM276 650q-22 0 -110 -2v-302h121q71 0 124 43q55 43 55 111q0 150 -190 150zM284 740h-4l-171 98l23 30l150 -83l149 83l21 -29z" />
    <glyph glyph-name="rcaron" unicode="&#x159;" horiz-adv-x="329" 
d="M193 546h-4l-130 132l26 31l106 -111l106 111l25 -31zM131 0h-52v450h52v-60q45 68 121 68q47 0 70 -17l-18 -49q-29 17 -63 17q-67 0 -110 -73v-336z" />
    <glyph glyph-name="Sacute" unicode="&#x15a;" horiz-adv-x="546" 
d="M434 174q0 46 -27 79t-67 50l-87 37.5t-87 40.5t-67 59.5t-27 93.5q0 76 55 125q56 50 150 50q123 0 188 -71l-30 -41q-60 60 -156 60q-69 0 -109 -33.5t-40 -89.5q0 -45 27 -77.5t67 -48.5l87 -35.5t87 -39.5t67 -60.5t27 -97.5q0 -82 -64 -133t-159 -51q-65 0 -128 27
q-62 29 -87 74l33 38q30 -39 80 -63t101 -24q68 0 117 35q49 34 49 96zM401 868l19 -44l-182 -86l-16 31z" />
    <glyph glyph-name="sacute" unicode="&#x15b;" horiz-adv-x="418" 
d="M312 118q0 31 -25.5 50t-62 30t-73.5 24.5t-62.5 43t-25.5 74.5q0 54 40 86.5t105 32.5q93 0 141 -50l-22 -39q-46 43 -118 43q-40 0 -65.5 -20.5t-25.5 -51.5q0 -32 25.5 -52.5t62 -32t73.5 -24.5t62.5 -41t25.5 -71q0 -61 -45.5 -95t-116.5 -34q-44 0 -92 20
q-45 19 -62 45l29 34q19 -23 57 -38q39 -15 74 -15q44 0 72.5 21.5t28.5 59.5zM275 716l40 -31l-116 -143l-32 23z" />
    <glyph glyph-name="Scircumflex" unicode="&#x15c;" horiz-adv-x="546" 
d="M434 174q0 46 -27 79t-67 50l-87 37.5t-87 40.5t-67 59.5t-27 93.5q0 76 55 125q56 50 150 50q123 0 188 -71l-30 -41q-60 60 -156 60q-69 0 -109 -33.5t-40 -89.5q0 -45 27 -77.5t67 -48.5l87 -35.5t87 -39.5t67 -60.5t27 -97.5q0 -82 -64 -133t-159 -51q-65 0 -128 27
q-62 29 -87 74l33 38q30 -39 80 -63t101 -24q68 0 117 35q49 34 49 96zM122 737l-20 30l168 98h4l170 -98l-23 -30l-149 81z" />
    <glyph glyph-name="scircumflex" unicode="&#x15d;" horiz-adv-x="418" 
d="M312 118q0 31 -25.5 50t-62 30t-73.5 24.5t-62.5 43t-25.5 74.5q0 54 40 86.5t105 32.5q93 0 141 -50l-22 -39q-46 43 -118 43q-40 0 -65.5 -20.5t-25.5 -51.5q0 -32 25.5 -52.5t62 -32t73.5 -24.5t62.5 -41t25.5 -71q0 -61 -45.5 -95t-116.5 -34q-44 0 -92 20
q-45 19 -62 45l29 34q19 -23 57 -38q39 -15 74 -15q44 0 72.5 21.5t28.5 59.5zM211 707h4l128 -131l-25 -32l-105 105l-107 -104l-26 31z" />
    <glyph glyph-name="Scedilla" unicode="&#x15e;" horiz-adv-x="546" 
d="M165 -173l17 28q42 -24 74 -24q31 0 50.5 12.5t19.5 33.5q0 47 -71 47h-6v68q-63 5 -117 31q-56 27 -78 69l33 38q30 -39 80 -63t101 -24q68 0 117 35q49 34 49 96q0 46 -27 79t-67 50l-87 37.5t-87 40.5t-67 59.5t-27 93.5q0 76 55 125q56 50 150 50q123 0 188 -71
l-30 -41q-60 60 -156 60q-69 0 -109 -33.5t-40 -89.5q0 -45 27 -77.5t67 -48.5l87 -35.5t87 -39.5t67 -60.5t27 -97.5q0 -80 -61 -131q-62 -50 -152 -53v-41q102 -3 102 -76q0 -34 -31 -55q-31 -22 -83 -22q-53 0 -102 30z" />
    <glyph glyph-name="scedilla" unicode="&#x15f;" horiz-adv-x="418" 
d="M102 -174l16 27q35 -22 72 -22q31 0 50.5 12.5t19.5 33.5q0 47 -71 47h-6v69q-41 4 -79 22.5t-53 40.5l29 34q19 -23 57 -38q39 -15 74 -15q44 0 72.5 21.5t28.5 59.5q0 31 -25.5 50t-62 30t-73.5 24.5t-62.5 43t-25.5 74.5q0 54 40 86.5t105 32.5q93 0 141 -50l-22 -39
q-46 43 -118 43q-40 0 -65.5 -20.5t-25.5 -51.5q0 -32 25.5 -52.5t62 -32t73.5 -24.5t62.5 -41t25.5 -71q0 -59 -43 -93t-111 -36v-41q99 -3 99 -76q0 -34 -31 -55.5t-84 -21.5q-46 0 -95 29z" />
    <glyph glyph-name="Scaron" unicode="&#x160;" horiz-adv-x="546" 
d="M434 174q0 46 -27 79t-67 50l-87 37.5t-87 40.5t-67 59.5t-27 93.5q0 76 55 125q56 50 150 50q123 0 188 -71l-30 -41q-60 60 -156 60q-69 0 -109 -33.5t-40 -89.5q0 -45 27 -77.5t67 -48.5l87 -35.5t87 -39.5t67 -60.5t27 -97.5q0 -82 -64 -133t-159 -51q-65 0 -128 27
q-62 29 -87 74l33 38q30 -39 80 -63t101 -24q68 0 117 35q49 34 49 96zM281 740h-4l-171 98l23 30l150 -83l149 83l21 -29z" />
    <glyph glyph-name="scaron" unicode="&#x161;" horiz-adv-x="418" 
d="M312 118q0 31 -25.5 50t-62 30t-73.5 24.5t-62.5 43t-25.5 74.5q0 54 40 86.5t105 32.5q93 0 141 -50l-22 -39q-46 43 -118 43q-40 0 -65.5 -20.5t-25.5 -51.5q0 -32 25.5 -52.5t62 -32t73.5 -24.5t62.5 -41t25.5 -71q0 -61 -45.5 -95t-116.5 -34q-44 0 -92 20
q-45 19 -62 45l29 34q19 -23 57 -38q39 -15 74 -15q44 0 72.5 21.5t28.5 59.5zM211 546h-4l-130 132l26 31l106 -111l106 111l25 -31z" />
    <glyph glyph-name="Tcedilla" unicode="&#x162;" horiz-adv-x="593" 
d="M198 -173l17 28q42 -24 74 -24q31 0 50.5 12.5t19.5 33.5q0 47 -71 47h-6v76h-13v648h-259v52h573v-52h-259v-648h-12v-50q102 -3 102 -76q0 -34 -31 -55q-31 -22 -83 -22t-102 30z" />
    <glyph glyph-name="tcedilla" unicode="&#x163;" horiz-adv-x="348" 
d="M82 -174l16 27q35 -22 72 -22q31 0 50.5 12.5t19.5 33.5q0 47 -71 47h-6v76q-94 24 -94 171v404h52v-125h181v-49h-181v-222q0 -136 101 -136q40 0 72 24l17 -41q-41 -32 -101 -32q-14 0 -17 1v-45q99 -3 99 -76q0 -34 -31 -55.5t-84 -21.5q-46 0 -95 29z" />
    <glyph glyph-name="Tcaron" unicode="&#x164;" horiz-adv-x="593" 
d="M298 740h-4l-171 98l23 30l150 -83l149 83l21 -29zM269 648h-259v52h573v-52h-259v-648h-55v648z" />
    <glyph glyph-name="tcaron" unicode="&#x165;" horiz-adv-x="348" 
d="M69 171v404h52v-125h181v-49h-181v-222q0 -136 101 -136q40 0 72 24l17 -41q-41 -32 -101 -32q-141 0 -141 177zM243 700h50q9 -15 9 -40q0 -49 -20.5 -85t-54.5 -52l-23 24q49 37 49 107q0 27 -10 46z" />
    <glyph glyph-name="Umacron" unicode="&#x16a;" horiz-adv-x="751" 
d="M595 700h55v-407q0 -151 -75 -226t-190 -75q-127 0 -206 79q-78 79 -78 229v400h55v-390q0 -125 61.5 -195.5t167.5 -70.5q98 0 154 67t56 194v395zM528 778h-300v43h300v-43z" />
    <glyph glyph-name="umacron" unicode="&#x16b;" horiz-adv-x="544" 
d="M412 450h52v-450h-52v71q-28 -35 -74.5 -57.5t-96.5 -22.5q-172 0 -172 198v261h52v-250q0 -160 139 -160q42 0 84.5 22.5t67.5 55.5v332zM396 604h-252v43h252v-43z" />
    <glyph glyph-name="Ubreve" unicode="&#x16c;" horiz-adv-x="751" 
d="M595 700h55v-407q0 -151 -75 -226t-190 -75q-127 0 -206 79q-78 79 -78 229v400h55v-390q0 -125 61.5 -195.5t167.5 -70.5q98 0 154 67t56 194v395zM210 837l24 27q57 -67 143 -67q85 0 140 67l21 -28q-25 -38 -68 -61.5t-93 -23.5q-58 0 -103 27q-45 28 -64 59z" />
    <glyph glyph-name="ubreve" unicode="&#x16d;" horiz-adv-x="544" 
d="M412 450h52v-450h-52v71q-28 -35 -74.5 -57.5t-96.5 -22.5q-172 0 -172 198v261h52v-250q0 -160 139 -160q42 0 84.5 22.5t67.5 55.5v332zM130 654l24 27q56 -65 118 -65q65 0 117 64l20 -26q-59 -81 -139 -81q-89 0 -140 81z" />
    <glyph glyph-name="Uring" unicode="&#x16e;" horiz-adv-x="751" 
d="M595 700h55v-407q0 -151 -75 -226t-190 -75q-127 0 -206 79q-78 79 -78 229v400h55v-390q0 -125 61.5 -195.5t167.5 -70.5q98 0 154 67t56 194v395zM264 785q0 43 30 65.5t81 22.5q52 0 82.5 -22.5t30.5 -65.5q0 -42 -31.5 -66.5t-81.5 -24.5q-49 0 -80 24.5t-31 66.5z
M304 785q0 -29 19.5 -44.5t52.5 -15.5q32 0 52 16t20 44q0 57 -72 57t-72 -57z" />
    <glyph glyph-name="uring" unicode="&#x16f;" horiz-adv-x="544" 
d="M412 450h52v-450h-52v71q-28 -35 -74.5 -57.5t-96.5 -22.5q-172 0 -172 198v261h52v-250q0 -160 139 -160q42 0 84.5 22.5t67.5 55.5v332zM269 718q45 0 76 -30.5t31 -73.5t-31 -73t-76 -30q-44 0 -74.5 30t-30.5 73t30.5 73.5t74.5 30.5zM219 665q-20 -21 -20 -51
t20 -51q21 -21 51 -21t50 21q21 21 21 51t-21 51q-20 22 -50 22t-51 -22z" />
    <glyph glyph-name="Uhungarumlaut" unicode="&#x170;" horiz-adv-x="751" 
d="M595 700h55v-407q0 -151 -75 -226t-190 -75q-127 0 -206 79q-78 79 -78 229v400h55v-390q0 -125 61.5 -195.5t167.5 -70.5q98 0 154 67t56 194v395zM571 868l35 -33l-169 -97l-22 24zM379 868l42 -25l-158 -105l-23 22z" />
    <glyph glyph-name="uhungarumlaut" unicode="&#x171;" horiz-adv-x="544" 
d="M423 712l38 -29l-119 -141l-32 23zM267 716l38 -28l-112 -146l-32 23zM412 450h52v-450h-52v71q-28 -35 -74.5 -57.5t-96.5 -22.5q-172 0 -172 198v261h52v-250q0 -160 139 -160q42 0 84.5 22.5t67.5 55.5v332z" />
    <glyph glyph-name="Uogonek" unicode="&#x172;" horiz-adv-x="751" 
d="M595 700h55v-407q0 -125 -53 -200t-145 -94q-84 -35 -84 -92q0 -33 21.5 -48.5t51.5 -15.5q25 0 45 9l16 -33q-28 -19 -73 -19q-49 0 -81 23t-32 68q0 64 79 101h-10q-127 0 -206 79q-78 79 -78 229v400h55v-390q0 -125 61.5 -195.5t167.5 -70.5q98 0 154 67t56 194v395z
" />
    <glyph glyph-name="uogonek" unicode="&#x173;" horiz-adv-x="544" 
d="M455 -148l16 -33q-28 -19 -73 -19q-49 0 -81 23t-32 68q0 44 35.5 75t91.5 43v62q-28 -35 -74.5 -57.5t-96.5 -22.5q-172 0 -172 198v261h52v-250q0 -160 139 -160q42 0 84.5 22.5t67.5 55.5v332h52v-450q-49 0 -88 -27t-39 -66q0 -33 21.5 -48.5t51.5 -15.5q26 0 45 9z
" />
    <glyph glyph-name="Ydieresis" unicode="&#x178;" horiz-adv-x="584" 
d="M509 700h61l-252 -394v-306h-55v306l-249 394h64l215 -342zM139 804q0 15 11 23.5t27 8.5q15 0 25.5 -9t10.5 -23q0 -15 -10.5 -24.5t-25.5 -9.5q-16 0 -27 9.5t-11 24.5zM372 804q0 15 11.5 23.5t27.5 8.5q15 0 25 -9t10 -23q0 -15 -10 -24.5t-25 -9.5q-17 0 -28 9
t-11 25z" />
    <glyph glyph-name="Zacute" unicode="&#x179;" horiz-adv-x="629" 
d="M501 648h-441v52h519v-35l-463 -613h473v-52h-549v35zM439 868l19 -44l-182 -86l-16 31z" />
    <glyph glyph-name="zacute" unicode="&#x17a;" horiz-adv-x="481" 
d="M358 401h-296v49h372v-34l-312 -367h307v-49h-382v34zM310 716l40 -31l-116 -143l-32 23z" />
    <glyph glyph-name="Zdotaccent" unicode="&#x17b;" horiz-adv-x="629" 
d="M501 648h-441v52h519v-35l-463 -613h473v-52h-549v35zM271 806q0 15 11.5 25.5t27.5 10.5q15 0 26.5 -10.5t11.5 -25.5q0 -17 -11 -27t-27 -10q-17 0 -28 10t-11 27z" />
    <glyph glyph-name="zdotaccent" unicode="&#x17c;" horiz-adv-x="481" 
d="M358 401h-296v49h372v-34l-312 -367h307v-49h-382v34zM203 625q0 15 11 24t26 9q13 0 23.5 -9.5t10.5 -23.5q0 -17 -9.5 -27t-24.5 -10q-16 0 -26.5 10t-10.5 27z" />
    <glyph glyph-name="Zcaron" unicode="&#x17d;" horiz-adv-x="629" 
d="M318 740h-4l-171 98l23 30l150 -83l149 83l21 -29zM501 648h-441v52h519v-35l-463 -613h473v-52h-549v35z" />
    <glyph glyph-name="zcaron" unicode="&#x17e;" horiz-adv-x="481" 
d="M246 546h-4l-130 132l26 31l106 -111l106 111l25 -31zM358 401h-296v49h372v-34l-312 -367h307v-49h-382v34z" />
    <glyph glyph-name="longs" unicode="&#x17f;" horiz-adv-x="254" 
d="M145 0h-52v523q0 186 155 186q73 0 117 -38l-20 -40q-37 29 -89 29q-111 0 -111 -146v-514z" />
    <glyph glyph-name="uni018F" unicode="&#x18f;" horiz-adv-x="778" 
d="M57 383h616q-9 127 -91 200q-82 74 -212 74q-113 0 -187 -59l-22 41q79 70 221 70q160 0 254 -97q96 -96 96 -259q0 -159 -93 -261q-93 -101 -248 -101q-157 0 -250 109q-92 110 -84 283zM389 43q126 0 203 80q75 78 83 208h-561q5 -124 78 -206q75 -82 197 -82z" />
    <glyph glyph-name="florin" unicode="&#x192;" horiz-adv-x="589" 
d="M357 514l-12 -64h165v-49h-174l-77 -434q-16 -91 -52.5 -133t-106.5 -42q-58 0 -92 28l16 42q32 -21 65 -21q51 0 78.5 32t39.5 100l76 428h-156v49h165l13 73q18 98 58 142t112 44q73 0 116 -38l-19 -40q-38 29 -89 29q-54 0 -83 -34t-43 -112z" />
    <glyph glyph-name="uni01DD" unicode="&#x1dd;" horiz-adv-x="524" 
d="M92 355l-17 40q29 30 76.5 47t96.5 17q106 0 167 -64q61 -62 61 -170q0 -101 -59 -168q-59 -66 -163 -66q-92 0 -151 56t-59 147q0 28 4 49h370q-1 71 -49 119q-47 48 -124 48q-44 0 -86.5 -15.5t-66.5 -39.5zM258 40q71 0 116 45q46 46 47 115h-323q0 -77 42 -118.5
t118 -41.5z" />
    <glyph glyph-name="Scommaaccent" unicode="&#x218;" horiz-adv-x="546" 
d="M434 174q0 46 -27 79t-67 50l-87 37.5t-87 40.5t-67 59.5t-27 93.5q0 76 55 125q56 50 150 50q123 0 188 -71l-30 -41q-60 60 -156 60q-69 0 -109 -33.5t-40 -89.5q0 -45 27 -77.5t67 -48.5l87 -35.5t87 -39.5t67 -60.5t27 -97.5q0 -82 -64 -133t-159 -51q-65 0 -128 27
q-62 29 -87 74l33 38q30 -39 80 -63t101 -24q68 0 117 35q49 34 49 96zM237 -71l45 16q35 -8 35 -50q0 -75 -85 -97l-15 24q48 20 48 65q0 33 -28 42z" />
    <glyph glyph-name="scommaaccent" unicode="&#x219;" horiz-adv-x="418" 
d="M312 118q0 31 -25.5 50t-62 30t-73.5 24.5t-62.5 43t-25.5 74.5q0 54 40 86.5t105 32.5q93 0 141 -50l-22 -39q-46 43 -118 43q-40 0 -65.5 -20.5t-25.5 -51.5q0 -32 25.5 -52.5t62 -32t73.5 -24.5t62.5 -41t25.5 -71q0 -61 -45.5 -95t-116.5 -34q-44 0 -92 20
q-45 19 -62 45l29 34q19 -23 57 -38q39 -15 74 -15q44 0 72.5 21.5t28.5 59.5zM177 -71l45 16q35 -8 35 -50q0 -75 -85 -97l-15 24q48 20 48 65q0 33 -28 42z" />
    <glyph glyph-name="Tcommaaccent" unicode="&#x21a;" horiz-adv-x="593" 
d="M269 648h-259v52h573v-52h-259v-648h-55v648zM261 -71l45 16q35 -8 35 -50q0 -75 -85 -97l-15 24q48 20 48 65q0 33 -28 42z" />
    <glyph glyph-name="tcommaaccent" unicode="&#x21b;" horiz-adv-x="348" 
d="M69 171v404h52v-125h181v-49h-181v-222q0 -136 101 -136q40 0 72 24l17 -41q-41 -32 -101 -32q-141 0 -141 177zM153 -71l45 16q35 -8 35 -50q0 -75 -85 -97l-15 24q48 20 48 65q0 33 -28 42z" />
    <glyph glyph-name="uni0237" unicode="&#x237;" horiz-adv-x="260" 
d="M107 450h52v-483q0 -175 -141 -175q-58 0 -92 28l16 42q31 -21 65 -21q100 0 100 130v479z" />
    <glyph glyph-name="uni0259" unicode="&#x259;" horiz-adv-x="524" 
d="M92 355l-17 40q29 30 76.5 47t96.5 17q106 0 167 -64q61 -62 61 -170q0 -101 -59 -168q-59 -66 -163 -66q-92 0 -151 56t-59 147q0 28 4 49h370q-1 71 -49 119q-47 48 -124 48q-44 0 -86.5 -15.5t-66.5 -39.5zM258 40q71 0 116 45q46 46 47 115h-323q0 -77 42 -118.5
t118 -41.5z" />
    <glyph glyph-name="afii57929" unicode="&#x2bc;" horiz-adv-x="218" 
d="M89 631l43 28q26 -31 26 -73q0 -91 -74 -132l-24 25q49 28 49 96q0 36 -20 56z" />
    <glyph glyph-name="circumflex" unicode="&#x2c6;" horiz-adv-x="383" 
d="M191 707h4l128 -131l-25 -32l-105 105l-107 -104l-26 31z" />
    <glyph glyph-name="caron" unicode="&#x2c7;" horiz-adv-x="383" 
d="M194 546h-4l-130 132l26 31l106 -111l106 111l25 -31z" />
    <glyph glyph-name="breve" unicode="&#x2d8;" horiz-adv-x="399" 
d="M60 654l24 27q56 -65 118 -65q65 0 117 64l20 -26q-59 -81 -139 -81q-89 0 -140 81z" />
    <glyph glyph-name="dotaccent" unicode="&#x2d9;" horiz-adv-x="191" 
d="M60 625q0 15 11 24t26 9q13 0 23.5 -9.5t10.5 -23.5q0 -17 -10.5 -27t-23.5 -10q-16 0 -26.5 10t-10.5 27z" />
    <glyph glyph-name="ring" unicode="&#x2da;" horiz-adv-x="332" 
d="M165 718q45 0 76 -30.5t31 -73.5t-31 -73t-76 -30q-44 0 -74.5 30t-30.5 73t30.5 73.5t74.5 30.5zM115 665q-20 -21 -20 -51t20 -51q21 -21 51 -21t50 21q21 21 21 51t-21 51q-20 22 -50 22t-51 -22z" />
    <glyph glyph-name="ogonek" unicode="&#x2db;" horiz-adv-x="306" 
d="M230 -148l16 -33q-28 -19 -73 -19q-49 0 -81 23t-32 68q0 56 55 90q55 33 124 33v-14q-49 0 -88 -27t-39 -66q0 -33 21.5 -48.5t51.5 -15.5q25 0 45 9z" />
    <glyph glyph-name="tilde" unicode="&#x2dc;" horiz-adv-x="425" 
d="M83 573l-23 25q52 52 101 52q23 0 57 -23q35 -23 54 -23q30 0 74 38l19 -27q-53 -54 -98 -54q-21 0 -56 23q-34 23 -56 23q-29 0 -72 -34z" />
    <glyph glyph-name="hungarumlaut" unicode="&#x2dd;" horiz-adv-x="420" 
d="M322 712l38 -29l-119 -141l-32 23zM166 716l38 -28l-112 -146l-32 23z" />
    <glyph glyph-name="gravecomb" unicode="&#x300;" horiz-adv-x="0" 
d="M-230 565l-33 -23l-116 142l41 31z" />
    <glyph glyph-name="acutecomb" unicode="&#x301;" horiz-adv-x="0" 
d="M-207 716l40 -31l-116 -143l-32 23z" />
    <glyph glyph-name="uni0394" unicode="&#x394;" horiz-adv-x="714" 
d="M680 0h-646l303 708h33zM597 52l-245 562l-238 -562h483z" />
    <glyph glyph-name="uni0394" unicode="&#x2206;" horiz-adv-x="714" 
d="M680 0h-646l303 708h33zM597 52l-245 562l-238 -562h483z" />
    <glyph glyph-name="uni03A9" unicode="&#x3a9;" horiz-adv-x="811" 
d="M344 0h-264v52h179q-84 28 -143 114q-58 85 -58 196q0 152 100 249q101 98 248 98q148 0 248 -98q100 -97 100 -249q0 -114 -58 -197q-59 -85 -144 -113h179v-52h-264v52q102 24 165 108q64 83 64 194q0 129 -82 215q-82 88 -208 88q-127 0 -209 -88q-81 -87 -81 -216
q0 -107 63 -193q65 -86 165 -108v-52z" />
    <glyph glyph-name="uni03A9" unicode="&#x2126;" horiz-adv-x="811" 
d="M344 0h-264v52h179q-84 28 -143 114q-58 85 -58 196q0 152 100 249q101 98 248 98q148 0 248 -98q100 -97 100 -249q0 -114 -58 -197q-59 -85 -144 -113h179v-52h-264v52q102 24 165 108q64 83 64 194q0 129 -82 215q-82 88 -208 88q-127 0 -209 -88q-81 -87 -81 -216
q0 -107 63 -193q65 -86 165 -108v-52z" />
    <glyph glyph-name="pi" unicode="&#x3c0;" horiz-adv-x="641" 
d="M153 401h-103v49h537v-49h-100v-271q0 -48 10.5 -67.5t37.5 -19.5q30 0 59 22l13 -41q-39 -30 -91 -30q-81 0 -81 108v299h-231v-73q0 -131 -21 -206q-20 -72 -53.5 -99t-91.5 -27l-4 51q55 -1 86 58q30 58 32 210z" />
    <glyph glyph-name="afii10023" unicode="&#x401;" horiz-adv-x="575" 
d="M155 804q0 15 11 23.5t27 8.5q15 0 25.5 -9t10.5 -23q0 -15 -10.5 -24.5t-25.5 -9.5q-16 0 -27 9.5t-11 24.5zM388 804q0 15 11.5 23.5t27.5 8.5q15 0 25 -9t10 -23q0 -15 -10 -24.5t-25 -9.5q-17 0 -28 9t-11 25zM508 0h-397v700h387v-52h-332v-267h302v-52h-302v-277
h342v-52z" />
    <glyph glyph-name="afii10051" unicode="&#x402;" horiz-adv-x="760" 
d="M706 204q0 -107 -44.5 -160t-124.5 -53q-28 0 -55.5 10t-39.5 22l20 43q32 -23 69 -23q120 0 120 160q0 168 -163 168q-51 0 -98 -20q-14 -5 -36 -18q-1 0 -3 -1.5l-5.5 -4t-7.5 -4.5q-11 -6 -14 -9v-314h-55v648h-259v52h573v-52h-259v-282q82 57 175 57q207 0 207 -219
z" />
    <glyph glyph-name="afii10052" unicode="&#x403;" horiz-adv-x="503" 
d="M166 0h-55v700h386v-52h-331v-648zM442 868l19 -44l-182 -86l-16 31z" />
    <glyph glyph-name="afii10053" unicode="&#x404;" horiz-adv-x="680" 
d="M110 383h371v-52h-372q8 -133 92 -210q85 -78 217 -78q106 0 198 66l23 -45q-95 -73 -226 -73q-160 0 -260 98q-99 97 -99 261q0 158 96 258q98 101 254 101q142 0 221 -70l-25 -41q-74 59 -187 59q-130 0 -211 -75q-82 -76 -92 -199z" />
    <glyph glyph-name="afii10054" unicode="&#x405;" horiz-adv-x="546" 
d="M434 174q0 46 -27 79t-67 50l-87 37.5t-87 40.5t-67 59.5t-27 93.5q0 76 55 125q56 50 150 50q123 0 188 -71l-30 -41q-60 60 -156 60q-69 0 -109 -33.5t-40 -89.5q0 -45 27 -77.5t67 -48.5l87 -35.5t87 -39.5t67 -60.5t27 -97.5q0 -82 -64 -133t-159 -51q-65 0 -128 27
q-62 29 -87 74l33 38q30 -39 80 -63t101 -24q68 0 117 35q49 34 49 96z" />
    <glyph glyph-name="afii10055" unicode="&#x406;" horiz-adv-x="325" 
d="M190 0h-55v700h55v-700z" />
    <glyph glyph-name="afii10056" unicode="&#x407;" horiz-adv-x="325" 
d="M56 804q0 14 10 23t24 9q13 0 23 -9t10 -23q0 -15 -10 -24.5t-23 -9.5q-14 0 -24 9.5t-10 24.5zM203 804q0 14 10 23t25 9q13 0 22.5 -9t9.5 -23q0 -15 -9.5 -24.5t-22.5 -9.5q-15 0 -25 9.5t-10 24.5zM190 0h-55v700h55v-700z" />
    <glyph glyph-name="afii10057" unicode="&#x408;" horiz-adv-x="361" 
d="M195 700h55v-546q0 -163 -140 -163q-59 0 -96 32l20 43q32 -23 69 -23q50 0 71 29.5t21 89.5v538z" />
    <glyph glyph-name="afii10058" unicode="&#x409;" horiz-adv-x="1033" 
d="M558 0v648h-294l-12 -132q-23 -265 -71 -390q-19 -54 -48 -84q-26 -28 -50 -36.5t-56 -5.5l1 55q21 -1 36 6t35 32q23 29 41 79q43 122 62 388l10 140h401v-276q80 5 106 5q128 0 194 -54t66 -154q0 -107 -71.5 -165t-201.5 -58q-47 0 -80 1t-68 1zM716 377
q-54 0 -103 -6v-318q90 -3 99 -3q102 0 155.5 43t53.5 127q0 75 -53 116t-152 41z" />
    <glyph glyph-name="afii10059" unicode="&#x40a;" horiz-adv-x="1068" 
d="M166 0h-55v700h55v-292h427v292h55v-289q80 5 106 5q128 0 194 -52.5t66 -149.5q0 -104 -71.5 -160t-201.5 -56q-38 0 -65 1t-57 1h-26v356h-427v-356zM648 358v-305q93 -3 99 -3q102 0 155.5 41.5t53.5 122.5q0 73 -52 111.5t-153 38.5q-53 0 -103 -6z" />
    <glyph glyph-name="afii10060" unicode="&#x40b;" horiz-adv-x="760" 
d="M269 648h-259v52h573v-52h-259v-283q79 58 182 58q94 0 147 -56.5t53 -167.5v-199h-55v187q0 184 -159 184q-78 0 -168 -57v-314h-55v648z" />
    <glyph glyph-name="afii10061" unicode="&#x40c;" horiz-adv-x="637" 
d="M528 700h67l-331 -331l345 -369h-71l-339 365zM166 0h-55v700h55v-700zM460 868l19 -44l-182 -86l-16 31z" />
    <glyph glyph-name="afii10062" unicode="&#x40e;" horiz-adv-x="652" 
d="M579 700h56l-244 -542q-37 -84 -74.5 -121t-87.5 -37q-48 0 -77 23l20 47q28 -19 56 -19q57 0 99 88l13 28l-323 533h62l288 -478zM161 852h52q35 -71 125 -71q43 0 77 19.5t44 51.5h52q-10 -48 -60 -80q-49 -31 -113 -31q-67 0 -115.5 31t-61.5 80z" />
    <glyph glyph-name="afii10145" unicode="&#x40f;" horiz-adv-x="756" 
d="M351 0h-240v700h55v-648h424v648h55v-700h-242v-157h-52v157z" />
    <glyph glyph-name="afii10017" unicode="&#x410;" horiz-adv-x="697" 
d="M77 0h-56l305 706h45l305 -706h-59l-102 238h-336zM492 290l-145 340l-146 -340h291z" />
    <glyph glyph-name="afii10018" unicode="&#x411;" horiz-adv-x="610" 
d="M111 0v700h386v-52h-331v-237q62 6 118 6q121 0 186.5 -53t65.5 -149q0 -105 -70 -161.5t-198 -56.5q-17 0 -87 2q-35 1 -70 1zM282 365q-64 0 -116 -6v-307q99 -3 110 -3q101 0 153 42t52 121q0 73 -51 113t-148 40z" />
    <glyph glyph-name="afii10019" unicode="&#x412;" horiz-adv-x="617" 
d="M111 1v698q139 4 184 4q221 0 221 -173q0 -64 -37 -106.5t-99 -57.5v-2q78 -9 120.5 -52.5t42.5 -115.5q0 -98 -66.5 -148.5t-182.5 -50.5q-110 0 -183 4zM299 333h-133v-280q100 -4 130 -4q93 0 142.5 38t49.5 112q0 64 -49 99t-140 35zM293 651q-43 0 -127 -3v-266h136
q69 0 113 37q46 37 46 100q0 132 -168 132z" />
    <glyph glyph-name="afii10020" unicode="&#x413;" horiz-adv-x="503" 
d="M166 0h-55v700h386v-52h-331v-648z" />
    <glyph glyph-name="afii10021" unicode="&#x414;" horiz-adv-x="743" 
d="M69 -134h-52v186h75q34 44 72 171q39 133 49 337l7 140h394v-648h95v-186h-52v134h-588v-134zM273 648l-8 -128q-13 -190 -48 -312q-34 -120 -64 -156h406v596h-286z" />
    <glyph glyph-name="afii10022" unicode="&#x415;" horiz-adv-x="575" 
d="M508 0h-397v700h387v-52h-332v-267h302v-52h-302v-277h342v-52z" />
    <glyph glyph-name="afii10024" unicode="&#x416;" horiz-adv-x="918" 
d="M814 700h65l-299 -334l310 -366h-65l-306 365zM486 0h-55v700h55v-700zM28 0l310 365l-299 335h65l295 -335l-306 -365h-65z" />
    <glyph glyph-name="afii10025" unicode="&#x417;" horiz-adv-x="573" 
d="M265 -9q-69 0 -130 30q-63 31 -91 73l31 37q33 -39 86 -63.5t100 -24.5q83 0 133 42.5t50 115.5q0 60 -40 95.5t-109 35.5h-87v52h81q50 0 89 40t39 100q0 63 -40 98t-107 35q-103 0 -174 -80l-32 35q36 45 91.5 71t118.5 26q91 0 144.5 -48.5t53.5 -132.5
q0 -51 -28.5 -96.5t-77.5 -68.5v-3q61 -9 97 -54.5t36 -109.5q0 -95 -67 -150t-167 -55z" />
    <glyph glyph-name="afii10026" unicode="&#x418;" horiz-adv-x="797" 
d="M631 610l-471 -610h-49v700h55v-610l471 610h49v-700h-55v610z" />
    <glyph glyph-name="afii10027" unicode="&#x419;" horiz-adv-x="797" 
d="M631 610l-471 -610h-49v700h55v-610l471 610h49v-700h-55v610zM224 852h52q36 -71 125 -71q43 0 77 19.5t44 51.5h52q-10 -48 -60 -80q-49 -31 -113 -31q-67 0 -115.5 31t-61.5 80z" />
    <glyph glyph-name="afii10028" unicode="&#x41a;" horiz-adv-x="637" 
d="M528 700h67l-331 -331l345 -369h-71l-339 365zM166 0h-55v700h55v-700z" />
    <glyph glyph-name="afii10029" unicode="&#x41b;" horiz-adv-x="724" 
d="M613 0h-55v648h-294l-12 -132q-23 -265 -71 -390q-19 -54 -48 -84q-26 -28 -50 -36.5t-56 -5.5l1 55q21 -1 36 6t35 32q23 29 41 79q43 122 62 388l10 140h401v-700z" />
    <glyph glyph-name="afii10030" unicode="&#x41c;" horiz-adv-x="884" 
d="M166 0h-55v700h56l282 -384l271 384h53v-700h-55v614l-269 -378h-9l-274 375v-611z" />
    <glyph glyph-name="afii10031" unicode="&#x41d;" horiz-adv-x="769" 
d="M658 0h-55v331h-437v-331h-55v700h55v-317h437v317h55v-700z" />
    <glyph glyph-name="afii10032" unicode="&#x41e;" horiz-adv-x="810" 
d="M54 350q0 153 100 256t251 103q149 0 250 -102q101 -101 101 -257q0 -153 -101 -257q-101 -102 -250 -102q-150 0 -251 101q-100 101 -100 258zM112 350q0 -130 84 -219q85 -88 209 -88q128 0 210 88q83 89 83 219q0 133 -85 219q-84 88 -208 88q-125 0 -209 -88
q-84 -87 -84 -219z" />
    <glyph glyph-name="afii10033" unicode="&#x41f;" horiz-adv-x="766" 
d="M655 0h-55v648h-434v-648h-55v700h544v-700z" />
    <glyph glyph-name="afii10034" unicode="&#x420;" horiz-adv-x="585" 
d="M166 281v-281h-55v700q41 0 85 1t86 1q70 0 120.5 -18t77.5 -49t39 -66.5t12 -77.5q0 -91 -63 -152q-64 -62 -186 -62q-69 0 -116 4zM287 650q-33 0 -121 -2v-314q72 -5 114 -5q92 0 142.5 44t50.5 119q0 74 -46.5 116t-139.5 42z" />
    <glyph glyph-name="afii10035" unicode="&#x421;" horiz-adv-x="656" 
d="M600 109l22 -41q-36 -36 -94.5 -56.5t-122.5 -20.5q-156 0 -254 98q-97 97 -97 261q0 155 94 256q94 103 249 103q133 0 212 -66l-26 -41q-71 55 -185 55q-128 0 -207 -87q-79 -85 -79 -220q0 -137 82 -222t215 -85q110 0 191 66z" />
    <glyph glyph-name="afii10036" unicode="&#x422;" horiz-adv-x="593" 
d="M269 648h-259v52h573v-52h-259v-648h-55v648z" />
    <glyph glyph-name="afii10037" unicode="&#x423;" horiz-adv-x="652" 
d="M579 700h56l-244 -542q-37 -84 -74.5 -121t-87.5 -37q-48 0 -77 23l20 47q28 -19 56 -19q57 0 99 88l13 28l-323 533h62l288 -478z" />
    <glyph glyph-name="afii10038" unicode="&#x424;" horiz-adv-x="830" 
d="M441 -8h-55v91h-5q-153 0 -245 73q-92 74 -92 204t92 204q92 73 249 73h1v71h55v-71h2q158 0 250 -74q93 -73 93 -203t-93 -204q-92 -73 -245 -73h-7v-91zM445 586h-4v-452h7q130 0 205 58.5t75 167.5q0 107 -75.5 166.5t-207.5 59.5zM102 360q0 -109 76 -167
q77 -59 204 -59h4v452h-2q-130 0 -206 -60q-76 -58 -76 -166z" />
    <glyph glyph-name="afii10039" unicode="&#x425;" horiz-adv-x="660" 
d="M557 700h66l-257 -344l266 -356h-66l-236 314l-237 -314h-65l267 356l-256 344h65l227 -302z" />
    <glyph glyph-name="afii10040" unicode="&#x426;" horiz-adv-x="779" 
d="M693 0h-582v700h55v-648h429v648h55v-648h95v-186h-52v134z" />
    <glyph glyph-name="afii10041" unicode="&#x427;" horiz-adv-x="636" 
d="M470 700h55v-700h-55v321q-86 -59 -199 -59q-96 0 -152 56.5t-56 167.5v214h55v-202q0 -91 43.5 -137.5t123.5 -46.5q90 0 185 59v327z" />
    <glyph glyph-name="afii10042" unicode="&#x428;" horiz-adv-x="993" 
d="M882 0h-771v700h55v-648h303v648h55v-648h303v648h55v-700z" />
    <glyph glyph-name="afii10043" unicode="&#x429;" horiz-adv-x="1011" 
d="M925 0h-814v700h55v-648h303v648h55v-648h303v648h55v-648h95v-186h-52v134z" />
    <glyph glyph-name="afii10044" unicode="&#x42a;" horiz-adv-x="666" 
d="M181 648h-178v52h233v-276q80 5 113 5q130 0 196.5 -54t66.5 -154q0 -107 -72.5 -165t-203.5 -58q-48 0 -83 1t-72 1v648zM346 377q-60 0 -110 -6v-318q90 -3 106 -3q103 0 157.5 43.5t54.5 126.5q0 76 -53.5 116.5t-154.5 40.5z" />
    <glyph glyph-name="afii10045" unicode="&#x42b;" horiz-adv-x="829" 
d="M718 0h-55v700h55v-700zM269 377q-53 0 -103 -6v-318q93 -3 99 -3q102 0 155.5 43t53.5 127q0 76 -52.5 116.5t-152.5 40.5zM111 700h55v-276q80 5 106 5q128 0 194 -54t66 -154q0 -107 -72 -165t-201 -58q-47 0 -80 1t-68 1v700z" />
    <glyph glyph-name="afii10046" unicode="&#x42c;" horiz-adv-x="596" 
d="M276 377q-60 0 -110 -6v-318q93 -3 106 -3q103 0 157.5 43.5t54.5 126.5q0 76 -53.5 116.5t-154.5 40.5zM111 700h55v-276q80 5 113 5q130 0 196.5 -54t66.5 -154q0 -107 -72.5 -165t-203.5 -58q-48 0 -83 1t-72 1v700z" />
    <glyph glyph-name="afii10047" unicode="&#x42d;" horiz-adv-x="680" 
d="M570 331h-372v52h372q-10 127 -92 200q-83 74 -214 74q-113 0 -187 -59l-23 41q79 70 222 70q158 0 254 -97q96 -96 96 -259q0 -159 -97 -260q-97 -102 -256 -102q-137 0 -232 73l25 45q93 -66 206 -66q129 0 209 79q81 78 89 209z" />
    <glyph glyph-name="afii10048" unicode="&#x42e;" horiz-adv-x="1076" 
d="M166 0h-55v700h55v-317h178q11 141 104 233q94 93 233 93q149 0 245 -101q96 -100 96 -258q0 -155 -96 -257t-245 -102q-141 0 -236 95q-94 96 -102 245h-177v-331zM401 350q0 -131 80 -220q79 -87 201 -87q128 0 204 87q78 87 78 220q0 134 -79 220q-80 87 -203 87
q-122 0 -202 -87q-79 -86 -79 -220z" />
    <glyph glyph-name="afii10049" unicode="&#x42f;" horiz-adv-x="615" 
d="M504 0h-55v274h-156l-199 -274h-63l208 282q-65 21 -108 73q-44 53 -44 124q0 98 67 161q68 63 195 63q6 0 80 -2q37 -1 75 -1v-700zM286 326h163v322q-84 3 -110 3q-92 0 -143 -46.5t-51 -122.5q0 -60 42 -104q43 -43 99 -52z" />
    <glyph glyph-name="afii10065" unicode="&#x430;" horiz-adv-x="459" 
d="M93 375l-14 43q67 41 143 41q88 0 127.5 -44t39.5 -136v-279h-52v69q-55 -75 -154 -75q-63 0 -101 36.5t-38 97.5q0 66 48 103q47 37 123 37t122 -34q0 70 -10 107q-8 36 -32.5 51t-75.5 18q-61 0 -126 -35zM199 43q84 0 138 71v75q-49 36 -117 36q-51 0 -86 -25t-35 -69
q0 -40 28 -64t72 -24z" />
    <glyph glyph-name="afii10066" unicode="&#x431;" horiz-adv-x="555" 
d="M435 710l29 -39q-23 -33 -56 -45q-41 -12 -87 -19q-52 -7 -94 -26q-115 -49 -129 -256h2q23 55 77 88.5t117 33.5q98 0 156 -61.5t58 -164.5q0 -95 -65 -163q-64 -67 -163 -67q-106 0 -171 74q-63 74 -63 203q0 296 165 363q42 17 93 25q60 10 86 19.5t45 34.5zM101 259
q0 -101 49 -160t128 -59q76 0 125 52q50 53 50 127q0 81 -46 130t-125 49q-72 0 -121 -42q-48 -42 -60 -97z" />
    <glyph glyph-name="afii10067" unicode="&#x432;" horiz-adv-x="481" 
d="M79 0v450q33 0 64 1q64 2 81 2q186 0 186 -116q0 -39 -24.5 -67.5t-66.5 -35.5v-2q108 -16 108 -108q0 -127 -201 -127q-13 0 -79 2q-33 1 -68 1zM239 207h-108v-159q78 -2 101 -2q140 0 140 83q0 78 -133 78zM230 404q-33 0 -99 -2v-152h119q49 0 77 21.5t28 57.5
q0 75 -125 75z" />
    <glyph glyph-name="afii10068" unicode="&#x433;" horiz-adv-x="353" 
d="M131 0h-52v450h271v-49h-219v-401z" />
    <glyph glyph-name="afii10069" unicode="&#x434;" horiz-adv-x="525" 
d="M59 -114h-49v163h56q26 33 46.5 107t26.5 167l7 127h287v-401h75v-163h-49v114h-400v-114zM195 401l-6 -98q-8 -92 -28 -160q-19 -66 -40 -94h260v352h-186z" />
    <glyph glyph-name="afii10070" unicode="&#x435;" horiz-adv-x="524" 
d="M435 95l17 -40q-61 -64 -166 -64q-108 0 -173 64q-66 65 -66 170q0 102 60 168q61 66 168 66q87 0 146 -56q58 -55 58 -147q0 -24 -3 -42h-371q3 -81 53 -127.5t131 -46.5q94 0 146 55zM270 410q-72 0 -116.5 -42t-51.5 -111h324q-1 71 -43 112t-113 41z" />
    <glyph glyph-name="afii10072" unicode="&#x436;" horiz-adv-x="655" 
d="M559 450h63l-180 -216l192 -234h-63l-187 234zM352 0h-52v450h52v-450zM21 0l189 234l-180 216h64l174 -216l-184 -234h-63z" />
    <glyph glyph-name="afii10073" unicode="&#x437;" horiz-adv-x="458" 
d="M218 -9q-46 0 -102 17q-53 16 -75 43l27 40q26 -24 65.5 -37.5t76.5 -13.5q63 0 101 25t38 67q0 35 -28 55t-76 20h-76v43h71q38 0 65 24t27 58q0 38 -30 58t-84 20q-79 0 -141 -50l-21 40q57 59 169 59q77 0 119.5 -31.5t42.5 -86.5q0 -79 -81 -108v-2q46 -4 72 -33.5
t26 -72.5q0 -62 -51 -98t-135 -36z" />
    <glyph glyph-name="afii10074" unicode="&#x438;" horiz-adv-x="562" 
d="M431 375l-300 -375h-52v450h52v-375l300 375h52v-450h-52v375z" />
    <glyph glyph-name="afii10075" unicode="&#x439;" horiz-adv-x="562" 
d="M431 375l-300 -375h-52v450h52v-375l300 375h52v-450h-52v375zM148 684h47q0 -37 26 -62.5t67 -25.5q39 0 64 25.5t25 62.5h47q0 -55 -38 -91.5t-98 -36.5q-64 0 -102 35.5t-38 92.5z" />
    <glyph glyph-name="afii10076" unicode="&#x43a;" horiz-adv-x="484" 
d="M379 450h67l-222 -215l240 -235h-70l-233 232zM131 0h-52v450h52v-450z" />
    <glyph glyph-name="afii10077" unicode="&#x43b;" horiz-adv-x="527" 
d="M448 0h-52v398h-190l-6 -98q-13 -190 -63 -252q-40 -52 -99 -52l-4 51q26 0 49 24q55 51 67 239l7 140h291v-450z" />
    <glyph glyph-name="afii10078" unicode="&#x43c;" horiz-adv-x="622" 
d="M131 0h-52v450h49l187 -251l180 251h47v-450h-52v371l-175 -243h-3l-181 243v-371z" />
    <glyph glyph-name="afii10079" unicode="&#x43d;" horiz-adv-x="554" 
d="M475 0h-52v204h-292v-204h-52v450h52v-197h292v197h52v-450z" />
    <glyph glyph-name="afii10080" unicode="&#x43e;" horiz-adv-x="567" 
d="M113 57q-66 66 -66 168t66 168t170 66t170 -66t66 -168t-66 -168t-170 -66t-170 66zM283 40q81 0 130 51q51 53 51 134t-51 133t-130 52q-78 0 -130 -52q-51 -52 -51 -133t51 -133t130 -52z" />
    <glyph glyph-name="afii10081" unicode="&#x43f;" horiz-adv-x="549" 
d="M470 0h-52v401h-287v-401h-52v450h391v-450z" />
    <glyph glyph-name="afii10082" unicode="&#x440;" horiz-adv-x="554" 
d="M131 -200h-52v650h52v-60q27 30 72.5 49.5t92.5 19.5q96 0 153 -63t57 -164q0 -105 -64 -173q-65 -68 -167 -68q-91 0 -144 38v-229zM282 410q-44 0 -85.5 -20t-65.5 -50v-259q62 -41 140 -41q80 0 130 53t50 136t-45 132t-124 49z" />
    <glyph glyph-name="afii10083" unicode="&#x441;" horiz-adv-x="490" 
d="M429 102l26 -38q-27 -35 -72.5 -54t-97.5 -19q-105 0 -172 64q-66 65 -66 170q0 99 64 166q65 68 160 68q116 0 175 -56l-25 -42q-53 49 -142 49q-72 0 -125 -53q-52 -52 -52 -132q0 -84 53 -135q53 -50 134 -50q87 0 140 62z" />
    <glyph glyph-name="afii10084" unicode="&#x442;" horiz-adv-x="436" 
d="M192 398h-179v52h410v-52h-179v-398h-52v398z" />
    <glyph glyph-name="afii10085" unicode="&#x443;" horiz-adv-x="481" 
d="M408 450h59l-182 -450q-49 -119 -85 -158q-36 -42 -84 -42q-37 0 -77 23l17 40q31 -15 53 -15q34 0 61 29.5t56 98.5l10 24l-222 450h62l154 -318l32 -70q1 4 25 72z" />
    <glyph glyph-name="afii10086" unicode="&#x444;" horiz-adv-x="665" 
d="M358 -200h-52v191h-15q-111 0 -178 65q-66 66 -66 169q0 96 66 165q67 69 177 69h16v241h52v-241h17q108 0 175 -67q67 -66 67 -167q0 -102 -65 -169q-65 -65 -177 -65h-17v-191zM102 225q0 -81 51 -134q53 -51 141 -51h12v370h-17q-86 0 -137 -53q-50 -53 -50 -132z
M375 410h-17v-370h13q89 0 140 50.5t51 134.5q0 77 -51 131q-49 54 -136 54z" />
    <glyph glyph-name="afii10087" unicode="&#x445;" horiz-adv-x="495" 
d="M393 450h61l-169 -218l179 -232h-64l-154 199l-154 -199h-61l179 230l-169 220h64l143 -186z" />
    <glyph glyph-name="afii10088" unicode="&#x446;" horiz-adv-x="559" 
d="M493 0h-414v450h52v-401h284v401h52v-401h75v-163h-49v114z" />
    <glyph glyph-name="afii10089" unicode="&#x447;" horiz-adv-x="475" 
d="M344 450h52v-450h-52v190q-56 -38 -135 -38q-158 0 -158 169v129h55v-125q0 -124 117 -124q71 0 121 36v213z" />
    <glyph glyph-name="afii10090" unicode="&#x448;" horiz-adv-x="705" 
d="M625 0h-546v450h52v-401h195v401h52v-401h195v401h52v-450z" />
    <glyph glyph-name="afii10091" unicode="&#x449;" horiz-adv-x="717" 
d="M651 0h-572v450h52v-401h195v401h52v-401h195v401h52v-401h75v-163h-49v114z" />
    <glyph glyph-name="afii10092" unicode="&#x44a;" horiz-adv-x="500" 
d="M142 401h-139v49h191v-151h87q178 0 178 -148q0 -70 -45.5 -110.5t-139.5 -40.5h-132v401zM272 250h-78v-201h77q70 0 101.5 25t31.5 76q0 100 -132 100z" />
    <glyph glyph-name="afii10093" unicode="&#x44b;" horiz-adv-x="621" 
d="M203 0h-124v450h52v-151h78q178 0 178 -148q0 -70 -45 -110.5t-139 -40.5zM200 250h-69v-201h68q71 0 102 25t31 76q0 100 -132 100zM542 0h-52v450h52v-450z" />
    <glyph glyph-name="afii10094" unicode="&#x44c;" horiz-adv-x="437" 
d="M211 0h-132v450h52v-151h87q178 0 178 -148q0 -70 -45.5 -110.5t-139.5 -40.5zM209 250h-78v-201h77q70 0 101.5 25t31.5 76q0 100 -132 100z" />
    <glyph glyph-name="afii10095" unicode="&#x44d;" horiz-adv-x="491" 
d="M390 208h-238v43h237q-7 75 -56.5 117t-126.5 42q-90 0 -146 -56l-23 39q29 30 75 48t93 18q106 0 171 -64q67 -64 67 -170q0 -100 -64 -167t-160 -67q-119 0 -177 55l25 39q51 -45 148 -45q73 0 121.5 46t53.5 122z" />
    <glyph glyph-name="afii10096" unicode="&#x44e;" horiz-adv-x="750" 
d="M134 0h-55v450h55v-194h114q11 92 71 146q61 57 154 57q101 0 165 -66q64 -65 64 -168t-64 -168q-64 -66 -165 -66q-95 0 -157 59q-62 60 -69 154h-113v-204zM352 356q-47 -50 -47 -131q0 -80 47 -132q48 -50 123 -50t122 50q47 52 47 132q0 81 -47 131q-47 51 -122 51
t-123 -51z" />
    <glyph glyph-name="afii10097" unicode="&#x44f;" horiz-adv-x="477" 
d="M264 450h134v-450h-52v168h-112l-129 -168h-64l142 180q-45 7 -76.5 42.5t-31.5 85.5q0 65 47 103.5t142 38.5zM130 307q0 -40 31 -65t66 -25h119v184h-91q-62 0 -93.5 -25.5t-31.5 -68.5z" />
    <glyph glyph-name="afii10071" unicode="&#x451;" horiz-adv-x="524" 
d="M435 95l17 -40q-61 -64 -166 -64q-108 0 -173 64q-66 65 -66 170q0 102 60 168q61 66 168 66q87 0 146 -56q58 -55 58 -147q0 -24 -3 -42h-371q3 -81 53 -127.5t131 -46.5q94 0 146 55zM270 410q-72 0 -116.5 -42t-51.5 -111h324q-1 71 -43 112t-113 41zM131 618
q0 15 9.5 24t24.5 9q12 0 21.5 -9.5t9.5 -23.5q0 -15 -9.5 -25t-21.5 -10q-15 0 -24.5 9.5t-9.5 25.5zM339 618q0 15 9.5 24t24.5 9q12 0 21.5 -9.5t9.5 -23.5q0 -15 -9.5 -25t-21.5 -10q-15 0 -24.5 9.5t-9.5 25.5z" />
    <glyph glyph-name="afii10099" unicode="&#x452;" horiz-adv-x="601" 
d="M143 482h-140v43h140v175h52v-175h198v-43h-198v-178q28 30 72 49t89 19q189 0 189 -201q0 -119 -46 -218q-47 -102 -132 -153h-59q97 62 140 158q45 96 45 200q0 165 -148 165q-43 0 -84.5 -19.5t-65.5 -49.5v-254h-52v482z" />
    <glyph glyph-name="afii10100" unicode="&#x453;" horiz-adv-x="353" 
d="M131 0h-52v450h271v-49h-219v-401zM293 716l40 -31l-116 -143l-32 23z" />
    <glyph glyph-name="afii10101" unicode="&#x454;" horiz-adv-x="490" 
d="M100 251h238v-43h-239q6 -78 58 -123t131 -45q87 0 138 45l22 -39q-58 -55 -169 -55q-102 0 -167 65q-65 67 -65 169q0 105 66 170q67 64 172 64q47 0 93 -18t75 -48l-23 -39q-56 56 -146 56q-76 0 -126 -42.5t-58 -116.5z" />
    <glyph glyph-name="afii10102" unicode="&#x455;" horiz-adv-x="418" 
d="M312 118q0 31 -25.5 50t-62 30t-73.5 24.5t-62.5 43t-25.5 74.5q0 54 40 86.5t105 32.5q93 0 141 -50l-22 -39q-46 43 -118 43q-40 0 -65.5 -20.5t-25.5 -51.5q0 -32 25.5 -52.5t62 -32t73.5 -24.5t62.5 -41t25.5 -71q0 -61 -45.5 -95t-116.5 -34q-44 0 -92 20
q-45 19 -62 45l29 34q19 -23 57 -38q39 -15 74 -15q44 0 72.5 21.5t28.5 59.5z" />
    <glyph glyph-name="afii10103" unicode="&#x456;" horiz-adv-x="261" 
d="M156 0h-52v450h52v-450zM95 625q0 15 11 24t26 9q13 0 23.5 -9.5t10.5 -23.5q0 -17 -9.5 -27t-24.5 -10q-16 0 -26.5 10t-10.5 27z" />
    <glyph glyph-name="afii10104" unicode="&#x457;" horiz-adv-x="276" 
d="M44 617q0 13 9 21.5t22 8.5q11 0 20 -8.5t9 -21.5q0 -14 -8.5 -22.5t-20.5 -8.5q-13 0 -22 8.5t-9 22.5zM173 617q0 13 9 21.5t22 8.5q12 0 20.5 -8.5t8.5 -21.5q0 -14 -8.5 -22.5t-20.5 -8.5q-13 0 -22 8.5t-9 22.5zM163 0h-52v450h52v-450z" />
    <glyph glyph-name="afii10105" unicode="&#x458;" horiz-adv-x="264" 
d="M107 450h52v-483q0 -175 -141 -175q-58 0 -92 28l16 42q31 -21 65 -21q100 0 100 130v479zM97 625q0 15 11 24t26 9q13 0 23.5 -9.5t10.5 -23.5q0 -17 -9.5 -27t-24.5 -10q-16 0 -26.5 10t-10.5 27z" />
    <glyph glyph-name="afii10106" unicode="&#x459;" horiz-adv-x="742" 
d="M516 0h-120v398h-190l-6 -98q-13 -190 -63 -252q-40 -52 -99 -52l-4 51q26 0 49 24q55 51 67 239l7 140h291v-151h75q178 0 178 -148q0 -70 -45.5 -110.5t-139.5 -40.5zM514 250h-66v-201h65q70 0 101.5 25t31.5 76q0 100 -132 100z" />
    <glyph glyph-name="afii10107" unicode="&#x45a;" horiz-adv-x="769" 
d="M131 0h-52v450h52v-183h292v183h52v-165h75q178 0 178 -141q0 -144 -185 -144h-120v218h-292v-218zM541 236h-66v-187h65q72 0 102.5 22.5t30.5 71.5q0 48 -31.5 70.5t-100.5 22.5z" />
    <glyph glyph-name="afii10108" unicode="&#x45b;" horiz-adv-x="601" 
d="M143 482h-140v43h140v175h52v-175h198v-43h-198v-178q28 30 72 49t89 19q189 0 189 -202v-170h-52v162q0 161 -148 161q-43 0 -84.5 -19.5t-65.5 -49.5v-254h-52v482z" />
    <glyph glyph-name="afii10109" unicode="&#x45c;" horiz-adv-x="484" 
d="M379 450h67l-222 -215l240 -235h-70l-233 232zM131 0h-52v450h52v-450zM311 716l40 -31l-116 -143l-32 23z" />
    <glyph glyph-name="afii10110" unicode="&#x45e;" horiz-adv-x="481" 
d="M408 450h59l-182 -450q-49 -119 -85 -158q-36 -42 -84 -42q-37 0 -77 23l17 40q31 -15 53 -15q34 0 61 29.5t56 98.5l10 24l-222 450h62l154 -318l32 -70q1 4 25 72zM108 684h47q0 -37 26 -62.5t67 -25.5q39 0 64 25.5t25 62.5h47q0 -55 -38 -91.5t-98 -36.5
q-64 0 -102 35.5t-38 92.5z" />
    <glyph glyph-name="afii10193" unicode="&#x45f;" horiz-adv-x="539" 
d="M245 0h-166v450h52v-401h277v401h52v-450h-166v-131h-49v131z" />
    <glyph glyph-name="afii10146" unicode="&#x462;" horiz-adv-x="632" 
d="M147 700h55v-116h165v-52h-165v-120q80 5 113 5q263 0 263 -202q0 -106 -71.5 -161.5t-204.5 -55.5q-48 0 -83 1t-72 1v532h-141v52h141v116zM312 365q-60 0 -110 -6v-306q90 -3 106 -3q212 0 212 164q0 151 -208 151z" />
    <glyph glyph-name="afii10194" unicode="&#x463;" horiz-adv-x="498" 
d="M142 401h-139v49h139v250h52v-250h160v-49h-160v-120h85q178 0 178 -143q0 -138 -185 -138h-130v401zM279 232h-85v-183h84q65 0 94.5 23t29.5 69q0 91 -123 91z" />
    <glyph glyph-name="afii10147" unicode="&#x472;" horiz-adv-x="810" 
d="M54 350q0 153 100 256t251 103q149 0 250 -102q101 -101 101 -257q0 -153 -101 -257q-101 -102 -250 -102q-150 0 -251 101q-100 101 -100 258zM274 372q-42 0 -86 -22q-44 -21 -73 -47q15 -113 96 -187q82 -73 194 -73q125 0 207 85q83 86 86 213q-80 -56 -154 -56
q-58 0 -137 43q-80 44 -133 44zM548 334q37 0 77.5 18t69.5 43q-15 114 -96 188q-82 74 -194 74q-123 0 -207 -85q-83 -86 -86 -214q79 63 164 63q58 0 138 -44q80 -43 134 -43z" />
    <glyph glyph-name="afii10195" unicode="&#x473;" horiz-adv-x="567" 
d="M113 57q-66 66 -66 168t66 168t170 66t170 -66t66 -168t-66 -168t-170 -66t-170 66zM185 238q-43 0 -83 -32q6 -73 56 -120q50 -46 125 -46q68 0 116 39t61 103q-35 -20 -70 -20q-39 0 -106 38t-99 38zM395 211q35 0 69 24q-5 77 -55 126q-49 49 -126 49q-69 0 -118 -41
t-60 -108q41 26 81 26q41 0 109 -38t100 -38z" />
    <glyph glyph-name="afii10148" unicode="&#x474;" horiz-adv-x="657" 
d="M535 508l-184 -514h-39l-301 706h59l263 -620l162 466q39 111 77 140q38 30 105 11l-9 -48q-48 18 -73 -13q-25 -30 -60 -128z" />
    <glyph glyph-name="afii10196" unicode="&#x475;" horiz-adv-x="479" 
d="M386 304l-121 -310h-36l-218 456h61l136 -283l40 -96l35 99l64 166q33 86 64 108t88 3l-9 -48q-32 17 -53.5 -4.5t-50.5 -90.5z" />
    <glyph glyph-name="afii10050" unicode="&#x490;" horiz-adv-x="503" 
d="M166 0h-55v700h334v131h52v-183h-331v-648z" />
    <glyph glyph-name="afii10098" unicode="&#x491;" horiz-adv-x="353" 
d="M131 0h-52v450h222v111h49v-160h-219v-401z" />
    <glyph glyph-name="uni1E9E" unicode="&#x1e9e;" horiz-adv-x="620" 
d="M505 164q0 51 -44 108q-17 21 -50 51q-26 24 -58 48q-41 31 -67 49l136 199q-43 38 -111 38q-67 0 -106 -40.5t-39 -118.5v-501h-55v504q0 100 55 154t148 54q102 0 177 -76l-139 -196q103 -71 157 -138t54 -142q0 -72 -50 -119t-114 -47q-86 0 -152 60l27 42l32 -26
q33 -24 81 -24q46 0 82 33q36 35 36 88z" />
    <glyph glyph-name="uni2010" unicode="&#x2010;" horiz-adv-x="399" 
d="M314 247h-229v49h229v-49z" />
    <glyph glyph-name="uni2011" unicode="&#x2011;" horiz-adv-x="399" 
d="M314 247h-229v49h229v-49z" />
    <glyph glyph-name="figuredash" unicode="&#x2012;" horiz-adv-x="590" 
d="M496 331h-402v46h402v-46z" />
    <glyph glyph-name="endash" unicode="&#x2013;" horiz-adv-x="590" 
d="M496 247h-402v46h402v-46z" />
    <glyph glyph-name="emdash" unicode="&#x2014;" horiz-adv-x="796" 
d="M702 247h-608v46h608v-46z" />
    <glyph glyph-name="afii00208" unicode="&#x2015;" horiz-adv-x="796" 
d="M702 247h-608v46h608v-46z" />
    <glyph glyph-name="quoteleft" unicode="&#x2018;" horiz-adv-x="238" 
d="M148 553l-43 -27q-26 29 -26 72q0 91 74 132l24 -24q-49 -31 -49 -96q0 -34 20 -57z" />
    <glyph glyph-name="quoteright" unicode="&#x2019;" horiz-adv-x="238" 
d="M90 701l43 28q26 -31 26 -73q0 -91 -74 -132l-24 25q49 28 49 96q0 36 -20 56z" />
    <glyph glyph-name="quotesinglbase" unicode="&#x201a;" horiz-adv-x="238" 
d="M90 36l43 28q26 -31 26 -73q0 -91 -74 -132l-24 25q49 28 49 96q0 36 -20 56z" />
    <glyph glyph-name="quotedblleft" unicode="&#x201c;" horiz-adv-x="369" 
d="M279 553l-43 -27q-26 29 -26 72q0 91 74 132l24 -24q-49 -31 -49 -96q0 -34 20 -57zM148 553l-43 -27q-26 29 -26 72q0 91 74 132l24 -24q-49 -31 -49 -96q0 -34 20 -57z" />
    <glyph glyph-name="quotedblright" unicode="&#x201d;" horiz-adv-x="369" 
d="M221 701l43 28q26 -31 26 -73q0 -91 -74 -132l-24 25q49 28 49 96q0 36 -20 56zM90 701l43 28q26 -31 26 -73q0 -91 -74 -132l-24 25q49 28 49 96q0 36 -20 56z" />
    <glyph glyph-name="quotedblbase" unicode="&#x201e;" horiz-adv-x="369" 
d="M221 36l43 28q26 -31 26 -73q0 -91 -74 -132l-24 25q49 28 49 96q0 36 -20 56zM90 36l43 28q26 -31 26 -73q0 -91 -74 -132l-24 25q49 28 49 96q0 36 -20 56z" />
    <glyph glyph-name="dagger" unicode="&#x2020;" horiz-adv-x="433" 
d="M192 422h-152v46h152v232h49v-232h152v-46h-152v-522h-49v522z" />
    <glyph glyph-name="daggerdbl" unicode="&#x2021;" horiz-adv-x="433" 
d="M192 422h-152v46h152v232h49v-232h152v-46h-152v-214h152v-46h-152v-262h-49v262h-152v46h152v214z" />
    <glyph glyph-name="bullet" unicode="&#x2022;" horiz-adv-x="186" 
d="M51 220q-17 18 -17 42t17 41q18 18 42 18t41 -18q18 -17 18 -41t-18 -42q-17 -17 -41 -17t-42 17z" />
    <glyph glyph-name="ellipsis" unicode="&#x2026;" horiz-adv-x="840" 
d="M682 38q0 15 11.5 25.5t28.5 10.5q15 0 25.5 -11t10.5 -25q0 -16 -10.5 -28t-25.5 -12q-17 0 -28.5 12t-11.5 28zM382 38q0 15 11.5 25.5t28.5 10.5q15 0 25.5 -11t10.5 -25q0 -16 -10.5 -28t-25.5 -12q-17 0 -28.5 12t-11.5 28zM82 38q0 15 11.5 25.5t28.5 10.5
q15 0 25.5 -11t10.5 -25q0 -16 -10.5 -28t-25.5 -12q-17 0 -28.5 12t-11.5 28z" />
    <glyph glyph-name="perthousand" unicode="&#x2030;" horiz-adv-x="1264" 
d="M918 42q-49 46 -49 117t49 116q49 46 123 46t123 -46q49 -45 49 -116t-49 -117t-123 -46t-123 46zM918 159q0 -53 36 -87q38 -33 87 -33q52 0 87.5 34t35.5 86t-37 85q-35 34 -86 34q-50 0 -87 -34q-36 -33 -36 -85zM182 -9l-31 22l521 696l31 -22zM100 425
q-49 46 -49 117t49 116q49 46 123 46t123 -46q49 -45 49 -116t-49 -117t-123 -46t-123 46zM100 542q0 -52 36 -87q38 -33 87 -33q52 0 87.5 34t35.5 86t-37 85q-35 34 -86 34q-50 0 -87 -34q-36 -33 -36 -85zM504 42q-49 46 -49 117t49 116q49 46 123 46t123 -46
q49 -45 49 -116t-49 -117t-123 -46t-123 46zM504 159q0 -53 36 -87q38 -33 87 -33q52 0 87.5 34t35.5 86t-37 85q-35 34 -86 34q-50 0 -87 -34q-36 -33 -36 -85z" />
    <glyph glyph-name="guilsinglleft" unicode="&#x2039;" horiz-adv-x="332" 
d="M265 69l-34 -32l-180 211v4l182 209l34 -30l-156 -181z" />
    <glyph glyph-name="guilsinglright" unicode="&#x203a;" horiz-adv-x="332" 
d="M281 252v-4l-180 -211l-35 32l155 181l-156 181l34 30z" />
    <glyph glyph-name="fraction" unicode="&#x2044;" horiz-adv-x="192" 
d="M-149 -9l-31 22l521 696l31 -22z" />
    <glyph glyph-name="uni2070" unicode="&#x2070;" horiz-adv-x="373" 
d="M44 525q0 81 37.5 130t104.5 49q68 0 106 -50q37 -49 37 -129t-37 -129q-36 -50 -105 -50q-68 0 -105.5 48.5t-37.5 130.5zM187 386q93 0 93 139q0 66 -24 102q-24 37 -70 37t-70 -37q-23 -38 -23 -102q0 -65 25 -102t69 -37z" />
    <glyph glyph-name="uni2074" unicode="&#x2074;" horiz-adv-x="337" 
d="M255 350h-43v87h-195v29l179 234h45l-175 -226h146v101h43v-101h62v-37h-62v-87z" />
    <glyph glyph-name="uni2075" unicode="&#x2075;" horiz-adv-x="329" 
d="M71 524l23 176h194v-37h-162l-16 -104q24 7 50 7q59 0 94.5 -28.5t35.5 -76.5q0 -52 -37.5 -84t-95.5 -32q-93 0 -130 58l26 25q31 -46 97 -46q40 0 65.5 21.5t25.5 55.5q0 33 -28.5 53t-76.5 20q-39 0 -65 -8z" />
    <glyph glyph-name="uni2076" unicode="&#x2076;" horiz-adv-x="369" 
d="M42 478q0 90 67 154t157 73l10 -32q-70 -10 -120 -53t-64 -109q16 24 45.5 39.5t66.5 15.5q57 0 91.5 -30t34.5 -78t-40 -81q-40 -32 -95 -32q-72 0 -112.5 37t-40.5 96zM91 472q1 -38 29 -64t75 -26q36 0 61 22t25 52q0 34 -24.5 55t-66.5 21q-35 0 -62 -17.5t-37 -42.5
z" />
    <glyph glyph-name="uni2077" unicode="&#x2077;" horiz-adv-x="300" 
d="M225 660h-205v40h259v-27l-160 -323h-51z" />
    <glyph glyph-name="uni2078" unicode="&#x2078;" horiz-adv-x="379" 
d="M181 547h17q30 0 52 17.5t22 42.5q0 26 -24.5 43.5t-58.5 17.5t-58 -17t-24 -44q0 -25 22 -42.5t52 -17.5zM198 513h-15q-37 0 -63.5 -18.5t-26.5 -45.5q0 -30 27 -48.5t69 -18.5t69.5 18.5t27.5 48.5q0 29 -25 46.5t-63 17.5zM47 441q0 32 22 56t60 32v2q-30 8 -49 31
t-19 52q0 41 36 66t92 25q57 0 93 -25t36 -66q0 -28 -19 -50.5t-52 -32.5v-1q38 -5 61.5 -28.5t23.5 -57.5q0 -45 -40 -72t-102 -27t-102.5 26.5t-40.5 69.5z" />
    <glyph glyph-name="uni2079" unicode="&#x2079;" horiz-adv-x="369" 
d="M326 567q0 -94 -65 -156q-65 -61 -165 -66l-7 33q79 7 132 53q54 47 55 108q-13 -26 -43 -42t-68 -16q-56 0 -91 30.5t-35 78.5q0 50 39 82q39 33 95 33q74 0 113.5 -37t39.5 -101zM277 575q-1 40 -28.5 66.5t-74.5 26.5q-36 0 -61 -22t-25 -52q0 -34 24.5 -56.5
t65.5 -22.5q36 0 62.5 17.5t36.5 42.5z" />
    <glyph glyph-name="uni207A" unicode="&#x207a;" horiz-adv-x="360" 
d="M160 511h-113v37h113v113h37v-113h116v-37h-116v-113h-37v113z" />
    <glyph glyph-name="uni207B" unicode="&#x207b;" horiz-adv-x="360" 
d="M313 511h-266v37h266v-37z" />
    <glyph glyph-name="uni207C" unicode="&#x207c;" horiz-adv-x="360" 
d="M313 445h-266v37h266v-37zM313 577h-266v37h266v-37z" />
    <glyph glyph-name="uni207D" unicode="&#x207d;" horiz-adv-x="195" 
d="M185 334l-28 -27q-63 35 -95 93t-32 123q0 131 128 215l25 -26q-107 -74 -107 -189q0 -57 29 -107t80 -82z" />
    <glyph glyph-name="uni207E" unicode="&#x207e;" horiz-adv-x="195" 
d="M10 711l28 27q63 -35 95 -93t32 -123q0 -129 -128 -215l-25 26q107 72 107 189q0 57 -28 106.5t-81 82.5z" />
    <glyph glyph-name="uni2080" unicode="&#x2080;" horiz-adv-x="373" 
d="M44 175q0 81 37.5 130t104.5 49q68 0 106 -50q37 -49 37 -129t-37 -129q-36 -50 -105 -50q-68 0 -105.5 48.5t-37.5 130.5zM187 36q93 0 93 139q0 66 -24 102q-24 37 -70 37t-70 -37q-23 -38 -23 -102q0 -65 25 -102t69 -37z" />
    <glyph glyph-name="uni2081" unicode="&#x2081;" horiz-adv-x="239" 
d="M46 253l-19 32l99 67h32v-352h-46v297z" />
    <glyph glyph-name="uni2082" unicode="&#x2082;" horiz-adv-x="339" 
d="M307 0h-268v34l31 22l40 28q4 4 35 28q26 19 38 33l27 32q29 32 29 69q0 30 -20 49t-54 19q-30 0 -54 -17.5t-28 -45.5l-40 13q7 41 42 65.5t83 24.5q58 0 89 -28.5t31 -75.5q0 -99 -187 -210h206v-40z" />
    <glyph glyph-name="uni2083" unicode="&#x2083;" horiz-adv-x="342" 
d="M164 -5q-100 0 -133 67l28 24q13 -24 40 -38t60 -14q41 0 65.5 18.5t24.5 48.5q0 26 -22.5 43t-59.5 17h-36v34h32q29 0 50 18.5t21 45.5t-20.5 42t-55.5 15q-66 0 -92 -48l-24 25q32 62 125 62q54 0 85 -23.5t31 -64.5q0 -29 -19 -52t-52 -33v-1q39 -4 62.5 -27.5
t23.5 -56.5q0 -45 -38 -73.5t-96 -28.5z" />
    <glyph glyph-name="uni2084" unicode="&#x2084;" horiz-adv-x="337" 
d="M255 0h-43v87h-195v29l179 234h45l-175 -226h146v101h43v-101h62v-37h-62v-87z" />
    <glyph glyph-name="uni2085" unicode="&#x2085;" horiz-adv-x="329" 
d="M71 174l23 176h194v-37h-162l-16 -104q24 7 50 7q59 0 94.5 -28.5t35.5 -76.5q0 -52 -37.5 -84t-95.5 -32q-93 0 -130 58l26 25q31 -46 97 -46q40 0 65.5 21.5t25.5 55.5q0 33 -28.5 53t-76.5 20q-39 0 -65 -8z" />
    <glyph glyph-name="uni2086" unicode="&#x2086;" horiz-adv-x="369" 
d="M42 128q0 90 67 154t157 73l10 -32q-70 -10 -120 -53t-64 -109q16 24 45.5 39.5t66.5 15.5q57 0 91.5 -30t34.5 -78t-40 -81q-40 -32 -95 -32q-72 0 -112.5 37t-40.5 96zM91 122q1 -38 29 -64t75 -26q36 0 61 22t25 52q0 34 -24.5 55t-66.5 21q-35 0 -62 -17.5t-37 -42.5
z" />
    <glyph glyph-name="uni2087" unicode="&#x2087;" horiz-adv-x="300" 
d="M225 310h-205v40h259v-27l-160 -323h-51z" />
    <glyph glyph-name="uni2088" unicode="&#x2088;" horiz-adv-x="379" 
d="M181 197h17q30 0 52 17.5t22 42.5q0 26 -24.5 43.5t-58.5 17.5t-58 -17t-24 -44q0 -25 22 -42.5t52 -17.5zM198 163h-15q-37 0 -63.5 -18.5t-26.5 -45.5q0 -30 27 -48.5t69 -18.5t69.5 18.5t27.5 48.5q0 29 -25 46.5t-63 17.5zM47 91q0 32 22 56t60 32v2q-30 8 -49 31
t-19 52q0 41 36 66t92 25q57 0 93 -25t36 -66q0 -28 -19 -50.5t-52 -32.5v-1q38 -5 61.5 -28.5t23.5 -57.5q0 -45 -40 -72t-102 -27t-102.5 26.5t-40.5 69.5z" />
    <glyph glyph-name="uni2089" unicode="&#x2089;" horiz-adv-x="369" 
d="M326 217q0 -94 -65 -156q-65 -61 -165 -66l-7 33q79 7 132 53q54 47 55 108q-13 -26 -43 -42t-68 -16q-56 0 -91 30.5t-35 78.5q0 50 39 82q39 33 95 33q74 0 113.5 -37t39.5 -101zM277 225q-1 40 -28.5 66.5t-74.5 26.5q-36 0 -61 -22t-25 -52q0 -34 24.5 -56.5
t65.5 -22.5q36 0 62.5 17.5t36.5 42.5z" />
    <glyph glyph-name="uni208A" unicode="&#x208a;" horiz-adv-x="360" 
d="M160 161h-113v37h113v113h37v-113h116v-37h-116v-113h-37v113z" />
    <glyph glyph-name="uni208B" unicode="&#x208b;" horiz-adv-x="360" 
d="M313 161h-266v37h266v-37z" />
    <glyph glyph-name="uni208C" unicode="&#x208c;" horiz-adv-x="360" 
d="M313 95h-266v37h266v-37zM313 227h-266v37h266v-37z" />
    <glyph glyph-name="uni208D" unicode="&#x208d;" horiz-adv-x="195" 
d="M185 -16l-28 -27q-63 35 -95 93t-32 123q0 131 128 215l25 -26q-107 -74 -107 -189q0 -57 29 -107t80 -82z" />
    <glyph glyph-name="uni208E" unicode="&#x208e;" horiz-adv-x="195" 
d="M10 361l28 27q63 -35 95 -93t32 -123q0 -129 -128 -215l-25 26q107 72 107 189q0 57 -28 106.5t-81 82.5z" />
    <glyph glyph-name="Euro" unicode="&#x20ac;" horiz-adv-x="589" 
d="M102 420h-83l17 43h76q32 111 116 178q86 68 207 68q82 0 137 -29l-20 -48q-49 25 -116 25q-95 0 -165 -52t-99 -142h335l-15 -43h-331q-6 -34 -6 -70q0 -28 3 -53h302l-14 -43h-279q26 -98 101 -155q77 -56 180 -56q65 0 104 21l10 -51q-35 -22 -118 -22q-129 0 -220 70
q-90 70 -117 193h-87l17 43h63q-3 25 -3 53t5 70z" />
    <glyph glyph-name="uni20B4" unicode="&#x20b4;" horiz-adv-x="600" 
d="M357 421h-280v43h315q29 46 28 94q-1 42 -34 70.5t-81 28.5q-90 0 -147 -57l-27 39q61 70 174 70q80 0 127 -40.5t47 -107.5q0 -54 -35 -97h79v-43h-107q-28 -28 -87 -64q-63 -39 -84 -59h278v-43h-317q-39 -41 -39 -96q0 -53 41.5 -84.5t104.5 -31.5q102 0 157 79
l29 -36q-30 -46 -80.5 -70.5t-113.5 -24.5q-80 0 -135 43t-55 117q0 58 38 104h-76v43h108q29 27 86 62q65 41 86 61z" />
    <glyph glyph-name="uni20B6" unicode="&#x20b6;" horiz-adv-x="600" 
d="M136 317h-112v43h112v340q41 0 85 1t86 1q249 0 249 -193q0 -89 -63.5 -140.5t-185.5 -51.5h-116v-123h181v-43h-181v-151h-55v151h-112v43h112v123zM312 650q-33 0 -121 -2v-288h114q95 0 144 37.5t49 107.5q0 145 -186 145z" />
    <glyph glyph-name="uni20B6" unicode="&#x20cf;" horiz-adv-x="600" 
d="M136 317h-112v43h112v340q41 0 85 1t86 1q249 0 249 -193q0 -89 -63.5 -140.5t-185.5 -51.5h-116v-123h181v-43h-181v-151h-55v151h-112v43h112v123zM312 650q-33 0 -121 -2v-288h114q95 0 144 37.5t49 107.5q0 145 -186 145z" />
    <glyph glyph-name="uni20B6" unicode="&#x20ce;" horiz-adv-x="600" 
d="M136 317h-112v43h112v340q41 0 85 1t86 1q249 0 249 -193q0 -89 -63.5 -140.5t-185.5 -51.5h-116v-123h181v-43h-181v-151h-55v151h-112v43h112v123zM312 650q-33 0 -121 -2v-288h114q95 0 144 37.5t49 107.5q0 145 -186 145z" />
    <glyph glyph-name="uni20B6" unicode="&#x20cd;" horiz-adv-x="600" 
d="M136 317h-112v43h112v340q41 0 85 1t86 1q249 0 249 -193q0 -89 -63.5 -140.5t-185.5 -51.5h-116v-123h181v-43h-181v-151h-55v151h-112v43h112v123zM312 650q-33 0 -121 -2v-288h114q95 0 144 37.5t49 107.5q0 145 -186 145z" />
    <glyph glyph-name="uni20B6" unicode="&#x20cc;" horiz-adv-x="600" 
d="M136 317h-112v43h112v340q41 0 85 1t86 1q249 0 249 -193q0 -89 -63.5 -140.5t-185.5 -51.5h-116v-123h181v-43h-181v-151h-55v151h-112v43h112v123zM312 650q-33 0 -121 -2v-288h114q95 0 144 37.5t49 107.5q0 145 -186 145z" />
    <glyph glyph-name="uni20B6" unicode="&#x20cb;" horiz-adv-x="600" 
d="M136 317h-112v43h112v340q41 0 85 1t86 1q249 0 249 -193q0 -89 -63.5 -140.5t-185.5 -51.5h-116v-123h181v-43h-181v-151h-55v151h-112v43h112v123zM312 650q-33 0 -121 -2v-288h114q95 0 144 37.5t49 107.5q0 145 -186 145z" />
    <glyph glyph-name="uni20B6" unicode="&#x20ca;" horiz-adv-x="600" 
d="M136 317h-112v43h112v340q41 0 85 1t86 1q249 0 249 -193q0 -89 -63.5 -140.5t-185.5 -51.5h-116v-123h181v-43h-181v-151h-55v151h-112v43h112v123zM312 650q-33 0 -121 -2v-288h114q95 0 144 37.5t49 107.5q0 145 -186 145z" />
    <glyph glyph-name="uni20B6" unicode="&#x20c9;" horiz-adv-x="600" 
d="M136 317h-112v43h112v340q41 0 85 1t86 1q249 0 249 -193q0 -89 -63.5 -140.5t-185.5 -51.5h-116v-123h181v-43h-181v-151h-55v151h-112v43h112v123zM312 650q-33 0 -121 -2v-288h114q95 0 144 37.5t49 107.5q0 145 -186 145z" />
    <glyph glyph-name="uni20B6" unicode="&#x20c8;" horiz-adv-x="600" 
d="M136 317h-112v43h112v340q41 0 85 1t86 1q249 0 249 -193q0 -89 -63.5 -140.5t-185.5 -51.5h-116v-123h181v-43h-181v-151h-55v151h-112v43h112v123zM312 650q-33 0 -121 -2v-288h114q95 0 144 37.5t49 107.5q0 145 -186 145z" />
    <glyph glyph-name="uni20B6" unicode="&#x20c7;" horiz-adv-x="600" 
d="M136 317h-112v43h112v340q41 0 85 1t86 1q249 0 249 -193q0 -89 -63.5 -140.5t-185.5 -51.5h-116v-123h181v-43h-181v-151h-55v151h-112v43h112v123zM312 650q-33 0 -121 -2v-288h114q95 0 144 37.5t49 107.5q0 145 -186 145z" />
    <glyph glyph-name="uni20B6" unicode="&#x20c6;" horiz-adv-x="600" 
d="M136 317h-112v43h112v340q41 0 85 1t86 1q249 0 249 -193q0 -89 -63.5 -140.5t-185.5 -51.5h-116v-123h181v-43h-181v-151h-55v151h-112v43h112v123zM312 650q-33 0 -121 -2v-288h114q95 0 144 37.5t49 107.5q0 145 -186 145z" />
    <glyph glyph-name="uni20B6" unicode="&#x20c5;" horiz-adv-x="600" 
d="M136 317h-112v43h112v340q41 0 85 1t86 1q249 0 249 -193q0 -89 -63.5 -140.5t-185.5 -51.5h-116v-123h181v-43h-181v-151h-55v151h-112v43h112v123zM312 650q-33 0 -121 -2v-288h114q95 0 144 37.5t49 107.5q0 145 -186 145z" />
    <glyph glyph-name="uni20B6" unicode="&#x20c4;" horiz-adv-x="600" 
d="M136 317h-112v43h112v340q41 0 85 1t86 1q249 0 249 -193q0 -89 -63.5 -140.5t-185.5 -51.5h-116v-123h181v-43h-181v-151h-55v151h-112v43h112v123zM312 650q-33 0 -121 -2v-288h114q95 0 144 37.5t49 107.5q0 145 -186 145z" />
    <glyph glyph-name="uni20B6" unicode="&#x20c3;" horiz-adv-x="600" 
d="M136 317h-112v43h112v340q41 0 85 1t86 1q249 0 249 -193q0 -89 -63.5 -140.5t-185.5 -51.5h-116v-123h181v-43h-181v-151h-55v151h-112v43h112v123zM312 650q-33 0 -121 -2v-288h114q95 0 144 37.5t49 107.5q0 145 -186 145z" />
    <glyph glyph-name="uni20B6" unicode="&#x20c2;" horiz-adv-x="600" 
d="M136 317h-112v43h112v340q41 0 85 1t86 1q249 0 249 -193q0 -89 -63.5 -140.5t-185.5 -51.5h-116v-123h181v-43h-181v-151h-55v151h-112v43h112v123zM312 650q-33 0 -121 -2v-288h114q95 0 144 37.5t49 107.5q0 145 -186 145z" />
    <glyph glyph-name="uni20B6" unicode="&#x20c1;" horiz-adv-x="600" 
d="M136 317h-112v43h112v340q41 0 85 1t86 1q249 0 249 -193q0 -89 -63.5 -140.5t-185.5 -51.5h-116v-123h181v-43h-181v-151h-55v151h-112v43h112v123zM312 650q-33 0 -121 -2v-288h114q95 0 144 37.5t49 107.5q0 145 -186 145z" />
    <glyph glyph-name="uni20B6" unicode="&#x20c0;" horiz-adv-x="600" 
d="M136 317h-112v43h112v340q41 0 85 1t86 1q249 0 249 -193q0 -89 -63.5 -140.5t-185.5 -51.5h-116v-123h181v-43h-181v-151h-55v151h-112v43h112v123zM312 650q-33 0 -121 -2v-288h114q95 0 144 37.5t49 107.5q0 145 -186 145z" />
    <glyph glyph-name="uni20B6" unicode="&#x20bf;" horiz-adv-x="600" 
d="M136 317h-112v43h112v340q41 0 85 1t86 1q249 0 249 -193q0 -89 -63.5 -140.5t-185.5 -51.5h-116v-123h181v-43h-181v-151h-55v151h-112v43h112v123zM312 650q-33 0 -121 -2v-288h114q95 0 144 37.5t49 107.5q0 145 -186 145z" />
    <glyph glyph-name="uni20B6" unicode="&#x20be;" horiz-adv-x="600" 
d="M136 317h-112v43h112v340q41 0 85 1t86 1q249 0 249 -193q0 -89 -63.5 -140.5t-185.5 -51.5h-116v-123h181v-43h-181v-151h-55v151h-112v43h112v123zM312 650q-33 0 -121 -2v-288h114q95 0 144 37.5t49 107.5q0 145 -186 145z" />
    <glyph glyph-name="uni20B6" unicode="&#x20bd;" horiz-adv-x="600" 
d="M136 317h-112v43h112v340q41 0 85 1t86 1q249 0 249 -193q0 -89 -63.5 -140.5t-185.5 -51.5h-116v-123h181v-43h-181v-151h-55v151h-112v43h112v123zM312 650q-33 0 -121 -2v-288h114q95 0 144 37.5t49 107.5q0 145 -186 145z" />
    <glyph glyph-name="uni20B6" unicode="&#x20bc;" horiz-adv-x="600" 
d="M136 317h-112v43h112v340q41 0 85 1t86 1q249 0 249 -193q0 -89 -63.5 -140.5t-185.5 -51.5h-116v-123h181v-43h-181v-151h-55v151h-112v43h112v123zM312 650q-33 0 -121 -2v-288h114q95 0 144 37.5t49 107.5q0 145 -186 145z" />
    <glyph glyph-name="uni20B6" unicode="&#x20bb;" horiz-adv-x="600" 
d="M136 317h-112v43h112v340q41 0 85 1t86 1q249 0 249 -193q0 -89 -63.5 -140.5t-185.5 -51.5h-116v-123h181v-43h-181v-151h-55v151h-112v43h112v123zM312 650q-33 0 -121 -2v-288h114q95 0 144 37.5t49 107.5q0 145 -186 145z" />
    <glyph glyph-name="uni20B6" unicode="&#x20ba;" horiz-adv-x="600" 
d="M136 317h-112v43h112v340q41 0 85 1t86 1q249 0 249 -193q0 -89 -63.5 -140.5t-185.5 -51.5h-116v-123h181v-43h-181v-151h-55v151h-112v43h112v123zM312 650q-33 0 -121 -2v-288h114q95 0 144 37.5t49 107.5q0 145 -186 145z" />
    <glyph glyph-name="uni20B6" unicode="&#x20b9;" horiz-adv-x="600" 
d="M136 317h-112v43h112v340q41 0 85 1t86 1q249 0 249 -193q0 -89 -63.5 -140.5t-185.5 -51.5h-116v-123h181v-43h-181v-151h-55v151h-112v43h112v123zM312 650q-33 0 -121 -2v-288h114q95 0 144 37.5t49 107.5q0 145 -186 145z" />
    <glyph glyph-name="uni20B6" unicode="&#x20b7;" horiz-adv-x="600" 
d="M136 317h-112v43h112v340q41 0 85 1t86 1q249 0 249 -193q0 -89 -63.5 -140.5t-185.5 -51.5h-116v-123h181v-43h-181v-151h-55v151h-112v43h112v123zM312 650q-33 0 -121 -2v-288h114q95 0 144 37.5t49 107.5q0 145 -186 145z" />
    <glyph glyph-name="afii61352" unicode="&#x2116;" horiz-adv-x="1166" 
d="M666 700v-700h-44l-459 602v-602h-52v700h44l459 -604v604h52zM797 379q-49 46 -49 117t49 116q49 46 123 46t123 -46q49 -45 49 -116t-49 -117t-123 -46t-123 46zM797 496q0 -52 36 -87q37 -33 87 -33q52 0 87.5 34t35.5 86t-37 85q-35 34 -86 34q-50 0 -87 -34
q-36 -33 -36 -85zM1059 217h-278v49h278v-49z" />
    <glyph glyph-name="trademark" unicode="&#x2122;" horiz-adv-x="832" 
d="M431 385h-49v315h45l144 -165l138 165h44v-315h-50v252l-133 -160h-2l-137 160v-252zM145 652h-132v48h314v-48h-133v-267h-49v267z" />
    <glyph glyph-name="arrowleft" unicode="&#x2190;" horiz-adv-x="643" 
d="M40 273l283 282l37 -36l-220 -219h463v-52h-464l221 -221l-37 -37z" />
    <glyph glyph-name="arrowup" unicode="&#x2191;" horiz-adv-x="645" 
d="M296 463l-219 -220l-37 37l282 283l283 -283l-36 -37l-221 221v-464h-52v463z" />
    <glyph glyph-name="arrowright" unicode="&#x2192;" horiz-adv-x="643" 
d="M503 300l-220 219l37 36l283 -282l-283 -283l-37 37l221 221h-464v52h463z" />
    <glyph glyph-name="arrowdown" unicode="&#x2193;" horiz-adv-x="645" 
d="M322 -20l-282 283l37 37l219 -220v463h52v-464l221 221l36 -37z" />
    <glyph glyph-name="partialdiff" unicode="&#x2202;" horiz-adv-x="583" 
d="M47 203q0 106 70 180q70 76 175 76q69 0 119 -32t69 -79q0 129 -67 215q-68 89 -211 99l8 47q154 -7 239 -104q86 -97 86 -259q0 -142 -74 -249q-73 -106 -201 -106q-93 0 -153 60t-60 152zM102 207q0 -69 45 -119q47 -48 119 -48q90 0 145 76q57 76 66 177
q-55 117 -183 117q-80 0 -136 -60q-56 -61 -56 -143z" />
    <glyph glyph-name="product" unicode="&#x220f;" horiz-adv-x="878" 
d="M767 -200h-55v848h-546v-848h-55v900h656v-900z" />
    <glyph glyph-name="summation" unicode="&#x2211;" horiz-adv-x="629" 
d="M40 -165l313 415l-313 415v35h549v-52h-470l298 -398l-301 -398h473v-52h-549v35z" />
    <glyph glyph-name="minus" unicode="&#x2212;" horiz-adv-x="589" 
d="M517 337h-446v46h446v-46z" />
    <glyph glyph-name="uni2215" unicode="&#x2215;" horiz-adv-x="317" 
d="M12 -208l-42 16l336 901l41 -15z" />
    <glyph glyph-name="radical" unicode="&#x221a;" horiz-adv-x="587" 
d="M114 398h-111v52h147l182 -362l137 612h266v-52h-220l-150 -654h-42z" />
    <glyph glyph-name="infinity" unicode="&#x221e;" horiz-adv-x="738" 
d="M543 195q-50 0 -90 27t-85 83q-41 -57 -78 -83.5t-87 -26.5q-57 0 -103 40t-46 106q0 61 43 104q44 44 109 44q45 0 81 -26t81 -84q40 56 79 83t95 27q65 0 103.5 -42.5t38.5 -109.5q0 -55 -38 -99q-37 -43 -103 -43zM533 443q-40 0 -71 -23.5t-67 -75.5q42 -55 73.5 -79
t70.5 -24q43 0 69.5 29t26.5 68q0 46 -27.5 75.5t-74.5 29.5zM207 241q40 0 69.5 23t64.5 75q-27 37 -42 53q-17 20 -42 35.5t-48 15.5q-46 0 -76 -29.5t-30 -72.5q0 -45 33 -73q33 -27 71 -27z" />
    <glyph glyph-name="integral" unicode="&#x222b;" horiz-adv-x="335" 
d="M145 514v-537q0 -166 -109 -182q-20 -2 -47 -2q-46 3 -77 27l16 42q32 -21 65 -21q100 0 100 138v544q0 163 123 183q24 4 48 1q61 -2 101 -36l-20 -40q-35 26 -80 28q-37 1 -63 -12q-57 -29 -57 -133z" />
    <glyph glyph-name="approxequal" unicode="&#x2248;" horiz-adv-x="589" 
d="M82 236l-25 34q64 64 128 64q42 0 117 -37q76 -36 114 -36q47 0 93 46l22 -36q-59 -56 -116 -56q-41 0 -116 36q-74 37 -112 37q-53 0 -105 -52zM82 408l-25 34q64 64 128 64q42 0 117 -37q76 -36 114 -36q47 0 93 46l22 -36q-59 -56 -116 -56q-41 0 -116 36
q-74 37 -112 37q-53 0 -105 -52z" />
    <glyph glyph-name="notequal" unicode="&#x2260;" horiz-adv-x="589" 
d="M290 423h-219v46h236l90 240l41 -15l-84 -225h163v-46h-180l-47 -126h227v-46h-244l-96 -260l-42 15l91 245h-155v46h172z" />
    <glyph glyph-name="lessequal" unicode="&#x2264;" horiz-adv-x="589" 
d="M484 3l-420 262v50l420 -261v-51zM484 232v-57l-420 262v22l420 260v-57l-347 -214z" />
    <glyph glyph-name="greaterequal" unicode="&#x2265;" horiz-adv-x="589" 
d="M105 54l419 261v-50l-419 -262v51zM524 459v-22l-419 -262v57l347 216l-347 214v57z" />
    <glyph glyph-name="lozenge" unicode="&#x25ca;" horiz-adv-x="470" 
d="M254 -6h-39l-167 255l168 268h39l167 -257zM235 464l-134 -214l134 -205l134 215z" />
    <glyph glyph-name="spade" unicode="&#x2660;" horiz-adv-x="632" 
d="M316 510q88 -55 172 -151t84 -160q0 -44 -31 -74t-86 -30q-78 0 -131 72q29 -120 107 -167h-230q74 53 105 164q-51 -69 -129 -69q-55 0 -86 30t-31 75q0 63 84 159t172 151z" />
    <glyph glyph-name="club" unicode="&#x2663;" horiz-adv-x="612" 
d="M177 381q0 53 38 91t91 38t91 -38t38 -91q0 -3 -2 -19q51 -5 84 -41q35 -38 35 -87q0 -53 -38 -91t-91 -38q-66 0 -104 53q31 -114 102 -158h-230q62 43 100 156q-41 -51 -102 -51q-53 0 -91 38t-38 91q0 50 34 87q33 36 84 41q-1 4 -1 19z" />
    <glyph glyph-name="heart" unicode="&#x2665;" horiz-adv-x="649" 
d="M325 0q-95 72 -179 181q-86 113 -86 189q0 56 31.5 93t89.5 37q88 0 144 -104q54 104 143 104q57 0 89 -36.5t32 -92.5q0 -76 -86 -189q-87 -113 -178 -182z" />
    <glyph glyph-name="diamond" unicode="&#x2666;" horiz-adv-x="583" 
d="M523 249q-109 -109 -232 -268q-102 134 -231 268q106 110 231 269q124 -158 232 -269z" />
    <glyph glyph-name="uniF350" unicode="&#xf350;" horiz-adv-x="574" 
d="M73 0h-56l247 529h46l247 -529h-59l-77 167h-271zM397 218l-112 243l-112 -243h224z" />
    <glyph glyph-name="uniF351" unicode="&#xf351;" horiz-adv-x="507" 
d="M89 0v525h327v-52h-272v-161q36 4 98 4q100 0 153 -40t53 -113q0 -81 -56.5 -123.5t-161.5 -42.5q-13 0 -79 2q-32 1 -62 1zM237 265q-54 0 -93 -4v-210q22 0 42 -1q21 -1 50 -1q157 0 157 112q0 104 -156 104z" />
    <glyph glyph-name="uniF352" unicode="&#xf352;" horiz-adv-x="512" 
d="M89 1v523q111 4 161 4q182 0 182 -130q0 -48 -30 -81.5t-79 -42.5v-1q63 -7 96.5 -38.5t33.5 -85.5q0 -76 -56 -114t-149 -38q-100 0 -159 4zM255 243h-111v-190q75 -4 107 -4q147 0 147 102q0 44 -37 68t-106 24zM249 476q-39 0 -105 -3v-181h112q52 0 86.5 26t34.5 67
q0 91 -128 91z" />
    <glyph glyph-name="uniF353" unicode="&#xf353;" horiz-adv-x="416" 
d="M144 0h-55v525h321v-52h-266v-473z" />
    <glyph glyph-name="uniF354" unicode="&#xf354;" horiz-adv-x="608" 
d="M65 -99h-52v151h62q31 37 59.5 134t36.5 234l6 105h327v-473h77v-151h-52v99h-464v-99zM230 473l-7 -89q-11 -138 -37 -221q-27 -85 -50 -111h313v421h-219z" />
    <glyph glyph-name="uniF355" unicode="&#xf355;" horiz-adv-x="481" 
d="M421 0h-332v525h324v-52h-269v-181h245v-52h-245v-188h277v-52z" />
    <glyph glyph-name="uniF356" unicode="&#xf356;" horiz-adv-x="756" 
d="M659 525h67l-237 -249l246 -276h-67l-240 274zM406 0h-55v525h55v-525zM22 0l245 274l-236 251h67l232 -251l-241 -274h-67z" />
    <glyph glyph-name="uniF357" unicode="&#xf357;" horiz-adv-x="478" 
d="M223 -8q-59 0 -111 24q-53 24 -77 57l31 36q27 -30 70 -47.5t86 -17.5q66 0 104 29t38 78q0 42 -31 66.5t-86 24.5h-78v51h73q40 0 69 28q31 28 31 68q0 43 -30.5 67t-82.5 24q-90 0 -146 -59l-32 36q61 75 178 75q77 0 122.5 -37t45.5 -102q0 -40 -22 -73t-60 -47v-3
q47 -7 75.5 -41.5t28.5 -82.5q0 -71 -54 -112.5t-142 -41.5z" />
    <glyph glyph-name="uniF358" unicode="&#xf358;" horiz-adv-x="650" 
d="M506 438l-368 -438h-49v525h55v-438l368 438h49v-525h-55v438z" />
    <glyph glyph-name="uniF359" unicode="&#xf359;" horiz-adv-x="650" 
d="M506 438l-368 -438h-49v525h55v-438l368 438h49v-525h-55v438zM183 664h49q0 -36 24 -55.5t67 -19.5q40 0 63.5 19.5t23.5 55.5h49q0 -54 -36.5 -84.5t-99.5 -30.5q-67 0 -103.5 30t-36.5 85z" />
    <glyph glyph-name="uniF35A" unicode="&#xf35a;" horiz-adv-x="529" 
d="M425 525h72l-263 -247l274 -278h-75l-267 274zM144 0h-55v525h55v-525z" />
    <glyph glyph-name="uniF35B" unicode="&#xf35b;" horiz-adv-x="591" 
d="M503 0h-55v473h-228l-9 -99q-23 -246 -77 -319q-26 -35 -52 -46.5t-61 -8.5l1 53q33 -2 58 28q19 22 32 58q33 84 49 281l8 105h334v-525z" />
    <glyph glyph-name="uniF35C" unicode="&#xf35c;" horiz-adv-x="724" 
d="M144 0h-55v525h56l223 -276l214 276h53v-525h-55v442l-212 -270h-8l-216 267v-439z" />
    <glyph glyph-name="uniF35D" unicode="&#xf35d;" horiz-adv-x="633" 
d="M544 0h-55v242h-345v-242h-55v525h55v-231h345v231h55v-525z" />
    <glyph glyph-name="uniF35E" unicode="&#xf35e;" horiz-adv-x="650" 
d="M43 262q0 115 80 192q80 78 202 78t201 -76q81 -76 81 -194q0 -116 -81 -193q-80 -77 -201 -77q-123 0 -202 76q-80 77 -80 194zM101 262q0 -93 64 -156q65 -62 160 -62q99 0 161 62q63 62 63 156t-65 156t-159 62q-95 0 -160 -62q-64 -61 -64 -156z" />
    <glyph glyph-name="uniF35F" unicode="&#xf35f;" horiz-adv-x="632" 
d="M543 0h-55v473h-344v-473h-55v525h454v-525z" />
    <glyph glyph-name="uniF360" unicode="&#xf360;" horiz-adv-x="481" 
d="M144 196v-196h-55v525q33 0 70 1t73 1q106 0 156 -44.5t50 -121.5q0 -75 -53 -121.5t-150 -46.5q-45 0 -91 3zM237 475q-31 0 -93 -2v-224q53 -4 88 -4q71 0 109.5 31t38.5 85q0 114 -143 114z" />
    <glyph glyph-name="uniF361" unicode="&#xf361;" horiz-adv-x="535" 
d="M484 92l22 -42q-29 -27 -77.5 -42.5t-100.5 -15.5q-130 0 -207 73q-78 73 -78 197q0 116 75 192q76 78 204 78q103 0 173 -50l-26 -41q-61 39 -147 39q-99 0 -160 -61t-61 -157q0 -98 63 -158q64 -60 168 -60q88 0 152 48z" />
    <glyph glyph-name="uniF362" unicode="&#xf362;" horiz-adv-x="484" 
d="M214 473h-206v52h468v-52h-207v-473h-55v473z" />
    <glyph glyph-name="uniF363" unicode="&#xf363;" horiz-adv-x="530" 
d="M461 525h57l-198 -404q-30 -64 -62.5 -92.5t-74.5 -28.5q-37 0 -63 18l20 47q23 -14 45 -14q41 0 74 63l11 19l-257 392h68l217 -337z" />
    <glyph glyph-name="uniF364" unicode="&#xf364;" horiz-adv-x="678" 
d="M365 -6h-55v63h-2q-123 0 -199 56q-74 57 -74 157q0 99 74 155.5t201 57.5v48h55v-48h1q129 0 203 -56t74 -157q0 -100 -75 -157q-76 -56 -198 -56h-5v-63zM367 433h-2v-326h4q100 0 158 43t58 120q0 75 -58.5 119t-159.5 44zM93 270q0 -75 58.5 -119t156.5 -44h2v326h-1
q-99 0 -157.5 -44.5t-58.5 -118.5z" />
    <glyph glyph-name="uniF365" unicode="&#xf365;" horiz-adv-x="539" 
d="M443 525h68l-206 -258l214 -267h-68l-182 225l-181 -225h-68l214 267l-205 258h68l173 -216z" />
    <glyph glyph-name="uniF366" unicode="&#xf366;" horiz-adv-x="640" 
d="M562 0h-473v525h55v-473h337v473h55v-473h77v-151h-51v99z" />
    <glyph glyph-name="uniF367" unicode="&#xf367;" horiz-adv-x="526" 
d="M382 525h55v-525h-55v234q-64 -42 -157 -42q-79 0 -126 42.5t-47 125.5v165h55v-148q0 -66 34 -99.5t95 -33.5q76 0 146 41v240z" />
    <glyph glyph-name="uniF368" unicode="&#xf368;" horiz-adv-x="811" 
d="M722 0h-633v525h55v-473h233v473h55v-473h235v473h55v-525z" />
    <glyph glyph-name="uniF369" unicode="&#xf369;" horiz-adv-x="826" 
d="M747 0h-658v525h55v-473h233v473h55v-473h235v473h55v-473h77v-151h-52v99z" />
    <glyph glyph-name="uniF36A" unicode="&#xf36a;" horiz-adv-x="544" 
d="M144 473h-141v52h196v-199q51 3 88 3q106 0 160 -41.5t54 -118.5q0 -81 -60 -126t-167 -45q-41 0 -71 1q-29 1 -59 1v473zM283 277q-36 0 -84 -3v-222q64 -2 85 -2q76 0 117.5 30.5t41.5 87.5q0 109 -160 109z" />
    <glyph glyph-name="uniF36B" unicode="&#xf36b;" horiz-adv-x="682" 
d="M593 0h-55v525h55v-525zM223 277q-33 0 -79 -3v-222q64 -2 76 -2q159 0 159 118q0 53 -40 81t-116 28zM89 525h55v-199q49 3 82 3q104 0 157.5 -41.5t53.5 -118.5q0 -81 -59 -126t-164 -45q-40 0 -68 1t-57 1v525z" />
    <glyph glyph-name="uniF36C" unicode="&#xf36c;" horiz-adv-x="489" 
d="M227 277q-37 0 -83 -3v-222q20 0 38 -1t42 -1q79 0 121.5 30.5t42.5 87.5q0 109 -161 109zM89 525h55v-199q50 3 87 3q106 0 160.5 -41.5t54.5 -118.5q0 -81 -60.5 -126t-167.5 -45q-40 0 -70 1q-29 1 -59 1v525z" />
    <glyph glyph-name="uniF36D" unicode="&#xf36d;" horiz-adv-x="554" 
d="M455 242h-295v52h294q-9 88 -70 137t-161 49t-159 -43l-23 41q67 54 184 54q128 0 207 -73t79 -195q0 -119 -80 -196q-79 -75 -210 -75q-115 0 -189 55l24 45q72 -48 171 -48q96 0 158 53q63 55 70 144z" />
    <glyph glyph-name="uniF36E" unicode="&#xf36e;" horiz-adv-x="866" 
d="M144 0h-55v525h55v-231h137q11 105 83 171q73 67 185 67q121 0 198 -75q76 -75 76 -194q0 -118 -76 -194t-198 -76q-113 0 -188 69q-73 69 -81 180h-136v-242zM337 263q0 -94 59 -156q60 -62 154 -62q98 0 156 61q59 62 59 157t-60 156t-155 61q-94 0 -154 -61
q-59 -62 -59 -156z" />
    <glyph glyph-name="uniF36F" unicode="&#xf36f;" horiz-adv-x="514" 
d="M425 0h-55v196h-128l-153 -196h-65l161 205q-51 19 -83.5 58.5t-32.5 90.5q0 78 56.5 126t158.5 48q11 0 77 -2q33 -1 64 -1v-525zM236 248h134v225q-66 3 -92 3q-72 0 -111.5 -33t-39.5 -86q0 -41 33 -72q32 -31 76 -37z" />
    <glyph glyph-name="uniF371" unicode="&#xf371;" horiz-adv-x="481" 
d="M128 661q0 13 9.5 22t23.5 9q12 0 21.5 -9t9.5 -22q0 -14 -9.5 -23.5t-21.5 -9.5q-14 0 -23.5 9t-9.5 24zM304 661q0 13 9.5 22t23.5 9q12 0 21.5 -9t9.5 -22q0 -15 -9 -24t-22 -9q-14 0 -23.5 9t-9.5 24zM421 0h-332v525h324v-52h-269v-181h245v-52h-245v-188h277v-52z
" />
    <glyph glyph-name="uniF372" unicode="&#xf372;" horiz-adv-x="620" 
d="M577 156q0 -163 -139 -163q-23 0 -46.5 8t-34.5 18l20 43q23 -17 55 -17q90 0 90 109q0 114 -124 114q-46 0 -77 -15q-9 -3 -19 -8q-29 -17 -33 -18v-227h-55v473h-206v52h468v-52h-207v-192q77 39 139 39q80 0 124.5 -40.5t44.5 -123.5z" />
    <glyph glyph-name="uniF373" unicode="&#xf373;" horiz-adv-x="416" 
d="M144 0h-55v525h321v-52h-266v-473zM316 758l32 -39l-125 -131l-27 28z" />
    <glyph glyph-name="uniF374" unicode="&#xf374;" horiz-adv-x="554" 
d="M99 293h294v-52h-295q8 -91 72 -144q65 -52 167 -52q89 0 163 48l22 -45q-74 -55 -185 -55q-134 0 -214 73q-80 74 -80 197q0 119 79 194q80 75 206 75q116 0 184 -54l-25 -41q-59 43 -156 43q-102 0 -162.5 -49.5t-69.5 -137.5z" />
    <glyph glyph-name="uniF375" unicode="&#xf375;" horiz-adv-x="473" 
d="M371 136q0 65 -111 100q-103 31 -139 54q-64 40 -64 106q0 62 48.5 99t137.5 37q47 0 97 -18q50 -16 75 -43l-26 -41q-26 23 -67.5 36.5t-81.5 13.5q-57 0 -91 -23.5t-34 -62.5q0 -60 111 -95q36 -10 56.5 -16.5t53 -21t50 -30t31.5 -41.5t13 -57q0 -63 -54 -102
q-52 -39 -132 -39q-65 0 -120 21t-84 56l32 38q64 -63 175 -63q52 0 88 25t36 67z" />
    <glyph glyph-name="uniF376" unicode="&#xf376;" horiz-adv-x="268" 
d="M161 0h-55v525h55v-525z" />
    <glyph glyph-name="uniF377" unicode="&#xf377;" horiz-adv-x="278" 
d="M45 660q0 13 9 21.5t22 8.5q12 0 20.5 -8.5t8.5 -21.5q0 -14 -8.5 -22.5t-20.5 -8.5q-13 0 -22 8.5t-9 22.5zM174 660q0 13 9.5 21.5t22.5 8.5q12 0 20.5 -9t8.5 -21q0 -14 -8.5 -22.5t-20.5 -8.5q-13 0 -22.5 8.5t-9.5 22.5zM166 0h-55v525h55v-525z" />
    <glyph glyph-name="uniF378" unicode="&#xf378;" horiz-adv-x="299" 
d="M155 525h55v-407q0 -125 -118 -125q-51 0 -82 26l19 43q26 -17 55 -17q38 0 54.5 20t16.5 61v399z" />
    <glyph glyph-name="uniF379" unicode="&#xf379;" horiz-adv-x="838" 
d="M448 0v473h-227l-10 -99q-10 -99 -25 -170.5t-32.5 -111.5t-40.5 -62t-44 -27.5t-48 -2.5l1 55q33 -2 58 27q19 22 32 57q33 84 49 281l8 105h334v-199q48 3 81 3q104 0 157.5 -41.5t53.5 -118.5q0 -82 -59 -126.5t-165 -44.5q-39 0 -67 1t-56 1zM581 277q-31 0 -78 -3
v-222q5 0 34 -1t41 -1q159 0 159 118q0 53 -40 81t-116 28z" />
    <glyph glyph-name="uniF37A" unicode="&#xf37a;" horiz-adv-x="872" 
d="M144 0h-55v525h55v-213h337v213h55v-210q50 3 81 3q104 0 158 -40t54 -114q0 -80 -59 -123t-165 -43q-39 0 -68 1q-28 1 -56 1v260h-337v-260zM536 263v-211q7 0 35.5 -1t39.5 -1q160 0 160 113q0 50 -40.5 77t-116.5 27q-42 0 -78 -4z" />
    <glyph glyph-name="uniF37B" unicode="&#xf37b;" horiz-adv-x="620" 
d="M214 473h-206v52h468v-52h-207v-196q59 40 144 40q77 0 120.5 -42t43.5 -126v-149h-55v136q0 129 -121 129q-67 0 -132 -39v-226h-55v473z" />
    <glyph glyph-name="uniF37C" unicode="&#xf37c;" horiz-adv-x="529" 
d="M425 525h72l-263 -247l274 -278h-75l-267 274zM144 0h-55v525h55v-525zM342 758l32 -39l-125 -131l-27 28z" />
    <glyph glyph-name="uniF37E" unicode="&#xf37e;" horiz-adv-x="530" 
d="M461 525h57l-198 -404q-30 -64 -62.5 -92.5t-74.5 -28.5q-37 0 -63 18l20 47q23 -14 45 -14q41 0 74 63l11 19l-257 392h68l217 -337zM134 664h49q0 -36 24 -55.5t67 -19.5q40 0 63.5 19.5t23.5 55.5h49q0 -54 -36.5 -84.5t-99.5 -30.5q-67 0 -103.5 30t-36.5 85z" />
    <glyph glyph-name="uniF37F" unicode="&#xf37f;" horiz-adv-x="624" 
d="M286 0h-197v525h55v-473h336v473h55v-525h-197v-117h-52v117z" />
    <glyph glyph-name="uniF381" unicode="&#xf381;" horiz-adv-x="506" 
d="M106 396h-103v46h103v83h55v-83h136v-46h-136v-82q49 3 87 3q215 0 215 -154q0 -80 -59.5 -122.5t-168.5 -42.5q-40 0 -70 1q-29 1 -59 1v396zM244 268q-36 0 -83 -3v-216q20 0 38 -1t42 -1q164 0 164 115q0 106 -161 106z" />
    <glyph glyph-name="uniF389" unicode="&#xf389;" horiz-adv-x="650" 
d="M43 262q0 115 80 192q80 78 202 78t201 -76q81 -76 81 -194q0 -116 -81 -193q-80 -77 -201 -77q-123 0 -202 76q-80 77 -80 194zM209 284q-57 0 -107 -47q9 -83 72 -139q63 -54 151 -54q90 0 151 52q60 51 71 136q-52 -38 -100 -38q-47 0 -123 45q-75 45 -115 45z
M452 243q51 0 96 42q-7 84 -71 140q-62 55 -152 55q-88 0 -150 -53q-61 -53 -72 -135q53 41 108 41q49 0 124 -45q77 -45 117 -45z" />
    <glyph glyph-name="uniF38A" unicode="&#xf38a;" horiz-adv-x="535" 
d="M444 381l-153 -385h-40l-244 529h62l204 -452l126 331q27 69 53 98t64 29q22 0 43 -7v-45q-36 13 -63 -11t-52 -87z" />
    <glyph glyph-name="uniF393" unicode="&#xf393;" horiz-adv-x="419" 
d="M144 0h-55v525h272v96h52v-148h-269v-473z" />
    <glyph glyph-name="uniF3CF" unicode="&#xf3cf;" horiz-adv-x="954" 
d="M545 525v-525h-44l-360 434v-434h-52v525h44l360 -435v435h52zM751 497q63 0 103.5 -35t40.5 -90t-40.5 -90.5t-103.5 -35.5q-62 0 -103 35q-41 36 -41 91t41 90t103 35zM656 372q0 -36 28 -59.5t67 -23.5q40 0 67.5 23.5t27.5 59.5q0 35 -27.5 58.5t-67.5 23.5
t-67.5 -23.5t-27.5 -58.5zM867 148h-232v49h232v-49z" />
    <glyph glyph-name="uniF3D0" unicode="&#xf3d0;" horiz-adv-x="396" 
d="M60 664h49q0 -36 24 -55.5t67 -19.5q40 0 63.5 19.5t23.5 55.5h49q0 -54 -36.5 -84.5t-99.5 -30.5q-67 0 -103.5 30t-36.5 85z" />
    <glyph glyph-name="uniF400" unicode="&#xf400;" horiz-adv-x="0" 
d="M-207 716l40 -31l-116 -143l-32 23z" />
    <glyph glyph-name="uniF401" unicode="&#xf401;" horiz-adv-x="0" 
d="M-277 868l19 -44l-182 -86l-16 31z" />
    <glyph glyph-name="uniF406" unicode="&#xf406;" horiz-adv-x="448" 
d="M60 837l24 27q57 -67 143 -67q85 0 140 67l21 -28q-25 -38 -68 -61.5t-93 -23.5q-58 0 -103 27q-45 28 -64 59z" />
    <glyph glyph-name="uniF407" unicode="&#xf407;" horiz-adv-x="336" 
d="M60 -173l17 28q42 -24 74 -24q31 0 50.5 12.5t19.5 33.5q0 47 -71 47h-6v76h30v-50q102 -3 102 -76q0 -34 -31 -55q-31 -22 -83 -22t-102 30z" />
    <glyph glyph-name="uniF408" unicode="&#xf408;" horiz-adv-x="462" 
d="M80 737l-20 30l168 98h4l170 -98l-23 -30l-149 81z" />
    <glyph glyph-name="uniF409" unicode="&#xf409;" horiz-adv-x="220" 
d="M80 -71l45 16q35 -8 35 -50q0 -75 -85 -97l-15 24q48 20 48 65q0 33 -28 42z" />
    <glyph glyph-name="uniF40A" unicode="&#xf40a;" horiz-adv-x="218" 
d="M89 719l43 28q26 -31 26 -73q0 -91 -74 -132l-24 25q49 28 49 96q0 36 -20 56z" />
    <glyph glyph-name="uniF40B" unicode="&#xf40b;" horiz-adv-x="197" 
d="M60 806q0 15 11.5 25.5t27.5 10.5q15 0 26.5 -10.5t11.5 -25.5q0 -17 -11 -27t-27 -10q-17 0 -28 10t-11 27z" />
    <glyph glyph-name="uniF40C" unicode="&#xf40c;" horiz-adv-x="344" 
d="M60 785q0 43 30 65.5t81 22.5q52 0 82.5 -22.5t30.5 -65.5q0 -42 -31.5 -66.5t-81.5 -24.5q-49 0 -80 24.5t-31 66.5zM100 785q0 -28 20 -45q20 -15 52 -15t52 15q20 17 20 45q0 57 -72 57t-72 -57z" />
    <glyph glyph-name="uniF40D" unicode="&#xf40d;" horiz-adv-x="456" 
d="M78 767l-18 33q40 40 90 40q32 0 80 -22t76 -22q42 0 74 33l16 -33q-39 -46 -93 -46q-28 0 -79 22q-50 22 -80 22q-33 0 -66 -27z" />
    <glyph glyph-name="uniF40E" unicode="&#xf40e;" horiz-adv-x="306" 
d="M230 -148l16 -33q-28 -19 -73 -19q-49 0 -81 23t-32 68q0 56 55 90q55 33 124 33v-14q-49 0 -88 -27t-39 -66q0 -33 21.5 -48.5t51.5 -15.5q25 0 45 9z" />
    <glyph glyph-name="uniF410" unicode="&#xf410;" horiz-adv-x="0" 
d="M-324 769l-15 -31l-183 86l20 44z" />
    <glyph glyph-name="uniF416" unicode="&#xf416;" horiz-adv-x="220" 
d="M80 -71l45 16q35 -8 35 -50q0 -75 -85 -97l-15 24q48 20 48 65q0 33 -28 42z" />
    <glyph glyph-name="uniF418" unicode="&#xf418;" horiz-adv-x="218" 
d="M89 527l43 28q26 -31 26 -73q0 -91 -74 -132l-24 25q49 28 49 96q0 36 -20 56z" />
    <glyph glyph-name="uniF447" unicode="&#xf447;" horiz-adv-x="484" 
d="M145 -174l16 27q35 -22 72 -22q31 0 50.5 12.5t19.5 33.5q0 47 -71 47h-6v76h-12v473h-206v52h468v-52h-207v-473h-13v-50q99 -3 99 -76q0 -34 -31 -55.5t-84 -21.5q-46 0 -95 29z" />
    <glyph glyph-name="uniF44E" unicode="&#xf44e;" horiz-adv-x="623" 
d="M47 293h481q-7 87 -68 137t-158 50q-90 0 -149 -43l-22 41q69 54 177 54q128 0 204 -73t76 -196q0 -120 -76 -196q-75 -75 -199 -75q-127 0 -201 83q-73 81 -65 218zM313 44q97 0 155 54t62 143h-426q1 -83 59 -141q58 -56 150 -56z" />
    <glyph glyph-name="uniF639" unicode="&#xf639;" horiz-adv-x="589" 
d="M515 350q0 -164 -54 -262q-53 -96 -165 -96q-113 0 -168 97t-55 261t54 261q55 97 167 97t166 -97q55 -97 55 -261zM128 350q0 -309 168 -309q164 0 164 309t-166 309t-166 -309z" />
    <glyph glyph-name="uniF63A" unicode="&#xf63a;" horiz-adv-x="589" 
d="M503 0h-417v43l80 79q19 19 84 91q53 61 85 108q29 41 56 102q26 58 26 103q0 56 -35.5 93t-98.5 37q-53 0 -94 -33.5t-50 -93.5l-44 17q10 75 66 119q55 43 126 43q91 0 137 -52q48 -51 48 -120q0 -54 -29 -121q-31 -71 -65 -119q-36 -50 -88 -110q-48 -54 -80 -84
q-55 -52 -56 -53h349v-49z" />
    <glyph glyph-name="uniF63B" unicode="&#xf63b;" horiz-adv-x="589" 
d="M287 -9q-71 0 -125 31t-80 90l31 36q24 -51 70.5 -78t102.5 -27q71 0 114.5 42t43.5 108q0 62 -43 100.5t-109 38.5h-60v52h54q50 0 91 41q40 40 40 101q0 62 -35.5 96.5t-98.5 34.5q-107 0 -152 -96l-31 33q21 55 70.5 85t116.5 30q86 0 135.5 -47t49.5 -129
q0 -57 -29.5 -102.5t-81.5 -66.5v-3q64 -9 101 -58t37 -112q0 -90 -60 -146q-60 -54 -152 -54z" />
    <glyph glyph-name="uniF63C" unicode="&#xf63c;" horiz-adv-x="589" 
d="M438 0h-52v185h-325v35l306 480h60l-297 -463h256v213h52v-213h103v-52h-103v-185z" />
    <glyph glyph-name="uniF63D" unicode="&#xf63d;" horiz-adv-x="589" 
d="M142 364l43 336h304v-52h-259l-30 -228q31 9 68 9q99 0 160 -58q62 -59 62 -154q0 -103 -63 -164q-64 -62 -154 -62q-63 0 -116.5 29t-82.5 82l31 37q26 -45 72.5 -70.5t96.5 -25.5q68 0 115 48q46 49 46 124q0 73 -52 119q-51 48 -135 48q-61 0 -106 -18z" />
    <glyph glyph-name="uniF63E" unicode="&#xf63e;" horiz-adv-x="589" 
d="M68 248q0 90 30 173t80 142q106 120 227 146l22 -39q-108 -25 -194 -119q-85 -93 -105 -236q24 52 71 83t111 31q90 0 146 -60q57 -60 57 -156q0 -95 -63 -159q-62 -63 -145 -63q-112 0 -175 74q-62 74 -62 183zM123 248q0 -85 47 -146q47 -59 134 -59q64 0 109 49
q45 50 45 117q0 76 -44 123.5t-120 47.5q-66 0 -112 -41t-59 -91z" />
    <glyph glyph-name="uniF63F" unicode="&#xf63f;" horiz-adv-x="589" 
d="M438 648h-340v52h404v-32l-266 -668h-58z" />
    <glyph glyph-name="uniF640" unicode="&#xf640;" horiz-adv-x="589" 
d="M280 386h31q50 0 89 39q40 40 40 96q0 61 -44 99q-43 37 -103 37q-58 0 -102 -38q-42 -37 -42 -98q0 -56 40 -96q41 -39 91 -39zM309 334h-26q-65 0 -112 -42q-46 -40 -46 -102q0 -63 49 -105q50 -42 120 -42q75 0 122 40q50 41 48 107q0 65 -44 104.5t-111 39.5zM70 181
q0 64 39 113t103 64v3q-49 15 -84 62q-34 47 -34 104q0 82 58 131q58 51 142 51t143 -51q58 -49 58 -131q0 -54 -33 -99.5t-88 -65.5v-3q64 -8 104.5 -56.5t40.5 -117.5q0 -89 -66 -142q-64 -52 -158 -52t-159 52q-66 53 -66 138z" />
    <glyph glyph-name="uniF641" unicode="&#xf641;" horiz-adv-x="589" 
d="M519 449q0 -192 -96 -315q-97 -122 -247 -143l-18 41q126 22 207 114q80 91 94 236q-21 -49 -68 -78t-110 -29q-91 0 -150 62q-58 61 -58 152q0 94 66 157t150 63q113 0 171 -73q59 -74 59 -187zM464 449q0 86 -44 147q-43 61 -130 61q-65 0 -114 -49q-48 -48 -48 -115
q0 -70 44 -120q43 -49 121 -49q69 0 112 37q45 38 59 88z" />
    <glyph glyph-name="uniF643" unicode="&#xf643;" horiz-adv-x="589" 
d="M108 67q-70 76 -70 183q0 106 70 182q71 77 186 77t186 -77q70 -76 70 -182q0 -107 -70 -183t-186 -76t-186 76zM93 250q0 -86 55 -147q56 -60 146 -60t146 60q55 61 55 147t-56 147q-55 60 -145 60t-146 -60q-55 -59 -55 -147z" />
    <glyph glyph-name="uniF644" unicode="&#xf644;" horiz-adv-x="589" 
d="M167 352l-19 46l156 110h35v-508h-55v439z" />
    <glyph glyph-name="uniF645" unicode="&#xf645;" horiz-adv-x="589" 
d="M503 0h-417v40q105 42 208 109q123 84 123 180q0 59 -34.5 94t-97.5 35q-54 0 -96.5 -32.5t-54.5 -90.5l-36 30q14 68 68 106q56 39 119 39q90 0 137 -46.5t47 -124.5q0 -84 -71 -160q-23 -26 -67 -59q-64 -47 -120 -68h292v-52z" />
    <glyph glyph-name="uniF646" unicode="&#xf646;" horiz-adv-x="589" 
d="M286 -209q-71 0 -124.5 30.5t-79.5 90.5l31 36q25 -52 71 -78.5t102 -26.5q71 0 114.5 42t43.5 108q0 62 -43 100.5t-109 38.5h-60v52h54q50 0 91 41q40 40 40 101q0 62 -35.5 96.5t-98.5 34.5q-107 0 -152 -96l-31 33q21 55 70.5 85t116.5 30q86 0 135.5 -47t49.5 -129
q0 -57 -29.5 -102.5t-81.5 -66.5v-3q64 -9 101 -58t37 -112q0 -91 -60 -145q-59 -55 -153 -55z" />
    <glyph glyph-name="uniF647" unicode="&#xf647;" horiz-adv-x="589" 
d="M438 -200h-52v200h-325v35l298 465h60l-288 -448h255v213h52v-213h103v-52h-103v-200z" />
    <glyph glyph-name="uniF648" unicode="&#xf648;" horiz-adv-x="589" 
d="M142 164l43 336h304v-52h-259l-30 -228q32 9 69 9q98 0 159 -58q62 -59 62 -154q0 -102 -63 -164q-64 -62 -154 -62q-62 0 -115.5 29t-83.5 82l31 37q26 -45 72.5 -70.5t96.5 -25.5q69 0 115 49q46 47 46 123q0 73 -52 119q-51 48 -135 48q-59 0 -106 -18z" />
    <glyph glyph-name="uniF649" unicode="&#xf649;" horiz-adv-x="589" 
d="M68 248q0 90 30 173t80 142q106 120 227 146l22 -39q-108 -25 -194 -119q-85 -93 -105 -236q24 52 71 83t111 31q90 0 146 -60q57 -60 57 -156q0 -95 -63 -159q-62 -63 -145 -63q-112 0 -175 74q-62 74 -62 183zM123 248q0 -85 47 -146q47 -59 134 -59q64 0 109 49
q45 50 45 117q0 76 -44 123.5t-120 47.5q-66 0 -112 -41t-59 -91z" />
    <glyph glyph-name="uniF64A" unicode="&#xf64a;" horiz-adv-x="589" 
d="M438 448h-340v52h404v-32l-266 -668h-58z" />
    <glyph glyph-name="uniF64B" unicode="&#xf64b;" horiz-adv-x="589" 
d="M279 386h31q50 0 90 39q40 40 40 96q0 61 -44 99q-43 37 -103 37q-61 0 -102 -37q-42 -38 -42 -99q0 -56 40 -96q41 -39 90 -39zM309 334h-26q-65 0 -112 -42q-46 -40 -46 -102q0 -64 49 -106q50 -41 120 -41q74 0 121 40q49 40 49 107q0 65 -44 104.5t-111 39.5zM70 181
q0 64 39 113t103 64v3q-49 15 -84 62q-34 47 -34 104q0 82 58 131q58 51 142 51t143 -51q58 -49 58 -131q0 -54 -33 -99.5t-88 -65.5v-3q64 -8 104 -57q41 -49 41 -117q0 -89 -66 -142q-64 -52 -158 -52t-159 52q-66 53 -66 138z" />
    <glyph glyph-name="uniF64C" unicode="&#xf64c;" horiz-adv-x="589" 
d="M519 249q0 -191 -96 -314t-246 -144l-19 41q125 22 207 115q80 91 94 235q-21 -49 -68 -78t-110 -29q-91 0 -150 62q-58 61 -58 152q0 94 66 157t150 63q113 0 171 -73q59 -74 59 -187zM464 249q0 86 -44 147q-43 61 -129 61q-65 0 -114 -49q-49 -48 -49 -115
q0 -70 44 -120q43 -49 122 -49q69 0 112 37q44 37 58 88z" />
    <glyph glyph-name="uniF66D" unicode="&#xf66d;" horiz-adv-x="574" 
d="M73 0h-56l247 529h46l247 -529h-59l-77 167h-271zM397 218l-112 243l-112 -243h224zM147 697l24 27q56 -65 118 -65q65 0 117 64l20 -26q-58 -81 -139 -81q-89 0 -140 81z" />
    <glyph glyph-name="uniF66E" unicode="&#xf66e;" horiz-adv-x="574" 
d="M73 0h-56l247 529h46l247 -529h-59l-77 167h-271zM397 218l-112 243l-112 -243h224zM413 647h-252v43h252v-43z" />
    <glyph glyph-name="uniF66F" unicode="&#xf66f;" horiz-adv-x="574" 
d="M535 -148l16 -33q-28 -19 -73 -19q-49 0 -81 23t-32 68q0 44 36.5 76t92.5 42l-73 158h-271l-77 -167h-56l247 529h46l247 -529h-13q-49 0 -88 -27t-39 -66q0 -33 21.5 -48.5t51.5 -15.5q26 0 45 9zM397 218l-112 243l-112 -243h224z" />
    <glyph glyph-name="uniF671" unicode="&#xf671;" horiz-adv-x="535" 
d="M484 92l22 -42q-29 -27 -77.5 -42.5t-100.5 -15.5q-130 0 -207 73q-78 73 -78 197q0 116 75 192q76 78 204 78q103 0 173 -50l-26 -41q-61 39 -147 39q-99 0 -160 -61t-61 -157q0 -98 63 -158q64 -60 168 -60q88 0 152 48zM383 758l32 -39l-125 -131l-27 28z" />
    <glyph glyph-name="uniF672" unicode="&#xf672;" horiz-adv-x="535" 
d="M312 592h-4l-137 115l26 31l113 -95l113 95l25 -31zM484 92l22 -42q-29 -27 -77.5 -42.5t-100.5 -15.5q-130 0 -207 73q-78 73 -78 197q0 116 75 192q76 78 204 78q103 0 173 -50l-26 -41q-61 39 -147 39q-99 0 -160 -61t-61 -157q0 -98 63 -158q64 -60 168 -60
q88 0 152 48z" />
    <glyph glyph-name="uniF673" unicode="&#xf673;" horiz-adv-x="535" 
d="M309 736h4l142 -114l-25 -32l-119 96l-121 -95l-26 31zM484 92l22 -42q-29 -27 -77.5 -42.5t-100.5 -15.5q-130 0 -207 73q-78 73 -78 197q0 116 75 192q76 78 204 78q103 0 173 -50l-26 -41q-61 39 -147 39q-99 0 -160 -61t-61 -157q0 -98 63 -158q64 -60 168 -60
q88 0 152 48z" />
    <glyph glyph-name="uniF674" unicode="&#xf674;" horiz-adv-x="535" 
d="M484 92l22 -42q-29 -27 -77.5 -42.5t-100.5 -15.5q-130 0 -207 73q-78 73 -78 197q0 116 75 192q76 78 204 78q103 0 173 -50l-26 -41q-61 39 -147 39q-99 0 -160 -61t-61 -157q0 -98 63 -158q64 -60 168 -60q88 0 152 48zM271 668q0 15 11 24t26 9q13 0 23.5 -9.5
t10.5 -23.5q0 -16 -10 -26.5t-24 -10.5q-16 0 -26.5 10t-10.5 27z" />
    <glyph glyph-name="uniF675" unicode="&#xf675;" horiz-adv-x="602" 
d="M275 592h-4l-137 115l26 31l113 -95l113 95l25 -31zM96 0h-7v525h9q35 0 67 1t74 1q161 0 241 -72q79 -70 79 -186q0 -119 -85 -195t-242 -76q-34 0 -65 1t-71 1zM237 475q-11 0 -93 -2v-421q25 0 47 -0.5t32 -1t11 -0.5q127 0 197 60q70 61 70 159q0 95 -67.5 150.5
t-196.5 55.5z" />
    <glyph glyph-name="uniF676" unicode="&#xf676;" horiz-adv-x="617" 
d="M103 244h-95v49h95v232h10q35 0 68 1t79 1q158 0 235 -73q79 -73 79 -185q0 -118 -84 -194q-83 -77 -234 -77q-41 0 -74 1q-32 1 -71 1h-8v244zM260 475q-3 0 -102 -3v-179h159v-49h-159v-192h24.5t25 -0.5l22 -1t16.5 -0.5h7q127 0 194 61q69 61 69 158q0 95 -66 150.5
t-190 55.5z" />
    <glyph glyph-name="uniF678" unicode="&#xf678;" horiz-adv-x="481" 
d="M255 592h-4l-137 115l26 31l113 -95l113 95l25 -31zM421 0h-332v525h324v-52h-269v-181h245v-52h-245v-188h277v-52z" />
    <glyph glyph-name="uniF679" unicode="&#xf679;" horiz-adv-x="481" 
d="M421 0h-332v525h324v-52h-269v-181h245v-52h-245v-188h277v-52zM214 668q0 15 11 24t26 9q13 0 23.5 -9.5t10.5 -23.5q0 -15 -10.5 -26t-23.5 -11q-16 0 -26.5 10t-10.5 27z" />
    <glyph glyph-name="uniF67A" unicode="&#xf67a;" horiz-adv-x="481" 
d="M421 0h-332v525h324v-52h-269v-181h245v-52h-245v-188h277v-52zM374 647h-252v43h252v-43z" />
    <glyph glyph-name="uniF67C" unicode="&#xf67c;" horiz-adv-x="481" 
d="M334 0h-245v525h324v-52h-269v-181h245v-52h-245v-188h277v-52h-9q-47 -1 -86 -28q-36 -27 -36 -65q0 -33 21.5 -48.5t51.5 -15.5q25 0 45 9l16 -33q-28 -19 -73 -19q-49 0 -81 23t-32 68q0 75 96 109z" />
    <glyph glyph-name="uniF67D" unicode="&#xf67d;" horiz-adv-x="593" 
d="M490 212h-162v49h214v-197q-37 -34 -97 -53t-116 -19q-131 0 -208 73q-78 73 -78 197q0 115 77 192q76 78 201 78q107 0 178 -50l-25 -44q-55 42 -146 42q-102 0 -164 -61q-63 -60 -63 -157q0 -99 63 -159q65 -59 166 -59t160 50v118zM167 697l24 27q56 -65 118 -65
q65 0 117 64l20 -26q-59 -81 -139 -81q-89 0 -140 81z" />
    <glyph glyph-name="uniF67E" unicode="&#xf67e;" horiz-adv-x="593" 
d="M490 212h-162v49h214v-197q-37 -34 -97 -53t-116 -19q-131 0 -208 73q-78 73 -78 197q0 115 77 192q76 78 201 78q107 0 178 -50l-25 -44q-55 42 -146 42q-102 0 -164 -61q-63 -60 -63 -157q0 -99 63 -159q65 -59 166 -59t160 50v118zM319 736h4l142 -114l-25 -32
l-119 96l-121 -95l-26 31z" />
    <glyph glyph-name="uniF67F" unicode="&#xf67f;" horiz-adv-x="593" 
d="M490 212h-162v49h214v-197q-37 -34 -97 -53t-116 -19q-131 0 -208 73q-78 73 -78 197q0 115 77 192q76 78 201 78q107 0 178 -50l-25 -44q-55 42 -146 42q-102 0 -164 -61q-63 -60 -63 -157q0 -99 63 -159q65 -59 166 -59t160 50v118zM285 -71l45 16q35 -8 35 -50
q0 -75 -85 -97l-15 24q48 20 48 65q0 33 -28 42z" />
    <glyph glyph-name="uniF680" unicode="&#xf680;" horiz-adv-x="593" 
d="M490 212h-162v49h214v-197q-37 -34 -97 -53t-116 -19q-131 0 -208 73q-78 73 -78 197q0 115 77 192q76 78 201 78q107 0 178 -50l-25 -44q-55 42 -146 42q-102 0 -164 -61q-63 -60 -63 -157q0 -99 63 -159q65 -59 166 -59t160 50v118zM277 668q0 15 11 24t26 9
q13 0 23.5 -9.5t10.5 -23.5q0 -16 -10 -26.5t-24 -10.5q-16 0 -26.5 10t-10.5 27z" />
    <glyph glyph-name="uniF681" unicode="&#xf681;" horiz-adv-x="632" 
d="M89 390h-59v49h59v86h55v-86h345v86h55v-86h58v-49h-58v-390h-55v242h-345v-242h-55v390zM144 390v-96h345v96h-345z" />
    <glyph glyph-name="uniF682" unicode="&#xf682;" horiz-adv-x="633" 
d="M315 736h4l142 -114l-25 -32l-119 96l-121 -95l-26 31zM544 0h-55v242h-345v-242h-55v525h55v-231h345v231h55v-525z" />
    <glyph glyph-name="uniF685" unicode="&#xf685;" horiz-adv-x="268" 
d="M161 0h-55v525h55v-525zM260 647h-252v43h252v-43z" />
    <glyph glyph-name="uniF686" unicode="&#xf686;" horiz-adv-x="268" 
d="M149 -148l16 -33q-28 -19 -73 -19q-49 0 -81 23t-32 68q0 44 35.5 75t91.5 43v516h55v-525h-8q-47 -1 -86 -28q-36 -27 -36 -65q0 -33 21.5 -48.5t51.5 -15.5q26 0 45 9z" />
    <glyph glyph-name="uniF688" unicode="&#xf688;" horiz-adv-x="299" 
d="M175 736h4l142 -114l-25 -32l-119 96l-121 -95l-26 31zM155 525h55v-407q0 -125 -118 -125q-51 0 -82 26l19 43q26 -17 55 -17q38 0 54.5 20t16.5 61v399z" />
    <glyph glyph-name="uniF689" unicode="&#xf689;" horiz-adv-x="529" 
d="M425 525h72l-263 -247l274 -278h-75l-267 274zM144 0h-55v525h55v-525zM221 -71l45 16q35 -8 35 -50q0 -75 -85 -97l-15 24q48 20 48 65q0 33 -28 42z" />
    <glyph glyph-name="uniF68A" unicode="&#xf68a;" horiz-adv-x="453" 
d="M436 0h-347v525h55v-470h292v-55zM275 758l32 -39l-125 -131l-27 28z" />
    <glyph glyph-name="uniF68B" unicode="&#xf68b;" horiz-adv-x="453" 
d="M436 0h-347v525h55v-470h292v-55zM304 525h50q9 -15 9 -40q0 -49 -20.5 -85t-54.5 -52l-23 24q49 37 49 107q0 27 -10 46z" />
    <glyph glyph-name="uniF68C" unicode="&#xf68c;" horiz-adv-x="453" 
d="M436 0h-347v525h55v-470h292v-55zM225 -71l45 16q35 -8 35 -50q0 -75 -85 -97l-15 24q48 20 48 65q0 33 -28 42z" />
    <glyph glyph-name="uniF68D" unicode="&#xf68d;" horiz-adv-x="453" 
d="M307 293q0 15 11.5 25.5t28.5 10.5q15 0 25.5 -11t10.5 -25q0 -16 -10.5 -28t-25.5 -12q-17 0 -28.5 12t-11.5 28zM436 0h-347v525h55v-470h292v-55z" />
    <glyph glyph-name="uniF68E" unicode="&#xf68e;" horiz-adv-x="650" 
d="M561 525v-525h-44l-376 434v-434h-52v525h44l376 -435v435h52zM406 758l32 -39l-125 -131l-27 28z" />
    <glyph glyph-name="uniF68F" unicode="&#xf68f;" horiz-adv-x="650" 
d="M327 592h-4l-137 115l26 31l113 -95l113 95l25 -31zM561 525v-525h-44l-376 434v-434h-52v525h44l376 -435v435h52z" />
    <glyph glyph-name="uniF690" unicode="&#xf690;" horiz-adv-x="650" 
d="M561 525v-525h-44l-376 434v-434h-52v525h44l376 -435v435h52zM278 -71l45 16q35 -8 35 -50q0 -75 -85 -97l-15 24q48 20 48 65q0 33 -28 42z" />
    <glyph glyph-name="uniF692" unicode="&#xf692;" horiz-adv-x="650" 
d="M43 262q0 115 80 192q80 78 202 78t201 -76q81 -76 81 -194q0 -116 -81 -193q-80 -77 -201 -77q-123 0 -202 76q-80 77 -80 194zM101 262q0 -93 64 -156q65 -62 160 -62q99 0 161 62q63 62 63 156t-65 156t-159 62q-95 0 -160 -62q-64 -61 -64 -156zM475 755l38 -29
l-129 -137l-25 19zM319 759l38 -28l-115 -142l-29 19z" />
    <glyph glyph-name="uniF693" unicode="&#xf693;" horiz-adv-x="650" 
d="M43 262q0 115 80 192q80 78 202 78t201 -76q81 -76 81 -194q0 -116 -81 -193q-80 -77 -201 -77q-123 0 -202 76q-80 77 -80 194zM101 262q0 -93 64 -156q65 -62 160 -62q99 0 161 62q63 62 63 156t-65 156t-159 62q-95 0 -160 -62q-64 -61 -64 -156zM451 647h-252v43h252
v-43z" />
    <glyph glyph-name="uniF695" unicode="&#xf695;" horiz-adv-x="517" 
d="M144 208v-208h-55v525q33 0 68 1q36 1 70 1q206 0 206 -158q0 -56 -35 -96t-91 -52l185 -221h-70l-172 208h-106zM229 475q-29 0 -85 -2v-213h95q55 0 95 30q41 32 41 79q0 106 -146 106zM311 758l32 -39l-125 -131l-27 28z" />
    <glyph glyph-name="uniF696" unicode="&#xf696;" horiz-adv-x="517" 
d="M144 208v-208h-55v525q33 0 68 1q36 1 70 1q206 0 206 -158q0 -56 -35 -96t-91 -52l185 -221h-70l-172 208h-106zM229 475q-29 0 -85 -2v-213h95q55 0 95 30q41 32 41 79q0 106 -146 106zM230 592h-4l-137 115l26 31l113 -95l113 95l25 -31z" />
    <glyph glyph-name="uniF697" unicode="&#xf697;" horiz-adv-x="517" 
d="M144 208v-208h-55v525q33 0 68 1q36 1 70 1q206 0 206 -158q0 -56 -35 -96t-91 -52l185 -221h-70l-172 208h-106zM229 475q-29 0 -85 -2v-213h95q55 0 95 30q41 32 41 79q0 106 -146 106zM225 -71l45 16q35 -8 35 -50q0 -75 -85 -97l-15 24q48 20 48 65q0 33 -28 42z" />
    <glyph glyph-name="uniF698" unicode="&#xf698;" horiz-adv-x="473" 
d="M371 136q0 65 -111 100q-103 31 -139 54q-64 40 -64 106q0 62 48.5 99t137.5 37q47 0 97 -18q50 -16 75 -43l-26 -41q-26 23 -67.5 36.5t-81.5 13.5q-57 0 -91 -23.5t-34 -62.5q0 -60 111 -95q36 -10 56.5 -16.5t53 -21t50 -30t31.5 -41.5t13 -57q0 -63 -54 -102
q-52 -39 -132 -39q-65 0 -120 21t-84 56l32 38q64 -63 175 -63q52 0 88 25t36 67zM322 758l32 -39l-125 -131l-27 28z" />
    <glyph glyph-name="uniF699" unicode="&#xf699;" horiz-adv-x="473" 
d="M139 -174l16 27q35 -22 72 -22q31 0 50.5 12.5t19.5 33.5q0 47 -71 47h-6v69q-58 4 -106 24t-74 52l32 38q64 -63 175 -63q52 0 88 25t36 67q0 65 -111 100q-103 31 -139 54q-64 40 -64 106q0 62 48.5 99t137.5 37q47 0 97 -18q50 -16 75 -43l-26 -41q-26 23 -67.5 36.5
t-81.5 13.5q-57 0 -91 -23.5t-34 -62.5q0 -60 111 -95q36 -10 56.5 -16.5t53 -21t50 -30t31.5 -41.5t13 -57q0 -62 -52 -101t-128 -40v-42q99 -3 99 -76q0 -34 -31 -55.5t-84 -21.5q-46 0 -95 29z" />
    <glyph glyph-name="uniF69A" unicode="&#xf69a;" horiz-adv-x="473" 
d="M371 136q0 65 -111 100q-103 31 -139 54q-64 40 -64 106q0 62 48.5 99t137.5 37q47 0 97 -18q50 -16 75 -43l-26 -41q-26 23 -67.5 36.5t-81.5 13.5q-57 0 -91 -23.5t-34 -62.5q0 -60 111 -95q36 -10 56.5 -16.5t53 -21t50 -30t31.5 -41.5t13 -57q0 -63 -54 -102
q-52 -39 -132 -39q-65 0 -120 21t-84 56l32 38q64 -63 175 -63q52 0 88 25t36 67zM235 736h4l142 -114l-25 -32l-119 96l-121 -95l-26 31z" />
    <glyph glyph-name="uniF69B" unicode="&#xf69b;" horiz-adv-x="473" 
d="M371 136q0 65 -111 100q-103 31 -139 54q-64 40 -64 106q0 62 48.5 99t137.5 37q47 0 97 -18q50 -16 75 -43l-26 -41q-26 23 -67.5 36.5t-81.5 13.5q-57 0 -91 -23.5t-34 -62.5q0 -60 111 -95q36 -10 56.5 -16.5t53 -21t50 -30t31.5 -41.5t13 -57q0 -63 -54 -102
q-52 -39 -132 -39q-65 0 -120 21t-84 56l32 38q64 -63 175 -63q52 0 88 25t36 67zM208 -71l45 16q35 -8 35 -50q0 -75 -85 -97l-15 24q48 20 48 65q0 33 -28 42z" />
    <glyph glyph-name="uniF69D" unicode="&#xf69d;" horiz-adv-x="484" 
d="M245 592h-4l-137 115l26 31l113 -95l113 95l25 -31zM214 473h-206v52h468v-52h-207v-473h-55v473z" />
    <glyph glyph-name="uniF69E" unicode="&#xf69e;" horiz-adv-x="484" 
d="M214 473h-206v52h468v-52h-207v-473h-55v473zM212 -71l45 16q35 -8 35 -50q0 -75 -85 -97l-15 24q48 20 48 65q0 33 -28 42z" />
    <glyph glyph-name="uniF69F" unicode="&#xf69f;" horiz-adv-x="613" 
d="M477 525h55v-306q0 -113 -62 -170q-62 -56 -156 -56q-104 0 -169 60t-65 171v301h55v-290q0 -89 48 -139.5t131 -50.5q77 0 120 47.5t43 138.5v294zM167 697l24 27q56 -65 118 -65q65 0 117 64l20 -26q-59 -81 -139 -81q-89 0 -140 81z" />
    <glyph glyph-name="uniF6A0" unicode="&#xf6a0;" horiz-adv-x="613" 
d="M477 525h55v-306q0 -113 -62 -170q-62 -56 -156 -56q-104 0 -169 60t-65 171v301h55v-290q0 -89 48 -139.5t131 -50.5q77 0 120 47.5t43 138.5v294zM458 755l38 -29l-129 -137l-25 19zM302 759l38 -28l-115 -142l-29 19z" />
    <glyph glyph-name="uniF6A1" unicode="&#xf6a1;" horiz-adv-x="613" 
d="M477 525h55v-306q0 -113 -62 -170q-62 -56 -156 -56q-104 0 -169 60t-65 171v301h55v-290q0 -89 48 -139.5t131 -50.5q77 0 120 47.5t43 138.5v294zM432 647h-252v43h252v-43z" />
    <glyph glyph-name="uniF6A2" unicode="&#xf6a2;" horiz-adv-x="613" 
d="M477 525h55v-306q0 -82 -35 -136t-97 -76q-87 -49 -87 -100q0 -33 21.5 -48.5t51.5 -15.5q26 0 45 9l16 -33q-28 -19 -73 -19q-49 0 -81 23t-32 68q0 35 21.5 58.5t66.5 45.5q-32 -2 -35 -2q-104 0 -169 60t-65 171v301h55v-290q0 -89 48 -139.5t131 -50.5q77 0 120 47.5
t43 138.5v294z" />
    <glyph glyph-name="uniF6A3" unicode="&#xf6a3;" horiz-adv-x="613" 
d="M306 758q45 0 76 -30.5t31 -73.5t-31 -72.5t-76 -29.5q-44 0 -74.5 29.5t-30.5 72.5t30.5 73.5t74.5 30.5zM236 655q0 -31 20.5 -51.5t50.5 -20.5t50.5 20.5t20.5 51.5q0 30 -20.5 51t-50.5 21t-50.5 -21t-20.5 -51zM477 525h55v-306q0 -113 -62 -170q-62 -56 -156 -56
q-104 0 -169 60t-65 171v301h55v-290q0 -89 48 -139.5t131 -50.5q77 0 120 47.5t43 138.5v294z" />
    <glyph glyph-name="uniF6AB" unicode="&#xf6ab;" horiz-adv-x="514" 
d="M392 473h-343v52h425v-36l-360 -437h368v-52h-449v36zM339 758l32 -39l-125 -131l-27 28z" />
    <glyph glyph-name="uniF6AC" unicode="&#xf6ac;" horiz-adv-x="514" 
d="M392 473h-343v52h425v-36l-360 -437h368v-52h-449v36zM222 668q0 15 11 24t26 9q13 0 23.5 -9.5t10.5 -23.5q0 -15 -10.5 -26t-23.5 -11q-16 0 -26.5 10t-10.5 27z" />
    <glyph glyph-name="uniF6AD" unicode="&#xf6ad;" horiz-adv-x="268" 
d="M161 0h-55v525h55v-525zM99 668q0 15 11 24t26 9q13 0 23.5 -9.5t10.5 -23.5q0 -16 -10 -26.5t-24 -10.5q-16 0 -26.5 10t-10.5 27z" />
    <glyph glyph-name="uniF6BA" unicode="&#xf6ba;" horiz-adv-x="399" 
d="M314 329h-229v49h229v-49z" />
    <glyph glyph-name="uniF6BB" unicode="&#xf6bb;" horiz-adv-x="590" 
d="M496 331h-402v46h402v-46z" />
    <glyph glyph-name="uniF6BC" unicode="&#xf6bc;" horiz-adv-x="796" 
d="M702 331h-608v46h608v-46z" />
    <glyph glyph-name="uniF6C3" unicode="&#xf6c3;" horiz-adv-x="220" 
d="M80 -71l45 16q35 -8 35 -50q0 -75 -85 -97l-15 24q48 20 48 65q0 33 -28 42z" />
    <glyph glyph-name="uniF6C9" unicode="&#xf6c9;" horiz-adv-x="318" 
d="M239 868l19 -44l-182 -86l-16 31z" />
    <glyph glyph-name="uniF6CA" unicode="&#xf6ca;" horiz-adv-x="463" 
d="M235 740h-4l-171 98l23 30l150 -83l149 83l21 -29z" />
    <glyph glyph-name="uniF6CB" unicode="&#xf6cb;" horiz-adv-x="427" 
d="M60 804q0 15 11 23.5t27 8.5q15 0 25.5 -9t10.5 -23q0 -15 -10.5 -24.5t-25.5 -9.5q-16 0 -27 9.5t-11 24.5zM293 804q0 15 11.5 23.5t27.5 8.5q15 0 25 -9t10 -23q0 -15 -10 -24.5t-25 -9.5q-17 0 -28 9t-11 25z" />
    <glyph glyph-name="uniF6CE" unicode="&#xf6ce;" horiz-adv-x="318" 
d="M258 769l-15 -31l-183 86l20 44z" />
    <glyph glyph-name="uniF6CF" unicode="&#xf6cf;" horiz-adv-x="486" 
d="M391 868l35 -33l-169 -97l-22 24zM199 868l42 -25l-158 -105l-23 22z" />
    <glyph glyph-name="uniF6D0" unicode="&#xf6d0;" horiz-adv-x="420" 
d="M360 778h-300v43h300v-43z" />
    <glyph glyph-name="uniF6D1" unicode="&#xf6d1;" horiz-adv-x="470" 
d="M60 852h52q36 -71 125 -71q43 0 77 19.5t44 51.5h52q-10 -48 -60 -80q-49 -31 -113 -31q-67 0 -115.5 31t-61.5 80z" />
    <glyph glyph-name="uniF6D4" unicode="&#xf6d4;" horiz-adv-x="396" 
d="M60 684h47q0 -37 26 -62.5t67 -25.5q39 0 64 25.5t25 62.5h47q0 -55 -38 -91.5t-98 -36.5q-64 0 -102 35.5t-38 92.5z" />
    <glyph glyph-name="uniF6DC" unicode="&#xf6dc;" horiz-adv-x="589" 
d="M176 537l-28 42l159 127h36v-706h-52v630z" />
    <glyph glyph-name="uniF6DE" unicode="&#xf6de;" horiz-adv-x="597" 
d="M526 247h-456v46h456v-46z" />
    <glyph glyph-name="uniF6F4" unicode="&#xf6f4;" horiz-adv-x="399" 
d="M60 697l24 27q56 -65 118 -65q65 0 117 64l20 -26q-59 -81 -139 -81q-89 0 -140 81z" />
    <glyph glyph-name="uniF6F5" unicode="&#xf6f5;" horiz-adv-x="397" 
d="M201 592h-4l-137 115l26 31l113 -95l113 95l25 -31z" />
    <glyph glyph-name="uniF6F6" unicode="&#xf6f6;" horiz-adv-x="411" 
d="M205 736h4l142 -114l-25 -32l-119 96l-121 -95l-26 31z" />
    <glyph glyph-name="uniF6F7" unicode="&#xf6f7;" horiz-adv-x="191" 
d="M60 668q0 15 11 24t26 9q13 0 23.5 -9.5t10.5 -23.5q0 -15 -10.5 -26t-23.5 -11q-16 0 -26.5 10t-10.5 27z" />
    <glyph glyph-name="uniF6F8" unicode="&#xf6f8;" horiz-adv-x="420" 
d="M322 755l38 -29l-129 -137l-25 19zM166 759l38 -28l-115 -142l-29 19z" />
    <glyph glyph-name="uniF6F9" unicode="&#xf6f9;" horiz-adv-x="453" 
d="M89 198l-69 -34v55l69 34v272h55v-244l119 59v-54l-119 -60v-171h292v-55h-347v198z" />
    <glyph glyph-name="uniF6FA" unicode="&#xf6fa;" horiz-adv-x="856" 
d="M797 0h-332v29q-61 -37 -143 -37q-125 0 -202 74t-77 196q0 116 75 193t200 77q82 0 147 -36v29h324v-52h-269v-181h244v-52h-244v-188h277v-52zM326 44q80 0 139 42v353q-56 41 -143 41q-99 0 -160 -61t-61 -157q0 -98 62 -158q63 -60 163 -60z" />
    <glyph glyph-name="uniF6FB" unicode="&#xf6fb;" horiz-adv-x="306" 
d="M230 -148l16 -33q-28 -19 -73 -19q-49 0 -81 23t-32 68q0 56 55 90q55 33 124 33v-14q-49 0 -88 -27t-39 -66q0 -33 21.5 -48.5t51.5 -15.5q25 0 45 9z" />
    <glyph glyph-name="uniF6FC" unicode="&#xf6fc;" horiz-adv-x="332" 
d="M165 758q45 0 76 -30.5t31 -73.5t-31 -72.5t-76 -29.5q-44 0 -74.5 29.5t-30.5 72.5t30.5 73.5t74.5 30.5zM95 655q0 -31 20.5 -51.5t50.5 -20.5t50.5 20.5t20.5 51.5q0 30 -20.5 51t-50.5 21t-50.5 -21t-20.5 -51z" />
    <glyph glyph-name="uniF6FD" unicode="&#xf6fd;" horiz-adv-x="473" 
d="M371 136q0 65 -111 100q-103 31 -139 54q-64 40 -64 106q0 62 48.5 99t137.5 37q47 0 97 -18q50 -16 75 -43l-26 -41q-26 23 -67.5 36.5t-81.5 13.5q-57 0 -91 -23.5t-34 -62.5q0 -60 111 -95q36 -10 56.5 -16.5t53 -21t50 -30t31.5 -41.5t13 -57q0 -63 -54 -102
q-52 -39 -132 -39q-65 0 -120 21t-84 56l32 38q64 -63 175 -63q52 0 88 25t36 67zM238 592h-4l-137 115l26 31l113 -95l113 95l25 -31z" />
    <glyph glyph-name="uniF6FE" unicode="&#xf6fe;" horiz-adv-x="425" 
d="M83 616l-23 25q52 52 101 52q23 0 57 -23q35 -23 54 -23q30 0 74 38l19 -27q-53 -54 -98 -54q-21 0 -56 23q-34 23 -56 23q-29 0 -72 -34z" />
    <glyph glyph-name="uniF6FF" unicode="&#xf6ff;" horiz-adv-x="514" 
d="M258 592h-4l-137 115l26 31l113 -95l113 95l25 -31zM392 473h-343v52h425v-36l-360 -437h368v-52h-449v36z" />
    <glyph glyph-name="uniF730" unicode="&#xf730;" horiz-adv-x="620" 
d="M124 67q-70 76 -70 183q0 106 70 182q71 77 186 77t186 -77q70 -76 70 -182q0 -107 -70 -183t-186 -76t-186 76zM109 250q0 -86 55 -147q56 -60 146 -60t146 60q55 61 55 147t-56 147q-56 60 -145 60q-90 0 -146 -60q-55 -59 -55 -147z" />
    <glyph glyph-name="uniF731" unicode="&#xf731;" horiz-adv-x="368" 
d="M67 352l-19 46l156 110h35v-508h-55v439z" />
    <glyph glyph-name="uniF732" unicode="&#xf732;" horiz-adv-x="526" 
d="M468 0h-417v40q105 42 208 109q123 84 123 180q0 59 -34.5 94t-97.5 35q-54 0 -96.5 -32.5t-54.5 -90.5l-36 30q14 68 68 106q55 39 119 39q90 0 137 -46.5t47 -124.5q0 -84 -71 -160q-23 -26 -67 -59q-64 -47 -120 -68h292v-52z" />
    <glyph glyph-name="uniF733" unicode="&#xf733;" horiz-adv-x="533" 
d="M249 -209q-71 0 -124.5 30.5t-79.5 90.5l31 36q25 -52 71 -78.5t102 -26.5q71 0 114.5 42t43.5 108q0 62 -43 100.5t-109 38.5h-60v52h54q50 0 91 41q40 40 40 101q0 62 -35.5 96.5t-98.5 34.5q-107 0 -152 -96l-31 33q21 55 70.5 85t116.5 30q86 0 135.5 -47t49.5 -129
q0 -57 -29.5 -102.5t-81.5 -66.5v-3q64 -9 101 -58t37 -112q0 -91 -60 -145q-59 -55 -153 -55z" />
    <glyph glyph-name="uniF734" unicode="&#xf734;" horiz-adv-x="538" 
d="M401 -200h-52v200h-325v35l298 465h60l-288 -448h255v213h52v-213h103v-52h-103v-200z" />
    <glyph glyph-name="uniF735" unicode="&#xf735;" horiz-adv-x="518" 
d="M113 164l43 336h304v-52h-259l-30 -228q31 9 69 9q98 0 159 -58q62 -59 62 -154q0 -102 -63 -164q-64 -62 -154 -62q-62 0 -115.5 29t-83.5 82l31 37q26 -45 72.5 -70.5t96.5 -25.5q69 0 115 49q46 47 46 123q0 73 -52 119q-51 48 -135 48q-59 0 -106 -18z" />
    <glyph glyph-name="uniF736" unicode="&#xf736;" horiz-adv-x="550" 
d="M54 248q0 90 30 173t80 142q106 120 227 146l22 -39q-108 -25 -194 -119q-85 -93 -105 -236q24 52 71 83t111 31q90 0 146 -60q57 -60 57 -156q0 -95 -63 -159q-62 -63 -145 -63q-112 0 -175 74q-62 74 -62 183zM109 248q0 -85 47 -146q47 -59 134 -59q64 0 109 49
q45 50 45 117q0 76 -44 123.5t-120 47.5q-66 0 -112 -41t-59 -91z" />
    <glyph glyph-name="uniF737" unicode="&#xf737;" horiz-adv-x="475" 
d="M374 448h-340v52h404v-32l-266 -668h-58z" />
    <glyph glyph-name="uniF738" unicode="&#xf738;" horiz-adv-x="591" 
d="M280 386h31q49 0 90 39q40 40 40 96q0 61 -44 99q-43 37 -103 37q-61 0 -102 -37q-42 -38 -42 -99q0 -56 40 -96q40 -39 90 -39zM310 334h-26q-66 0 -112 -42q-46 -40 -46 -102q0 -64 49 -106q50 -41 120 -41q74 0 121 40q49 40 49 107q0 65 -44 104.5t-111 39.5zM71 181
q0 64 39 113t103 64v3q-49 15 -84 62q-34 47 -34 104q0 82 58 131q59 51 142 51q85 0 143 -51q58 -49 58 -131q0 -54 -33 -99.5t-88 -65.5v-3q64 -8 104 -57q41 -49 41 -117q0 -89 -66 -142q-64 -52 -158 -52t-159 52q-66 53 -66 138z" />
    <glyph glyph-name="uniF739" unicode="&#xf739;" horiz-adv-x="548" 
d="M494 249q0 -191 -96 -314t-246 -144l-19 41q125 22 207 115q80 91 94 235q-21 -49 -68 -78t-110 -29q-91 0 -150 62q-58 61 -58 152q0 94 66 157t150 63q113 0 171 -73q59 -74 59 -187zM439 249q0 86 -44 147q-43 61 -129 61q-65 0 -114 -49q-49 -48 -49 -115
q0 -70 44 -120q43 -49 122 -49q69 0 112 37q44 37 58 88z" />
    <glyph glyph-name="uniF760" unicode="&#xf760;" horiz-adv-x="272" 
d="M212 616l-27 -28l-125 131l33 39z" />
    <glyph glyph-name="uniF761" unicode="&#xf761;" horiz-adv-x="574" 
d="M73 0h-56l247 529h46l247 -529h-59l-77 167h-271zM397 218l-112 243l-112 -243h224z" />
    <glyph glyph-name="uniF762" unicode="&#xf762;" horiz-adv-x="512" 
d="M89 1v523q111 4 161 4q182 0 182 -130q0 -48 -30 -81.5t-79 -42.5v-1q63 -7 96.5 -38.5t33.5 -85.5q0 -76 -56 -114t-149 -38q-100 0 -159 4zM255 243h-111v-190q75 -4 107 -4q147 0 147 102q0 44 -37 68t-106 24zM249 476q-39 0 -105 -3v-181h112q52 0 86.5 26t34.5 67
q0 91 -128 91z" />
    <glyph glyph-name="uniF763" unicode="&#xf763;" horiz-adv-x="535" 
d="M484 92l22 -42q-29 -27 -77.5 -42.5t-100.5 -15.5q-130 0 -207 73q-78 73 -78 197q0 116 75 192q76 78 204 78q103 0 173 -50l-26 -41q-61 39 -147 39q-99 0 -160 -61t-61 -157q0 -98 63 -158q64 -60 168 -60q88 0 152 48z" />
    <glyph glyph-name="uniF764" unicode="&#xf764;" horiz-adv-x="602" 
d="M96 0h-7v525h9q35 0 67 1t74 1q161 0 241 -72q79 -70 79 -186q0 -119 -85 -195t-242 -76q-34 0 -65 1t-71 1zM237 475q-11 0 -93 -2v-421q25 0 47 -0.5t32 -1t11 -0.5q127 0 197 60q70 61 70 159q0 95 -67.5 150.5t-196.5 55.5z" />
    <glyph glyph-name="uniF765" unicode="&#xf765;" horiz-adv-x="481" 
d="M421 0h-332v525h324v-52h-269v-181h245v-52h-245v-188h277v-52z" />
    <glyph glyph-name="uniF766" unicode="&#xf766;" horiz-adv-x="447" 
d="M144 0h-55v525h325v-52h-270v-197h246v-52h-246v-224z" />
    <glyph glyph-name="uniF767" unicode="&#xf767;" horiz-adv-x="593" 
d="M490 212h-162v49h214v-197q-37 -34 -97 -53t-116 -19q-131 0 -208 73q-78 73 -78 197q0 115 77 192q76 78 201 78q107 0 178 -50l-25 -44q-55 42 -146 42q-102 0 -164 -61q-63 -60 -63 -157q0 -99 63 -159q65 -59 166 -59t160 50v118z" />
    <glyph glyph-name="uniF768" unicode="&#xf768;" horiz-adv-x="633" 
d="M544 0h-55v242h-345v-242h-55v525h55v-231h345v231h55v-525z" />
    <glyph glyph-name="uniF769" unicode="&#xf769;" horiz-adv-x="268" 
d="M161 0h-55v525h55v-525z" />
    <glyph glyph-name="uniF76A" unicode="&#xf76a;" horiz-adv-x="299" 
d="M155 525h55v-407q0 -125 -118 -125q-51 0 -82 26l19 43q26 -17 55 -17q38 0 54.5 20t16.5 61v399z" />
    <glyph glyph-name="uniF76B" unicode="&#xf76b;" horiz-adv-x="529" 
d="M425 525h72l-263 -247l274 -278h-75l-267 274zM144 0h-55v525h55v-525z" />
    <glyph glyph-name="uniF76C" unicode="&#xf76c;" horiz-adv-x="453" 
d="M436 0h-347v525h55v-470h292v-55z" />
    <glyph glyph-name="uniF76D" unicode="&#xf76d;" horiz-adv-x="724" 
d="M144 0h-55v525h56l223 -276l214 276h53v-525h-55v442l-212 -270h-8l-216 267v-439z" />
    <glyph glyph-name="uniF76E" unicode="&#xf76e;" horiz-adv-x="650" 
d="M561 525v-525h-44l-376 434v-434h-52v525h44l376 -435v435h52z" />
    <glyph glyph-name="uniF76F" unicode="&#xf76f;" horiz-adv-x="650" 
d="M43 262q0 115 80 192q80 78 202 78t201 -76q81 -76 81 -194q0 -116 -81 -193q-80 -77 -201 -77q-123 0 -202 76q-80 77 -80 194zM101 262q0 -93 64 -156q65 -62 160 -62q99 0 161 62q63 62 63 156t-65 156t-159 62q-95 0 -160 -62q-64 -61 -64 -156z" />
    <glyph glyph-name="uniF770" unicode="&#xf770;" horiz-adv-x="481" 
d="M144 196v-196h-55v525q33 0 70 1t73 1q106 0 156 -44.5t50 -121.5q0 -75 -53 -121.5t-150 -46.5q-45 0 -91 3zM237 475q-31 0 -93 -2v-224q53 -4 88 -4q71 0 109.5 31t38.5 85q0 114 -143 114z" />
    <glyph glyph-name="uniF771" unicode="&#xf771;" horiz-adv-x="650" 
d="M43 262q0 115 80 192q80 78 202 78t201 -76q81 -76 81 -194q0 -117 -84 -196l60 -66h-65l-33 36q-71 -44 -160 -44q-123 0 -202 76q-80 77 -80 194zM101 262q0 -93 64 -156q65 -62 160 -62q71 0 123 33l-48 54l37 33l50 -57q62 62 62 155q0 94 -65 156t-159 62
q-95 0 -160 -62q-64 -61 -64 -156z" />
    <glyph glyph-name="uniF772" unicode="&#xf772;" horiz-adv-x="517" 
d="M144 208v-208h-55v525q33 0 68 1q36 1 70 1q206 0 206 -158q0 -56 -35 -96t-91 -52l185 -221h-70l-172 208h-106zM229 475q-29 0 -85 -2v-213h95q55 0 95 30q41 32 41 79q0 106 -146 106z" />
    <glyph glyph-name="uniF773" unicode="&#xf773;" horiz-adv-x="473" 
d="M371 136q0 65 -111 100q-103 31 -139 54q-64 40 -64 106q0 62 48.5 99t137.5 37q47 0 97 -18q50 -16 75 -43l-26 -41q-26 23 -67.5 36.5t-81.5 13.5q-57 0 -91 -23.5t-34 -62.5q0 -60 111 -95q36 -10 56.5 -16.5t53 -21t50 -30t31.5 -41.5t13 -57q0 -63 -54 -102
q-52 -39 -132 -39q-65 0 -120 21t-84 56l32 38q64 -63 175 -63q52 0 88 25t36 67z" />
    <glyph glyph-name="uniF774" unicode="&#xf774;" horiz-adv-x="484" 
d="M214 473h-206v52h468v-52h-207v-473h-55v473z" />
    <glyph glyph-name="uniF775" unicode="&#xf775;" horiz-adv-x="613" 
d="M477 525h55v-306q0 -113 -62 -170q-62 -56 -156 -56q-104 0 -169 60t-65 171v301h55v-290q0 -89 48 -139.5t131 -50.5q77 0 120 47.5t43 138.5v294z" />
    <glyph glyph-name="uniF776" unicode="&#xf776;" horiz-adv-x="536" 
d="M469 525h59l-237 -529h-40l-244 529h62l204 -452z" />
    <glyph glyph-name="uniF777" unicode="&#xf777;" horiz-adv-x="785" 
d="M720 525h55l-166 -525h-49l-165 435l-160 -435h-51l-174 525h62l142 -436l157 436h52l161 -437z" />
    <glyph glyph-name="uniF778" unicode="&#xf778;" horiz-adv-x="539" 
d="M443 525h68l-206 -258l214 -267h-68l-182 225l-181 -225h-68l214 267l-205 258h68l173 -216z" />
    <glyph glyph-name="uniF779" unicode="&#xf779;" horiz-adv-x="483" 
d="M410 525h63l-205 -298v-227h-55v227l-203 298h67l166 -246z" />
    <glyph glyph-name="uniF77A" unicode="&#xf77a;" horiz-adv-x="514" 
d="M392 473h-343v52h425v-36l-360 -437h368v-52h-449v36z" />
    <glyph glyph-name="uniF7A8" unicode="&#xf7a8;" horiz-adv-x="360" 
d="M60 661q0 13 9.5 22t23.5 9q12 0 21.5 -9t9.5 -22q0 -14 -9.5 -23.5t-21.5 -9.5q-14 0 -23.5 9t-9.5 24zM236 661q0 13 9.5 22t23.5 9q12 0 21.5 -9t9.5 -22q0 -15 -9 -24t-22 -9q-14 0 -23.5 9t-9.5 24z" />
    <glyph glyph-name="uniF7AF" unicode="&#xf7af;" horiz-adv-x="372" 
d="M312 647h-252v43h252v-43z" />
    <glyph glyph-name="uniF7B4" unicode="&#xf7b4;" horiz-adv-x="272" 
d="M180 758l32 -39l-125 -131l-27 28z" />
    <glyph glyph-name="uniF7B8" unicode="&#xf7b8;" horiz-adv-x="330" 
d="M60 -174l16 27q35 -22 72 -22q31 0 50.5 12.5t19.5 33.5q0 47 -71 47h-6v76h30v-50q99 -3 99 -76q0 -34 -31 -55.5t-84 -21.5q-46 0 -95 29z" />
    <glyph glyph-name="uniF7E0" unicode="&#xf7e0;" horiz-adv-x="574" 
d="M73 0h-56l247 529h46l247 -529h-59l-77 167h-271zM397 218l-112 243l-112 -243h224zM338 616l-27 -28l-125 131l33 39z" />
    <glyph glyph-name="uniF7E1" unicode="&#xf7e1;" horiz-adv-x="574" 
d="M73 0h-56l247 529h46l247 -529h-59l-77 167h-271zM397 218l-112 243l-112 -243h224zM360 758l32 -39l-125 -131l-27 28z" />
    <glyph glyph-name="uniF7E2" unicode="&#xf7e2;" horiz-adv-x="574" 
d="M73 0h-56l247 529h46l247 -529h-59l-77 167h-271zM397 218l-112 243l-112 -243h224zM286 736h4l142 -114l-25 -32l-119 96l-121 -95l-26 31z" />
    <glyph glyph-name="uniF7E3" unicode="&#xf7e3;" horiz-adv-x="574" 
d="M73 0h-56l247 529h46l247 -529h-59l-77 167h-271zM397 218l-112 243l-112 -243h224zM157 616l-23 25q52 52 101 52q23 0 57 -23q35 -23 54 -23q30 0 74 38l19 -27q-53 -54 -98 -54q-21 0 -56 23q-34 23 -56 23q-29 0 -72 -34z" />
    <glyph glyph-name="uniF7E4" unicode="&#xf7e4;" horiz-adv-x="574" 
d="M73 0h-56l247 529h46l247 -529h-59l-77 167h-271zM397 218l-112 243l-112 -243h224zM167 661q0 13 9.5 22t23.5 9q12 0 21.5 -9t9.5 -22q0 -14 -9.5 -23.5t-21.5 -9.5q-14 0 -23.5 9t-9.5 24zM343 661q0 13 9.5 22t23.5 9q12 0 21.5 -9t9.5 -22q0 -15 -9.5 -24t-21.5 -9
q-14 0 -23.5 9t-9.5 24z" />
    <glyph glyph-name="uniF7E5" unicode="&#xf7e5;" horiz-adv-x="574" 
d="M73 0h-56l247 529h46l247 -529h-59l-77 167h-271zM397 218l-112 243l-112 -243h224zM286 762q45 0 76 -30.5t31 -73.5t-31 -72.5t-76 -29.5q-44 0 -74.5 29.5t-30.5 72.5t30.5 73.5t74.5 30.5zM216 659q0 -31 20.5 -51.5t50.5 -20.5t50.5 20.5t20.5 51.5q0 30 -20.5 51
t-50.5 21t-50.5 -21t-20.5 -51z" />
    <glyph glyph-name="uniF7E6" unicode="&#xf7e6;" horiz-adv-x="786" 
d="M727 0h-326v170h-215l-130 -170h-64l170 217l240 308h316v-52h-262v-181h238v-52h-238v-188h271v-52zM401 222v224l-173 -224h173z" />
    <glyph glyph-name="uniF7E7" unicode="&#xf7e7;" horiz-adv-x="535" 
d="M206 -174l16 27q35 -22 72 -22q31 0 50.5 12.5t19.5 33.5q0 47 -71 47h-6v71q-111 10 -178 82q-66 72 -66 185q0 116 75 192q76 78 204 78q103 0 173 -50l-26 -41q-61 39 -147 39q-99 0 -160 -61t-61 -157q0 -98 63 -158q64 -60 168 -60q88 0 152 48l22 -42
q-29 -27 -77.5 -42.5t-100.5 -15.5h-11v-42q99 -3 99 -76q0 -34 -31 -55.5t-84 -21.5q-46 0 -95 29z" />
    <glyph glyph-name="uniF7E8" unicode="&#xf7e8;" horiz-adv-x="481" 
d="M421 0h-332v525h324v-52h-269v-181h245v-52h-245v-188h277v-52zM304 616l-27 -28l-125 131l33 39z" />
    <glyph glyph-name="uniF7E9" unicode="&#xf7e9;" horiz-adv-x="481" 
d="M421 0h-332v525h324v-52h-269v-181h245v-52h-245v-188h277v-52zM327 758l32 -39l-125 -131l-27 28z" />
    <glyph glyph-name="uniF7EA" unicode="&#xf7ea;" horiz-adv-x="481" 
d="M252 736h4l142 -114l-25 -32l-119 96l-121 -95l-26 31zM421 0h-332v525h324v-52h-269v-181h245v-52h-245v-188h277v-52z" />
    <glyph glyph-name="uniF7EB" unicode="&#xf7eb;" horiz-adv-x="481" 
d="M421 0h-332v525h324v-52h-269v-181h245v-52h-245v-188h277v-52zM129 661q0 13 9.5 22t23.5 9q12 0 21.5 -9t9.5 -22q0 -14 -9.5 -23.5t-21.5 -9.5q-14 0 -23.5 9t-9.5 24zM305 661q0 13 9.5 22t23.5 9q12 0 21.5 -9t9.5 -22q0 -15 -9.5 -24t-21.5 -9q-14 0 -23.5 9
t-9.5 24z" />
    <glyph glyph-name="uniF7EC" unicode="&#xf7ec;" horiz-adv-x="268" 
d="M180 616l-27 -28l-125 131l33 39zM161 0h-55v525h55v-525z" />
    <glyph glyph-name="uniF7ED" unicode="&#xf7ed;" horiz-adv-x="268" 
d="M161 0h-55v525h55v-525zM219 758l32 -39l-125 -131l-27 28z" />
    <glyph glyph-name="uniF7EE" unicode="&#xf7ee;" horiz-adv-x="268" 
d="M134 736h4l142 -114l-25 -32l-119 96l-121 -95l-26 31zM161 0h-55v525h55v-525z" />
    <glyph glyph-name="uniF7EF" unicode="&#xf7ef;" horiz-adv-x="268" 
d="M14 661q0 13 9.5 22t23.5 9q12 0 21.5 -9t9.5 -22q0 -14 -9.5 -23.5t-21.5 -9.5q-14 0 -23.5 9t-9.5 24zM190 661q0 13 9.5 22t23.5 9q12 0 21.5 -9t9.5 -22q0 -15 -9 -24t-22 -9q-14 0 -23.5 9t-9.5 24zM161 0h-55v525h55v-525z" />
    <glyph glyph-name="uniF7F0" unicode="&#xf7f0;" horiz-adv-x="617" 
d="M103 244h-95v49h95v232h10q35 0 68 1t79 1q158 0 235 -73q79 -73 79 -185q0 -118 -84 -194q-83 -77 -234 -77q-41 0 -74 1q-32 1 -71 1h-8v244zM260 475q-3 0 -102 -3v-179h159v-49h-159v-192h24.5t25 -0.5l22 -1t16.5 -0.5h7q127 0 194 61q69 61 69 158q0 95 -66 150.5
t-190 55.5z" />
    <glyph glyph-name="uniF7F1" unicode="&#xf7f1;" horiz-adv-x="650" 
d="M561 525v-525h-44l-376 434v-434h-52v525h44l376 -435v435h52zM191 616l-23 25q52 52 101 52q23 0 57 -23q35 -23 54 -23q30 0 74 38l19 -27q-53 -54 -98 -54q-21 0 -56 23q-34 23 -56 23q-29 0 -72 -34z" />
    <glyph glyph-name="uniF7F2" unicode="&#xf7f2;" horiz-adv-x="650" 
d="M43 262q0 115 80 192q80 78 202 78t201 -76q81 -76 81 -194q0 -116 -81 -193q-80 -77 -201 -77q-123 0 -202 76q-80 77 -80 194zM101 262q0 -93 64 -156q65 -62 160 -62q99 0 161 62q63 62 63 156t-65 156t-159 62q-95 0 -160 -62q-64 -61 -64 -156zM368 616l-27 -28
l-125 131l33 39z" />
    <glyph glyph-name="uniF7F3" unicode="&#xf7f3;" horiz-adv-x="650" 
d="M43 262q0 115 80 192q80 78 202 78t201 -76q81 -76 81 -194q0 -116 -81 -193q-80 -77 -201 -77q-123 0 -202 76q-80 77 -80 194zM101 262q0 -93 64 -156q65 -62 160 -62q99 0 161 62q63 62 63 156t-65 156t-159 62q-95 0 -160 -62q-64 -61 -64 -156zM403 758l32 -39
l-125 -131l-27 28z" />
    <glyph glyph-name="uniF7F4" unicode="&#xf7f4;" horiz-adv-x="650" 
d="M325 736h4l142 -114l-25 -32l-119 96l-121 -95l-26 31zM43 262q0 115 80 192q80 78 202 78t201 -76q81 -76 81 -194q0 -116 -81 -193q-80 -77 -201 -77q-123 0 -202 76q-80 77 -80 194zM101 262q0 -93 64 -156q65 -62 160 -62q99 0 161 62q63 62 63 156t-65 156t-159 62
q-95 0 -160 -62q-64 -61 -64 -156z" />
    </font>
</defs>
</svg>
