<?xml version="1.0" standalone="no"?>
<!DOCTYPE svg PUBLIC "-//W3C//DTD SVG 1.1//EN" "http://www.w3.org/Graphics/SVG/1.1/DTD/svg11.dtd" >
<svg>
<metadata>
Created by FontForge 20090622 at Tue Jun 20 09:42:05 2017
 By deploy user
Copyright (c) 2016 by Tanya Cherkiz &#38; Jovanny Lemonad. All rights reserved.
</metadata>
<defs>
<font id="Magnolia-Script" horiz-adv-x="451" >
  <font-face 
    font-family="Magnolia Script"
    font-weight="400"
    font-stretch="normal"
    units-per-em="1000"
    panose-1="2 0 5 3 7 0 0 2 0 3"
    ascent="800"
    descent="-200"
    x-height="500"
    cap-height="750"
    bbox="-305 -350 1319 1087"
    underline-thickness="50"
    underline-position="-50"
    unicode-range="U+0020-U+FB02"
  />
<missing-glyph horiz-adv-x="0" 
 />
    <glyph glyph-name="f_f" unicode="ff" horiz-adv-x="547" 
d="M0 500h46l17 98q21 123 75.5 177.5t143.5 54.5q40 0 65 -18.5t32 -45.5q55 64 153 64q64 0 99.5 -32.5t35.5 -80.5q0 -46 -24.5 -75t-63.5 -29q-16 0 -28.5 6t-16.5 12l-4 6q41 41 41 99q0 44 -39 44q-27 0 -50.5 -33t-35.5 -107l-24 -140h100q7 -8 7 -21q0 -29 -34 -29
h-82l-110 -624q-17 -95 -57 -135.5t-107 -40.5q-38 0 -59.5 16t-21.5 41q0 9 2 16t4 9l2 3q13 -13 35 -13q29 0 47.5 23.5t28.5 81.5l108 623h-120l-110 -624q-17 -95 -57 -135.5t-107 -40.5q-38 0 -59.5 16t-21.5 41q0 9 2 16t4 9l2 3q13 -13 35 -13q29 0 47.5 23.5
t28.5 81.5l108 623h-64q-7 8 -7 21q0 29 34 29zM174 500h120l17 98q15 87 15 114q0 68 -42 68q-27 0 -50.5 -33t-35.5 -107z" />
    <glyph glyph-name="f_i" unicode="fi" horiz-adv-x="533" 
d="M255 220l32 185q3 15 5 45h-127l-110 -624q-17 -95 -57 -135.5t-107 -40.5q-38 0 -59.5 16t-21.5 41q0 9 2 16t4 9l2 3q13 -13 35 -13q29 0 47.5 23.5t28.5 81.5l108 623h-64q-7 8 -7 21q0 29 34 29h46l17 98q21 123 76.5 177.5t144.5 54.5q76 0 119 -36t43 -98
q0 -46 -24.5 -76t-63.5 -30q-16 0 -28 6t-16 12l-5 6q41 41 41 99q0 67 -50 67q-78 0 -102 -140l-24 -140h166q55 0 69.5 -22t4.5 -77l-39 -226q-15 -88 43 -88q26 0 56 24t49 63q23 0 19 -26q-9 -47 -61 -97.5t-118 -50.5q-53 0 -85 33t-32 92q0 44 9 95z" />
    <glyph glyph-name="f_l" unicode="fl" horiz-adv-x="539" 
d="M0 500h46l17 98q40 232 221 232q206 0 167 -221l-76 -434q-15 -88 43 -88q31 0 61.5 23.5t49.5 63.5q23 0 19 -26q-9 -47 -63.5 -97.5t-121.5 -50.5q-53 0 -85 33t-32 92q0 44 9 95l64 369q16 94 16 121q0 70 -51 70q-27 0 -50.5 -33t-35.5 -107l-24 -140h78q7 -8 7 -21
q0 -29 -34 -29h-60l-110 -624q-17 -95 -57 -135.5t-107 -40.5q-38 0 -59.5 16t-21.5 41q0 9 2 16t4 9l2 3q13 -13 35 -13q29 0 47.5 23.5t28.5 81.5l108 623h-64q-7 8 -7 21q0 29 34 29z" />
    <glyph glyph-name="q_j" unicode="qj" horiz-adv-x="820" 
d="M443 418l-113 -639q-5 -30 4.5 -46.5t28.5 -16.5q93 0 135 244l75 445q5 28 5 49.5t-2 29.5l-2 7q15 9 52 9q55 0 69.5 -22t4.5 -77l-66 -390q-62 -361 -280 -361q-86 0 -120.5 53t-17.5 153l42 236q-61 -92 -141 -92q-65 0 -106 44t-41 128q0 156 75 242t172 86
q69 0 109 -50q11 27 32 38.5t58 11.5q15 0 27.5 -2.5t17.5 -5.5l5 -2q-13 -18 -23 -72zM157 87q33 0 64 43t49.5 97t29.5 110l9 47q-22 48 -66 48q-55 0 -100 -73.5t-45 -188.5q0 -83 59 -83zM608 650q0 30 20.5 51t49.5 21q28 0 45 -18t17 -45q0 -28 -20 -48.5t-52 -20.5
q-27 0 -43.5 17t-16.5 43z" />
    <glyph glyph-name="f_k" unicode="fk" horiz-adv-x="765" 
d="M451 609l-61 -347h40q32 0 60 57l39 80q29 58 55 79.5t60 21.5q30 0 47.5 -18.5t17.5 -49.5q0 -20 -8.5 -37t-17.5 -25l-9 -7q-1 4 -3.5 10t-15 16t-29.5 10q-42 0 -70 -60l-17 -36q-13 -29 -35 -45q50 -12 68 -65l11 -35q22 -71 75 -71q31 0 60.5 25t46.5 62
q23 0 19 -26q-8 -46 -61 -97t-118 -51q-104 0 -139 117l-16 53q-14 43 -48 43h-21l-20 -118q-5 -28 -5 -49.5t2 -29.5l2 -7q-15 -9 -52 -9q-55 0 -69.5 22t-4.5 77l85 490q16 94 16 121q0 70 -51 70q-27 0 -50.5 -33t-35.5 -107l-24 -140h78q7 -8 7 -21q0 -29 -34 -29h-60
l-110 -624q-17 -95 -57 -135.5t-107 -40.5q-38 0 -59.5 16t-21.5 41q0 9 2 16t4 9l2 3q13 -13 35 -13q29 0 47.5 23.5t28.5 81.5l108 623h-64q-7 8 -7 21q0 29 34 29h46l17 98q40 232 221 232q206 0 167 -221z" />
    <glyph glyph-name="f_j" unicode="fj" horiz-adv-x="531" 
d="M0 500h46l17 98q21 123 76.5 177.5t144.5 54.5q76 0 119 -36t43 -98q0 -46 -24.5 -76t-63.5 -30q-16 0 -28 6t-16 12l-5 6q41 41 41 99q0 67 -50 67q-78 0 -102 -140l-24 -140h165q55 0 69.5 -22t4.5 -77l-66 -390q-61 -361 -280 -361q-49 0 -84 27q-36 -27 -92 -27
q-38 0 -59.5 16t-21.5 41q0 9 2 16t4 9l2 3q13 -13 35 -13q29 0 47.5 23.5t28.5 81.5l108 623h-64q-7 8 -7 21q0 29 34 29zM55 -174q-10 -59 -30 -97q14 -7 32 -7q54 0 94.5 60t59.5 178l80 490h-126z" />
    <glyph glyph-name="T_j" unicode="Tj" horiz-adv-x="815" 
d="M245 750q47 0 166.5 -11.5t228.5 -11.5q26 0 49.5 4t34.5 8l10 4q11 -11 11 -39q0 -44 -27.5 -76.5t-82.5 -32.5q-32 0 -62 9t-64.5 24.5t-53.5 21.5l-95 -545q-5 -31 -5.5 -55t1.5 -32l3 -8q-16 -10 -57 -10q-54 0 -69.5 24.5t-5.5 84.5l94 537l5 39q-52 10 -83 10
q-65 0 -102.5 -31.5t-37.5 -76.5q0 -21 10.5 -33.5t29.5 -12.5l17 3q1 -3 1 -9q0 -21 -20.5 -38.5t-55.5 -17.5q-48 0 -76.5 27.5t-28.5 72.5q0 77 68 124t197 47zM696 401l-54 -317q103 41 163 90q10 0 15.5 -6.5t3.5 -16.5q-3 -13 -33 -36q-52 -40 -159 -92l-2 -12
q-61 -361 -280 -361q-51 0 -81.5 29t-30.5 76q0 83 84 155q62 53 183 113l64 382q5 28 5 49.5t-2 29.5l-2 7q15 9 52 9q55 0 69.5 -22t4.5 -77zM340 -284q53 0 92.5 62t61.5 182q-98 -51 -141 -92q-59 -57 -59 -107q0 -20 12 -32.5t34 -12.5z" />
    <glyph glyph-name="F_j" unicode="Fj" horiz-adv-x="850" 
d="M253 750q44 0 178 -11.5t245 -11.5q26 0 49.5 4t34.5 8l10 4q11 -11 11 -39q0 -47 -29.5 -78t-82.5 -31q-45 0 -131 29.5t-157 45.5l-43 -243h131l59 4q8 -8 8 -27q0 -49 -69 -49q-20 0 -41.5 2t-51 5.5l-46.5 5.5l-46 -263q-5 -31 -5.5 -55t1.5 -32l3 -8
q-16 -10 -57 -10q-54 0 -69.5 24.5t-5.5 84.5l94 537q5 28 5 49h-9q-65 0 -100.5 -31t-35.5 -77q0 -21 10.5 -33.5t29.5 -12.5l17 3q1 -3 1 -9q0 -21 -20.5 -38.5t-55.5 -17.5q-48 0 -76.5 27.5t-28.5 72.5q0 77 69.5 124t203.5 47zM731 401l-54 -317q103 41 163 90
q10 0 15.5 -6.5t3.5 -16.5q-3 -13 -33 -36q-52 -40 -159 -92l-2 -12q-61 -361 -280 -361q-51 0 -81.5 29t-30.5 76q0 83 84 155q62 53 183 113l64 382q5 28 5 49.5t-2 29.5l-2 7q15 9 52 9q55 0 69.5 -22t4.5 -77zM375 -284q53 0 92.5 62t61.5 182q-98 -51 -141 -92
q-59 -57 -59 -107q0 -20 12 -32.5t34 -12.5z" />
    <glyph glyph-name="F_i" unicode="Fi" horiz-adv-x="849" 
d="M253 750q44 0 178 -11.5t245 -11.5q26 0 49.5 4t34.5 8l10 4q11 -11 11 -39q0 -47 -29.5 -78t-82.5 -31q-45 0 -131 29.5t-157 45.5l-43 -243h131l59 4q8 -8 8 -27q0 -49 -69 -49q-20 0 -41.5 2t-51 5.5l-46.5 5.5l-46 -263q-5 -31 -5.5 -55t1.5 -32l3 -8
q-16 -10 -57 -10q-54 0 -69.5 24.5t-5.5 84.5l94 537q5 28 5 49h-9q-65 0 -100.5 -31t-35.5 -77q0 -21 10.5 -33.5t29.5 -12.5l17 3q1 -3 1 -9q0 -21 -20.5 -38.5t-55.5 -17.5q-48 0 -76.5 27.5t-28.5 72.5q0 77 69.5 124t203.5 47zM571 220l32 185q5 28 5 49.5t-2 29.5
l-2 7q15 9 52 9q55 0 69.5 -22t4.5 -77l-39 -226q-15 -88 43 -88q26 0 56 24t49 63q23 0 19 -26q-9 -47 -61 -97.5t-118 -50.5q-53 0 -85 33t-32 92q0 44 9 95z" />
    <glyph glyph-name="T_i" unicode="Ti" horiz-adv-x="815" 
d="M537 220l32 185q5 28 5 49.5t-2 29.5l-2 7q15 9 52 9q55 0 69.5 -22t4.5 -77l-39 -226q-15 -88 43 -88q26 0 56 24t49 63q23 0 19 -26q-9 -47 -61 -97.5t-118 -50.5q-53 0 -85 33t-32 92q0 44 9 95zM245 750q47 0 166.5 -11.5t228.5 -11.5q26 0 49.5 4t34.5 8l10 4
q11 -11 11 -39q0 -44 -27.5 -76.5t-82.5 -32.5q-32 0 -62 9t-64.5 24.5t-53.5 21.5l-95 -545q-5 -31 -5.5 -55t1.5 -32l3 -8q-16 -10 -57 -10q-54 0 -69.5 24.5t-5.5 84.5l94 537l5 39q-52 10 -83 10q-65 0 -102.5 -31.5t-37.5 -76.5q0 -21 10.5 -33.5t29.5 -12.5l17 3
q1 -3 1 -9q0 -21 -20.5 -38.5t-55.5 -17.5q-48 0 -76.5 27.5t-28.5 72.5q0 77 68 124t197 47z" />
    <glyph glyph-name="f_b" unicode="fb" horiz-adv-x="813" 
d="M451 609l-40 -229q65 120 163 120q69 0 106.5 -44t37.5 -123q0 -38 -9 -87q35 4 63.5 23.5t39.5 36.5l12 18q21 0 18 -25q-5 -31 -46 -62.5t-99 -36.5q-31 -91 -99 -145.5t-155 -54.5q-137 0 -178 50q-22 26 -22 69q0 19 5 52l71 418q16 94 16 121q0 70 -51 70
q-27 0 -50.5 -33t-35.5 -107l-24 -140h78q7 -8 7 -21q0 -29 -34 -29h-60l-110 -624q-17 -95 -57 -135.5t-107 -40.5q-38 0 -59.5 16t-21.5 41q0 9 2 16t4 9l2 3q13 -13 35 -13q29 0 47.5 23.5t28.5 81.5l108 623h-64q-7 8 -7 21q0 29 34 29h46l17 98q40 232 221 232
q206 0 167 -221zM538 306q0 25 13.5 44t36.5 24q-9 49 -49 49q-43 0 -93 -79q-53 -82 -76 -207q-5 -28 -5 -52q0 -18 2 -28q23 -7 47 -7q51 0 94.5 50t65.5 129q-36 27 -36 77z" />
    <glyph glyph-name="f_h" unicode="fh" horiz-adv-x="829" 
d="M451 609l-44 -254q35 58 87.5 101.5t108.5 43.5q47 0 75 -28t28 -75q0 -27 -9 -81l-24 -141q-16 -88 41 -88q62 0 105 87q23 0 19 -26q-9 -47 -60.5 -97.5t-115.5 -50.5q-56 0 -88.5 34t-32.5 91q0 22 15 114l19 110q11 63 -24 63q-48 0 -107.5 -97t-81.5 -220
q-5 -28 -5 -49.5t2 -29.5l2 -7q-15 -9 -52 -9q-55 0 -69.5 22t-4.5 77l84 490q16 94 16 121q0 70 -51 70q-27 0 -50.5 -33t-35.5 -107l-24 -140h78q7 -8 7 -21q0 -29 -34 -29h-60l-110 -624q-17 -95 -57 -135.5t-107 -40.5q-38 0 -59.5 16t-21.5 41q0 9 2 16t4 9l2 3
q13 -13 35 -13q29 0 47.5 23.5t28.5 81.5l108 623h-64q-7 8 -7 21q0 29 34 29h46l17 98q40 232 221 232q206 0 167 -221z" />
    <glyph glyph-name="f_t" unicode="ft" horiz-adv-x="561" 
d="M451 609l-19 -109h99q7 -8 7 -21q0 -29 -34 -29h-81l-48 -275q-8 -42 7 -65t50 -23q74 0 120 87q24 0 18 -26q-13 -51 -69 -99.5t-122 -48.5q-57 0 -94.5 36.5t-37.5 95.5q0 45 11 107l37 211h-130l-110 -624q-17 -95 -57 -135.5t-107 -40.5q-38 0 -59.5 16t-21.5 41
q0 9 2 16t4 9l2 3q13 -13 35 -13q29 0 47.5 23.5t28.5 81.5l108 623h-64q-7 8 -7 21q0 29 34 29h46l17 98q40 232 221 232q206 0 167 -221zM174 500h130l15 89q16 94 16 121q0 70 -51 70q-27 0 -50.5 -33t-35.5 -107z" />
    <glyph glyph-name="G_yo" unicode="&#x413;&#x451;" horiz-adv-x="917" 
d="M253 750q41 0 128.5 -11.5t196.5 -11.5q26 0 49.5 4t34.5 8l10 4q11 -11 11 -40q0 -44 -28.5 -76t-83.5 -32q-31 0 -64 13.5t-69 34t-57 27.5l-99 -565q-5 -31 -5.5 -55t1.5 -32l3 -8q-16 -10 -57 -10q-54 0 -69.5 24.5t-5.5 84.5l94 537q5 33 5 49h-9q-65 0 -100.5 -31
t-35.5 -77q0 -21 10.5 -33.5t29.5 -12.5l17 3q1 -3 1 -9q0 -21 -20.5 -38.5t-55.5 -17.5q-48 0 -76.5 27.5t-28.5 72.5q0 78 68.5 124.5t204.5 46.5zM733 650q0 28 18.5 46t44.5 18q24 0 39 -15.5t15 -38.5q0 -26 -18 -44.5t-46 -18.5q-23 0 -38 15t-15 38zM662 0
q-100 0 -163 58t-63 158q0 127 81 205.5t187 78.5q71 0 107 -30.5t36 -73.5q0 -131 -281 -184q5 -58 43 -95.5t100 -37.5q73 0 121.5 28t73.5 67q22 0 16 -26q-9 -43 -82.5 -95.5t-175.5 -52.5zM705 450q-47 0 -88.5 -51.5t-49.5 -139.5q88 21 130.5 62.5t42.5 93.5
q0 16 -9.5 25.5t-25.5 9.5z" />
    <glyph glyph-name="T_yo" unicode="&#x422;&#x451;" horiz-adv-x="995" 
d="M831 650q0 28 18.5 46t44.5 18q24 0 39 -15.5t15 -38.5q0 -26 -18 -44.5t-46 -18.5q-23 0 -38 15t-15 38zM245 750q47 0 175 -11.5t237 -11.5q26 0 49.5 4t33.5 8l11 4q11 -11 11 -39q0 -44 -28.5 -76.5t-83.5 -32.5q-32 0 -65 9t-73.5 25t-56.5 21l-95 -545
q-5 -31 -5.5 -55t1.5 -32l3 -8q-16 -10 -57 -10q-54 0 -69.5 24.5t-5.5 84.5l94 537l5 39q-52 10 -83 10q-65 0 -102.5 -31.5t-37.5 -76.5q0 -21 10.5 -33.5t29.5 -12.5l17 3q1 -3 1 -9q0 -21 -20.5 -38.5t-55.5 -17.5q-48 0 -76.5 27.5t-28.5 72.5q0 77 68 124t197 47z
M740 0q-100 0 -163 58t-63 158q0 127 81 205.5t187 78.5q71 0 107 -30.5t36 -73.5q0 -131 -281 -184q5 -58 43 -95.5t100 -37.5q73 0 121.5 28t73.5 67q22 0 16 -26q-9 -43 -82.5 -95.5t-175.5 -52.5zM783 450q-47 0 -88.5 -51.5t-49.5 -139.5q88 21 130.5 62.5t42.5 93.5
q0 16 -9.5 25.5t-25.5 9.5z" />
    <glyph glyph-name="yo_g" unicode="&#x451;&#x433;" horiz-adv-x="797" 
d="M187 0q-94 0 -155.5 58.5t-61.5 157.5q0 127 81 205.5t187 78.5q71 0 107 -30.5t36 -73.5q0 -131 -281 -184q3 -64 36.5 -98.5t83.5 -34.5q61 0 99.5 41t73.5 122q6 13 18 41.5l17 40.5t14.5 32.5t15.5 31.5l13.5 24.5t14.5 23.5q46 64 122 64q52 0 80 -27.5t28 -72.5
q0 -41 -21 -85l-61 -130q-20 -42 -10.5 -70t45.5 -28q70 0 118 87q24 0 19 -27q-9 -45 -65.5 -96t-121.5 -51t-96.5 36t-31.5 94q0 44 22 93l66 145q9 22 9 34q0 30 -29 30t-57 -59q-34 -72 -73 -164q-42 -101 -100 -155t-142 -54zM239 450q-47 0 -88.5 -51.5t-49.5 -139.5
q88 21 130.5 62.5t42.5 93.5q0 16 -9.5 25.5t-25.5 9.5zM287 650q0 28 18.5 46t44.5 18q24 0 39 -15.5t15 -38.5q0 -26 -18 -44.5t-46 -18.5q-23 0 -38 15t-15 38zM112 650q0 27 18.5 45.5t44.5 18.5q24 0 39 -15.5t15 -38.5q0 -26 -18 -44.5t-46 -18.5q-23 0 -38 15t-15 38
z" />
    <glyph glyph-name="c_g" unicode="&#x441;&#x433;" horiz-adv-x="797" 
d="M431 215q-46 -110 -104 -162.5t-143 -52.5q-95 0 -154.5 59.5t-59.5 152.5q0 126 79.5 207t186.5 81q62 0 101.5 -32t39.5 -81q0 -46 -23.5 -75t-62.5 -29q-16 0 -28 6t-16 12l-4 6q4 3 10 10t16.5 32.5t10.5 54.5q0 21 -13 33.5t-33 12.5q-50 0 -92 -62t-42 -156
q0 -68 31 -110.5t90 -42.5q56 0 96.5 39t75.5 124q64 153 93 194q46 64 122 64q52 0 80 -27.5t28 -72.5q0 -41 -21 -85l-61 -130q-20 -42 -10.5 -70t45.5 -28q70 0 118 87q24 0 19 -27q-9 -45 -65.5 -96t-121.5 -51t-96.5 36t-31.5 94q0 44 22 93l66 145q9 22 9 34
q0 30 -29 30q-31 0 -59 -60q-30 -63 -69 -157z" />
    <glyph glyph-name="e_g" unicode="&#x435;&#x433;" horiz-adv-x="797" 
d="M187 0q-94 0 -155.5 58.5t-61.5 157.5q0 127 81 205.5t187 78.5q71 0 107 -30.5t36 -73.5q0 -131 -281 -184q3 -64 36.5 -98.5t83.5 -34.5q61 0 99.5 41t73.5 122q6 13 18 41.5l17 40.5t14.5 32.5t15.5 31.5l13.5 24.5t14.5 23.5q46 64 122 64q52 0 80 -27.5t28 -72.5
q0 -41 -21 -85l-61 -130q-20 -42 -10.5 -70t45.5 -28q70 0 118 87q24 0 19 -27q-9 -45 -65.5 -96t-121.5 -51t-96.5 36t-31.5 94q0 44 22 93l66 145q9 22 9 34q0 30 -29 30t-57 -59q-34 -72 -73 -164q-42 -101 -100 -155t-142 -54zM239 450q-47 0 -88.5 -51.5t-49.5 -139.5
q88 21 130.5 62.5t42.5 93.5q0 16 -9.5 25.5t-25.5 9.5z" />
    <glyph glyph-name=".notdef" horiz-adv-x="0" 
 />
    <glyph glyph-name=".null" horiz-adv-x="0" 
 />
    <glyph glyph-name="nonmarkingreturn" horiz-adv-x="333" 
 />
    <glyph glyph-name="space" unicode=" " horiz-adv-x="220" 
 />
    <glyph glyph-name="exclam" unicode="!" horiz-adv-x="296" 
d="M248 641l-101 -355q-10 -35 -14.5 -64t-4.5 -40l1 -11q-9 -7 -25 -7q-35 0 -35 47q0 28 5 77l41 358q4 33 4 59l-3 35q16 10 57 10q83 0 83 -62q0 -18 -8 -47zM20 50q0 30 20.5 51t49.5 21q28 0 45 -18t17 -45q0 -28 -20 -48.5t-52 -20.5q-27 0 -43.5 17t-16.5 43z" />
    <glyph glyph-name="quotedbl" unicode="&#x22;" horiz-adv-x="364" 
d="M126 500h-56q17 129 17 216l-1 20q30 14 78 14q36 0 36 -37q0 -33 -24.5 -104.5t-49.5 -108.5zM290 500h-56q17 129 17 216l-1 20q30 14 78 14q36 0 36 -37q0 -33 -24.5 -104.5t-49.5 -108.5z" />
    <glyph glyph-name="numbersign" unicode="#" horiz-adv-x="629" 
d="M166 -12q-45 0 -53.5 25.5t4.5 83.5l23 134h-47q-18 0 -31.5 -2.5t-18.5 -4.5l-5 -2q-8 7 -8 26q0 64 83 64h41l25 143h-48q-18 0 -31.5 -2.5t-18.5 -5.5l-5 -3q-8 6 -8 25q0 31 25 51.5t69 20.5h32l24 138q5 31 8 55.5t3 33.5v9q11 7 33 7q45 0 53.5 -25.5t-4.5 -83.5
l-23 -134h107l24 138q5 31 8 55.5t3 33.5v9q11 7 33 7q45 0 53.5 -25.5t-4.5 -83.5l-23 -134h47q18 0 31.5 2.5t18.5 5.5l5 3q8 -6 8 -25q0 -31 -25 -51.5t-69 -20.5h-31l-25 -143h46q18 0 31.5 2t18.5 4l5 3q8 -7 8 -26q0 -64 -83 -64h-40l-24 -138q-5 -31 -8 -55.5
t-3 -33.5v-9q-11 -7 -33 -7q-45 0 -53.5 25.5t4.5 83.5l23 134h-107l-24 -138q-5 -31 -8 -55.5t-3 -33.5v-9q-11 -7 -33 -7zM273 455l-25 -143h107l25 143h-107z" />
    <glyph glyph-name="dollar" unicode="$" horiz-adv-x="598" 
d="M238 -107q-45 0 -53.5 26t4.5 85q-78 13 -123.5 55t-45.5 98q0 51 24 79.5t61 28.5q21 0 37 -6.5t22 -12.5l5 -7q-4 -3 -10 -9t-15.5 -27.5t-9.5 -46.5q0 -70 65 -93l46 268l-44 29q-61 40 -88 81.5t-27 95.5q0 82 64 143.5t167 68.5q6 32 9 57.5t3 34.5v9q11 7 33 7
q32 0 44 -11t12 -36q0 -22 -8 -65q73 -12 120.5 -53.5t47.5 -109.5q0 -55 -26 -84t-72 -29q-21 0 -37.5 6.5t-22.5 12.5l-6 7q6 3 14 9.5t22 32.5t14 59q0 27 -16.5 51.5t-47.5 37.5l-46 -266l30 -19q70 -46 100.5 -90.5t30.5 -97.5q0 -85 -60.5 -143.5t-172.5 -67.5
q-5 -32 -8 -57.5t-3 -34.5v-9q-11 -7 -33 -7zM387 173q0 56 -58 102l-37 -217q46 10 70.5 40.5t24.5 74.5zM214 580q0 -64 56 -106l37 218q-41 -8 -67 -38.5t-26 -73.5z" />
    <glyph glyph-name="percent" unicode="%" horiz-adv-x="932" 
d="M267 -16q-42 15 -42 41q0 19 33 77l330 581q16 27 27 49t14 30l3 9q17 1 33 -5q42 -15 42 -41q0 -19 -33 -77l-330 -581q-16 -27 -27 -49t-14 -30l-3 -9q-17 -1 -33 5zM745 381q67 0 107 -41t40 -109q0 -100 -59 -165.5t-159 -65.5q-67 0 -108 39.5t-41 109.5
q0 106 61 169t159 63zM635 191q-5 -32 -5 -58q0 -77 52 -77q37 0 62.5 35.5t36.5 98.5q5 30 5 58q0 77 -52 77q-32 0 -59.5 -31t-39.5 -103zM260 750q67 0 107 -41t40 -109q0 -100 -59 -165.5t-159 -65.5q-67 0 -108 39.5t-41 109.5q0 106 61 169t159 63zM150 560
q-5 -32 -5 -58q0 -77 52 -77q37 0 62.5 35.5t36.5 98.5q5 30 5 58q0 77 -52 77q-32 0 -59.5 -31t-39.5 -103z" />
    <glyph glyph-name="ampersand" unicode="&#x26;" horiz-adv-x="684" 
d="M405 233q-24 0 -24 30q0 29 18.5 54t48.5 35q35 11 78.5 14.5t67.5 8.5q20 4 37.5 10.5t24.5 11.5l8 5q20 -17 20 -52q0 -38 -24 -59.5t-62 -21.5q-18 0 -33 3q-17 -112 -103 -192t-203 -80q-97 0 -163 50.5t-66 139.5q0 68 48 121t132 75q-46 22 -71 60.5t-25 86.5
q0 94 74.5 155.5t189.5 61.5q95 0 148 -45t53 -111q0 -50 -25 -80.5t-72 -30.5q-19 0 -34.5 6t-21.5 12l-5 6q5 5 12.5 13.5t20 37t12.5 59.5q0 78 -77 78q-58 0 -97.5 -48t-39.5 -116q0 -53 27 -87t90 -31q1 -4 1 -11q0 -38 -53 -38h-23q-59 -14 -92.5 -54.5t-33.5 -92.5
q0 -134 137 -134q81 0 135.5 55t73.5 147q-14 2 -23 2q-62 0 -86 -54z" />
    <glyph glyph-name="quotesingle" unicode="'" horiz-adv-x="200" 
d="M126 500h-56q17 129 17 216l-1 20q30 14 78 14q36 0 36 -37q0 -33 -24.5 -104.5t-49.5 -108.5z" />
    <glyph glyph-name="parenleft" unicode="(" horiz-adv-x="382" 
d="M198 626q55 67 133 110q25 14 55 14q31 0 36 -23q-119 -78 -190.5 -228.5t-71.5 -339.5q0 -96 20 -176.5t40 -113.5l19 -33q-8 -13 -26 -13q-36 0 -66 33q-46 51 -76.5 140.5t-30.5 181.5q0 252 158 448z" />
    <glyph glyph-name="parenright" unicode=")" horiz-adv-x="372" 
d="M134 -54q-55 -67 -133 -110q-25 -14 -55 -14q-31 0 -36 23q119 78 190.5 228.5t71.5 339.5q0 96 -20 176.5t-40 113.5l-19 33q8 13 26 13q36 0 66 -33q46 -51 76.5 -140.5t30.5 -181.5q0 -252 -158 -448z" />
    <glyph glyph-name="asterisk" unicode="*" horiz-adv-x="458" 
d="M274 641l-4 -20l15 6q29 12 51.5 22.5t29.5 15.5l8 5q15 -17 24 -37q18 -39 2.5 -52.5t-71.5 -28.5l-12 -3l-22 -6l5 -8q14 -23 28.5 -41t21.5 -24l7 -7q-14 -18 -32 -31q-19 -14 -32 -16.5t-23.5 7t-18.5 24t-21 42.5q-2 5 -3 7l-7 15l-14 -17q-20 -25 -34 -45.5
t-18 -28.5l-4 -9q-21 7 -40 20q-26 19 -27.5 36.5t10.5 32t47 45.5l10 9l-2 1q-30 11 -54.5 17t-33.5 6l-9 1q-1 22 5 44q7 23 16 33.5t26 8.5t31 -8.5t46 -23.5l15 -8l1 20q2 35 1 57t-2 32l-2 9q21 7 43 7q45 0 51.5 -25.5t-8.5 -83.5z" />
    <glyph glyph-name="plus" unicode="+" horiz-adv-x="508" 
d="M304 419l-14 -77h95q18 0 31.5 2t18.5 4l5 3q8 -7 8 -26q0 -64 -83 -64h-90l-20 -110q-3 -17 -3.5 -31t0.5 -20l2 -5q-1 -1 -3 -1.5t-8.5 -2t-15.5 0.5q-69 13 -54 93l14 76h-94q-18 0 -31.5 -2.5t-18.5 -4.5l-5 -2q-8 7 -8 26q0 64 83 64h89l20 111q3 17 3.5 31t-1.5 20
l-1 5q1 1 3 1.5t9 2t15 -0.5q68 -13 54 -93z" />
    <glyph glyph-name="comma" unicode="," horiz-adv-x="255" 
d="M20 50q0 30 20.5 51t49.5 21t47 -19t18 -51q0 -51 -37.5 -104.5t-71.5 -53.5q-12 0 -18.5 6.5t-6.5 14.5q33 30 41 77q-42 11 -42 58z" />
    <glyph glyph-name="hyphen" unicode="-" horiz-adv-x="488" 
d="M295 231h-252q-18 0 -31.5 -2.5t-18.5 -4.5l-5 -2q-8 7 -8 26q0 64 83 64h252q18 0 31.5 2t18.5 4l5 3q8 -7 8 -26q0 -64 -83 -64z" />
    <glyph glyph-name="period" unicode="." horiz-adv-x="252" 
d="M20 50q0 30 20.5 51t49.5 21q28 0 45 -18t17 -45q0 -28 -20 -48.5t-52 -20.5q-27 0 -43.5 17t-16.5 43z" />
    <glyph glyph-name="slash" unicode="/" horiz-adv-x="522" 
d="M62 -16q-42 15 -42 41q0 19 33 77l330 581q16 27 27 49t14 30l3 9q17 1 33 -5q42 -15 42 -41q0 -19 -33 -77l-330 -581q-16 -27 -27 -49t-14 -30l-3 -9q-17 -1 -33 5z" />
    <glyph glyph-name="zero" unicode="0" horiz-adv-x="638" 
d="M368 750q110 0 165 -70.5t55 -193.5q0 -133 -38 -243t-112 -176.5t-171 -66.5q-101 0 -159 68.5t-58 195.5q0 208 89 347t229 139zM367 695q-31 0 -60 -30t-51 -84q-28 -72 -47.5 -176t-19.5 -207q0 -143 82 -143q31 0 59.5 29t51.5 85q29 70 48 174t19 209
q0 143 -82 143z" />
    <glyph glyph-name="one" unicode="1" horiz-adv-x="356" 
d="M51 620q56 28 99.5 60.5t59.5 51.5l16 18q54 0 69.5 -24.5t5.5 -84.5l-94 -536q-5 -31 -5.5 -55t2.5 -32l2 -8q-16 -10 -57 -10q-54 0 -69.5 24.5t-5.5 84.5l89 512l-32 -20q-30 -19 -51 -19q-16 0 -23.5 11.5t-5.5 26.5z" />
    <glyph glyph-name="two" unicode="2" horiz-adv-x="587" 
d="M10 54q0 71 175 225q114 101 163.5 168t49.5 145q0 51 -26.5 77.5t-74.5 26.5q-45 0 -76.5 -38t-31.5 -90q0 -18 4.5 -33.5t8.5 -21.5l5 -6q-14 -24 -58 -24q-33 0 -52.5 21t-19.5 61q0 75 68 130t177 55q97 0 156 -52.5t59 -131.5q0 -94 -53.5 -161.5t-183.5 -149.5
l-42 -26.5l-41.5 -26.5l-35.5 -23t-35 -25l-27 -23t-24.5 -25t-16.5 -24q51 19 115 25q37 4 96.5 5t104 4.5t76.5 14.5q12 -15 12 -41q0 -42 -34.5 -66t-102.5 -24q-49 0 -116 9t-96 9q-23 0 -42.5 -4.5t-27.5 -9.5l-8 -4q-19 0 -32 17t-13 37z" />
    <glyph glyph-name="three" unicode="3" horiz-adv-x="586" 
d="M229 0q-92 0 -146 46t-62 102q-3 21 7 37t27 12q4 -49 43 -79.5t94 -30.5q75 0 117 45.5t42 111.5q0 96 -70 120h-31q-46 0 -46 38l1 11q83 0 137.5 51.5t54.5 130.5q0 46 -25 73t-72 27q-50 0 -84 -38.5t-34 -95.5q0 -16 3.5 -29.5t6.5 -19.5l4 -5q-15 -24 -59 -24
q-31 0 -49.5 19.5t-18.5 54.5q0 84 76.5 138.5t177.5 54.5q98 0 155.5 -49.5t57.5 -129.5q0 -65 -46 -115t-119 -74q119 -41 119 -160q0 -93 -69.5 -157.5t-191.5 -64.5z" />
    <glyph glyph-name="four" unicode="4" horiz-adv-x="592" 
d="M153 716q0 2 9 9.5t30 16t45 8.5q33 0 53 -21.5t20 -62.5q0 -88 -63.5 -193.5t-147.5 -183.5h222l63 357q5 31 5.5 54.5t-1.5 31.5l-3 8q16 10 57 10q54 0 69.5 -24.5t5.5 -84.5l-62 -352h44q18 0 31.5 2.5t18.5 4.5l5 2q8 -7 8 -26q0 -64 -83 -64h-38l-18 -103
q-5 -31 -5.5 -55t2.5 -32l2 -8q-16 -10 -57 -10q-54 0 -69.5 24.5t-5.5 84.5l17 99h-196q-101 0 -101 66l1 13q63 47 118 148.5t55 199.5q0 16 -3 30t-8 23t-9.5 15t-7.5 9z" />
    <glyph glyph-name="five" unicode="5" horiz-adv-x="566" 
d="M134 710q6 40 56 40q14 0 103 -11.5t167 -11.5q26 0 49.5 4t34.5 8l10 4q12 -12 12 -41q0 -90 -119 -90q-56 0 -156.5 26.5t-104.5 27.5l-40 -236q59 27 132 27q100 0 157 -54.5t57 -139.5q0 -119 -75 -191t-194 -72q-85 0 -137 42.5t-64 105.5q-5 23 5.5 38t28.5 11
q6 -51 40.5 -80.5t90.5 -29.5q75 0 120.5 51.5t45.5 132.5q0 58 -30.5 91.5t-82.5 33.5q-36 0 -66.5 -14t-43.5 -28l-12 -15q-22 0 -33 11t-7 32z" />
    <glyph glyph-name="six" unicode="6" horiz-adv-x="611" 
d="M384 695q-32 0 -60.5 -28t-50 -73.5t-36.5 -93t-25 -97.5q71 50 147 50q83 0 129.5 -47.5t46.5 -133.5q0 -117 -76 -194.5t-198 -77.5q-93 0 -152 64t-59 182q0 134 41.5 248t120.5 185t180 71q87 0 128 -38t41 -97q0 -38 -23.5 -65.5t-59.5 -27.5q-19 0 -35.5 6
t-22.5 12l-7 6q30 32 30 81q0 68 -59 68zM311 383q-65 0 -115 -70q-10 -53 -10 -117q0 -141 83 -141q40 0 70 34t43.5 81t13.5 96q0 117 -85 117z" />
    <glyph glyph-name="seven" unicode="7" horiz-adv-x="476" 
d="M492 661q-105 -113 -184.5 -284t-79.5 -307q0 -16 2 -31t4 -22l1 -7q-18 -10 -59 -10q-48 0 -65.5 20t-17.5 71q0 128 92.5 284.5t213.5 264.5h-248q-28 0 -53 -5t-36 -11l-10 -5q-12 11 -12 41q0 90 119 90q86 0 307 -40q20 -4 27 -20t-1 -29z" />
    <glyph glyph-name="eight" unicode="8" horiz-adv-x="594" 
d="M348 750q97 0 151.5 -44.5t54.5 -118.5q0 -37 -17 -70.5t-41 -54.5t-48 -37t-41 -23l-17 -7l33 -29q82 -73 82 -158q0 -83 -72 -145.5t-192 -62.5q-93 0 -157 52t-64 129q0 42 18 79.5t44 60t52.5 39.5t44.5 24l18 7q-46 44 -65 80.5t-19 83.5q0 79 70 137t165 58z
M293 304l-54 48q-5 -2 -13 -6t-28 -19.5t-35.5 -33t-28.5 -47.5t-13 -63q0 -57 35 -92.5t92 -35.5q56 0 90.5 31.5t34.5 78.5q0 67 -80 139zM348 695q-46 0 -75.5 -30.5t-29.5 -77.5q0 -37 15 -63t48 -55l44 -38q4 2 11 6.5t25 20t31.5 32.5t24.5 44t11 55q0 49 -29.5 77.5
t-75.5 28.5z" />
    <glyph glyph-name="nine" unicode="9" horiz-adv-x="602" 
d="M228 55q50 0 93 83t69 209q-71 -50 -147 -50q-83 0 -129.5 47.5t-46.5 133.5q0 117 76 194.5t198 77.5q93 0 152 -64t59 -182q0 -135 -39 -248.5t-115.5 -184.5t-177.5 -71q-87 0 -128.5 38t-41.5 97q0 38 23.5 65.5t59.5 27.5q19 0 35.5 -6t23.5 -12l6 -6
q-30 -32 -30 -81q0 -68 60 -68zM291 367q65 0 115 70q10 53 10 117q0 141 -83 141q-40 0 -70 -34t-43.5 -81t-13.5 -96q0 -117 85 -117z" />
    <glyph glyph-name="colon" unicode=":" horiz-adv-x="273" 
d="M20 50q0 30 20.5 51t49.5 21q28 0 45 -18t17 -45q0 -28 -20 -48.5t-52 -20.5q-27 0 -43.5 17t-16.5 43zM81 429q0 30 20.5 51t49.5 21q28 0 45 -18t17 -45q0 -28 -20 -48.5t-52 -20.5q-27 0 -43.5 17t-16.5 43z" />
    <glyph glyph-name="semicolon" unicode=";" horiz-adv-x="273" 
d="M81 429q0 30 20.5 51t49.5 21q28 0 45 -18t17 -45q0 -28 -20 -48.5t-52 -20.5q-27 0 -43.5 17t-16.5 43zM20 50q0 30 20.5 51t49.5 21t47 -19t18 -51q0 -51 -37.5 -104.5t-71.5 -53.5q-12 0 -18.5 6.5t-6.5 14.5q33 30 41 77q-42 11 -42 58z" />
    <glyph glyph-name="less" unicode="&#x3c;" horiz-adv-x="495" 
d="M256 27l-236 223l343 215q16 10 27 18t14 11l4 4q10 -3 19 -20q8 -16 8 -32q0 -42 -52 -71l-223 -126l174 -169q12 -12 23.5 -20t16.5 -10l6 -1q0 -10 -13 -24q-23 -25 -52 -25t-59 27z" />
    <glyph glyph-name="equal" unicode="=" horiz-adv-x="539" 
d="M365 163h-272q-18 0 -31.5 -2.5t-18.5 -4.5l-5 -2q-8 7 -8 26q0 64 83 64h272q18 0 31.5 2t18.5 4l5 3q8 -7 8 -26q0 -64 -83 -64zM396 338h-272q-18 0 -31.5 -2t-18.5 -4l-5 -3q-8 7 -8 26q0 64 83 64h272q18 0 31.5 2.5t18.5 4.5l5 2q8 -7 8 -26q0 -64 -83 -64z" />
    <glyph glyph-name="greater" unicode="&#x3e;" horiz-adv-x="495" 
d="M199 473l236 -223l-343 -215q-16 -10 -27 -18l-15 -11l-3 -4q-10 3 -19 20q-8 16 -8 32q0 42 52 71l223 126l-174 169q-12 12 -23.5 20t-17.5 10l-5 1q0 10 13 24q23 25 52 25t59 -27z" />
    <glyph glyph-name="question" unicode="?" horiz-adv-x="494" 
d="M146 211q0 106 83 201q86 98 86 188q0 45 -24 70.5t-68 25.5q-47 0 -79 -37.5t-32 -90.5q0 -18 4.5 -33.5t9.5 -21.5l4 -6q-14 -24 -58 -24q-33 0 -52.5 21t-19.5 61q0 74 69 129t174 56q101 0 156 -46t55 -113q0 -66 -30.5 -110.5t-112.5 -110.5q-79 -64 -100 -145
q-4 -17 -5.5 -30.5t-0.5 -18.5l1 -5q-9 -7 -25 -7q-35 0 -35 47zM97 50q0 30 20.5 51t49.5 21q28 0 45 -18t17 -45q0 -28 -20 -48.5t-52 -20.5q-27 0 -43.5 17t-16.5 43z" />
    <glyph glyph-name="at" unicode="@" horiz-adv-x="932" 
d="M604 434l-35 -197q-16 -86 38 -86q45 0 79.5 66t34.5 165q0 121 -68 192t-193 71q-62 0 -122 -24t-111.5 -70t-83.5 -123.5t-32 -174.5q0 -123 79.5 -201t209.5 -78q46 0 85 7t62 17t39.5 20t23.5 17l6 7q23 0 23 -23q0 -36 -67.5 -68.5t-174.5 -32.5q-175 0 -286 95
t-111 247q0 188 137 314t337 126q159 0 258.5 -85.5t99.5 -219.5q0 -72 -29.5 -139.5t-89.5 -113.5t-136 -46q-48 0 -78.5 24t-37.5 66q-50 -90 -123 -90q-54 0 -86 38t-32 105q0 117 60 189t137 72q54 0 87 -40q21 40 79 40q12 0 22 -2t14 -4l4 -2q-11 -15 -19 -58z
M370 171q33 0 67 61t45 126l6 35q-9 43 -48 43q-40 0 -74.5 -56.5t-34.5 -138.5q0 -70 39 -70z" />
    <glyph glyph-name="A" unicode="A" horiz-adv-x="664" 
d="M386 263l2 11h-174l-30 -83q-41 -114 -75 -152.5t-79 -38.5q-31 0 -50.5 21t-19.5 56q0 16 3.5 28.5t6.5 16.5l4 5q11 -8 35 -8q77 0 140 153q-20 -2 -37.5 -8t-25.5 -10l-7 -5q-16 13 -16 40q0 30 21.5 48t58.5 18q18 0 36 -3l76 211q36 100 91.5 143.5t159.5 43.5
q58 0 74 -25t6 -84l-82 -471q-14 -83 45 -83q32 0 61 28.5t44 58.5q22 0 19 -26q-7 -50 -61.5 -99t-119.5 -49q-54 0 -87 33.5t-33 90.5t14 139zM239 343q82 -13 158 -14l56 317l5 49q-47 0 -83 -37t-56 -93z" />
    <glyph glyph-name="B" unicode="B" horiz-adv-x="723" 
d="M683 560q0 -68 -47 -122.5t-136 -63.5q67 -11 109 -55t42 -105q0 -94 -77 -154t-223 -60q-139 0 -182 50q-18 19 -18 52q0 19 6 51l86 493q5 33 5 49h-9q-65 0 -100.5 -31t-35.5 -77q0 -21 10.5 -33.5t29.5 -12.5l17 3q1 -3 1 -9q0 -21 -20.5 -38.5t-55.5 -17.5
q-48 0 -76.5 27.5t-28.5 72.5q0 76 67 123.5t185 47.5h134q166 0 241.5 -52t75.5 -138zM392 345h-68l-37 -211q-9 -47 -5 -76q23 -3 52 -3q81 0 129.5 48t48.5 122q0 58 -32.5 89t-87.5 31zM412 695h-27l-52 -295h59q62 0 107 46t45 125q0 59 -35 91.5t-97 32.5z" />
    <glyph glyph-name="C" unicode="C" horiz-adv-x="645" 
d="M405 83q78 0 141.5 25.5t100.5 65.5q20 0 17 -22q-11 -47 -101.5 -99.5t-210.5 -52.5q-131 0 -216.5 84.5t-85.5 226.5q0 194 106.5 316.5t264.5 122.5q90 0 140.5 -49.5t50.5 -120.5q0 -67 -36 -106t-86 -39q-22 0 -38 8.5t-22 16.5l-5 9q3 1 8 4t18 14t23 25.5t18 41
t8 57.5q0 39 -22.5 61.5t-59.5 22.5q-88 0 -158.5 -111t-70.5 -262q0 -114 57.5 -176.5t158.5 -62.5z" />
    <glyph glyph-name="D" unicode="D" horiz-adv-x="788" 
d="M381 521l-67 -382q-8 -42 -26 -70q29 -9 61 -9q120 0 190 92.5t70 244.5q0 139 -80.5 218.5t-222.5 79.5q-102 0 -152.5 -39t-50.5 -89q0 -21 10.5 -33.5t29.5 -12.5l17 3q1 -3 1 -9q0 -21 -20.5 -38.5t-55.5 -17.5q-48 0 -76.5 27.5t-28.5 72.5q0 80 84.5 135.5
t236.5 55.5q204 0 325.5 -102t121.5 -266q0 -176 -101.5 -279t-264.5 -103q-71 0 -137 27q-40 -27 -103 -27q-41 0 -61 17.5t-20 41.5q0 26 19 43t57 17q17 0 39 -5l72 412q5 31 5.5 54.5t-1.5 31.5l-3 8q16 10 57 10q54 0 69.5 -24.5t5.5 -84.5z" />
    <glyph glyph-name="E" unicode="E" horiz-adv-x="580" 
d="M389 695q-57 0 -97 -48.5t-40 -115.5q0 -53 27 -87t90 -31q1 -4 1 -11q0 -38 -53 -38h-23q-59 -14 -92.5 -54.5t-33.5 -92.5q0 -60 45 -97t141 -37q88 0 152.5 28t94.5 63q22 0 17 -22q-10 -49 -109 -100.5t-220 -51.5q-118 0 -188.5 50.5t-70.5 139.5q0 68 48 121
t132 75q-46 22 -71 60.5t-25 86.5q0 94 74.5 155.5t189.5 61.5q95 0 148 -45t53 -111q0 -50 -25 -80.5t-72 -30.5q-19 0 -34.5 6t-21.5 12l-5 6q5 5 12.5 13.5t20 37t12.5 59.5q0 78 -77 78z" />
    <glyph glyph-name="F" unicode="F" horiz-adv-x="623" 
d="M253 750q44 0 149 -11.5t216 -11.5q26 0 49.5 4t34.5 8l10 4q11 -11 11 -33q0 -42 -29.5 -68t-91.5 -26q-34 0 -68 6t-52.5 11.5t-53.5 19t-47 17.5l-43 -243h131l59 4q8 -8 8 -27q0 -49 -69 -49q-20 0 -41.5 2t-51 5.5l-46.5 5.5l-46 -263q-5 -31 -5.5 -55t1.5 -32l3 -8
q-16 -10 -57 -10q-54 0 -69.5 24.5t-5.5 84.5l94 537q5 28 5 49h-9q-65 0 -100.5 -31t-35.5 -77q0 -21 10.5 -33.5t29.5 -12.5l17 3q1 -3 1 -9q0 -21 -20.5 -38.5t-55.5 -17.5q-48 0 -76.5 27.5t-28.5 72.5q0 77 69.5 124t203.5 47z" />
    <glyph glyph-name="G" unicode="G" horiz-adv-x="670" 
d="M447 315h198q5 -7 5 -19q0 -32 -59 -47q-18 -103 -88.5 -176t-184.5 -73q-116 0 -192 81.5t-76 225.5q0 194 104.5 318.5t259.5 124.5q92 0 146.5 -48.5t54.5 -121.5q0 -65 -35 -105t-88 -40q-21 0 -37 8.5t-21 16.5l-6 9q3 1 8 4t18 14t23 25t18 39.5t8 56.5
q0 87 -91 87q-80 0 -151.5 -108.5t-71.5 -276.5q0 -109 42.5 -166t121.5 -57q64 0 111 39t67 107q-48 -12 -94 -12q-32 0 -50 17t-18 47q0 9 2 17.5t4 12.5l2 4q34 -4 70 -4z" />
    <glyph glyph-name="H" unicode="H" horiz-adv-x="793" 
d="M515 263l13 78h-204l-41 -236q-5 -31 -5.5 -55t2.5 -32l2 -8q-16 -10 -57 -10q-54 0 -69.5 24.5t-5.5 84.5l94 537q5 33 5 49h-10q-65 0 -100.5 -31t-35.5 -77q0 -21 10.5 -33.5t29.5 -12.5l17 3q1 -3 1 -9q0 -21 -20.5 -38.5t-55.5 -17.5q-48 0 -76.5 27.5t-28.5 72.5
q0 76 67 123.5t185 47.5h70q54 0 69.5 -24.5t5.5 -84.5l-43 -245h204l44 250q5 31 5.5 54.5t-1.5 31.5l-3 8q16 10 57 10q54 0 69.5 -24.5t5.5 -84.5l-82 -471q-14 -83 45 -83q32 0 61 28.5t44 58.5q22 0 19 -26q-7 -50 -61.5 -99t-119.5 -49q-54 0 -87 33.5t-33 90.5
t14 139z" />
    <glyph glyph-name="I" unicode="I" horiz-adv-x="442" 
d="M232 750h70q54 0 69.5 -24.5t5.5 -84.5l-94 -536q-5 -31 -5.5 -55t2.5 -32l2 -8q-16 -10 -57 -10q-54 0 -69.5 24.5t-5.5 84.5l94 537q5 33 5 49h-10q-65 0 -100.5 -31t-35.5 -77q0 -21 10.5 -33.5t29.5 -12.5l17 3q1 -3 1 -9q0 -21 -20.5 -38.5t-55.5 -17.5
q-48 0 -76.5 27.5t-28.5 72.5q0 76 67 123.5t185 47.5z" />
    <glyph glyph-name="J" unicode="J" horiz-adv-x="484" 
d="M274 750h70q54 0 70 -25t5 -84l-101 -575q-36 -206 -229 -206q-71 0 -110 32t-39 83q0 36 21 55.5t59 19.5q12 0 21 -1.5t13 -2.5l3 -2q-17 -33 -17 -71q0 -28 13.5 -43t37.5 -15q66 0 89 128l106 603q5 32 5 49h-10q-65 0 -100.5 -31t-35.5 -77q0 -21 10.5 -33.5
t29.5 -12.5l17 3q1 -3 1 -9q0 -21 -20.5 -38.5t-55.5 -17.5q-48 0 -76.5 27.5t-28.5 72.5q0 76 67 123.5t185 47.5z" />
    <glyph glyph-name="K" unicode="K" horiz-adv-x="749" 
d="M598 0q-52 0 -83 31t-47 93l-40 155q-9 34 -24 49.5t-44 15.5h-36l-42 -239q-5 -31 -5.5 -55t1.5 -32l3 -8q-16 -10 -57 -10q-54 0 -69.5 24.5t-5.5 84.5l94 537q5 33 5 49h-9q-65 0 -100.5 -31t-35.5 -77q0 -21 10.5 -33.5t29.5 -12.5l17 3q1 -3 1 -9q0 -21 -20.5 -38.5
t-55.5 -17.5q-48 0 -76.5 27.5t-28.5 72.5q0 76 67 123.5t185 47.5h69q54 0 70 -25t5 -84l-43 -242h32q61 0 119 105l66 120q37 67 70.5 96.5t73.5 29.5t62 -21t22 -59q0 -24 -10 -42.5t-20 -25.5l-11 -7q0 2 -1.5 5t-5.5 10t-10 13t-17.5 10.5t-24.5 4.5q-61 0 -104 -82
l-35 -67q-43 -82 -79 -99q75 -7 96 -86l39 -142q11 -40 25 -57.5t37 -17.5q30 0 59.5 30t42.5 57q22 0 19 -26q-6 -47 -61 -97.5t-119 -50.5z" />
    <glyph glyph-name="L" unicode="L" horiz-adv-x="617" 
d="M144 119h8l92 527q5 26 5 49h-10q-65 0 -100.5 -31t-35.5 -77q0 -21 10.5 -33.5t29.5 -12.5l17 3q1 -3 1 -9q0 -21 -20.5 -38.5t-55.5 -17.5q-48 0 -76.5 27.5t-28.5 72.5q0 76 67 123.5t185 47.5h70q54 0 70 -25t5 -84l-93 -530q98 -6 184 -6q50 0 87 6.5t49 12.5l12 7
q11 -12 11 -43q0 -40 -28.5 -64t-84.5 -24t-118 14t-96 28l-35 14q-5 -6 -14 -15.5t-39 -25t-63 -15.5q-38 0 -58 17.5t-20 41.5q0 25 19 42.5t54 17.5z" />
    <glyph glyph-name="M" unicode="M" horiz-adv-x="907" 
d="M171 345l63 218q16 56 25.5 100.5t10.5 60.5l2 16q23 10 57 10q46 0 64.5 -19.5t20.5 -73.5l21 -491l219 457q35 73 43 117q16 10 57 10q54 0 69.5 -25t5.5 -84l-82 -471q-14 -83 45 -83q32 0 61 28.5t44 58.5q22 0 19 -26q-7 -50 -61.5 -99t-119.5 -49q-54 0 -87 33.5
t-33 90.5t14 139l51 291l-209 -441q-12 -24 -20.5 -48.5t-10.5 -36.5l-3 -13q-23 -15 -63 -15q-38 0 -51.5 24.5t-16.5 76.5l-20 457l-99 -367q-28 -103 -65 -147t-88 -44q-34 0 -54 21t-20 56q0 16 3.5 28.5t6.5 16.5l4 5q11 -8 35 -8q52 0 88 47t74 179z" />
    <glyph glyph-name="N" unicode="N" horiz-adv-x="780" 
d="M167 204l77 440q4 24 6 51h-11q-65 0 -100.5 -31t-35.5 -77q0 -21 10.5 -33.5t29.5 -12.5l17 3q1 -3 1 -9q0 -21 -20.5 -38.5t-55.5 -17.5q-48 0 -76.5 27.5t-28.5 72.5q0 76 67 123.5t185 47.5h89q40 0 63 -18t35 -61l152 -536l59 334q16 92 16.5 162.5t-7.5 94.5l-8 24
q10 9 35 9q29 0 41.5 -14.5t12.5 -48.5q0 -38 -20 -150l-77 -440q-13 -74 -6 -96q-19 -10 -71 -10q-40 0 -61.5 19t-33.5 60l-154 543l-60 -341q-10 -58 -14 -108t-2 -80.5t5 -52.5t6 -31l4 -9q-10 -9 -35 -9q-29 0 -41.5 14.5t-12.5 48.5q0 38 20 150z" />
    <glyph glyph-name="O" unicode="O" horiz-adv-x="699" 
d="M411 750q113 0 175.5 -74t62.5 -204q0 -132 -43 -239t-126 -170t-192 -63q-108 0 -173 71t-65 207q0 206 99.5 339t261.5 133zM198 375q-11 -75 -11 -137q0 -183 113 -183q68 0 121.5 81.5t78.5 238.5q11 66 11 137q0 183 -113 183q-64 0 -119.5 -79.5t-80.5 -240.5z" />
    <glyph glyph-name="P" unicode="P" horiz-adv-x="723" 
d="M367 535l-46 -263q22 -4 55 -4q84 0 136 62.5t52 157.5t-63.5 151t-189.5 56q-104 0 -156 -39t-52 -89q0 -21 10.5 -33.5t29.5 -12.5l17 3q1 -3 1 -9q0 -21 -20.5 -38.5t-55.5 -17.5q-48 0 -76.5 27.5t-28.5 72.5q0 80 86 135.5t248 55.5q198 0 293.5 -73t95.5 -195
q0 -119 -83 -194t-220 -75q-48 0 -88 7l-20 -115q-5 -31 -5.5 -55t1.5 -32l3 -8q-16 -10 -57 -10q-54 0 -69.5 24.5t-5.5 84.5l75 431q5 31 5.5 54.5t-1.5 31.5l-3 8q16 10 57 10q54 0 69.5 -24.5t5.5 -84.5z" />
    <glyph glyph-name="Q" unicode="Q" horiz-adv-x="699" 
d="M411 750q113 0 175.5 -74t62.5 -204q0 -182 -80.5 -311t-217.5 -155l19 -18q30 -28 61 -49.5t47 -28.5l16 -8q-4 -25 -24 -42q-25 -21 -57 -21q-55 0 -86 54l-47 81l-19 27q-97 9 -154 79.5t-57 197.5q0 206 99.5 339t261.5 133zM198 375q-11 -75 -11 -137
q0 -183 113 -183q68 0 121.5 81.5t78.5 238.5q11 66 11 137q0 183 -113 183q-64 0 -119.5 -79.5t-80.5 -240.5z" />
    <glyph glyph-name="R" unicode="R" horiz-adv-x="757" 
d="M480 311q83 -19 106 -94l17 -55q23 -75 66 -75q30 0 57 29t41 58q22 0 19 -26q-6 -47 -58 -97.5t-115 -50.5q-105 0 -137 124l-19 73q-11 43 -28.5 62.5t-49.5 19.5h-57l-30 -174q-5 -31 -5.5 -55t1.5 -32l3 -8q-16 -10 -57 -10q-54 0 -69.5 24.5t-5.5 84.5l75 431
q5 31 5.5 54.5t-1.5 31.5l-3 8q16 10 57 10q54 0 69.5 -24.5t5.5 -84.5l-35 -201h38q89 0 141.5 51.5t52.5 138.5q0 170 -253 171q-104 0 -156 -39t-52 -89q0 -21 10.5 -33.5t29.5 -12.5l17 3q1 -3 1 -9q0 -21 -20.5 -38.5t-55.5 -17.5q-48 0 -76.5 27.5t-28.5 72.5
q0 81 86.5 136t252.5 55q192 0 288 -62.5t96 -169.5q0 -80 -65 -137.5t-158 -69.5z" />
    <glyph glyph-name="S" unicode="S" horiz-adv-x="601" 
d="M353 695q-62 0 -100.5 -33.5t-38.5 -88.5q0 -67 70 -108l127 -74q117 -69 117 -179q0 -88 -74.5 -150t-205.5 -62q-102 0 -165 45.5t-63 115.5q0 51 25 77.5t63 26.5q21 0 36.5 -6.5t19.5 -12.5l5 -7q-35 -32 -35 -83q0 -46 31.5 -73.5t88.5 -27.5q66 0 106 35t40 85
q0 38 -21 67t-71 57l-107 61q-115 66 -115 177q0 88 71.5 150.5t196.5 62.5q106 0 171.5 -47.5t65.5 -122.5q0 -52 -26 -81.5t-72 -29.5q-21 0 -37.5 6.5t-22.5 12.5l-6 7q2 1 5.5 3.5t12 11t15 19t12 29t5.5 38.5q0 44 -31.5 71.5t-92.5 27.5z" />
    <glyph glyph-name="T" unicode="T" horiz-adv-x="642" 
d="M245 750q47 0 165 -11.5t227 -11.5q26 0 49.5 4t33.5 8l11 4q11 -11 11 -33q0 -42 -29.5 -68t-91.5 -26q-21 0 -37.5 1.5t-36 6t-27.5 6.5t-33.5 10l-31.5 10l-95 -545q-5 -31 -5.5 -55t1.5 -32l3 -8q-16 -10 -57 -10q-54 0 -69.5 24.5t-5.5 84.5l94 537l5 39
q-52 10 -83 10q-65 0 -102.5 -31.5t-37.5 -76.5q0 -21 10.5 -33.5t29.5 -12.5l17 3q1 -3 1 -9q0 -21 -20.5 -38.5t-55.5 -17.5q-48 0 -76.5 27.5t-28.5 72.5q0 77 68 124t197 47z" />
    <glyph glyph-name="U" unicode="U" horiz-adv-x="793" 
d="M377 641l-81 -460q-9 -51 -1.5 -72.5t32.5 -21.5q33 0 73 60q123 185 182 499q6 31 6 54.5t-2 31.5l-3 8q16 10 57 10q54 0 69.5 -24.5t5.5 -84.5l-82 -471q-14 -83 45 -83q32 0 61 28.5t44 58.5q22 0 19 -26q-7 -50 -61.5 -99t-119.5 -49q-54 0 -87 33.5t-33 90.5
q0 51 9 111q-34 -73 -67 -128q-65 -107 -163 -107q-54 0 -86.5 34t-32.5 90q0 46 10 106l73 416q5 33 5 49h-10q-65 0 -100.5 -31t-35.5 -77q0 -21 10.5 -33.5t29.5 -12.5l17 3q1 -3 1 -9q0 -21 -20.5 -38.5t-55.5 -17.5q-48 0 -76.5 27.5t-28.5 72.5q0 76 67 123.5
t185 47.5h70q54 0 70 -25t5 -84z" />
    <glyph glyph-name="V" unicode="V" horiz-adv-x="774" 
d="M378 0q-99 0 -145 64.5t-46 172.5q0 61 9 115l47 294l5 49h-9q-65 0 -100.5 -31t-35.5 -77q0 -21 10.5 -33.5t29.5 -12.5l17 3q1 -3 1 -9q0 -21 -20.5 -38.5t-55.5 -17.5q-48 0 -76.5 27.5t-28.5 72.5q0 76 67 123.5t185 47.5h69q54 0 69.5 -24.5t5.5 -84.5l-50 -290
q-13 -76 -13 -120q0 -144 103 -144q72 0 126 92q45 79 76 199t31 229q0 84 -20 143q14 9 43 9q41 0 56.5 -27.5t15.5 -78.5q0 -65 -27 -170t-65 -201q-56 -139 -120 -210.5t-154 -71.5z" />
    <glyph glyph-name="W" unicode="W" horiz-adv-x="1076" 
d="M386 87q87 0 150 194l59 365q5 31 5 54.5t-2 31.5l-2 8q16 10 57 10q54 0 69.5 -24.5t5.5 -84.5l-47 -266q-18 -103 -18 -165q0 -66 19 -94.5t56 -28.5q55 0 107 88q43 72 73.5 197.5t30.5 226.5q0 40 -4.5 78t-8.5 55l-5 18q14 9 43 9q41 0 56.5 -27.5t15.5 -78.5
q0 -108 -92 -371q-49 -139 -108.5 -210.5t-143.5 -71.5q-66 0 -108.5 36.5t-56.5 101.5q-84 -138 -192 -138q-162 0 -162 216q0 58 15 153l45 277l5 49h-9q-65 0 -100.5 -31t-35.5 -77q0 -21 10.5 -33.5t29.5 -12.5l17 3q1 -3 1 -9q0 -21 -20.5 -38.5t-55.5 -17.5
q-48 0 -76.5 27.5t-28.5 72.5q0 76 67 123.5t185 47.5h69q54 0 69.5 -24.5t5.5 -84.5l-56 -318q-11 -66 -11 -118q0 -118 77 -118z" />
    <glyph glyph-name="X" unicode="X" horiz-adv-x="674" 
d="M583 87q25 0 50 21.5t38 43.5l13 22q24 0 19 -27q-9 -53 -60.5 -100t-115.5 -47q-51 0 -86 33.5t-56 116.5l-37 144q-76 -68 -108 -127t-32 -132q0 -10 1.5 -19t2.5 -13l2 -4q-21 -9 -41 -9q-77 0 -77 67q0 49 39.5 100.5t156.5 161.5l40 38l-86 337q-60 -3 -91.5 -33
t-31.5 -74q0 -21 10.5 -33.5t29.5 -12.5l17 3q1 -3 1 -9q0 -21 -20.5 -38.5t-55.5 -17.5q-48 0 -76.5 27.5t-28.5 72.5q0 76 67 123.5t185 47.5h32q47 0 70 -18t34 -59l56 -217q75 68 107 127t32 131q0 10 -1.5 19t-3.5 13l-1 4q21 9 41 9q77 0 77 -67q0 -49 -38.5 -99.5
t-157.5 -162.5l-39 -37l59 -227q11 -42 25 -60.5t39 -18.5z" />
    <glyph glyph-name="Y" unicode="Y" horiz-adv-x="684" 
d="M232 750h32q31 0 53 -15.5t29 -43.5l88 -362l14 21q154 230 154 364q0 10 -1.5 19t-2.5 13l-2 4q14 9 38 9q80 0 80 -67q0 -22 -9 -47.5t-31 -62l-40.5 -64.5t-58.5 -84l-64 -92l-60 -88l-26 -149q-5 -31 -5.5 -55t2.5 -32l2 -8q-16 -10 -57 -10q-54 0 -69.5 24.5
t-5.5 84.5l25 145l-106 439q-53 -6 -80.5 -35.5t-27.5 -70.5q0 -21 10.5 -33.5t29.5 -12.5l17 3q1 -3 1 -9q0 -21 -20.5 -38.5t-55.5 -17.5q-48 0 -76.5 27.5t-28.5 72.5q0 76 67 123.5t185 47.5z" />
    <glyph glyph-name="Z" unicode="Z" horiz-adv-x="585" 
d="M563 631l-374 -520q102 -6 185 -6q49 0 86.5 6.5t49.5 12.5l13 7q11 -12 11 -43q0 -40 -28.5 -64t-84.5 -24t-123 14t-106 28l-40 14q-4 -6 -12.5 -15.5t-37.5 -25t-62 -15.5q-36 0 -53 17t-17 42q0 24 17 41.5t50 18.5l377 520q-100 6 -183 6q-49 0 -86.5 -6.5
t-50.5 -12.5l-12 -7q-11 12 -11 43q0 40 28.5 64t84.5 24t123 -14t107 -28l39 -14q4 6 12.5 15.5t37.5 25t62 15.5q35 0 52.5 -17t17.5 -42t-18.5 -42.5t-53.5 -17.5z" />
    <glyph glyph-name="bracketleft" unicode="[" horiz-adv-x="404" 
d="M200 -177h-111q-26 0 -37.5 11t-11.5 36q0 12 8 62l124 713q5 28 7.5 53t2.5 36l1 11q28 5 57 5h121q18 0 31.5 2t18.5 4l5 3q8 -7 8 -26q0 -64 -83 -64h-52l-132 -765h63q18 0 31.5 2t18.5 4l5 3q8 -7 8 -26q0 -64 -83 -64z" />
    <glyph glyph-name="backslash" unicode="\" horiz-adv-x="427" 
d="M382 -8q-21 -12 -35 -14t-25 9.5t-18.5 26.5t-19.5 47l-222 582q-12 30 -22.5 53t-15.5 30l-4 8q6 12 24 23q21 12 35 14t25 -9.5t18.5 -26t19.5 -46.5l223 -582q12 -31 22.5 -53.5t14.5 -29.5l5 -8q-6 -11 -25 -24z" />
    <glyph glyph-name="bracketright" unicode="]" horiz-adv-x="404" 
d="M204 750h111q26 0 37.5 -11t11.5 -36q0 -12 -8 -62l-124 -713q-5 -28 -7.5 -53t-2.5 -36l-1 -11q-28 -5 -57 -5h-121q-18 0 -31.5 -2.5t-18.5 -4.5l-5 -2q-8 7 -8 26q0 64 83 64h52l132 765h-63q-18 0 -31.5 -2.5t-18.5 -4.5l-5 -2q-8 7 -8 26q0 64 83 64z" />
    <glyph glyph-name="asciicircum" unicode="^" horiz-adv-x="501" 
d="M359 461l-76 180l-128 -180q-29 -42 -83 -42q-12 0 -22.5 3.5t-15.5 6.5l-4 3l216 297q20 6 40 6q55 0 74 -45l111 -258q-14 -13 -42 -13q-52 0 -70 42z" />
    <glyph glyph-name="underscore" unicode="_" horiz-adv-x="448" 
d="M325 -119h-342q-18 0 -31.5 -2.5t-18.5 -4.5l-5 -2q-8 7 -8 26q0 64 83 64h342q18 0 31.5 2t18.5 4l5 3q8 -7 8 -26q0 -64 -83 -64z" />
    <glyph glyph-name="grave" unicode="`" horiz-adv-x="258" 
d="M210 712l48 -125q-13 -7 -38 -7q-31 0 -49 25l-101 143q25 10 62 10q35 0 52 -11t26 -35z" />
    <glyph glyph-name="a" unicode="a" horiz-adv-x="557" 
d="M442 418l-43 -243q-16 -88 43 -88q26 0 56 24t49 63q23 0 19 -26q-9 -47 -61 -97.5t-118 -50.5q-50 0 -81.5 30t-35.5 83q-63 -113 -153 -113q-65 0 -106 44t-41 128q0 156 75 242t172 86q69 0 108 -49q12 27 32.5 38t57.5 11q15 0 27.5 -2.5t17.5 -5.5l5 -2
q-13 -18 -23 -72zM157 87q33 0 64 43t49.5 97t29.5 110l9 47q-22 48 -66 48q-55 0 -100 -73.5t-45 -188.5q0 -83 59 -83z" />
    <glyph glyph-name="b" unicode="b" horiz-adv-x="545" 
d="M198 731l-60 -351q65 120 163 120q69 0 106.5 -44t37.5 -123q0 -38 -9 -87q35 4 66 23.5t45 36.5l14 18q21 0 18 -25q-5 -30 -51 -62t-104 -37q-31 -91 -99 -145.5t-155 -54.5q-137 0 -178 50q-22 26 -22 69q0 19 5 52l96 564q5 28 5 49.5t-2 29.5l-2 7q15 9 52 9
q55 0 69.5 -22t4.5 -77zM265 306q0 25 13.5 44t36.5 24q-9 49 -49 49q-43 0 -93 -79q-53 -82 -76 -207q-5 -28 -5 -52q0 -18 2 -28q23 -7 47 -7q51 0 94.5 50t65.5 129q-36 27 -36 77z" />
    <glyph glyph-name="c" unicode="c" 
d="M196 0q-100 0 -163 58t-63 154q0 126 79.5 207t186.5 81q62 0 101.5 -32t39.5 -81q0 -46 -23.5 -75t-62.5 -29q-16 0 -28 6t-16 12l-4 6q4 3 10 10t16.5 32.5t10.5 54.5q0 21 -13 33.5t-33 12.5q-50 0 -92 -62t-42 -156q0 -71 39 -112t108 -41t118 28.5t73 66.5
q22 0 16 -26q-10 -44 -82.5 -96t-175.5 -52z" />
    <glyph glyph-name="d" unicode="d" horiz-adv-x="558" 
d="M388 0q-50 0 -82 30t-35 84q-65 -114 -154 -114q-65 0 -106 44t-41 128q0 156 75 242t172 86q67 0 104 -44l48 279q5 28 5 49.5t-2 29.5l-2 7q15 9 52 9q55 0 69.5 -22t4.5 -77l-96 -556q-15 -88 43 -88q26 0 56 24t49 63q23 0 19 -26q-9 -47 -61 -97.5t-118 -50.5z
M157 87q33 0 64 43t49.5 97t29.5 110l9 47q-22 48 -66 48q-55 0 -100 -73.5t-45 -188.5q0 -83 59 -83z" />
    <glyph glyph-name="e" unicode="e" 
d="M196 0q-100 0 -163 58t-63 158q0 127 81 205.5t187 78.5q71 0 107 -30.5t36 -73.5q0 -131 -281 -184q5 -58 43 -95.5t100 -37.5q73 0 121.5 28t73.5 67q22 0 16 -26q-9 -43 -82.5 -95.5t-175.5 -52.5zM239 450q-47 0 -88.5 -51.5t-49.5 -139.5q88 21 130.5 62.5
t42.5 93.5q0 16 -9.5 25.5t-25.5 9.5z" />
    <glyph glyph-name="f" unicode="f" horiz-adv-x="299" 
d="M0 500h46l17 98q21 123 76.5 177.5t144.5 54.5q64 0 99.5 -32.5t35.5 -80.5q0 -46 -24.5 -75t-63.5 -29q-16 0 -28.5 6t-16.5 12l-4 6q41 41 41 99q0 44 -39 44q-27 0 -50.5 -33t-35.5 -107l-24 -140h100q7 -8 7 -21q0 -29 -34 -29h-82l-110 -624q-17 -95 -57 -135.5
t-107 -40.5q-38 0 -59.5 16t-21.5 41q0 9 2 16t4 9l2 3q13 -13 35 -13q29 0 47.5 23.5t28.5 81.5l108 623h-64q-7 8 -7 21q0 29 34 29z" />
    <glyph glyph-name="g" unicode="g" horiz-adv-x="557" 
d="M442 418l-58 -334q103 41 163 90q10 0 15.5 -6t3.5 -17q-3 -13 -33 -36q-52 -40 -159 -92l-2 -12q-61 -361 -280 -361q-51 0 -81.5 29t-30.5 76q0 83 84 155q61 53 183 113l12 71q-61 -94 -142 -94q-65 0 -106 44t-41 128q0 156 75 242t172 86q69 0 108 -49
q12 27 32.5 38t57.5 11q15 0 27.5 -2.5t17.5 -5.5l5 -2q-14 -18 -23 -72zM157 87q33 0 64 43t49.5 97t29.5 110l9 47q-22 48 -66 48q-55 0 -100 -73.5t-45 -188.5q0 -83 59 -83zM82 -284q108 0 154 244q-101 -52 -141 -92q-59 -57 -59 -107q0 -20 12 -32.5t34 -12.5z" />
    <glyph glyph-name="h" unicode="h" horiz-adv-x="569" 
d="M454 87q62 0 105 87q23 0 19 -26q-9 -47 -60.5 -97.5t-115.5 -50.5q-56 0 -88.5 34t-32.5 91q0 22 15 114l19 110q11 63 -24 63q-48 0 -107.5 -97t-81.5 -220q-5 -28 -5 -49.5t2 -29.5l2 -7q-15 -9 -52 -9q-55 0 -69.5 22t-4.5 77l111 636q5 28 5 49.5t-2 29.5l-2 7
q15 9 52 9q55 0 69.5 -22t4.5 -77l-66 -376q35 58 87.5 101.5t108.5 43.5q47 0 75 -28t28 -75q0 -27 -9 -81l-24 -141q-16 -88 41 -88z" />
    <glyph glyph-name="i" unicode="i" horiz-adv-x="267" 
d="M-11 220l32 185q5 28 5 49.5t-2 29.5l-2 7q15 9 52 9q55 0 69.5 -22t4.5 -77l-39 -226q-15 -88 43 -88q26 0 56 24t49 63q23 0 19 -26q-9 -47 -61 -97.5t-118 -50.5q-53 0 -85 33t-32 92q0 44 9 95zM56 650q0 30 20.5 51t49.5 21q28 0 45 -18t17 -45q0 -28 -20 -48.5
t-52 -20.5q-27 0 -43.5 17t-16.5 43z" />
    <glyph glyph-name="j" unicode="j" horiz-adv-x="272" 
d="M153 401l-54 -317q103 41 163 90q10 0 15.5 -6.5t3.5 -16.5q-3 -13 -33 -36q-52 -40 -159 -92l-2 -12q-61 -361 -280 -361q-51 0 -81.5 29t-30.5 76q0 83 84 155q62 53 183 113l64 382q5 28 5 49.5t-2 29.5l-2 7q15 9 52 9q55 0 69.5 -22t4.5 -77zM-203 -284
q53 0 92.5 62t61.5 182q-98 -51 -141 -92q-59 -57 -59 -107q0 -20 12 -32.5t34 -12.5zM61 650q0 30 20.5 51t49.5 21q28 0 45 -18t17 -45q0 -28 -20 -48.5t-52 -20.5q-27 0 -43.5 17t-16.5 43z" />
    <glyph glyph-name="k" unicode="k" horiz-adv-x="516" 
d="M122 213l-20 -118q-5 -28 -5 -49.5t2 -29.5l2 -7q-15 -9 -52 -9q-55 0 -69.5 22t-4.5 77l111 636q5 28 5 49.5t-2 29.5l-2 7q15 9 52 9q55 0 69.5 -22t4.5 -77l-82 -469h40q31 0 60 57l39 80q29 58 55 79.5t60 21.5q30 0 47.5 -18.5t17.5 -49.5q0 -20 -9 -37t-17 -25
l-9 -7q-1 4 -3.5 10t-15 16t-29.5 10q-42 0 -70 -60l-17 -36q-13 -29 -35 -45q50 -12 68 -65l11 -35q22 -71 75 -71q31 0 60.5 25t46.5 62q23 0 19 -26q-8 -46 -61 -97t-118 -51q-104 0 -139 117l-16 53q-14 43 -48 43h-21z" />
    <glyph glyph-name="l" unicode="l" horiz-adv-x="273" 
d="M-11 220l91 515q5 28 5 49.5t-2 29.5l-2 7q15 9 52 9q55 0 69.5 -22t4.5 -77l-98 -556q-15 -88 43 -88q31 0 61.5 23.5t49.5 63.5q23 0 19 -26q-9 -47 -63.5 -97.5t-121.5 -50.5q-53 0 -85 33t-32 92q0 44 9 95z" />
    <glyph glyph-name="m" unicode="m" horiz-adv-x="805" 
d="M690 87q30 0 57.5 23t47.5 64q23 0 19 -26q-8 -46 -60 -97t-116 -51q-56 0 -88.5 34t-32.5 91q0 26 15 114l19 110q11 63 -24 63q-39 0 -87.5 -95.5t-71.5 -221.5q-5 -28 -5 -49.5t2 -29.5l2 -7q-15 -9 -52 -9q-55 0 -69.5 22t-4.5 77l44 250q12 63 -23 63
q-39 0 -87.5 -92t-72.5 -225q-5 -28 -5 -49.5t2 -29.5l2 -7q-15 -9 -52 -9q-55 0 -69.5 22t-4.5 77l53 306q5 28 5 49.5t-2 29.5l-2 7q15 9 52 9q55 0 69.5 -22t4.5 -77l-4 -24q30 50 72 86.5t89 36.5q48 0 76 -28t28 -76q0 -3 -0.5 -10.5t-0.5 -11.5q28 51 71.5 88.5
t92.5 37.5q47 0 75 -28t28 -75q0 -27 -9 -81l-24 -141q-15 -88 41 -88z" />
    <glyph glyph-name="n" unicode="n" horiz-adv-x="569" 
d="M296 239l19 110q11 63 -24 63q-48 0 -107 -96.5t-82 -220.5q-5 -28 -5 -49.5t2 -29.5l2 -7q-15 -9 -52 -9q-55 0 -69.5 22t-4.5 77l53 306q5 28 5 49.5t-2 29.5l-2 7q15 9 52 9q55 0 69.5 -22t4.5 -77l-8 -46q34 57 87 101t109 44q47 0 75 -28t28 -75q0 -27 -9 -81
l-24 -141q-16 -88 41 -88q62 0 105 87q23 0 19 -26q-7 -45 -59.5 -96.5t-116.5 -51.5q-56 0 -88.5 34t-32.5 91q0 32 15 114z" />
    <glyph glyph-name="o" unicode="o" horiz-adv-x="531" 
d="M247 500q86 0 135 -52t49 -139q0 -30 -5 -63q33 5 63.5 24.5t44.5 36.5l13 17q21 0 18 -25q-5 -29 -49 -60.5t-100 -38.5q-26 -92 -94.5 -146t-167.5 -54q-82 0 -133 50t-51 141q0 138 75 223.5t202 85.5zM251 306q0 57 51 68q-8 77 -65 77q-41 0 -75.5 -47.5
t-54.5 -152.5q-9 -47 -9 -103q0 -47 17 -72.5t49 -25.5q87 0 125 177q-38 29 -38 79z" />
    <glyph glyph-name="p" unicode="p" horiz-adv-x="558" 
d="M156 401l-3 -18q65 117 161 117q69 0 106.5 -45.5t37.5 -124.5q0 -42 -8 -84q34 4 65 23.5t45 36.5l14 18q21 0 18 -25q-5 -29 -50 -61t-103 -38q-29 -92 -91.5 -146t-136.5 -54q-70 0 -116 49l-53 -304q-5 -28 -5 -49.5t2 -29.5l2 -7q-15 -9 -52 -9q-55 0 -69.5 22
t-4.5 77l114 656q5 28 5 49.5t-2 29.5l-2 7q15 9 52 9q55 0 69 -21.5t5 -77.5zM278 306q0 25 13.5 44t36.5 24q-9 49 -49 49q-43 0 -93 -79q-52 -83 -74 -195l-7 -38q27 -43 76 -43q41 0 78 44t56 115q-37 29 -37 79z" />
    <glyph glyph-name="q" unicode="q" horiz-adv-x="546" 
d="M443 418l-119 -673q-5 -28 -5 -49.5t2 -29.5l2 -7q-15 -9 -52 -9q-55 0 -69.5 22t-4.5 77l61 343q-61 -92 -141 -92q-65 0 -106 44t-41 128q0 156 75 242t172 86q69 0 109 -50q11 27 32 38.5t58 11.5q15 0 27.5 -2.5t17.5 -5.5l5 -2q-13 -18 -23 -72zM157 87q33 0 64 43
t49.5 97t29.5 110l9 47q-22 48 -66 48q-55 0 -100 -73.5t-45 -188.5q0 -83 59 -83z" />
    <glyph glyph-name="r" unicode="r" horiz-adv-x="443" 
d="M155 401l-8 -44q44 75 90.5 109t85.5 34q37 0 58.5 -20t21.5 -58q0 -42 -23 -69t-60 -27q-12 0 -23 1.5t-17 2.5l-5 2q13 23 13 50q0 22 -21 22q-29 0 -71 -59q-33 -46 -55.5 -102.5t-39.5 -153.5q-4 -26 -4 -46t2 -27l2 -7q-15 -9 -52 -9q-55 0 -69.5 22t-4.5 77l53 306
q5 28 5 49.5t-2 29.5l-2 7q15 9 52 9q55 0 69.5 -22.5t4.5 -76.5z" />
    <glyph glyph-name="s" unicode="s" horiz-adv-x="456" 
d="M159 324l86 -45q53 -28 76 -59.5t23 -72.5q0 -63 -54.5 -105t-157.5 -42q-88 0 -135 36.5t-47 81.5q0 27 19.5 43.5t46.5 16.5q15 0 27 -3.5t17 -6.5l4 -4q-5 -11 -5 -29q0 -38 21 -61t62 -24q41 0 62.5 18t21.5 45q0 37 -49 63l-98 52q-42 23 -64.5 51t-22.5 74
q0 64 55 105.5t157 41.5q86 0 134 -37t48 -81q0 -27 -19.5 -43.5t-46.5 -16.5q-15 0 -27 3.5t-17 6.5l-4 4q5 11 5 29q0 37 -22.5 61t-62.5 24t-61 -17.5t-21 -45.5q0 -38 49 -63z" />
    <glyph glyph-name="t" unicode="t" horiz-adv-x="298" 
d="M-6 500h47l10 54q5 28 5.5 49.5t-2.5 28.5l-2 8q15 9 52 9q55 0 69.5 -22t4.5 -77l-9 -50h99q7 -8 7 -21q0 -29 -34 -29h-81l-48 -275q-8 -42 7 -65t50 -23q74 0 120 87q24 0 18 -26q-13 -51 -69 -99.5t-122 -48.5q-57 0 -94.5 36.5t-37.5 95.5q0 45 11 107l37 211h-65
q-7 8 -7 21q0 29 34 29z" />
    <glyph glyph-name="u" unicode="u" horiz-adv-x="561" 
d="M274 125q0 20 1 34q-22 -43 -45 -74q-63 -85 -141 -85q-50 0 -79.5 32t-29.5 84q0 54 12 123l29 166q5 28 5 49.5t-2 29.5l-2 7q15 9 52 9q55 0 69.5 -22t4.5 -77l-40 -231q-15 -83 33 -83q30 0 74 67q33 50 61.5 123t39.5 138q4 24 4 43t-2 26l-2 7q15 9 52 9
q55 0 69.5 -22t4.5 -77l-39 -226q-15 -88 43 -88q26 0 56 24t49 63q23 0 19 -26q-9 -47 -61 -97.5t-118 -50.5q-53 0 -85 33t-32 92z" />
    <glyph glyph-name="v" unicode="v" horiz-adv-x="526" 
d="M153 0q-75 0 -119 51.5t-44 138.5q0 72 15 165l8 50q4 29 4.5 50.5t-1.5 28.5l-2 7q15 9 52 9q55 0 69.5 -22t4.5 -77l-15 -85q-11 -64 -11 -104q0 -125 83 -125q48 0 87 51t52 140q-44 67 -44 148q0 32 18.5 53t49.5 21q28 0 45.5 -18t17.5 -57q0 -68 -21 -147
q24 -33 69 -33q21 0 40 8t30.5 19.5t20 23.5t12.5 20l3 8q11 0 15.5 -8t2.5 -17q-6 -34 -42.5 -66t-91.5 -32q-20 0 -39 6t-28 12l-9 6q-28 -73 -60 -119q-74 -106 -172 -106z" />
    <glyph glyph-name="w" unicode="w" horiz-adv-x="797" 
d="M734 201q-42 0 -76 24q-21 -63 -44 -99q-38 -62 -79 -94t-97 -32q-52 0 -87.5 29.5t-50.5 81.5q-69 -111 -163 -111q-73 0 -110 48.5t-37 136.5q0 68 16 170l8 50q4 28 4.5 49.5t-1.5 29.5l-2 7q15 9 52 9q55 0 69.5 -22t4.5 -77l-14 -81q-12 -68 -12 -125
q0 -59 17.5 -83.5t51.5 -24.5q36 0 64 36.5t44 100.5q3 64 14 131l8 50q5 28 5 49.5t-2 29.5l-2 7q15 9 52 9q55 0 69.5 -22t4.5 -77l-14 -81q-13 -73 -13 -129q0 -104 70 -104q44 0 78 52t45 139q-44 64 -44 148q0 33 19 53.5t49 20.5q28 0 45.5 -18.5t17.5 -56.5
q0 -68 -21 -147q24 -33 68 -33q34 0 60.5 19.5t36.5 39.5l10 20q11 0 15.5 -7.5t2.5 -17.5q-6 -33 -41.5 -65.5t-90.5 -32.5z" />
    <glyph glyph-name="x" unicode="x" horiz-adv-x="456" 
d="M55 500q41 0 62 -15.5t35 -58.5l39 -119l35 25q68 48 68 130q0 16 -4 29q14 9 38 9q58 0 58 -53q0 -30 -20 -58.5t-72 -66.5l-87 -63l28 -82q30 -90 95 -90q69 0 116 87q23 0 19 -26q-10 -55 -65.5 -101.5t-121.5 -46.5q-62 0 -101.5 34t-63.5 109l-13 39l-20 -14
q-68 -48 -68 -130q0 -16 4 -29q-14 -9 -38 -9q-58 0 -58 53q0 30 20 58.5t72 66.5l73 53l-48 151q-8 27 -16.5 37t-23.5 10l-19 -5q-2 8 -2 13q0 25 22 44t57 19z" />
    <glyph glyph-name="y" unicode="y" horiz-adv-x="560" 
d="M441 401l-54 -317q103 41 163 90q10 0 15.5 -6.5t3.5 -16.5q-3 -13 -33 -36q-52 -40 -159 -92l-2 -12q-61 -361 -280 -361q-51 0 -81.5 29t-30.5 76q0 83 84 155q62 53 183 113l21 129q-17 -33 -41 -67q-63 -85 -141 -85q-50 0 -79.5 32t-29.5 84q0 54 12 123l29 166
q5 28 5 49.5t-2 29.5l-2 7q15 9 52 9q55 0 69.5 -22t4.5 -77l-40 -231q-14 -83 33 -83q30 0 74 67q70 108 99 251q5 28 5.5 49.5t-1.5 29.5l-3 7q15 9 52 9q55 0 69.5 -22t4.5 -77zM85 -284q53 0 92.5 62t61.5 182q-98 -51 -141 -92q-59 -57 -59 -107q0 -20 12 -32.5
t34 -12.5z" />
    <glyph glyph-name="z" unicode="z" horiz-adv-x="472" 
d="M370 333q0 -114 -93 -197q-34 -31 -74 -50q22 -11 41 -30q63 24 125.5 58t92.5 60q10 0 15.5 -6.5t3.5 -16.5q-3 -13 -33 -36q-48 -37 -174 -101q22 -41 22 -96q0 -106 -78 -187t-191 -81q-64 0 -95.5 27.5t-31.5 77.5q0 84 82 153q64 54 184 113q-4 26 -15 44
q-30 -8 -53 -8q-39 0 -39 30q81 35 136.5 119.5t55.5 172.5q0 71 -69 71q-47 0 -89 -53t-42 -123l2 -19q-9 -5 -24 -5q-32 0 -51 18.5t-19 49.5q0 72 65.5 127t161.5 55q91 0 137.5 -46t46.5 -121zM5 -284q64 0 114 73t50 170v7q-109 -54 -153 -98q-60 -58 -60 -107
q0 -45 49 -45z" />
    <glyph glyph-name="braceleft" unicode="{" horiz-adv-x="389" 
d="M84 316q41 0 60 21.5t19 67.5q0 20 -4 89t-4 106q0 60 38 105t111 45q24 0 45.5 -4.5t40.5 -20t19 -39.5q0 -5 -1.5 -9t-2.5 -5l-1 -2q-19 16 -62 16q-38 0 -53.5 -23t-15.5 -74q0 -27 3.5 -74t3.5 -73q0 -63 -27 -106.5t-75 -62.5q52 -23 52 -92q0 -43 -25 -111.5
t-25 -112.5q0 -70 66 -70q21 0 36 4t20 8l5 4q5 -4 5 -16q0 -25 -29 -44.5t-84 -19.5q-72 0 -105.5 33.5t-33.5 85.5t33.5 147.5t33.5 126.5q0 36 -30 36q-28 0 -28 29q0 22 15 35z" />
    <glyph glyph-name="bar" unicode="|" horiz-adv-x="373" 
d="M117 -177q-45 0 -53.5 25.5t4.5 83.5l124 713q5 31 8 55.5t3 33.5v9q11 7 33 7q45 0 53.5 -25.5t-4.5 -83.5l-124 -713q-5 -31 -8 -55.5t-3 -33.5v-9q-11 -7 -33 -7z" />
    <glyph glyph-name="braceright" unicode="}" horiz-adv-x="389" 
d="M305 256q-41 0 -60 -21.5t-19 -67.5q0 -20 4 -89t4 -106q0 -60 -38 -105t-111 -45q-24 0 -45.5 4.5t-40.5 20t-19 39.5q0 5 1 9t3 5l1 2q19 -16 62 -16q38 0 53.5 23t15.5 74q0 27 -3.5 74t-3.5 73q0 63 27 106.5t75 62.5q-52 23 -52 92q0 43 25 111.5t25 112.5
q0 70 -66 70q-21 0 -36 -4t-20 -8l-5 -4q-5 4 -5 16q0 25 29 44.5t84 19.5q72 0 105.5 -33.5t33.5 -85.5t-33.5 -147.5t-33.5 -126.5q0 -36 30 -36q28 0 28 -29q0 -22 -15 -35z" />
    <glyph glyph-name="asciitilde" unicode="~" horiz-adv-x="536" 
d="M476 311q0 -45 -37.5 -77t-96.5 -32q-39 0 -95.5 28t-90.5 28q-27 0 -50.5 -14t-33.5 -28l-10 -14q-32 0 -32 34q0 45 37.5 77t96.5 32q41 0 95.5 -28t90.5 -28q27 0 50.5 14t33.5 28l10 14q15 0 23.5 -9.5t8.5 -24.5z" />
    <glyph glyph-name="nbspace" unicode="&#xa0;" horiz-adv-x="200" 
 />
    <glyph glyph-name="exclamdown" unicode="&#xa1;" horiz-adv-x="316" 
d="M8 -139l101 355q10 35 14.5 64t4.5 40l-1 11q9 7 25 7q35 0 35 -47q0 -28 -5 -77l-41 -358q-4 -33 -4 -59l3 -35q-16 -10 -57 -10q-83 0 -83 62q0 18 8 47zM236 452q0 -30 -20.5 -51t-49.5 -21q-28 0 -45 18t-17 45q0 28 20 48.5t52 20.5q27 0 43.5 -17t16.5 -43z" />
    <glyph glyph-name="cent" unicode="&#xa2;" horiz-adv-x="447" 
d="M258 602q44 0 53 -24t-2 -76q40 -12 64 -40.5t24 -64.5q0 -46 -23.5 -75t-62.5 -29q-16 0 -28 6t-16 12l-4 6q37 36 37 91q0 52 -46 52q-50 0 -92 -61t-42 -154q0 -156 137 -156q33 0 59.5 10.5t37.5 20.5l10 11q19 0 16 -18q-5 -32 -49 -65.5t-110 -37.5
q-4 -28 -6.5 -50.5t-2.5 -30.5v-8q-11 -7 -33 -7q-45 0 -53.5 25.5t4.5 81.5q-65 21 -102.5 74.5t-37.5 126.5q0 116 65 192.5t160 91.5q5 28 7.5 50.5t2.5 30.5v8q11 7 33 7z" />
    <glyph glyph-name="sterling" unicode="&#xa3;" horiz-adv-x="635" 
d="M142 361l29 157q11 63 38.5 110t64.5 72.5t76 37.5t80 12q87 0 136 -45.5t49 -113.5q0 -61 -30 -98.5t-79 -37.5q-25 0 -41 9.5t-20 18.5l-4 9q2 1 6.5 2.5t15 10t18.5 20.5t14.5 35.5t6.5 52.5q0 82 -74 82q-40 0 -72 -37t-46 -114l-34 -183h155q7 -13 7 -26
q0 -29 -34 -29h-138l-34 -195q98 -6 185 -6q50 0 87 6.5t49 12.5l12 7q11 -12 11 -43q0 -40 -28.5 -64t-84.5 -24t-118 14t-97 28l-34 14q-5 -6 -14 -15.5t-39 -25t-63 -15.5q-38 0 -58 17.5t-20 41.5q0 26 20 43t60 17l33 187h-94q-7 13 -7 26q0 29 34 29h76z" />
    <glyph glyph-name="currency" unicode="&#xa4;" horiz-adv-x="773" 
d="M397 535l-42 -239h28q99 0 154.5 63t55.5 152q0 184 -252 184q-103 0 -155.5 -39t-52.5 -89q0 -21 10.5 -33.5t29.5 -12.5l17 3q1 -3 1 -9q0 -21 -20.5 -38.5t-55.5 -17.5q-48 0 -76.5 27.5t-28.5 72.5q0 81 85 136t249 55q191 0 290 -70.5t99 -179.5q0 -116 -84 -187.5
t-236 -71.5h-67l-9 -48h242q7 -13 7 -26q0 -29 -34 -29h-224l-6 -33q-5 -31 -5.5 -55t1.5 -32l3 -8q-16 -10 -57 -10q-54 0 -69.5 24.5t-5.5 84.5l5 29h-107q-7 13 -7 26q0 29 34 29h89l9 48h-107q-7 13 -7 26q0 29 34 29h89l43 244q5 31 5.5 54.5t-1.5 31.5l-3 8
q16 10 57 10q54 0 70 -25t5 -84z" />
    <glyph glyph-name="yen" unicode="&#xa5;" horiz-adv-x="674" 
d="M577 206h-145l-17 -101q-5 -31 -5.5 -55t2.5 -32l2 -8q-16 -10 -57 -10q-54 0 -69.5 24.5t-5.5 84.5l16 97h-162q-7 13 -7 26q0 29 34 29h142l-16 68h-131q-7 13 -7 26q0 29 34 29h91l-75 309q-52 -7 -80 -36t-28 -70q0 -21 10.5 -33.5t29.5 -12.5l17 3q1 -3 1 -9
q0 -21 -20.5 -38.5t-55.5 -17.5q-48 0 -76.5 27.5t-28.5 72.5q0 76 67 123.5t185 47.5h31q31 0 53.5 -15.5t29.5 -43.5l88 -362l14 21q154 223 154 364q0 10 -1.5 19t-2.5 13l-2 4q14 9 38 9q80 0 80 -67q0 -15 -3.5 -31t-14 -37l-19 -37t-28 -45l-31 -45.5l-38.5 -54.5
l-41 -58h97q7 -13 7 -26q0 -29 -34 -29h-107l-47 -68h159q7 -13 7 -26q0 -29 -34 -29z" />
    <glyph glyph-name="brokenbar" unicode="&#xa6;" horiz-adv-x="372" 
d="M202 328q-46 0 -54.5 25.5t5.5 83.5l38 208q6 31 8.5 55.5t2.5 33.5v9q11 7 33 7q46 0 54.5 -25.5t-5.5 -83.5l-38 -208q-6 -31 -8.5 -55.5t-2.5 -33.5v-9q-11 -7 -33 -7zM117 -177q-46 0 -54.5 25.5t5.5 83.5l38 208q6 31 8.5 55.5t2.5 33.5v9q11 7 33 7
q46 0 54.5 -25.5t-5.5 -83.5l-38 -208q-6 -31 -8.5 -55.5t-2.5 -33.5v-9q-11 -7 -33 -7z" />
    <glyph glyph-name="section" unicode="&#xa7;" horiz-adv-x="606" 
d="M332 512l89 -58q50 -32 74.5 -69.5t24.5 -94.5q0 -50 -30.5 -99.5t-81.5 -79.5q28 -44 28 -90q0 -82 -59.5 -130t-163.5 -48q-81 0 -137 38.5t-56 100.5q0 44 27.5 68t69.5 24q19 0 34 -5.5t21 -10.5l5 -6q-5 -2 -11.5 -7.5t-18 -25.5t-11.5 -45q0 -34 23.5 -55t64.5 -21
q43 0 71 24.5t28 60.5q0 53 -69 98l-89 58q-52 33 -75.5 70t-23.5 94q0 50 30 99.5t81 78.5q-27 43 -27 91q0 81 60 129.5t162 48.5q81 0 137.5 -38.5t56.5 -100.5q0 -41 -26 -67t-71 -26q-20 0 -35 5.5t-20 10.5l-5 6q5 3 11.5 8t18 25.5t11.5 45.5q0 34 -23.5 55t-64.5 21
q-43 0 -71 -24.5t-28 -60.5q0 -53 69 -98zM260 229l91 -58l22 -18q32 34 32 82q0 42 -18 72t-61 57l-91 58l-23 17q-31 -33 -31 -81q0 -42 18 -72t61 -57z" />
    <glyph glyph-name="dieresis" unicode="&#xa8;" horiz-adv-x="362" 
d="M245 650q0 28 18.5 46t44.5 18q24 0 39 -15.5t15 -38.5q0 -26 -18 -44.5t-46 -18.5q-23 0 -38 15t-15 38zM70 650q0 27 18.5 45.5t44.5 18.5q24 0 39 -15.5t15 -38.5q0 -26 -18 -44.5t-46 -18.5q-23 0 -38 15t-15 38z" />
    <glyph glyph-name="copyright" unicode="&#xa9;" horiz-adv-x="918" 
d="M374 340q0 -66 33.5 -103t97.5 -37q25 0 45 7t28 14l7 7q18 0 14 -21q-5 -28 -44 -55.5t-98 -27.5q-90 0 -142 55t-52 137q0 102 65 171t154 69q66 0 100 -29.5t34 -75.5q0 -39 -21 -63t-54 -24q-14 0 -24.5 5t-14.5 11l-4 5q35 31 35 78q0 50 -51 50q-42 0 -75 -49
t-33 -124zM161 308q0 -116 73 -191.5t194 -75.5q96 0 168.5 49.5t106.5 122.5t34 156q0 122 -73 200t-200 78q-129 0 -216 -98.5t-87 -240.5zM50 305q0 114 64.5 206.5t161.5 140.5t201 48q167 0 269 -90.5t102 -238.5q0 -155 -125.5 -269t-307.5 -114q-161 0 -263 87.5
t-102 229.5z" />
    <glyph glyph-name="ordfeminine" unicode="&#xaa;" horiz-adv-x="462" 
d="M436 708l-31 -195q-9 -58 17 -58q8 0 14.5 4.5t8.5 9.5l2 5q17 0 14 -21q-2 -24 -26.5 -44t-57.5 -20q-60 0 -76 69q-43 -69 -117 -69q-53 0 -83.5 36t-30.5 98q0 114 56 180.5t128 66.5q53 0 87 -34q18 34 68 34q12 0 23.5 -2t16.5 -4l5 -1q-12 -15 -18 -55zM214 461
q35 0 64 53.5t41 119.5l7 38q-13 37 -53 37q-39 0 -69 -57.5t-30 -130.5q0 -28 11 -44t29 -16z" />
    <glyph glyph-name="guillemotleft" unicode="&#xab;" horiz-adv-x="611" 
d="M216 27l-196 223l251 215q10 8 18.5 18t12.5 16l3 6q20 -8 30 -27q23 -45 -44 -103l-146 -124l149 -171q12 -13 23.5 -21t16.5 -9l6 -1q0 -10 -13 -24q-23 -25 -56 -25q-32 0 -55 27zM369 80l-146 170l206 165q13 10 22.5 20t12.5 15l4 4q16 -9 25 -26q26 -50 -44 -103
l-100 -75l98 -117q12 -13 23.5 -21t17.5 -9l5 -1q0 -10 -13 -24q-24 -26 -56 -26q-31 0 -55 28z" />
    <glyph glyph-name="logicalnot" unicode="&#xac;" horiz-adv-x="487" 
d="M375 131q-31 0 -44 11t-13 36q0 13 11 83h-236q-18 0 -31.5 -2.5t-18.5 -4.5l-5 -2q-8 7 -8 26q0 64 83 64h257q32 0 44.5 -9.5t12.5 -31.5q0 -19 -8 -65q-5 -31 -8 -55.5t-3 -33.5v-9q-11 -7 -33 -7z" />
    <glyph glyph-name="uni00AD" unicode="&#xad;" horiz-adv-x="478" 
d="M315 219h-232q-18 0 -31.5 -2.5t-18.5 -4.5l-5 -2q-8 5 -8 24q0 34 26 56t77 22h232q18 0 31.5 2t18.5 4l5 3q8 -5 8 -24q0 -34 -26 -56t-77 -22z" />
    <glyph glyph-name="registered" unicode="&#xae;" horiz-adv-x="898" 
d="M541 124q-63 0 -83 75l-9 34q-9 35 -42 35h-18l-14 -82q-3 -17 -3 -31t2 -19l1 -6q-38 -6 -62 -6q-31 0 -40 14.5t-4 49.5l52 307q3 18 3.5 31.5t-0.5 18.5l-2 5q17 6 41 6h108q77 0 119.5 -35t42.5 -91q0 -49 -43.5 -87t-104.5 -47q61 -5 74 -55l9 -35q6 -26 19 -26
q5 0 9 4t6 8l2 4q16 0 13 -19q-3 -22 -24 -37.5t-52 -15.5zM428 492l-30 -169h21q48 0 75.5 30.5t27.5 78.5q0 69 -93 69q0 -1 -0.5 -4t-0.5 -5zM161 308q0 -116 73 -191.5t194 -75.5q96 0 168.5 49.5t106.5 122.5t34 156q0 122 -73 200t-200 78q-129 0 -216 -98.5
t-87 -240.5zM50 305q0 114 64.5 206.5t161.5 140.5t201 48q167 0 269 -90.5t102 -238.5q0 -155 -125.5 -269t-307.5 -114q-161 0 -263 87.5t-102 229.5z" />
    <glyph glyph-name="macron" unicode="&#xaf;" horiz-adv-x="428" 
d="M345 599h-212q-18 0 -31.5 -2.5t-18.5 -4.5l-5 -2q-8 7 -8 26q0 64 83 64h212q18 0 31.5 2t18.5 4l5 3q8 -7 8 -26q0 -64 -83 -64z" />
    <glyph glyph-name="degree" unicode="&#xb0;" horiz-adv-x="347" 
d="M70 631q0 63 44.5 106t103.5 43q56 0 92.5 -36t36.5 -90q0 -59 -43 -102t-109 -43q-54 0 -89.5 35t-35.5 87zM146 639q0 -27 16 -45t41 -18q30 0 48.5 22.5t18.5 51.5q0 25 -15.5 43t-41.5 18q-29 0 -48 -21.5t-19 -50.5z" />
    <glyph glyph-name="plusminus" unicode="&#xb1;" horiz-adv-x="534" 
d="M326 457l-10 -55h95q18 0 31.5 2t18.5 4l5 3q8 -7 8 -26q0 -64 -83 -64h-90l-17 -94q-4 -17 -4 -32h95q18 0 31.5 2.5t18.5 4.5l5 2q8 -7 8 -26q0 -64 -83 -64h-272q-18 0 -31.5 -2t-18.5 -4l-5 -3q-8 7 -8 26q0 64 83 64h104q-14 23 -5 66l11 60h-94q-18 0 -31.5 -2.5
t-18.5 -4.5l-5 -2q-8 7 -8 26q0 64 83 64h89l16 89q3 17 3.5 31t-1.5 20l-1 5q1 1 3 1.5t9 2t15 -0.5q68 -13 54 -93z" />
    <glyph glyph-name="twosuperior" unicode="&#xb2;" horiz-adv-x="361" 
d="M240 750q56 0 88.5 -28.5t32.5 -69.5q0 -46 -32 -85t-115 -83q-18 -9 -34.5 -20.5t-24.5 -18.5l-8 -7q18 5 42 6q99 5 134 15q6 -8 6 -25q0 -30 -18 -48.5t-51 -18.5q-30 0 -68 3.5t-52 3.5q-9 0 -19.5 -2t-16.5 -4l-5 -1q-12 0 -20.5 11.5t-8.5 29.5q0 36 75 94
q113 87 113 146q0 52 -39 52q-21 0 -33.5 -17.5t-12.5 -45.5q0 -10 2.5 -19t4.5 -13l2 -4q-6 -14 -29 -14q-54 0 -54 56q0 46 41 76.5t100 30.5z" />
    <glyph glyph-name="threesuperior" unicode="&#xb3;" horiz-adv-x="363" 
d="M184 366q-54 0 -84 23t-30 55q0 35 32 35l12 -3q0 -27 14.5 -43.5t41.5 -16.5q34 0 53 21t19 54q0 12 -3 22.5t-7 14.5l-3 4h-14q-35 0 -35 29q0 6 1 9q34 0 56.5 24t22.5 57q0 49 -43 49q-21 0 -35 -17t-14 -40q0 -10 2.5 -18t5.5 -11l2 -3q-6 -13 -30 -13q-54 0 -54 56
q0 41 41 68.5t103 27.5q59 0 92 -29t33 -72q0 -31 -19.5 -58t-51.5 -41q24 -8 39 -27.5t15 -45.5q0 -47 -41.5 -79t-120.5 -32z" />
    <glyph glyph-name="acute" unicode="&#xb4;" horiz-adv-x="299" 
d="M70 587l80 125q29 46 89 46q16 0 31 -2.5t22 -5.5l7 -2l-137 -143q-23 -25 -55 -25q-11 0 -20.5 2t-12.5 4z" />
    <glyph glyph-name="mu" unicode="&#xb5;" horiz-adv-x="565" 
d="M151 401l-42 -252q-5 -29 5 -45.5t30 -16.5q30 0 74 67q76 115 101 261q4 24 4 43t-2 26l-2 7q15 9 52 9q55 0 69.5 -22t4.5 -77l-38 -221q-15 -93 30 -93q13 0 22.5 7t12.5 14l3 7q22 0 19 -29q-3 -32 -36.5 -59t-79.5 -27q-42 0 -71.5 31.5t-29.5 86.5q0 26 1 41
q-22 -43 -45 -74q-63 -85 -149 -85l-42 -255q-5 -28 -5 -49.5t2 -29.5l2 -7q-15 -9 -52 -9q-55 0 -69.5 22t-4.5 77l109 656q5 28 5 49.5t-2 29.5l-2 7q20 9 52 9q59 0 71 -24t3 -75z" />
    <glyph glyph-name="paragraph" unicode="&#xb6;" horiz-adv-x="623" 
d="M386 -177q-45 0 -53.5 26t4.5 83l127 725q-65 28 -114 34q0 -6 -7 -50l-124 -713q-5 -32 -8 -56.5t-3 -33.5v-8q-11 -7 -33 -7q-45 0 -53.5 25.5t4.5 83.5l73 419q-74 0 -116.5 46.5t-42.5 116.5q0 104 75 170t188 66q29 0 123 -11.5t168 -11.5q26 0 45.5 4t26.5 8l6 4
q11 -11 11 -33q0 -38 -26.5 -61t-71.5 -23q-13 0 -33 2l-122 -700q-5 -31 -8 -55.5t-3 -33.5v-9q-11 -7 -33 -7z" />
    <glyph glyph-name="periodcentered" unicode="&#xb7;" horiz-adv-x="217" 
d="M40 366q0 32 21.5 53.5t51.5 21.5q29 0 46.5 -18.5t17.5 -46.5q0 -29 -21 -50.5t-54 -21.5q-28 0 -45 17.5t-17 44.5z" />
    <glyph glyph-name="cedilla" unicode="&#xb8;" horiz-adv-x="280" 
d="M60 16h74l-11 -41q36 -2 56.5 -23.5t20.5 -56.5q0 -45 -32.5 -75.5t-81.5 -30.5q-34 0 -57.5 18t-27.5 45q-1 11 3 16.5t9 5.5h5q15 -23 46 -23q20 0 32.5 13.5t12.5 32.5q0 40 -46 40q-14 0 -25 -4q21 83 22 83z" />
    <glyph glyph-name="onesuperior" unicode="&#xb9;" horiz-adv-x="295" 
d="M71 646q77 53 96 97q12 7 45 7q43 0 55 -19.5t4 -66.5l-38 -215q-4 -25 -4.5 -43.5t1.5 -25.5l2 -6q-12 -8 -44 -8q-43 0 -55.5 19.5t-4.5 66.5l36 199l-10 -8q-32 -26 -52 -26q-15 0 -23.5 8.5t-7.5 20.5z" />
    <glyph glyph-name="ordmasculine" unicode="&#xba;" horiz-adv-x="437" 
d="M290 772q67 0 107 -41t40 -109q0 -100 -59 -165.5t-159 -65.5q-67 0 -108 39.5t-41 109.5q0 106 61 169t159 63zM180 582q-5 -32 -5 -58q0 -77 52 -77q37 0 62.5 35.5t36.5 98.5q5 30 5 58q0 77 -52 77q-32 0 -59.5 -31t-39.5 -103z" />
    <glyph glyph-name="guillemotright" unicode="&#xbb;" horiz-adv-x="541" 
d="M285 473l196 -223l-251 -215q-10 -8 -18.5 -18t-11.5 -16l-4 -6q-20 8 -30 27q-23 45 44 103l146 124l-149 171q-12 13 -23.5 21t-17.5 9l-5 1q0 10 13 24q23 25 56 25q32 0 55 -27zM132 420l146 -170l-206 -165q-13 -10 -22.5 -20t-13.5 -15l-3 -4q-16 9 -25 26
q-26 50 44 103l100 75l-98 117q-12 13 -23.5 21t-16.5 9l-6 1q0 10 13 24q24 26 56 26q31 0 55 -28z" />
    <glyph glyph-name="onequarter" unicode="&#xbc;" horiz-adv-x="851" 
d="M112 -12q-21 12 -29.5 22.5t-4 26.5t13.5 28.5t31 40.5l475 587q20 24 34.5 44l19.5 27l4 8q14 1 32 -10q21 -12 29.5 -22.5t4 -26.5t-13.5 -28.5t-31 -40.5l-475 -587q-20 -24 -34.5 -44l-19.5 -27l-4 -8q-13 -1 -32 10zM61 646q77 53 96 97q12 7 45 7q43 0 55 -19.5
t4 -66.5l-38 -215q-4 -25 -4.5 -43.5t1.5 -25.5l2 -6q-12 -8 -44 -8q-43 0 -55.5 19.5t-4.5 66.5l36 199l-10 -8q-32 -26 -52 -26q-15 0 -23.5 8.5t-7.5 20.5zM527 362q0 1 6.5 6t21.5 10.5t32 5.5q64 0 64 -65q0 -38 -25 -68.5t-78 -68.5h100l22 121q4 25 4 43.5t-2 24.5
l-2 6q12 7 45 7q43 0 55 -19.5t4 -66.5l-21 -116h26q15 0 26 2t15 4l4 1q7 -6 7 -21q0 -24 -15 -34t-53 -10h-20l-7 -41q-4 -25 -4.5 -43.5t1.5 -25.5l2 -6q-12 -8 -44 -8q-43 0 -55.5 19.5t-4.5 66.5l7 38h-100q-45 0 -64 10t-19 35v11q45 22 69 58t24 76q0 10 -2 18
t-5 13.5t-6.5 9l-5.5 5.5z" />
    <glyph glyph-name="onehalf" unicode="&#xbd;" horiz-adv-x="833" 
d="M112 -12q-21 12 -29.5 22.5t-4 26.5t13.5 28.5t31 40.5l475 587q20 24 34.5 44l19.5 27l4 8q14 1 32 -10q21 -12 29.5 -22.5t4 -26.5t-13.5 -28.5t-31 -40.5l-475 -587q-20 -24 -34.5 -44l-19.5 -27l-4 -8q-13 -1 -32 10zM61 646q77 53 96 97q12 7 45 7q43 0 55 -19.5
t4 -66.5l-38 -215q-4 -25 -4.5 -43.5t1.5 -25.5l2 -6q-12 -8 -44 -8q-43 0 -55.5 19.5t-4.5 66.5l36 199l-10 -8q-32 -26 -52 -26q-15 0 -23.5 8.5t-7.5 20.5zM652 383q56 0 88.5 -28.5t32.5 -69.5q0 -46 -32 -85t-115 -83q-18 -9 -34.5 -20.5t-24.5 -18.5l-8 -7q18 5 42 6
q99 5 134 15q6 -8 6 -25q0 -30 -18 -48.5t-51 -18.5q-30 0 -68 3.5t-52 3.5q-9 0 -19.5 -2t-16.5 -3l-5 -2q-12 0 -20.5 11.5t-8.5 29.5q0 36 75 94q113 87 113 146q0 52 -39 52q-21 0 -33.5 -17.5t-12.5 -45.5q0 -10 2.5 -19t4.5 -13l2 -4q-6 -14 -29 -14q-54 0 -54 56
q0 46 41 76.5t100 30.5z" />
    <glyph glyph-name="threequarters" unicode="&#xbe;" horiz-adv-x="889" 
d="M150 -12q-21 12 -29.5 22.5t-4 26.5t13.5 28.5t31 40.5l475 587q20 24 34.5 44l19.5 27l4 8q14 1 32 -10q21 -12 29.5 -22.5t4 -26.5t-13.5 -28.5t-31 -40.5l-475 -587q-20 -24 -34.5 -44l-19.5 -27l-4 -8q-13 -1 -32 10zM174 366q-54 0 -84 23t-30 55q0 35 32 35l12 -3
q0 -27 14.5 -43.5t41.5 -16.5q34 0 53 21t19 54q0 12 -3 22.5t-7 14.5l-3 4h-14q-35 0 -35 29q0 6 1 9q34 0 56.5 24t22.5 57q0 49 -43 49q-21 0 -35 -17t-14 -40q0 -10 2.5 -18t5.5 -11l2 -3q-6 -13 -30 -13q-54 0 -54 56q0 41 41 68.5t103 27.5q59 0 92 -29t33 -72
q0 -31 -19.5 -58t-51.5 -41q24 -8 39 -27.5t15 -45.5q0 -47 -41.5 -79t-120.5 -32zM565 362q0 1 6.5 6t21.5 10.5t32 5.5q64 0 64 -65q0 -38 -25 -68.5t-78 -68.5h100l22 121q4 25 4 43.5t-2 24.5l-2 6q12 7 45 7q43 0 55 -19.5t4 -66.5l-21 -116h26q15 0 26 2t15 4l4 1
q7 -6 7 -21q0 -24 -15 -34t-53 -10h-20l-7 -41q-4 -25 -4.5 -43.5t1.5 -25.5l2 -6q-12 -8 -44 -8q-43 0 -55.5 19.5t-4.5 66.5l7 38h-100q-45 0 -64 10t-19 35v11q45 22 69 58t24 76q0 10 -2 18t-5 13.5t-6.5 9l-5.5 5.5z" />
    <glyph glyph-name="questiondown" unicode="&#xbf;" horiz-adv-x="454" 
d="M268 291q0 -106 -83 -201q-86 -98 -86 -188q0 -45 24 -70.5t68 -25.5q47 0 79 37.5t32 90.5q0 18 -4.5 33.5t-9.5 21.5l-4 6q14 24 58 24q33 0 52.5 -21t19.5 -61q0 -74 -69 -129t-174 -56q-101 0 -156 46t-55 113q0 66 30.5 110.5t112.5 110.5q79 64 100 145
q4 17 5.5 30.5t0.5 18.5l-1 5q9 7 25 7q35 0 35 -47zM317 452q0 -30 -20.5 -51t-49.5 -21q-28 0 -45 18t-17 45q0 28 20 48.5t52 20.5q27 0 43.5 -17t16.5 -43z" />
    <glyph glyph-name="Agrave" unicode="&#xc0;" horiz-adv-x="664" 
d="M386 263l2 11h-174l-30 -83q-41 -114 -75 -152.5t-79 -38.5q-31 0 -50.5 21t-19.5 56q0 16 3.5 28.5t6.5 16.5l4 5q11 -8 35 -8q77 0 140 153q-20 -2 -37.5 -8t-25.5 -10l-7 -5q-16 13 -16 40q0 30 21.5 48t58.5 18q18 0 36 -3l76 211q36 100 91.5 143.5t159.5 43.5
q58 0 74 -25t6 -84l-82 -471q-14 -83 45 -83q32 0 61 28.5t44 58.5q22 0 19 -26q-7 -50 -61.5 -99t-119.5 -49q-54 0 -87 33.5t-33 90.5t14 139zM239 343q82 -13 158 -14l56 317l5 49q-47 0 -83 -37t-56 -93zM456 962l48 -125q-13 -7 -38 -7q-31 0 -49 25l-101 143
q25 10 62 10q35 0 52 -11t26 -35z" />
    <glyph glyph-name="Aacute" unicode="&#xc1;" horiz-adv-x="664" 
d="M386 263l2 11h-174l-30 -83q-41 -114 -75 -152.5t-79 -38.5q-31 0 -50.5 21t-19.5 56q0 16 3.5 28.5t6.5 16.5l4 5q11 -8 35 -8q77 0 140 153q-20 -2 -37.5 -8t-25.5 -10l-7 -5q-16 13 -16 40q0 30 21.5 48t58.5 18q18 0 36 -3l76 211q36 100 91.5 143.5t159.5 43.5
q58 0 74 -25t6 -84l-82 -471q-14 -83 45 -83q32 0 61 28.5t44 58.5q22 0 19 -26q-7 -50 -61.5 -99t-119.5 -49q-54 0 -87 33.5t-33 90.5t14 139zM239 343q82 -13 158 -14l56 317l5 49q-47 0 -83 -37t-56 -93zM455 837l80 125q29 46 89 46q16 0 31 -2.5t22 -5.5l7 -2
l-137 -143q-23 -25 -55 -25q-11 0 -20.5 2t-13.5 4z" />
    <glyph glyph-name="Acircumflex" unicode="&#xc2;" horiz-adv-x="664" 
d="M386 263l2 11h-174l-30 -83q-41 -114 -75 -152.5t-79 -38.5q-31 0 -50.5 21t-19.5 56q0 16 3.5 28.5t6.5 16.5l4 5q11 -8 35 -8q77 0 140 153q-20 -2 -37.5 -8t-25.5 -10l-7 -5q-16 13 -16 40q0 30 21.5 48t58.5 18q18 0 36 -3l76 211q36 100 91.5 143.5t159.5 43.5
q58 0 74 -25t6 -84l-82 -471q-14 -83 45 -83q32 0 61 28.5t44 58.5q22 0 19 -26q-7 -50 -61.5 -99t-119.5 -49q-54 0 -87 33.5t-33 90.5t14 139zM239 343q82 -13 158 -14l56 317l5 49q-47 0 -83 -37t-56 -93zM522 870l-37 63l-74 -78q-25 -25 -55 -25q-12 0 -21 2t-13 4
l-3 1l128 163q16 8 42 8q30 0 47 -9t29 -31l74 -131q-21 -7 -37 -7q-33 0 -50 9t-30 31z" />
    <glyph glyph-name="Atilde" unicode="&#xc3;" horiz-adv-x="664" 
d="M386 263l2 11h-174l-30 -83q-41 -114 -75 -152.5t-79 -38.5q-31 0 -50.5 21t-19.5 56q0 16 3.5 28.5t6.5 16.5l4 5q11 -8 35 -8q77 0 140 153q-20 -2 -37.5 -8t-25.5 -10l-7 -5q-16 13 -16 40q0 30 21.5 48t58.5 18q18 0 36 -3l76 211q36 100 91.5 143.5t159.5 43.5
q58 0 74 -25t6 -84l-82 -471q-14 -83 45 -83q32 0 61 28.5t44 58.5q22 0 19 -26q-7 -50 -61.5 -99t-119.5 -49q-54 0 -87 33.5t-33 90.5t14 139zM239 343q82 -13 158 -14l56 317l5 49q-47 0 -83 -37t-56 -93zM551 840q-37 0 -74.5 27t-61.5 27q-27 0 -46 -13.5t-25 -26.5
l-5 -14q-24 0 -23 31q2 43 35 75t80 32q37 0 75 -27t61 -27q27 0 46 13.5t25 26.5l5 14q24 0 23 -31q-2 -43 -35 -75t-80 -32z" />
    <glyph glyph-name="Adieresis" unicode="&#xc4;" horiz-adv-x="664" 
d="M386 263l2 11h-174l-30 -83q-41 -114 -75 -152.5t-79 -38.5q-31 0 -50.5 21t-19.5 56q0 16 3.5 28.5t6.5 16.5l4 5q11 -8 35 -8q77 0 140 153q-20 -2 -37.5 -8t-25.5 -10l-7 -5q-16 13 -16 40q0 30 21.5 48t58.5 18q18 0 36 -3l76 211q36 100 91.5 143.5t159.5 43.5
q58 0 74 -25t6 -84l-82 -471q-14 -83 45 -83q32 0 61 28.5t44 58.5q22 0 19 -26q-7 -50 -61.5 -99t-119.5 -49q-54 0 -87 33.5t-33 90.5t14 139zM239 343q82 -13 158 -14l56 317l5 49q-47 0 -83 -37t-56 -93zM520 900q0 28 18 46t45 18q24 0 39 -15.5t15 -38.5
q0 -26 -18 -44.5t-46 -18.5q-23 0 -38 15t-15 38zM345 900q0 27 18.5 45.5t44.5 18.5q24 0 39 -15.5t15 -38.5q0 -26 -18 -44.5t-46 -18.5q-23 0 -38 15t-15 38z" />
    <glyph glyph-name="Aring" unicode="&#xc5;" horiz-adv-x="664" 
d="M386 263l2 11h-174l-30 -83q-41 -114 -75 -152.5t-79 -38.5q-31 0 -50.5 21t-19.5 56q0 16 3.5 28.5t6.5 16.5l4 5q11 -8 35 -8q77 0 140 153q-20 -2 -37.5 -8t-25.5 -10l-7 -5q-16 13 -16 40q0 30 21.5 48t58.5 18q18 0 36 -3l76 211q36 100 91.5 143.5t159.5 43.5
q58 0 74 -25t6 -84l-82 -471q-14 -83 45 -83q32 0 61 28.5t44 58.5q22 0 19 -26q-7 -50 -61.5 -99t-119.5 -49q-54 0 -87 33.5t-33 90.5t14 139zM239 343q82 -13 158 -14l56 317l5 49q-47 0 -83 -37t-56 -93zM397 900q0 46 31.5 77.5t74.5 31.5q41 0 67 -26.5t26 -66.5
q0 -43 -30.5 -74.5t-78.5 -31.5q-39 0 -64.5 25.5t-25.5 64.5zM454 905q0 -17 11 -28.5t27 -11.5q21 0 33.5 14t12.5 34q0 17 -10 28.5t-28 11.5q-20 0 -33 -14t-13 -34z" />
    <glyph glyph-name="AE" unicode="&#xc6;" horiz-adv-x="885" 
d="M695 695q-57 0 -97 -48.5t-40 -115.5q0 -51 25 -84.5t84 -33.5h8q1 -4 1 -11q0 -38 -53 -38h-23q-59 -14 -92.5 -54.5t-33.5 -92.5q0 -61 46.5 -97.5t139.5 -36.5q88 0 152.5 28t94.5 63q18 0 18 -14q0 -22 -26.5 -49.5t-69.5 -52t-106 -41.5t-128 -17
q-118 0 -188.5 50.5t-70.5 139.5q0 104 99 163h-186q-55 -148 -92 -224.5t-64.5 -102.5t-62.5 -26q-31 0 -50.5 21t-19.5 56q0 16 3.5 28.5t6.5 16.5l4 5q8 -8 32 -8q43 0 85 54t93 178q-20 -2 -37.5 -8t-24.5 -11l-8 -4q-16 13 -16 40q0 30 21.5 48t58.5 18q18 0 36 -3
l38 122q30 95 87 146t153 51h194q94 0 146.5 -45.5t52.5 -110.5q0 -50 -25 -80.5t-72 -30.5q-19 0 -34.5 6t-21.5 12l-5 6q5 5 12.5 13.5t20 37t12.5 59.5q0 78 -77 78zM274 422q116 -10 205 -13q-59 48 -59 124q0 107 95 170q-77 -1 -126 -35t-72 -107z" />
    <glyph glyph-name="Ccedilla" unicode="&#xc7;" horiz-adv-x="645" 
d="M405 83q76 0 140.5 25t101.5 66q20 0 17 -22q-12 -47 -96 -96.5t-185 -53.5l-7 -27q36 -2 56.5 -23.5t20.5 -56.5q0 -45 -32.5 -75.5t-81.5 -30.5q-34 0 -57.5 18t-27.5 45q-1 11 3 16.5t9 5.5h5q15 -23 46 -23q20 0 32.5 13.5t12.5 32.5q0 40 -46 40q-14 0 -25 -4l17 69
q-116 17 -187 98t-71 211q0 203 109.5 321t264.5 118q89 0 139.5 -50t48.5 -120q-2 -68 -37.5 -106.5t-84.5 -38.5q-22 0 -38 8.5t-22 16.5l-5 9q3 1 8 4t17 14t22 25.5t18.5 41t9.5 57.5q1 39 -20.5 61.5t-58.5 22.5q-86 0 -159 -106t-73 -267q0 -114 57 -176.5t159 -62.5z
" />
    <glyph glyph-name="Egrave" unicode="&#xc8;" horiz-adv-x="580" 
d="M389 695q-57 0 -97 -48.5t-40 -115.5q0 -53 27 -87t90 -31q1 -4 1 -11q0 -38 -53 -38h-23q-59 -14 -92.5 -54.5t-33.5 -92.5q0 -60 45 -97t141 -37q88 0 152.5 28t94.5 63q22 0 17 -22q-10 -49 -109 -100.5t-220 -51.5q-118 0 -188.5 50.5t-70.5 139.5q0 68 48 121
t132 75q-46 22 -71 60.5t-25 86.5q0 94 74.5 155.5t189.5 61.5q95 0 148 -45t53 -111q0 -50 -25 -80.5t-72 -30.5q-19 0 -34.5 6t-21.5 12l-5 6q5 5 12.5 13.5t20 37t12.5 59.5q0 78 -77 78zM385 962l48 -125q-13 -7 -38 -7q-31 0 -49 25l-101 143q25 10 62 10q35 0 52 -11
t26 -35z" />
    <glyph glyph-name="Eacute" unicode="&#xc9;" horiz-adv-x="580" 
d="M389 695q-57 0 -97 -48.5t-40 -115.5q0 -53 27 -87t90 -31q1 -4 1 -11q0 -38 -53 -38h-23q-59 -14 -92.5 -54.5t-33.5 -92.5q0 -60 45 -97t141 -37q88 0 152.5 28t94.5 63q22 0 17 -22q-10 -49 -109 -100.5t-220 -51.5q-118 0 -188.5 50.5t-70.5 139.5q0 68 48 121
t132 75q-46 22 -71 60.5t-25 86.5q0 94 74.5 155.5t189.5 61.5q95 0 148 -45t53 -111q0 -50 -25 -80.5t-72 -30.5q-19 0 -34.5 6t-21.5 12l-5 6q5 5 12.5 13.5t20 37t12.5 59.5q0 78 -77 78zM364 837l80 125q29 46 89 46q16 0 31 -2.5t22 -5.5l7 -2l-137 -143
q-23 -25 -55 -25q-11 0 -20.5 2t-12.5 4z" />
    <glyph glyph-name="Ecircumflex" unicode="&#xca;" horiz-adv-x="580" 
d="M389 695q-57 0 -97 -48.5t-40 -115.5q0 -53 27 -87t90 -31q1 -4 1 -11q0 -38 -53 -38h-23q-59 -14 -92.5 -54.5t-33.5 -92.5q0 -60 45 -97t141 -37q88 0 152.5 28t94.5 63q22 0 17 -22q-10 -49 -109 -100.5t-220 -51.5q-118 0 -188.5 50.5t-70.5 139.5q0 68 48 121
t132 75q-46 22 -71 60.5t-25 86.5q0 94 74.5 155.5t189.5 61.5q95 0 148 -45t53 -111q0 -50 -25 -80.5t-72 -30.5q-19 0 -34.5 6t-21.5 12l-5 6q5 5 12.5 13.5t20 37t12.5 59.5q0 78 -77 78zM450 870l-37 63l-74 -78q-25 -25 -55 -25q-12 0 -21 2t-13 4l-3 1l128 163
q16 8 42 8q30 0 47 -9t29 -31l74 -131q-21 -7 -37 -7q-33 0 -50 9t-30 31z" />
    <glyph glyph-name="Edieresis" unicode="&#xcb;" horiz-adv-x="580" 
d="M389 695q-57 0 -97 -48.5t-40 -115.5q0 -53 27 -87t90 -31q1 -4 1 -11q0 -38 -53 -38h-23q-59 -14 -92.5 -54.5t-33.5 -92.5q0 -60 45 -97t141 -37q88 0 152.5 28t94.5 63q22 0 17 -22q-10 -49 -109 -100.5t-220 -51.5q-118 0 -188.5 50.5t-70.5 139.5q0 68 48 121
t132 75q-46 22 -71 60.5t-25 86.5q0 94 74.5 155.5t189.5 61.5q95 0 148 -45t53 -111q0 -50 -25 -80.5t-72 -30.5q-19 0 -34.5 6t-21.5 12l-5 6q5 5 12.5 13.5t20 37t12.5 59.5q0 78 -77 78zM434 900q0 28 18 46t45 18q24 0 39 -15.5t15 -38.5q0 -26 -18 -44.5t-46 -18.5
q-23 0 -38 15t-15 38zM259 900q0 27 18.5 45.5t44.5 18.5q24 0 39 -15.5t15 -38.5q0 -26 -18 -44.5t-46 -18.5q-23 0 -38 15t-15 38z" />
    <glyph glyph-name="Igrave" unicode="&#xcc;" horiz-adv-x="442" 
d="M232 750h70q54 0 69.5 -24.5t5.5 -84.5l-94 -536q-5 -31 -5.5 -55t2.5 -32l2 -8q-16 -10 -57 -10q-54 0 -69.5 24.5t-5.5 84.5l94 537q5 33 5 49h-10q-65 0 -100.5 -31t-35.5 -77q0 -21 10.5 -33.5t29.5 -12.5l17 3q1 -3 1 -9q0 -21 -20.5 -38.5t-55.5 -17.5
q-48 0 -76.5 27.5t-28.5 72.5q0 76 67 123.5t185 47.5zM325 962l48 -125q-13 -7 -38 -7q-31 0 -49 25l-101 143q25 10 62 10q35 0 52 -11t26 -35z" />
    <glyph glyph-name="Iacute" unicode="&#xcd;" horiz-adv-x="442" 
d="M232 750h70q54 0 69.5 -24.5t5.5 -84.5l-94 -536q-5 -31 -5.5 -55t2.5 -32l2 -8q-16 -10 -57 -10q-54 0 -69.5 24.5t-5.5 84.5l94 537q5 33 5 49h-10q-65 0 -100.5 -31t-35.5 -77q0 -21 10.5 -33.5t29.5 -12.5l17 3q1 -3 1 -9q0 -21 -20.5 -38.5t-55.5 -17.5
q-48 0 -76.5 27.5t-28.5 72.5q0 76 67 123.5t185 47.5zM303 837l80 125q29 46 89 46q16 0 31 -2.5t22 -5.5l7 -2l-137 -143q-23 -25 -55 -25q-11 0 -20.5 2t-13.5 4z" />
    <glyph glyph-name="Icircumflex" unicode="&#xce;" horiz-adv-x="442" 
d="M232 750h70q54 0 69.5 -24.5t5.5 -84.5l-94 -536q-5 -31 -5.5 -55t2.5 -32l2 -8q-16 -10 -57 -10q-54 0 -69.5 24.5t-5.5 84.5l94 537q5 33 5 49h-10q-65 0 -100.5 -31t-35.5 -77q0 -21 10.5 -33.5t29.5 -12.5l17 3q1 -3 1 -9q0 -21 -20.5 -38.5t-55.5 -17.5
q-48 0 -76.5 27.5t-28.5 72.5q0 76 67 123.5t185 47.5zM385 870l-37 63l-74 -78q-25 -25 -55 -25q-12 0 -21 2t-12 4l-4 1l128 163q16 8 42 8q30 0 47 -9t29 -31l74 -131q-21 -7 -37 -7q-33 0 -50 9t-30 31z" />
    <glyph glyph-name="Idieresis" unicode="&#xcf;" horiz-adv-x="442" 
d="M232 750h70q54 0 69.5 -24.5t5.5 -84.5l-94 -536q-5 -31 -5.5 -55t2.5 -32l2 -8q-16 -10 -57 -10q-54 0 -69.5 24.5t-5.5 84.5l94 537q5 33 5 49h-10q-65 0 -100.5 -31t-35.5 -77q0 -21 10.5 -33.5t29.5 -12.5l17 3q1 -3 1 -9q0 -21 -20.5 -38.5t-55.5 -17.5
q-48 0 -76.5 27.5t-28.5 72.5q0 76 67 123.5t185 47.5zM365 900q0 28 18.5 46t44.5 18q24 0 39 -15.5t15 -38.5q0 -26 -18 -44.5t-46 -18.5q-23 0 -38 15t-15 38zM190 900q0 27 18.5 45.5t44.5 18.5q24 0 39 -15.5t15 -38.5q0 -26 -18 -44.5t-46 -18.5q-23 0 -38 15t-15 38z
" />
    <glyph glyph-name="Eth" unicode="&#xd0;" horiz-adv-x="788" 
d="M381 521l-30 -167h127q7 -13 7 -26q0 -29 -34 -29h-109l-28 -160q-8 -42 -26 -70q29 -9 61 -9q120 0 190 92.5t70 244.5q0 139 -80.5 218.5t-222.5 79.5q-102 0 -152.5 -39t-50.5 -89q0 -21 10.5 -33.5t29.5 -12.5l17 3q1 -3 1 -9q0 -21 -20.5 -38.5t-55.5 -17.5
q-48 0 -76.5 27.5t-28.5 72.5q0 80 84.5 135.5t236.5 55.5q204 0 325.5 -102t121.5 -266q0 -176 -101.5 -279t-264.5 -103q-71 0 -137 27q-40 -27 -103 -27q-41 0 -61 17.5t-20 41.5q0 26 19 43t57 17q17 0 39 -5l32 185h-124q-7 13 -7 26q0 29 34 29h107l30 172
q5 31 5.5 54.5t-1.5 31.5l-3 8q16 10 57 10q54 0 69.5 -24.5t5.5 -84.5z" />
    <glyph glyph-name="Ntilde" unicode="&#xd1;" horiz-adv-x="780" 
d="M167 204l77 440q4 24 6 51h-11q-65 0 -100.5 -31t-35.5 -77q0 -21 10.5 -33.5t29.5 -12.5l17 3q1 -3 1 -9q0 -21 -20.5 -38.5t-55.5 -17.5q-48 0 -76.5 27.5t-28.5 72.5q0 76 67 123.5t185 47.5h89q40 0 63 -18t35 -61l152 -536l59 334q16 92 16.5 162.5t-7.5 94.5l-8 24
q10 9 35 9q29 0 41.5 -14.5t12.5 -48.5q0 -38 -20 -150l-77 -440q-13 -74 -6 -96q-19 -10 -71 -10q-40 0 -61.5 19t-33.5 60l-154 543l-60 -341q-10 -58 -14 -108t-2 -80.5t5 -52.5t6 -31l4 -9q-10 -9 -35 -9q-29 0 -41.5 14.5t-12.5 48.5q0 38 20 150zM580 840
q-37 0 -74.5 27t-61.5 27q-27 0 -46 -13.5t-24 -26.5l-6 -14q-24 0 -23 31q2 43 35 75t80 32q37 0 75 -27t61 -27q27 0 46 13.5t24 26.5l6 14q24 0 23 -31q-2 -43 -35 -75t-80 -32z" />
    <glyph glyph-name="Ograve" unicode="&#xd2;" horiz-adv-x="699" 
d="M411 750q113 0 175.5 -74t62.5 -204q0 -132 -43 -239t-126 -170t-192 -63q-108 0 -173 71t-65 207q0 206 99.5 339t261.5 133zM198 375q-11 -75 -11 -137q0 -183 113 -183q68 0 121.5 81.5t78.5 238.5q11 66 11 137q0 183 -113 183q-64 0 -119.5 -79.5t-80.5 -240.5z
M400 962l48 -125q-13 -7 -38 -7q-31 0 -49 25l-101 143q25 10 62 10q35 0 52 -11t26 -35z" />
    <glyph glyph-name="Oacute" unicode="&#xd3;" horiz-adv-x="699" 
d="M411 750q113 0 175.5 -74t62.5 -204q0 -132 -43 -239t-126 -170t-192 -63q-108 0 -173 71t-65 207q0 206 99.5 339t261.5 133zM198 375q-11 -75 -11 -137q0 -183 113 -183q68 0 121.5 81.5t78.5 238.5q11 66 11 137q0 183 -113 183q-64 0 -119.5 -79.5t-80.5 -240.5z
M381 837l80 125q29 46 89 46q16 0 31 -2.5t22 -5.5l7 -2l-137 -143q-23 -25 -55 -25q-11 0 -20.5 2t-13.5 4z" />
    <glyph glyph-name="Ocircumflex" unicode="&#xd4;" horiz-adv-x="699" 
d="M411 750q113 0 175.5 -74t62.5 -204q0 -132 -43 -239t-126 -170t-192 -63q-108 0 -173 71t-65 207q0 206 99.5 339t261.5 133zM198 375q-11 -75 -11 -137q0 -183 113 -183q68 0 121.5 81.5t78.5 238.5q11 66 11 137q0 183 -113 183q-64 0 -119.5 -79.5t-80.5 -240.5z
M463 870l-37 63l-74 -78q-25 -25 -55 -25q-12 0 -21 2t-12 4l-4 1l128 163q16 8 42 8q30 0 47 -9t29 -31l74 -131q-21 -7 -37 -7q-33 0 -50 9t-30 31z" />
    <glyph glyph-name="Otilde" unicode="&#xd5;" horiz-adv-x="699" 
d="M411 750q113 0 175.5 -74t62.5 -204q0 -132 -43 -239t-126 -170t-192 -63q-108 0 -173 71t-65 207q0 206 99.5 339t261.5 133zM198 375q-11 -75 -11 -137q0 -183 113 -183q68 0 121.5 81.5t78.5 238.5q11 66 11 137q0 183 -113 183q-64 0 -119.5 -79.5t-80.5 -240.5z
M482 840q-37 0 -74.5 27t-61.5 27q-27 0 -46 -13.5t-24 -26.5l-6 -14q-24 0 -23 31q2 43 35 75t80 32q37 0 75 -27t61 -27q27 0 46 13.5t24 26.5l6 14q24 0 23 -31q-2 -43 -35 -75t-80 -32z" />
    <glyph glyph-name="Odieresis" unicode="&#xd6;" horiz-adv-x="699" 
d="M411 750q113 0 175.5 -74t62.5 -204q0 -132 -43 -239t-126 -170t-192 -63q-108 0 -173 71t-65 207q0 206 99.5 339t261.5 133zM198 375q-11 -75 -11 -137q0 -183 113 -183q68 0 121.5 81.5t78.5 238.5q11 66 11 137q0 183 -113 183q-64 0 -119.5 -79.5t-80.5 -240.5z
M455 900q0 28 18.5 46t44.5 18q24 0 39 -15.5t15 -38.5q0 -26 -18 -44.5t-46 -18.5q-23 0 -38 15t-15 38zM280 900q0 27 18.5 45.5t44.5 18.5q24 0 39 -15.5t15 -38.5q0 -26 -18 -44.5t-46 -18.5q-23 0 -38 15t-15 38z" />
    <glyph glyph-name="multiply" unicode="&#xd7;" horiz-adv-x="454" 
d="M178 425l48 -77l91 77q13 11 22.5 21.5t12.5 15.5l2 4q10 0 23 -14q41 -49 -24 -103l-84 -70l64 -101q9 -15 19 -24.5t15 -11.5l5 -3q-4 -12 -19 -22q-61 -42 -102 25l-50 79l-95 -79q-13 -12 -22 -22.5t-12 -15.5l-2 -5q-11 2 -23 16q-41 49 23 103l88 73l-61 98
q-9 15 -18.5 24.5t-14.5 12.5l-6 2q3 12 18 23q59 44 102 -26z" />
    <glyph glyph-name="Oslash" unicode="&#xd8;" horiz-adv-x="699" 
d="M411 750q75 0 127 -33l32 52q13 1 32 -9q20 -10 29.5 -20.5t7.5 -24t-10 -27t-25 -37.5q45 -71 45 -179q0 -132 -43 -239t-126 -170t-192 -63q-83 0 -139 40l-30 -49q-12 -1 -32 9q-21 10 -30 20t-6.5 24.5t10.5 28t26 38.5q-37 66 -37 167q0 206 99.5 339t261.5 133z
M511 512v14l-304 -408q29 -63 93 -63q68 0 121.5 81.5t78.5 238.5q11 66 11 137zM198 375q-11 -71 -11 -129l297 399q-29 50 -86 50q-64 0 -119.5 -79.5t-80.5 -240.5z" />
    <glyph glyph-name="Ugrave" unicode="&#xd9;" horiz-adv-x="793" 
d="M377 641l-81 -460q-9 -51 -1.5 -72.5t32.5 -21.5q33 0 73 60q123 185 182 499q6 31 6 54.5t-2 31.5l-3 8q16 10 57 10q54 0 69.5 -24.5t5.5 -84.5l-82 -471q-14 -83 45 -83q32 0 61 28.5t44 58.5q22 0 19 -26q-7 -50 -61.5 -99t-119.5 -49q-54 0 -87 33.5t-33 90.5
q0 51 9 111q-34 -73 -67 -128q-65 -107 -163 -107q-54 0 -86.5 34t-32.5 90q0 46 10 106l73 416q5 33 5 49h-10q-65 0 -100.5 -31t-35.5 -77q0 -21 10.5 -33.5t29.5 -12.5l17 3q1 -3 1 -9q0 -21 -20.5 -38.5t-55.5 -17.5q-48 0 -76.5 27.5t-28.5 72.5q0 76 67 123.5
t185 47.5h70q54 0 70 -25t5 -84zM474 962l48 -125q-13 -7 -38 -7q-31 0 -49 25l-101 143q25 10 62 10q35 0 52 -11t26 -35z" />
    <glyph glyph-name="Uacute" unicode="&#xda;" horiz-adv-x="793" 
d="M377 641l-81 -460q-9 -51 -1.5 -72.5t32.5 -21.5q33 0 73 60q123 185 182 499q6 31 6 54.5t-2 31.5l-3 8q16 10 57 10q54 0 69.5 -24.5t5.5 -84.5l-82 -471q-14 -83 45 -83q32 0 61 28.5t44 58.5q22 0 19 -26q-7 -50 -61.5 -99t-119.5 -49q-54 0 -87 33.5t-33 90.5
q0 51 9 111q-34 -73 -67 -128q-65 -107 -163 -107q-54 0 -86.5 34t-32.5 90q0 46 10 106l73 416q5 33 5 49h-10q-65 0 -100.5 -31t-35.5 -77q0 -21 10.5 -33.5t29.5 -12.5l17 3q1 -3 1 -9q0 -21 -20.5 -38.5t-55.5 -17.5q-48 0 -76.5 27.5t-28.5 72.5q0 76 67 123.5
t185 47.5h70q54 0 70 -25t5 -84zM445 837l80 125q29 46 89 46q16 0 31 -2.5t22 -5.5l7 -2l-137 -143q-23 -25 -55 -25q-11 0 -20.5 2t-13.5 4z" />
    <glyph glyph-name="Ucircumflex" unicode="&#xdb;" horiz-adv-x="793" 
d="M377 641l-81 -460q-9 -51 -1.5 -72.5t32.5 -21.5q33 0 73 60q123 185 182 499q6 31 6 54.5t-2 31.5l-3 8q16 10 57 10q54 0 69.5 -24.5t5.5 -84.5l-82 -471q-14 -83 45 -83q32 0 61 28.5t44 58.5q22 0 19 -26q-7 -50 -61.5 -99t-119.5 -49q-54 0 -87 33.5t-33 90.5
q0 51 9 111q-34 -73 -67 -128q-65 -107 -163 -107q-54 0 -86.5 34t-32.5 90q0 46 10 106l73 416q5 33 5 49h-10q-65 0 -100.5 -31t-35.5 -77q0 -21 10.5 -33.5t29.5 -12.5l17 3q1 -3 1 -9q0 -21 -20.5 -38.5t-55.5 -17.5q-48 0 -76.5 27.5t-28.5 72.5q0 76 67 123.5
t185 47.5h70q54 0 70 -25t5 -84zM537 870l-37 63l-74 -78q-25 -25 -55 -25q-12 0 -21 2t-12 4l-4 1l128 163q16 8 42 8q30 0 47 -9t29 -31l74 -131q-21 -7 -37 -7q-33 0 -50 9t-30 31z" />
    <glyph glyph-name="Udieresis" unicode="&#xdc;" horiz-adv-x="793" 
d="M377 641l-81 -460q-9 -51 -1.5 -72.5t32.5 -21.5q33 0 73 60q123 185 182 499q6 31 6 54.5t-2 31.5l-3 8q16 10 57 10q54 0 69.5 -24.5t5.5 -84.5l-82 -471q-14 -83 45 -83q32 0 61 28.5t44 58.5q22 0 19 -26q-7 -50 -61.5 -99t-119.5 -49q-54 0 -87 33.5t-33 90.5
q0 51 9 111q-34 -73 -67 -128q-65 -107 -163 -107q-54 0 -86.5 34t-32.5 90q0 46 10 106l73 416q5 33 5 49h-10q-65 0 -100.5 -31t-35.5 -77q0 -21 10.5 -33.5t29.5 -12.5l17 3q1 -3 1 -9q0 -21 -20.5 -38.5t-55.5 -17.5q-48 0 -76.5 27.5t-28.5 72.5q0 76 67 123.5
t185 47.5h70q54 0 70 -25t5 -84zM537 900q0 28 18.5 46t44.5 18q24 0 39 -15.5t15 -38.5q0 -26 -18 -44.5t-46 -18.5q-23 0 -38 15t-15 38zM362 900q0 27 18.5 45.5t44.5 18.5q24 0 39 -15.5t15 -38.5q0 -26 -18 -44.5t-46 -18.5q-23 0 -38 15t-15 38z" />
    <glyph glyph-name="Yacute" unicode="&#xdd;" horiz-adv-x="684" 
d="M232 750h32q31 0 53 -15.5t29 -43.5l88 -362l14 21q154 230 154 364q0 10 -1.5 19t-2.5 13l-2 4q14 9 38 9q80 0 80 -67q0 -22 -9 -47.5t-31 -62l-40.5 -64.5t-58.5 -84l-64 -92l-60 -88l-26 -149q-5 -31 -5.5 -55t2.5 -32l2 -8q-16 -10 -57 -10q-54 0 -69.5 24.5
t-5.5 84.5l25 145l-106 439q-53 -6 -80.5 -35.5t-27.5 -70.5q0 -21 10.5 -33.5t29.5 -12.5l17 3q1 -3 1 -9q0 -21 -20.5 -38.5t-55.5 -17.5q-48 0 -76.5 27.5t-28.5 72.5q0 76 67 123.5t185 47.5zM442 837l80 125q29 46 89 46q16 0 31 -2.5t22 -5.5l7 -2l-137 -143
q-23 -25 -55 -25q-11 0 -20.5 2t-12.5 4z" />
    <glyph glyph-name="Thorn" unicode="&#xde;" horiz-adv-x="685" 
d="M311 108h-133q-5 -32 -5.5 -56.5t1.5 -33.5l3 -8q-16 -10 -57 -10q-54 0 -69.5 24.5t-5.5 84.5l94 537q5 31 5.5 54.5t-2.5 31.5l-2 8q16 10 57 10q53 0 68.5 -24t6.5 -81h59q154 0 234 -64.5t80 -174.5q0 -130 -90 -214t-244 -84zM293 590h-30l-75 -427h71
q116 0 181.5 70.5t65.5 170.5q0 94 -49.5 140t-163.5 46z" />
    <glyph glyph-name="germandbls" unicode="&#xdf;" horiz-adv-x="592" 
d="M355 182q0 67 -86 151q-23 22 -23 48q0 31 34 53q58 39 81.5 76.5t23.5 85.5q0 36 -19.5 55.5t-51.5 19.5q-46 0 -84 -41.5t-55 -141.5l-67 -383q-5 -31 -5.5 -55t1.5 -32l3 -8q-16 -10 -57 -10q-54 0 -70 25t-5 84l63 356q25 140 97 198t184 58q98 0 150.5 -44.5
t52.5 -113.5q0 -62 -39.5 -105t-106.5 -64q-21 -7 -21 -15q0 -7 9 -13q64 -41 96 -80.5t32 -94.5q0 -78 -61 -134.5t-160 -56.5q-42 0 -67 13.5t-31 34.5q-3 12 3.5 20.5t15.5 8.5q21 -20 54 -20q49 0 79 34t30 91z" />
    <glyph glyph-name="agrave" unicode="&#xe0;" horiz-adv-x="557" 
d="M442 418l-43 -243q-16 -88 43 -88q26 0 56 24t49 63q23 0 19 -26q-9 -47 -61 -97.5t-118 -50.5q-50 0 -81.5 30t-35.5 83q-63 -113 -153 -113q-65 0 -106 44t-41 128q0 156 75 242t172 86q69 0 108 -49q12 27 32.5 38t57.5 11q15 0 27.5 -2.5t17.5 -5.5l5 -2
q-13 -18 -23 -72zM157 87q33 0 64 43t49.5 97t29.5 110l9 47q-22 48 -66 48q-55 0 -100 -73.5t-45 -188.5q0 -83 59 -83zM273 712l48 -125q-13 -7 -38 -7q-31 0 -49 25l-101 143q25 10 62 10q35 0 52 -11t26 -35z" />
    <glyph glyph-name="aacute" unicode="&#xe1;" horiz-adv-x="557" 
d="M442 418l-43 -243q-16 -88 43 -88q26 0 56 24t49 63q23 0 19 -26q-9 -47 -61 -97.5t-118 -50.5q-50 0 -81.5 30t-35.5 83q-63 -113 -153 -113q-65 0 -106 44t-41 128q0 156 75 242t172 86q69 0 108 -49q12 27 32.5 38t57.5 11q15 0 27.5 -2.5t17.5 -5.5l5 -2
q-13 -18 -23 -72zM157 87q33 0 64 43t49.5 97t29.5 110l9 47q-22 48 -66 48q-55 0 -100 -73.5t-45 -188.5q0 -83 59 -83zM242 587l80 125q29 46 89 46q16 0 31 -2.5t22 -5.5l7 -2l-137 -143q-23 -25 -55 -25q-11 0 -20.5 2t-12.5 4z" />
    <glyph glyph-name="acircumflex" unicode="&#xe2;" horiz-adv-x="557" 
d="M442 418l-43 -243q-16 -88 43 -88q26 0 56 24t49 63q23 0 19 -26q-9 -47 -61 -97.5t-118 -50.5q-50 0 -81.5 30t-35.5 83q-63 -113 -153 -113q-65 0 -106 44t-41 128q0 156 75 242t172 86q69 0 108 -49q12 27 32.5 38t57.5 11q15 0 27.5 -2.5t17.5 -5.5l5 -2
q-13 -18 -23 -72zM157 87q33 0 64 43t49.5 97t29.5 110l9 47q-22 48 -66 48q-55 0 -100 -73.5t-45 -188.5q0 -83 59 -83zM313 620l-37 63l-74 -78q-25 -25 -55 -25q-12 0 -21 2t-12 4l-4 1l128 163q16 8 42 8q30 0 47 -9t29 -31l74 -131q-21 -7 -37 -7q-33 0 -50 9t-30 31z
" />
    <glyph glyph-name="atilde" unicode="&#xe3;" horiz-adv-x="557" 
d="M442 418l-43 -243q-16 -88 43 -88q26 0 56 24t49 63q23 0 19 -26q-9 -47 -61 -97.5t-118 -50.5q-50 0 -81.5 30t-35.5 83q-63 -113 -153 -113q-65 0 -106 44t-41 128q0 156 75 242t172 86q69 0 108 -49q12 27 32.5 38t57.5 11q15 0 27.5 -2.5t17.5 -5.5l5 -2
q-13 -18 -23 -72zM157 87q33 0 64 43t49.5 97t29.5 110l9 47q-22 48 -66 48q-55 0 -100 -73.5t-45 -188.5q0 -83 59 -83zM334 590q-37 0 -74.5 27t-61.5 27q-27 0 -46 -13.5t-24 -26.5l-6 -14q-24 0 -23 31q2 43 35 75t80 32q37 0 75 -27t61 -27q27 0 46 13.5t24 26.5l6 14
q24 0 23 -31q-2 -43 -35 -75t-80 -32z" />
    <glyph glyph-name="adieresis" unicode="&#xe4;" horiz-adv-x="557" 
d="M442 418l-43 -243q-16 -88 43 -88q26 0 56 24t49 63q23 0 19 -26q-9 -47 -61 -97.5t-118 -50.5q-50 0 -81.5 30t-35.5 83q-63 -113 -153 -113q-65 0 -106 44t-41 128q0 156 75 242t172 86q69 0 108 -49q12 27 32.5 38t57.5 11q15 0 27.5 -2.5t17.5 -5.5l5 -2
q-13 -18 -23 -72zM157 87q33 0 64 43t49.5 97t29.5 110l9 47q-22 48 -66 48q-55 0 -100 -73.5t-45 -188.5q0 -83 59 -83zM312 650q0 28 18 46t45 18q24 0 39 -15.5t15 -38.5q0 -26 -18 -44.5t-46 -18.5q-23 0 -38 15t-15 38zM137 650q0 27 18.5 45.5t44.5 18.5
q24 0 39 -15.5t15 -38.5q0 -26 -18 -44.5t-46 -18.5q-23 0 -38 15t-15 38z" />
    <glyph glyph-name="aring" unicode="&#xe5;" horiz-adv-x="557" 
d="M442 418l-43 -243q-16 -88 43 -88q26 0 56 24t49 63q23 0 19 -26q-9 -47 -61 -97.5t-118 -50.5q-50 0 -81.5 30t-35.5 83q-63 -113 -153 -113q-65 0 -106 44t-41 128q0 156 75 242t172 86q69 0 108 -49q12 27 32.5 38t57.5 11q15 0 27.5 -2.5t17.5 -5.5l5 -2
q-13 -18 -23 -72zM157 87q33 0 64 43t49.5 97t29.5 110l9 47q-22 48 -66 48q-55 0 -100 -73.5t-45 -188.5q0 -83 59 -83zM179 650q0 46 31.5 77.5t74.5 31.5q41 0 67 -26.5t26 -66.5q0 -43 -30.5 -74.5t-78.5 -31.5q-39 0 -64.5 25.5t-25.5 64.5zM236 655q0 -17 11 -28.5
t27 -11.5q21 0 33.5 14t12.5 34q0 17 -10 28.5t-28 11.5q-20 0 -33 -14t-13 -34z" />
    <glyph glyph-name="ae" unicode="&#xe6;" horiz-adv-x="753" 
d="M498 0q-77 0 -133 35t-79 99q-27 -55 -71.5 -94.5t-97.5 -39.5q-65 0 -106 44t-41 128q0 156 75 242t172 86q55 0 86.5 -27t44.5 -57q79 84 192 84q71 0 107 -30.5t36 -73.5q0 -131 -281 -184q5 -58 43.5 -95.5t99.5 -37.5q73 0 121.5 28t73.5 67q22 0 16 -26
q-10 -46 -84 -97t-174 -51zM159 87q26 0 59.5 35t53.5 88q0 95 42 162q-19 60 -71 60q-55 0 -100 -73.5t-45 -188.5q0 -83 61 -83zM541 450q-47 0 -88.5 -51.5t-49.5 -139.5q88 21 130.5 62.5t42.5 93.5q0 16 -9.5 25.5t-25.5 9.5z" />
    <glyph glyph-name="ccedilla" unicode="&#xe7;" 
d="M454 148q-10 -42 -75.5 -91t-155.5 -56l-7 -26q36 -2 56.5 -23.5t20.5 -56.5q0 -45 -32.5 -75.5t-81.5 -30.5q-34 0 -57.5 18t-27.5 45q-1 11 3 16.5t9 5.5h5q15 -23 46 -23q20 0 32.5 13.5t12.5 32.5q0 40 -46 40q-14 0 -25 -4l18 71q-82 13 -130.5 68.5t-48.5 139.5
q0 126 79.5 207t186.5 81q62 0 101.5 -32t39.5 -81q0 -46 -23.5 -75t-62.5 -29q-16 0 -28 6t-16 12l-4 6q4 3 10 10t16.5 32.5t10.5 54.5q0 21 -13 33.5t-33 12.5q-50 0 -92 -62t-42 -156q0 -69 38 -111t109 -42q69 0 117.5 28.5t73.5 66.5q22 0 16 -26z" />
    <glyph glyph-name="egrave" unicode="&#xe8;" 
d="M196 0q-100 0 -163 58t-63 158q0 127 81 205.5t187 78.5q71 0 107 -30.5t36 -73.5q0 -131 -281 -184q5 -58 43 -95.5t100 -37.5q73 0 121.5 28t73.5 67q22 0 16 -26q-9 -43 -82.5 -95.5t-175.5 -52.5zM239 450q-47 0 -88.5 -51.5t-49.5 -139.5q88 21 130.5 62.5
t42.5 93.5q0 16 -9.5 25.5t-25.5 9.5zM233 712l48 -125q-13 -7 -38 -7q-31 0 -49 25l-101 143q25 10 62 10q35 0 52 -11t26 -35z" />
    <glyph glyph-name="eacute" unicode="&#xe9;" 
d="M196 0q-100 0 -163 58t-63 158q0 127 81 205.5t187 78.5q71 0 107 -30.5t36 -73.5q0 -131 -281 -184q5 -58 43 -95.5t100 -37.5q73 0 121.5 28t73.5 67q22 0 16 -26q-9 -43 -82.5 -95.5t-175.5 -52.5zM239 450q-47 0 -88.5 -51.5t-49.5 -139.5q88 21 130.5 62.5
t42.5 93.5q0 16 -9.5 25.5t-25.5 9.5zM199 587l80 125q29 46 89 46q16 0 31 -2.5t22 -5.5l7 -2l-137 -143q-23 -25 -55 -25q-11 0 -20.5 2t-13.5 4z" />
    <glyph glyph-name="ecircumflex" unicode="&#xea;" 
d="M196 0q-100 0 -163 58t-63 158q0 127 81 205.5t187 78.5q71 0 107 -30.5t36 -73.5q0 -131 -281 -184q5 -58 43 -95.5t100 -37.5q73 0 121.5 28t73.5 67q22 0 16 -26q-9 -43 -82.5 -95.5t-175.5 -52.5zM239 450q-47 0 -88.5 -51.5t-49.5 -139.5q88 21 130.5 62.5
t42.5 93.5q0 16 -9.5 25.5t-25.5 9.5zM280 620l-37 63l-74 -78q-25 -25 -55 -25q-12 0 -21 2t-13 4l-3 1l128 163q16 8 42 8q30 0 47 -9t29 -31l74 -131q-21 -7 -37 -7q-33 0 -50 9t-30 31z" />
    <glyph glyph-name="edieresis" unicode="&#xeb;" 
d="M196 0q-100 0 -163 58t-63 158q0 127 81 205.5t187 78.5q71 0 107 -30.5t36 -73.5q0 -131 -281 -184q5 -58 43 -95.5t100 -37.5q73 0 121.5 28t73.5 67q22 0 16 -26q-9 -43 -82.5 -95.5t-175.5 -52.5zM239 450q-47 0 -88.5 -51.5t-49.5 -139.5q88 21 130.5 62.5
t42.5 93.5q0 16 -9.5 25.5t-25.5 9.5zM287 650q0 28 18.5 46t44.5 18q24 0 39 -15.5t15 -38.5q0 -26 -18 -44.5t-46 -18.5q-23 0 -38 15t-15 38zM112 650q0 27 18.5 45.5t44.5 18.5q24 0 39 -15.5t15 -38.5q0 -26 -18 -44.5t-46 -18.5q-23 0 -38 15t-15 38z" />
    <glyph glyph-name="igrave" unicode="&#xec;" horiz-adv-x="267" 
d="M-11 220l32 185q5 28 5 49.5t-2 29.5l-2 7q15 9 52 9q55 0 69.5 -22t4.5 -77l-39 -226q-15 -88 43 -88q26 0 56 24t49 63q23 0 19 -26q-9 -47 -61 -97.5t-118 -50.5q-53 0 -85 33t-32 92q0 44 9 95zM105 712l48 -125q-13 -7 -38 -7q-31 0 -49 25l-101 143q25 10 62 10
q35 0 52 -11t26 -35z" />
    <glyph glyph-name="iacute" unicode="&#xed;" horiz-adv-x="267" 
d="M-11 220l32 185q5 28 5 49.5t-2 29.5l-2 7q15 9 52 9q55 0 69.5 -22t4.5 -77l-39 -226q-15 -88 43 -88q26 0 56 24t49 63q23 0 19 -26q-9 -47 -61 -97.5t-118 -50.5q-53 0 -85 33t-32 92q0 44 9 95zM68 587l80 125q29 46 89 46q16 0 31 -2.5t22 -5.5l7 -2l-137 -143
q-23 -25 -55 -25q-11 0 -20.5 2t-12.5 4z" />
    <glyph glyph-name="icircumflex" unicode="&#xee;" horiz-adv-x="267" 
d="M-11 220l32 185q5 28 5 49.5t-2 29.5l-2 7q15 9 52 9q55 0 69.5 -22t4.5 -77l-39 -226q-15 -88 43 -88q26 0 56 24t49 63q23 0 19 -26q-9 -47 -61 -97.5t-118 -50.5q-53 0 -85 33t-32 92q0 44 9 95zM153 620l-37 63l-74 -78q-25 -25 -55 -25q-12 0 -21 2t-12 4l-4 1
l128 163q16 8 42 8q30 0 47 -9t29 -31l74 -131q-21 -7 -37 -7q-33 0 -50 9t-30 31z" />
    <glyph glyph-name="idieresis" unicode="&#xef;" horiz-adv-x="267" 
d="M-11 220l32 185q5 28 5 49.5t-2 29.5l-2 7q15 9 52 9q55 0 69.5 -22t4.5 -77l-39 -226q-15 -88 43 -88q26 0 56 24t49 63q23 0 19 -26q-9 -47 -61 -97.5t-118 -50.5q-53 0 -85 33t-32 92q0 44 9 95zM140 650q0 28 18 46t45 18q24 0 39 -15.5t15 -38.5q0 -26 -18 -44.5
t-46 -18.5q-23 0 -38 15t-15 38zM-35 650q0 27 18.5 45.5t44.5 18.5q24 0 39 -15.5t15 -38.5q0 -26 -18 -44.5t-46 -18.5q-23 0 -38 15t-15 38z" />
    <glyph glyph-name="eth" unicode="&#xf0;" horiz-adv-x="533" 
d="M422 712l-68 -38q89 -137 89 -317q0 -166 -74 -261.5t-205 -95.5q-82 0 -133 48.5t-51 138.5q0 136 74 216.5t197 80.5q16 0 29.5 -3t19.5 -5l6 -3q-11 89 -39 153l-97 -54q-10 4 -16 15q-13 25 16 42l75 42q-50 86 -145 126q0 1 -1 3.5t-1 8t1.5 10t7 8t14.5 3.5
q52 0 105.5 -30.5t98.5 -85.5l96 54q10 -3 17 -15q14 -25 -16 -41zM117 243q-9 -47 -9 -99q0 -94 66 -94q93 0 130 192q9 46 9 99q0 94 -66 94q-94 0 -130 -192z" />
    <glyph glyph-name="ntilde" unicode="&#xf1;" horiz-adv-x="569" 
d="M296 239l19 110q11 63 -24 63q-48 0 -107 -96.5t-82 -220.5q-5 -28 -5 -49.5t2 -29.5l2 -7q-15 -9 -52 -9q-55 0 -69.5 22t-4.5 77l53 306q5 28 5 49.5t-2 29.5l-2 7q15 9 52 9q55 0 69.5 -22t4.5 -77l-8 -46q34 57 87 101t109 44q47 0 75 -28t28 -75q0 -27 -9 -81
l-24 -141q-16 -88 41 -88q62 0 105 87q23 0 19 -26q-7 -45 -59.5 -96.5t-116.5 -51.5q-56 0 -88.5 34t-32.5 91q0 32 15 114zM333 590q-37 0 -74.5 27t-61.5 27q-27 0 -46 -13.5t-25 -26.5l-5 -14q-24 0 -23 31q2 43 35 75t80 32q37 0 75 -27t61 -27q27 0 46 13.5t25 26.5
l5 14q24 0 23 -31q-2 -43 -35 -75t-80 -32z" />
    <glyph glyph-name="ograve" unicode="&#xf2;" horiz-adv-x="531" 
d="M247 500q86 0 135 -52t49 -139q0 -30 -5 -63q33 5 63.5 24.5t44.5 36.5l13 17q21 0 18 -25q-5 -29 -49 -60.5t-100 -38.5q-26 -92 -94.5 -146t-167.5 -54q-82 0 -133 50t-51 141q0 138 75 223.5t202 85.5zM251 306q0 57 51 68q-8 77 -65 77q-41 0 -75.5 -47.5
t-54.5 -152.5q-9 -47 -9 -103q0 -47 17 -72.5t49 -25.5q87 0 125 177q-38 29 -38 79zM253 712l48 -125q-13 -7 -38 -7q-31 0 -49 25l-101 143q25 10 62 10q35 0 52 -11t26 -35z" />
    <glyph glyph-name="oacute" unicode="&#xf3;" horiz-adv-x="531" 
d="M247 500q86 0 135 -52t49 -139q0 -30 -5 -63q33 5 63.5 24.5t44.5 36.5l13 17q21 0 18 -25q-5 -29 -49 -60.5t-100 -38.5q-26 -92 -94.5 -146t-167.5 -54q-82 0 -133 50t-51 141q0 138 75 223.5t202 85.5zM251 306q0 57 51 68q-8 77 -65 77q-41 0 -75.5 -47.5
t-54.5 -152.5q-9 -47 -9 -103q0 -47 17 -72.5t49 -25.5q87 0 125 177q-38 29 -38 79zM222 587l80 125q29 46 89 46q16 0 31 -2.5t22 -5.5l7 -2l-137 -143q-23 -25 -55 -25q-11 0 -20.5 2t-12.5 4z" />
    <glyph glyph-name="ocircumflex" unicode="&#xf4;" horiz-adv-x="531" 
d="M247 500q86 0 135 -52t49 -139q0 -30 -5 -63q33 5 63.5 24.5t44.5 36.5l13 17q21 0 18 -25q-5 -29 -49 -60.5t-100 -38.5q-26 -92 -94.5 -146t-167.5 -54q-82 0 -133 50t-51 141q0 138 75 223.5t202 85.5zM251 306q0 57 51 68q-8 77 -65 77q-41 0 -75.5 -47.5
t-54.5 -152.5q-9 -47 -9 -103q0 -47 17 -72.5t49 -25.5q87 0 125 177q-38 29 -38 79zM304 620l-37 63l-74 -78q-25 -25 -55 -25q-12 0 -21 2t-13 4l-3 1l128 163q16 8 42 8q30 0 47 -9t29 -31l74 -131q-21 -7 -37 -7q-33 0 -50 9t-30 31z" />
    <glyph glyph-name="otilde" unicode="&#xf5;" horiz-adv-x="531" 
d="M247 500q86 0 135 -52t49 -139q0 -30 -5 -63q33 5 63.5 24.5t44.5 36.5l13 17q21 0 18 -25q-5 -29 -49 -60.5t-100 -38.5q-26 -92 -94.5 -146t-167.5 -54q-82 0 -133 50t-51 141q0 138 75 223.5t202 85.5zM251 306q0 57 51 68q-8 77 -65 77q-41 0 -75.5 -47.5
t-54.5 -152.5q-9 -47 -9 -103q0 -47 17 -72.5t49 -25.5q87 0 125 177q-38 29 -38 79zM334 590q-37 0 -74.5 27t-61.5 27q-27 0 -46 -13.5t-24 -26.5l-6 -14q-24 0 -23 31q2 43 35 75t80 32q37 0 75 -27t61 -27q27 0 46 13.5t24 26.5l6 14q24 0 23 -31q-2 -43 -35 -75
t-80 -32z" />
    <glyph glyph-name="odieresis" unicode="&#xf6;" horiz-adv-x="531" 
d="M247 500q86 0 135 -52t49 -139q0 -30 -5 -63q33 5 63.5 24.5t44.5 36.5l13 17q21 0 18 -25q-5 -29 -49 -60.5t-100 -38.5q-26 -92 -94.5 -146t-167.5 -54q-82 0 -133 50t-51 141q0 138 75 223.5t202 85.5zM251 306q0 57 51 68q-8 77 -65 77q-41 0 -75.5 -47.5
t-54.5 -152.5q-9 -47 -9 -103q0 -47 17 -72.5t49 -25.5q87 0 125 177q-38 29 -38 79zM297 650q0 28 18.5 46t44.5 18q24 0 39 -15.5t15 -38.5q0 -26 -18 -44.5t-46 -18.5q-23 0 -38 15t-15 38zM122 650q0 27 18.5 45.5t44.5 18.5q24 0 39 -15.5t15 -38.5q0 -26 -18 -44.5
t-46 -18.5q-23 0 -38 15t-15 38z" />
    <glyph glyph-name="divide" unicode="&#xf7;" horiz-adv-x="488" 
d="M345 231h-252q-18 0 -31.5 -2.5t-18.5 -4.5l-5 -2q-8 7 -8 26q0 64 83 64h252q18 0 31.5 2t18.5 4l5 3q8 -7 8 -26q0 -64 -83 -64zM194 438q0 30 20.5 51t49.5 21q28 0 45 -18t17 -45q0 -28 -20 -48.5t-52 -20.5q-27 0 -43.5 17t-16.5 43zM134 93q0 30 20.5 51t49.5 21
q28 0 45 -18t17 -45q0 -28 -20 -48.5t-52 -20.5q-27 0 -43.5 17t-16.5 43z" />
    <glyph glyph-name="oslash" unicode="&#xf8;" horiz-adv-x="531" 
d="M247 500q42 0 78 -14l27 45q14 2 32 -9q22 -13 22.5 -32t-18.5 -49q43 -51 43 -132q0 -136 -74.5 -222.5t-202.5 -86.5q-43 0 -76 13l-34 -56q-12 -2 -32 9q-25 16 -23.5 35t25.5 56q-44 50 -44 134q0 138 75 223.5t202 85.5zM107 251q-5 -23 -9 -77l186 254
q-17 23 -47 23q-41 0 -75.5 -47.5t-54.5 -152.5zM294 250q6 37 8 71l-183 -252q16 -19 45 -19q91 0 130 200z" />
    <glyph glyph-name="ugrave" unicode="&#xf9;" horiz-adv-x="561" 
d="M274 125q0 20 1 34q-22 -43 -45 -74q-63 -85 -141 -85q-50 0 -79.5 32t-29.5 84q0 54 12 123l29 166q5 28 5 49.5t-2 29.5l-2 7q15 9 52 9q55 0 69.5 -22t4.5 -77l-40 -231q-15 -83 33 -83q30 0 74 67q33 50 61.5 123t39.5 138q4 24 4 43t-2 26l-2 7q15 9 52 9
q55 0 69.5 -22t4.5 -77l-39 -226q-15 -88 43 -88q26 0 56 24t49 63q23 0 19 -26q-9 -47 -61 -97.5t-118 -50.5q-53 0 -85 33t-32 92zM239 712l48 -125q-13 -7 -38 -7q-31 0 -49 25l-101 143q25 10 62 10q35 0 52 -11t26 -35z" />
    <glyph glyph-name="uacute" unicode="&#xfa;" horiz-adv-x="561" 
d="M274 125q0 20 1 34q-22 -43 -45 -74q-63 -85 -141 -85q-50 0 -79.5 32t-29.5 84q0 54 12 123l29 166q5 28 5 49.5t-2 29.5l-2 7q15 9 52 9q55 0 69.5 -22t4.5 -77l-40 -231q-15 -83 33 -83q30 0 74 67q33 50 61.5 123t39.5 138q4 24 4 43t-2 26l-2 7q15 9 52 9
q55 0 69.5 -22t4.5 -77l-39 -226q-15 -88 43 -88q26 0 56 24t49 63q23 0 19 -26q-9 -47 -61 -97.5t-118 -50.5q-53 0 -85 33t-32 92zM210 587l80 125q29 46 89 46q16 0 31 -2.5t22 -5.5l7 -2l-137 -143q-23 -25 -55 -25q-11 0 -20.5 2t-12.5 4z" />
    <glyph glyph-name="ucircumflex" unicode="&#xfb;" horiz-adv-x="561" 
d="M274 125q0 20 1 34q-22 -43 -45 -74q-63 -85 -141 -85q-50 0 -79.5 32t-29.5 84q0 54 12 123l29 166q5 28 5 49.5t-2 29.5l-2 7q15 9 52 9q55 0 69.5 -22t4.5 -77l-40 -231q-15 -83 33 -83q30 0 74 67q33 50 61.5 123t39.5 138q4 24 4 43t-2 26l-2 7q15 9 52 9
q55 0 69.5 -22t4.5 -77l-39 -226q-15 -88 43 -88q26 0 56 24t49 63q23 0 19 -26q-9 -47 -61 -97.5t-118 -50.5q-53 0 -85 33t-32 92zM309 620l-37 63l-74 -78q-25 -25 -55 -25q-12 0 -21 2t-12 4l-4 1l128 163q16 8 42 8q30 0 47 -9t29 -31l74 -131q-21 -7 -37 -7
q-33 0 -50 9t-30 31z" />
    <glyph glyph-name="udieresis" unicode="&#xfc;" horiz-adv-x="561" 
d="M274 125q0 20 1 34q-22 -43 -45 -74q-63 -85 -141 -85q-50 0 -79.5 32t-29.5 84q0 54 12 123l29 166q5 28 5 49.5t-2 29.5l-2 7q15 9 52 9q55 0 69.5 -22t4.5 -77l-40 -231q-15 -83 33 -83q30 0 74 67q33 50 61.5 123t39.5 138q4 24 4 43t-2 26l-2 7q15 9 52 9
q55 0 69.5 -22t4.5 -77l-39 -226q-15 -88 43 -88q26 0 56 24t49 63q23 0 19 -26q-9 -47 -61 -97.5t-118 -50.5q-53 0 -85 33t-32 92zM302 650q0 28 18 46t45 18q24 0 39 -15.5t15 -38.5q0 -26 -18 -44.5t-46 -18.5q-23 0 -38 15t-15 38zM127 650q0 27 18.5 45.5t44.5 18.5
q24 0 39 -15.5t15 -38.5q0 -26 -18 -44.5t-46 -18.5q-23 0 -38 15t-15 38z" />
    <glyph glyph-name="yacute" unicode="&#xfd;" horiz-adv-x="560" 
d="M441 401l-54 -317q103 41 163 90q10 0 15.5 -6.5t3.5 -16.5q-3 -13 -33 -36q-52 -40 -159 -92l-2 -12q-61 -361 -280 -361q-51 0 -81.5 29t-30.5 76q0 83 84 155q62 53 183 113l21 129q-17 -33 -41 -67q-63 -85 -141 -85q-50 0 -79.5 32t-29.5 84q0 54 12 123l29 166
q5 28 5 49.5t-2 29.5l-2 7q15 9 52 9q55 0 69.5 -22t4.5 -77l-40 -231q-14 -83 33 -83q30 0 74 67q70 108 99 251q5 28 5.5 49.5t-1.5 29.5l-3 7q15 9 52 9q55 0 69.5 -22t4.5 -77zM85 -284q53 0 92.5 62t61.5 182q-98 -51 -141 -92q-59 -57 -59 -107q0 -20 12 -32.5
t34 -12.5zM200 587l80 125q29 46 89 46q16 0 31 -2.5t22 -5.5l7 -2l-137 -143q-23 -25 -55 -25q-11 0 -20.5 2t-12.5 4z" />
    <glyph glyph-name="thorn" unicode="&#xfe;" horiz-adv-x="558" 
d="M-85 -251l158 906q5 28 5 49.5t-2 29.5l-2 7q15 9 52 9q55 0 69.5 -22t4.5 -77l-47 -267q67 116 161 116q69 0 106.5 -45.5t37.5 -124.5q0 -145 -73.5 -237.5t-173.5 -92.5q-71 0 -117 49l-52 -304q-5 -28 -5 -49.5t2 -29.5l2 -7q-15 -9 -52 -9q-55 0 -69.5 22t-4.5 77z
M186 344q-52 -84 -74 -194l-7 -38q27 -44 76 -44q58 0 103.5 80.5t45.5 194.5q0 80 -51 80q-43 0 -93 -79z" />
    <glyph glyph-name="ydieresis" unicode="&#xff;" horiz-adv-x="560" 
d="M441 401l-54 -317q103 41 163 90q10 0 15.5 -6.5t3.5 -16.5q-3 -13 -33 -36q-52 -40 -159 -92l-2 -12q-61 -361 -280 -361q-51 0 -81.5 29t-30.5 76q0 83 84 155q62 53 183 113l21 129q-17 -33 -41 -67q-63 -85 -141 -85q-50 0 -79.5 32t-29.5 84q0 54 12 123l29 166
q5 28 5 49.5t-2 29.5l-2 7q15 9 52 9q55 0 69.5 -22t4.5 -77l-40 -231q-14 -83 33 -83q30 0 74 67q70 108 99 251q5 28 5.5 49.5t-1.5 29.5l-3 7q15 9 52 9q55 0 69.5 -22t4.5 -77zM85 -284q53 0 92.5 62t61.5 182q-98 -51 -141 -92q-59 -57 -59 -107q0 -20 12 -32.5
t34 -12.5zM282 650q0 28 18 46t45 18q24 0 39 -15.5t15 -38.5q0 -26 -18 -44.5t-46 -18.5q-23 0 -38 15t-15 38zM107 650q0 27 18.5 45.5t44.5 18.5q24 0 39 -15.5t15 -38.5q0 -26 -18 -44.5t-46 -18.5q-23 0 -38 15t-15 38z" />
    <glyph glyph-name="Amacron" unicode="&#x100;" horiz-adv-x="664" 
d="M386 263l2 11h-174l-30 -83q-41 -114 -75 -152.5t-79 -38.5q-31 0 -50.5 21t-19.5 56q0 16 3.5 28.5t6.5 16.5l4 5q11 -8 35 -8q77 0 140 153q-20 -2 -37.5 -8t-25.5 -10l-7 -5q-16 13 -16 40q0 30 21.5 48t58.5 18q18 0 36 -3l76 211q36 100 91.5 143.5t159.5 43.5
q58 0 74 -25t6 -84l-82 -471q-14 -83 45 -83q32 0 61 28.5t44 58.5q22 0 19 -26q-7 -50 -61.5 -99t-119.5 -49q-54 0 -87 33.5t-33 90.5t14 139zM239 343q82 -13 158 -14l56 317l5 49q-47 0 -83 -37t-56 -93zM585 849h-212q-18 0 -31.5 -2.5t-18.5 -4.5l-5 -2q-8 7 -8 26
q0 64 83 64h212q18 0 31.5 2t18.5 4l5 3q8 -7 8 -26q0 -64 -83 -64z" />
    <glyph glyph-name="amacron" unicode="&#x101;" horiz-adv-x="557" 
d="M372 599h-212q-18 0 -31.5 -2.5t-18.5 -4.5l-5 -2q-8 7 -8 26q0 64 83 64h212q18 0 31.5 2t18.5 4l5 3q8 -7 8 -26q0 -64 -83 -64zM442 418l-43 -243q-16 -88 43 -88q26 0 56 24t49 63q23 0 19 -26q-9 -47 -61 -97.5t-118 -50.5q-50 0 -81.5 30t-35.5 83
q-63 -113 -153 -113q-65 0 -106 44t-41 128q0 156 75 242t172 86q69 0 108 -49q12 27 32.5 38t57.5 11q15 0 27.5 -2.5t17.5 -5.5l5 -2q-13 -18 -23 -72zM157 87q33 0 64 43t49.5 97t29.5 110l9 47q-22 48 -66 48q-55 0 -100 -73.5t-45 -188.5q0 -83 59 -83z" />
    <glyph glyph-name="Abreve" unicode="&#x102;" horiz-adv-x="664" 
d="M386 263l2 11h-174l-30 -83q-41 -114 -75 -152.5t-79 -38.5q-31 0 -50.5 21t-19.5 56q0 16 3.5 28.5t6.5 16.5l4 5q11 -8 35 -8q77 0 140 153q-20 -2 -37.5 -8t-25.5 -10l-7 -5q-16 13 -16 40q0 30 21.5 48t58.5 18q18 0 36 -3l76 211q36 100 91.5 143.5t159.5 43.5
q58 0 74 -25t6 -84l-82 -471q-14 -83 45 -83q32 0 61 28.5t44 58.5q22 0 19 -26q-7 -50 -61.5 -99t-119.5 -49q-54 0 -87 33.5t-33 90.5t14 139zM239 343q82 -13 158 -14l56 317l5 49q-47 0 -83 -37t-56 -93zM537 916q34 0 59.5 12.5t33.5 25.5l8 12q26 0 22 -26
q-5 -42 -47.5 -76t-106.5 -34q-56 0 -90 30t-34 77q0 29 15.5 47.5t34.5 18.5l19 -4q-10 -36 16 -59.5t70 -23.5z" />
    <glyph glyph-name="abreve" unicode="&#x103;" horiz-adv-x="557" 
d="M442 418l-43 -243q-16 -88 43 -88q26 0 56 24t49 63q23 0 19 -26q-9 -47 -61 -97.5t-118 -50.5q-50 0 -81.5 30t-35.5 83q-63 -113 -153 -113q-65 0 -106 44t-41 128q0 156 75 242t172 86q69 0 108 -49q12 27 32.5 38t57.5 11q15 0 27.5 -2.5t17.5 -5.5l5 -2
q-13 -18 -23 -72zM157 87q33 0 64 43t49.5 97t29.5 110l9 47q-22 48 -66 48q-55 0 -100 -73.5t-45 -188.5q0 -83 59 -83zM319 666q34 0 59.5 12.5t33.5 25.5l8 12q26 0 22 -26q-5 -42 -47.5 -76t-106.5 -34q-56 0 -90 30t-34 77q0 29 15.5 47.5t34.5 18.5l19 -4
q-10 -36 16 -59.5t70 -23.5z" />
    <glyph glyph-name="Aogonek" unicode="&#x104;" horiz-adv-x="664" 
d="M386 263l2 11h-174l-30 -83q-41 -114 -75 -152.5t-79 -38.5q-31 0 -50.5 21t-19.5 56q0 16 3.5 28.5t6.5 16.5l4 5q11 -8 35 -8q77 0 140 153q-20 -2 -37.5 -8t-25.5 -10l-7 -5q-16 13 -16 40q0 30 21.5 48t58.5 18q18 0 36 -3l76 211q36 100 91.5 143.5t159.5 43.5
q58 0 74 -25t6 -84l-82 -471q-14 -83 45 -83q32 0 61 28.5t44 58.5q22 0 19 -26q-5 -36 -38 -75t-78 -59q-75 -43 -75 -99q0 -44 45 -44q15 0 27 5.5t16 11.5l4 6h5t8 -5.5t4 -16.5q-2 -26 -31.5 -48t-73.5 -22q-50 0 -77.5 26t-27.5 66q0 70 78 109q-40 10 -63.5 42
t-23.5 79q0 57 14 139zM239 343q82 -13 158 -14l56 317l5 49q-47 0 -83 -37t-56 -93z" />
    <glyph glyph-name="aogonek" unicode="&#x105;" horiz-adv-x="557" 
d="M442 418l-43 -243q-16 -88 43 -88q26 0 56 24t49 63q23 0 19 -26q-7 -35 -40 -75.5t-79 -60.5q-72 -42 -72 -97q0 -44 45 -44q15 0 27 5.5t16 11.5l4 6h5t8 -5.5t4 -16.5q-2 -26 -31.5 -48t-73.5 -22q-50 0 -77.5 26t-27.5 66q0 70 78 110q-36 9 -57.5 37t-24.5 72
q-63 -113 -153 -113q-65 0 -106 44t-41 128q0 156 75 242t172 86q69 0 108 -49q12 27 32.5 38t57.5 11q15 0 27.5 -2.5t17.5 -5.5l5 -2q-13 -18 -23 -72zM157 87q33 0 64 43t49.5 97t29.5 110l9 47q-22 48 -66 48q-55 0 -100 -73.5t-45 -188.5q0 -83 59 -83z" />
    <glyph glyph-name="Cacute" unicode="&#x106;" horiz-adv-x="645" 
d="M405 83q78 0 141.5 25.5t100.5 65.5q20 0 17 -22q-11 -47 -101.5 -99.5t-210.5 -52.5q-131 0 -216.5 84.5t-85.5 226.5q0 194 106.5 316.5t264.5 122.5q90 0 140.5 -49.5t50.5 -120.5q0 -67 -36 -106t-86 -39q-22 0 -38 8.5t-22 16.5l-5 9q3 1 8 4t18 14t23 25.5t18 41
t8 57.5q0 39 -22.5 61.5t-59.5 22.5q-88 0 -158.5 -111t-70.5 -262q0 -114 57.5 -176.5t158.5 -62.5zM384 837l80 125q29 46 89 46q16 0 31 -2.5t22 -5.5l7 -2l-137 -143q-23 -25 -55 -25q-11 0 -20.5 2t-12.5 4z" />
    <glyph glyph-name="cacute" unicode="&#x107;" 
d="M196 0q-100 0 -163 58t-63 154q0 126 79.5 207t186.5 81q62 0 101.5 -32t39.5 -81q0 -46 -23.5 -75t-62.5 -29q-16 0 -28 6t-16 12l-4 6q4 3 10 10t16.5 32.5t10.5 54.5q0 21 -13 33.5t-33 12.5q-50 0 -92 -62t-42 -156q0 -71 39 -112t108 -41t118 28.5t73 66.5
q22 0 16 -26q-10 -44 -82.5 -96t-175.5 -52zM199 587l80 125q29 46 89 46q16 0 31 -2.5t22 -5.5l7 -2l-137 -143q-23 -25 -55 -25q-11 0 -20.5 2t-13.5 4z" />
    <glyph glyph-name="Ccircumflex" unicode="&#x108;" horiz-adv-x="645" 
d="M405 83q78 0 141.5 25.5t100.5 65.5q20 0 17 -22q-11 -47 -101.5 -99.5t-210.5 -52.5q-131 0 -216.5 84.5t-85.5 226.5q0 194 106.5 316.5t264.5 122.5q90 0 140.5 -49.5t50.5 -120.5q0 -67 -36 -106t-86 -39q-22 0 -38 8.5t-22 16.5l-5 9q3 1 8 4t18 14t23 25.5t18 41
t8 57.5q0 39 -22.5 61.5t-59.5 22.5q-88 0 -158.5 -111t-70.5 -262q0 -114 57.5 -176.5t158.5 -62.5zM484 870l-37 63l-74 -78q-25 -25 -55 -25q-12 0 -21 2t-13 4l-3 1l128 163q16 8 42 8q30 0 47 -9t29 -31l74 -131q-21 -7 -37 -7q-33 0 -50 9t-30 31z" />
    <glyph glyph-name="ccircumflex" unicode="&#x109;" 
d="M196 0q-100 0 -163 58t-63 154q0 126 79.5 207t186.5 81q62 0 101.5 -32t39.5 -81q0 -46 -23.5 -75t-62.5 -29q-16 0 -28 6t-16 12l-4 6q4 3 10 10t16.5 32.5t10.5 54.5q0 21 -13 33.5t-33 12.5q-50 0 -92 -62t-42 -156q0 -71 39 -112t108 -41t118 28.5t73 66.5
q22 0 16 -26q-10 -44 -82.5 -96t-175.5 -52zM280 620l-37 63l-74 -78q-25 -25 -55 -25q-12 0 -21 2t-13 4l-3 1l128 163q16 8 42 8q30 0 47 -9t29 -31l74 -131q-21 -7 -37 -7q-33 0 -50 9t-30 31z" />
    <glyph glyph-name="Ccaron" unicode="&#x10c;" horiz-adv-x="645" 
d="M405 83q78 0 141.5 25.5t100.5 65.5q20 0 17 -22q-11 -47 -101.5 -99.5t-210.5 -52.5q-131 0 -216.5 84.5t-85.5 226.5q0 194 106.5 316.5t264.5 122.5q90 0 140.5 -49.5t50.5 -120.5q0 -67 -36 -106t-86 -39q-22 0 -38 8.5t-22 16.5l-5 9q3 1 8 4t18 14t23 25.5t18 41
t8 57.5q0 39 -22.5 61.5t-59.5 22.5q-88 0 -158.5 -111t-70.5 -262q0 -114 57.5 -176.5t158.5 -62.5zM416 968l37 -63l74 78q25 25 55 25q12 0 21 -2t13 -4l3 -1l-128 -163q-16 -8 -42 -8q-30 0 -47 9t-29 31l-74 131q21 7 37 7q33 0 50 -9t30 -31z" />
    <glyph glyph-name="ccaron" unicode="&#x10d;" 
d="M196 0q-100 0 -163 58t-63 154q0 126 79.5 207t186.5 81q62 0 101.5 -32t39.5 -81q0 -46 -23.5 -75t-62.5 -29q-16 0 -28 6t-16 12l-4 6q4 3 10 10t16.5 32.5t10.5 54.5q0 21 -13 33.5t-33 12.5q-50 0 -92 -62t-42 -156q0 -71 39 -112t108 -41t118 28.5t73 66.5
q22 0 16 -26q-10 -44 -82.5 -96t-175.5 -52zM209 718l37 -63l74 78q25 25 55 25q12 0 21 -2t12 -4l4 -1l-128 -163q-16 -8 -42 -8q-30 0 -47 9t-29 31l-74 131q21 7 37 7q33 0 50 -9t30 -31z" />
    <glyph glyph-name="Dcaron" unicode="&#x10e;" horiz-adv-x="788" 
d="M381 521l-67 -382q-8 -42 -26 -70q29 -9 61 -9q120 0 190 92.5t70 244.5q0 139 -80.5 218.5t-222.5 79.5q-102 0 -152.5 -39t-50.5 -89q0 -21 10.5 -33.5t29.5 -12.5l17 3q1 -3 1 -9q0 -21 -20.5 -38.5t-55.5 -17.5q-48 0 -76.5 27.5t-28.5 72.5q0 80 84.5 135.5
t236.5 55.5q204 0 325.5 -102t121.5 -266q0 -176 -101.5 -279t-264.5 -103q-71 0 -137 27q-40 -27 -103 -27q-41 0 -61 17.5t-20 41.5q0 26 19 43t57 17q17 0 39 -5l72 412q5 31 5.5 54.5t-1.5 31.5l-3 8q16 10 57 10q54 0 69.5 -24.5t5.5 -84.5zM417 968l37 -63l74 78
q25 25 55 25q12 0 21 -2t12 -4l4 -1l-128 -163q-16 -8 -42 -8q-30 0 -47 9t-29 31l-74 131q21 7 37 7q33 0 50 -9t30 -31z" />
    <glyph glyph-name="dcaron" unicode="&#x10f;" horiz-adv-x="623" 
d="M548 758q0 30 20.5 51t49.5 21t47 -19t18 -51q0 -51 -37.5 -104.5t-71.5 -53.5q-12 0 -18.5 6.5t-6.5 14.5q33 30 41 77q-42 11 -42 58zM388 0q-50 0 -82 30t-35 84q-65 -114 -154 -114q-65 0 -106 44t-41 128q0 156 75 242t172 86q67 0 104 -44l48 279q5 28 5 49.5
t-2 29.5l-2 7q15 9 52 9q55 0 69.5 -22t4.5 -77l-96 -556q-15 -88 43 -88q26 0 56 24t49 63q23 0 19 -26q-9 -47 -61 -97.5t-118 -50.5zM157 87q33 0 64 43t49.5 97t29.5 110l9 47q-22 48 -66 48q-55 0 -100 -73.5t-45 -188.5q0 -83 59 -83z" />
    <glyph glyph-name="Dcroat" unicode="&#x110;" horiz-adv-x="788" 
d="M381 521l-30 -167h127q7 -13 7 -26q0 -29 -34 -29h-109l-28 -160q-8 -42 -26 -70q29 -9 61 -9q120 0 190 92.5t70 244.5q0 139 -80.5 218.5t-222.5 79.5q-102 0 -152.5 -39t-50.5 -89q0 -21 10.5 -33.5t29.5 -12.5l17 3q1 -3 1 -9q0 -21 -20.5 -38.5t-55.5 -17.5
q-48 0 -76.5 27.5t-28.5 72.5q0 80 84.5 135.5t236.5 55.5q204 0 325.5 -102t121.5 -266q0 -176 -101.5 -279t-264.5 -103q-71 0 -137 27q-40 -27 -103 -27q-41 0 -61 17.5t-20 41.5q0 26 19 43t57 17q17 0 39 -5l32 185h-124q-7 13 -7 26q0 29 34 29h107l30 172
q5 31 5.5 54.5t-1.5 31.5l-3 8q16 10 57 10q54 0 69.5 -24.5t5.5 -84.5z" />
    <glyph glyph-name="dcroat" unicode="&#x111;" horiz-adv-x="558" 
d="M388 0q-50 0 -82 30t-35 84q-65 -114 -154 -114q-65 0 -106 44t-41 128q0 156 75 242t172 86q67 0 104 -44l30 175h-66q-7 8 -7 21q0 29 34 29h47l10 54q5 28 5 49.5t-2 29.5l-2 7q15 9 52 9q55 0 69.5 -22t4.5 -77l-9 -50h99q7 -8 7 -21q0 -29 -34 -29h-81l-78 -456
q-15 -88 43 -88q26 0 56 24t49 63q23 0 19 -26q-9 -47 -61 -97.5t-118 -50.5zM157 87q33 0 64 43t49.5 97t29.5 110l9 47q-22 48 -66 48q-55 0 -100 -73.5t-45 -188.5q0 -83 59 -83z" />
    <glyph glyph-name="Emacron" unicode="&#x112;" horiz-adv-x="580" 
d="M389 695q-57 0 -97 -48.5t-40 -115.5q0 -53 27 -87t90 -31q1 -4 1 -11q0 -38 -53 -38h-23q-59 -14 -92.5 -54.5t-33.5 -92.5q0 -60 45 -97t141 -37q88 0 152.5 28t94.5 63q22 0 17 -22q-10 -49 -109 -100.5t-220 -51.5q-118 0 -188.5 50.5t-70.5 139.5q0 68 48 121
t132 75q-46 22 -71 60.5t-25 86.5q0 94 74.5 155.5t189.5 61.5q95 0 148 -45t53 -111q0 -50 -25 -80.5t-72 -30.5q-19 0 -34.5 6t-21.5 12l-5 6q5 5 12.5 13.5t20 37t12.5 59.5q0 78 -77 78zM504 849h-212q-18 0 -31.5 -2.5t-18.5 -4.5l-5 -2q-8 7 -8 26q0 64 83 64h212
q18 0 31.5 2t18.5 4l5 3q8 -7 8 -26q0 -64 -83 -64z" />
    <glyph glyph-name="emacron" unicode="&#x113;" 
d="M196 0q-100 0 -163 58t-63 158q0 127 81 205.5t187 78.5q71 0 107 -30.5t36 -73.5q0 -131 -281 -184q5 -58 43 -95.5t100 -37.5q73 0 121.5 28t73.5 67q22 0 16 -26q-9 -43 -82.5 -95.5t-175.5 -52.5zM239 450q-47 0 -88.5 -51.5t-49.5 -139.5q88 21 130.5 62.5
t42.5 93.5q0 16 -9.5 25.5t-25.5 9.5zM332 599h-212q-18 0 -31.5 -2.5t-18.5 -4.5l-5 -2q-8 7 -8 26q0 64 83 64h212q18 0 31.5 2t18.5 4l5 3q8 -7 8 -26q0 -64 -83 -64z" />
    <glyph glyph-name="Edotaccent" unicode="&#x116;" horiz-adv-x="580" 
d="M389 695q-57 0 -97 -48.5t-40 -115.5q0 -53 27 -87t90 -31q1 -4 1 -11q0 -38 -53 -38h-23q-59 -14 -92.5 -54.5t-33.5 -92.5q0 -60 45 -97t141 -37q88 0 152.5 28t94.5 63q22 0 17 -22q-10 -49 -109 -100.5t-220 -51.5q-118 0 -188.5 50.5t-70.5 139.5q0 68 48 121
t132 75q-46 22 -71 60.5t-25 86.5q0 94 74.5 155.5t189.5 61.5q95 0 148 -45t53 -111q0 -50 -25 -80.5t-72 -30.5q-19 0 -34.5 6t-21.5 12l-5 6q5 5 12.5 13.5t20 37t12.5 59.5q0 78 -77 78zM362 900q0 28 18 46t45 18q24 0 39 -15.5t15 -38.5q0 -26 -18 -44.5t-46 -18.5
q-23 0 -38 15t-15 38z" />
    <glyph glyph-name="edotaccent" unicode="&#x117;" 
d="M196 0q-100 0 -163 58t-63 158q0 127 81 205.5t187 78.5q71 0 107 -30.5t36 -73.5q0 -131 -281 -184q5 -58 43 -95.5t100 -37.5q73 0 121.5 28t73.5 67q22 0 16 -26q-9 -43 -82.5 -95.5t-175.5 -52.5zM239 450q-47 0 -88.5 -51.5t-49.5 -139.5q88 21 130.5 62.5
t42.5 93.5q0 16 -9.5 25.5t-25.5 9.5zM192 650q0 28 18 46t45 18q24 0 39 -15.5t15 -38.5q0 -26 -18 -44.5t-46 -18.5q-23 0 -38 15t-15 38z" />
    <glyph glyph-name="Eogonek" unicode="&#x118;" horiz-adv-x="580" 
d="M389 695q-57 0 -97 -48.5t-40 -115.5q0 -53 27 -87t90 -31q1 -4 1 -11q0 -38 -53 -38h-23q-59 -14 -92.5 -54.5t-33.5 -92.5q0 -61 46 -97.5t140 -36.5q88 0 152.5 28t94.5 63q22 0 17 -22q-8 -41 -83 -87t-177 -60q-62 -38 -62 -90q0 -44 45 -44q15 0 27 5.5t16 11.5
l4 6h5t8 -5.5t4 -16.5q-2 -26 -31.5 -48t-73.5 -22q-50 0 -77.5 26t-27.5 66q0 67 72 106q-107 5 -172 55t-65 135q0 68 48 121t132 75q-46 22 -71 60.5t-25 86.5q0 94 74.5 155.5t189.5 61.5q95 0 148 -45t53 -111q0 -50 -25 -80.5t-72 -30.5q-19 0 -34.5 6t-21.5 12l-5 6
q5 5 12.5 13.5t20 37t12.5 59.5q0 78 -77 78z" />
    <glyph glyph-name="eogonek" unicode="&#x119;" 
d="M454 148q-8 -37 -65 -83t-134 -60q-61 -40 -61 -90q0 -44 45 -44q15 0 27 5.5t16 11.5l4 6h5t8 -5.5t4 -16.5q-2 -26 -31.5 -48t-73.5 -22q-50 0 -77.5 26t-27.5 66q0 66 74 107q-89 9 -143 66t-54 149q0 127 81 205.5t187 78.5q71 0 107 -30.5t36 -73.5
q0 -131 -281 -184q5 -58 43.5 -95.5t99.5 -37.5q73 0 121.5 28t73.5 67q22 0 16 -26zM239 450q-47 0 -88.5 -51.5t-49.5 -139.5q88 21 130.5 62.5t42.5 93.5q0 16 -9.5 25.5t-25.5 9.5z" />
    <glyph glyph-name="Ecaron" unicode="&#x11a;" horiz-adv-x="580" 
d="M389 695q-57 0 -97 -48.5t-40 -115.5q0 -53 27 -87t90 -31q1 -4 1 -11q0 -38 -53 -38h-23q-59 -14 -92.5 -54.5t-33.5 -92.5q0 -60 45 -97t141 -37q88 0 152.5 28t94.5 63q22 0 17 -22q-10 -49 -109 -100.5t-220 -51.5q-118 0 -188.5 50.5t-70.5 139.5q0 68 48 121
t132 75q-46 22 -71 60.5t-25 86.5q0 94 74.5 155.5t189.5 61.5q95 0 148 -45t53 -111q0 -50 -25 -80.5t-72 -30.5q-19 0 -34.5 6t-21.5 12l-5 6q5 5 12.5 13.5t20 37t12.5 59.5q0 78 -77 78zM373 968l37 -63l74 78q25 25 55 25q12 0 21 -2t12 -4l4 -1l-128 -163
q-16 -8 -42 -8q-30 0 -47 9t-29 31l-74 131q21 7 37 7q33 0 50 -9t30 -31z" />
    <glyph glyph-name="ecaron" unicode="&#x11b;" 
d="M196 0q-100 0 -163 58t-63 158q0 127 81 205.5t187 78.5q71 0 107 -30.5t36 -73.5q0 -131 -281 -184q5 -58 43 -95.5t100 -37.5q73 0 121.5 28t73.5 67q22 0 16 -26q-9 -43 -82.5 -95.5t-175.5 -52.5zM239 450q-47 0 -88.5 -51.5t-49.5 -139.5q88 21 130.5 62.5
t42.5 93.5q0 16 -9.5 25.5t-25.5 9.5zM209 718l37 -63l74 78q25 25 55 25q12 0 21 -2t12 -4l4 -1l-128 -163q-16 -8 -42 -8q-30 0 -47 9t-29 31l-74 131q21 7 37 7q33 0 50 -9t30 -31z" />
    <glyph glyph-name="Gbreve" unicode="&#x11e;" horiz-adv-x="670" 
d="M447 315h198q5 -7 5 -19q0 -32 -59 -47q-18 -103 -88.5 -176t-184.5 -73q-116 0 -192 81.5t-76 225.5q0 194 104.5 318.5t259.5 124.5q92 0 146.5 -48.5t54.5 -121.5q0 -65 -35 -105t-88 -40q-21 0 -37 8.5t-21 16.5l-6 9q3 1 8 4t18 14t23 25t18 39.5t8 56.5
q0 87 -91 87q-80 0 -151.5 -108.5t-71.5 -276.5q0 -109 42.5 -166t121.5 -57q64 0 111 39t67 107q-48 -12 -94 -12q-32 0 -50 17t-18 47q0 9 2 17.5t4 12.5l2 4q34 -4 70 -4zM463 916q34 0 59.5 12.5t33.5 25.5l8 12q26 0 22 -26q-5 -42 -47.5 -76t-106.5 -34q-56 0 -90 30
t-34 77q0 29 15.5 47.5t34.5 18.5l19 -4q-10 -36 16 -59.5t70 -23.5z" />
    <glyph glyph-name="gbreve" unicode="&#x11f;" horiz-adv-x="557" 
d="M442 418l-58 -334q103 41 163 90q10 0 15.5 -6t3.5 -17q-3 -13 -33 -36q-52 -40 -159 -92l-2 -12q-61 -361 -280 -361q-51 0 -81.5 29t-30.5 76q0 83 84 155q61 53 183 113l12 71q-61 -94 -142 -94q-65 0 -106 44t-41 128q0 156 75 242t172 86q69 0 108 -49
q12 27 32.5 38t57.5 11q15 0 27.5 -2.5t17.5 -5.5l5 -2q-14 -18 -23 -72zM157 87q33 0 64 43t49.5 97t29.5 110l9 47q-22 48 -66 48q-55 0 -100 -73.5t-45 -188.5q0 -83 59 -83zM82 -284q108 0 154 244q-101 -52 -141 -92q-59 -57 -59 -107q0 -20 12 -32.5t34 -12.5z
M299 666q34 0 59.5 12.5t33.5 25.5l8 12q26 0 22 -26q-5 -42 -47.5 -76t-106.5 -34q-56 0 -90 30t-34 77q0 29 15.5 47.5t34.5 18.5l19 -4q-10 -36 16 -59.5t70 -23.5z" />
    <glyph glyph-name="Gcommaaccent" unicode="&#x122;" horiz-adv-x="670" 
d="M447 315h198q5 -7 5 -19q0 -32 -59 -47q-18 -103 -88.5 -176t-184.5 -73q-116 0 -192 81.5t-76 225.5q0 194 104.5 318.5t259.5 124.5q92 0 146.5 -48.5t54.5 -121.5q0 -65 -35 -105t-88 -40q-21 0 -37 8.5t-21 16.5l-6 9q3 1 8 4t18 14t23 25t18 39.5t8 56.5
q0 87 -91 87q-80 0 -151.5 -108.5t-71.5 -276.5q0 -109 42.5 -166t121.5 -57q64 0 111 39t67 107q-48 -12 -94 -12q-32 0 -50 17t-18 47q0 9 2 17.5t4 12.5l2 4q34 -4 70 -4zM226 -137q0 30 20.5 51t49.5 21t47 -19t18 -51q0 -51 -37.5 -104.5t-71.5 -53.5q-12 0 -18.5 6.5
t-6.5 14.5q33 30 41 77q-42 11 -42 58z" />
    <glyph glyph-name="gcommaaccent" unicode="&#x123;" horiz-adv-x="557" 
d="M324 662q0 -30 -20.5 -51t-49.5 -21t-47 19t-18 51q0 51 37.5 104.5t71.5 53.5q12 0 18.5 -6.5t6.5 -14.5q-33 -30 -41 -77q42 -11 42 -58zM442 418l-58 -334q103 41 163 90q10 0 15.5 -6t3.5 -17q-3 -13 -33 -36q-52 -40 -159 -92l-2 -12q-61 -361 -280 -361
q-51 0 -81.5 29t-30.5 76q0 83 84 155q61 53 183 113l12 71q-61 -94 -142 -94q-65 0 -106 44t-41 128q0 156 75 242t172 86q69 0 108 -49q12 27 32.5 38t57.5 11q15 0 27.5 -2.5t17.5 -5.5l5 -2q-14 -18 -23 -72zM157 87q33 0 64 43t49.5 97t29.5 110l9 47q-22 48 -66 48
q-55 0 -100 -73.5t-45 -188.5q0 -83 59 -83zM82 -284q108 0 154 244q-101 -52 -141 -92q-59 -57 -59 -107q0 -20 12 -32.5t34 -12.5z" />
    <glyph glyph-name="Imacron" unicode="&#x12a;" horiz-adv-x="442" 
d="M232 750h70q54 0 69.5 -24.5t5.5 -84.5l-94 -536q-5 -31 -5.5 -55t2.5 -32l2 -8q-16 -10 -57 -10q-54 0 -69.5 24.5t-5.5 84.5l94 537q5 33 5 49h-10q-65 0 -100.5 -31t-35.5 -77q0 -21 10.5 -33.5t29.5 -12.5l17 3q1 -3 1 -9q0 -21 -20.5 -38.5t-55.5 -17.5
q-48 0 -76.5 27.5t-28.5 72.5q0 76 67 123.5t185 47.5zM439 849h-212q-18 0 -31.5 -2.5t-18.5 -4.5l-5 -2q-8 7 -8 26q0 64 83 64h212q18 0 31.5 2t18.5 4l5 3q8 -7 8 -26q0 -64 -83 -64z" />
    <glyph glyph-name="imacron" unicode="&#x12b;" horiz-adv-x="268" 
d="M-10 220l32 185q5 28 5 49.5t-2 29.5l-2 7q15 9 52 9q55 0 69.5 -22t4.5 -77l-39 -226q-15 -88 43 -88q26 0 56 24t49 63q23 0 19 -26q-9 -47 -61 -97.5t-118 -50.5q-53 0 -85 33t-32 92q0 44 9 95zM200 599h-212q-18 0 -31.5 -2.5t-18.5 -4.5l-5 -2q-8 7 -8 26
q0 64 83 64h212q18 0 31.5 2t18.5 4l5 3q8 -7 8 -26q0 -64 -83 -64z" />
    <glyph glyph-name="Iogonek" unicode="&#x12e;" horiz-adv-x="442" 
d="M232 750h70q54 0 69.5 -24.5t5.5 -84.5l-94 -536q-5 -31 -5.5 -55t2.5 -32l2 -8q-10 -6 -30 -9q-56 -37 -56 -86q0 -44 45 -44q15 0 27 5.5t16 11.5l4 6h5t8 -5.5t4 -16.5q-2 -26 -31.5 -48t-73.5 -22q-50 0 -77.5 26t-27.5 66q0 72 83 112q-24 9 -30 35t2 68l94 537
q5 33 5 49h-10q-65 0 -100.5 -31t-35.5 -77q0 -21 10.5 -33.5t29.5 -12.5l17 3q1 -3 1 -9q0 -21 -20.5 -38.5t-55.5 -17.5q-48 0 -76.5 27.5t-28.5 72.5q0 76 67 123.5t185 47.5z" />
    <glyph glyph-name="iogonek" unicode="&#x12f;" horiz-adv-x="267" 
d="M-11 220l32 185q5 28 5 49.5t-2 29.5l-2 7q15 9 52 9q55 0 69.5 -22t4.5 -77l-39 -226q-15 -88 43 -88q26 0 56 24t49 63q23 0 19 -26q-7 -35 -40.5 -76.5t-80.5 -60.5q-71 -41 -71 -96q0 -44 45 -44q15 0 27 5.5t16 11.5l4 6h5t8 -5.5t4 -16.5q-2 -26 -31.5 -48
t-73.5 -22q-50 0 -77.5 26t-27.5 66q0 70 79 110q-38 10 -60 41t-22 80q0 44 9 95zM56 650q0 30 20.5 51t49.5 21q28 0 45 -18t17 -45q0 -28 -20 -48.5t-52 -20.5q-27 0 -43.5 17t-16.5 43z" />
    <glyph glyph-name="Idotaccent" unicode="&#x130;" horiz-adv-x="442" 
d="M232 750h70q54 0 69.5 -24.5t5.5 -84.5l-94 -536q-5 -31 -5.5 -55t2.5 -32l2 -8q-16 -10 -57 -10q-54 0 -69.5 24.5t-5.5 84.5l94 537q5 33 5 49h-10q-65 0 -100.5 -31t-35.5 -77q0 -21 10.5 -33.5t29.5 -12.5l17 3q1 -3 1 -9q0 -21 -20.5 -38.5t-55.5 -17.5
q-48 0 -76.5 27.5t-28.5 72.5q0 76 67 123.5t185 47.5zM290 900q0 28 18 46t45 18q24 0 39 -15.5t15 -38.5q0 -26 -18 -44.5t-46 -18.5q-23 0 -38 15t-15 38z" />
    <glyph glyph-name="dotlessi" unicode="&#x131;" horiz-adv-x="267" 
d="M-11 220l32 185q5 28 5 49.5t-2 29.5l-2 7q15 9 52 9q55 0 69.5 -22t4.5 -77l-39 -226q-15 -88 43 -88q26 0 56 24t49 63q23 0 19 -26q-9 -47 -61 -97.5t-118 -50.5q-53 0 -85 33t-32 92q0 44 9 95z" />
    <glyph glyph-name="Kcommaaccent" unicode="&#x136;" horiz-adv-x="749" 
d="M598 0q-52 0 -83 31t-47 93l-40 155q-9 34 -24 49.5t-44 15.5h-36l-42 -239q-5 -31 -5.5 -55t1.5 -32l3 -8q-16 -10 -57 -10q-54 0 -69.5 24.5t-5.5 84.5l94 537q5 33 5 49h-9q-65 0 -100.5 -31t-35.5 -77q0 -21 10.5 -33.5t29.5 -12.5l17 3q1 -3 1 -9q0 -21 -20.5 -38.5
t-55.5 -17.5q-48 0 -76.5 27.5t-28.5 72.5q0 76 67 123.5t185 47.5h69q54 0 70 -25t5 -84l-43 -242h32q61 0 119 105l66 120q37 67 70.5 96.5t73.5 29.5t62 -21t22 -59q0 -24 -10 -42.5t-20 -25.5l-11 -7q0 2 -1.5 5t-5.5 10t-10 13t-17.5 10.5t-24.5 4.5q-61 0 -104 -82
l-35 -67q-43 -82 -79 -99q75 -7 96 -86l39 -142q11 -40 25 -57.5t37 -17.5q30 0 59.5 30t42.5 57q22 0 19 -26q-6 -47 -61 -97.5t-119 -50.5zM335 -137q0 30 20.5 51t49.5 21t47 -19t18 -51q0 -51 -37.5 -104.5t-71.5 -53.5q-12 0 -18.5 6.5t-6.5 14.5q33 30 41 77
q-42 11 -42 58z" />
    <glyph glyph-name="kcommaaccent" unicode="&#x137;" horiz-adv-x="516" 
d="M122 213l-20 -118q-5 -28 -5 -49.5t2 -29.5l2 -7q-15 -9 -52 -9q-55 0 -69.5 22t-4.5 77l111 636q5 28 5 49.5t-2 29.5l-2 7q15 9 52 9q55 0 69.5 -22t4.5 -77l-82 -469h40q31 0 60 57l39 80q29 58 55 79.5t60 21.5q30 0 47.5 -18.5t17.5 -49.5q0 -20 -9 -37t-17 -25
l-9 -7q-1 4 -3.5 10t-15 16t-29.5 10q-42 0 -70 -60l-17 -36q-13 -29 -35 -45q50 -12 68 -65l11 -35q22 -71 75 -71q31 0 60.5 25t46.5 62q23 0 19 -26q-8 -46 -61 -97t-118 -51q-104 0 -139 117l-16 53q-14 43 -48 43h-21zM113 -137q0 30 20.5 51t49.5 21t47 -19t18 -51
q0 -51 -37.5 -104.5t-71.5 -53.5q-12 0 -18.5 6.5t-6.5 14.5q33 30 41 77q-42 11 -42 58z" />
    <glyph glyph-name="Lacute" unicode="&#x139;" horiz-adv-x="617" 
d="M144 119h8l92 527q5 26 5 49h-10q-65 0 -100.5 -31t-35.5 -77q0 -21 10.5 -33.5t29.5 -12.5l17 3q1 -3 1 -9q0 -21 -20.5 -38.5t-55.5 -17.5q-48 0 -76.5 27.5t-28.5 72.5q0 76 67 123.5t185 47.5h70q54 0 70 -25t5 -84l-93 -530q98 -6 184 -6q50 0 87 6.5t49 12.5l12 7
q11 -12 11 -43q0 -40 -28.5 -64t-84.5 -24t-118 14t-96 28l-35 14q-5 -6 -14 -15.5t-39 -25t-63 -15.5q-38 0 -58 17.5t-20 41.5q0 25 19 42.5t54 17.5zM303 837l80 125q29 46 89 46q16 0 31 -2.5t22 -5.5l7 -2l-137 -143q-23 -25 -55 -25q-11 0 -20.5 2t-13.5 4z" />
    <glyph glyph-name="lacute" unicode="&#x13a;" horiz-adv-x="273" 
d="M-11 220l91 515q5 28 5 49.5t-2 29.5l-2 7q15 9 52 9q55 0 69.5 -22t4.5 -77l-98 -556q-15 -88 43 -88q31 0 61.5 23.5t49.5 63.5q23 0 19 -26q-9 -47 -63.5 -97.5t-121.5 -50.5q-53 0 -85 33t-32 92q0 44 9 95zM139 916l80 125q29 46 89 46q16 0 31 -2.5t22 -4.5l7 -3
l-137 -143q-23 -25 -55 -25q-11 0 -20.5 1.5t-13.5 3.5z" />
    <glyph glyph-name="Lcommaaccent" unicode="&#x13b;" horiz-adv-x="617" 
d="M144 119h8l92 527q5 26 5 49h-10q-65 0 -100.5 -31t-35.5 -77q0 -21 10.5 -33.5t29.5 -12.5l17 3q1 -3 1 -9q0 -21 -20.5 -38.5t-55.5 -17.5q-48 0 -76.5 27.5t-28.5 72.5q0 76 67 123.5t185 47.5h70q54 0 70 -25t5 -84l-93 -530q98 -6 184 -6q50 0 87 6.5t49 12.5l12 7
q11 -12 11 -43q0 -40 -28.5 -64t-84.5 -24t-118 14t-96 28l-35 14q-5 -6 -14 -15.5t-39 -25t-63 -15.5q-38 0 -58 17.5t-20 41.5q0 25 19 42.5t54 17.5zM302 -137q0 30 20.5 51t49.5 21t47 -19t18 -51q0 -51 -37.5 -104.5t-71.5 -53.5q-12 0 -18.5 6.5t-6.5 14.5
q33 30 41 77q-42 11 -42 58z" />
    <glyph glyph-name="lcommaaccent" unicode="&#x13c;" horiz-adv-x="273" 
d="M-11 220l91 515q5 28 5 49.5t-2 29.5l-2 7q15 9 52 9q55 0 69.5 -22t4.5 -77l-98 -556q-15 -88 43 -88q31 0 61.5 23.5t49.5 63.5q23 0 19 -26q-9 -47 -63.5 -97.5t-121.5 -50.5q-53 0 -85 33t-32 92q0 44 9 95zM16 -137q0 30 20.5 51t49.5 21t47 -19t18 -51
q0 -51 -37.5 -104.5t-71.5 -53.5q-12 0 -18.5 6.5t-6.5 14.5q33 30 41 77q-42 11 -42 58z" />
    <glyph glyph-name="Lcaron" unicode="&#x13d;" horiz-adv-x="617" 
d="M452 678q0 30 20.5 51t49.5 21t47 -19t18 -51q0 -51 -37.5 -104.5t-71.5 -53.5q-12 0 -18.5 6.5t-6.5 14.5q33 30 41 77q-42 11 -42 58zM144 119h8l92 527q5 26 5 49h-10q-65 0 -100.5 -31t-35.5 -77q0 -21 10.5 -33.5t29.5 -12.5l17 3q1 -3 1 -9q0 -21 -20.5 -38.5
t-55.5 -17.5q-48 0 -76.5 27.5t-28.5 72.5q0 76 67 123.5t185 47.5h70q54 0 70 -25t5 -84l-93 -530q98 -6 184 -6q50 0 87 6.5t49 12.5l12 7q11 -12 11 -43q0 -40 -28.5 -64t-84.5 -24t-118 14t-96 28l-35 14q-5 -6 -14 -15.5t-39 -25t-63 -15.5q-38 0 -58 17.5t-20 41.5
q0 25 19 42.5t54 17.5z" />
    <glyph glyph-name="lcaron" unicode="&#x13e;" horiz-adv-x="335" 
d="M260 758q0 30 20.5 51t49.5 21t47 -19t18 -51q0 -51 -37.5 -104.5t-71.5 -53.5q-12 0 -18.5 6.5t-6.5 14.5q33 30 41 77q-42 11 -42 58zM-11 220l91 515q5 28 5 49.5t-2 29.5l-2 7q15 9 52 9q55 0 69.5 -22t4.5 -77l-98 -556q-15 -88 43 -88q31 0 61.5 23.5t49.5 63.5
q23 0 19 -26q-9 -47 -63.5 -97.5t-121.5 -50.5q-53 0 -85 33t-32 92q0 44 9 95z" />
    <glyph glyph-name="Lslash" unicode="&#x141;" horiz-adv-x="617" 
d="M144 119h8l28 161l-92 -56q-10 3 -17 13q-16 26 14 43l106 64l53 302q5 26 5 49h-10q-65 0 -100.5 -31t-35.5 -77q0 -21 10.5 -33.5t29.5 -12.5l17 3q1 -3 1 -9q0 -21 -20.5 -38.5t-55.5 -17.5q-48 0 -76.5 27.5t-28.5 72.5q0 76 67 123.5t185 47.5h70q54 0 70 -25t5 -84
l-36 -206l91 56q10 -3 17 -13q16 -26 -14 -43l-106 -64l-45 -260q98 -6 184 -6q50 0 87 6.5t49 12.5l12 7q11 -12 11 -43q0 -40 -28.5 -64t-84.5 -24t-118 14t-96 28l-35 14q-5 -6 -14 -15.5t-39 -25t-63 -15.5q-38 0 -58 17.5t-20 41.5q0 25 19 42.5t54 17.5z" />
    <glyph glyph-name="lslash" unicode="&#x142;" horiz-adv-x="278" 
d="M-6 220l20 116l-62 -38q-10 3 -17 13q-16 26 14 43l77 47l59 334q5 28 5 49.5t-2 29.5l-2 7q15 9 52 9q55 0 69.5 -22t4.5 -77l-43 -244l63 39q10 -3 17 -13q14 -24 -14 -43l-78 -47l-43 -248q-15 -88 43 -88q31 0 61.5 23.5t49.5 63.5q23 0 19 -26q-9 -47 -63.5 -97.5
t-121.5 -50.5q-53 0 -85 33t-32 92q0 44 9 95z" />
    <glyph glyph-name="Nacute" unicode="&#x143;" horiz-adv-x="780" 
d="M167 204l77 440q4 24 6 51h-11q-65 0 -100.5 -31t-35.5 -77q0 -21 10.5 -33.5t29.5 -12.5l17 3q1 -3 1 -9q0 -21 -20.5 -38.5t-55.5 -17.5q-48 0 -76.5 27.5t-28.5 72.5q0 76 67 123.5t185 47.5h89q40 0 63 -18t35 -61l152 -536l59 334q16 92 16.5 162.5t-7.5 94.5l-8 24
q10 9 35 9q29 0 41.5 -14.5t12.5 -48.5q0 -38 -20 -150l-77 -440q-13 -74 -6 -96q-19 -10 -71 -10q-40 0 -61.5 19t-33.5 60l-154 543l-60 -341q-10 -58 -14 -108t-2 -80.5t5 -52.5t6 -31l4 -9q-10 -9 -35 -9q-29 0 -41.5 14.5t-12.5 48.5q0 38 20 150zM478 837l80 125
q29 46 89 46q16 0 31 -2.5t22 -5.5l7 -2l-137 -143q-23 -25 -55 -25q-11 0 -20.5 2t-12.5 4z" />
    <glyph glyph-name="nacute" unicode="&#x144;" horiz-adv-x="569" 
d="M296 239l19 110q11 63 -24 63q-48 0 -107 -96.5t-82 -220.5q-5 -28 -5 -49.5t2 -29.5l2 -7q-15 -9 -52 -9q-55 0 -69.5 22t-4.5 77l53 306q5 28 5 49.5t-2 29.5l-2 7q15 9 52 9q55 0 69.5 -22t4.5 -77l-8 -46q34 57 87 101t109 44q47 0 75 -28t28 -75q0 -27 -9 -81
l-24 -141q-16 -88 41 -88q62 0 105 87q23 0 19 -26q-7 -45 -59.5 -96.5t-116.5 -51.5q-56 0 -88.5 34t-32.5 91q0 32 15 114zM222 587l80 125q29 46 89 46q16 0 31 -2.5t22 -5.5l7 -2l-137 -143q-23 -25 -55 -25q-11 0 -20.5 2t-12.5 4z" />
    <glyph glyph-name="Ncommaaccent" unicode="&#x145;" horiz-adv-x="780" 
d="M167 204l77 440q4 24 6 51h-11q-65 0 -100.5 -31t-35.5 -77q0 -21 10.5 -33.5t29.5 -12.5l17 3q1 -3 1 -9q0 -21 -20.5 -38.5t-55.5 -17.5q-48 0 -76.5 27.5t-28.5 72.5q0 76 67 123.5t185 47.5h89q40 0 63 -18t35 -61l152 -536l59 334q16 92 16.5 162.5t-7.5 94.5l-8 24
q10 9 35 9q29 0 41.5 -14.5t12.5 -48.5q0 -38 -20 -150l-77 -440q-13 -74 -6 -96q-19 -10 -71 -10q-40 0 -61.5 19t-33.5 60l-154 543l-60 -341q-10 -58 -14 -108t-2 -80.5t5 -52.5t6 -31l4 -9q-10 -9 -35 -9q-29 0 -41.5 14.5t-12.5 48.5q0 38 20 150zM309 -137
q0 30 20.5 51t49.5 21t47 -19t18 -51q0 -51 -37.5 -104.5t-71.5 -53.5q-12 0 -18.5 6.5t-6.5 14.5q33 30 41 77q-42 11 -42 58z" />
    <glyph glyph-name="ncommaaccent" unicode="&#x146;" horiz-adv-x="569" 
d="M296 239l19 110q11 63 -24 63q-48 0 -107 -96.5t-82 -220.5q-5 -28 -5 -49.5t2 -29.5l2 -7q-15 -9 -52 -9q-55 0 -69.5 22t-4.5 77l53 306q5 28 5 49.5t-2 29.5l-2 7q15 9 52 9q55 0 69.5 -22t4.5 -77l-8 -46q34 57 87 101t109 44q47 0 75 -28t28 -75q0 -27 -9 -81
l-24 -141q-16 -88 41 -88q62 0 105 87q23 0 19 -26q-7 -45 -59.5 -96.5t-116.5 -51.5q-56 0 -88.5 34t-32.5 91q0 32 15 114zM135 -137q0 30 20.5 51t49.5 21t47 -19t18 -51q0 -51 -37.5 -104.5t-71.5 -53.5q-12 0 -18.5 6.5t-6.5 14.5q33 30 41 77q-42 11 -42 58z" />
    <glyph glyph-name="Ncaron" unicode="&#x147;" horiz-adv-x="780" 
d="M167 204l77 440q4 24 6 51h-11q-65 0 -100.5 -31t-35.5 -77q0 -21 10.5 -33.5t29.5 -12.5l17 3q1 -3 1 -9q0 -21 -20.5 -38.5t-55.5 -17.5q-48 0 -76.5 27.5t-28.5 72.5q0 76 67 123.5t185 47.5h89q40 0 63 -18t35 -61l152 -536l59 334q16 92 16.5 162.5t-7.5 94.5l-8 24
q10 9 35 9q29 0 41.5 -14.5t12.5 -48.5q0 -38 -20 -150l-77 -440q-13 -74 -6 -96q-19 -10 -71 -10q-40 0 -61.5 19t-33.5 60l-154 543l-60 -341q-10 -58 -14 -108t-2 -80.5t5 -52.5t6 -31l4 -9q-10 -9 -35 -9q-29 0 -41.5 14.5t-12.5 48.5q0 38 20 150zM483 968l37 -63
l74 78q25 25 55 25q12 0 21 -2t12 -4l4 -1l-128 -163q-16 -8 -42 -8q-30 0 -47 9t-29 31l-74 131q21 7 37 7q33 0 50 -9t30 -31z" />
    <glyph glyph-name="ncaron" unicode="&#x148;" horiz-adv-x="569" 
d="M296 239l19 110q11 63 -24 63q-48 0 -107 -96.5t-82 -220.5q-5 -28 -5 -49.5t2 -29.5l2 -7q-15 -9 -52 -9q-55 0 -69.5 22t-4.5 77l53 306q5 28 5 49.5t-2 29.5l-2 7q15 9 52 9q55 0 69.5 -22t4.5 -77l-8 -46q34 57 87 101t109 44q47 0 75 -28t28 -75q0 -27 -9 -81
l-24 -141q-16 -88 41 -88q62 0 105 87q23 0 19 -26q-7 -45 -59.5 -96.5t-116.5 -51.5q-56 0 -88.5 34t-32.5 91q0 32 15 114zM246 718l37 -63l74 78q25 25 55 25q12 0 21 -2t13 -4l3 -1l-128 -163q-16 -8 -42 -8q-30 0 -47 9t-29 31l-74 131q21 7 37 7q33 0 50 -9t30 -31z
" />
    <glyph glyph-name="Omacron" unicode="&#x14c;" horiz-adv-x="699" 
d="M523 859h-212q-18 0 -31.5 -2.5t-18.5 -4.5l-5 -2q-8 7 -8 26q0 64 83 64h212q18 0 31.5 2t18.5 4l5 3q8 -7 8 -26q0 -64 -83 -64zM411 750q113 0 175.5 -74t62.5 -204q0 -132 -43 -239t-126 -170t-192 -63q-108 0 -173 71t-65 207q0 206 99.5 339t261.5 133zM198 375
q-11 -75 -11 -137q0 -183 113 -183q68 0 121.5 81.5t78.5 238.5q11 66 11 137q0 183 -113 183q-64 0 -119.5 -79.5t-80.5 -240.5z" />
    <glyph glyph-name="omacron" unicode="&#x14d;" horiz-adv-x="531" 
d="M247 500q86 0 135 -52t49 -139q0 -30 -5 -63q33 5 63.5 24.5t44.5 36.5l13 17q21 0 18 -25q-5 -29 -49 -60.5t-100 -38.5q-26 -92 -94.5 -146t-167.5 -54q-82 0 -133 50t-51 141q0 138 75 223.5t202 85.5zM251 306q0 57 51 68q-8 77 -65 77q-41 0 -75.5 -47.5
t-54.5 -152.5q-9 -47 -9 -103q0 -47 17 -72.5t49 -25.5q87 0 125 177q-38 29 -38 79zM358 599h-212q-18 0 -31.5 -2.5t-18.5 -4.5l-5 -2q-8 7 -8 26q0 64 83 64h212q18 0 31.5 2t18.5 4l5 3q8 -7 8 -26q0 -64 -83 -64z" />
    <glyph glyph-name="Ohungarumlaut" unicode="&#x150;" horiz-adv-x="701" 
d="M300 837l80 125q29 46 89 46q16 0 31 -2.5t22 -5.5l7 -2l-137 -143q-23 -25 -55 -25q-11 0 -20.5 2t-12.5 4zM472 837l80 125q29 46 89 46q16 0 31 -2.5t22 -5.5l7 -2l-137 -143q-23 -25 -55 -25q-11 0 -20.5 2t-12.5 4zM411 750q113 0 175.5 -74t62.5 -204
q0 -132 -43 -239t-126 -170t-192 -63q-108 0 -173 71t-65 207q0 206 99.5 339t261.5 133zM198 375q-11 -75 -11 -137q0 -183 113 -183q68 0 121.5 81.5t78.5 238.5q11 66 11 137q0 183 -113 183q-64 0 -119.5 -79.5t-80.5 -240.5z" />
    <glyph glyph-name="ohungarumlaut" unicode="&#x151;" horiz-adv-x="531" 
d="M247 500q86 0 135 -52t49 -139q0 -30 -5 -63q33 5 63.5 24.5t44.5 36.5l13 17q21 0 18 -25q-5 -29 -49 -60.5t-100 -38.5q-26 -92 -94.5 -146t-167.5 -54q-82 0 -133 50t-51 141q0 138 75 223.5t202 85.5zM251 306q0 57 51 68q-8 77 -65 77q-41 0 -75.5 -47.5
t-54.5 -152.5q-9 -47 -9 -103q0 -47 17 -72.5t49 -25.5q87 0 125 177q-38 29 -38 79zM125 587l80 125q29 46 89 46q16 0 31 -2.5t22 -5.5l7 -2l-137 -143q-23 -25 -55 -25q-11 0 -20.5 2t-13.5 4zM297 587l80 125q29 46 89 46q16 0 31 -2.5t22 -5.5l7 -2l-137 -143
q-23 -25 -55 -25q-11 0 -20.5 2t-13.5 4z" />
    <glyph glyph-name="OE" unicode="&#x152;" horiz-adv-x="1002" 
d="M811 695q-57 0 -97 -48.5t-40 -115.5q0 -53 27 -87t90 -31q1 -4 1 -11q0 -38 -53 -38h-23q-59 -14 -92.5 -54.5t-33.5 -92.5q0 -60 45.5 -97t140.5 -37q88 0 152.5 28t94.5 63q22 0 17 -22q-10 -49 -109 -100.5t-220 -51.5q-150 0 -213 78q-87 -78 -210 -78
q-108 0 -173 71t-65 207q0 206 99.5 339t261.5 133q116 0 180 -80q77 80 209 80q95 0 148 -45t53 -111q0 -50 -25 -80.5t-72 -30.5q-19 0 -34.5 6t-21.5 12l-5 6q5 5 12.5 13.5t20 37t12.5 59.5q0 78 -77 78zM198 375q-11 -75 -11 -137q0 -183 113 -183q68 0 121.5 81.5
t78.5 238.5q11 66 11 137q0 183 -113 183q-64 0 -119.5 -79.5t-80.5 -240.5z" />
    <glyph glyph-name="oe" unicode="&#x153;" horiz-adv-x="779" 
d="M524 0q-116 0 -179 74q-72 -74 -191 -74q-82 0 -133 50t-51 141q0 138 75 223.5t202 85.5q97 0 146 -65q76 65 173 65q71 0 107 -30.5t36 -73.5q0 -131 -281 -184q5 -58 43.5 -95.5t99.5 -37.5q73 0 121.5 28t73.5 67q22 0 16 -26q-11 -46 -84 -97t-174 -51zM107 251
q-9 -47 -9 -103q0 -47 17 -72.5t49 -25.5q91 0 130 200q9 46 9 103q0 98 -66 98q-41 0 -75.5 -47.5t-54.5 -152.5zM567 450q-47 0 -88.5 -51.5t-49.5 -139.5q88 21 130.5 62.5t42.5 93.5q0 16 -9.5 25.5t-25.5 9.5z" />
    <glyph glyph-name="Racute" unicode="&#x154;" horiz-adv-x="757" 
d="M480 311q83 -19 106 -94l17 -55q23 -75 66 -75q30 0 57 29t41 58q22 0 19 -26q-6 -47 -58 -97.5t-115 -50.5q-105 0 -137 124l-19 73q-11 43 -28.5 62.5t-49.5 19.5h-57l-30 -174q-5 -31 -5.5 -55t1.5 -32l3 -8q-16 -10 -57 -10q-54 0 -69.5 24.5t-5.5 84.5l75 431
q5 31 5.5 54.5t-1.5 31.5l-3 8q16 10 57 10q54 0 69.5 -24.5t5.5 -84.5l-35 -201h38q89 0 141.5 51.5t52.5 138.5q0 170 -253 171q-104 0 -156 -39t-52 -89q0 -21 10.5 -33.5t29.5 -12.5l17 3q1 -3 1 -9q0 -21 -20.5 -38.5t-55.5 -17.5q-48 0 -76.5 27.5t-28.5 72.5
q0 81 86.5 136t252.5 55q192 0 288 -62.5t96 -169.5q0 -80 -65 -137.5t-158 -69.5zM450 837l80 125q29 46 89 46q16 0 31 -2.5t22 -5.5l7 -2l-137 -143q-23 -25 -55 -25q-11 0 -20.5 2t-12.5 4z" />
    <glyph glyph-name="racute" unicode="&#x155;" horiz-adv-x="443" 
d="M155 401l-8 -44q44 75 90.5 109t85.5 34q37 0 58.5 -20t21.5 -58q0 -42 -23 -69t-60 -27q-12 0 -23 1.5t-17 2.5l-5 2q13 23 13 50q0 22 -21 22q-29 0 -71 -59q-33 -46 -55.5 -102.5t-39.5 -153.5q-4 -26 -4 -46t2 -27l2 -7q-15 -9 -52 -9q-55 0 -69.5 22t-4.5 77l53 306
q5 28 5 49.5t-2 29.5l-2 7q15 9 52 9q55 0 69.5 -22.5t4.5 -76.5zM184 587l80 125q29 46 89 46q16 0 31 -2.5t22 -5.5l7 -2l-137 -143q-23 -25 -55 -25q-11 0 -20.5 2t-12.5 4z" />
    <glyph glyph-name="Rcommaaccent" unicode="&#x156;" horiz-adv-x="757" 
d="M480 311q83 -19 106 -94l17 -55q23 -75 66 -75q30 0 57 29t41 58q22 0 19 -26q-6 -47 -58 -97.5t-115 -50.5q-105 0 -137 124l-19 73q-11 43 -28.5 62.5t-49.5 19.5h-57l-30 -174q-5 -31 -5.5 -55t1.5 -32l3 -8q-16 -10 -57 -10q-54 0 -69.5 24.5t-5.5 84.5l75 431
q5 31 5.5 54.5t-1.5 31.5l-3 8q16 10 57 10q54 0 69.5 -24.5t5.5 -84.5l-35 -201h38q89 0 141.5 51.5t52.5 138.5q0 170 -253 171q-104 0 -156 -39t-52 -89q0 -21 10.5 -33.5t29.5 -12.5l17 3q1 -3 1 -9q0 -21 -20.5 -38.5t-55.5 -17.5q-48 0 -76.5 27.5t-28.5 72.5
q0 81 86.5 136t252.5 55q192 0 288 -62.5t96 -169.5q0 -80 -65 -137.5t-158 -69.5zM355 -137q0 30 20.5 51t49.5 21t47 -19t18 -51q0 -51 -37.5 -104.5t-71.5 -53.5q-12 0 -18.5 6.5t-6.5 14.5q33 30 41 77q-42 11 -42 58z" />
    <glyph glyph-name="rcommaaccent" unicode="&#x157;" horiz-adv-x="443" 
d="M155 401l-8 -44q44 75 90.5 109t85.5 34q37 0 58.5 -20t21.5 -58q0 -42 -23 -69t-60 -27q-12 0 -23 1.5t-17 2.5l-5 2q13 23 13 50q0 22 -21 22q-29 0 -71 -59q-33 -46 -55.5 -102.5t-39.5 -153.5q-4 -26 -4 -46t2 -27l2 -7q-15 -9 -52 -9q-55 0 -69.5 22t-4.5 77l53 306
q5 28 5 49.5t-2 29.5l-2 7q15 9 52 9q55 0 69.5 -22.5t4.5 -76.5zM-50 -137q0 30 20.5 51t49.5 21t47 -19t18 -51q0 -51 -37.5 -104.5t-71.5 -53.5q-12 0 -18.5 6.5t-6.5 14.5q33 30 41 77q-42 11 -42 58z" />
    <glyph glyph-name="Rcaron" unicode="&#x158;" horiz-adv-x="757" 
d="M480 311q83 -19 106 -94l17 -55q23 -75 66 -75q30 0 57 29t41 58q22 0 19 -26q-6 -47 -58 -97.5t-115 -50.5q-105 0 -137 124l-19 73q-11 43 -28.5 62.5t-49.5 19.5h-57l-30 -174q-5 -31 -5.5 -55t1.5 -32l3 -8q-16 -10 -57 -10q-54 0 -69.5 24.5t-5.5 84.5l75 431
q5 31 5.5 54.5t-1.5 31.5l-3 8q16 10 57 10q54 0 69.5 -24.5t5.5 -84.5l-35 -201h38q89 0 141.5 51.5t52.5 138.5q0 170 -253 171q-104 0 -156 -39t-52 -89q0 -21 10.5 -33.5t29.5 -12.5l17 3q1 -3 1 -9q0 -21 -20.5 -38.5t-55.5 -17.5q-48 0 -76.5 27.5t-28.5 72.5
q0 81 86.5 136t252.5 55q192 0 288 -62.5t96 -169.5q0 -80 -65 -137.5t-158 -69.5zM456 968l37 -63l74 78q25 25 55 25q12 0 21 -2t13 -4l3 -1l-128 -163q-16 -8 -42 -8q-30 0 -47 9t-29 31l-74 131q21 7 37 7q33 0 50 -9t30 -31z" />
    <glyph glyph-name="rcaron" unicode="&#x159;" horiz-adv-x="443" 
d="M155 401l-8 -44q44 75 90.5 109t85.5 34q37 0 58.5 -20t21.5 -58q0 -42 -23 -69t-60 -27q-12 0 -23 1.5t-17 2.5l-5 2q13 23 13 50q0 22 -21 22q-29 0 -71 -59q-33 -46 -55.5 -102.5t-39.5 -153.5q-4 -26 -4 -46t2 -27l2 -7q-15 -9 -52 -9q-55 0 -69.5 22t-4.5 77l53 306
q5 28 5 49.5t-2 29.5l-2 7q15 9 52 9q55 0 69.5 -22.5t4.5 -76.5zM196 718l37 -63l74 78q25 25 55 25q12 0 21 -2t13 -4l3 -1l-128 -163q-16 -8 -42 -8q-30 0 -47 9t-29 31l-74 131q21 7 37 7q33 0 50 -9t30 -31z" />
    <glyph glyph-name="Sacute" unicode="&#x15a;" horiz-adv-x="601" 
d="M353 695q-62 0 -100.5 -33.5t-38.5 -88.5q0 -67 70 -108l127 -74q117 -69 117 -179q0 -88 -74.5 -150t-205.5 -62q-102 0 -165 45.5t-63 115.5q0 51 25 77.5t63 26.5q21 0 36.5 -6.5t19.5 -12.5l5 -7q-35 -32 -35 -83q0 -46 31.5 -73.5t88.5 -27.5q66 0 106 35t40 85
q0 38 -21 67t-71 57l-107 61q-115 66 -115 177q0 88 71.5 150.5t196.5 62.5q106 0 171.5 -47.5t65.5 -122.5q0 -52 -26 -81.5t-72 -29.5q-21 0 -37.5 6.5t-22.5 12.5l-6 7q2 1 5.5 3.5t12 11t15 19t12 29t5.5 38.5q0 44 -31.5 71.5t-92.5 27.5zM351 837l80 125q29 46 89 46
q16 0 31 -2.5t22 -5.5l7 -2l-137 -143q-23 -25 -55 -25q-11 0 -20.5 2t-13.5 4z" />
    <glyph glyph-name="sacute" unicode="&#x15b;" horiz-adv-x="456" 
d="M159 324l86 -45q53 -28 76 -59.5t23 -72.5q0 -63 -54.5 -105t-157.5 -42q-88 0 -135 36.5t-47 81.5q0 27 19.5 43.5t46.5 16.5q15 0 27 -3.5t17 -6.5l4 -4q-5 -11 -5 -29q0 -38 21 -61t62 -24q41 0 62.5 18t21.5 45q0 37 -49 63l-98 52q-42 23 -64.5 51t-22.5 74
q0 64 55 105.5t157 41.5q86 0 134 -37t48 -81q0 -27 -19.5 -43.5t-46.5 -16.5q-15 0 -27 3.5t-17 6.5l-4 4q5 11 5 29q0 37 -22.5 61t-62.5 24t-61 -17.5t-21 -45.5q0 -38 49 -63zM177 587l80 125q29 46 89 46q16 0 31 -2.5t22 -5.5l7 -2l-137 -143q-23 -25 -55 -25
q-11 0 -20.5 2t-13.5 4z" />
    <glyph glyph-name="Scedilla" unicode="&#x15e;" horiz-adv-x="601" 
d="M353 695q-62 0 -100.5 -33.5t-38.5 -88.5q0 -67 70 -108l127 -74q117 -69 117 -179q0 -81 -63.5 -141t-175.5 -70l-7 -26q36 -2 56.5 -23.5t20.5 -56.5q0 -45 -32.5 -75.5t-81.5 -30.5q-34 0 -57.5 18t-27.5 45q-1 11 3 16.5t9 5.5h5q15 -23 46 -23q20 0 32.5 13.5
t12.5 32.5q0 40 -46 40q-14 0 -25 -4l17 68q-88 7 -141 51.5t-53 108.5q0 51 25 77.5t63 26.5q21 0 36.5 -6.5t19.5 -12.5l5 -7q-35 -32 -35 -83q0 -46 31.5 -73.5t88.5 -27.5q66 0 106 35t40 85q0 38 -21 67t-71 57l-107 61q-115 66 -115 177q0 88 71.5 150.5t196.5 62.5
q106 0 171.5 -47.5t65.5 -122.5q0 -52 -26 -81.5t-72 -29.5q-21 0 -37.5 6.5t-22.5 12.5l-6 7q2 1 5.5 3.5t12 11t15 19t12 29t5.5 38.5q0 44 -31.5 71.5t-92.5 27.5z" />
    <glyph glyph-name="scedilla" unicode="&#x15f;" horiz-adv-x="456" 
d="M159 324l86 -45q53 -28 76 -59.5t23 -72.5q0 -56 -42.5 -96t-124.5 -49l-7 -27q36 -2 56.5 -23.5t20.5 -56.5q0 -45 -32.5 -75.5t-81.5 -30.5q-34 0 -57.5 18t-27.5 45q-1 11 3 16.5t9 5.5h5q15 -23 46 -23q20 0 32.5 13.5t12.5 32.5q0 40 -46 40q-14 0 -25 -4l17 68
q-74 6 -113 41t-39 76q0 27 19.5 43.5t46.5 16.5q15 0 27 -3.5t17 -6.5l4 -4q-5 -11 -5 -29q0 -38 21 -61t62 -24q41 0 62.5 18t21.5 45q0 37 -49 63l-98 52q-42 23 -64.5 51t-22.5 74q0 64 55 105.5t157 41.5q86 0 134 -37t48 -81q0 -27 -19.5 -43.5t-46.5 -16.5
q-15 0 -27 3.5t-17 6.5l-4 4q5 11 5 29q0 37 -22.5 61t-62.5 24t-61 -17.5t-21 -45.5q0 -38 49 -63z" />
    <glyph glyph-name="Scaron" unicode="&#x160;" horiz-adv-x="601" 
d="M353 695q-62 0 -100.5 -33.5t-38.5 -88.5q0 -67 70 -108l127 -74q117 -69 117 -179q0 -88 -74.5 -150t-205.5 -62q-102 0 -165 45.5t-63 115.5q0 51 25 77.5t63 26.5q21 0 36.5 -6.5t19.5 -12.5l5 -7q-35 -32 -35 -83q0 -46 31.5 -73.5t88.5 -27.5q66 0 106 35t40 85
q0 38 -21 67t-71 57l-107 61q-115 66 -115 177q0 88 71.5 150.5t196.5 62.5q106 0 171.5 -47.5t65.5 -122.5q0 -52 -26 -81.5t-72 -29.5q-21 0 -37.5 6.5t-22.5 12.5l-6 7q2 1 5.5 3.5t12 11t15 19t12 29t5.5 38.5q0 44 -31.5 71.5t-92.5 27.5zM343 968l37 -63l74 78
q25 25 55 25q12 0 21 -2t12 -4l4 -1l-128 -163q-16 -8 -42 -8q-30 0 -47 9t-29 31l-74 131q21 7 37 7q33 0 50 -9t30 -31z" />
    <glyph glyph-name="scaron" unicode="&#x161;" horiz-adv-x="456" 
d="M159 324l86 -45q53 -28 76 -59.5t23 -72.5q0 -63 -54.5 -105t-157.5 -42q-88 0 -135 36.5t-47 81.5q0 27 19.5 43.5t46.5 16.5q15 0 27 -3.5t17 -6.5l4 -4q-5 -11 -5 -29q0 -38 21 -61t62 -24q41 0 62.5 18t21.5 45q0 37 -49 63l-98 52q-42 23 -64.5 51t-22.5 74
q0 64 55 105.5t157 41.5q86 0 134 -37t48 -81q0 -27 -19.5 -43.5t-46.5 -16.5q-15 0 -27 3.5t-17 6.5l-4 4q5 11 5 29q0 37 -22.5 61t-62.5 24t-61 -17.5t-21 -45.5q0 -38 49 -63zM183 718l37 -63l74 78q25 25 55 25q12 0 21 -2t12 -4l4 -1l-128 -163q-16 -8 -42 -8
q-30 0 -47 9t-29 31l-74 131q21 7 37 7q33 0 50 -9t30 -31z" />
    <glyph glyph-name="Tcommaaccent" unicode="&#x162;" horiz-adv-x="642" 
d="M205 -137q0 30 20.5 51t49.5 21t47 -19t18 -51q0 -51 -37.5 -104.5t-71.5 -53.5q-12 0 -18.5 6.5t-6.5 14.5q33 30 41 77q-42 11 -42 58zM245 750q47 0 165 -11.5t227 -11.5q26 0 49.5 4t33.5 8l11 4q11 -11 11 -33q0 -42 -29.5 -68t-91.5 -26q-21 0 -37.5 1.5t-36 6
t-27.5 6.5t-33.5 10l-31.5 10l-95 -545q-5 -31 -5.5 -55t1.5 -32l3 -8q-16 -10 -57 -10q-54 0 -69.5 24.5t-5.5 84.5l94 537l5 39q-52 10 -83 10q-65 0 -102.5 -31.5t-37.5 -76.5q0 -21 10.5 -33.5t29.5 -12.5l17 3q1 -3 1 -9q0 -21 -20.5 -38.5t-55.5 -17.5
q-48 0 -76.5 27.5t-28.5 72.5q0 77 68 124t197 47z" />
    <glyph glyph-name="tcommaaccent" unicode="&#x163;" horiz-adv-x="298" 
d="M-6 500h47l10 54q5 28 5.5 49.5t-2.5 28.5l-2 8q15 9 52 9q55 0 69.5 -22t4.5 -77l-9 -50h99q7 -8 7 -21q0 -29 -34 -29h-81l-48 -275q-8 -42 7 -65t50 -23q74 0 120 87q24 0 18 -26q-13 -51 -69 -99.5t-122 -48.5q-57 0 -94.5 36.5t-37.5 95.5q0 45 11 107l37 211h-65
q-7 8 -7 21q0 29 34 29zM44 -137q0 30 20.5 51t49.5 21t47 -19t18 -51q0 -51 -37.5 -104.5t-71.5 -53.5q-12 0 -18.5 6.5t-6.5 14.5q33 30 41 77q-42 11 -42 58z" />
    <glyph glyph-name="Tcaron" unicode="&#x164;" horiz-adv-x="642" 
d="M397 968l37 -63l74 78q25 25 55 25q12 0 21 -2t12 -4l4 -1l-128 -163q-16 -8 -42 -8q-30 0 -47 9t-29 31l-74 131q21 7 37 7q33 0 50 -9t30 -31zM245 750q47 0 165 -11.5t227 -11.5q26 0 49.5 4t33.5 8l11 4q11 -11 11 -33q0 -42 -29.5 -68t-91.5 -26q-21 0 -37.5 1.5
t-36 6t-27.5 6.5t-33.5 10l-31.5 10l-95 -545q-5 -31 -5.5 -55t1.5 -32l3 -8q-16 -10 -57 -10q-54 0 -69.5 24.5t-5.5 84.5l94 537l5 39q-52 10 -83 10q-65 0 -102.5 -31.5t-37.5 -76.5q0 -21 10.5 -33.5t29.5 -12.5l17 3q1 -3 1 -9q0 -21 -20.5 -38.5t-55.5 -17.5
q-48 0 -76.5 27.5t-28.5 72.5q0 77 68 124t197 47z" />
    <glyph glyph-name="tcaron" unicode="&#x165;" horiz-adv-x="360" 
d="M280 678q0 30 20.5 51t49.5 21t47 -19t18 -51q0 -51 -37.5 -104.5t-71.5 -53.5q-12 0 -18.5 6.5t-6.5 14.5q33 30 41 77q-42 11 -42 58zM-6 500h47l10 54q5 28 5.5 49.5t-2.5 28.5l-2 8q15 9 52 9q55 0 69.5 -22t4.5 -77l-9 -50h99q7 -8 7 -21q0 -29 -34 -29h-81
l-48 -275q-8 -42 7 -65t50 -23q74 0 120 87q24 0 18 -26q-13 -51 -69 -99.5t-122 -48.5q-57 0 -94.5 36.5t-37.5 95.5q0 45 11 107l37 211h-65q-7 8 -7 21q0 29 34 29z" />
    <glyph glyph-name="Umacron" unicode="&#x16a;" horiz-adv-x="793" 
d="M377 641l-81 -460q-9 -51 -1.5 -72.5t32.5 -21.5q33 0 73 60q123 185 182 499q6 31 6 54.5t-2 31.5l-3 8q16 10 57 10q54 0 69.5 -24.5t5.5 -84.5l-82 -471q-14 -83 45 -83q32 0 61 28.5t44 58.5q22 0 19 -26q-7 -50 -61.5 -99t-119.5 -49q-54 0 -87 33.5t-33 90.5
q0 51 9 111q-34 -73 -67 -128q-65 -107 -163 -107q-54 0 -86.5 34t-32.5 90q0 46 10 106l73 416q5 33 5 49h-10q-65 0 -100.5 -31t-35.5 -77q0 -21 10.5 -33.5t29.5 -12.5l17 3q1 -3 1 -9q0 -21 -20.5 -38.5t-55.5 -17.5q-48 0 -76.5 27.5t-28.5 72.5q0 76 67 123.5
t185 47.5h70q54 0 70 -25t5 -84zM601 849h-212q-18 0 -31.5 -2.5t-18.5 -4.5l-5 -2q-8 7 -8 26q0 64 83 64h212q18 0 31.5 2t18.5 4l5 3q8 -7 8 -26q0 -64 -83 -64z" />
    <glyph glyph-name="umacron" unicode="&#x16b;" horiz-adv-x="561" 
d="M274 125q0 20 1 34q-22 -43 -45 -74q-63 -85 -141 -85q-50 0 -79.5 32t-29.5 84q0 54 12 123l29 166q5 28 5 49.5t-2 29.5l-2 7q15 9 52 9q55 0 69.5 -22t4.5 -77l-40 -231q-15 -83 33 -83q30 0 74 67q33 50 61.5 123t39.5 138q4 24 4 43t-2 26l-2 7q15 9 52 9
q55 0 69.5 -22t4.5 -77l-39 -226q-15 -88 43 -88q26 0 56 24t49 63q23 0 19 -26q-9 -47 -61 -97.5t-118 -50.5q-53 0 -85 33t-32 92zM350 599h-212q-18 0 -31.5 -2.5t-18.5 -4.5l-5 -2q-8 7 -8 26q0 64 83 64h212q18 0 31.5 2t18.5 4l5 3q8 -7 8 -26q0 -64 -83 -64z" />
    <glyph glyph-name="Uring" unicode="&#x16e;" horiz-adv-x="793" 
d="M377 641l-81 -460q-9 -51 -1.5 -72.5t32.5 -21.5q33 0 73 60q123 185 182 499q6 31 6 54.5t-2 31.5l-3 8q16 10 57 10q54 0 69.5 -24.5t5.5 -84.5l-82 -471q-14 -83 45 -83q32 0 61 28.5t44 58.5q22 0 19 -26q-7 -50 -61.5 -99t-119.5 -49q-54 0 -87 33.5t-33 90.5
q0 51 9 111q-34 -73 -67 -128q-65 -107 -163 -107q-54 0 -86.5 34t-32.5 90q0 46 10 106l73 416q5 33 5 49h-10q-65 0 -100.5 -31t-35.5 -77q0 -21 10.5 -33.5t29.5 -12.5l17 3q1 -3 1 -9q0 -21 -20.5 -38.5t-55.5 -17.5q-48 0 -76.5 27.5t-28.5 72.5q0 76 67 123.5
t185 47.5h70q54 0 70 -25t5 -84zM398 900q0 46 31.5 77.5t74.5 31.5q41 0 67 -26.5t26 -66.5q0 -43 -30.5 -74.5t-78.5 -31.5q-39 0 -64.5 25.5t-25.5 64.5zM455 905q0 -17 11 -28.5t27 -11.5q21 0 33.5 14t12.5 34q0 17 -10 28.5t-28 11.5q-20 0 -33 -14t-13 -34z" />
    <glyph glyph-name="uring" unicode="&#x16f;" horiz-adv-x="561" 
d="M274 125q0 20 1 34q-22 -43 -45 -74q-63 -85 -141 -85q-50 0 -79.5 32t-29.5 84q0 54 12 123l29 166q5 28 5 49.5t-2 29.5l-2 7q15 9 52 9q55 0 69.5 -22t4.5 -77l-40 -231q-15 -83 33 -83q30 0 74 67q33 50 61.5 123t39.5 138q4 24 4 43t-2 26l-2 7q15 9 52 9
q55 0 69.5 -22t4.5 -77l-39 -226q-15 -88 43 -88q26 0 56 24t49 63q23 0 19 -26q-9 -47 -61 -97.5t-118 -50.5q-53 0 -85 33t-32 92zM156 650q0 46 31.5 77.5t74.5 31.5q41 0 67 -26.5t26 -66.5q0 -43 -30.5 -74.5t-78.5 -31.5q-39 0 -64.5 25.5t-25.5 64.5zM213 655
q0 -17 11 -28.5t27 -11.5q21 0 33.5 14t12.5 34q0 17 -10 28.5t-28 11.5q-20 0 -33 -14t-13 -34z" />
    <glyph glyph-name="Uhungarumlaut" unicode="&#x170;" horiz-adv-x="793" 
d="M377 641l-81 -460q-9 -51 -1.5 -72.5t32.5 -21.5q33 0 73 60q123 185 182 499q6 31 6 54.5t-2 31.5l-3 8q16 10 57 10q54 0 69.5 -24.5t5.5 -84.5l-82 -471q-14 -83 45 -83q32 0 61 28.5t44 58.5q22 0 19 -26q-7 -50 -61.5 -99t-119.5 -49q-54 0 -87 33.5t-33 90.5
q0 51 9 111q-34 -73 -67 -128q-65 -107 -163 -107q-54 0 -86.5 34t-32.5 90q0 46 10 106l73 416q5 33 5 49h-10q-65 0 -100.5 -31t-35.5 -77q0 -21 10.5 -33.5t29.5 -12.5l17 3q1 -3 1 -9q0 -21 -20.5 -38.5t-55.5 -17.5q-48 0 -76.5 27.5t-28.5 72.5q0 76 67 123.5
t185 47.5h70q54 0 70 -25t5 -84zM367 837l80 125q29 46 89 46q16 0 31 -2.5t22 -5.5l7 -2l-137 -143q-23 -25 -55 -25q-11 0 -20.5 2t-13.5 4zM539 837l80 125q29 46 89 46q16 0 31 -2.5t22 -5.5l7 -2l-137 -143q-23 -25 -55 -25q-11 0 -20.5 2t-13.5 4z" />
    <glyph glyph-name="uhungarumlaut" unicode="&#x171;" horiz-adv-x="561" 
d="M274 125q0 20 1 34q-22 -43 -45 -74q-63 -85 -141 -85q-50 0 -79.5 32t-29.5 84q0 54 12 123l29 166q5 28 5 49.5t-2 29.5l-2 7q15 9 52 9q55 0 69.5 -22t4.5 -77l-40 -231q-15 -83 33 -83q30 0 74 67q33 50 61.5 123t39.5 138q4 24 4 43t-2 26l-2 7q15 9 52 9
q55 0 69.5 -22t4.5 -77l-39 -226q-15 -88 43 -88q26 0 56 24t49 63q23 0 19 -26q-9 -47 -61 -97.5t-118 -50.5q-53 0 -85 33t-32 92zM118 587l80 125q29 46 89 46q16 0 31 -2.5t22 -5.5l7 -2l-137 -143q-23 -25 -55 -25q-11 0 -20.5 2t-12.5 4zM290 587l80 125q29 46 89 46
q16 0 31 -2.5t22 -5.5l7 -2l-137 -143q-23 -25 -55 -25q-11 0 -20.5 2t-12.5 4z" />
    <glyph glyph-name="Uogonek" unicode="&#x172;" horiz-adv-x="793" 
d="M377 641l-81 -460q-9 -51 -1.5 -72.5t32.5 -21.5q33 0 73 60q123 185 182 499q6 31 6 54.5t-2 31.5l-3 8q16 10 57 10q54 0 69.5 -24.5t5.5 -84.5l-82 -471q-14 -83 45 -83q32 0 61 28.5t44 58.5q22 0 19 -26q-5 -36 -38 -75t-78 -59q-75 -43 -75 -99q0 -44 45 -44
q15 0 27 5.5t16 11.5l4 6h5t8 -5.5t4 -16.5q-2 -26 -31.5 -48t-73.5 -22q-50 0 -77.5 26t-27.5 66q0 70 78 109q-40 10 -63.5 42t-23.5 79q0 51 9 111q-34 -73 -67 -128q-65 -107 -163 -107q-54 0 -86.5 34t-32.5 90q0 46 10 106l73 416q5 33 5 49h-10q-65 0 -100.5 -31
t-35.5 -77q0 -21 10.5 -33.5t29.5 -12.5l17 3q1 -3 1 -9q0 -21 -20.5 -38.5t-55.5 -17.5q-48 0 -76.5 27.5t-28.5 72.5q0 76 67 123.5t185 47.5h70q54 0 70 -25t5 -84z" />
    <glyph glyph-name="uogonek" unicode="&#x173;" horiz-adv-x="561" 
d="M274 125q0 20 1 34q-22 -43 -45 -74q-63 -85 -141 -85q-50 0 -79.5 32t-29.5 84q0 54 12 123l29 166q5 28 5 49.5t-2 29.5l-2 7q15 9 52 9q55 0 69.5 -22t4.5 -77l-40 -231q-15 -83 33 -83q30 0 74 67q33 50 61.5 123t39.5 138q4 24 4 43t-2 26l-2 7q15 9 52 9
q55 0 69.5 -22t4.5 -77l-39 -226q-15 -88 43 -88q26 0 56 24t49 63q23 0 19 -26q-7 -35 -40.5 -76.5t-80.5 -60.5q-71 -41 -71 -96q0 -44 45 -44q15 0 27 5.5t16 11.5l4 6h5t8 -5.5t4 -16.5q-2 -26 -31.5 -48t-73.5 -22q-50 0 -77.5 26t-27.5 66q0 70 79 110q-38 10 -60 41
t-22 80z" />
    <glyph glyph-name="Ydieresis" unicode="&#x178;" horiz-adv-x="684" 
d="M232 750h32q31 0 53 -15.5t29 -43.5l88 -362l14 21q154 230 154 364q0 10 -1.5 19t-2.5 13l-2 4q14 9 38 9q80 0 80 -67q0 -22 -9 -47.5t-31 -62l-40.5 -64.5t-58.5 -84l-64 -92l-60 -88l-26 -149q-5 -31 -5.5 -55t2.5 -32l2 -8q-16 -10 -57 -10q-54 0 -69.5 24.5
t-5.5 84.5l25 145l-106 439q-53 -6 -80.5 -35.5t-27.5 -70.5q0 -21 10.5 -33.5t29.5 -12.5l17 3q1 -3 1 -9q0 -21 -20.5 -38.5t-55.5 -17.5q-48 0 -76.5 27.5t-28.5 72.5q0 76 67 123.5t185 47.5zM510 920q0 28 18 46t45 18q24 0 39 -15.5t15 -38.5q0 -26 -18 -44.5
t-46 -18.5q-23 0 -38 15t-15 38zM335 920q0 27 18.5 45.5t44.5 18.5q24 0 39 -15.5t15 -38.5q0 -26 -18 -44.5t-46 -18.5q-23 0 -38 15t-15 38z" />
    <glyph glyph-name="Zacute" unicode="&#x179;" horiz-adv-x="585" 
d="M563 631l-374 -520q102 -6 185 -6q49 0 86.5 6.5t49.5 12.5l13 7q11 -12 11 -43q0 -40 -28.5 -64t-84.5 -24t-123 14t-106 28l-40 14q-4 -6 -12.5 -15.5t-37.5 -25t-62 -15.5q-36 0 -53 17t-17 42q0 24 17 41.5t50 18.5l377 520q-100 6 -183 6q-49 0 -86.5 -6.5
t-50.5 -12.5l-12 -7q-11 12 -11 43q0 40 28.5 64t84.5 24t123 -14t107 -28l39 -14q4 6 12.5 15.5t37.5 25t62 15.5q35 0 52.5 -17t17.5 -42t-18.5 -42.5t-53.5 -17.5zM314 837l80 125q29 46 89 46q16 0 31 -2.5t22 -5.5l7 -2l-137 -143q-23 -25 -55 -25q-11 0 -20.5 2
t-12.5 4z" />
    <glyph glyph-name="zacute" unicode="&#x17a;" horiz-adv-x="472" 
d="M185 587l80 125q29 46 89 46q16 0 31 -2.5t22 -5.5l7 -2l-137 -143q-23 -25 -55 -25q-11 0 -20.5 2t-13.5 4zM370 333q0 -114 -93 -197q-34 -31 -74 -50q22 -11 41 -30q63 24 125.5 58t92.5 60q10 0 15.5 -6.5t3.5 -16.5q-3 -13 -33 -36q-48 -37 -174 -101q22 -41 22 -96
q0 -106 -78 -187t-191 -81q-64 0 -95.5 27.5t-31.5 77.5q0 84 82 153q64 54 184 113q-4 26 -15 44q-30 -8 -53 -8q-39 0 -39 30q81 35 136.5 119.5t55.5 172.5q0 71 -69 71q-47 0 -89 -53t-42 -123l2 -19q-9 -5 -24 -5q-32 0 -51 18.5t-19 49.5q0 72 65.5 127t161.5 55
q91 0 137.5 -46t46.5 -121zM5 -284q64 0 114 73t50 170v7q-109 -54 -153 -98q-60 -58 -60 -107q0 -45 49 -45z" />
    <glyph glyph-name="Zdotaccent" unicode="&#x17b;" horiz-adv-x="585" 
d="M563 631l-374 -520q102 -6 185 -6q49 0 86.5 6.5t49.5 12.5l13 7q11 -12 11 -43q0 -40 -28.5 -64t-84.5 -24t-123 14t-106 28l-40 14q-4 -6 -12.5 -15.5t-37.5 -25t-62 -15.5q-36 0 -53 17t-17 42q0 24 17 41.5t50 18.5l377 520q-100 6 -183 6q-49 0 -86.5 -6.5
t-50.5 -12.5l-12 -7q-11 12 -11 43q0 40 28.5 64t84.5 24t123 -14t107 -28l39 -14q4 6 12.5 15.5t37.5 25t62 15.5q35 0 52.5 -17t17.5 -42t-18.5 -42.5t-53.5 -17.5zM331 900q0 28 18.5 46t44.5 18q24 0 39 -15.5t15 -38.5q0 -26 -18 -44.5t-46 -18.5q-23 0 -38 15t-15 38z
" />
    <glyph glyph-name="zdotaccent" unicode="&#x17c;" horiz-adv-x="472" 
d="M182 650q0 28 18 46t45 18q24 0 39 -15.5t15 -38.5q0 -26 -18 -44.5t-46 -18.5q-23 0 -38 15t-15 38zM370 333q0 -114 -93 -197q-34 -31 -74 -50q22 -11 41 -30q63 24 125.5 58t92.5 60q10 0 15.5 -6.5t3.5 -16.5q-3 -13 -33 -36q-48 -37 -174 -101q22 -41 22 -96
q0 -106 -78 -187t-191 -81q-64 0 -95.5 27.5t-31.5 77.5q0 84 82 153q64 54 184 113q-4 26 -15 44q-30 -8 -53 -8q-39 0 -39 30q81 35 136.5 119.5t55.5 172.5q0 71 -69 71q-47 0 -89 -53t-42 -123l2 -19q-9 -5 -24 -5q-32 0 -51 18.5t-19 49.5q0 72 65.5 127t161.5 55
q91 0 137.5 -46t46.5 -121zM5 -284q64 0 114 73t50 170v7q-109 -54 -153 -98q-60 -58 -60 -107q0 -45 49 -45z" />
    <glyph glyph-name="Zcaron" unicode="&#x17d;" horiz-adv-x="585" 
d="M563 631l-374 -520q102 -6 185 -6q49 0 86.5 6.5t49.5 12.5l13 7q11 -12 11 -43q0 -40 -28.5 -64t-84.5 -24t-123 14t-106 28l-40 14q-4 -6 -12.5 -15.5t-37.5 -25t-62 -15.5q-36 0 -53 17t-17 42q0 24 17 41.5t50 18.5l377 520q-100 6 -183 6q-49 0 -86.5 -6.5
t-50.5 -12.5l-12 -7q-11 12 -11 43q0 40 28.5 64t84.5 24t123 -14t107 -28l39 -14q4 6 12.5 15.5t37.5 25t62 15.5q35 0 52.5 -17t17.5 -42t-18.5 -42.5t-53.5 -17.5zM364 968l37 -63l74 78q25 25 55 25q12 0 21 -2t13 -4l3 -1l-128 -163q-16 -8 -42 -8q-30 0 -47 9t-29 31
l-74 131q21 7 37 7q33 0 50 -9t30 -31z" />
    <glyph glyph-name="zcaron" unicode="&#x17e;" horiz-adv-x="472" 
d="M205 718l37 -63l74 78q25 25 55 25q12 0 21 -2t12 -4l4 -1l-128 -163q-16 -8 -42 -8q-30 0 -47 9t-29 31l-74 131q21 7 37 7q33 0 50 -9t30 -31zM370 333q0 -114 -93 -197q-34 -31 -74 -50q22 -11 41 -30q63 24 125.5 58t92.5 60q10 0 15.5 -6.5t3.5 -16.5
q-3 -13 -33 -36q-48 -37 -174 -101q22 -41 22 -96q0 -106 -78 -187t-191 -81q-64 0 -95.5 27.5t-31.5 77.5q0 84 82 153q64 54 184 113q-4 26 -15 44q-30 -8 -53 -8q-39 0 -39 30q81 35 136.5 119.5t55.5 172.5q0 71 -69 71q-47 0 -89 -53t-42 -123l2 -19q-9 -5 -24 -5
q-32 0 -51 18.5t-19 49.5q0 72 65.5 127t161.5 55q91 0 137.5 -46t46.5 -121zM5 -284q64 0 114 73t50 170v7q-109 -54 -153 -98q-60 -58 -60 -107q0 -45 49 -45z" />
    <glyph glyph-name="florin" unicode="&#x192;" horiz-adv-x="369" 
d="M268 640l-24 -140h100q7 -8 7 -21q0 -29 -34 -29h-82l-107 -608q-34 -192 -200 -192q-61 0 -94.5 30t-33.5 79q0 42 24.5 67t63.5 25q16 0 28.5 -6t16.5 -12l4 -6q-5 -3 -11.5 -9t-18 -28t-11.5 -46q0 -44 35 -44q46 0 65 113l111 637h-64q-7 8 -7 21q0 29 34 29h46
l17 98q39 232 219 232q66 0 101.5 -33t35.5 -80q0 -46 -24.5 -75t-63.5 -29q-16 0 -28.5 6t-16.5 12l-4 6q41 41 41 99q0 44 -39 44q-27 0 -50.5 -33t-35.5 -107z" />
    <glyph glyph-name="Scommaaccent" unicode="&#x218;" horiz-adv-x="601" 
d="M353 695q-62 0 -100.5 -33.5t-38.5 -88.5q0 -67 70 -108l127 -74q117 -69 117 -179q0 -88 -74.5 -150t-205.5 -62q-102 0 -165 45.5t-63 115.5q0 51 25 77.5t63 26.5q21 0 36.5 -6.5t19.5 -12.5l5 -7q-35 -32 -35 -83q0 -46 31.5 -73.5t88.5 -27.5q66 0 106 35t40 85
q0 38 -21 67t-71 57l-107 61q-115 66 -115 177q0 88 71.5 150.5t196.5 62.5q106 0 171.5 -47.5t65.5 -122.5q0 -52 -26 -81.5t-72 -29.5q-21 0 -37.5 6.5t-22.5 12.5l-6 7q2 1 5.5 3.5t12 11t15 19t12 29t5.5 38.5q0 44 -31.5 71.5t-92.5 27.5zM180 -137q0 30 20.5 51
t49.5 21t47 -19t18 -51q0 -51 -37.5 -104.5t-71.5 -53.5q-12 0 -18.5 6.5t-6.5 14.5q33 30 41 77q-42 11 -42 58z" />
    <glyph glyph-name="scommaaccent" unicode="&#x219;" horiz-adv-x="456" 
d="M159 324l86 -45q53 -28 76 -59.5t23 -72.5q0 -63 -54.5 -105t-157.5 -42q-88 0 -135 36.5t-47 81.5q0 27 19.5 43.5t46.5 16.5q15 0 27 -3.5t17 -6.5l4 -4q-5 -11 -5 -29q0 -38 21 -61t62 -24q41 0 62.5 18t21.5 45q0 37 -49 63l-98 52q-42 23 -64.5 51t-22.5 74
q0 64 55 105.5t157 41.5q86 0 134 -37t48 -81q0 -27 -19.5 -43.5t-46.5 -16.5q-15 0 -27 3.5t-17 6.5l-4 4q5 11 5 29q0 37 -22.5 61t-62.5 24t-61 -17.5t-21 -45.5q0 -38 49 -63zM64 -137q0 30 20.5 51t49.5 21t47 -19t18 -51q0 -51 -37.5 -104.5t-71.5 -53.5
q-12 0 -18.5 6.5t-6.5 14.5q33 30 41 77q-42 11 -42 58z" />
    <glyph glyph-name="afii57929" unicode="&#x2bc;" horiz-adv-x="205" 
d="M70 678q0 30 20.5 51t49.5 21t47 -19t18 -51q0 -51 -37.5 -104.5t-71.5 -53.5q-12 0 -18.5 6.5t-6.5 14.5q33 30 41 77q-42 11 -42 58z" />
    <glyph glyph-name="circumflex" unicode="&#x2c6;" horiz-adv-x="390" 
d="M273 620l-37 63l-74 -78q-25 -25 -55 -25q-12 0 -21 2t-12 4l-4 1l128 163q16 8 42 8q30 0 47 -9t29 -31l74 -131q-21 -7 -37 -7q-33 0 -50 9t-30 31z" />
    <glyph glyph-name="caron" unicode="&#x2c7;" horiz-adv-x="390" 
d="M187 718l37 -63l74 78q25 25 55 25q12 0 21 -2t12 -4l4 -1l-128 -163q-16 -8 -42 -8q-30 0 -47 9t-29 31l-74 131q21 7 37 7q33 0 50 -9t30 -31z" />
    <glyph glyph-name="breve" unicode="&#x2d8;" horiz-adv-x="349" 
d="M225 666q34 0 59.5 12.5t33.5 25.5l8 12q26 0 22 -26q-5 -42 -47.5 -76t-106.5 -34q-56 0 -90 30t-34 77q0 29 15.5 47.5t34.5 18.5l19 -4q-10 -36 16 -59.5t70 -23.5z" />
    <glyph glyph-name="dotaccent" unicode="&#x2d9;" horiz-adv-x="187" 
d="M70 650q0 28 18 46t45 18q24 0 39 -15.5t15 -38.5q0 -26 -18 -44.5t-46 -18.5q-23 0 -38 15t-15 38z" />
    <glyph glyph-name="ring" unicode="&#x2da;" horiz-adv-x="269" 
d="M70 650q0 46 31.5 77.5t74.5 31.5q41 0 67 -26.5t26 -66.5q0 -43 -30.5 -74.5t-78.5 -31.5q-39 0 -64.5 25.5t-25.5 64.5zM127 655q0 -17 11 -28.5t27 -11.5q21 0 33.5 14t12.5 34q0 17 -10 28.5t-28 11.5q-20 0 -33 -14t-13 -34z" />
    <glyph glyph-name="ogonek" unicode="&#x2db;" horiz-adv-x="271" 
d="M106 16h74q-3 -2 -8.5 -5t-19 -13t-24 -21t-19 -28t-8.5 -34q0 -44 45 -44q15 0 27 5.5t16 11.5l4 6h5t8 -5.5t4 -16.5q-2 -26 -31.5 -48t-73.5 -22q-50 0 -77.5 26t-27.5 66q0 39 26.5 69.5t53.5 41.5z" />
    <glyph glyph-name="tilde" unicode="&#x2dc;" horiz-adv-x="422" 
d="M306 590q-37 0 -74.5 27t-61.5 27q-27 0 -46 -13.5t-24 -26.5l-6 -14q-24 0 -23 31q2 43 35 75t80 32q37 0 75 -27t61 -27q27 0 46 13.5t24 26.5l6 14q24 0 23 -31q-2 -43 -35 -75t-80 -32z" />
    <glyph glyph-name="hungarumlaut" unicode="&#x2dd;" horiz-adv-x="471" 
d="M70 587l80 125q29 46 89 46q16 0 31 -2.5t22 -5.5l7 -2l-137 -143q-23 -25 -55 -25q-11 0 -20.5 2t-12.5 4zM242 587l80 125q29 46 89 46q16 0 31 -2.5t22 -5.5l7 -2l-137 -143q-23 -25 -55 -25q-11 0 -20.5 2t-12.5 4z" />
    <glyph glyph-name="afii10023" unicode="&#x401;" horiz-adv-x="580" 
d="M434 900q0 28 18 46t45 18q24 0 39 -15.5t15 -38.5q0 -26 -18 -44.5t-46 -18.5q-23 0 -38 15t-15 38zM259 900q0 27 18.5 45.5t44.5 18.5q24 0 39 -15.5t15 -38.5q0 -26 -18 -44.5t-46 -18.5q-23 0 -38 15t-15 38zM389 695q-57 0 -97 -48.5t-40 -115.5q0 -53 27 -87
t90 -31q1 -4 1 -11q0 -38 -53 -38h-23q-59 -14 -92.5 -54.5t-33.5 -92.5q0 -60 45 -97t141 -37q88 0 152.5 28t94.5 63q22 0 17 -22q-10 -49 -109 -100.5t-220 -51.5q-118 0 -188.5 50.5t-70.5 139.5q0 68 48 121t132 75q-46 22 -71 60.5t-25 86.5q0 94 74.5 155.5
t189.5 61.5q95 0 148 -45t53 -111q0 -50 -25 -80.5t-72 -30.5q-19 0 -34.5 6t-21.5 12l-5 6q5 5 12.5 13.5t20 37t12.5 59.5q0 78 -77 78z" />
    <glyph glyph-name="afii10051" unicode="&#x402;" horiz-adv-x="772" 
d="M712 316l-23 -132q-32 -184 -186 -184q-37 0 -57.5 14.5t-24.5 34.5q-3 12 1.5 18.5t9.5 6.5l6 1q13 -23 41 -23t46.5 21.5t29.5 79.5l32 178q15 81 -40 81q-47 0 -108 -98t-79 -209q-5 -31 -5 -55t2 -32l2 -8q-16 -10 -57 -10q-54 0 -69.5 24.5t-5.5 84.5l94 537
q3 15 5 39q-52 10 -83 10q-66 0 -103 -31.5t-37 -76.5q0 -21 10.5 -33.5t29.5 -12.5l17 3q1 -3 1 -9q0 -21 -20.5 -38.5t-55.5 -17.5q-48 0 -76.5 27.5t-28.5 72.5q0 77 68 124t197 47q46 0 165 -11.5t227 -11.5q26 0 49.5 4t33.5 8l11 4q11 -11 11 -33q0 -42 -29.5 -68
t-91.5 -26q-21 0 -37.5 1.5t-36 6t-27.5 6.5t-33.5 10l-31.5 10l-51 -293q92 143 202 143q70 0 96 -44.5t10 -139.5z" />
    <glyph glyph-name="afii10052" unicode="&#x403;" horiz-adv-x="623" 
d="M356 837l80 125q29 46 89 46q16 0 31 -2.5t22 -5.5l7 -2l-137 -143q-23 -25 -55 -25q-11 0 -20.5 2t-12.5 4zM253 750q41 0 148.5 -11.5t216.5 -11.5q26 0 49.5 4t34.5 8l10 4q11 -11 11 -33q0 -42 -29.5 -68t-91.5 -26q-34 0 -68 6t-52.5 11.5t-53.5 19t-47 17.5
l-99 -565q-5 -31 -5.5 -55t1.5 -32l3 -8q-16 -10 -57 -10q-54 0 -69.5 24.5t-5.5 84.5l94 537q5 33 5 49h-9q-65 0 -100.5 -31t-35.5 -77q0 -21 10.5 -33.5t29.5 -12.5l17 3q1 -3 1 -9q0 -21 -20.5 -38.5t-55.5 -17.5q-48 0 -76.5 27.5t-28.5 72.5q0 78 68.5 124.5
t204.5 46.5z" />
    <glyph glyph-name="afii10053" unicode="&#x404;" horiz-adv-x="645" 
d="M405 83q75 0 141.5 25.5t100.5 65.5q20 0 17 -22q-9 -47 -102 -99.5t-210 -52.5q-130 0 -216 83.5t-86 223.5q0 199 107.5 321t262.5 122q93 0 139.5 -42t46.5 -109q0 -54 -31 -90t-78 -36q-22 0 -38.5 8.5t-22.5 16.5l-5 9q3 1 7 3t14.5 11t19 20.5t15 32.5t6.5 45
q0 36 -19.5 56t-55.5 20q-71 0 -134.5 -77.5t-89.5 -208.5h233q7 -13 7 -26q0 -29 -34 -29h-211v-26q0 -118 56.5 -181.5t159.5 -63.5z" />
    <glyph glyph-name="afii10054" unicode="&#x405;" horiz-adv-x="601" 
d="M353 695q-62 0 -100.5 -33.5t-38.5 -88.5q0 -67 70 -108l127 -74q117 -69 117 -179q0 -88 -74.5 -150t-205.5 -62q-102 0 -165 45.5t-63 115.5q0 51 25 77.5t63 26.5q21 0 36.5 -6.5t19.5 -12.5l5 -7q-35 -32 -35 -83q0 -46 31.5 -73.5t88.5 -27.5q66 0 106 35t40 85
q0 38 -21 67t-71 57l-107 61q-115 66 -115 177q0 88 71.5 150.5t196.5 62.5q106 0 171.5 -47.5t65.5 -122.5q0 -52 -26 -81.5t-72 -29.5q-21 0 -37.5 6.5t-22.5 12.5l-6 7q2 1 5.5 3.5t12 11t15 19t12 29t5.5 38.5q0 44 -31.5 71.5t-92.5 27.5z" />
    <glyph glyph-name="afii10055" unicode="&#x406;" horiz-adv-x="442" 
d="M232 750h70q54 0 69.5 -24.5t5.5 -84.5l-94 -536q-5 -31 -5.5 -55t2.5 -32l2 -8q-16 -10 -57 -10q-54 0 -69.5 24.5t-5.5 84.5l94 537q5 33 5 49h-10q-65 0 -100.5 -31t-35.5 -77q0 -21 10.5 -33.5t29.5 -12.5l17 3q1 -3 1 -9q0 -21 -20.5 -38.5t-55.5 -17.5
q-48 0 -76.5 27.5t-28.5 72.5q0 76 67 123.5t185 47.5z" />
    <glyph glyph-name="afii10056" unicode="&#x407;" horiz-adv-x="442" 
d="M232 750h70q54 0 69.5 -24.5t5.5 -84.5l-94 -536q-5 -31 -5.5 -55t2.5 -32l2 -8q-16 -10 -57 -10q-54 0 -69.5 24.5t-5.5 84.5l94 537q5 33 5 49h-10q-65 0 -100.5 -31t-35.5 -77q0 -21 10.5 -33.5t29.5 -12.5l17 3q1 -3 1 -9q0 -21 -20.5 -38.5t-55.5 -17.5
q-48 0 -76.5 27.5t-28.5 72.5q0 76 67 123.5t185 47.5zM365 900q0 28 18.5 46t44.5 18q24 0 39 -15.5t15 -38.5q0 -26 -18 -44.5t-46 -18.5q-23 0 -38 15t-15 38zM190 900q0 27 18.5 45.5t44.5 18.5q24 0 39 -15.5t15 -38.5q0 -26 -18 -44.5t-46 -18.5q-23 0 -38 15t-15 38z
" />
    <glyph glyph-name="afii10057" unicode="&#x408;" horiz-adv-x="484" 
d="M274 750h70q54 0 70 -25t5 -84l-101 -575q-36 -206 -229 -206q-71 0 -110 32t-39 83q0 36 21 55.5t59 19.5q12 0 21 -1.5t13 -2.5l3 -2q-17 -33 -17 -71q0 -28 13.5 -43t37.5 -15q66 0 89 128l106 603q5 32 5 49h-10q-65 0 -100.5 -31t-35.5 -77q0 -21 10.5 -33.5
t29.5 -12.5l17 3q1 -3 1 -9q0 -21 -20.5 -38.5t-55.5 -17.5q-48 0 -76.5 27.5t-28.5 72.5q0 76 67 123.5t185 47.5z" />
    <glyph glyph-name="afii10058" unicode="&#x409;" horiz-adv-x="895" 
d="M154 310l91 253q36 100 91.5 143.5t160.5 43.5q58 0 74 -24.5t6 -84.5l-34 -191q38 10 87 10q106 0 165.5 -51.5t59.5 -143.5q0 -110 -82 -187.5t-227 -77.5q-130 0 -176 50q-17 18 -17 53q0 23 5 50l86 493q5 33 5 49q-93 0 -140 -130l-135 -374q-42 -115 -75 -153
t-79 -38q-31 0 -50.5 21t-19.5 56q0 16 3.5 28.5t6.5 16.5l4 5q11 -8 35 -8q86 0 155 191zM533 394l-45 -260q-9 -48 -5 -77q24 -2 42 -2q85 0 137.5 59.5t52.5 150.5q0 67 -31.5 102t-91.5 35q-25 0 -59 -8z" />
    <glyph glyph-name="afii10059" unicode="&#x40a;" horiz-adv-x="1022" 
d="M495 153l41 232h-203l-50 -280q-5 -30 -5.5 -53.5t2.5 -32.5l2 -9q-16 -10 -57 -10q-54 0 -69.5 25t-5.5 84l94 537q5 33 5 49h-10q-65 0 -100.5 -31t-35.5 -77q0 -21 10.5 -33.5t29.5 -12.5l17 3q1 -3 1 -9q0 -21 -20.5 -38.5t-55.5 -17.5q-48 0 -76.5 27.5t-28.5 72.5
q0 76 67 123.5t185 47.5h70q54 0 69.5 -24.5t5.5 -84.5l-34 -201h203l35 206q5 31 5.5 54.5t-2.5 31.5l-2 8q16 10 57 10q54 0 69.5 -24.5t5.5 -84.5l-34 -191q38 10 87 10q106 0 165.5 -51.5t59.5 -143.5q0 -110 -82 -187.5t-227 -77.5q-133 0 -176 50q-17 18 -17 53
q0 23 5 50zM670 394l-45 -260q-9 -48 -5 -77q24 -2 42 -2q85 0 137.5 59.5t52.5 150.5q0 67 -31.5 102t-91.5 35q-25 0 -59 -8z" />
    <glyph glyph-name="afii10060" unicode="&#x40b;" horiz-adv-x="825" 
d="M552 239l19 110q11 63 -24 63q-48 0 -107.5 -97t-81.5 -220q-5 -31 -4.5 -50t2.5 -27l3 -8q-20 -10 -57 -10q-53 0 -69.5 25t-5.5 84l94 537l5 39q-55 10 -83 10q-65 0 -102.5 -31.5t-37.5 -76.5q0 -21 10.5 -33.5t29.5 -12.5l17 3q1 -3 1 -9q0 -21 -20.5 -38.5
t-55.5 -17.5q-48 0 -76.5 27.5t-28.5 72.5q0 77 68.5 124t196.5 47q53 0 168.5 -11.5t223.5 -11.5q26 0 49.5 4t33.5 8l11 4q11 -11 11 -33q0 -42 -29.5 -68t-91.5 -26q-21 0 -37.5 1.5t-36 6t-27.5 6.5t-33.5 10l-31.5 10l-52 -295q35 59 86 102t110 43q47 0 75 -28t28 -75
q0 -27 -9 -81l-24 -141q-16 -88 41 -88q62 0 105 87q23 0 19 -26q-9 -47 -60.5 -97.5t-115.5 -50.5q-56 0 -88.5 34t-32.5 91q0 26 15 114z" />
    <glyph glyph-name="afii10061" unicode="&#x40c;" horiz-adv-x="749" 
d="M598 0q-52 0 -83 31t-47 93l-40 155q-9 34 -24 49.5t-44 15.5h-36l-42 -239q-5 -31 -5.5 -55t1.5 -32l3 -8q-16 -10 -57 -10q-54 0 -69.5 24.5t-5.5 84.5l94 537q5 33 5 49h-9q-65 0 -100.5 -31t-35.5 -77q0 -21 10.5 -33.5t29.5 -12.5l17 3q1 -3 1 -9q0 -21 -20.5 -38.5
t-55.5 -17.5q-48 0 -76.5 27.5t-28.5 72.5q0 76 67 123.5t185 47.5h69q54 0 70 -25t5 -84l-43 -242h32q61 0 119 105l66 120q37 67 70.5 96.5t73.5 29.5t62 -21t22 -59q0 -24 -10 -42.5t-20 -25.5l-11 -7q0 2 -1.5 5t-5.5 10t-10 13t-17.5 10.5t-24.5 4.5q-61 0 -104 -82
l-35 -67q-43 -82 -79 -99q75 -7 96 -86l39 -142q11 -40 25 -57.5t37 -17.5q30 0 59.5 30t42.5 57q22 0 19 -26q-6 -47 -61 -97.5t-119 -50.5zM460 837l80 125q29 46 89 46q16 0 31 -2.5t22 -5.5l7 -2l-137 -143q-23 -25 -55 -25q-11 0 -20.5 2t-12.5 4z" />
    <glyph glyph-name="afii10062" unicode="&#x40e;" horiz-adv-x="749" 
d="M582 653q5 28 5 49.5t-3 29.5l-2 8q16 10 57 10q54 0 69.5 -25t5.5 -84l-66 -376q-26 -145 -98 -205t-193 -60q-82 0 -131 31q-44 27 -44 71q0 29 18.5 46.5t53.5 17.5q14 0 25.5 -2t16.5 -4l4 -2q-6 -18 -6 -40q0 -27 20 -45t54 -18q56 0 91 46t53 148l25 145l-33 -54
q-37 -57 -77.5 -87t-100.5 -30t-93 33.5t-33 90.5q0 45 9 101l34 198q5 33 5 49h-9q-65 0 -100.5 -31t-35.5 -77q0 -21 10.5 -33.5t29.5 -12.5l17 3q1 -3 1 -9q0 -21 -20.5 -38.5t-55.5 -17.5q-48 0 -76.5 27.5t-28.5 72.5q0 76 67 123.5t185 47.5h69q54 0 69.5 -25t5.5 -84
l-42 -238q-8 -46 5 -69.5t38 -23.5q49 0 104 97q83 144 101 246zM522 916q34 0 59.5 12.5t33.5 25.5l8 12q26 0 22 -26q-5 -42 -47.5 -76t-106.5 -34q-56 0 -90 30t-34 77q0 29 15.5 47.5t34.5 18.5l19 -4q-10 -36 16 -59.5t70 -23.5z" />
    <glyph glyph-name="afii10145" unicode="&#x40f;" horiz-adv-x="793" 
d="M377 641l-81 -460q-9 -51 -1.5 -72.5t32.5 -21.5q33 0 73 60q123 185 182 499q6 31 6 54.5t-2 31.5l-3 8q16 10 57 10q54 0 69.5 -24.5t5.5 -84.5l-82 -471q-14 -83 45 -83q32 0 61 28.5t44 58.5q22 0 19 -26q-7 -46 -54 -92t-106 -55q-74 -35 -117 -80.5t-43 -82.5
q0 -9 2 -17.5t4 -12.5l3 -4q-11 -14 -44 -14q-35 0 -55.5 19t-20.5 53q0 81 194 150q-64 29 -64 112q0 51 9 111q-34 -73 -67 -128q-65 -107 -163 -107q-54 0 -86.5 34t-32.5 90q0 46 10 106l73 416q5 33 5 49h-10q-65 0 -100.5 -31t-35.5 -77q0 -21 10.5 -33.5t29.5 -12.5
l17 3q1 -3 1 -9q0 -21 -20.5 -38.5t-55.5 -17.5q-48 0 -76.5 27.5t-28.5 72.5q0 76 67 123.5t185 47.5h70q54 0 70 -25t5 -84z" />
    <glyph glyph-name="afii10017" unicode="&#x410;" horiz-adv-x="664" 
d="M386 263l2 11h-174l-30 -83q-41 -114 -75 -152.5t-79 -38.5q-31 0 -50.5 21t-19.5 56q0 16 3.5 28.5t6.5 16.5l4 5q11 -8 35 -8q77 0 140 153q-20 -2 -37.5 -8t-25.5 -10l-7 -5q-16 13 -16 40q0 30 21.5 48t58.5 18q18 0 36 -3l76 211q36 100 91.5 143.5t159.5 43.5
q58 0 74 -25t6 -84l-82 -471q-14 -83 45 -83q32 0 61 28.5t44 58.5q22 0 19 -26q-7 -50 -61.5 -99t-119.5 -49q-54 0 -87 33.5t-33 90.5t14 139zM239 343q82 -13 158 -14l56 317l5 49q-47 0 -83 -37t-56 -93z" />
    <glyph glyph-name="afii10018" unicode="&#x411;" horiz-adv-x="713" 
d="M256 750q33 0 141.5 -11.5t220.5 -11.5q26 0 49.5 4t34.5 8l10 4q11 -11 11 -33q0 -42 -29.5 -68t-91.5 -26q-34 0 -68 6t-52.5 11.5t-53.5 19t-47 17.5l-39 -220q38 10 87 10q106 0 165.5 -51.5t59.5 -143.5q0 -110 -82 -187.5t-227 -77.5q-133 0 -176 50q-18 19 -18 51
q0 18 6 52l86 493q5 33 5 49h-9q-65 0 -100.5 -31t-35.5 -77q0 -21 10.5 -33.5t29.5 -12.5l17 3q1 -3 1 -9q0 -21 -20.5 -38.5t-55.5 -17.5q-48 0 -76.5 27.5t-28.5 72.5q0 78 69 124.5t207 46.5zM391 402q-25 0 -59 -8l-45 -260q-9 -47 -5 -77q24 -2 42 -2q85 0 138 61.5
t53 152.5q0 64 -32.5 98.5t-91.5 34.5z" />
    <glyph glyph-name="afii10019" unicode="&#x412;" horiz-adv-x="723" 
d="M683 560q0 -68 -47 -122.5t-136 -63.5q67 -11 109 -55t42 -105q0 -94 -77 -154t-223 -60q-139 0 -182 50q-18 19 -18 52q0 19 6 51l86 493q5 33 5 49h-9q-65 0 -100.5 -31t-35.5 -77q0 -21 10.5 -33.5t29.5 -12.5l17 3q1 -3 1 -9q0 -21 -20.5 -38.5t-55.5 -17.5
q-48 0 -76.5 27.5t-28.5 72.5q0 76 67 123.5t185 47.5h134q166 0 241.5 -52t75.5 -138zM392 345h-68l-37 -211q-9 -47 -5 -76q23 -3 52 -3q81 0 129.5 48t48.5 122q0 58 -32.5 89t-87.5 31zM412 695h-27l-52 -295h59q62 0 107 46t45 125q0 59 -35 91.5t-97 32.5z" />
    <glyph glyph-name="afii10020" unicode="&#x413;" horiz-adv-x="623" 
d="M253 750q41 0 148.5 -11.5t216.5 -11.5q26 0 49.5 4t34.5 8l10 4q11 -11 11 -33q0 -42 -29.5 -68t-91.5 -26q-34 0 -68 6t-52.5 11.5t-53.5 19t-47 17.5l-99 -565q-5 -31 -5.5 -55t1.5 -32l3 -8q-16 -10 -57 -10q-54 0 -69.5 24.5t-5.5 84.5l94 537q5 33 5 49h-9
q-65 0 -100.5 -31t-35.5 -77q0 -21 10.5 -33.5t29.5 -12.5l17 3q1 -3 1 -9q0 -21 -20.5 -38.5t-55.5 -17.5q-48 0 -76.5 27.5t-28.5 72.5q0 78 68.5 124.5t204.5 46.5z" />
    <glyph glyph-name="afii10021" unicode="&#x414;" horiz-adv-x="788" 
d="M381 521l-67 -382q-8 -42 -26 -70q29 -9 61 -9q120 0 190 92.5t70 244.5q0 139 -80.5 218.5t-222.5 79.5q-102 0 -152.5 -39t-50.5 -89q0 -21 10.5 -33.5t29.5 -12.5l17 3q1 -3 1 -9q0 -21 -20.5 -38.5t-55.5 -17.5q-48 0 -76.5 27.5t-28.5 72.5q0 80 84.5 135.5
t236.5 55.5q204 0 325.5 -102t121.5 -266q0 -176 -101.5 -279t-264.5 -103q-71 0 -137 27q-40 -27 -103 -27q-41 0 -61 17.5t-20 41.5q0 26 19 43t57 17q17 0 39 -5l72 412q5 31 5.5 54.5t-1.5 31.5l-3 8q16 10 57 10q54 0 69.5 -24.5t5.5 -84.5z" />
    <glyph glyph-name="afii10022" unicode="&#x415;" horiz-adv-x="580" 
d="M389 695q-57 0 -97 -48.5t-40 -115.5q0 -53 27 -87t90 -31q1 -4 1 -11q0 -38 -53 -38h-23q-59 -14 -92.5 -54.5t-33.5 -92.5q0 -60 45 -97t141 -37q88 0 152.5 28t94.5 63q22 0 17 -22q-10 -49 -109 -100.5t-220 -51.5q-118 0 -188.5 50.5t-70.5 139.5q0 68 48 121
t132 75q-46 22 -71 60.5t-25 86.5q0 94 74.5 155.5t189.5 61.5q95 0 148 -45t53 -111q0 -50 -25 -80.5t-72 -30.5q-19 0 -34.5 6t-21.5 12l-5 6q5 5 12.5 13.5t20 37t12.5 59.5q0 78 -77 78z" />
    <glyph glyph-name="afii10024" unicode="&#x416;" horiz-adv-x="940" 
d="M790 0q-52 0 -83 30t-48 94l-40 155q-9 35 -25.5 50t-48.5 15h-10l-42 -239q-5 -31 -5.5 -55t2.5 -32l2 -8q-16 -10 -57 -10q-54 0 -69.5 24.5t-5.5 84.5l41 235h-25q-54 0 -87 -66l-83 -167q-27 -54 -58.5 -82.5t-77.5 -28.5q-47 0 -73.5 22.5t-26.5 56.5q0 10 2.5 18.5
t5.5 12.5l2 3q9 -8 32 -8q46 0 73 54l74 144q45 88 142 88h16q-21 18 -34 39.5t-21 64.5l-12 62q-9 44 -26.5 62.5t-47.5 18.5q-21 0 -37 -11t-21 -21l-6 -11q-29 25 -29 71q0 36 25.5 60t68.5 24q47 0 75.5 -33.5t43.5 -108.5l23 -119q9 -45 34 -67.5t58 -22.5l43 247
q5 30 5.5 53.5t-1.5 32.5l-3 8q16 10 57 10q54 0 69.5 -24.5t5.5 -84.5l-43 -242h6q69 0 125 105l64 120q67 126 148 126q39 0 60.5 -22.5t21.5 -60.5q0 -26 -10.5 -44t-20.5 -23l-10 -5q0 2 -1.5 5t-5.5 10t-10 13t-17.5 10.5t-24.5 4.5q-35 0 -58 -19.5t-46 -62.5l-35 -67
q-43 -82 -79 -99q75 -7 96 -86l39 -142q11 -40 25 -57.5t37 -17.5q26 0 51.5 21.5t38.5 43.5l12 22q24 0 19 -26q-11 -57 -65 -102.5t-114 -45.5z" />
    <glyph glyph-name="afii10025" unicode="&#x417;" horiz-adv-x="584" 
d="M229 0q-86 0 -143 43.5t-65 103.5q-3 25 6 39t26 11q5 -50 42.5 -80t95.5 -30q87 0 132.5 48t45.5 116q0 89 -70 113h-31q-46 0 -46 38l1 11q84 0 138 49.5t54 127.5q0 46 -29.5 75.5t-79.5 29.5q-54 0 -90 -38.5t-36 -95.5q0 -16 3.5 -29.5t6.5 -19.5l4 -5
q-15 -24 -59 -24q-31 0 -49.5 19.5t-18.5 54.5q0 84 76.5 138.5t177.5 54.5q103 0 168 -50.5t65 -128.5q0 -65 -46 -115t-119 -74q119 -41 119 -156q0 -93 -76 -159.5t-203 -66.5z" />
    <glyph glyph-name="afii10026" unicode="&#x418;" horiz-adv-x="793" 
d="M377 641l-81 -460q-9 -51 -1.5 -72.5t32.5 -21.5q33 0 73 60q123 185 182 499q6 31 6 54.5t-2 31.5l-3 8q16 10 57 10q54 0 69.5 -24.5t5.5 -84.5l-82 -471q-14 -83 45 -83q32 0 61 28.5t44 58.5q22 0 19 -26q-7 -50 -61.5 -99t-119.5 -49q-54 0 -87 33.5t-33 90.5
q0 51 9 111q-34 -73 -67 -128q-65 -107 -163 -107q-54 0 -86.5 34t-32.5 90q0 46 10 106l73 416q5 33 5 49h-10q-65 0 -100.5 -31t-35.5 -77q0 -21 10.5 -33.5t29.5 -12.5l17 3q1 -3 1 -9q0 -21 -20.5 -38.5t-55.5 -17.5q-48 0 -76.5 27.5t-28.5 72.5q0 76 67 123.5
t185 47.5h70q54 0 70 -25t5 -84z" />
    <glyph glyph-name="afii10027" unicode="&#x419;" horiz-adv-x="793" 
d="M377 641l-81 -460q-9 -51 -1.5 -72.5t32.5 -21.5q33 0 73 60q123 185 182 499q6 31 6 54.5t-2 31.5l-3 8q16 10 57 10q54 0 69.5 -24.5t5.5 -84.5l-82 -471q-14 -83 45 -83q32 0 61 28.5t44 58.5q22 0 19 -26q-7 -50 -61.5 -99t-119.5 -49q-54 0 -87 33.5t-33 90.5
q0 51 9 111q-34 -73 -67 -128q-65 -107 -163 -107q-54 0 -86.5 34t-32.5 90q0 46 10 106l73 416q5 33 5 49h-10q-65 0 -100.5 -31t-35.5 -77q0 -21 10.5 -33.5t29.5 -12.5l17 3q1 -3 1 -9q0 -21 -20.5 -38.5t-55.5 -17.5q-48 0 -76.5 27.5t-28.5 72.5q0 76 67 123.5
t185 47.5h70q54 0 70 -25t5 -84zM539 897q60 0 87 66q23 0 19 -26q-6 -38 -45 -72t-106 -34q-60 0 -93.5 28.5t-33.5 74.5q0 33 20 53t55 20q15 0 27 -4t17 -8l5 -4q-12 -13 -12 -40q0 -25 16 -39.5t44 -14.5z" />
    <glyph glyph-name="afii10028" unicode="&#x41a;" horiz-adv-x="749" 
d="M598 0q-52 0 -83 31t-47 93l-40 155q-9 34 -24 49.5t-44 15.5h-36l-42 -239q-5 -31 -5.5 -55t1.5 -32l3 -8q-16 -10 -57 -10q-54 0 -69.5 24.5t-5.5 84.5l94 537q5 33 5 49h-9q-65 0 -100.5 -31t-35.5 -77q0 -21 10.5 -33.5t29.5 -12.5l17 3q1 -3 1 -9q0 -21 -20.5 -38.5
t-55.5 -17.5q-48 0 -76.5 27.5t-28.5 72.5q0 76 67 123.5t185 47.5h69q54 0 70 -25t5 -84l-43 -242h32q61 0 119 105l66 120q37 67 70.5 96.5t73.5 29.5t62 -21t22 -59q0 -24 -10 -42.5t-20 -25.5l-11 -7q0 2 -1.5 5t-5.5 10t-10 13t-17.5 10.5t-24.5 4.5q-61 0 -104 -82
l-35 -67q-43 -82 -79 -99q75 -7 96 -86l39 -142q11 -40 25 -57.5t37 -17.5q30 0 59.5 30t42.5 57q22 0 19 -26q-6 -47 -61 -97.5t-119 -50.5z" />
    <glyph glyph-name="afii10029" unicode="&#x41b;" horiz-adv-x="664" 
d="M386 263l67 383q5 33 5 49q-49 0 -84 -37.5t-55 -92.5l-135 -374q-42 -115 -75 -153t-79 -38q-31 0 -50.5 21t-19.5 56q0 16 3.5 28.5t6.5 16.5l4 5q11 -8 35 -8q86 0 155 191l91 253q34 95 88 141t163 46q58 0 74 -24.5t6 -84.5l-82 -471q-14 -83 45 -83q32 0 61 28.5
t44 58.5q22 0 19 -26q-7 -50 -61.5 -99t-119.5 -49q-54 0 -87 33.5t-33 90.5t14 139z" />
    <glyph glyph-name="afii10030" unicode="&#x41c;" horiz-adv-x="907" 
d="M171 345l63 218q16 56 25.5 100.5t10.5 60.5l2 16q23 10 57 10q46 0 64.5 -19.5t20.5 -73.5l21 -491l219 457q35 73 43 117q16 10 57 10q54 0 69.5 -25t5.5 -84l-82 -471q-14 -83 45 -83q32 0 61 28.5t44 58.5q22 0 19 -26q-7 -50 -61.5 -99t-119.5 -49q-54 0 -87 33.5
t-33 90.5t14 139l51 291l-209 -441q-12 -24 -20.5 -48.5t-10.5 -36.5l-3 -13q-23 -15 -63 -15q-38 0 -51.5 24.5t-16.5 76.5l-20 457l-99 -367q-28 -103 -65 -147t-88 -44q-34 0 -54 21t-20 56q0 16 3.5 28.5t6.5 16.5l4 5q11 -8 35 -8q52 0 88 47t74 179z" />
    <glyph glyph-name="afii10031" unicode="&#x41d;" horiz-adv-x="793" 
d="M515 263l13 78h-204l-41 -236q-5 -31 -5.5 -55t2.5 -32l2 -8q-16 -10 -57 -10q-54 0 -69.5 24.5t-5.5 84.5l94 537q5 33 5 49h-10q-65 0 -100.5 -31t-35.5 -77q0 -21 10.5 -33.5t29.5 -12.5l17 3q1 -3 1 -9q0 -21 -20.5 -38.5t-55.5 -17.5q-48 0 -76.5 27.5t-28.5 72.5
q0 76 67 123.5t185 47.5h70q54 0 69.5 -24.5t5.5 -84.5l-43 -245h204l44 250q5 31 5.5 54.5t-1.5 31.5l-3 8q16 10 57 10q54 0 69.5 -24.5t5.5 -84.5l-82 -471q-14 -83 45 -83q32 0 61 28.5t44 58.5q22 0 19 -26q-7 -50 -61.5 -99t-119.5 -49q-54 0 -87 33.5t-33 90.5
t14 139z" />
    <glyph glyph-name="afii10032" unicode="&#x41e;" horiz-adv-x="699" 
d="M411 750q113 0 175.5 -74t62.5 -204q0 -132 -43 -239t-126 -170t-192 -63q-108 0 -173 71t-65 207q0 206 99.5 339t261.5 133zM198 375q-11 -75 -11 -137q0 -183 113 -183q68 0 121.5 81.5t78.5 238.5q11 66 11 137q0 183 -113 183q-64 0 -119.5 -79.5t-80.5 -240.5z" />
    <glyph glyph-name="afii10033" unicode="&#x41f;" horiz-adv-x="792" 
d="M261 750q79 0 229.5 -11.5t237.5 -11.5q26 0 49 4t33 8l11 4q11 -11 11 -33q0 -44 -30.5 -74t-93.5 -30l-76 -436q-14 -83 45 -83q32 0 61 28.5t44 58.5q22 0 19 -26q-7 -50 -61.5 -99t-119.5 -49q-54 0 -87 33.5t-33 90.5t14 139l64 367l-56.5 19.5t-73.5 23.5t-64 15
l-102 -583q-5 -31 -5.5 -55t1.5 -32l3 -8q-16 -10 -57 -10q-54 0 -69.5 24.5t-5.5 84.5l94 537q5 33 5 49h-9q-65 0 -100.5 -31t-35.5 -77q0 -21 10.5 -33.5t29.5 -12.5l17 3q1 -3 1 -9q0 -21 -20.5 -38.5t-55.5 -17.5q-48 0 -76.5 27.5t-28.5 72.5q0 78 71 124.5t210 46.5z
" />
    <glyph glyph-name="afii10034" unicode="&#x420;" horiz-adv-x="723" 
d="M367 535l-46 -263q22 -4 55 -4q84 0 136 62.5t52 157.5t-63.5 151t-189.5 56q-104 0 -156 -39t-52 -89q0 -21 10.5 -33.5t29.5 -12.5l17 3q1 -3 1 -9q0 -21 -20.5 -38.5t-55.5 -17.5q-48 0 -76.5 27.5t-28.5 72.5q0 80 86 135.5t248 55.5q198 0 293.5 -73t95.5 -195
q0 -119 -83 -194t-220 -75q-48 0 -88 7l-20 -115q-5 -31 -5.5 -55t1.5 -32l3 -8q-16 -10 -57 -10q-54 0 -69.5 24.5t-5.5 84.5l75 431q5 31 5.5 54.5t-1.5 31.5l-3 8q16 10 57 10q54 0 69.5 -24.5t5.5 -84.5z" />
    <glyph glyph-name="afii10035" unicode="&#x421;" horiz-adv-x="645" 
d="M405 83q78 0 141.5 25.5t100.5 65.5q20 0 17 -22q-11 -47 -101.5 -99.5t-210.5 -52.5q-131 0 -216.5 84.5t-85.5 226.5q0 194 106.5 316.5t264.5 122.5q90 0 140.5 -49.5t50.5 -120.5q0 -67 -36 -106t-86 -39q-22 0 -38 8.5t-22 16.5l-5 9q3 1 8 4t18 14t23 25.5t18 41
t8 57.5q0 39 -22.5 61.5t-59.5 22.5q-88 0 -158.5 -111t-70.5 -262q0 -114 57.5 -176.5t158.5 -62.5z" />
    <glyph glyph-name="afii10036" unicode="&#x422;" horiz-adv-x="642" 
d="M245 750q47 0 165 -11.5t227 -11.5q26 0 49.5 4t33.5 8l11 4q11 -11 11 -33q0 -42 -29.5 -68t-91.5 -26q-21 0 -37.5 1.5t-36 6t-27.5 6.5t-33.5 10l-31.5 10l-95 -545q-5 -31 -5.5 -55t1.5 -32l3 -8q-16 -10 -57 -10q-54 0 -69.5 24.5t-5.5 84.5l94 537l5 39
q-52 10 -83 10q-65 0 -102.5 -31.5t-37.5 -76.5q0 -21 10.5 -33.5t29.5 -12.5l17 3q1 -3 1 -9q0 -21 -20.5 -38.5t-55.5 -17.5q-48 0 -76.5 27.5t-28.5 72.5q0 77 68 124t197 47z" />
    <glyph glyph-name="afii10037" unicode="&#x423;" horiz-adv-x="749" 
d="M582 653q5 28 5 49.5t-3 29.5l-2 8q16 10 57 10q54 0 69.5 -25t5.5 -84l-66 -376q-26 -145 -98 -205t-193 -60q-82 0 -131 31q-44 27 -44 71q0 29 18.5 46.5t53.5 17.5q14 0 25.5 -2t16.5 -4l4 -2q-6 -18 -6 -40q0 -27 20 -45t54 -18q56 0 91 46t53 148l25 145l-33 -54
q-37 -57 -77.5 -87t-100.5 -30t-93 33.5t-33 90.5q0 45 9 101l34 198q5 33 5 49h-9q-65 0 -100.5 -31t-35.5 -77q0 -21 10.5 -33.5t29.5 -12.5l17 3q1 -3 1 -9q0 -21 -20.5 -38.5t-55.5 -17.5q-48 0 -76.5 27.5t-28.5 72.5q0 76 67 123.5t185 47.5h69q54 0 69.5 -25t5.5 -84
l-42 -238q-8 -46 5 -69.5t38 -23.5q49 0 104 97q83 144 101 246z" />
    <glyph glyph-name="afii10038" unicode="&#x424;" horiz-adv-x="890" 
d="M544 105l-78 6q-6 -34 -6.5 -59t2.5 -34l2 -8q-16 -10 -57 -10q-54 0 -69.5 24t-6.5 83q-22 -2 -34 -2q-122 0 -189.5 62.5t-67.5 177.5q0 134 85.5 220.5t220.5 86.5q34 0 80 -6q5 31 5.5 54.5t-1.5 31.5l-3 8q16 10 57 10q52 0 68 -23t8 -77q21 2 33 2
q122 0 189.5 -62.5t67.5 -177.5q0 -134 -85.5 -220.5t-220.5 -86.5zM319 162l22 1l75 429q-24 3 -40 3q-84 0 -140.5 -69.5t-56.5 -203.5q0 -160 140 -160zM571 595l-21 -2l-75 -429q23 -2 39 -2q84 0 140.5 69.5t56.5 203.5q0 160 -140 160z" />
    <glyph glyph-name="afii10039" unicode="&#x425;" horiz-adv-x="674" 
d="M583 87q25 0 50 21.5t38 43.5l13 22q24 0 19 -27q-9 -53 -60.5 -100t-115.5 -47q-51 0 -86 33.5t-56 116.5l-37 144q-76 -68 -108 -127t-32 -132q0 -10 1.5 -19t2.5 -13l2 -4q-21 -9 -41 -9q-77 0 -77 67q0 49 39.5 100.5t156.5 161.5l40 38l-86 337q-60 -3 -91.5 -33
t-31.5 -74q0 -21 10.5 -33.5t29.5 -12.5l17 3q1 -3 1 -9q0 -21 -20.5 -38.5t-55.5 -17.5q-48 0 -76.5 27.5t-28.5 72.5q0 76 67 123.5t185 47.5h32q47 0 70 -18t34 -59l56 -217q75 68 107 127t32 131q0 10 -1.5 19t-3.5 13l-1 4q21 9 41 9q77 0 77 -67q0 -49 -38.5 -99.5
t-157.5 -162.5l-39 -37l59 -227q11 -42 25 -60.5t39 -18.5z" />
    <glyph glyph-name="afii10040" unicode="&#x426;" horiz-adv-x="782" 
d="M296 181q-17 -94 31 -94q33 0 73 60q128 193 182 499q5 31 5.5 54.5t-1.5 31.5l-3 8q16 10 57 10q54 0 69.5 -25t5.5 -84l-82 -474q-14 -80 37 -80q18 0 31.5 11.5t18.5 23.5l4 12q7 3 18 3q30 0 30 -30q0 -143 -36 -223t-103 -80q-33 0 -51 17t-18 47l3 21q53 3 89 43.5
t54 108.5q-36 -41 -96 -41q-53 0 -83 35.5t-30 88.5q0 51 9 111q-34 -73 -67 -128q-65 -107 -163 -107q-54 0 -86.5 34t-32.5 90q0 46 10 106l73 416q5 33 5 49h-10q-65 0 -100.5 -31t-35.5 -77q0 -21 10.5 -33.5t29.5 -12.5l17 3q1 -3 1 -9q0 -21 -20.5 -38.5t-55.5 -17.5
q-48 0 -76.5 27.5t-28.5 72.5q0 76 67 123.5t185 47.5h70q54 0 70 -25t5 -84z" />
    <glyph glyph-name="afii10041" unicode="&#x427;" horiz-adv-x="793" 
d="M232 750h69q54 0 70 -24t5 -85l-45 -256q-20 -115 38 -115q48 0 94 78q96 163 121 309q4 30 4 48.5t-2 26.5l-3 8q16 10 57 10q54 0 69.5 -24.5t5.5 -84.5l-82 -471q-14 -83 45 -83q32 0 61 28.5t44 58.5q22 0 19 -26q-7 -50 -61.5 -99t-119.5 -49q-54 0 -87 33.5
t-33 90.5t14 139l16 93q-15 -30 -37 -61q-37 -54 -78.5 -83t-100.5 -29t-90.5 33.5t-31.5 90.5q0 46 10 106l40 233q5 33 5 49h-9q-65 0 -100.5 -31t-35.5 -77q0 -21 10.5 -33.5t29.5 -12.5l17 3q1 -3 1 -9q0 -21 -20.5 -38.5t-55.5 -17.5q-48 0 -76.5 27.5t-28.5 72.5
q0 76 67 123.5t185 47.5z" />
    <glyph glyph-name="afii10042" unicode="&#x428;" horiz-adv-x="1051" 
d="M1041 174q22 0 19 -26q-7 -50 -61.5 -99t-119.5 -49q-54 0 -87 33.5t-33 90.5v32q-73 -156 -181 -156q-54 0 -86.5 34t-32.5 90v26q-71 -150 -179 -150q-54 0 -86.5 34t-32.5 90q0 46 10 106l73 416q5 25 5 49h-10q-65 0 -100.5 -31t-35.5 -77q0 -21 10.5 -33.5
t29.5 -12.5l17 3q1 -3 1 -9q0 -21 -20.5 -38.5t-55.5 -17.5q-48 0 -76.5 27.5t-28.5 72.5q0 76 67 123.5t185 47.5h70q54 0 70 -25t5 -84l-81 -460q-17 -94 29 -94q43 0 89 94q69 140 128 465q5 31 5.5 54.5t-1.5 31.5l-3 8q16 10 57 10q54 0 70 -25t5 -84l-81 -460
q-17 -94 29 -94q43 0 89 94q69 140 128 465q5 31 5.5 54.5t-1.5 31.5l-3 8q16 10 57 10q54 0 69.5 -24.5t5.5 -84.5l-82 -471q-14 -83 45 -83q32 0 61 28.5t44 58.5z" />
    <glyph glyph-name="afii10043" unicode="&#x429;" horiz-adv-x="1040" 
d="M232 750h70q54 0 69.5 -25t5.5 -84l-81 -460q-17 -94 29 -94q43 0 89 94q70 139 128 465q5 31 5.5 54.5t-1.5 31.5l-3 8q16 10 57 10q54 0 69.5 -25.5t5.5 -83.5l-81 -460q-17 -94 29 -94q43 0 89 94q66 135 128 465q6 31 6 54.5t-2 31.5l-3 8q16 10 57 10
q54 0 69.5 -24.5t5.5 -84.5l-82 -474q-13 -80 37 -80q18 0 31.5 12t18 22t4.5 13q7 3 18 3q30 0 30 -30q0 -61 -7 -112.5t-22.5 -95.5t-43.5 -69.5t-66 -25.5q-33 0 -51 17t-18 47l3 21q53 3 89 43.5t54 108.5q-36 -41 -96 -41q-53 0 -83 35.5t-30 88.5v31
q-73 -155 -181 -155q-54 0 -86.5 34t-32.5 90v26q-71 -150 -179 -150q-54 0 -86.5 34t-32.5 90q0 46 10 106l73 416q5 33 5 49h-10q-65 0 -100.5 -31t-35.5 -77q0 -21 10.5 -33.5t29.5 -12.5l17 3q1 -3 1 -9q0 -21 -20.5 -38.5t-55.5 -17.5q-48 0 -76.5 27.5t-28.5 72.5
q0 76 67 123.5t185 47.5z" />
    <glyph glyph-name="afii10044" unicode="&#x42a;" horiz-adv-x="779" 
d="M427 394l-45 -260q-9 -49 -5 -77q24 -2 42 -2q85 0 137.5 59.5t52.5 150.5q0 67 -31.5 102t-91.5 35zM315 750h81q54 0 69.5 -25.5t5.5 -83.5l-34 -191q38 10 87 10q106 0 165.5 -51.5t59.5 -143.5q0 -110 -82 -187.5t-227 -77.5q-130 0 -176 50q-18 19 -18 53q0 18 6 50
l86 493q5 33 5 49h-28q-93 0 -152.5 -46.5t-59.5 -117.5q0 -31 14.5 -50t39.5 -19l17 3q1 -3 1 -9q0 -23 -19.5 -39.5t-58.5 -16.5q-55 0 -86 36.5t-31 89.5q0 103 90 163.5t245 60.5z" />
    <glyph glyph-name="afii10045" unicode="&#x42b;" horiz-adv-x="1005" 
d="M727 263l67 383q5 31 5.5 54.5t-1.5 31.5l-3 8q16 10 57 10q54 0 69.5 -24.5t5.5 -84.5l-82 -471q-14 -83 45 -83q32 0 61 28.5t44 58.5q22 0 19 -26q-7 -50 -61.5 -99t-119.5 -49q-54 0 -87 33.5t-33 90.5t14 139zM301 750q54 0 69.5 -25.5t5.5 -83.5l-34 -191
q38 10 87 10q106 0 165.5 -51.5t59.5 -143.5q0 -110 -82 -187.5t-227 -77.5q-130 0 -176 50q-18 19 -18 53q0 18 6 50l86 493q5 33 5 49h-9q-65 0 -100.5 -31t-35.5 -77q0 -21 10.5 -33.5t29.5 -12.5l17 3q1 -3 1 -9q0 -21 -20.5 -38.5t-55.5 -17.5q-48 0 -76.5 27.5
t-28.5 72.5q0 76 67 123.5t185 47.5h69zM332 394l-45 -260q-9 -49 -5 -77q24 -2 42 -2q85 0 137.5 59.5t52.5 150.5q0 67 -31.5 102t-91.5 35z" />
    <glyph glyph-name="afii10046" unicode="&#x42c;" horiz-adv-x="684" 
d="M301 750q54 0 69.5 -25.5t5.5 -83.5l-34 -191q38 10 87 10q106 0 165.5 -51.5t59.5 -143.5q0 -110 -82 -187.5t-227 -77.5q-130 0 -176 50q-18 19 -18 53q0 18 6 50l86 493q5 33 5 49h-9q-65 0 -100.5 -31t-35.5 -77q0 -21 10.5 -33.5t29.5 -12.5l17 3q1 -3 1 -9
q0 -21 -20.5 -38.5t-55.5 -17.5q-48 0 -76.5 27.5t-28.5 72.5q0 76 67 123.5t185 47.5h69zM332 394l-45 -260q-9 -49 -5 -77q24 -2 42 -2q85 0 137.5 59.5t52.5 150.5q0 67 -31.5 102t-91.5 35z" />
    <glyph glyph-name="afii10047" unicode="&#x42d;" horiz-adv-x="621" 
d="M221 396h208q3 30 3 64q0 106 -38 154.5t-102 48.5q-60 0 -106.5 -38.5t-60.5 -92.5q-18 -3 -26.5 10t-4.5 37q9 60 74 115.5t155 55.5q119 0 183.5 -76.5t64.5 -208.5q0 -212 -107 -338.5t-272 -126.5q-92 0 -147 43t-55 104q0 49 24.5 77t69.5 28q16 0 28.5 -6
t16.5 -12l4 -6q-30 -24 -30 -79q0 -42 26.5 -68t72.5 -26q82 0 142 76t79 210h-229q-7 13 -7 26q0 29 34 29z" />
    <glyph glyph-name="afii10048" unicode="&#x42e;" horiz-adv-x="1062" 
d="M774 750q113 0 175.5 -74t62.5 -204q0 -132 -43 -239t-126 -170t-192 -63q-108 0 -173 71t-65 207q0 32 3 63h-93l-41 -236q-5 -31 -5.5 -55t1.5 -32l3 -8q-16 -10 -57 -10q-54 0 -69.5 24.5t-5.5 84.5l94 537q5 33 5 49h-9q-65 0 -100.5 -31t-35.5 -77q0 -21 10.5 -33.5
t29.5 -12.5l17 3q1 -3 1 -9q0 -21 -20.5 -38.5t-55.5 -17.5q-48 0 -76.5 27.5t-28.5 72.5q0 76 67 123.5t185 47.5h69q54 0 69.5 -24.5t5.5 -84.5l-43 -245h89q27 160 121 257t231 97zM561 375q-11 -75 -11 -137q0 -183 113 -183q68 0 121.5 81.5t78.5 238.5q11 66 11 137
q0 183 -113 183q-64 0 -119.5 -79.5t-80.5 -240.5z" />
    <glyph glyph-name="afii10049" unicode="&#x42f;" horiz-adv-x="716" 
d="M438 263l6 36h-74q-56 0 -91 -72l-62 -126q-24 -50 -56 -75.5t-80 -25.5q-39 0 -65 23t-26 56q0 10 2.5 18.5t5.5 12.5l2 3q9 -8 32 -8q47 0 76 60l32 67q22 45 54 67.5t83 31.5q-78 12 -125 60.5t-47 121.5q0 97 86 167t228 70q127 0 178 -17q55 -18 39 -106l-80 -457
q-14 -83 45 -83q32 0 61 28.5t44 58.5q22 0 19 -26q-7 -50 -61.5 -99t-119.5 -49q-54 0 -87 33.5t-33 90.5t14 139zM244 503q0 -69 41 -109t113 -40h56l49 278q3 17 4.5 31.5t0.5 20.5v6q-18 3 -80 3q-76 0 -130 -52.5t-54 -137.5z" />
    <glyph glyph-name="afii10065" unicode="&#x430;" horiz-adv-x="557" 
d="M442 418l-43 -243q-16 -88 43 -88q26 0 56 24t49 63q23 0 19 -26q-9 -47 -61 -97.5t-118 -50.5q-50 0 -81.5 30t-35.5 83q-63 -113 -153 -113q-65 0 -106 44t-41 128q0 156 75 242t172 86q69 0 108 -49q12 27 32.5 38t57.5 11q15 0 27.5 -2.5t17.5 -5.5l5 -2
q-13 -18 -23 -72zM157 87q33 0 64 43t49.5 97t29.5 110l9 47q-22 48 -66 48q-55 0 -100 -73.5t-45 -188.5q0 -83 59 -83z" />
    <glyph glyph-name="afii10066" unicode="&#x431;" horiz-adv-x="551" 
d="M175 0q-92 0 -138.5 55t-46.5 138q0 186 66 343.5t181 232.5q45 30 165 47t168 34q7 -7 7 -24q0 -91 -108 -91q-25 0 -66 10.5t-55 10.5q-34 0 -56.5 -16t-46.5 -59q-43 -74 -80 -215q53 34 115 34q76 0 124 -52t48 -132q0 -37 -6 -70q33 5 63.5 24.5t44.5 36.5l13 17
q21 0 18 -25q-5 -29 -49 -60.5t-100 -38.5q-27 -92 -95.5 -146t-165.5 -54zM186 50q44 0 75.5 50.5t48.5 125.5q-39 30 -39 80q0 57 51 68q-11 73 -74 73q-56 0 -101 -53q-29 -134 -29 -241q0 -103 68 -103z" />
    <glyph glyph-name="afii10067" unicode="&#x432;" horiz-adv-x="551" 
d="M178 0q-89 0 -138.5 52.5t-49.5 155.5q0 236 133 451q52 84 118 127.5t136 43.5q68 0 101.5 -33.5t33.5 -94.5q0 -131 -164 -243q51 -18 77.5 -61.5t26.5 -104.5q0 -25 -3 -47q32 5 61.5 24.5t43.5 36.5l13 17q21 0 18 -25q-5 -28 -47.5 -59t-98.5 -39
q-25 -90 -94 -145.5t-167 -55.5zM187 50q39 0 73.5 48.5t51.5 125.5q-41 29 -41 82q0 25 13.5 44t36.5 24q-6 36 -23 55q-25 -14 -50 -24l-59 -22.5l-45 -16.5q-26 -118 -26 -214q0 -102 69 -102zM362 780q-34 0 -78 -58t-77 -143q-30 -80 -49 -156q107 51 175 143.5
t68 170.5q0 43 -39 43z" />
    <glyph glyph-name="afii10068" unicode="&#x433;" horiz-adv-x="332" 
d="M154 0q-65 0 -96.5 36t-31.5 94q0 44 22 93l66 145q9 22 9 34q0 30 -30 30q-22 0 -46 -25.5t-40 -74.5q-2 -1 -7 -1q-25 0 -19 32q10 54 53.5 95.5t103.5 41.5q53 0 83 -27.5t30 -72.5q0 -41 -21 -85l-61 -130q-20 -42 -10.5 -70t45.5 -28q70 0 118 87q24 0 19 -27
q-9 -45 -65.5 -96t-121.5 -51z" />
    <glyph glyph-name="afii10069" unicode="&#x434;" horiz-adv-x="557" 
d="M442 418l-58 -334q103 41 163 90q10 0 15.5 -6t3.5 -17q-3 -13 -33 -36q-52 -40 -159 -92l-2 -12q-61 -361 -280 -361q-51 0 -81.5 29t-30.5 76q0 83 84 155q61 53 183 113l12 71q-61 -94 -142 -94q-65 0 -106 44t-41 128q0 156 75 242t172 86q69 0 108 -49
q12 27 32.5 38t57.5 11q15 0 27.5 -2.5t17.5 -5.5l5 -2q-14 -18 -23 -72zM157 87q33 0 64 43t49.5 97t29.5 110l9 47q-22 48 -66 48q-55 0 -100 -73.5t-45 -188.5q0 -83 59 -83zM82 -284q108 0 154 244q-101 -52 -141 -92q-59 -57 -59 -107q0 -20 12 -32.5t34 -12.5z" />
    <glyph glyph-name="afii10070" unicode="&#x435;" 
d="M196 0q-100 0 -163 58t-63 158q0 127 81 205.5t187 78.5q71 0 107 -30.5t36 -73.5q0 -131 -281 -184q5 -58 43 -95.5t100 -37.5q73 0 121.5 28t73.5 67q22 0 16 -26q-9 -43 -82.5 -95.5t-175.5 -52.5zM239 450q-47 0 -88.5 -51.5t-49.5 -139.5q88 21 130.5 62.5
t42.5 93.5q0 16 -9.5 25.5t-25.5 9.5z" />
    <glyph glyph-name="afii10072" unicode="&#x436;" horiz-adv-x="798" 
d="M280 262h15l25 143q5 28 5 49.5t-2 29.5l-2 7q15 9 52 9q55 0 69.5 -22t4.5 -77l-24 -139h30q31 0 60 57l39 80q29 58 55 79.5t60 21.5q30 0 47.5 -18.5t17.5 -49.5q0 -20 -9 -37t-17 -25l-9 -7q-1 4 -3.5 10t-15 16t-29.5 10q-42 0 -70 -60l-17 -36q-13 -29 -35 -45
q50 -12 68 -65l11 -35q22 -71 77 -71q58 0 105 87q24 0 19 -26q-10 -50 -63 -99t-114 -49q-106 0 -141 117l-16 53q-7 23 -19 33t-35 10h-5l-20 -118q-5 -28 -5 -49.5t2 -29.5l2 -7q-15 -9 -52 -9q-55 0 -69.5 22t-4.5 77l19 114q-28 0 -45 -9.5t-30 -34.5l-26 -52
q-30 -60 -62 -88.5t-84 -28.5q-43 0 -66 30t-23 74q0 36 14.5 54.5t33.5 18.5l20 -4q-9 -27 -9 -46q0 -31 18 -31q10 0 17.5 10t22.5 38l27 51q32 60 110 63q-16 14 -25 45l-9 36q-15 60 -58 60q-17 0 -31 -9t-19 -18l-6 -9q-23 19 -23 53q0 35 23.5 59.5t58.5 24.5
q34 0 54 -21t37 -80l22 -80q17 -57 52 -57z" />
    <glyph glyph-name="afii10073" unicode="&#x437;" horiz-adv-x="472" 
d="M370 333q0 -114 -93 -197q-34 -31 -74 -50q22 -11 41 -30q63 24 125.5 58t92.5 60q10 0 15.5 -6.5t3.5 -16.5q-3 -13 -33 -36q-48 -37 -174 -101q22 -41 22 -96q0 -106 -78 -187t-191 -81q-64 0 -95.5 27.5t-31.5 77.5q0 84 82 153q64 54 184 113q-4 26 -15 44
q-30 -8 -53 -8q-39 0 -39 30q81 35 136.5 119.5t55.5 172.5q0 71 -69 71q-47 0 -89 -53t-42 -123l2 -19q-9 -5 -24 -5q-32 0 -51 18.5t-19 49.5q0 72 65.5 127t161.5 55q91 0 137.5 -46t46.5 -121zM5 -284q64 0 114 73t50 170v7q-109 -54 -153 -98q-60 -58 -60 -107
q0 -45 49 -45z" />
    <glyph glyph-name="afii10074" unicode="&#x438;" horiz-adv-x="561" 
d="M274 125q0 20 1 34q-22 -43 -45 -74q-63 -85 -141 -85q-50 0 -79.5 32t-29.5 84q0 54 12 123l29 166q5 28 5 49.5t-2 29.5l-2 7q15 9 52 9q55 0 69.5 -22t4.5 -77l-40 -231q-15 -83 33 -83q30 0 74 67q33 50 61.5 123t39.5 138q4 24 4 43t-2 26l-2 7q15 9 52 9
q55 0 69.5 -22t4.5 -77l-39 -226q-15 -88 43 -88q26 0 56 24t49 63q23 0 19 -26q-9 -47 -61 -97.5t-118 -50.5q-53 0 -85 33t-32 92z" />
    <glyph glyph-name="afii10075" unicode="&#x439;" horiz-adv-x="561" 
d="M274 125q0 20 1 34q-22 -43 -45 -74q-63 -85 -141 -85q-50 0 -79.5 32t-29.5 84q0 54 12 123l29 166q5 28 5 49.5t-2 29.5l-2 7q15 9 52 9q55 0 69.5 -22t4.5 -77l-40 -231q-15 -83 33 -83q30 0 74 67q33 50 61.5 123t39.5 138q4 24 4 43t-2 26l-2 7q15 9 52 9
q55 0 69.5 -22t4.5 -77l-39 -226q-15 -88 43 -88q26 0 56 24t49 63q23 0 19 -26q-9 -47 -61 -97.5t-118 -50.5q-53 0 -85 33t-32 92zM294 646q60 0 87 66q23 0 19 -26q-6 -38 -45 -72t-106 -34q-60 0 -93.5 28.5t-33.5 74.5q0 33 20 53t55 20q15 0 27 -4t17 -8l5 -4
q-12 -13 -12 -40q0 -25 16 -39.5t44 -14.5z" />
    <glyph glyph-name="afii10076" unicode="&#x43a;" horiz-adv-x="516" 
d="M155 401l-24 -139h40q31 0 60 57l39 80q29 58 55 79.5t60 21.5q30 0 47.5 -18.5t17.5 -49.5q0 -20 -9 -37t-17 -25l-9 -7q-1 4 -3.5 10t-15 16t-29.5 10q-42 0 -70 -60l-17 -36q-13 -29 -35 -45q50 -12 68 -65l11 -35q11 -36 28 -53.5t47 -17.5q31 0 60.5 25t46.5 62
q23 0 19 -26q-8 -46 -61 -97t-118 -51q-103 0 -139 117l-16 53q-12 43 -48 43h-21l-20 -118q-5 -28 -5 -49.5t2 -29.5l2 -7q-15 -9 -52 -9q-55 0 -69.5 22t-4.5 77l53 306q5 28 5 49.5t-2 29.5l-2 7q15 9 52 9q55 0 69.5 -22t4.5 -77z" />
    <glyph glyph-name="afii10077" unicode="&#x43b;" horiz-adv-x="575" 
d="M297 220l32 185l5 44q-75 -7 -110 -124l-53 -184q-40 -141 -137 -141q-42 0 -68 27.5t-26 70.5q0 40 23 65t55 25q14 0 26 -3.5t16 -6.5l5 -4q-16 -28 -16 -52q0 -35 25 -35q30 0 48 68l52 185q45 160 201 160q61 0 76 -21.5t5 -77.5l-39 -226q-15 -88 43 -88q26 0 56 24
t49 63q23 0 19 -26q-9 -47 -61 -97.5t-118 -50.5q-53 0 -85 33t-32 92q0 44 9 95z" />
    <glyph glyph-name="afii10078" unicode="&#x43c;" horiz-adv-x="755" 
d="M204 491q36 9 68 9q76 0 77 -79l6 -285l115 246q16 33 26 60t12 38l2 11q15 9 52 9q55 0 69.5 -22t4.5 -77l-39 -226q-15 -88 43 -88q26 0 56 24t49 63q23 0 19 -26q-9 -47 -61 -97.5t-118 -50.5q-53 0 -85 33t-32 92q0 39 9 95l16 95l-101 -219q-10 -21 -17.5 -41.5
t-10.5 -30.5l-2 -9q-20 -15 -55 -15q-74 0 -77 97l-6 226l-55 -187q-39 -136 -135 -136q-42 0 -68 27.5t-26 69.5q0 40 22.5 65.5t55.5 25.5q14 0 26 -3.5t16 -6.5l5 -4q-16 -26 -16 -56q0 -14 7.5 -22.5t17.5 -8.5q29 0 49 68l56 196q13 46 19.5 81t5.5 47v12z" />
    <glyph glyph-name="afii10079" unicode="&#x43d;" horiz-adv-x="562" 
d="M447 87q26 0 56 24t49 63q23 0 19 -26q-9 -47 -61 -97.5t-118 -50.5q-53 0 -85 33t-32 92q0 41 9 95h-161l-21 -125q-5 -28 -5 -49.5t2 -29.5l2 -7q-15 -9 -52 -9q-55 0 -69.5 22t-4.5 77l53 306q5 28 5 49.5t-2 29.5l-2 7q15 9 52 9q55 0 69.5 -22t4.5 -77l-23 -131h160
l24 135q5 28 5 49.5t-2 29.5l-2 7q15 9 52 9q55 0 69.5 -22t4.5 -77l-39 -226q-15 -88 43 -88z" />
    <glyph glyph-name="afii10080" unicode="&#x43e;" horiz-adv-x="531" 
d="M247 500q86 0 135 -52t49 -139q0 -30 -5 -63q33 5 63.5 24.5t44.5 36.5l13 17q21 0 18 -25q-5 -29 -49 -60.5t-100 -38.5q-26 -92 -94.5 -146t-167.5 -54q-82 0 -133 50t-51 141q0 138 75 223.5t202 85.5zM251 306q0 57 51 68q-8 77 -65 77q-41 0 -75.5 -47.5
t-54.5 -152.5q-9 -47 -9 -103q0 -47 17 -72.5t49 -25.5q87 0 125 177q-38 29 -38 79z" />
    <glyph glyph-name="afii10081" unicode="&#x43f;" horiz-adv-x="569" 
d="M296 239l19 110q11 63 -24 63q-48 0 -107 -96.5t-82 -220.5q-5 -28 -5 -49.5t2 -29.5l2 -7q-15 -9 -52 -9q-55 0 -69.5 22t-4.5 77l53 306q5 28 5 49.5t-2 29.5l-2 7q15 9 52 9q55 0 69.5 -22t4.5 -77l-8 -46q34 57 87 101t109 44q47 0 75 -28t28 -75q0 -27 -9 -81
l-24 -141q-16 -88 41 -88q62 0 105 87q23 0 19 -26q-7 -45 -59.5 -96.5t-116.5 -51.5q-56 0 -88.5 34t-32.5 91q0 32 15 114z" />
    <glyph glyph-name="afii10082" unicode="&#x440;" horiz-adv-x="558" 
d="M156 401l-3 -18q65 117 161 117q69 0 106.5 -45.5t37.5 -124.5q0 -42 -8 -84q34 4 65 23.5t45 36.5l14 18q21 0 18 -25q-5 -29 -50 -61t-103 -38q-29 -92 -91.5 -146t-136.5 -54q-70 0 -116 49l-53 -304q-5 -28 -5 -49.5t2 -29.5l2 -7q-15 -9 -52 -9q-55 0 -69.5 22
t-4.5 77l114 656q5 28 5 49.5t-2 29.5l-2 7q15 9 52 9q55 0 69 -21.5t5 -77.5zM278 306q0 25 13.5 44t36.5 24q-9 49 -49 49q-43 0 -93 -79q-52 -83 -74 -195l-7 -38q27 -43 76 -43q41 0 78 44t56 115q-37 29 -37 79z" />
    <glyph glyph-name="afii10083" unicode="&#x441;" 
d="M196 0q-100 0 -163 58t-63 154q0 126 79.5 207t186.5 81q62 0 101.5 -32t39.5 -81q0 -46 -23.5 -75t-62.5 -29q-16 0 -28 6t-16 12l-4 6q4 3 10 10t16.5 32.5t10.5 54.5q0 21 -13 33.5t-33 12.5q-50 0 -92 -62t-42 -156q0 -71 39 -112t108 -41t118 28.5t73 66.5
q22 0 16 -26q-10 -44 -82.5 -96t-175.5 -52z" />
    <glyph glyph-name="afii10084" unicode="&#x442;" horiz-adv-x="805" 
d="M690 87q30 0 57.5 23t47.5 64q23 0 19 -26q-8 -46 -60 -97t-116 -51q-56 0 -88.5 34t-32.5 91q0 26 15 114l19 110q11 63 -24 63q-39 0 -87.5 -95.5t-71.5 -221.5q-5 -28 -5 -49.5t2 -29.5l2 -7q-15 -9 -52 -9q-55 0 -69.5 22t-4.5 77l44 250q12 63 -23 63
q-39 0 -87.5 -92t-72.5 -225q-5 -28 -5 -49.5t2 -29.5l2 -7q-15 -9 -52 -9q-55 0 -69.5 22t-4.5 77l53 306q5 28 5 49.5t-2 29.5l-2 7q15 9 52 9q55 0 69.5 -22t4.5 -77l-4 -24q30 50 72 86.5t89 36.5q48 0 76 -28t28 -76q0 -3 -0.5 -10.5t-0.5 -11.5q28 51 71.5 88.5
t92.5 37.5q47 0 75 -28t28 -75q0 -27 -9 -81l-24 -141q-15 -88 41 -88z" />
    <glyph glyph-name="afii10085" unicode="&#x443;" horiz-adv-x="560" 
d="M441 401l-54 -317q103 41 163 90q10 0 15.5 -6.5t3.5 -16.5q-3 -13 -33 -36q-52 -40 -159 -92l-2 -12q-61 -361 -280 -361q-51 0 -81.5 29t-30.5 76q0 83 84 155q62 53 183 113l21 129q-17 -33 -41 -67q-63 -85 -141 -85q-50 0 -79.5 32t-29.5 84q0 54 12 123l29 166
q5 28 5 49.5t-2 29.5l-2 7q15 9 52 9q55 0 69.5 -22t4.5 -77l-40 -231q-14 -83 33 -83q30 0 74 67q70 108 99 251q5 28 5.5 49.5t-1.5 29.5l-3 7q15 9 52 9q55 0 69.5 -22t4.5 -77zM85 -284q53 0 92.5 62t61.5 182q-98 -51 -141 -92q-59 -57 -59 -107q0 -20 12 -32.5
t34 -12.5z" />
    <glyph glyph-name="afii10086" unicode="&#x444;" horiz-adv-x="828" 
d="M497 731l-61 -346q64 115 155 115q62 0 99.5 -45.5t37.5 -124.5q0 -38 -7 -84q34 4 64.5 23.5t44.5 36.5l14 18q21 0 18 -25q-5 -29 -49.5 -61t-102.5 -38q-27 -93 -88 -146.5t-132 -53.5q-59 0 -114 49l-51 -304q-5 -28 -5 -49.5t2 -29.5l2 -7q-15 -9 -52 -9
q-55 0 -69.5 22t-4.5 77l64 366q-64 -115 -155 -115q-62 0 -99.5 45.5t-37.5 124.5q0 149 71.5 239.5t166.5 90.5q59 0 114 -49l48 284q5 28 5 49.5t-2 29.5l-2 7q15 9 52 9q55 0 69.5 -22t4.5 -77zM229 156q51 81 74 194l8 40q-26 42 -69 42q-58 0 -101 -83.5t-43 -199.5
q0 -72 43 -72q38 0 88 79zM548 306q0 25 13.5 44t36.5 24q-6 49 -41 49q-38 0 -88 -79q-51 -81 -74 -194l-8 -40q26 -42 69 -42q41 0 76 44t53 116q-37 29 -37 78z" />
    <glyph glyph-name="afii10087" unicode="&#x445;" horiz-adv-x="456" 
d="M55 500q41 0 62 -15.5t35 -58.5l39 -119l35 25q68 48 68 130q0 16 -4 29q14 9 38 9q58 0 58 -53q0 -30 -20 -58.5t-72 -66.5l-87 -63l28 -82q30 -90 95 -90q69 0 116 87q23 0 19 -26q-10 -55 -65.5 -101.5t-121.5 -46.5q-62 0 -101.5 34t-63.5 109l-13 39l-20 -14
q-68 -48 -68 -130q0 -16 4 -29q-14 -9 -38 -9q-58 0 -58 53q0 30 20 58.5t72 66.5l73 53l-48 151q-8 27 -16.5 37t-23.5 10l-19 -5q-2 8 -2 13q0 25 22 44t57 19z" />
    <glyph glyph-name="afii10088" unicode="&#x446;" horiz-adv-x="565" 
d="M481 134q7 3 17 3q27 0 27 -27q0 -55 -6 -101.5t-20 -87t-39.5 -64t-60.5 -23.5q-30 0 -46.5 15.5t-16.5 43.5l3 19q46 2 78 37.5t49 94.5q-35 -44 -89 -44q-46 0 -74.5 33t-28.5 89q0 25 1 37q-22 -43 -45 -74q-63 -85 -141 -85q-50 0 -79.5 32t-29.5 84q0 54 12 123
l29 166q5 28 5 49.5t-2 29.5l-2 7q15 9 52 9q55 0 69.5 -22t4.5 -77l-40 -231q-15 -83 33 -83q30 0 74 67q76 115 101 261q4 24 4 43t-2 26l-2 7q15 9 52 9q55 0 69.5 -22t4.5 -77l-39 -226q-15 -88 32 -88q13 0 24.5 11.5t16.5 23.5z" />
    <glyph glyph-name="afii10089" unicode="&#x447;" horiz-adv-x="534" 
d="M10 405q5 28 5 49.5t-2 29.5l-2 7q15 9 52 9q55 0 69.5 -22t4.5 -77l-25 -131q-15 -83 32 -83q36 0 79 66q54 81 67 168q4 25 3.5 40.5t-2.5 22.5l-2 7q15 9 52 9q55 0 69.5 -22t4.5 -77l-39 -226q-15 -88 43 -88q26 0 56 24t49 63q23 0 19 -26q-9 -47 -61 -97.5
t-118 -50.5q-53 0 -85 33t-32 92q0 40 8 91q-64 -116 -162 -116q-50 0 -79 32t-29 84q0 49 25 189z" />
    <glyph glyph-name="afii10090" unicode="&#x448;" horiz-adv-x="805" 
d="M795 174q23 0 19 -26q-9 -47 -61 -97.5t-118 -50.5q-53 0 -85 33t-32 92v6q-16 -30 -25 -44q-28 -43 -59 -65t-76 -22q-50 0 -79.5 32t-29.5 84v15q-9 -19 -25 -44q-28 -43 -59 -65t-76 -22q-50 0 -79.5 32t-29.5 84q0 55 12 123l29 166q5 28 5 49.5t-2 29.5l-2 7
q15 9 52 9q55 0 69.5 -22t4.5 -77l-40 -231q-15 -83 28 -83q34 0 68 64q65 124 88 266q4 27 4 43.5t-2 23.5l-3 7q15 9 52 9q55 0 69.5 -22t4.5 -77l-40 -231q-15 -83 28 -83q34 0 68 64q65 124 88 266q4 27 4 43.5t-3 23.5l-2 7q15 9 52 9q55 0 69.5 -22t4.5 -77l-39 -226
q-15 -88 43 -88q26 0 56 24t49 63z" />
    <glyph glyph-name="afii10091" unicode="&#x449;" horiz-adv-x="809" 
d="M725 134q7 3 17 3q27 0 27 -27q0 -49 -5 -92t-18 -87.5t-39 -70.5t-64 -26q-30 0 -46.5 15.5t-16.5 43.5l3 19q46 2 78 37.5t49 94.5q-35 -44 -89 -44q-46 0 -74.5 33t-28.5 89v9q-16 -30 -25 -44q-28 -43 -59 -65t-76 -22q-50 0 -79.5 32t-29.5 84v15q-16 -30 -25 -44
q-28 -43 -59 -65t-76 -22q-50 0 -79.5 32t-29.5 84q0 54 12 123l29 166q5 28 5 49.5t-2 29.5l-2 7q15 9 52 9q55 0 69.5 -22t4.5 -77l-40 -231q-15 -83 28 -83q34 0 68 64q62 116 88 266q4 27 4 43.5t-2 23.5l-3 7q15 9 52 9q55 0 69.5 -22t4.5 -77l-40 -231q-15 -83 28 -83
q34 0 68 64q62 115 87 263q4 24 4 43.5t-2 26.5l-2 7q15 9 52 9q55 0 69.5 -22t4.5 -77l-39 -226q-15 -88 32 -88q13 0 24.5 11.5t16.5 23.5z" />
    </font>
</defs>
</svg>
