<?xml version="1.0" standalone="no"?>
<!DOCTYPE svg PUBLIC "-//W3C//DTD SVG 1.1//EN" "http://www.w3.org/Graphics/SVG/1.1/DTD/svg11.dtd" >
<svg>
<metadata>
Created by FontForge 20090622 at Fri Apr  7 12:54:34 2017
 By deploy user
Copyright &#194;&#169; 2011 ParaType Inc., ParaType Ltd. All rights reserved.
</metadata>
<defs>
<font id="Circe-Thin" horiz-adv-x="641" >
  <font-face 
    font-family="Circe Thin"
    font-weight="250"
    font-stretch="normal"
    units-per-em="1000"
    panose-1="2 11 2 2 2 2 3 2 2 3"
    ascent="800"
    descent="-200"
    x-height="450"
    cap-height="700"
    bbox="-480 -330 1698 990"
    underline-thickness="50"
    underline-position="-50"
    unicode-range="U+0020-U+FB02"
  />
<missing-glyph horiz-adv-x="250" 
 />
    <glyph glyph-name="uniF350.var.accented" unicode="&#xf350;`" horiz-adv-x="549" 
d="M35 0h-11l249 531h4l248 -531h-11l-97 206h-286zM413 215l-139 298l-139 -298h278zM360 746l7 -6l-109 -141l-8 5z" />
    <glyph glyph-name="uniF355.var.accented" unicode="&#xf355;`" horiz-adv-x="469" 
d="M405 0h-309v525h301v-10h-291v-242h267v-10h-267v-253h299v-10zM340 746l7 -6l-109 -141l-8 5z" />
    <glyph glyph-name="uniF358.var.accented" unicode="&#xf358;`" 
d="M535 510l-429 -510h-10v525h10v-510l429 510h10v-525h-10v510zM400 746l7 -6l-109 -141l-8 5z" />
    <glyph glyph-name="uniF35E.var.accented" unicode="&#xf35e;`" horiz-adv-x="644" 
d="M48 263q0 115 79 191q80 77 195 77t195 -77q79 -76 79 -191q0 -116 -79 -192q-80 -77 -195 -77t-195 77q-79 76 -79 192zM58 263q0 -112 76 -185q77 -74 188 -74q112 0 188 74q76 73 76 185q0 111 -76 184q-77 74 -188 74t-188 -74q-76 -73 -76 -184zM410 746l7 -6
l-109 -141l-8 5z" />
    <glyph glyph-name="uniF363.var.accented" unicode="&#xf363;`" horiz-adv-x="506" 
d="M479 525h11l-198 -409q-30 -63 -56 -89.5t-59 -26.5t-53 14l4 9q23 -14 48 -14q50 0 94 84l12 23l-266 409h11l260 -399zM340 746l7 -6l-109 -141l-8 5z" />
    <glyph glyph-name="uniF36B.var.accented" unicode="&#xf36b;`" horiz-adv-x="646" 
d="M550 0h-10v525h10v-525zM207 295q-54 0 -101 -4v-281q23 0 44 -1t53 -1q98 0 150 38.5t52 111.5q0 66 -51 101.5t-147 35.5zM96 525h10v-224q47 4 99 4q104 0 157 -38t53 -110q0 -77 -56.5 -118t-156.5 -41q-33 0 -56 1t-50 1v525zM390 746l7 -6l-109 -141l-8 5z" />
    <glyph glyph-name="uniF36D.var.accented" unicode="&#xf36d;`" horiz-adv-x="548" 
d="M490 263h-325v10h325q-3 114 -76 181t-194 67q-99 0 -161 -46l-6 7q61 49 167 49q129 0 204 -72q76 -70 76 -194q0 -117 -76 -194q-77 -77 -199 -77q-105 0 -185 55l6 7q79 -52 178 -52q118 0 192 74q72 74 74 185zM330 746l7 -6l-109 -141l-8 5z" />
    <glyph glyph-name="uniF36E.var.accented" unicode="&#xf36e;`" horiz-adv-x="858" 
d="M106 0h-10v525h10v-252h173q3 110 77 184q76 74 188 74q116 0 191 -77t75 -191q0 -115 -75 -192t-191 -77q-115 0 -190 77t-75 192h-173v-263zM289 263q0 -113 72 -186t183 -73q112 0 184 73t72 186q0 111 -72 184q-72 74 -184 74q-111 0 -183 -74q-72 -73 -72 -184z
M441 746l7 -6l-109 -141l-8 5z" />
    <glyph glyph-name="uniF36F.var.accented" unicode="&#xf36f;`" horiz-adv-x="484" 
d="M388 0h-10v220h-152l-181 -220h-13l183 221q-54 9 -97 50q-41 43 -41 97q0 72 52.5 115.5t144.5 43.5q33 0 59 -1t55 -1v-525zM222 230h156v285q-25 0 -49 1q-23 1 -56 1q-90 0 -138 -41t-48 -109q0 -51 41 -90t94 -47zM360 746l7 -6l-109 -141l-8 5z" />
    <glyph glyph-name="uniF371.var.accented" unicode="&#xf371;`" horiz-adv-x="469" 
d="M405 0h-309v525h301v-10h-291v-242h267v-10h-267v-253h299v-10zM145 671q0 12 13 12q11 0 11.5 -12.5t-11.5 -12.5q-13 0 -13 13zM319 671q0 12 13 12q11 0 11.5 -12.5t-11.5 -12.5q-13 0 -13 13zM300 746l7 -6l-109 -141l-8 5z" />
    <glyph glyph-name="afii10017.var.accented" unicode="&#x410;`" horiz-adv-x="685" 
d="M41 0h-11l311 708h3l311 -708h-11l-122 277h-360zM518 287l-176 401l-176 -401h352zM475 840l4 -8l-154 -90l-5 7z" />
    <glyph glyph-name="afii10022.var.accented" unicode="&#x415;`" horiz-adv-x="575" 
d="M505 0h-385v700h375v-10h-365v-328h335v-10h-335v-342h375v-10zM405 840l4 -8l-154 -90l-5 7z" />
    <glyph glyph-name="afii10026.var.accented" unicode="&#x418;`" horiz-adv-x="800" 
d="M670 685l-540 -685h-10v700h10v-685l540 685h10v-700h-10v685zM495 840l4 -8l-154 -90l-5 7z" />
    <glyph glyph-name="afii10032.var.accented" unicode="&#x41e;`" horiz-adv-x="804" 
d="M158 95q-98 104 -98 255t98 255q99 103 244 103q146 0 243 -103q99 -103 99 -255t-99 -255q-97 -103 -243 -103q-145 0 -244 103zM165 598q-95 -101 -95 -248t95 -248q96 -100 237 -100q142 0 236 100q96 101 96 248q0 148 -96 248q-94 100 -236 100q-141 0 -237 -100z
M505 840l4 -8l-154 -90l-5 7z" />
    <glyph glyph-name="afii10037.var.accented" unicode="&#x423;`" horiz-adv-x="631" 
d="M600 700h11l-248 -546q-37 -84 -69 -119t-74 -35t-65 19l4 9q28 -19 60 -19q63 0 119 114l15 31l-333 546h11l327 -536zM445 840l4 -8l-154 -90l-5 7z" />
    <glyph glyph-name="afii10045.var.accented" unicode="&#x42b;`" horiz-adv-x="805" 
d="M685 0h-10v700h10v-700zM257 395q-65 0 -127 -6v-379q29 0 55 -1q27 -1 67 -1q124 0 189.5 51.5t65.5 150.5q0 89 -64 137t-186 48zM120 700h10v-301q76 6 125 6q130 0 196 -51t66 -145q0 -104 -69.5 -157.5t-196.5 -53.5q-40 0 -69 1t-62 1v700zM495 840l4 -8l-154 -90
l-5 7z" />
    <glyph glyph-name="afii10047.var.accented" unicode="&#x42d;`" horiz-adv-x="684" 
d="M614 352h-408v10h408q-3 153 -95 245q-91 91 -244 91q-122 0 -202 -62l-6 7q76 65 208 65q161 0 255 -96q94 -94 94 -258q0 -154 -95 -258t-248 -104q-130 0 -231 73l7 7q100 -70 223 -70q150 0 241 100t93 250zM405 840l4 -8l-154 -90l-5 7z" />
    <glyph glyph-name="afii10048.var.accented" unicode="&#x42e;`" horiz-adv-x="1072" 
d="M130 0h-10v700h10v-338h218q5 149 98 247q93 99 234 99q144 0 238 -103q94 -101 94 -255q0 -153 -94 -256q-94 -102 -238 -102t-238 102q-94 103 -94 256v2h-218v-352zM449 598q-91 -98 -91 -248q0 -149 91 -249q91 -99 231 -99t231 99q91 100 91 249q0 150 -91 248
q-91 100 -231 100t-231 -100zM655 840l4 -8l-154 -90l-5 7z" />
    <glyph glyph-name="afii10049.var.accented" unicode="&#x42f;`" horiz-adv-x="603" 
d="M483 0h-10v295h-192l-227 -295h-14l230 296q-70 12 -122 67t-52 128q0 96 65 153.5t181 57.5q42 0 74 -1t67 -1v-700zM276 305h197v385q-31 0 -61 1q-29 1 -71 1q-114 0 -174.5 -55.5t-60.5 -146.5q0 -70 51 -122q53 -53 119 -63zM475 840l4 -8l-154 -90l-5 7z" />
    <glyph glyph-name="afii10023.var.accented" unicode="&#x401;`" horiz-adv-x="575" 
d="M178 790q0 12 12.5 11.5t12.5 -11.5q0 -13 -12 -13q-13 0 -13 13zM412 790q0 12 12.5 11.5t12.5 -11.5q0 -13 -12 -13q-13 0 -13 13zM405 840l4 -8l-154 -90l-5 7zM505 0h-385v700h375v-10h-365v-328h335v-10h-335v-342h375v-10z" />
    <glyph glyph-name="afii10065.var.accented" unicode="&#x430;`" horiz-adv-x="456" 
d="M89 409l-5 8q67 41 134 41q84 0 121 -43t37 -133v-282h-10v85q-65 -89 -176 -89q-64 0 -102 34.5t-38 90.5q0 64 47 99.5t124 35.5q90 0 145 -40q0 44 -1 57q0 63 -12 93q-18 47 -43 61q-37 21 -94 21q-62 0 -127 -39zM189 6q62 0 103 24t74 71v102q-61 43 -147 43
q-63 0 -112 -32q-47 -32 -47 -92q0 -53 36 -84.5t93 -31.5zM320 706l7 -6l-109 -141l-8 5z" />
    <glyph glyph-name="afii10070.var.accented" unicode="&#x435;`" horiz-adv-x="529" 
d="M446 69l6 -6q-27 -33 -71 -52t-92 -19q-104 0 -169 64q-65 65 -65 169q0 103 56 168q57 65 164 65q88 0 143 -55q56 -56 56 -145q0 -2 -0.5 -11t-0.5 -12h-408q0 -107 60 -170q61 -63 164 -63q98 0 157 67zM271 448q-91 0 -146 -55.5t-60 -147.5h399q1 91 -52 148
q-52 55 -141 55zM355 706l7 -6l-109 -141l-8 5z" />
    <glyph glyph-name="afii10074.var.accented" unicode="&#x438;`" horiz-adv-x="560" 
d="M460 435l-360 -435h-10v450h10v-435l360 435h10v-450h-10v435zM360 706l7 -6l-109 -141l-8 5z" />
    <glyph glyph-name="afii10080.var.accented" unicode="&#x43e;`" horiz-adv-x="570" 
d="M120 58q-65 67 -65 167t65 167q64 66 165 66t165 -66q65 -67 65 -167t-65 -167q-64 -66 -165 -66t-165 66zM126 385q-61 -61 -61 -160t61 -161q62 -62 159 -62q96 0 158 62q62 64 62 161q0 98 -62 160q-61 63 -158 63t-159 -63zM365 706l7 -6l-109 -141l-8 5z" />
    <glyph glyph-name="afii10085.var.accented" unicode="&#x443;`" horiz-adv-x="466" 
d="M435 450h11l-185 -450q-48 -116 -84 -158t-82 -42q-29 0 -64 15l4 9q35 -15 58 -15q42 0 76.5 39t71.5 128l10 24l-231 450h11l187 -366l38 -74l31 76zM340 706l7 -6l-109 -141l-8 5z" />
    <glyph glyph-name="afii10093.var.accented" unicode="&#x44b;`" horiz-adv-x="590" 
d="M181 0h-91v450h10v-175h84q94 0 136 -35t42 -103q0 -137 -181 -137zM184 265h-84v-255h83q89 0 129 32t40 96q0 127 -168 127zM500 0h-10v450h10v-450zM370 706l7 -6l-109 -141l-8 5z" />
    <glyph glyph-name="afii10095.var.accented" unicode="&#x44d;`" horiz-adv-x="492" 
d="M427 225h-261v10h261q-4 96 -66 155q-61 58 -158 58q-98 0 -157 -67l-6 6q27 33 71 52t92 19q104 0 168 -64q66 -64 66 -169q0 -99 -63 -166t-155 -67q-111 0 -170 53l6 9q58 -52 162 -52q87 0 148 64q62 65 62 159zM303 706l7 -6l-109 -141l-8 5z" />
    <glyph glyph-name="afii10096.var.accented" unicode="&#x44e;`" horiz-adv-x="735" 
d="M100 0h-10v450h10v-215h140q3 99 64 160q62 63 156 63q96 0 158 -66q62 -65 62 -167q0 -101 -62 -168q-62 -65 -158 -65t-158 65q-62 67 -62 168h-140v-225zM308 385q-58 -61 -58 -160t58 -161q59 -62 152 -62q92 0 151 62q59 64 59 161q0 98 -59 160q-59 63 -151 63
q-94 0 -152 -63zM450 706l7 -6l-109 -141l-8 5z" />
    <glyph glyph-name="afii10097.var.accented" unicode="&#x44f;`" horiz-adv-x="471" 
d="M256 450h125v-450h-10v195h-149l-158 -195h-14l159 195q-49 5 -87 39q-37 34 -37 85q0 131 171 131zM95 320q0 -50 39 -83q40 -32 79 -32h158v235h-117q-79 0 -119 -32t-40 -88zM370 706l7 -6l-109 -141l-8 5z" />
    <glyph glyph-name="afii10071.var.accented" unicode="&#x451;`" horiz-adv-x="529" 
d="M146 631q0 8 8 11t13 -3q6 -5 3 -13t-11 -8q-13 0 -13 13zM360 631q0 8 8 11t13 -3q6 -5 3 -13t-11 -8q-13 0 -13 13zM325 706l7 -6l-109 -141l-8 5zM446 69l6 -6q-27 -33 -71 -52t-92 -19q-104 0 -169 64q-65 65 -65 169q0 103 56 168q57 65 164 65q88 0 143 -55
q56 -56 56 -145q0 -2 -0.5 -11t-0.5 -12h-408q0 -107 60 -170q61 -63 164 -63q98 0 157 67zM271 448q-91 0 -146 -55.5t-60 -147.5h399q1 91 -52 148q-52 55 -141 55z" />
    <glyph glyph-name="fi" unicode="fi" horiz-adv-x="481" 
d="M379 0h-10v440h-249v-440h-10v523q0 91 41.5 138t119.5 47q64 0 110 -35l-6 -9q-46 34 -104 34q-151 0 -151 -184v-64h259v-450z" />
    <glyph glyph-name="fl" unicode="fl" horiz-adv-x="544" 
d="M363 111v554q-45 33 -102 33q-72 0 -106.5 -44.5t-34.5 -139.5v-64h145v-10h-145v-440h-10v523q0 185 151 185q64 0 110 -35h2v-547q0 -63 18.5 -91t62.5 -28q43 0 74 24l6 -9q-34 -25 -80 -25q-48 0 -69.5 28t-21.5 86z" />
    <glyph glyph-name=".notdef" horiz-adv-x="250" 
 />
    <glyph glyph-name=".null" horiz-adv-x="0" 
 />
    <glyph glyph-name="nonmarkingreturn" horiz-adv-x="333" 
 />
    <glyph glyph-name="space" unicode=" " horiz-adv-x="250" 
 />
    <glyph glyph-name="exclam" unicode="!" horiz-adv-x="310" 
d="M160 160h-10v540h10v-540zM142 13q0 8 8 11t13 -3q6 -5 3 -13t-11 -8q-13 0 -13 13z" />
    <glyph glyph-name="quotedbl" unicode="&#x22;" horiz-adv-x="380" 
d="M260 515h-10v185h10v-185zM130 515h-10v185h10v-185z" />
    <glyph glyph-name="numbersign" unicode="#" horiz-adv-x="664" 
d="M335 -8l-10 4l85 229h-249l-86 -233l-10 4l85 229h-110v10h113l86 230h-199v10h203l87 233l9 -3l-85 -230h249l87 233l9 -3l-85 -230h110v-10h-114l-85 -230h199v-10h-203zM499 465h-249l-85 -230h248z" />
    <glyph glyph-name="dollar" unicode="$" horiz-adv-x="584" 
d="M493 167q0 117 -139 168q-76 28 -115 41q-138 51 -138 168q0 73 51.5 118t141.5 46v82h10v-82q51 -1 99 -20t75 -49l-7 -7q-63 66 -177 66q-83 0 -133 -42t-50 -111q0 -54 29 -91t72.5 -54.5l94.5 -37t94.5 -38.5t72.5 -59t29 -98q0 -75 -57 -122q-57 -48 -142 -52v-93
h-10v92h-7q-60 0 -120 27q-60 28 -85 69l8 7q33 -43 86 -68q54 -25 109 -25q85 0 146 43q62 44 62 122z" />
    <glyph glyph-name="percent" unicode="%" horiz-adv-x="809" 
d="M104 439q-44 44 -44 109t44 109q44 43 111 43t110 -43q45 -43 45 -109t-45 -109q-43 -43 -110 -43t-111 43zM70 548q0 -61 44 -102q43 -40 101 -40q59 0 102 40t43 102q0 61 -44 102q-43 40 -101 40q-59 0 -102 -40t-43 -102zM483 43q-44 44 -44 109t44 109q44 43 111 43
t110 -43q45 -43 45 -109t-45 -109q-43 -43 -110 -43t-111 43zM449 152q0 -61 44 -102q43 -40 101 -40q59 0 102 40t43 102q0 61 -44 102q-43 40 -101 40q-59 0 -102 -40t-43 -102zM147 -8l-8 7l531 709l8 -5z" />
    <glyph glyph-name="ampersand" unicode="&#x26;" horiz-adv-x="726" 
d="M646 0h-13l-102 129q-89 -137 -234 -137q-86 0 -147 56q-60 56 -60 142q0 138 187 259q-50 5 -83 41.5t-33 87.5q0 54 38 92t92 38t92 -38t38 -92t-38 -92t-92 -38l239 -302q78 131 78 304h10q0 -182 -81 -313zM296 2q142 0 228 135l-242 305q-182 -125 -182 -251
q0 -85 58 -137t138 -52zM206 663q-35 -35 -35 -85t35 -85q37 -35 85 -35q49 0 84 35q36 35 36 85t-36 85q-35 35 -84 35q-48 0 -85 -35z" />
    <glyph glyph-name="quotesingle" unicode="'" horiz-adv-x="250" 
d="M130 515h-10v185h10v-185z" />
    <glyph glyph-name="parenleft" unicode="(" horiz-adv-x="250" 
d="M250 -200l-8 -6q-202 174 -202 431q0 248 203 431l7 -6q-200 -183 -200 -425q0 -254 200 -425z" />
    <glyph glyph-name="parenright" unicode=")" horiz-adv-x="250" 
d="M8 -206l-8 6q200 171 200 425q0 242 -200 425l7 6q203 -183 203 -431q0 -257 -202 -431z" />
    <glyph glyph-name="asterisk" unicode="*" horiz-adv-x="432" 
d="M206 695q0 13 13 13t13 -13q0 -12 -13 -12t-13 12zM205 462q0 13 13 13q12 0 12 -13q0 -12 -12 -12q-13 0 -13 12zM317 650q13 0 13 -13t-13 -13q-12 0 -12 13t12 13zM305 528q0 13 12 13q13 0 13 -13q0 -12 -13 -12q-12 0 -12 12zM102 528q0 13 13 13q12 0 12 -13
q0 -12 -12 -12q-13 0 -13 12zM115 650q12 0 12 -13t-12 -13q-13 0 -13 13t13 13z" />
    <glyph glyph-name="plus" unicode="+" horiz-adv-x="584" 
d="M286 355h-211v10h211v211h10v-211h213v-10h-213v-213h-10v213z" />
    <glyph glyph-name="comma" unicode="," horiz-adv-x="166" 
d="M69 12q0 13 16 13t28.5 -19.5t12.5 -48.5q0 -38 -23 -67t-55 -38l-3 8q28 7 49.5 34t21.5 61q0 42 -23 56q-2 -11 -12 -11q-12 0 -12 12z" />
    <glyph glyph-name="hyphen" unicode="-" horiz-adv-x="414" 
d="M314 265h-214v10h214v-10z" />
    <glyph glyph-name="period" unicode="." horiz-adv-x="145" 
d="M60 13q0 8 8 11t13 -3q6 -5 3 -13t-11 -8q-13 0 -13 13z" />
    <glyph glyph-name="slash" unicode="/" horiz-adv-x="289" 
d="M-20 -208l-10 4l340 912l9 -3z" />
    <glyph glyph-name="zero" unicode="0" horiz-adv-x="584" 
d="M504 350q0 -104 -20 -184q-21 -80 -69.5 -127t-120.5 -47q-110 0 -162 97t-52 261q0 162 51 260q53 98 161 98q109 0 160 -98q52 -97 52 -260zM90 350q0 -160 49 -254t155 -94t152 94q48 94 48 254t-49 254q-48 94 -153 94t-154 -94q-48 -94 -48 -254z" />
    <glyph glyph-name="one" unicode="1" horiz-adv-x="361" 
d="M67 580l-7 7l146 121h5v-708h-10v691z" />
    <glyph glyph-name="two" unicode="2" horiz-adv-x="532" 
d="M462 0h-402v10l82 82q40 42 91 101q55 64 93 119q34 49 64 116q28 63 28 114q0 63 -43 109q-44 47 -121 47q-60 0 -112 -37q-51 -37 -61 -112h-10q7 77 63 117q56 42 117 42q87 0 132 -50t45 -114q0 -192 -354 -534h388v-10z" />
    <glyph glyph-name="three" unicode="3" horiz-adv-x="535" 
d="M253 -8q-67 0 -118 30.5t-75 93.5l9 4q24 -59 74 -88.5t114 -29.5q84 0 136 52t52 133q0 73 -49 119q-49 47 -117 47h-67v10h60q55 0 100 51q46 50 46 122q0 77 -44 119.5t-120 42.5q-126 0 -166 -111l-9 2q16 54 63.5 86.5t110.5 32.5q83 0 129 -46t46 -129
q0 -53 -31 -102q-30 -49 -83 -69v-3q63 -7 102 -59q39 -50 39 -113q0 -88 -57 -142q-58 -53 -145 -53z" />
    <glyph glyph-name="four" unicode="4" horiz-adv-x="520" 
d="M368 0h-10v200h-328v2l330 498h12l-325 -490h311v240h10v-240h112v-10h-112v-200z" />
    <glyph glyph-name="five" unicode="5" horiz-adv-x="521" 
d="M135 388l40 312h286v-10h-278l-37 -288q45 14 88 14q98 0 160 -57t62 -149q0 -97 -60 -158q-58 -60 -140 -60q-136 0 -196 118l9 4q28 -54 79 -83t108 -29q79 0 135 59q55 59 55 149q0 84 -59 140t-152 56q-51 0 -100 -18z" />
    <glyph glyph-name="six" unicode="6" horiz-adv-x="544" 
d="M60 248q0 91 29 174t78 141q100 120 225 145l5 -8q-115 -25 -210 -127q-100 -112 -117 -294q22 65 77 106t130 41q95 0 151 -60q56 -61 56 -157q0 -88 -59 -153q-58 -64 -137 -64q-112 0 -170 73t-58 183zM70 249q0 -100 56 -174q55 -73 160 -73q76 0 132 60
q56 62 56 146q0 91 -52 149q-53 59 -146 59q-83 0 -138 -52q-54 -51 -68 -115z" />
    <glyph glyph-name="seven" unicode="7" horiz-adv-x="460" 
d="M405 690h-365v10h380v-2l-279 -698h-12z" />
    <glyph glyph-name="eight" unicode="8" horiz-adv-x="585" 
d="M273 365h39q56 0 106 48t50 117q0 77 -54 122q-52 46 -123 46q-70 0 -122 -46q-52 -45 -52 -122q0 -69 49 -117q50 -48 107 -48zM310 355h-32q-78 0 -133 -51t-55 -123q0 -77 60 -128q62 -51 142 -51q83 0 142 49q61 49 61 130q0 79 -54 126q-54 48 -131 48zM80 181
q0 62 42 113q43 51 115 64v3q-55 13 -93 63q-37 49 -37 103q0 81 53 131q55 50 132 50q78 0 132 -51q54 -49 54 -130q0 -54 -35.5 -100.5t-94.5 -64.5v-3q70 -8 113 -57q44 -50 44 -121q0 -85 -64 -137q-62 -52 -148 -52q-85 0 -149 52t-64 137z" />
    <glyph glyph-name="nine" unicode="9" horiz-adv-x="544" 
d="M484 452q0 -190 -93 -314q-92 -123 -239 -146l-5 8q138 22 228 134q90 113 99 287q-21 -62 -76 -99.5t-131 -37.5q-94 0 -151 62q-56 62 -56 150t63 150q64 62 143 62q110 0 164 -73q54 -72 54 -183zM474 451q0 104 -52 175q-51 72 -154 72q-76 0 -138 -59
q-60 -59 -60 -142q0 -84 52 -143q52 -60 146 -60q83 0 138 47q54 47 68 110z" />
    <glyph glyph-name="colon" unicode=":" horiz-adv-x="325" 
d="M150 446q0 12 12.5 11.5t12.5 -11.5q0 -13 -12 -13q-13 0 -13 13zM150 13q0 8 8 11t13 -3q6 -5 3 -13t-11 -8q-13 0 -13 13z" />
    <glyph glyph-name="semicolon" unicode=";" horiz-adv-x="326" 
d="M150 446q0 12 12.5 11.5t12.5 -11.5q0 -13 -12 -13q-13 0 -13 13zM149 12q0 13 16 13t28.5 -19.5t12.5 -48.5q0 -38 -23 -67t-55 -38l-3 8q28 7 49.5 34t21.5 61q0 42 -23 56q-2 -11 -12 -11q-12 0 -12 12z" />
    <glyph glyph-name="less" unicode="&#x3c;" horiz-adv-x="584" 
d="M464 116v-12l-389 256v4l389 254v-12l-374 -244z" />
    <glyph glyph-name="equal" unicode="=" horiz-adv-x="584" 
d="M509 435h-434v10h434v-10zM509 275h-434v10h434v-10z" />
    <glyph glyph-name="greater" unicode="&#x3e;" horiz-adv-x="584" 
d="M509 364v-4l-389 -256v12l374 246l-374 244v12z" />
    <glyph glyph-name="question" unicode="?" horiz-adv-x="451" 
d="M401 540q0 69 -50 113q-49 45 -128 45q-107 0 -175 -93l-8 4q27 44 77.5 71.5t107.5 27.5q87 0 136 -48q50 -48 50 -119q0 -62 -28.5 -100t-79.5 -73q-31 -22 -41.5 -30t-31 -28.5t-28 -42t-7.5 -48.5q0 -14 5 -44l-9 -3q-6 27 -6 48q0 36 16 65.5t40 48l52 39.5t52 41
t40 52.5t16 73.5zM178 13q0 8 8 11t13 -3q6 -5 3 -13t-11 -8q-13 0 -13 13z" />
    <glyph glyph-name="at" unicode="@" horiz-adv-x="1026" 
d="M721 0h-32v75q-28 -36 -76 -59.5t-96 -23.5q-103 0 -164 63q-61 64 -61 170q0 98 70 165q71 68 173 68q94 0 164 -46v-402h22q99 0 157 76t58 178q0 168 -118 276t-295 108q-187 0 -310 -123t-123 -300t123 -300t310 -123q57 0 108 12l5 -9q-56 -13 -113 -13
q-192 0 -318 126q-125 125 -125 307t125 307q126 126 318 126q183 0 303 -111q120 -110 120 -281q0 -68 -24 -127q-24 -62 -77.5 -100.5t-123.5 -38.5zM517 2q52 0 101 28q51 30 71 59v317q-67 42 -155 42q-94 0 -164 -65q-68 -65 -68 -158q0 -102 58 -163q58 -60 157 -60z
" />
    <glyph glyph-name="A" unicode="A" horiz-adv-x="685" 
d="M41 0h-11l311 708h3l311 -708h-11l-122 277h-360zM518 287l-176 401l-176 -401h352z" />
    <glyph glyph-name="B" unicode="B" horiz-adv-x="617" 
d="M120 0v700q39 0 80 1q42 1 92 1q215 0 215 -172q0 -72 -47 -116t-113 -51v-2q92 -7 141 -51.5t49 -120.5q0 -96 -64 -143.5t-178 -47.5q-51 0 -93 1t-82 1zM294 355h-164v-345q36 0 75 -1q40 -1 87 -1q113 0 174 46t61 136q0 78 -61 121.5t-172 43.5zM290 692
q-72 0 -160 -2v-325h172q83 0 138 46q57 47 57 120q0 81 -50 121t-157 40z" />
    <glyph glyph-name="C" unicode="C" horiz-adv-x="657" 
d="M611 75l6 -8q-36 -35 -94 -55t-119 -20q-154 0 -249 98t-95 260q0 153 93 255q93 103 240 103q131 0 211 -63l-7 -7q-74 60 -203 60q-144 0 -234 -100t-90 -248q0 -156 92 -253q93 -95 242 -95q122 0 207 73z" />
    <glyph glyph-name="D" unicode="D" horiz-adv-x="734" 
d="M125 0h-5v700h10q41 0 70 1q60 2 81 2q204 0 302 -104q91 -95 91 -237q0 -158 -104 -262q-104 -102 -297 -102q-45 0 -76 1t-72 1zM279 693q-20 0 -80 -2q-30 -1 -69 -1v-680l144 -2q189 0 289 100q101 101 101 254q0 144 -95 237q-94 94 -290 94z" />
    <glyph glyph-name="E" unicode="E" horiz-adv-x="575" 
d="M505 0h-385v700h375v-10h-365v-328h335v-10h-335v-342h375v-10z" />
    <glyph glyph-name="F" unicode="F" horiz-adv-x="545" 
d="M130 0h-10v700h385v-10h-375v-348h345v-10h-345v-332z" />
    <glyph glyph-name="G" unicode="G" horiz-adv-x="727" 
d="M647 303h-229v10h239v-226q-45 -45 -119 -70q-72 -25 -143 -25q-147 0 -242 98q-93 98 -93 260q0 153 93 255q93 103 240 103q131 0 211 -63l-7 -7q-74 60 -203 60q-144 0 -234 -100t-90 -248q0 -157 90 -253q92 -95 237 -95q69 0 138 24q69 23 112 65v212z" />
    <glyph glyph-name="H" unicode="H" horiz-adv-x="775" 
d="M655 0h-10v352h-515v-352h-10v700h10v-338h515v338h10v-700z" />
    <glyph glyph-name="I" unicode="I" horiz-adv-x="310" 
d="M160 0h-10v700h10v-700z" />
    <glyph glyph-name="J" unicode="J" horiz-adv-x="341" 
d="M211 700h10v-553q0 -79 -27 -117t-94 -38q-46 0 -80 25l6 9q32 -24 74 -24q62 0 86.5 35.5t24.5 108.5v554z" />
    <glyph glyph-name="K" unicode="K" horiz-adv-x="614" 
d="M549 700h14l-361 -335l372 -365h-15l-372 365zM130 0h-10v700h10v-700z" />
    <glyph glyph-name="L" unicode="L" horiz-adv-x="555" 
d="M535 0h-415v700h10v-690h405v-10z" />
    <glyph glyph-name="M" unicode="M" horiz-adv-x="872" 
d="M130 0h-10v700h11l310 -422l300 422h11v-700h-10v686l-300 -423h-3l-309 420v-683z" />
    <glyph glyph-name="N" unicode="N" horiz-adv-x="800" 
d="M680 700v-700h-8l-542 680v-680h-10v700h8l542 -682v682h10z" />
    <glyph glyph-name="O" unicode="O" horiz-adv-x="804" 
d="M158 95q-98 104 -98 255t98 255q99 103 244 103q146 0 243 -103q99 -103 99 -255t-99 -255q-97 -103 -243 -103q-145 0 -244 103zM165 598q-95 -101 -95 -248t95 -248q96 -100 237 -100q142 0 236 100q96 101 96 248q0 148 -96 248q-94 100 -236 100q-141 0 -237 -100z
" />
    <glyph glyph-name="P" unicode="P" horiz-adv-x="567" 
d="M130 300v-300h-10v700q39 0 78 1t74 1q67 0 115 -17.5t73 -47.5t36 -63.5t11 -73.5q0 -86 -60 -146q-61 -59 -185 -59q-47 0 -132 5zM273 692q-55 0 -143 -2v-380q85 -5 131 -5q114 0 175 53.5t61 142.5q0 88 -56 139.5t-168 51.5z" />
    <glyph glyph-name="Q" unicode="Q" horiz-adv-x="804" 
d="M744 350q0 -171 -124 -279l60 -71h-15l-53 64q-93 -72 -210 -72q-145 0 -244 103q-98 104 -98 255t98 255q99 103 244 103q146 0 243 -103q99 -103 99 -255zM402 2q118 0 204 70l-62 76l7 7l63 -76q120 101 120 271q0 148 -96 248q-94 100 -236 100q-141 0 -237 -100
q-95 -101 -95 -248t95 -248q96 -100 237 -100z" />
    <glyph glyph-name="R" unicode="R" horiz-adv-x="613" 
d="M130 315v-315h-10v700q40 0 76 1t62 1q239 0 239 -192q0 -68 -51 -123q-49 -55 -135 -70l262 -317h-14l-260 315h-169zM257 692q-39 0 -127 -2v-365h148q80 0 144 54q65 54 65 132q0 181 -230 181z" />
    <glyph glyph-name="S" unicode="S" horiz-adv-x="541" 
d="M471 167q0 117 -139 168q-76 28 -115 41q-138 51 -138 168q0 74 52.5 119t143.5 45q54 0 103.5 -19t77.5 -50l-7 -7q-63 66 -177 66q-83 0 -133 -42t-50 -111q0 -54 29 -91t72.5 -54.5l94.5 -37t94.5 -38.5t72.5 -59t29 -98q0 -79 -62 -127q-61 -48 -154 -48
q-60 0 -120 27q-60 28 -85 69l8 7q33 -43 86 -68q54 -25 109 -25q85 0 146 43q62 44 62 122z" />
    <glyph glyph-name="T" unicode="T" horiz-adv-x="590" 
d="M290 690h-280v10h570v-10h-280v-690h-10v690z" />
    <glyph glyph-name="U" unicode="U" horiz-adv-x="751" 
d="M631 700h10v-405q0 -152 -73 -226q-72 -75 -183 -75q-122 0 -199 80q-76 79 -76 228v398h10v-399q0 -141 74 -220q74 -77 191 -77q108 0 177 73t69 221v402z" />
    <glyph glyph-name="V" unicode="V" horiz-adv-x="656" 
d="M625 700h11l-303 -708h-3l-310 708h11l301 -690z" />
    <glyph glyph-name="W" unicode="W" horiz-adv-x="940" 
d="M909 700h11l-207 -700h-3l-238 676l-232 -676h-3l-217 700h11l208 -671l231 671h4l237 -672z" />
    <glyph glyph-name="X" unicode="X" horiz-adv-x="654" 
d="M592 700h13l-271 -344l280 -356h-13l-274 348l-274 -348h-13l281 356l-270 344h13l263 -335z" />
    <glyph glyph-name="Y" unicode="Y" horiz-adv-x="554" 
d="M521 700h13l-253 -385v-315h-10v315l-251 385h13l243 -375z" />
    <glyph glyph-name="Z" unicode="Z" horiz-adv-x="620" 
d="M551 690h-491v10h510v-2l-512 -688h522v-10h-540v2z" />
    <glyph glyph-name="bracketleft" unicode="[" horiz-adv-x="260" 
d="M260 -200h-200v850h200v-10h-190v-830h190v-10z" />
    <glyph glyph-name="backslash" unicode="\" horiz-adv-x="289" 
d="M-30 705l9 3l340 -912l-10 -4z" />
    <glyph glyph-name="bracketright" unicode="]" horiz-adv-x="260" 
d="M0 650h200v-850h-200v10h190v830h-190v10z" />
    <glyph glyph-name="asciicircum" unicode="^" horiz-adv-x="462" 
d="M72 450h-12l170 258h4l168 -258h-12l-158 243z" />
    <glyph glyph-name="underscore" unicode="_" horiz-adv-x="250" 
d="M250 -200h-250v10h250v-10z" />
    <glyph glyph-name="grave" unicode="`" horiz-adv-x="237" 
d="M177 564l-8 -5l-109 141l7 6z" />
    <glyph glyph-name="a" unicode="a" horiz-adv-x="456" 
d="M89 409l-5 8q67 41 134 41q84 0 121 -43t37 -133v-282h-10v85q-65 -89 -176 -89q-64 0 -102 34.5t-38 90.5q0 64 47 99.5t124 35.5q90 0 145 -40q0 44 -1 57q0 63 -12 93q-18 47 -43 61q-37 21 -94 21q-62 0 -127 -39zM189 6q62 0 103 24t74 71v102q-61 43 -147 43
q-63 0 -112 -32q-47 -32 -47 -92q0 -53 36 -84.5t93 -31.5z" />
    <glyph glyph-name="b" unicode="b" horiz-adv-x="551" 
d="M90 48v652h10v-324q30 36 80 58q51 24 101 24q100 0 157 -63q58 -61 58 -163q0 -109 -67 -175q-67 -65 -170 -65q-104 0 -169 56zM281 448q-55 0 -107 -27q-51 -27 -74 -59v-310q71 -50 160 -50q96 0 161 62t65 165q0 100 -55 159.5t-150 59.5z" />
    <glyph glyph-name="c" unicode="c" horiz-adv-x="492" 
d="M446 69l6 -6q-27 -33 -71 -52t-92 -19q-104 0 -169 64q-65 65 -65 169q0 97 63 165t155 68q111 0 170 -53l-6 -9q-58 52 -162 52q-87 0 -149 -65q-61 -64 -61 -158q0 -100 62 -162q62 -61 162 -61q98 0 157 67z" />
    <glyph glyph-name="d" unicode="d" horiz-adv-x="552" 
d="M462 0h-10v76q-28 -36 -76 -60t-96 -24q-102 0 -164 63q-61 64 -61 170q0 103 69 167q70 66 174 66q90 0 154 -48v290h10v-700zM280 2q51 0 100 28q48 28 72 61v307q-71 50 -155 50q-99 0 -166 -63q-66 -63 -66 -160q0 -102 58 -163q59 -60 157 -60z" />
    <glyph glyph-name="e" unicode="e" horiz-adv-x="529" 
d="M446 69l6 -6q-27 -33 -71 -52t-92 -19q-104 0 -169 64q-65 65 -65 169q0 103 56 168q57 65 164 65q88 0 143 -55q56 -56 56 -145q0 -2 -0.5 -11t-0.5 -12h-408q0 -107 60 -170q61 -63 164 -63q98 0 157 67zM271 448q-91 0 -146 -55.5t-60 -147.5h399q1 91 -52 148
q-52 55 -141 55z" />
    <glyph glyph-name="f" unicode="f" horiz-adv-x="341" 
d="M120 0h-10v523q0 185 151 185q64 0 110 -35l-6 -9q-46 34 -104 34q-72 0 -106.5 -44.5t-34.5 -139.5v-64h205v-10h-205v-440z" />
    <glyph glyph-name="g" unicode="g" horiz-adv-x="484" 
d="M20 -71q0 51 37 85t104 46q-18 18 -18 49q0 28 20 51q-44 18 -69 56t-25 86q0 68 47 112t122 44q67 0 113 -37l123 37v-10l-115 -34q48 -45 48 -112q0 -68 -47 -112t-122 -44q-39 0 -66 10q-19 -18 -19 -47t21 -47q37 5 65 5q101 0 160 -36.5t59 -101.5t-59 -101
t-160 -36q-102 0 -160.5 36t-58.5 101zM88 23q-58 -34 -58 -94t57 -93q58 -34 152 -34q95 0 151 34q58 33 58 93t-58 94t-151 34t-151 -34zM124 406q-45 -40 -45 -104q0 -63 45 -105q46 -41 114 -41t114 41q45 42 45 105q0 64 -45 104q-45 42 -114 42t-114 -42z" />
    <glyph glyph-name="h" unicode="h" horiz-adv-x="554" 
d="M100 0h-10v700h10v-324q30 36 81 58q53 24 102 24q98 0 144.5 -50t46.5 -156v-252h-10v249q0 102 -44 150.5t-137 48.5q-55 0 -108 -27q-52 -27 -75 -59v-362z" />
    <glyph glyph-name="i" unicode="i" horiz-adv-x="250" 
d="M130 0h-10v450h10v-450zM113 633q0 12 13 12q11 0 11.5 -12.5t-11.5 -12.5q-13 0 -13 13z" />
    <glyph glyph-name="j" unicode="j" horiz-adv-x="251" 
d="M121 450h10v-483q0 -175 -141 -175q-46 0 -80 25l6 9q32 -24 74 -24q131 0 131 164v484zM112 633q0 8 8 11t13 -3q6 -5 3 -13t-11 -8q-13 0 -13 13z" />
    <glyph glyph-name="k" unicode="k" horiz-adv-x="445" 
d="M383 450h16l-237 -215l255 -235h-17l-253 235zM100 0h-10v700h10v-700z" />
    <glyph glyph-name="l" unicode="l" horiz-adv-x="271" 
d="M90 111v589h10v-574q0 -63 18.5 -91t62.5 -28q43 0 74 24l6 -9q-34 -25 -80 -25q-48 0 -69.5 27.5t-21.5 86.5z" />
    <glyph glyph-name="m" unicode="m" horiz-adv-x="808" 
d="M728 296v-296h-10v293q0 155 -139 155q-110 0 -168 -91q3 -12 3 -30v-327h-10v325q0 55 -37.5 89t-101.5 34q-51 0 -95.5 -24.5t-69.5 -61.5v-362h-10v450h10v-72q26 36 71.5 58t93.5 22q54 0 92 -23.5t51 -66.5q23 39 72 65q49 25 99 25q149 0 149 -162z" />
    <glyph glyph-name="n" unicode="n" horiz-adv-x="554" 
d="M100 0h-10v450h10v-74q30 36 81 58q53 24 102 24q98 0 144.5 -50t46.5 -156v-252h-10v249q0 102 -44 150.5t-137 48.5q-55 0 -108 -27q-52 -27 -75 -59v-362z" />
    <glyph glyph-name="o" unicode="o" horiz-adv-x="570" 
d="M120 58q-65 67 -65 167t65 167q64 66 165 66t165 -66q65 -67 65 -167t-65 -167q-64 -66 -165 -66t-165 66zM126 385q-61 -61 -61 -160t61 -161q62 -62 159 -62q96 0 158 62q62 64 62 161q0 98 -62 160q-61 63 -158 63t-159 -63z" />
    <glyph glyph-name="p" unicode="p" horiz-adv-x="551" 
d="M100 -200h-10v650h10v-71q29 35 79.5 57t101.5 22q100 0 157 -63q58 -61 58 -163q0 -104 -63 -172t-164 -68q-104 0 -169 50v-242zM281 448q-53 0 -107 -26q-52 -26 -74 -57v-310q73 -53 170 -53q95 0 155 63q61 64 61 164t-55 159.5t-150 59.5z" />
    <glyph glyph-name="q" unicode="q" horiz-adv-x="552" 
d="M462 -200h-10v272q-27 -34 -75.5 -57t-96.5 -23q-102 0 -164 63q-61 64 -61 170q0 98 70 165q71 68 173 68q94 0 164 -46v-612zM280 2q51 0 101 26q51 28 71 58v320q-68 42 -155 42q-94 0 -164 -65q-68 -65 -68 -158q0 -102 58 -163q59 -60 157 -60z" />
    <glyph glyph-name="r" unicode="r" horiz-adv-x="313" 
d="M100 0h-10v450h10v-70q48 78 133 78q47 0 70 -17l-3 -10q-29 17 -67 17q-77 0 -133 -86v-362z" />
    <glyph glyph-name="s" unicode="s" horiz-adv-x="401" 
d="M331 111q0 72 -91 101q-2 1 -22 7t-24 7.5t-22 7.5t-23 9.5t-19.5 11t-19.5 13.5t-14.5 15.5t-13 19t-6.5 22t-3 26.5q0 48 36 77.5t95 29.5q35 0 68.5 -12.5t51.5 -32.5l-7 -8q-42 43 -115 43q-52 0 -85.5 -27.5t-33.5 -68.5q0 -42 26.5 -68.5t64.5 -39l76 -25t64.5 -39
t26.5 -68.5q0 -56 -40 -88t-104 -32q-37 0 -80 17q-42 16 -57 41l9 6q17 -23 54 -38.5t73 -15.5q57 0 96 29.5t39 79.5z" />
    <glyph glyph-name="t" unicode="t" horiz-adv-x="341" 
d="M80 171v404h10v-125h205v-10h-205v-260q0 -89 31.5 -131.5t99.5 -42.5q43 0 74 24l6 -9q-34 -25 -80 -25q-73 0 -107 43t-34 132z" />
    <glyph glyph-name="u" unicode="u" horiz-adv-x="550" 
d="M450 450h10v-450h-10v83q-31 -37 -84 -64q-52 -27 -105 -27q-93 0 -137 50t-44 156v252h10v-249q0 -102 41.5 -150.5t131.5 -48.5q57 0 110 30t77 65v353z" />
    <glyph glyph-name="v" unicode="v" horiz-adv-x="466" 
d="M435 450h11l-209 -458h-3l-214 458h11l160 -344l45 -96l45 100z" />
    <glyph glyph-name="w" unicode="w" horiz-adv-x="676" 
d="M645 450h11l-149 -458h-3l-143 378l-22 59l-23 -63l-139 -374h-3l-154 458h11l122 -362l23 -69l26 69l135 362h4l137 -360l27 -72l25 77z" />
    <glyph glyph-name="x" unicode="x" horiz-adv-x="477" 
d="M414 450h13l-182 -219l192 -231h-13l-186 223l-185 -223h-13l192 231l-182 219h13l175 -211z" />
    <glyph glyph-name="y" unicode="y" horiz-adv-x="466" 
d="M435 450h11l-185 -450q-48 -116 -84 -158t-82 -42q-29 0 -64 15l4 9q35 -15 58 -15q42 0 76.5 39t71.5 128l10 24l-231 450h11l187 -366l38 -74l31 76z" />
    <glyph glyph-name="z" unicode="z" horiz-adv-x="475" 
d="M406 440h-341v10h360v-2l-357 -438h352v-10h-370v2z" />
    <glyph glyph-name="braceleft" unicode="{" horiz-adv-x="280" 
d="M110 -86v208q0 51 -25.5 75t-64.5 23v10q39 0 64.5 27t25.5 83v193q0 117 99 117h51v-10h-51q-47 0 -68 -26t-21 -81v-193q0 -48 -20.5 -78.5t-54.5 -35.5q75 -9 75 -114v-198q0 -104 95 -104h45v-10h-46q-104 0 -104 114z" />
    <glyph glyph-name="bar" unicode="|" horiz-adv-x="310" 
d="M160 0h-10v700h10v-700z" />
    <glyph glyph-name="braceright" unicode="}" horiz-adv-x="280" 
d="M170 122v-208q0 -114 -104 -114h-46v10h45q95 0 95 104v198q0 105 75 114q-34 5 -54.5 35.5t-20.5 78.5v193q0 55 -21 81t-68 26h-51v10h51q99 0 99 -117v-193q0 -56 25.5 -83t64.5 -27v-10q-39 1 -64.5 -23t-25.5 -75z" />
    <glyph glyph-name="asciitilde" unicode="~" horiz-adv-x="584" 
d="M76 345l-8 7q58 53 115 53q40 0 116 -38t113 -38q48 0 97 46l7 -7q-52 -49 -105 -49q-38 0 -116 38q-76 38 -114 38q-53 0 -105 -50z" />
    <glyph glyph-name="uni00A0" unicode="&#xa0;" horiz-adv-x="250" 
 />
    <glyph glyph-name="exclamdown" unicode="&#xa1;" horiz-adv-x="310" 
d="M151 298h10v-540h-10v540zM169 445q0 -12 -13 -12q-11 0 -11.5 12.5t11.5 12.5q13 0 13 -13z" />
    <glyph glyph-name="cent" unicode="&#xa2;" horiz-adv-x="584" 
d="M486 69l6 -6q-27 -33 -71 -52t-92 -19h-3v-112h-10v112q-98 5 -160 68q-61 62 -61 165q0 97 63 165t155 68h3v111h10v-111q101 -3 157 -53l-6 -9q-58 52 -162 52q-87 0 -149 -65q-61 -64 -61 -158q0 -100 62 -162q62 -61 162 -61q98 0 157 67z" />
    <glyph glyph-name="sterling" unicode="&#xa3;" horiz-adv-x="584" 
d="M168 295h-79v10h76q-3 11 -22 54q-34 75 -34 155q0 76 53 135q54 59 143 59q54 0 103.5 -19t77.5 -50l-7 -7q-63 66 -177 66q-81 0 -132 -56t-51 -127q0 -47 9 -81q7 -27 26 -73.5t22 -55.5h187v-10h-184q9 -38 9 -74q0 -106 -51 -170q21 7 48 7q39 0 115 -26t112 -26
q60 0 113 50l7 -7q-56 -53 -122 -53q-36 0 -114 26q-76 26 -114 26q-63 0 -121 -55l-8 7q35 32 68 46q57 64 57 176q0 40 -10 73z" />
    <glyph glyph-name="currency" unicode="&#xa4;" horiz-adv-x="584" 
d="M73 350q0 90 57 155l-99 100l7 7l99 -99q61 64 156 64q94 0 155 -64l107 106l7 -7l-106 -107q57 -66 57 -155q0 -90 -57 -155l101 -102l-7 -7l-101 101q-61 -64 -156 -64t-156 63l-108 -107l-7 7l108 109q-57 63 -57 155zM140 503q-57 -65 -57 -153t57 -153
q58 -64 153 -64t152 64q58 64 58 153t-58 153q-57 64 -152 64t-153 -64z" />
    <glyph glyph-name="yen" unicode="&#xa5;" horiz-adv-x="584" 
d="M286 314h-212v10h206l-245 376h13l243 -375l245 375h13l-247 -376h206v-10h-212v-150h212v-10h-212v-154h-10v154h-212v10h212v150z" />
    <glyph glyph-name="brokenbar" unicode="&#xa6;" horiz-adv-x="310" 
d="M160 700v-260h-10v260h10zM150 0v260h10v-260h-10z" />
    <glyph glyph-name="section" unicode="&#xa7;" horiz-adv-x="524" 
d="M80 249q0 73 46 122q47 50 118 56q-51 19 -82.5 54.5t-31.5 81.5q0 61 39.5 99t101.5 38q77 0 120 -55l-7 -8l-23 24q-10 10 -36 19.5t-56 9.5q-55 0 -92 -37q-37 -36 -37 -89q0 -54 42 -89q44 -35 96 -48q71 -5 118 -55q48 -50 48 -123q0 -72 -47 -122q-45 -48 -117 -56
q49 -18 80.5 -53t31.5 -81q0 -61 -39.5 -99t-101.5 -38q-77 0 -120 55l7 8l23 -24q10 -10 36 -19.5t56 -9.5q55 0 92 37q37 36 37 89q0 51 -41 86q-42 36 -92 49q-73 4 -121 54q-48 49 -48 124zM90 249q0 -72 52 -120t120 -48q69 0 121 47q51 48 51 121t-52 121
q-51 48 -120 48q-68 0 -121 -48q-51 -48 -51 -121z" />
    <glyph glyph-name="dieresis" unicode="&#xa8;" horiz-adv-x="359" 
d="M60 631q0 8 8 11t13 -3q6 -5 3 -13t-11 -8q-13 0 -13 13zM274 631q0 8 8 11t13 -3q6 -5 3 -13t-11 -8q-13 0 -13 13z" />
    <glyph glyph-name="copyright" unicode="&#xa9;" horiz-adv-x="1018" 
d="M135 5q-55 98 -55 216q0 117 55 215.5t154 155.5q98 58 220 58q120 0 219.5 -57t154.5 -157q55 -97 55 -215q0 -117 -55 -215.5t-154 -155.5q-98 -58 -220 -58t-220 58q-98 56 -154 155zM210 518q-120 -122 -120 -297t120 -297t299 -122t299 122t120 297t-120 297
t-299 122t-299 -122zM675 69l6 -6q-27 -33 -71 -52t-92 -19q-104 0 -169 64q-65 65 -65 169q0 97 63 165t155 68q111 0 170 -53l-6 -9q-58 52 -162 52q-87 0 -149 -65q-61 -64 -61 -158q0 -100 62 -162q62 -61 162 -61q98 0 157 67z" />
    <glyph glyph-name="ordfeminine" unicode="&#xaa;" horiz-adv-x="385" 
d="M100 615l-8 6q40 37 97 37q116 0 116 -114v-184h-10v57q-44 -59 -124 -59q-49 0 -80 26t-31 65q0 43 33 68t88 25q71 0 114 -30v30q0 52 -27.5 79t-79.5 27q-42 0 -88 -33zM170 367q80 0 125 61v73q-46 31 -115 31q-47 0 -78.5 -22.5t-31.5 -60.5q0 -35 29.5 -58.5
t70.5 -23.5z" />
    <glyph glyph-name="guillemotleft" unicode="&#xab;" horiz-adv-x="469" 
d="M387 56l-6 -8l-171 200v4l172 198l7 -6l-168 -194zM237 56l-6 -8l-171 200v4l172 198l7 -6l-168 -194z" />
    <glyph glyph-name="logicalnot" unicode="&#xac;" horiz-adv-x="584" 
d="M499 355h-424v10h434v-141h-10v131z" />
    <glyph glyph-name="uni00AD" unicode="&#xad;" horiz-adv-x="414" 
d="M314 265h-214v10h214v-10z" />
    <glyph glyph-name="registered" unicode="&#xae;" horiz-adv-x="528" 
d="M119 351q-59 61 -59 145q0 85 59 144q60 60 145 60q86 0 144 -60q60 -58 60 -144q0 -85 -60 -145q-59 -59 -144 -59q-84 0 -145 59zM127 633q-57 -57 -57 -137t57 -137t137 -57t137 57t57 137t-57 137t-137 57t-137 -57zM201 486v-126h-10v280h61q95 0 95 -76
q0 -27 -20.5 -49t-53.5 -29l105 -126h-15l-104 126h-58zM252 630h-51v-134h59q29 0 53 19.5t24 48.5q0 31 -22 48.5t-63 17.5z" />
    <glyph glyph-name="overscore" unicode="&#xaf;" horiz-adv-x="354" 
d="M294 640h-234v10h234v-10z" />
    <glyph glyph-name="degree" unicode="&#xb0;" horiz-adv-x="380" 
d="M98 478q-38 38 -38 92t38 92t92 38t92 -38t38 -92t-38 -92t-92 -38t-92 38zM105 655q-35 -35 -35 -85t35 -85t85 -35t85 35t35 85t-35 85t-85 35t-85 -35z" />
    <glyph glyph-name="plusminus" unicode="&#xb1;" horiz-adv-x="584" 
d="M286 425h-211v10h211v211h10v-211h213v-10h-213v-163h-10v163zM509 185h-434v10h434v-10z" />
    <glyph glyph-name="twosuperior" unicode="&#xb2;" horiz-adv-x="323" 
d="M288 350h-243v9l36 27l48 37q18 15 44 39q31 30 44 48q40 54 40 97q0 38 -25.5 62.5t-69.5 24.5q-38 0 -66.5 -19t-34.5 -53l-10 2q6 37 37.5 58.5t71.5 21.5q52 0 79.5 -27.5t27.5 -72.5q0 -98 -197 -238l-9 -6h227v-10z" />
    <glyph glyph-name="threesuperior" unicode="&#xb3;" horiz-adv-x="329" 
d="M157 346q-87 0 -117 62l8 5q28 -57 111 -57q49 0 79.5 25t30.5 63q0 35 -28 57.5t-70 22.5h-40v10h35q34 0 60.5 25t26.5 58q0 36 -26.5 56.5t-69.5 20.5q-75 0 -98 -54l-8 5q10 28 38.5 43.5t67.5 15.5q50 0 78 -23t28 -64q0 -28 -18.5 -52.5t-49.5 -33.5v-1
q37 -4 60.5 -28.5t23.5 -57.5q0 -44 -34 -71t-88 -27z" />
    <glyph glyph-name="acute" unicode="&#xb4;" horiz-adv-x="237" 
d="M170 706l7 -6l-109 -141l-8 5z" />
    <glyph glyph-name="mu" unicode="&#xb5;" horiz-adv-x="550" 
d="M450 450h10v-450h-10v83q-31 -37 -84 -64q-52 -27 -105 -27q-140 0 -171 118v-310h-10v650h10v-249q0 -102 41.5 -150.5t131.5 -48.5q57 0 110 30t77 65v353z" />
    <glyph glyph-name="mu" unicode="&#x3bc;" horiz-adv-x="550" 
d="M450 450h10v-450h-10v83q-31 -37 -84 -64q-52 -27 -105 -27q-140 0 -171 118v-310h-10v650h10v-249q0 -102 41.5 -150.5t131.5 -48.5q57 0 110 30t77 65v353z" />
    <glyph glyph-name="paragraph" unicode="&#xb6;" horiz-adv-x="401" 
d="M60 481q0 103 52 161t147 58h102v-10h-94v-743q0 -79 -27 -117t-94 -38q-46 0 -80 25l6 9q32 -24 74 -24q62 0 86.5 35.5t24.5 108.5v317q-87 2 -142 59q-55 58 -55 159z" />
    <glyph glyph-name="middot" unicode="&#xb7;" horiz-adv-x="250" 
d="M112 293q0 8 8 11t13 -3q6 -5 3 -13t-11 -8q-13 0 -13 13z" />
    <glyph glyph-name="cedilla" unicode="&#xb8;" horiz-adv-x="298" 
d="M60 -180l4 9q38 -19 74 -19q40 0 65 16.5t25 43.5q0 60 -90 60h-6v70h10v-60q96 -2 96 -70q0 -31 -27.5 -50.5t-72.5 -19.5q-35 0 -78 20z" />
    <glyph glyph-name="onesuperior" unicode="&#xb9;" horiz-adv-x="220" 
d="M41 635l-6 8l89 61h6v-354h-10v338z" />
    <glyph glyph-name="ordmasculine" unicode="&#xba;" horiz-adv-x="430" 
d="M104 397q-44 44 -44 109t44 109q44 43 111 43t110 -43q45 -43 45 -109t-45 -109q-43 -43 -110 -43t-111 43zM70 506q0 -61 44 -102q43 -40 101 -40q59 0 102 40t43 102q0 61 -44 102q-43 40 -101 40q-59 0 -102 -40t-43 -102z" />
    <glyph glyph-name="guillemotright" unicode="&#xbb;" horiz-adv-x="469" 
d="M409 252v-4l-171 -200l-6 8l166 194l-168 194l7 6zM259 252v-4l-171 -200l-6 8l166 194l-168 194l7 6z" />
    <glyph glyph-name="onequarter" unicode="&#xbc;" horiz-adv-x="633" 
d="M547 0h-10v98h-197v5l196 247h11l-192 -242h182v117h10v-117h66v-10h-66v-98zM61 635l-6 8l89 61h6v-354h-10v338zM68 -8l-8 7l531 709l8 -5z" />
    <glyph glyph-name="onehalf" unicode="&#xbd;" horiz-adv-x="648" 
d="M61 635l-6 8l89 61h6v-354h-10v338zM28 -8l-8 7l531 709l8 -5zM608 0h-243v9l36 27l48 37q18 15 44 39q31 30 44 48q40 54 40 97q0 38 -25.5 62.5t-69.5 24.5q-38 0 -66.5 -19t-34.5 -53l-10 2q6 37 37.5 58.5t71.5 21.5q52 0 79.5 -27.5t27.5 -72.5q0 -98 -199 -239
l-7 -5h227v-10z" />
    <glyph glyph-name="threequarters" unicode="&#xbe;" horiz-adv-x="663" 
d="M157 346q-87 0 -117 62l8 5q28 -57 111 -57q49 0 79.5 25t30.5 63q0 35 -28 57.5t-70 22.5h-40v10h35q34 0 60.5 25t26.5 58q0 36 -26.5 56.5t-69.5 20.5q-75 0 -98 -54l-8 5q10 28 38.5 43.5t67.5 15.5q50 0 78 -23t28 -64q0 -28 -18.5 -52.5t-49.5 -33.5v-1
q37 -4 60.5 -28.5t23.5 -57.5q0 -44 -34 -71t-88 -27zM577 0h-10v98h-197v5l196 247h11l-192 -242h182v117h10v-117h66v-10h-66v-98zM108 -8l-8 7l531 709l8 -5z" />
    <glyph glyph-name="questiondown" unicode="&#xbf;" horiz-adv-x="451" 
d="M50 -82q0 -69 50 -113q50 -45 128 -45q107 0 175 93l8 -4q-27 -44 -77.5 -71.5t-107.5 -27.5q-88 0 -137 48t-49 119q0 62 28.5 100t79.5 73q31 22 41.5 30t31 28.5t28 42t7.5 48.5q0 14 -5 44l9 3q6 -27 6 -48q0 -36 -16 -65.5t-40 -48l-52 -39.5t-52 -41t-40 -52.5
t-16 -73.5zM273 445q0 -12 -13 -12q-11 0 -11.5 12.5t11.5 12.5q13 0 13 -13z" />
    <glyph glyph-name="Agrave" unicode="&#xc0;" horiz-adv-x="685" 
d="M41 0h-11l311 708h3l311 -708h-11l-122 277h-360zM518 287l-176 401l-176 -401h352zM369 749l-5 -7l-154 90l4 8z" />
    <glyph glyph-name="Aacute" unicode="&#xc1;" horiz-adv-x="685" 
d="M41 0h-11l311 708h3l311 -708h-11l-122 277h-360zM518 287l-176 401l-176 -401h352zM475 840l4 -8l-154 -90l-5 7z" />
    <glyph glyph-name="Acircumflex" unicode="&#xc2;" horiz-adv-x="685" 
d="M41 0h-11l311 708h3l311 -708h-11l-122 277h-360zM518 287l-176 401l-176 -401h352zM183 743l-7 7l165 90h4l164 -90l-8 -7l-158 87z" />
    <glyph glyph-name="Atilde" unicode="&#xc3;" horiz-adv-x="685" 
d="M41 0h-11l311 708h3l311 -708h-11l-122 277h-360zM518 287l-176 401l-176 -401h352zM189 776l-6 7q37 30 75 30q32 0 85 -25t80 -25q40 0 72 35l7 -7q-38 -38 -79 -38q-30 0 -84 25t-84 25q-33 0 -66 -27z" />
    <glyph glyph-name="Adieresis" unicode="&#xc4;" horiz-adv-x="685" 
d="M41 0h-11l311 708h3l311 -708h-11l-122 277h-360zM518 287l-176 401l-176 -401h352zM213 790q0 12 13 12q12 0 12 -12q0 -13 -12 -13q-13 0 -13 13zM447 790q0 12 13 12q12 0 12 -12q0 -13 -12 -13q-13 0 -13 13z" />
    <glyph glyph-name="Aring" unicode="&#xc5;" horiz-adv-x="685" 
d="M250 775q0 36 25.5 55.5t66.5 19.5q42 0 67.5 -19.5t25.5 -55.5q0 -35 -23.5 -55.5t-62.5 -22.5l306 -697h-11l-122 277h-360l-121 -277h-11l306 697q-39 2 -62.5 22.5t-23.5 55.5zM518 287l-176 401l-176 -401h352zM340 707h4q37 1 59 18.5t22 49.5t-23 49
q-22 16 -60 16t-60 -16t-22 -49q0 -32 22 -50t58 -18z" />
    <glyph glyph-name="AE" unicode="&#xc6;" horiz-adv-x="966" 
d="M896 10v-10h-385v285h-286l-202 -285h-13l501 700h375v-10h-365v-328h335v-10h-335v-342h375zM511 295v391l-279 -391h279z" />
    <glyph glyph-name="Ccedilla" unicode="&#xc7;" horiz-adv-x="657" 
d="M319 -180l4 9q38 -19 74 -19q40 0 65 16.5t25 43.5q0 60 -90 60h-6v63q-148 4 -240 101q-91 97 -91 256q0 153 93 255q93 103 240 103q131 0 211 -63l-7 -7q-74 60 -203 60q-144 0 -234 -100t-90 -248q0 -156 92 -253q93 -95 242 -95q122 0 207 73l6 -8q-36 -35 -94 -55
t-119 -20h-3v-52q96 -2 96 -70q0 -31 -27.5 -50.5t-72.5 -19.5q-35 0 -78 20z" />
    <glyph glyph-name="Egrave" unicode="&#xc8;" horiz-adv-x="575" 
d="M505 0h-385v700h375v-10h-365v-328h335v-10h-335v-342h375v-10zM359 749l-5 -7l-154 90l4 8z" />
    <glyph glyph-name="Eacute" unicode="&#xc9;" horiz-adv-x="575" 
d="M505 0h-385v700h375v-10h-365v-328h335v-10h-335v-342h375v-10zM405 840l4 -8l-154 -90l-5 7z" />
    <glyph glyph-name="Ecircumflex" unicode="&#xca;" horiz-adv-x="575" 
d="M150 743l-7 7l165 90h4l164 -90l-8 -7l-158 87zM505 0h-385v700h375v-10h-365v-328h335v-10h-335v-342h375v-10z" />
    <glyph glyph-name="Edieresis" unicode="&#xcb;" horiz-adv-x="575" 
d="M505 0h-385v700h375v-10h-365v-328h335v-10h-335v-342h375v-10zM180 790q0 12 13 12q12 0 12 -12q0 -13 -12 -13q-13 0 -13 13zM414 790q0 12 13 12q12 0 12 -12q0 -13 -12 -13q-13 0 -13 13z" />
    <glyph glyph-name="Igrave" unicode="&#xcc;" horiz-adv-x="310" 
d="M169 749l-5 -7l-154 90l4 8zM160 0h-10v700h10v-700z" />
    <glyph glyph-name="Iacute" unicode="&#xcd;" horiz-adv-x="310" 
d="M295 840l4 -8l-154 -90l-5 7zM160 0h-10v700h10v-700z" />
    <glyph glyph-name="Icircumflex" unicode="&#xce;" horiz-adv-x="310" 
d="M-4 743l-7 7l165 90h4l164 -90l-8 -7l-158 87zM160 0h-10v700h10v-700z" />
    <glyph glyph-name="Idieresis" unicode="&#xcf;" horiz-adv-x="310" 
d="M160 0h-10v700h10v-700zM26 790q0 12 13 12q12 0 12 -12q0 -13 -12 -13q-13 0 -13 13zM260 790q0 12 13 12q12 0 12 -12q0 -13 -12 -13q-13 0 -13 13z" />
    <glyph glyph-name="Eth" unicode="&#xd0;" horiz-adv-x="764" 
d="M150 355h-140v10h140v335h10q41 0 71 1q60 2 80 2q204 0 302 -104q91 -95 91 -237q0 -158 -104 -262q-104 -102 -297 -102q-45 0 -76 1t-72 1h-5v355zM309 693q-20 0 -80 -2q-30 -1 -69 -1v-325h213v-10h-213v-345l144 -2q189 0 289 100q101 101 101 254q0 144 -95 237
q-94 94 -290 94z" />
    <glyph glyph-name="Ntilde" unicode="&#xd1;" horiz-adv-x="800" 
d="M680 700v-700h-8l-542 680v-680h-10v700h8l542 -682v682h10zM251 776l-6 7q37 30 75 30q32 0 85 -25t80 -25q40 0 72 35l7 -7q-38 -38 -79 -38q-30 0 -84 25t-84 25q-33 0 -66 -27z" />
    <glyph glyph-name="Ograve" unicode="&#xd2;" horiz-adv-x="804" 
d="M158 95q-98 104 -98 255t98 255q99 103 244 103q146 0 243 -103q99 -103 99 -255t-99 -255q-97 -103 -243 -103q-145 0 -244 103zM165 598q-95 -101 -95 -248t95 -248q96 -100 237 -100q142 0 236 100q96 101 96 248q0 148 -96 248q-94 100 -236 100q-141 0 -237 -100z
M479 749l-5 -7l-154 90l4 8z" />
    <glyph glyph-name="Oacute" unicode="&#xd3;" horiz-adv-x="804" 
d="M158 95q-98 104 -98 255t98 255q99 103 244 103q146 0 243 -103q99 -103 99 -255t-99 -255q-97 -103 -243 -103q-145 0 -244 103zM165 598q-95 -101 -95 -248t95 -248q96 -100 237 -100q142 0 236 100q96 101 96 248q0 148 -96 248q-94 100 -236 100q-141 0 -237 -100z
M505 840l4 -8l-154 -90l-5 7z" />
    <glyph glyph-name="Ocircumflex" unicode="&#xd4;" horiz-adv-x="804" 
d="M247 743l-7 7l165 90h4l164 -90l-8 -7l-158 87zM158 95q-98 104 -98 255t98 255q99 103 244 103q146 0 243 -103q99 -103 99 -255t-99 -255q-97 -103 -243 -103q-145 0 -244 103zM165 598q-95 -101 -95 -248t95 -248q96 -100 237 -100q142 0 236 100q96 101 96 248
q0 148 -96 248q-94 100 -236 100q-141 0 -237 -100z" />
    <glyph glyph-name="Otilde" unicode="&#xd5;" horiz-adv-x="804" 
d="M158 95q-98 104 -98 255t98 255q99 103 244 103q146 0 243 -103q99 -103 99 -255t-99 -255q-97 -103 -243 -103q-145 0 -244 103zM165 598q-95 -101 -95 -248t95 -248q96 -100 237 -100q142 0 236 100q96 101 96 248q0 148 -96 248q-94 100 -236 100q-141 0 -237 -100z
M253 776l-6 7q37 30 75 30q32 0 85 -25t80 -25q40 0 72 35l7 -7q-38 -38 -79 -38q-30 0 -84 25t-84 25q-33 0 -66 -27z" />
    <glyph glyph-name="Odieresis" unicode="&#xd6;" horiz-adv-x="804" 
d="M158 95q-98 104 -98 255t98 255q99 103 244 103q146 0 243 -103q99 -103 99 -255t-99 -255q-97 -103 -243 -103q-145 0 -244 103zM165 598q-95 -101 -95 -248t95 -248q96 -100 237 -100q142 0 236 100q96 101 96 248q0 148 -96 248q-94 100 -236 100q-141 0 -237 -100z
M275 790q0 12 13 12q12 0 12 -12q0 -13 -12 -13q-13 0 -13 13zM509 790q0 12 13 12q12 0 12 -12q0 -13 -12 -13q-13 0 -13 13z" />
    <glyph glyph-name="multiply" unicode="&#xd7;" horiz-adv-x="584" 
d="M285 360l-149 150l7 7l149 -150l149 150l7 -7l-149 -150l151 -150l-7 -7l-151 150l-151 -150l-7 7z" />
    <glyph glyph-name="Oslash" unicode="&#xd8;" horiz-adv-x="804" 
d="M60 350q0 151 98 255q99 103 244 103q148 0 247 -107l55 53l7 -6l-56 -54q89 -101 89 -244q0 -152 -99 -255q-97 -103 -243 -103q-151 0 -250 110l-52 -51l-8 8l53 51q-85 100 -85 240zM734 350q0 137 -86 237l-489 -478q96 -107 243 -107q142 0 236 100q96 101 96 248z
M70 350q0 -138 82 -233l490 477q-96 104 -240 104q-141 0 -237 -100q-95 -101 -95 -248z" />
    <glyph glyph-name="Ugrave" unicode="&#xd9;" horiz-adv-x="751" 
d="M631 700h10v-405q0 -152 -73 -226q-72 -75 -183 -75q-122 0 -199 80q-76 79 -76 228v398h10v-399q0 -141 74 -220q74 -77 191 -77q108 0 177 73t69 221v402zM439 749l-5 -7l-154 90l4 8z" />
    <glyph glyph-name="Uacute" unicode="&#xda;" horiz-adv-x="751" 
d="M631 700h10v-405q0 -152 -73 -226q-72 -75 -183 -75q-122 0 -199 80q-76 79 -76 228v398h10v-399q0 -141 74 -220q74 -77 191 -77q108 0 177 73t69 221v402zM475 840l4 -8l-154 -90l-5 7z" />
    <glyph glyph-name="Ucircumflex" unicode="&#xdb;" horiz-adv-x="751" 
d="M216 743l-7 7l165 90h4l164 -90l-8 -7l-158 87zM631 700h10v-405q0 -152 -73 -226q-72 -75 -183 -75q-122 0 -199 80q-76 79 -76 228v398h10v-399q0 -141 74 -220q74 -77 191 -77q108 0 177 73t69 221v402z" />
    <glyph glyph-name="Udieresis" unicode="&#xdc;" horiz-adv-x="751" 
d="M631 700h10v-405q0 -152 -73 -226q-72 -75 -183 -75q-122 0 -199 80q-76 79 -76 228v398h10v-399q0 -141 74 -220q74 -77 191 -77q108 0 177 73t69 221v402zM245 790q0 12 13 12q12 0 12 -12q0 -13 -12 -13q-13 0 -13 13zM479 790q0 12 13 12q12 0 12 -12q0 -13 -12 -13
q-13 0 -13 13z" />
    <glyph glyph-name="Yacute" unicode="&#xdd;" horiz-adv-x="554" 
d="M521 700h13l-253 -385v-315h-10v315l-251 385h13l243 -375zM385 840l4 -8l-154 -90l-5 7z" />
    <glyph glyph-name="Thorn" unicode="&#xde;" horiz-adv-x="567" 
d="M130 190v-190h-10v700h10v-110q40 0 75 1t67 1q67 0 115 -17.5t73 -47.5t36 -63.5t11 -73.5q0 -86 -60 -146q-61 -59 -185 -59q-47 0 -132 5zM273 582q-55 0 -143 -2v-380q85 -5 131 -5q114 0 175 53.5t61 142.5q0 88 -56 139.5t-168 51.5z" />
    <glyph glyph-name="germandbls" unicode="&#xdf;" horiz-adv-x="536" 
d="M466 141q0 41 -23 72t-56 51.5l-65.5 40t-55.5 46.5t-23 61q0 51 59 94q60 45 60 98q0 41 -32.5 67.5t-78.5 26.5q-72 0 -106.5 -44.5t-34.5 -139.5v-518h-10v527q0 185 151 185q52 0 86.5 -29.5t34.5 -74.5q0 -30 -17.5 -58t-42.5 -45q-59 -43 -59 -88q0 -60 78 -105
q37 -20 51.5 -29t42.5 -31.5t39.5 -48t11.5 -57.5q0 -67 -42 -109q-43 -41 -102 -41q-45 0 -81.5 22.5t-55.5 55.5l9 6q19 -31 52.5 -52.5t74.5 -21.5q53 0 94 39t41 100z" />
    <glyph glyph-name="agrave" unicode="&#xe0;" horiz-adv-x="456" 
d="M89 409l-5 8q67 41 134 41q84 0 121 -43t37 -133v-282h-10v85q-65 -89 -176 -89q-64 0 -102 34.5t-38 90.5q0 64 47 99.5t124 35.5q90 0 145 -40q0 44 -1 57q0 63 -12 93q-18 47 -43 61q-37 21 -94 21q-62 0 -127 -39zM189 6q62 0 103 24t74 71v102q-61 43 -147 43
q-63 0 -112 -32q-47 -32 -47 -92q0 -53 36 -84.5t93 -31.5zM267 564l-8 -5l-109 141l7 6z" />
    <glyph glyph-name="aacute" unicode="&#xe1;" horiz-adv-x="456" 
d="M89 409l-5 8q67 41 134 41q84 0 121 -43t37 -133v-282h-10v85q-65 -89 -176 -89q-64 0 -102 34.5t-38 90.5q0 64 47 99.5t124 35.5q90 0 145 -40q0 44 -1 57q0 63 -12 93q-18 47 -43 61q-37 21 -94 21q-62 0 -127 -39zM189 6q62 0 103 24t74 71v102q-61 43 -147 43
q-63 0 -112 -32q-47 -32 -47 -92q0 -53 36 -84.5t93 -31.5zM300 706l7 -6l-109 -141l-8 5z" />
    <glyph glyph-name="acircumflex" unicode="&#xe2;" horiz-adv-x="456" 
d="M89 409l-5 8q67 41 134 41q84 0 121 -43t37 -133v-282h-10v85q-65 -89 -176 -89q-64 0 -102 34.5t-38 90.5q0 64 47 99.5t124 35.5q90 0 145 -40q0 44 -1 57q0 63 -12 93q-18 47 -43 61q-37 21 -94 21q-62 0 -127 -39zM189 6q62 0 103 24t74 71v102q-61 43 -147 43
q-63 0 -112 -32q-47 -32 -47 -92q0 -53 36 -84.5t93 -31.5zM227 708h4l113 -130l-7 -7l-108 124l-110 -124l-8 7z" />
    <glyph glyph-name="atilde" unicode="&#xe3;" horiz-adv-x="456" 
d="M89 409l-5 8q67 41 134 41q84 0 121 -43t37 -133v-282h-10v85q-65 -89 -176 -89q-64 0 -102 34.5t-38 90.5q0 64 47 99.5t124 35.5q90 0 145 -40q0 44 -1 57q0 63 -12 93q-18 47 -43 61q-37 21 -94 21q-62 0 -127 -39zM189 6q62 0 103 24t74 71v102q-61 43 -147 43
q-63 0 -112 -32q-47 -32 -47 -92q0 -53 36 -84.5t93 -31.5zM95 596l-6 7q50 41 87 41q25 0 56 -25q32 -24 52 -24q31 0 77 43l7 -7q-49 -46 -86 -46q-22 0 -54 24q-31 25 -55 25q-31 0 -78 -38z" />
    <glyph glyph-name="adieresis" unicode="&#xe4;" horiz-adv-x="456" 
d="M89 409l-5 8q67 41 134 41q84 0 121 -43t37 -133v-282h-10v85q-65 -89 -176 -89q-64 0 -102 34.5t-38 90.5q0 64 47 99.5t124 35.5q90 0 145 -40q0 44 -1 57q0 63 -12 93q-18 47 -43 61q-37 21 -94 21q-62 0 -127 -39zM189 6q62 0 103 24t74 71v102q-61 43 -147 43
q-63 0 -112 -32q-47 -32 -47 -92q0 -53 36 -84.5t93 -31.5zM99 631q0 12 13 12q11 0 11.5 -12.5t-11.5 -12.5q-13 0 -13 13zM313 631q0 12 13 12q11 0 11.5 -12.5t-11.5 -12.5q-13 0 -13 13z" />
    <glyph glyph-name="aring" unicode="&#xe5;" horiz-adv-x="456" 
d="M89 409l-5 8q67 41 134 41q84 0 121 -43t37 -133v-282h-10v85q-65 -89 -176 -89q-64 0 -102 34.5t-38 90.5q0 64 47 99.5t124 35.5q90 0 145 -40q0 44 -1 57q0 63 -12 93q-18 47 -43 61q-37 21 -94 21q-62 0 -127 -39zM189 6q62 0 103 24t74 71v102q-61 43 -147 43
q-63 0 -112 -32q-47 -32 -47 -92q0 -53 36 -84.5t93 -31.5zM153 550q27 -27 65 -27t65 27q28 27 28 65t-28 65q-27 28 -65 28t-65 -28q-27 -27 -27 -65t27 -65zM218 533q-34 -3 -58 23t-24 58.5t24 59.5q17 19 42 22.5t47.5 -5.5t37.5 -29.5t14 -46.5q0 -34 -24 -58t-59 -24
z" />
    <glyph glyph-name="ae" unicode="&#xe6;" horiz-adv-x="809" 
d="M218 458q122 0 149 -100q57 100 188 100q88 0 143 -55q56 -56 56 -145q0 -2 -0.5 -11t-0.5 -12h-377v-131q58 -102 193 -102q98 0 157 67l6 -6q-27 -33 -71 -52t-92 -19q-133 0 -198 99q-71 -95 -181 -95q-64 0 -102 34.5t-38 90.5q0 64 47 99.5t124 35.5q74 0 145 -10
q6 106 -28 154t-122 48q-62 0 -127 -39l-5 8q67 41 134 41zM376 282v-37h368q1 91 -52 148q-52 55 -141 55q-129 0 -181 -103q6 -29 6 -63zM189 6q62 0 103 24t74 71v134q-86 11 -147 11q-63 0 -112 -32q-47 -32 -47 -92q0 -53 36 -84.5t93 -31.5z" />
    <glyph glyph-name="ccedilla" unicode="&#xe7;" horiz-adv-x="492" 
d="M200 -180l4 9q38 -19 74 -19q40 0 65 16.5t25 43.5q0 60 -90 60h-6v63q-95 4 -157 68q-60 63 -60 164q0 97 63 165t155 68q111 0 170 -53l-6 -9q-58 52 -162 52q-87 0 -149 -65q-61 -64 -61 -158q0 -100 62 -162q62 -61 162 -61q98 0 157 67l6 -6q-27 -33 -71 -52
t-92 -19h-7v-52q96 -2 96 -70q0 -31 -27.5 -50.5t-72.5 -19.5q-35 0 -78 20z" />
    <glyph glyph-name="egrave" unicode="&#xe8;" horiz-adv-x="529" 
d="M446 69l6 -6q-27 -33 -71 -52t-92 -19q-104 0 -169 64q-65 65 -65 169q0 103 56 168q57 65 164 65q88 0 143 -55q56 -56 56 -145q0 -2 -0.5 -11t-0.5 -12h-408q0 -107 60 -170q61 -63 164 -63q98 0 157 67zM271 448q-91 0 -146 -55.5t-60 -147.5h399q1 91 -52 148
q-52 55 -141 55zM293 564l-8 -5l-109 141l7 6z" />
    <glyph glyph-name="eacute" unicode="&#xe9;" horiz-adv-x="529" 
d="M446 69l6 -6q-27 -33 -71 -52t-92 -19q-104 0 -169 64q-65 65 -65 169q0 103 56 168q57 65 164 65q88 0 143 -55q56 -56 56 -145q0 -2 -0.5 -11t-0.5 -12h-408q0 -107 60 -170q61 -63 164 -63q98 0 157 67zM271 448q-91 0 -146 -55.5t-60 -147.5h399q1 91 -52 148
q-52 55 -141 55zM366 706l7 -6l-109 -141l-8 5z" />
    <glyph glyph-name="ecircumflex" unicode="&#xea;" horiz-adv-x="529" 
d="M446 69l6 -6q-27 -33 -71 -52t-92 -19q-104 0 -169 64q-65 65 -65 169q0 103 56 168q57 65 164 65q88 0 143 -55q56 -56 56 -145q0 -2 -0.5 -11t-0.5 -12h-408q0 -107 60 -170q61 -63 164 -63q98 0 157 67zM271 448q-91 0 -146 -55.5t-60 -147.5h399q1 91 -52 148
q-52 55 -141 55zM273 708h4l113 -130l-7 -7l-108 124l-110 -124l-8 7z" />
    <glyph glyph-name="edieresis" unicode="&#xeb;" horiz-adv-x="529" 
d="M446 69l6 -6q-27 -33 -71 -52t-92 -19q-104 0 -169 64q-65 65 -65 169q0 103 56 168q57 65 164 65q88 0 143 -55q56 -56 56 -145q0 -2 -0.5 -11t-0.5 -12h-408q0 -107 60 -170q61 -63 164 -63q98 0 157 67zM271 448q-91 0 -146 -55.5t-60 -147.5h399q1 91 -52 148
q-52 55 -141 55zM144 631q0 8 8 11t13 -3q6 -5 3 -13t-11 -8q-13 0 -13 13zM358 631q0 8 8 11t13 -3q6 -5 3 -13t-11 -8q-13 0 -13 13z" />
    <glyph glyph-name="igrave" unicode="&#xec;" horiz-adv-x="250" 
d="M144 564l-8 -5l-109 141l7 6zM130 0h-10v450h10v-450z" />
    <glyph glyph-name="iacute" unicode="&#xed;" horiz-adv-x="250" 
d="M217 706l7 -6l-109 -141l-8 5zM130 0h-10v450h10v-450z" />
    <glyph glyph-name="icircumflex" unicode="&#xee;" horiz-adv-x="250" 
d="M125 708h4l113 -130l-7 -7l-108 124l-110 -124l-8 7zM130 0h-10v450h10v-450z" />
    <glyph glyph-name="idieresis" unicode="&#xef;" horiz-adv-x="250" 
d="M130 0h-10v450h10v-450zM6 631q0 8 8 11t13 -3q6 -5 3 -13t-11 -8q-13 0 -13 13zM220 631q0 8 8 11t13 -3q6 -5 3 -13t-11 -8q-13 0 -13 13z" />
    <glyph glyph-name="eth" unicode="&#xf0;" horiz-adv-x="570" 
d="M332 621l-120 -69l-5 8l118 68q-58 46 -127 72l11 8q69 -28 125 -75l103 60l5 -8l-100 -58q82 -70 127.5 -168t45.5 -205q0 -120 -64 -191q-65 -71 -166 -71t-165 66q-65 67 -65 167t65 167q64 66 165 66q72 0 129 -38t87 -107q-24 187 -169 308zM285 2q97 0 159 69
q61 70 61 186q-9 73 -69 132q-61 59 -151 59q-97 0 -159 -63q-61 -61 -61 -160t61 -161q62 -62 159 -62z" />
    <glyph glyph-name="ntilde" unicode="&#xf1;" horiz-adv-x="554" 
d="M100 0h-10v450h10v-74q30 36 81 58q53 24 102 24q98 0 144.5 -50t46.5 -156v-252h-10v249q0 102 -44 150.5t-137 48.5q-55 0 -108 -27q-52 -27 -75 -59v-362zM143 596l-6 7q50 41 87 41q25 0 56 -25q32 -24 52 -24q31 0 77 43l7 -7q-49 -46 -86 -46q-22 0 -54 24
q-31 25 -55 25q-31 0 -78 -38z" />
    <glyph glyph-name="ograve" unicode="&#xf2;" horiz-adv-x="570" 
d="M120 58q-65 67 -65 167t65 167q64 66 165 66t165 -66q65 -67 65 -167t-65 -167q-64 -66 -165 -66t-165 66zM126 385q-61 -61 -61 -160t61 -161q62 -62 159 -62q96 0 158 62q62 64 62 161q0 98 -62 160q-61 63 -158 63t-159 -63zM314 564l-8 -5l-109 141l7 6z" />
    <glyph glyph-name="oacute" unicode="&#xf3;" horiz-adv-x="570" 
d="M120 58q-65 67 -65 167t65 167q64 66 165 66t165 -66q65 -67 65 -167t-65 -167q-64 -66 -165 -66t-165 66zM126 385q-61 -61 -61 -160t61 -161q62 -62 159 -62q96 0 158 62q62 64 62 161q0 98 -62 160q-61 63 -158 63t-159 -63zM367 706l7 -6l-109 -141l-8 5z" />
    <glyph glyph-name="ocircumflex" unicode="&#xf4;" horiz-adv-x="570" 
d="M283 708h4l113 -130l-7 -7l-108 124l-110 -124l-8 7zM120 58q-65 67 -65 167t65 167q64 66 165 66t165 -66q65 -67 65 -167t-65 -167q-64 -66 -165 -66t-165 66zM126 385q-61 -61 -61 -160t61 -161q62 -62 159 -62q96 0 158 62q62 64 62 161q0 98 -62 160q-61 63 -158 63
t-159 -63z" />
    <glyph glyph-name="otilde" unicode="&#xf5;" horiz-adv-x="570" 
d="M120 58q-65 67 -65 167t65 167q64 66 165 66t165 -66q65 -67 65 -167t-65 -167q-64 -66 -165 -66t-165 66zM126 385q-61 -61 -61 -160t61 -161q62 -62 159 -62q96 0 158 62q62 64 62 161q0 98 -62 160q-61 63 -158 63t-159 -63zM151 596l-6 7q50 41 87 41q25 0 56 -25
q32 -24 52 -24q31 0 77 43l7 -7q-49 -46 -86 -46q-22 0 -54 24q-31 25 -55 25q-31 0 -78 -38z" />
    <glyph glyph-name="odieresis" unicode="&#xf6;" horiz-adv-x="570" 
d="M120 58q-65 67 -65 167t65 167q64 66 165 66t165 -66q65 -67 65 -167t-65 -167q-64 -66 -165 -66t-165 66zM126 385q-61 -61 -61 -160t61 -161q62 -62 159 -62q96 0 158 62q62 64 62 161q0 98 -62 160q-61 63 -158 63t-159 -63zM166 631q0 8 8 11t13 -3q6 -5 3 -13
t-11 -8q-13 0 -13 13zM380 631q0 8 8 11t13 -3q6 -5 3 -13t-11 -8q-13 0 -13 13z" />
    <glyph glyph-name="divide" unicode="&#xf7;" horiz-adv-x="584" 
d="M280 579q0 8 8 11t13 -3q6 -5 3 -13t-11 -8q-13 0 -13 13zM280 142q0 12 12.5 11.5t12.5 -11.5q0 -13 -12 -13q-13 0 -13 13zM509 355h-434v10h434v-10z" />
    <glyph glyph-name="oslash" unicode="&#xf8;" horiz-adv-x="570" 
d="M55 225q0 100 65 167q64 66 165 66q100 0 166 -68l59 60l7 -7l-59 -60q57 -63 57 -158q0 -100 -65 -167q-64 -66 -165 -66q-93 0 -155 56l-59 -61l-7 8l59 60q-68 65 -68 170zM65 225q0 -102 64 -163l316 322q-61 64 -160 64q-97 0 -159 -63q-61 -61 -61 -160zM505 225
q0 89 -54 151l-314 -321q59 -53 148 -53q96 0 158 62q62 64 62 161z" />
    <glyph glyph-name="ugrave" unicode="&#xf9;" horiz-adv-x="550" 
d="M450 450h10v-450h-10v83q-31 -37 -84 -64q-52 -27 -105 -27q-93 0 -137 50t-44 156v252h10v-249q0 -102 41.5 -150.5t131.5 -48.5q57 0 110 30t77 65v353zM304 564l-8 -5l-109 141l7 6z" />
    <glyph glyph-name="uacute" unicode="&#xfa;" horiz-adv-x="550" 
d="M450 450h10v-450h-10v83q-31 -37 -84 -64q-52 -27 -105 -27q-93 0 -137 50t-44 156v252h10v-249q0 -102 41.5 -150.5t131.5 -48.5q57 0 110 30t77 65v353zM357 706l7 -6l-109 -141l-8 5z" />
    <glyph glyph-name="ucircumflex" unicode="&#xfb;" horiz-adv-x="550" 
d="M268 708h4l113 -130l-7 -7l-108 124l-110 -124l-8 7zM450 450h10v-450h-10v83q-31 -37 -84 -64q-52 -27 -105 -27q-93 0 -137 50t-44 156v252h10v-249q0 -102 41.5 -150.5t131.5 -48.5q57 0 110 30t77 65v353z" />
    <glyph glyph-name="udieresis" unicode="&#xfc;" horiz-adv-x="550" 
d="M450 450h10v-450h-10v83q-31 -37 -84 -64q-52 -27 -105 -27q-93 0 -137 50t-44 156v252h10v-249q0 -102 41.5 -150.5t131.5 -48.5q57 0 110 30t77 65v353zM156 631q0 8 8 11t13 -3q6 -5 3 -13t-11 -8q-13 0 -13 13zM370 631q0 8 8 11t13 -3q6 -5 3 -13t-11 -8
q-13 0 -13 13z" />
    <glyph glyph-name="yacute" unicode="&#xfd;" horiz-adv-x="466" 
d="M435 450h11l-185 -450q-48 -116 -84 -158t-82 -42q-29 0 -64 15l4 9q35 -15 58 -15q42 0 76.5 39t71.5 128l10 24l-231 450h11l187 -366l38 -74l31 76zM315 706l7 -6l-109 -141l-8 5z" />
    <glyph glyph-name="thorn" unicode="&#xfe;" horiz-adv-x="551" 
d="M100 -200h-10v900h10v-321q29 35 79.5 57t101.5 22q100 0 157 -63q58 -61 58 -163q0 -104 -63 -172t-164 -68q-104 0 -169 50v-242zM281 448q-53 0 -107 -26q-52 -26 -74 -57v-310q73 -53 170 -53q95 0 155 63q61 64 61 164t-55 159.5t-150 59.5z" />
    <glyph glyph-name="ydieresis" unicode="&#xff;" horiz-adv-x="466" 
d="M435 450h11l-185 -450q-48 -116 -84 -158t-82 -42q-29 0 -64 15l4 9q35 -15 58 -15q42 0 76.5 39t71.5 128l10 24l-231 450h11l187 -366l38 -74l31 76zM114 631q0 8 8 11t13 -3q6 -5 3 -13t-11 -8q-13 0 -13 13zM328 631q0 8 8 11t13 -3q6 -5 3 -13t-11 -8q-13 0 -13 13z
" />
    <glyph glyph-name="Amacron" unicode="&#x100;" horiz-adv-x="685" 
d="M41 0h-11l311 708h3l311 -708h-11l-122 277h-360zM518 287l-176 401l-176 -401h352zM489 790h-294v10h294v-10z" />
    <glyph glyph-name="amacron" unicode="&#x101;" horiz-adv-x="456" 
d="M89 409l-5 8q67 41 134 41q84 0 121 -43t37 -133v-282h-10v85q-65 -89 -176 -89q-64 0 -102 34.5t-38 90.5q0 64 47 99.5t124 35.5q90 0 145 -40q0 44 -1 57q0 63 -12 93q-18 47 -43 61q-37 21 -94 21q-62 0 -127 -39zM189 6q62 0 103 24t74 71v102q-61 43 -147 43
q-63 0 -112 -32q-47 -32 -47 -92q0 -53 36 -84.5t93 -31.5zM345 640h-234v10h234v-10z" />
    <glyph glyph-name="Abreve" unicode="&#x102;" horiz-adv-x="685" 
d="M41 0h-11l311 708h3l311 -708h-11l-122 277h-360zM518 287l-176 401l-176 -401h352zM194 834l7 6q55 -70 143 -70q85 0 140 70l7 -6q-56 -74 -147 -74q-51 0 -90.5 22t-59.5 52z" />
    <glyph glyph-name="abreve" unicode="&#x103;" horiz-adv-x="456" 
d="M89 409l-5 8q67 41 134 41q84 0 121 -43t37 -133v-282h-10v85q-65 -89 -176 -89q-64 0 -102 34.5t-38 90.5q0 64 47 99.5t124 35.5q90 0 145 -40q0 44 -1 57q0 63 -12 93q-18 47 -43 61q-37 21 -94 21q-62 0 -127 -39zM189 6q62 0 103 24t74 71v102q-61 43 -147 43
q-63 0 -112 -32q-47 -32 -47 -92q0 -53 36 -84.5t93 -31.5zM100 674l7 6q55 -70 123 -70q65 0 120 70l7 -6q-56 -74 -127 -74q-80 0 -130 74z" />
    <glyph glyph-name="Aogonek" unicode="&#x104;" horiz-adv-x="685" 
d="M646 -181l3 -9q-23 -10 -52 -10q-37 0 -69 21q-31 21 -31 69q0 50 43 84q44 34 99 36l-117 267h-360l-121 -277h-11l311 708h3l311 -708h-11q-54 -2 -95 -32q-42 -32 -42 -78q0 -43 29 -61q29 -19 62 -19q28 0 48 9zM518 287l-176 401l-176 -401h352z" />
    <glyph glyph-name="aogonek" unicode="&#x105;" horiz-adv-x="456" 
d="M376 -181l3 -9q-23 -10 -52 -10q-37 0 -69 21q-31 21 -31 69t42 83q42 33 97 36v76q-65 -89 -176 -89q-64 0 -102 34.5t-38 90.5q0 64 47 99.5t124 35.5q90 0 145 -40q0 44 -1 57q0 63 -12 93q-18 47 -43 61q-37 21 -94 21q-62 0 -127 -39l-5 8q67 41 134 41
q84 0 121 -43t37 -133v-282h-5q-53 -2 -93 -33q-41 -32 -41 -77q0 -43 29 -61q29 -19 62 -19q28 0 48 9zM189 6q62 0 103 24t74 71v102q-61 43 -147 43q-63 0 -112 -32q-47 -32 -47 -92q0 -53 36 -84.5t93 -31.5z" />
    <glyph glyph-name="Cacute" unicode="&#x106;" horiz-adv-x="657" 
d="M611 75l6 -8q-36 -35 -94 -55t-119 -20q-154 0 -249 98t-95 260q0 153 93 255q93 103 240 103q131 0 211 -63l-7 -7q-74 60 -203 60q-144 0 -234 -100t-90 -248q0 -156 92 -253q93 -95 242 -95q122 0 207 73zM495 840l4 -8l-154 -90l-5 7z" />
    <glyph glyph-name="cacute" unicode="&#x107;" horiz-adv-x="492" 
d="M446 69l6 -6q-27 -33 -71 -52t-92 -19q-104 0 -169 64q-65 65 -65 169q0 97 63 165t155 68q111 0 170 -53l-6 -9q-58 52 -162 52q-87 0 -149 -65q-61 -64 -61 -158q0 -100 62 -162q62 -61 162 -61q98 0 157 67zM360 706l7 -6l-109 -141l-8 5z" />
    <glyph glyph-name="Ccircumflex" unicode="&#x108;" horiz-adv-x="657" 
d="M237 743l-7 7l165 90h4l164 -90l-8 -7l-158 87zM611 75l6 -8q-36 -35 -94 -55t-119 -20q-154 0 -249 98t-95 260q0 153 93 255q93 103 240 103q131 0 211 -63l-7 -7q-74 60 -203 60q-144 0 -234 -100t-90 -248q0 -156 92 -253q93 -95 242 -95q122 0 207 73z" />
    <glyph glyph-name="ccircumflex" unicode="&#x109;" horiz-adv-x="492" 
d="M277 708h4l113 -130l-7 -7l-108 124l-110 -124l-8 7zM446 69l6 -6q-27 -33 -71 -52t-92 -19q-104 0 -169 64q-65 65 -65 169q0 97 63 165t155 68q111 0 170 -53l-6 -9q-58 52 -162 52q-87 0 -149 -65q-61 -64 -61 -158q0 -100 62 -162q62 -61 162 -61q98 0 157 67z" />
    <glyph glyph-name="Cdotaccent" unicode="&#x10a;" horiz-adv-x="657" 
d="M611 75l6 -8q-36 -35 -94 -55t-119 -20q-154 0 -249 98t-95 260q0 153 93 255q93 103 240 103q131 0 211 -63l-7 -7q-74 60 -203 60q-144 0 -234 -100t-90 -248q0 -156 92 -253q93 -95 242 -95q122 0 207 73zM367 790q0 12 13 12q12 0 12 -12q0 -13 -12 -13q-13 0 -13 13
z" />
    <glyph glyph-name="cdotaccent" unicode="&#x10b;" horiz-adv-x="492" 
d="M446 69l6 -6q-27 -33 -71 -52t-92 -19q-104 0 -169 64q-65 65 -65 169q0 97 63 165t155 68q111 0 170 -53l-6 -9q-58 52 -162 52q-87 0 -149 -65q-61 -64 -61 -158q0 -100 62 -162q62 -61 162 -61q98 0 157 67zM274 633q0 8 8 11t13 -3q6 -5 3 -13t-11 -8q-13 0 -13 13z
" />
    <glyph glyph-name="Ccaron" unicode="&#x10c;" horiz-adv-x="657" 
d="M399 743h-4l-165 90l7 7l160 -87l158 87l8 -7zM611 75l6 -8q-36 -35 -94 -55t-119 -20q-154 0 -249 98t-95 260q0 153 93 255q93 103 240 103q131 0 211 -63l-7 -7q-74 60 -203 60q-144 0 -234 -100t-90 -248q0 -156 92 -253q93 -95 242 -95q122 0 207 73z" />
    <glyph glyph-name="ccaron" unicode="&#x10d;" horiz-adv-x="492" 
d="M291 571h-4l-115 130l7 7l110 -124l108 124l8 -7zM446 69l6 -6q-27 -33 -71 -52t-92 -19q-104 0 -169 64q-65 65 -65 169q0 97 63 165t155 68q111 0 170 -53l-6 -9q-58 52 -162 52q-87 0 -149 -65q-61 -64 -61 -158q0 -100 62 -162q62 -61 162 -61q98 0 157 67z" />
    <glyph glyph-name="Dcaron" unicode="&#x10e;" horiz-adv-x="734" 
d="M339 743h-4l-165 90l7 7l160 -87l158 87l8 -7zM125 0h-5v700h10q41 0 70 1q60 2 81 2q204 0 302 -104q91 -95 91 -237q0 -158 -104 -262q-104 -102 -297 -102q-45 0 -76 1t-72 1zM279 693q-20 0 -80 -2q-30 -1 -69 -1v-680l144 -2q189 0 289 100q101 101 101 254
q0 144 -95 237q-94 94 -290 94z" />
    <glyph glyph-name="dcaron" unicode="&#x10f;" horiz-adv-x="552" 
d="M462 0h-10v76q-28 -36 -76 -60t-96 -24q-102 0 -164 63q-61 64 -61 170q0 103 69 167q70 66 174 66q90 0 154 -48v290h10v-700zM280 2q51 0 100 28q48 28 72 61v307q-71 50 -155 50q-99 0 -166 -63q-66 -63 -66 -160q0 -102 58 -163q59 -60 157 -60zM587 700h10
q10 -16 10 -43q0 -40 -16 -70.5t-42 -42.5l-3 8q23 13 37 41t14 63q0 28 -10 44z" />
    <glyph glyph-name="Dcroat" unicode="&#x110;" horiz-adv-x="764" 
d="M150 355h-140v10h140v335h10q41 0 71 1q60 2 80 2q204 0 302 -104q91 -95 91 -237q0 -158 -104 -262q-104 -102 -297 -102q-45 0 -76 1t-72 1h-5v355zM309 693q-20 0 -80 -2q-30 -1 -69 -1v-325h213v-10h-213v-345l144 -2q189 0 289 100q101 101 101 254q0 144 -95 237
q-94 94 -290 94z" />
    <glyph glyph-name="dslash" unicode="&#x111;" horiz-adv-x="552" 
d="M452 561h-209v10h209v129h10v-129h120v-10h-120v-561h-10v76q-28 -36 -76 -60t-96 -24q-102 0 -164 63q-61 64 -61 170q0 103 69 167q70 66 174 66q90 0 154 -48v151zM280 2q51 0 100 28q48 28 72 61v307q-71 50 -155 50q-99 0 -166 -63q-66 -63 -66 -160q0 -102 58 -163
q59 -60 157 -60z" />
    <glyph glyph-name="Emacron" unicode="&#x112;" horiz-adv-x="575" 
d="M505 0h-385v700h375v-10h-365v-328h335v-10h-335v-342h375v-10zM454 790h-294v10h294v-10z" />
    <glyph glyph-name="emacron" unicode="&#x113;" horiz-adv-x="529" 
d="M446 69l6 -6q-27 -33 -71 -52t-92 -19q-104 0 -169 64q-65 65 -65 169q0 103 56 168q57 65 164 65q88 0 143 -55q56 -56 56 -145q0 -2 -0.5 -11t-0.5 -12h-408q0 -107 60 -170q61 -63 164 -63q98 0 157 67zM271 448q-91 0 -146 -55.5t-60 -147.5h399q1 91 -52 148
q-52 55 -141 55zM382 640h-234v10h234v-10z" />
    <glyph glyph-name="Edotaccent" unicode="&#x116;" horiz-adv-x="575" 
d="M505 0h-385v700h375v-10h-365v-328h335v-10h-335v-342h375v-10zM297 790q0 12 13 12q12 0 12 -12q0 -13 -12 -13q-13 0 -13 13z" />
    <glyph glyph-name="edotaccent" unicode="&#x117;" horiz-adv-x="529" 
d="M446 69l6 -6q-27 -33 -71 -52t-92 -19q-104 0 -169 64q-65 65 -65 169q0 103 56 168q57 65 164 65q88 0 143 -55q56 -56 56 -145q0 -2 -0.5 -11t-0.5 -12h-408q0 -107 60 -170q61 -63 164 -63q98 0 157 67zM271 448q-91 0 -146 -55.5t-60 -147.5h399q1 91 -52 148
q-52 55 -141 55zM251 633q0 12 13 12q11 0 11.5 -12.5t-11.5 -12.5q-13 0 -13 13z" />
    <glyph glyph-name="Eogonek" unicode="&#x118;" horiz-adv-x="575" 
d="M447 0h-327v700h375v-10h-365v-328h335v-10h-335v-342h375v-10q-53 0 -96 -31t-43 -79q0 -43 29 -61q29 -19 62 -19q29 0 48 9l3 -9q-23 -10 -52 -10q-38 0 -69 21t-31 69q0 38 25 67.5t66 42.5z" />
    <glyph glyph-name="eogonek" unicode="&#x119;" horiz-adv-x="529" 
d="M446 69l6 -6q-35 -41 -90 -59q-80 -53 -80 -114q0 -43 29 -61q29 -19 62 -19q29 0 48 9l3 -9q-23 -10 -52 -10q-38 0 -69 21t-31 69q0 61 71 109q-29 -7 -54 -7q-104 0 -169 64q-65 65 -65 169q0 103 56 168q57 65 164 65q88 0 143 -55q56 -56 56 -145q0 -2 -0.5 -11
t-0.5 -12h-408q0 -107 60 -170q61 -63 164 -63q98 0 157 67zM271 448q-91 0 -146 -55.5t-60 -147.5h399q1 91 -52 148q-52 55 -141 55z" />
    <glyph glyph-name="Ecaron" unicode="&#x11a;" horiz-adv-x="575" 
d="M319 743h-4l-165 90l7 7l160 -87l158 87l8 -7zM505 0h-385v700h375v-10h-365v-328h335v-10h-335v-342h375v-10z" />
    <glyph glyph-name="ecaron" unicode="&#x11b;" horiz-adv-x="529" 
d="M446 69l6 -6q-27 -33 -71 -52t-92 -19q-104 0 -169 64q-65 65 -65 169q0 103 56 168q57 65 164 65q88 0 143 -55q56 -56 56 -145q0 -2 -0.5 -11t-0.5 -12h-408q0 -107 60 -170q61 -63 164 -63q98 0 157 67zM271 448q-91 0 -146 -55.5t-60 -147.5h399q1 91 -52 148
q-52 55 -141 55zM277 571h-4l-115 130l7 7l110 -124l108 124l8 -7z" />
    <glyph glyph-name="Gcircumflex" unicode="&#x11c;" horiz-adv-x="727" 
d="M647 303h-229v10h239v-226q-45 -45 -119 -70q-72 -25 -143 -25q-147 0 -242 98q-93 98 -93 260q0 153 93 255q93 103 240 103q131 0 211 -63l-7 -7q-74 60 -203 60q-144 0 -234 -100t-90 -248q0 -157 90 -253q92 -95 237 -95q69 0 138 24q69 23 112 65v212zM237 743l-7 7
l165 90h4l164 -90l-8 -7l-158 87z" />
    <glyph glyph-name="gcircumflex" unicode="&#x11d;" horiz-adv-x="484" 
d="M20 -71q0 51 37 85t104 46q-18 18 -18 49q0 28 20 51q-44 18 -69 56t-25 86q0 68 47 112t122 44q67 0 113 -37l123 37v-10l-115 -34q48 -45 48 -112q0 -68 -47 -112t-122 -44q-39 0 -66 10q-19 -18 -19 -47t21 -47q37 5 65 5q101 0 160 -36.5t59 -101.5t-59 -101
t-160 -36q-102 0 -160.5 36t-58.5 101zM88 23q-58 -34 -58 -94t57 -93q58 -34 152 -34q95 0 151 34q58 33 58 93t-58 94t-151 34t-151 -34zM124 406q-45 -40 -45 -104q0 -63 45 -105q46 -41 114 -41t114 41q45 42 45 105q0 64 -45 104q-45 42 -114 42t-114 -42zM240 708h4
l113 -130l-7 -7l-108 124l-110 -124l-8 7z" />
    <glyph glyph-name="Gbreve" unicode="&#x11e;" horiz-adv-x="727" 
d="M647 303h-229v10h239v-226q-45 -45 -119 -70q-72 -25 -143 -25q-147 0 -242 98q-93 98 -93 260q0 153 93 255q93 103 240 103q131 0 211 -63l-7 -7q-74 60 -203 60q-144 0 -234 -100t-90 -248q0 -157 90 -253q92 -95 237 -95q69 0 138 24q69 23 112 65v212zM250 834l7 6
q55 -70 143 -70q85 0 140 70l7 -6q-56 -74 -147 -74q-51 0 -90.5 22t-59.5 52z" />
    <glyph glyph-name="gbreve" unicode="&#x11f;" horiz-adv-x="484" 
d="M20 -71q0 51 37 85t104 46q-18 18 -18 49q0 28 20 51q-44 18 -69 56t-25 86q0 68 47 112t122 44q67 0 113 -37l123 37v-10l-115 -34q48 -45 48 -112q0 -68 -47 -112t-122 -44q-39 0 -66 10q-19 -18 -19 -47t21 -47q37 5 65 5q101 0 160 -36.5t59 -101.5t-59 -101
t-160 -36q-102 0 -160.5 36t-58.5 101zM88 23q-58 -34 -58 -94t57 -93q58 -34 152 -34q95 0 151 34q58 33 58 93t-58 94t-151 34t-151 -34zM124 406q-45 -40 -45 -104q0 -63 45 -105q46 -41 114 -41t114 41q45 42 45 105q0 64 -45 104q-45 42 -114 42t-114 -42zM113 674l7 6
q55 -70 123 -70q65 0 120 70l7 -6q-56 -74 -127 -74q-80 0 -130 74z" />
    <glyph glyph-name="Gdotaccent" unicode="&#x120;" horiz-adv-x="727" 
d="M647 303h-229v10h239v-226q-45 -45 -119 -70q-72 -25 -143 -25q-147 0 -242 98q-93 98 -93 260q0 153 93 255q93 103 240 103q131 0 211 -63l-7 -7q-74 60 -203 60q-144 0 -234 -100t-90 -248q0 -157 90 -253q92 -95 237 -95q69 0 138 24q69 23 112 65v212zM377 790
q0 12 13 12q12 0 12 -12q0 -13 -12 -13q-13 0 -13 13z" />
    <glyph glyph-name="gdotaccent" unicode="&#x121;" horiz-adv-x="484" 
d="M20 -71q0 51 37 85t104 46q-18 18 -18 49q0 28 20 51q-44 18 -69 56t-25 86q0 68 47 112t122 44q67 0 113 -37l123 37v-10l-115 -34q48 -45 48 -112q0 -68 -47 -112t-122 -44q-39 0 -66 10q-19 -18 -19 -47t21 -47q37 5 65 5q101 0 160 -36.5t59 -101.5t-59 -101
t-160 -36q-102 0 -160.5 36t-58.5 101zM88 23q-58 -34 -58 -94t57 -93q58 -34 152 -34q95 0 151 34q58 33 58 93t-58 94t-151 34t-151 -34zM124 406q-45 -40 -45 -104q0 -63 45 -105q46 -41 114 -41t114 41q45 42 45 105q0 64 -45 104q-45 42 -114 42t-114 -42zM229 633
q0 12 13 12q11 0 11.5 -12.5t-11.5 -12.5q-13 0 -13 13z" />
    <glyph glyph-name="Gcommaaccent" unicode="&#x122;" horiz-adv-x="727" 
d="M647 303h-229v10h239v-226q-45 -45 -119 -70q-72 -25 -143 -25q-147 0 -242 98q-93 98 -93 260q0 153 93 255q93 103 240 103q131 0 211 -63l-7 -7q-74 60 -203 60q-144 0 -234 -100t-90 -248q0 -157 90 -253q92 -95 237 -95q69 0 138 24q69 23 112 65v212zM377 -80l1 10
q44 -5 44 -51q0 -32 -13.5 -49.5t-44.5 -29.5l-3 8q51 20 51 67q0 40 -35 45z" />
    <glyph glyph-name="gcommaaccent" unicode="&#x123;" horiz-adv-x="484" 
d="M20 -71q0 51 37 85t104 46q-18 18 -18 49q0 28 20 51q-44 18 -69 56t-25 86q0 68 47 112t122 44q67 0 113 -37l123 37v-10l-115 -34q48 -45 48 -112q0 -68 -47 -112t-122 -44q-39 0 -66 10q-19 -18 -19 -47t21 -47q37 5 65 5q101 0 160 -36.5t59 -101.5t-59 -101
t-160 -36q-102 0 -160.5 36t-58.5 101zM88 23q-58 -34 -58 -94t57 -93q58 -34 152 -34q95 0 151 34q58 33 58 93t-58 94t-151 34t-151 -34zM124 406q-45 -40 -45 -104q0 -63 45 -105q46 -41 114 -41t114 41q45 42 45 105q0 64 -45 104q-45 42 -114 42t-114 -42zM262 577
l-1 -10q-44 5 -44 51q0 32 13.5 49.5t44.5 29.5l3 -8q-51 -19 -51 -67q0 -40 35 -45z" />
    <glyph glyph-name="Hcircumflex" unicode="&#x124;" horiz-adv-x="775" 
d="M228 743l-7 7l165 90h4l164 -90l-8 -7l-158 87zM655 0h-10v352h-515v-352h-10v700h10v-338h515v338h10v-700z" />
    <glyph glyph-name="hcircumflex" unicode="&#x125;" horiz-adv-x="554" 
d="M7 743l-7 7l165 90h4l164 -90l-8 -7l-158 87zM100 0h-10v700h10v-324q30 36 81 58q53 24 102 24q98 0 144.5 -50t46.5 -156v-252h-10v249q0 102 -44 150.5t-137 48.5q-55 0 -108 -27q-52 -27 -75 -59v-362z" />
    <glyph glyph-name="Hbar" unicode="&#x126;" horiz-adv-x="785" 
d="M125 532h-95v10h95v158h10v-158h515v158h10v-158h95v-10h-95v-532h-10v352h-515v-352h-10v532zM135 532v-170h515v170h-515z" />
    <glyph glyph-name="hbar" unicode="&#x127;" horiz-adv-x="554" 
d="M90 550h-140v10h140v140h10v-140h189v-10h-189v-174q30 36 81 58q53 24 102 24q98 0 144.5 -50t46.5 -156v-252h-10v249q0 102 -44 150.5t-137 48.5q-55 0 -108 -27q-52 -27 -75 -59v-362h-10v550z" />
    <glyph glyph-name="Imacron" unicode="&#x12a;" horiz-adv-x="310" 
d="M160 0h-10v700h10v-700zM302 790h-294v10h294v-10z" />
    <glyph glyph-name="imacron" unicode="&#x12b;" horiz-adv-x="250" 
d="M130 0h-10v450h10v-450zM242 640h-234v10h234v-10z" />
    <glyph glyph-name="Iogonek" unicode="&#x12e;" horiz-adv-x="310" 
d="M160 -181l3 -9q-23 -10 -52 -10q-37 0 -69 21q-31 21 -31 69t42 83q42 33 97 36v691h10v-700h-5q-53 -2 -93 -33q-41 -32 -41 -77q0 -43 29 -61q29 -19 62 -19q28 0 48 9z" />
    <glyph glyph-name="iogonek" unicode="&#x12f;" horiz-adv-x="250" 
d="M129 -181l3 -9q-23 -10 -52 -10q-38 0 -69 21t-31 69q0 50 42 84q44 34 98 35v441h10v-450h-1q-53 0 -96 -31t-43 -79q0 -43 29 -61q29 -19 62 -19q29 0 48 9zM112 633q0 8 8 11t13 -3q6 -5 3 -13t-11 -8q-13 0 -13 13z" />
    <glyph glyph-name="Idot" unicode="&#x130;" horiz-adv-x="310" 
d="M143 790q0 12 13 12q12 0 12 -12q0 -13 -12 -13q-13 0 -13 13zM160 0h-10v700h10v-700z" />
    <glyph glyph-name="dotlessi" unicode="&#x131;" horiz-adv-x="250" 
d="M130 0h-10v450h10v-450z" />
    <glyph glyph-name="Jcircumflex" unicode="&#x134;" horiz-adv-x="341" 
d="M47 743l-7 7l165 90h4l164 -90l-8 -7l-158 87zM211 700h10v-553q0 -79 -27 -117t-94 -38q-46 0 -80 25l6 9q32 -24 74 -24q62 0 86.5 35.5t24.5 108.5v554z" />
    <glyph glyph-name="jcircumflex" unicode="&#x135;" horiz-adv-x="251" 
d="M124 708h4l113 -130l-7 -7l-108 124l-110 -124l-8 7zM121 450h10v-483q0 -175 -141 -175q-46 0 -80 25l6 9q32 -24 74 -24q131 0 131 164v484z" />
    <glyph glyph-name="Kcommaaccent" unicode="&#x136;" horiz-adv-x="614" 
d="M549 700h14l-361 -335l372 -365h-15l-372 365zM130 0h-10v700h10v-700zM277 -80l1 10q44 -5 44 -51q0 -32 -13.5 -49.5t-44.5 -29.5l-3 8q51 20 51 67q0 40 -35 45z" />
    <glyph glyph-name="kcommaaccent" unicode="&#x137;" horiz-adv-x="445" 
d="M383 450h16l-237 -215l255 -235h-17l-253 235zM100 0h-10v700h10v-700zM199 -80l1 10q44 -5 44 -51q0 -32 -13.5 -49.5t-44.5 -29.5l-3 8q51 20 51 67q0 40 -35 45z" />
    <glyph glyph-name="Lacute" unicode="&#x139;" horiz-adv-x="555" 
d="M405 840l4 -8l-154 -90l-5 7zM535 0h-415v700h10v-690h405v-10z" />
    <glyph glyph-name="lacute" unicode="&#x13a;" horiz-adv-x="271" 
d="M90 111v589h10v-574q0 -63 18.5 -91t62.5 -28q43 0 74 24l6 -9q-34 -25 -80 -25q-48 0 -69.5 27.5t-21.5 86.5zM225 840l4 -8l-154 -90l-5 7z" />
    <glyph glyph-name="Lcommaaccent" unicode="&#x13b;" horiz-adv-x="555" 
d="M297 -80l1 10q44 -5 44 -51q0 -32 -13.5 -49.5t-44.5 -29.5l-3 8q51 20 51 67q0 40 -35 45zM535 0h-415v700h10v-690h405v-10z" />
    <glyph glyph-name="lcommaaccent" unicode="&#x13c;" horiz-adv-x="271" 
d="M90 111v589h10v-574q0 -63 18.5 -91t62.5 -28q43 0 74 24l6 -9q-34 -25 -80 -25q-48 0 -69.5 27.5t-21.5 86.5zM137 -80l1 10q44 -5 44 -51q0 -32 -13.5 -49.5t-44.5 -29.5l-3 8q51 20 51 67q0 40 -35 45z" />
    <glyph glyph-name="Lcaron" unicode="&#x13d;" horiz-adv-x="555" 
d="M357 700h10q10 -16 10 -43q0 -40 -16 -70.5t-42 -42.5l-3 8q23 13 37 41t14 63q0 28 -10 44zM535 0h-415v700h10v-690h405v-10z" />
    <glyph glyph-name="lcaron" unicode="&#x13e;" horiz-adv-x="271" 
d="M90 111v589h10v-574q0 -63 18.5 -91t62.5 -28q43 0 74 24l6 -9q-34 -25 -80 -25q-48 0 -69.5 27.5t-21.5 86.5zM227 700h10q10 -16 10 -43q0 -40 -16 -70.5t-42 -42.5l-3 8q23 13 37 41t14 63q0 28 -10 44z" />
    <glyph glyph-name="Ldot" unicode="&#x13f;" horiz-adv-x="555" 
d="M392 373q0 8 8 11t13 -3q6 -5 3 -13t-11 -8q-13 0 -13 13zM535 0h-415v700h10v-690h405v-10z" />
    <glyph glyph-name="ldot" unicode="&#x140;" horiz-adv-x="271" 
d="M90 111v589h10v-574q0 -63 18.5 -91t62.5 -28q43 0 74 24l6 -9q-34 -25 -80 -25q-48 0 -69.5 27.5t-21.5 86.5zM222 302q0 12 12.5 11.5t12.5 -11.5q0 -13 -12 -13q-13 0 -13 13z" />
    <glyph glyph-name="Lslash" unicode="&#x141;" horiz-adv-x="565" 
d="M130 303l-100 -54v12l100 53v386h10v-380l204 109v-11l-204 -110v-298h405v-10h-415v303z" />
    <glyph glyph-name="lslash" unicode="&#x142;" horiz-adv-x="301" 
d="M110 311l-90 -49v12l90 48v378h10v-372l125 67v-11l-125 -68v-190q0 -63 18.5 -91t62.5 -28q43 0 74 24l6 -9q-34 -25 -80 -25q-48 0 -69.5 27.5t-21.5 86.5v200z" />
    <glyph glyph-name="Nacute" unicode="&#x143;" horiz-adv-x="800" 
d="M680 700v-700h-8l-542 680v-680h-10v700h8l542 -682v682h10zM525 840l4 -8l-154 -90l-5 7z" />
    <glyph glyph-name="nacute" unicode="&#x144;" horiz-adv-x="554" 
d="M100 0h-10v450h10v-74q30 36 81 58q53 24 102 24q98 0 144.5 -50t46.5 -156v-252h-10v249q0 102 -44 150.5t-137 48.5q-55 0 -108 -27q-52 -27 -75 -59v-362zM359 706l7 -6l-109 -141l-8 5z" />
    <glyph glyph-name="Ncommaaccent" unicode="&#x145;" horiz-adv-x="800" 
d="M680 700v-700h-8l-542 680v-680h-10v700h8l542 -682v682h10zM377 -80l1 10q44 -5 44 -51q0 -32 -13.5 -49.5t-44.5 -29.5l-3 8q51 20 51 67q0 40 -35 45z" />
    <glyph glyph-name="ncommaaccent" unicode="&#x146;" horiz-adv-x="554" 
d="M100 0h-10v450h10v-74q30 36 81 58q53 24 102 24q98 0 144.5 -50t46.5 -156v-252h-10v249q0 102 -44 150.5t-137 48.5q-55 0 -108 -27q-52 -27 -75 -59v-362zM263 -80l1 10q44 -5 44 -51q0 -32 -13.5 -49.5t-44.5 -29.5l-3 8q51 20 51 67q0 40 -35 45z" />
    <glyph glyph-name="Ncaron" unicode="&#x147;" horiz-adv-x="800" 
d="M401 743h-4l-165 90l7 7l160 -87l158 87l8 -7zM680 700v-700h-8l-542 680v-680h-10v700h8l542 -682v682h10z" />
    <glyph glyph-name="ncaron" unicode="&#x148;" horiz-adv-x="554" 
d="M279 571h-4l-115 130l7 7l110 -124l108 124l8 -7zM100 0h-10v450h10v-74q30 36 81 58q53 24 102 24q98 0 144.5 -50t46.5 -156v-252h-10v249q0 102 -44 150.5t-137 48.5q-55 0 -108 -27q-52 -27 -75 -59v-362z" />
    <glyph glyph-name="Omacron" unicode="&#x14c;" horiz-adv-x="804" 
d="M158 95q-98 104 -98 255t98 255q99 103 244 103q146 0 243 -103q99 -103 99 -255t-99 -255q-97 -103 -243 -103q-145 0 -244 103zM165 598q-95 -101 -95 -248t95 -248q96 -100 237 -100q142 0 236 100q96 101 96 248q0 148 -96 248q-94 100 -236 100q-141 0 -237 -100z
M549 790h-294v10h294v-10z" />
    <glyph glyph-name="omacron" unicode="&#x14d;" horiz-adv-x="570" 
d="M120 58q-65 67 -65 167t65 167q64 66 165 66t165 -66q65 -67 65 -167t-65 -167q-64 -66 -165 -66t-165 66zM126 385q-61 -61 -61 -160t61 -161q62 -62 159 -62q96 0 158 62q62 64 62 161q0 98 -62 160q-61 63 -158 63t-159 -63zM402 640h-234v10h234v-10z" />
    <glyph glyph-name="Ohungarumlaut" unicode="&#x150;" horiz-adv-x="804" 
d="M158 95q-98 104 -98 255t98 255q99 103 244 103q146 0 243 -103q99 -103 99 -255t-99 -255q-97 -103 -243 -103q-145 0 -244 103zM165 598q-95 -101 -95 -248t95 -248q96 -100 237 -100q142 0 236 100q96 101 96 248q0 148 -96 248q-94 100 -236 100q-141 0 -237 -100z
M625 840l4 -8l-154 -90l-5 7zM455 840l4 -8l-154 -90l-5 7z" />
    <glyph glyph-name="ohungarumlaut" unicode="&#x151;" horiz-adv-x="570" 
d="M450 706l7 -6l-109 -141l-8 5zM310 706l7 -6l-109 -141l-8 5zM120 58q-65 67 -65 167t65 167q64 66 165 66t165 -66q65 -67 65 -167t-65 -167q-64 -66 -165 -66t-165 66zM126 385q-61 -61 -61 -160t61 -161q62 -62 159 -62q96 0 158 62q62 64 62 161q0 98 -62 160
q-61 63 -158 63t-159 -63z" />
    <glyph glyph-name="OE" unicode="&#x152;" horiz-adv-x="1050" 
d="M980 0h-385v48q-77 -56 -191 -56q-154 0 -249 98t-95 260q0 153 93 255q93 103 240 103q125 0 202 -56v48h375v-10h-365v-328h335v-10h-335v-342h375v-10zM404 2q115 0 191 61v576q-74 59 -201 59q-144 0 -234 -100t-90 -248q0 -156 92 -253q93 -95 242 -95z" />
    <glyph glyph-name="oe" unicode="&#x153;" horiz-adv-x="849" 
d="M766 69l6 -6q-27 -33 -71 -52t-92 -19q-101 0 -164 60q-61 -60 -160 -60q-101 0 -165 66q-65 67 -65 167t65 167q64 66 165 66q90 0 155 -56q59 56 155 56q88 0 143 -55q56 -56 56 -145q0 -2 -0.5 -11t-0.5 -12h-408q0 -107 60 -170q61 -63 164 -63q98 0 157 67zM285 2
q91 0 153 57q-63 63 -63 166q0 108 58 169q-60 54 -148 54q-97 0 -159 -63q-61 -61 -61 -160t61 -161q62 -62 159 -62zM591 448q-91 0 -146 -55.5t-60 -147.5h399q1 91 -52 148q-52 55 -141 55z" />
    <glyph glyph-name="Racute" unicode="&#x154;" horiz-adv-x="613" 
d="M130 315v-315h-10v700q40 0 76 1t62 1q239 0 239 -192q0 -68 -51 -123q-49 -55 -135 -70l262 -317h-14l-260 315h-169zM257 692q-39 0 -127 -2v-365h148q80 0 144 54q65 54 65 132q0 181 -230 181zM365 840l4 -8l-154 -90l-5 7z" />
    <glyph glyph-name="racute" unicode="&#x155;" horiz-adv-x="313" 
d="M100 0h-10v450h10v-70q48 78 133 78q47 0 70 -17l-3 -10q-29 17 -67 17q-77 0 -133 -86v-362zM278 706l7 -6l-109 -141l-8 5z" />
    <glyph glyph-name="Rcommaaccent" unicode="&#x156;" horiz-adv-x="613" 
d="M130 315v-315h-10v700q40 0 76 1t62 1q239 0 239 -192q0 -68 -51 -123q-49 -55 -135 -70l262 -317h-14l-260 315h-169zM257 692q-39 0 -127 -2v-365h148q80 0 144 54q65 54 65 132q0 181 -230 181zM277 -80l1 10q44 -5 44 -51q0 -32 -13.5 -49.5t-44.5 -29.5l-3 8
q51 20 51 67q0 40 -35 45z" />
    <glyph glyph-name="rcommaaccent" unicode="&#x157;" horiz-adv-x="313" 
d="M100 0h-10v450h10v-70q48 78 133 78q47 0 70 -17l-3 -10q-29 17 -67 17q-77 0 -133 -86v-362zM123 -80l1 10q44 -5 44 -51q0 -32 -13.5 -49.5t-44.5 -29.5l-3 8q51 20 51 67q0 40 -35 45z" />
    <glyph glyph-name="Rcaron" unicode="&#x158;" horiz-adv-x="613" 
d="M130 315v-315h-10v700q40 0 76 1t62 1q239 0 239 -192q0 -68 -51 -123q-49 -55 -135 -70l262 -317h-14l-260 315h-169zM257 692q-39 0 -127 -2v-365h148q80 0 144 54q65 54 65 132q0 181 -230 181zM269 743h-4l-165 90l7 7l160 -87l158 87l8 -7z" />
    <glyph glyph-name="rcaron" unicode="&#x159;" horiz-adv-x="313" 
d="M189 571h-4l-115 130l7 7l110 -124l108 124l8 -7zM100 0h-10v450h10v-70q48 78 133 78q47 0 70 -17l-3 -10q-29 17 -67 17q-77 0 -133 -86v-362z" />
    <glyph glyph-name="Sacute" unicode="&#x15a;" horiz-adv-x="541" 
d="M471 167q0 117 -139 168q-76 28 -115 41q-138 51 -138 168q0 74 52.5 119t143.5 45q54 0 103.5 -19t77.5 -50l-7 -7q-63 66 -177 66q-83 0 -133 -42t-50 -111q0 -54 29 -91t72.5 -54.5l94.5 -37t94.5 -38.5t72.5 -59t29 -98q0 -79 -62 -127q-61 -48 -154 -48
q-60 0 -120 27q-60 28 -85 69l8 7q33 -43 86 -68q54 -25 109 -25q85 0 146 43q62 44 62 122zM385 840l4 -8l-154 -90l-5 7z" />
    <glyph glyph-name="sacute" unicode="&#x15b;" horiz-adv-x="401" 
d="M331 111q0 72 -91 101q-2 1 -22 7t-24 7.5t-22 7.5t-23 9.5t-19.5 11t-19.5 13.5t-14.5 15.5t-13 19t-6.5 22t-3 26.5q0 48 36 77.5t95 29.5q35 0 68.5 -12.5t51.5 -32.5l-7 -8q-42 43 -115 43q-52 0 -85.5 -27.5t-33.5 -68.5q0 -42 26.5 -68.5t64.5 -39l76 -25t64.5 -39
t26.5 -68.5q0 -56 -40 -88t-104 -32q-37 0 -80 17q-42 16 -57 41l9 6q17 -23 54 -38.5t73 -15.5q57 0 96 29.5t39 79.5zM292 706l7 -6l-109 -141l-8 5z" />
    <glyph glyph-name="Scircumflex" unicode="&#x15c;" horiz-adv-x="541" 
d="M471 167q0 117 -139 168q-76 28 -115 41q-138 51 -138 168q0 74 52.5 119t143.5 45q54 0 103.5 -19t77.5 -50l-7 -7q-63 66 -177 66q-83 0 -133 -42t-50 -111q0 -54 29 -91t72.5 -54.5l94.5 -37t94.5 -38.5t72.5 -59t29 -98q0 -79 -62 -127q-61 -48 -154 -48
q-60 0 -120 27q-60 28 -85 69l8 7q33 -43 86 -68q54 -25 109 -25q85 0 146 43q62 44 62 122zM111 743l-7 7l165 90h4l164 -90l-8 -7l-158 87z" />
    <glyph glyph-name="scircumflex" unicode="&#x15d;" horiz-adv-x="401" 
d="M331 111q0 72 -91 101q-2 1 -22 7t-24 7.5t-22 7.5t-23 9.5t-19.5 11t-19.5 13.5t-14.5 15.5t-13 19t-6.5 22t-3 26.5q0 48 36 77.5t95 29.5q35 0 68.5 -12.5t51.5 -32.5l-7 -8q-42 43 -115 43q-52 0 -85.5 -27.5t-33.5 -68.5q0 -42 26.5 -68.5t64.5 -39l76 -25t64.5 -39
t26.5 -68.5q0 -56 -40 -88t-104 -32q-37 0 -80 17q-42 16 -57 41l9 6q17 -23 54 -38.5t73 -15.5q57 0 96 29.5t39 79.5zM203 708h4l113 -130l-7 -7l-108 124l-110 -124l-8 7z" />
    <glyph glyph-name="Scedilla" unicode="&#x15e;" horiz-adv-x="541" 
d="M184 -180l4 9q38 -19 74 -19q40 0 65 16.5t25 43.5q0 60 -90 60h-6v62q-57 1 -115 28q-55 27 -81 68l8 7q33 -43 86 -68q54 -25 109 -25q85 0 146 43q62 44 62 122q0 117 -139 168q-76 28 -115 41q-138 51 -138 168q0 74 52.5 119t143.5 45q54 0 103.5 -19t77.5 -50
l-7 -7q-63 66 -177 66q-83 0 -133 -42t-50 -111q0 -54 29 -91t72.5 -54.5l94.5 -37t94.5 -38.5t72.5 -59t29 -98q0 -79 -62 -127q-61 -46 -153 -48v-52q96 -2 96 -70q0 -31 -27.5 -50.5t-72.5 -19.5q-35 0 -78 20z" />
    <glyph glyph-name="scedilla" unicode="&#x15f;" horiz-adv-x="401" 
d="M115 -180l4 9q38 -19 74 -19q40 0 65 16.5t25 43.5q0 60 -90 60h-6v62q-36 1 -76 19q-37 17 -51 39l9 6q17 -23 54 -38.5t73 -15.5q57 0 96 29.5t39 79.5q0 72 -91 101q-2 1 -22 7t-24 7.5t-22 7.5t-23 9.5t-19.5 11t-19.5 13.5t-14.5 15.5t-13 19t-6.5 22t-3 26.5
q0 48 36 77.5t95 29.5q35 0 68.5 -12.5t51.5 -32.5l-7 -8q-42 43 -115 43q-52 0 -85.5 -27.5t-33.5 -68.5q0 -42 26.5 -68.5t64.5 -39l76 -25t64.5 -39t26.5 -68.5q0 -56 -40 -88t-104 -32v-52q96 -2 96 -70q0 -31 -27.5 -50.5t-72.5 -19.5q-35 0 -78 20z" />
    <glyph glyph-name="Scaron" unicode="&#x160;" horiz-adv-x="541" 
d="M471 167q0 117 -139 168q-76 28 -115 41q-138 51 -138 168q0 74 52.5 119t143.5 45q54 0 103.5 -19t77.5 -50l-7 -7q-63 66 -177 66q-83 0 -133 -42t-50 -111q0 -54 29 -91t72.5 -54.5l94.5 -37t94.5 -38.5t72.5 -59t29 -98q0 -79 -62 -127q-61 -48 -154 -48
q-60 0 -120 27q-60 28 -85 69l8 7q33 -43 86 -68q54 -25 109 -25q85 0 146 43q62 44 62 122zM279 743h-4l-165 90l7 7l160 -87l158 87l8 -7z" />
    <glyph glyph-name="scaron" unicode="&#x161;" horiz-adv-x="401" 
d="M331 111q0 72 -91 101q-2 1 -22 7t-24 7.5t-22 7.5t-23 9.5t-19.5 11t-19.5 13.5t-14.5 15.5t-13 19t-6.5 22t-3 26.5q0 48 36 77.5t95 29.5q35 0 68.5 -12.5t51.5 -32.5l-7 -8q-42 43 -115 43q-52 0 -85.5 -27.5t-33.5 -68.5q0 -42 26.5 -68.5t64.5 -39l76 -25t64.5 -39
t26.5 -68.5q0 -56 -40 -88t-104 -32q-37 0 -80 17q-42 16 -57 41l9 6q17 -23 54 -38.5t73 -15.5q57 0 96 29.5t39 79.5zM203 571h-4l-115 130l7 7l110 -124l108 124l8 -7z" />
    <glyph glyph-name="Tcedilla" unicode="&#x162;" horiz-adv-x="590" 
d="M218 -180l4 9q38 -19 74 -19q40 0 65 16.5t25 43.5q0 60 -90 60h-6v760h-280v10h570v-10h-280v-750q96 -2 96 -70q0 -31 -27.5 -50.5t-72.5 -19.5q-35 0 -78 20z" />
    <glyph glyph-name="tcedilla" unicode="&#x163;" horiz-adv-x="341" 
d="M104 -180l4 9q38 -19 74 -19q40 0 65 16.5t25 43.5q0 60 -90 60h-6v71q-96 22 -96 170v404h10v-125h205v-10h-205v-260q0 -89 31.5 -131.5t99.5 -42.5q43 0 74 24l6 -9q-34 -25 -80 -25q-20 0 -35 3v-59q96 -2 96 -70q0 -31 -27.5 -50.5t-72.5 -19.5q-35 0 -78 20z" />
    <glyph glyph-name="Tcaron" unicode="&#x164;" horiz-adv-x="590" 
d="M298 743h-4l-165 90l7 7l160 -87l158 87l8 -7zM290 690h-280v10h570v-10h-280v-690h-10v690z" />
    <glyph glyph-name="tcaron" unicode="&#x165;" horiz-adv-x="341" 
d="M80 171v404h10v-125h205v-10h-205v-260q0 -89 31.5 -131.5t99.5 -42.5q43 0 74 24l6 -9q-34 -25 -80 -25q-73 0 -107 43t-34 132zM237 700h10q10 -16 10 -43q0 -40 -16 -70.5t-42 -42.5l-3 8q23 13 37 41t14 63q0 28 -10 44z" />
    <glyph glyph-name="Umacron" unicode="&#x16a;" horiz-adv-x="751" 
d="M631 700h10v-405q0 -152 -73 -226q-72 -75 -183 -75q-122 0 -199 80q-76 79 -76 228v398h10v-399q0 -141 74 -220q74 -77 191 -77q108 0 177 73t69 221v402zM522 790h-294v10h294v-10z" />
    <glyph glyph-name="umacron" unicode="&#x16b;" horiz-adv-x="550" 
d="M450 450h10v-450h-10v83q-31 -37 -84 -64q-52 -27 -105 -27q-93 0 -137 50t-44 156v252h10v-249q0 -102 41.5 -150.5t131.5 -48.5q57 0 110 30t77 65v353zM392 640h-234v10h234v-10z" />
    <glyph glyph-name="Ubreve" unicode="&#x16c;" horiz-adv-x="751" 
d="M631 700h10v-405q0 -152 -73 -226q-72 -75 -183 -75q-122 0 -199 80q-76 79 -76 228v398h10v-399q0 -141 74 -220q74 -77 191 -77q108 0 177 73t69 221v402zM227 834l7 6q55 -70 143 -70q85 0 140 70l7 -6q-56 -74 -147 -74q-51 0 -90.5 22t-59.5 52z" />
    <glyph glyph-name="ubreve" unicode="&#x16d;" horiz-adv-x="550" 
d="M450 450h10v-450h-10v83q-31 -37 -84 -64q-52 -27 -105 -27q-93 0 -137 50t-44 156v252h10v-249q0 -102 41.5 -150.5t131.5 -48.5q57 0 110 30t77 65v353zM146 674l7 6q55 -70 123 -70q65 0 120 70l7 -6q-56 -74 -127 -74q-80 0 -130 74z" />
    <glyph glyph-name="Uring" unicode="&#x16e;" horiz-adv-x="751" 
d="M375 850q42 0 67.5 -19.5t25.5 -55.5t-26 -57t-67 -21t-66.5 21t-25.5 57t25.5 55.5t66.5 19.5zM315 824q-22 -16 -22 -49t23 -51q23 -17 59 -17t59 17q24 18 24 51q0 32 -23 49q-22 16 -60 16t-60 -16zM631 700h10v-405q0 -152 -73 -226q-72 -75 -183 -75
q-122 0 -199 80q-76 79 -76 228v398h10v-399q0 -141 74 -220q74 -77 191 -77q108 0 177 73t69 221v402z" />
    <glyph glyph-name="uring" unicode="&#x16f;" horiz-adv-x="550" 
d="M460 450h-10v-353q-24 -35 -77 -65t-110 -30q-90 0 -131.5 48.5t-41.5 150.5v249h-10v-252q0 -106 44 -156t137 -50q53 0 105 27q53 27 84 64v-83h10v450zM209 550q27 -27 65 -27t65 27q28 27 28 65t-28 65q-27 28 -65 28t-65 -28q-27 -27 -27 -65t27 -65zM274 533
q-34 -3 -58 23t-24 58.5t24 59.5q17 19 42 22.5t47.5 -5.5t37.5 -29.5t14 -46.5q0 -34 -24 -58t-59 -24z" />
    <glyph glyph-name="Uhungarumlaut" unicode="&#x170;" horiz-adv-x="751" 
d="M631 700h10v-405q0 -152 -73 -226q-72 -75 -183 -75q-122 0 -199 80q-76 79 -76 228v398h10v-399q0 -141 74 -220q74 -77 191 -77q108 0 177 73t69 221v402zM585 840l4 -8l-154 -90l-5 7zM415 840l4 -8l-154 -90l-5 7z" />
    <glyph glyph-name="uhungarumlaut" unicode="&#x171;" horiz-adv-x="550" 
d="M440 706l7 -6l-109 -141l-8 5zM300 706l7 -6l-109 -141l-8 5zM450 450h10v-450h-10v83q-31 -37 -84 -64q-52 -27 -105 -27q-93 0 -137 50t-44 156v252h10v-249q0 -102 41.5 -150.5t131.5 -48.5q57 0 110 30t77 65v353z" />
    <glyph glyph-name="Uogonek" unicode="&#x172;" horiz-adv-x="751" 
d="M631 700h10v-405q0 -128 -54 -203t-147 -93q-96 -37 -96 -109q0 -43 29 -61q29 -19 62 -19q29 0 48 9l3 -9q-23 -10 -52 -10q-38 0 -69 21t-31 69q0 68 80 106q-26 -2 -29 -2q-122 0 -199 80q-76 79 -76 228v398h10v-399q0 -141 74 -220q74 -77 191 -77q108 0 177 73
t69 221v402z" />
    <glyph glyph-name="uogonek" unicode="&#x173;" horiz-adv-x="550" 
d="M460 -181l3 -9q-23 -10 -52 -10q-37 0 -69 21q-31 21 -31 69t42 83q42 33 97 36v74q-31 -37 -84 -64q-52 -27 -105 -27q-93 0 -137 50t-44 156v252h10v-249q0 -102 41.5 -150.5t131.5 -48.5q57 0 110 30t77 65v353h10v-450q-53 0 -96 -31t-43 -79q0 -43 29 -61
q29 -19 62 -19q28 0 48 9z" />
    <glyph glyph-name="Ydieresis" unicode="&#x178;" horiz-adv-x="554" 
d="M521 700h13l-253 -385v-315h-10v315l-251 385h13l243 -375zM148 790q0 12 13 12q12 0 12 -12q0 -13 -12 -13q-13 0 -13 13zM382 790q0 12 13 12q12 0 12 -12q0 -13 -12 -13q-13 0 -13 13z" />
    <glyph glyph-name="Zacute" unicode="&#x179;" horiz-adv-x="620" 
d="M551 690h-491v10h510v-2l-512 -688h522v-10h-540v2zM425 840l4 -8l-154 -90l-5 7z" />
    <glyph glyph-name="zacute" unicode="&#x17a;" horiz-adv-x="475" 
d="M406 440h-341v10h360v-2l-357 -438h352v-10h-370v2zM329 706l7 -6l-109 -141l-8 5z" />
    <glyph glyph-name="Zdotaccent" unicode="&#x17b;" horiz-adv-x="620" 
d="M551 690h-491v10h510v-2l-512 -688h522v-10h-540v2zM287 790q0 12 13 12q12 0 12 -12q0 -13 -12 -13q-13 0 -13 13z" />
    <glyph glyph-name="zdotaccent" unicode="&#x17c;" horiz-adv-x="475" 
d="M406 440h-341v10h360v-2l-357 -438h352v-10h-370v2zM224 633q0 8 8 11t13 -3q6 -5 3 -13t-11 -8q-13 0 -13 13z" />
    <glyph glyph-name="Zcaron" unicode="&#x17d;" horiz-adv-x="620" 
d="M309 743h-4l-165 90l7 7l160 -87l158 87l8 -7zM551 690h-491v10h510v-2l-512 -688h522v-10h-540v2z" />
    <glyph glyph-name="zcaron" unicode="&#x17e;" horiz-adv-x="475" 
d="M240 571h-4l-115 130l7 7l110 -124l108 124l8 -7zM406 440h-341v10h360v-2l-357 -438h352v-10h-370v2z" />
    <glyph glyph-name="longs" unicode="&#x17f;" horiz-adv-x="251" 
d="M120 0h-10v523q0 185 151 185q64 0 110 -35l-6 -9q-46 34 -104 34q-72 0 -106.5 -44.5t-34.5 -139.5v-514z" />
    <glyph glyph-name="uni018F" unicode="&#x18f;" horiz-adv-x="776" 
d="M50 362h656q-3 153 -95 245q-91 91 -244 91q-122 0 -202 -62l-6 7q76 65 208 65q161 0 255 -96q94 -94 94 -258q0 -156 -91 -259q-90 -103 -242 -103q-150 0 -242 105q-89 104 -91 265zM382 2q149 0 236 100q86 100 88 250h-646q1 -149 90 -250q88 -100 232 -100z" />
    <glyph glyph-name="florin" unicode="&#x192;" horiz-adv-x="584" 
d="M327 514l-12 -64h197v-10h-199l-86 -473q-16 -90 -53.5 -132.5t-107.5 -42.5q-46 0 -80 25l6 9q31 -24 74 -24q67 0 101 39.5t50 127.5l85 471h-183v10h185l13 73q18 97 58 141t113 44q64 0 110 -35l-6 -9q-46 34 -104 34q-69 0 -106 -42.5t-55 -141.5z" />
    <glyph glyph-name="uni01DD" unicode="&#x1dd;" horiz-adv-x="529" 
d="M83 381l-6 6q26 33 74.5 52t98.5 19q102 0 163 -64q61 -62 61 -169q0 -103 -56 -168t-157 -65q-94 0 -150 55q-56 56 -56 145q0 2 0.5 16t0.5 17h408q0 95 -58 159q-57 64 -156 64q-48 0 -94.5 -19t-72.5 -48zM264 2q90 0 145 60q55 59 55 153h-399q-4 -100 50 -156.5
t149 -56.5z" />
    <glyph glyph-name="Scommaaccent" unicode="&#x218;" horiz-adv-x="541" 
d="M471 167q0 117 -139 168q-76 28 -115 41q-138 51 -138 168q0 74 52.5 119t143.5 45q54 0 103.5 -19t77.5 -50l-7 -7q-63 66 -177 66q-83 0 -133 -42t-50 -111q0 -54 29 -91t72.5 -54.5l94.5 -37t94.5 -38.5t72.5 -59t29 -98q0 -79 -62 -127q-61 -48 -154 -48
q-60 0 -120 27q-60 28 -85 69l8 7q33 -43 86 -68q54 -25 109 -25q85 0 146 43q62 44 62 122zM247 -80l1 10q44 -5 44 -51q0 -32 -13.5 -49.5t-44.5 -29.5l-3 8q51 20 51 67q0 40 -35 45z" />
    <glyph glyph-name="scommaaccent" unicode="&#x219;" horiz-adv-x="401" 
d="M331 111q0 72 -91 101q-2 1 -22 7t-24 7.5t-22 7.5t-23 9.5t-19.5 11t-19.5 13.5t-14.5 15.5t-13 19t-6.5 22t-3 26.5q0 48 36 77.5t95 29.5q35 0 68.5 -12.5t51.5 -32.5l-7 -8q-42 43 -115 43q-52 0 -85.5 -27.5t-33.5 -68.5q0 -42 26.5 -68.5t64.5 -39l76 -25t64.5 -39
t26.5 -68.5q0 -56 -40 -88t-104 -32q-37 0 -80 17q-42 16 -57 41l9 6q17 -23 54 -38.5t73 -15.5q57 0 96 29.5t39 79.5zM187 -80l1 10q44 -5 44 -51q0 -32 -13.5 -49.5t-44.5 -29.5l-3 8q51 20 51 67q0 40 -35 45z" />
    <glyph glyph-name="Tcommaaccent" unicode="&#x21a;" horiz-adv-x="590" 
d="M290 690h-280v10h570v-10h-280v-690h-10v690zM282 -80l1 10q44 -5 44 -51q0 -32 -13.5 -49.5t-44.5 -29.5l-3 8q51 20 51 67q0 40 -35 45z" />
    <glyph glyph-name="tcommaaccent" unicode="&#x21b;" horiz-adv-x="341" 
d="M80 171v404h10v-125h205v-10h-205v-260q0 -89 31.5 -131.5t99.5 -42.5q43 0 74 24l6 -9q-34 -25 -80 -25q-73 0 -107 43t-34 132zM182 -80l1 10q44 -5 44 -51q0 -32 -13.5 -49.5t-44.5 -29.5l-3 8q51 20 51 67q0 40 -35 45z" />
    <glyph glyph-name="uni0237" unicode="&#x237;" horiz-adv-x="251" 
d="M121 450h10v-483q0 -175 -141 -175q-46 0 -80 25l6 9q32 -24 74 -24q131 0 131 164v484z" />
    <glyph glyph-name="uni0259" unicode="&#x259;" horiz-adv-x="529" 
d="M83 381l-6 6q26 33 74.5 52t98.5 19q102 0 163 -64q61 -62 61 -169q0 -103 -56 -168t-157 -65q-94 0 -150 55q-56 56 -56 145q0 2 0.5 16t0.5 17h408q0 95 -58 159q-57 64 -156 64q-48 0 -94.5 -19t-72.5 -48zM264 2q90 0 145 60q55 59 55 153h-399q-4 -100 50 -156.5
t149 -56.5z" />
    <glyph glyph-name="afii57929" unicode="&#x2bc;" horiz-adv-x="181" 
d="M92 633l8 8q21 -23 21 -59q0 -75 -58 -105l-3 8q51 25 51 95q0 34 -19 53z" />
    <glyph glyph-name="circumflex" unicode="&#x2c6;" horiz-adv-x="353" 
d="M176 708h4l113 -130l-7 -7l-108 124l-110 -124l-8 7z" />
    <glyph glyph-name="caron" unicode="&#x2c7;" horiz-adv-x="353" 
d="M179 571h-4l-115 130l7 7l110 -124l108 124l8 -7z" />
    <glyph glyph-name="breve" unicode="&#x2d8;" horiz-adv-x="377" 
d="M60 674l7 6q55 -70 123 -70q65 0 120 70l7 -6q-56 -74 -127 -74q-80 0 -130 74z" />
    <glyph glyph-name="dotaccent" unicode="&#x2d9;" horiz-adv-x="145" 
d="M60 633q0 8 8 11t13 -3q6 -5 3 -13t-11 -8q-13 0 -13 13z" />
    <glyph glyph-name="ring" unicode="&#x2da;" horiz-adv-x="305" 
d="M87 550q27 -27 65 -27t65 27q28 27 28 65t-28 65q-27 28 -65 28t-65 -28q-27 -27 -27 -65t27 -65zM152 533q-34 -3 -58 23t-24 58.5t24 59.5q17 19 42 22.5t47.5 -5.5t37.5 -29.5t14 -46.5q0 -34 -24 -58t-59 -24z" />
    <glyph glyph-name="ogonek" unicode="&#x2db;" horiz-adv-x="272" 
d="M209 -181l3 -9q-23 -10 -52 -10q-38 0 -69 21t-31 69q0 52 46 86t103 34v-10q-53 0 -96 -31t-43 -79q0 -43 29 -61q29 -19 62 -19q29 0 48 9z" />
    <glyph glyph-name="tilde" unicode="&#x2dc;" horiz-adv-x="399" 
d="M66 596l-6 7q50 41 87 41q25 0 56 -25q32 -24 52 -24q31 0 77 43l7 -7q-49 -46 -86 -46q-23 0 -54 24q-31 25 -55 25q-31 0 -78 -38z" />
    <glyph glyph-name="hungarumlaut" unicode="&#x2dd;" horiz-adv-x="377" 
d="M310 706l7 -6l-109 -141l-8 5zM170 706l7 -6l-109 -141l-8 5z" />
    <glyph glyph-name="gravecomb" unicode="&#x300;" horiz-adv-x="0" 
d="M-243 564l-8 -5l-109 141l7 6z" />
    <glyph glyph-name="acutecomb" unicode="&#x301;" horiz-adv-x="0" 
d="M-171 706l7 -6l-109 -141l-8 5z" />
    <glyph glyph-name="uni0394" unicode="&#x394;" horiz-adv-x="696" 
d="M656 0h-616l303 708h3zM640 10l-296 678l-289 -678h585z" />
    <glyph glyph-name="uni0394" unicode="&#x2206;" horiz-adv-x="696" 
d="M656 0h-616l303 708h3zM640 10l-296 678l-289 -678h585z" />
    <glyph glyph-name="uni03A9" unicode="&#x3a9;" horiz-adv-x="804" 
d="M328 0h-231v10h194q-101 34 -167 127q-64 92 -64 213q0 151 98 255q99 103 244 103q146 0 243 -103q99 -103 99 -255q0 -121 -64 -213q-65 -93 -168 -127h194v-10h-231v10q114 26 186 118q73 94 73 222q0 148 -96 248q-94 100 -236 100q-141 0 -237 -100
q-95 -101 -95 -248q0 -128 72 -222q72 -92 186 -118v-10z" />
    <glyph glyph-name="uni03A9" unicode="&#x2126;" horiz-adv-x="804" 
d="M328 0h-231v10h194q-101 34 -167 127q-64 92 -64 213q0 151 98 255q99 103 244 103q146 0 243 -103q99 -103 99 -255q0 -121 -64 -213q-65 -93 -168 -127h194v-10h-231v10q114 26 186 118q73 94 73 222q0 148 -96 248q-94 100 -236 100q-141 0 -237 -100
q-95 -101 -95 -248q0 -128 72 -222q72 -92 186 -118v-10z" />
    <glyph glyph-name="pi" unicode="&#x3c0;" horiz-adv-x="651" 
d="M171 440h-115v10h539v-10h-115v-334q0 -56 12 -77.5t45 -21.5q37 0 68 24l6 -9q-34 -25 -74 -25q-35 0 -51 22.5t-16 71.5v349h-289v-92q0 -139 -19 -216q-19 -79 -48 -106q-29 -26 -74 -26v10q43 0 70.5 28t44 102.5t16.5 198.5v101z" />
    <glyph glyph-name="afii10023" unicode="&#x401;" horiz-adv-x="575" 
d="M505 0h-385v700h375v-10h-365v-328h335v-10h-335v-342h375v-10zM178 790q0 12 13 12q12 0 12 -12q0 -13 -12 -13q-13 0 -13 13zM412 790q0 12 13 12q12 0 12 -12q0 -13 -12 -13q-13 0 -13 13z" />
    <glyph glyph-name="afii10051" unicode="&#x402;" horiz-adv-x="757" 
d="M697 205q0 -108 -42.5 -160.5t-119.5 -52.5q-49 0 -79 25l6 9q32 -24 74 -24q72 0 111.5 50.5t39.5 152.5q0 106 -49 157t-148 51q-76 -4 -117 -26l-27 -14l-25 -17q-20 -13 -21 -13v-343h-10v690h-280v10h570v-10h-280v-336l48 32q65 37 144 37q205 0 205 -218z" />
    <glyph glyph-name="afii10052" unicode="&#x403;" horiz-adv-x="500" 
d="M425 840l4 -8l-154 -90l-5 7zM130 0h-10v700h380v-10h-370v-690z" />
    <glyph glyph-name="afii10053" unicode="&#x404;" horiz-adv-x="684" 
d="M70 362h408v-10h-408v-2q0 -154 95 -252q95 -96 249 -96q113 0 213 70l7 -7q-101 -73 -221 -73q-157 0 -255 98q-98 100 -98 260q0 156 95 257q96 101 254 101q132 0 208 -65l-6 -7q-80 62 -202 62q-150 0 -243 -95q-92 -95 -96 -241z" />
    <glyph glyph-name="afii10054" unicode="&#x405;" horiz-adv-x="541" 
d="M471 167q0 117 -139 168q-76 28 -115 41q-138 51 -138 168q0 74 52.5 119t143.5 45q54 0 103.5 -19t77.5 -50l-7 -7q-63 66 -177 66q-83 0 -133 -42t-50 -111q0 -54 29 -91t72.5 -54.5l94.5 -37t94.5 -38.5t72.5 -59t29 -98q0 -79 -62 -127q-61 -48 -154 -48
q-60 0 -120 27q-60 28 -85 69l8 7q33 -43 86 -68q54 -25 109 -25q85 0 146 43q62 44 62 122z" />
    <glyph glyph-name="afii10055" unicode="&#x406;" horiz-adv-x="310" 
d="M160 0h-10v700h10v-700z" />
    <glyph glyph-name="afii10056" unicode="&#x407;" horiz-adv-x="310" 
d="M75 790q0 12 13 12q4 0 8 -4t4 -8q0 -13 -12 -13q-13 0 -13 13zM210 790q0 12 12.5 11.5t12.5 -11.5q0 -13 -12 -13q-13 0 -13 13zM160 0h-10v700h10v-700z" />
    <glyph glyph-name="afii10057" unicode="&#x408;" horiz-adv-x="341" 
d="M211 700h10v-553q0 -79 -27 -117t-94 -38q-46 0 -80 25l6 9q32 -24 74 -24q62 0 86.5 35.5t24.5 108.5v554z" />
    <glyph glyph-name="afii10058" unicode="&#x409;" horiz-adv-x="1047" 
d="M590 0v690h-354l-10 -132q-8 -108 -21 -195q-23 -164 -55 -243q-27 -72 -57.5 -96t-62.5 -24v10q147 0 186 550l10 140h374v-301q77 6 125 6q130 0 196 -51t66 -145q0 -104 -69.5 -157.5t-196.5 -53.5q-39 0 -68 1t-63 1zM727 395q-65 0 -127 -6v-379q29 0 55 -1
q27 -1 67 -1q124 0 189.5 51.5t65.5 150.5q0 89 -64 137t-186 48z" />
    <glyph glyph-name="afii10059" unicode="&#x40a;" horiz-adv-x="1092" 
d="M130 0h-10v700h10v-311h505v311h10v-311q76 6 125 6q262 0 262 -191q0 -103 -69 -154.5t-197 -51.5q-40 0 -69 1t-62 1v379h-505v-379zM645 379v-369q29 0 55 -1q27 -1 67 -1q255 0 255 197q0 88 -63.5 134t-186.5 46q-66 0 -127 -6z" />
    <glyph glyph-name="afii10060" unicode="&#x40b;" horiz-adv-x="757" 
d="M290 690h-280v10h570v-10h-280v-337q92 70 203 70q194 0 194 -224v-199h-10v202q0 104 -48 157.5t-138 53.5q-45 0 -90 -15q-41 -13 -60 -23l-51 -32v-343h-10v690z" />
    <glyph glyph-name="afii10061" unicode="&#x40c;" horiz-adv-x="614" 
d="M549 700h14l-361 -335l372 -365h-15l-372 365zM130 0h-10v700h10v-700zM425 840l4 -8l-154 -90l-5 7z" />
    <glyph glyph-name="afii10062" unicode="&#x40e;" horiz-adv-x="631" 
d="M600 700h11l-248 -546q-37 -84 -69 -119t-74 -35t-65 19l4 9q28 -19 60 -19q63 0 119 114l15 31l-333 546h11l327 -536zM164 840h10q56 -80 152 -80q48 0 91 23q43 24 57 57h10q-14 -38 -61 -64t-97 -26q-53 0 -98 25.5t-64 64.5z" />
    <glyph glyph-name="afii10145" unicode="&#x40f;" horiz-adv-x="765" 
d="M377 0h-257v700h10v-690h505v690h10v-700h-258v-160h-10v160z" />
    <glyph glyph-name="afii10017" unicode="&#x410;" horiz-adv-x="685" 
d="M41 0h-11l311 708h3l311 -708h-11l-122 277h-360zM518 287l-176 401l-176 -401h352z" />
    <glyph glyph-name="afii10018" unicode="&#x411;" horiz-adv-x="607" 
d="M120 700h370v-10h-360v-291q76 6 135 6q130 0 196 -51t66 -145q0 -104 -69.5 -157.5t-196.5 -53.5q-41 0 -73 1t-68 1v700zM267 395q-75 0 -137 -6v-379q31 0 60 -1q30 -1 72 -1q124 0 189.5 51.5t65.5 150.5q0 89 -64 137t-186 48z" />
    <glyph glyph-name="afii10019" unicode="&#x412;" horiz-adv-x="617" 
d="M120 0v700q39 0 80 1q42 1 92 1q215 0 215 -172q0 -72 -47 -116t-113 -51v-2q92 -7 141 -51.5t49 -120.5q0 -96 -64 -143.5t-178 -47.5q-51 0 -93 1t-82 1zM294 355h-164v-345q36 0 75 -1q40 -1 87 -1q113 0 174 46t61 136q0 78 -61 121.5t-172 43.5zM290 692
q-72 0 -160 -2v-325h172q83 0 138 46q57 47 57 120q0 81 -50 121t-157 40z" />
    <glyph glyph-name="afii10020" unicode="&#x413;" horiz-adv-x="500" 
d="M130 0h-10v700h380v-10h-370v-690z" />
    <glyph glyph-name="afii10021" unicode="&#x414;" horiz-adv-x="734" 
d="M30 -140h-10v150h75q29 35 67 153q49 147 62 397l8 140h367v-690h95v-150h-10v140h-654v-140zM242 690l-8 -132q-11 -168 -37 -293q-28 -132 -49 -181q-23 -53 -41 -74h482v680h-347z" />
    <glyph glyph-name="afii10022" unicode="&#x415;" horiz-adv-x="575" 
d="M505 0h-385v700h375v-10h-365v-328h335v-10h-335v-342h375v-10z" />
    <glyph glyph-name="afii10024" unicode="&#x416;" horiz-adv-x="894" 
d="M829 700h14l-323 -334l334 -366h-14l-333 365zM452 0h-10v700h10v-700zM40 0l334 365l-323 335h14l322 -335l-333 -365h-14z" />
    <glyph glyph-name="afii10025" unicode="&#x417;" horiz-adv-x="565" 
d="M258 -8q-58 0 -119 27q-63 28 -89 67l7 5q35 -41 92 -65q59 -24 106 -24q101 0 160.5 53t59.5 141q0 72 -45.5 114.5t-120.5 42.5h-97v10h90q55 0 100 51q46 50 46 122q0 76 -48.5 119t-128.5 43q-115 0 -195 -83l-7 4q74 89 198 89q88 0 139.5 -47t51.5 -128
q0 -53 -31 -102q-30 -49 -83 -69v-3q63 -5 102 -52q39 -48 39 -111q0 -94 -63 -150q-63 -54 -164 -54z" />
    <glyph glyph-name="afii10026" unicode="&#x418;" horiz-adv-x="800" 
d="M670 685l-540 -685h-10v700h10v-685l540 685h10v-700h-10v685z" />
    <glyph glyph-name="afii10027" unicode="&#x419;" horiz-adv-x="800" 
d="M670 685l-540 -685h-10v700h10v-685l540 685h10v-700h-10v685zM234 840h10q56 -80 152 -80q48 0 91 23q43 24 57 57h10q-14 -38 -61 -64t-97 -26q-53 0 -98 25.5t-64 64.5z" />
    <glyph glyph-name="afii10028" unicode="&#x41a;" horiz-adv-x="614" 
d="M549 700h14l-361 -335l372 -365h-15l-372 365zM130 0h-10v700h10v-700z" />
    <glyph glyph-name="afii10029" unicode="&#x41b;" horiz-adv-x="720" 
d="M600 0h-10v690h-354l-10 -132q-8 -108 -21 -195q-23 -164 -55 -243q-27 -72 -57.5 -96t-62.5 -24v10q147 0 186 550l10 140h374v-700z" />
    <glyph glyph-name="afii10030" unicode="&#x41c;" horiz-adv-x="872" 
d="M130 0h-10v700h11l310 -422l300 422h11v-700h-10v686l-300 -423h-3l-309 420v-683z" />
    <glyph glyph-name="afii10031" unicode="&#x41d;" horiz-adv-x="775" 
d="M655 0h-10v352h-515v-352h-10v700h10v-338h515v338h10v-700z" />
    <glyph glyph-name="afii10032" unicode="&#x41e;" horiz-adv-x="804" 
d="M158 95q-98 104 -98 255t98 255q99 103 244 103q146 0 243 -103q99 -103 99 -255t-99 -255q-97 -103 -243 -103q-145 0 -244 103zM165 598q-95 -101 -95 -248t95 -248q96 -100 237 -100q142 0 236 100q96 101 96 248q0 148 -96 248q-94 100 -236 100q-141 0 -237 -100z
" />
    <glyph glyph-name="afii10033" unicode="&#x41f;" horiz-adv-x="775" 
d="M655 0h-10v690h-515v-690h-10v700h535v-700z" />
    <glyph glyph-name="afii10034" unicode="&#x420;" horiz-adv-x="567" 
d="M130 300v-300h-10v700q39 0 78 1t74 1q67 0 115 -17.5t73 -47.5t36 -63.5t11 -73.5q0 -86 -60 -146q-61 -59 -185 -59q-47 0 -132 5zM273 692q-55 0 -143 -2v-380q85 -5 131 -5q114 0 175 53.5t61 142.5q0 88 -56 139.5t-168 51.5z" />
    <glyph glyph-name="afii10035" unicode="&#x421;" horiz-adv-x="657" 
d="M611 75l6 -8q-36 -35 -94 -55t-119 -20q-154 0 -249 98t-95 260q0 153 93 255q93 103 240 103q131 0 211 -63l-7 -7q-74 60 -203 60q-144 0 -234 -100t-90 -248q0 -156 92 -253q93 -95 242 -95q122 0 207 73z" />
    <glyph glyph-name="afii10036" unicode="&#x422;" horiz-adv-x="590" 
d="M290 690h-280v10h570v-10h-280v-690h-10v690z" />
    <glyph glyph-name="afii10037" unicode="&#x423;" horiz-adv-x="631" 
d="M600 700h11l-248 -546q-37 -84 -69 -119t-74 -35t-65 19l4 9q28 -19 60 -19q63 0 119 114l15 31l-333 546h11l327 -536z" />
    <glyph glyph-name="afii10038" unicode="&#x424;" horiz-adv-x="824" 
d="M416 -8h-10v90h-11q-155 0 -250 74t-95 204q0 131 94 204q95 74 255 74h7v70h10v-70h7q163 0 257 -74q94 -73 94 -204q0 -130 -95 -204t-250 -74h-13v-90zM424 628h-8v-536h13q147 0 241 69q94 70 94 199q0 130 -93 199t-247 69zM396 92h10v536h-7q-154 0 -246 -70
q-93 -70 -93 -198t93 -198q94 -70 243 -70z" />
    <glyph glyph-name="afii10039" unicode="&#x425;" horiz-adv-x="654" 
d="M592 700h13l-271 -344l280 -356h-13l-274 348l-274 -348h-13l281 356l-270 344h13l263 -335z" />
    <glyph glyph-name="afii10040" unicode="&#x426;" horiz-adv-x="785" 
d="M735 0h-615v700h10v-690h510v690h10v-690h95v-150h-10v140z" />
    <glyph glyph-name="afii10041" unicode="&#x427;" horiz-adv-x="615" 
d="M485 700h10v-700h-10v344q-42 -28 -101.5 -47.5t-118.5 -19.5q-96 0 -150.5 56.5t-54.5 167.5v199h10v-202q0 -101 52 -156t145 -55q108 0 218 68v345z" />
    <glyph glyph-name="afii10042" unicode="&#x428;" horiz-adv-x="990" 
d="M870 0h-750v700h10v-690h360v690h10v-690h360v690h10v-700z" />
    <glyph glyph-name="afii10043" unicode="&#x429;" horiz-adv-x="1005" 
d="M955 0h-835v700h10v-690h360v690h10v-690h360v690h10v-690h95v-150h-10v140z" />
    <glyph glyph-name="afii10044" unicode="&#x42a;" horiz-adv-x="661" 
d="M194 690h-194v10h204v-301q76 6 135 6q130 0 196 -51t66 -145q0 -104 -69.5 -157.5t-196.5 -53.5q-41 0 -74 1q-32 1 -67 1v690zM341 395q-75 0 -137 -6v-379q31 0 60 -1q30 -1 72 -1q124 0 189.5 51.5t65.5 150.5q0 89 -64 137t-186 48z" />
    <glyph glyph-name="afii10045" unicode="&#x42b;" horiz-adv-x="805" 
d="M685 0h-10v700h10v-700zM257 395q-65 0 -127 -6v-379q29 0 55 -1q27 -1 67 -1q124 0 189.5 51.5t65.5 150.5q0 89 -64 137t-186 48zM120 700h10v-301q76 6 125 6q130 0 196 -51t66 -145q0 -104 -69.5 -157.5t-196.5 -53.5q-40 0 -69 1t-62 1v700z" />
    <glyph glyph-name="afii10046" unicode="&#x42c;" horiz-adv-x="587" 
d="M267 395q-75 0 -137 -6v-379q31 0 60 -1q30 -1 72 -1q124 0 189.5 51.5t65.5 150.5q0 89 -64 137t-186 48zM120 700h10v-301q76 6 135 6q130 0 196 -51t66 -145q0 -104 -69.5 -157.5t-196.5 -53.5q-41 0 -73 1t-68 1v700z" />
    <glyph glyph-name="afii10047" unicode="&#x42d;" horiz-adv-x="684" 
d="M614 352h-408v10h408q-3 153 -95 245q-91 91 -244 91q-122 0 -202 -62l-6 7q76 65 208 65q161 0 255 -96q94 -94 94 -258q0 -154 -95 -258t-248 -104q-130 0 -231 73l7 7q100 -70 223 -70q150 0 241 100t93 250z" />
    <glyph glyph-name="afii10048" unicode="&#x42e;" horiz-adv-x="1072" 
d="M130 0h-10v700h10v-338h218q5 149 98 247q93 99 234 99q144 0 238 -103q94 -101 94 -255q0 -153 -94 -256q-94 -102 -238 -102t-238 102q-94 103 -94 256v2h-218v-352zM449 598q-91 -98 -91 -248q0 -149 91 -249q91 -99 231 -99t231 99q91 100 91 249q0 150 -91 248
q-91 100 -231 100t-231 -100z" />
    <glyph glyph-name="afii10049" unicode="&#x42f;" horiz-adv-x="603" 
d="M483 0h-10v295h-192l-227 -295h-14l230 296q-70 12 -122 67t-52 128q0 96 65 153.5t181 57.5q42 0 74 -1t67 -1v-700zM276 305h197v385q-31 0 -61 1q-29 1 -71 1q-114 0 -174.5 -55.5t-60.5 -146.5q0 -70 51 -122q53 -53 119 -63z" />
    <glyph glyph-name="afii10065" unicode="&#x430;" horiz-adv-x="456" 
d="M89 409l-5 8q67 41 134 41q84 0 121 -43t37 -133v-282h-10v85q-65 -89 -176 -89q-64 0 -102 34.5t-38 90.5q0 64 47 99.5t124 35.5q90 0 145 -40q0 44 -1 57q0 63 -12 93q-18 47 -43 61q-37 21 -94 21q-62 0 -127 -39zM189 6q62 0 103 24t74 71v102q-61 43 -147 43
q-63 0 -112 -32q-47 -32 -47 -92q0 -53 36 -84.5t93 -31.5z" />
    <glyph glyph-name="afii10066" unicode="&#x431;" horiz-adv-x="560" 
d="M458 709l7 -3q-19 -34 -54 -45q-28 -9 -91 -17q-56 -6 -104 -26q-141 -59 -151 -315h2q24 69 85 107q61 40 133 40q102 0 161 -62.5t59 -166.5q0 -94 -65 -162q-64 -67 -157 -67q-103 0 -166 73q-62 74 -62 199q0 42 1 59q9 99 22 138q40 131 138 167q45 19 102 25
q64 8 92.5 18t47.5 38zM65 265q0 -126 61 -194q62 -69 156 -69q90 0 151 63q62 65 62 156q0 100 -56.5 159.5t-153.5 59.5q-90 0 -150 -54q-59 -53 -70 -121z" />
    <glyph glyph-name="afii10067" unicode="&#x432;" horiz-adv-x="477" 
d="M90 0v450q32 0 60 1q29 1 72 1q175 0 175 -112q0 -42 -26 -71t-74 -36v-2q63 -7 91.5 -34t28.5 -78q0 -121 -192 -121q-44 0 -73 1t-62 1zM244 225h-144v-215q29 0 55 -1q27 -1 67 -1q185 0 185 112q0 105 -163 105zM220 442q-32 0 -120 -2v-205h152q62 0 98.5 29
t36.5 77q0 101 -167 101z" />
    <glyph glyph-name="afii10068" unicode="&#x433;" horiz-adv-x="340" 
d="M100 0h-10v450h250v-10h-240v-440z" />
    <glyph glyph-name="afii10069" unicode="&#x434;" horiz-adv-x="504" 
d="M484 -120h-10v120h-454v-120h-10v130h55q27 33 50 113.5t29 186.5l8 140h257v-440h75v-130zM162 440l-8 -132q-8 -107 -31 -189q-25 -85 -46 -109h322v430h-237z" />
    <glyph glyph-name="afii10070" unicode="&#x435;" horiz-adv-x="529" 
d="M446 69l6 -6q-27 -33 -71 -52t-92 -19q-104 0 -169 64q-65 65 -65 169q0 103 56 168q57 65 164 65q88 0 143 -55q56 -56 56 -145q0 -2 -0.5 -11t-0.5 -12h-408q0 -107 60 -170q61 -63 164 -63q98 0 157 67zM271 448q-91 0 -146 -55.5t-60 -147.5h399q1 91 -52 148
q-52 55 -141 55z" />
    <glyph glyph-name="afii10072" unicode="&#x436;" horiz-adv-x="619" 
d="M563 450h14l-200 -215l212 -235h-14l-212 235zM313 0h-10v450h10v-450zM30 0l210 235l-201 215h14l200 -215l-209 -235h-14z" />
    <glyph glyph-name="afii10073" unicode="&#x437;" horiz-adv-x="452" 
d="M213 -8q-39 0 -92 17q-50 17 -71 42l6 9q26 -26 72 -43q45 -15 83 -15q78 0 124.5 33t46.5 90q0 47 -34 73.5t-94 26.5h-76v10h71q44 0 79 32q34 33 34 79q0 48 -38 75t-104 27q-88 0 -149 -55l-6 7q55 58 156 58q72 0 111.5 -30t39.5 -84q0 -80 -85 -111v-2
q48 -3 76.5 -33.5t28.5 -72.5q0 -62 -49 -97.5t-130 -35.5z" />
    <glyph glyph-name="afii10074" unicode="&#x438;" horiz-adv-x="560" 
d="M460 435l-360 -435h-10v450h10v-435l360 435h10v-450h-10v435z" />
    <glyph glyph-name="afii10075" unicode="&#x439;" horiz-adv-x="560" 
d="M460 435l-360 -435h-10v450h10v-435l360 435h10v-450h-10v435zM165 690h10q0 -45 30.5 -72.5t81.5 -27.5q48 0 78 28.5t30 71.5h10q0 -48 -33.5 -79t-84.5 -31q-54 0 -88 31t-34 79z" />
    <glyph glyph-name="afii10076" unicode="&#x43a;" horiz-adv-x="463" 
d="M401 450h16l-255 -215l271 -235h-17l-269 235zM100 0h-10v450h10v-450z" />
    <glyph glyph-name="afii10077" unicode="&#x43b;" horiz-adv-x="520" 
d="M430 0h-10v440h-237l-8 -132q-10 -154 -45 -229q-35 -79 -90 -79v10q24 0 49 26q19 19 32 48q34 71 44 226l8 140h257v-450z" />
    <glyph glyph-name="afii10078" unicode="&#x43c;" horiz-adv-x="616" 
d="M100 0h-10v450h11l210 -293l204 293h11v-450h-10v436l-204 -294h-3l-209 294v-436z" />
    <glyph glyph-name="afii10079" unicode="&#x43d;" horiz-adv-x="555" 
d="M465 0h-10v225h-355v-225h-10v450h10v-215h355v215h10v-450z" />
    <glyph glyph-name="afii10080" unicode="&#x43e;" horiz-adv-x="570" 
d="M120 58q-65 67 -65 167t65 167q64 66 165 66t165 -66q65 -67 65 -167t-65 -167q-64 -66 -165 -66t-165 66zM126 385q-61 -61 -61 -160t61 -161q62 -62 159 -62q96 0 158 62q62 64 62 161q0 98 -62 160q-61 63 -158 63t-159 -63z" />
    <glyph glyph-name="afii10081" unicode="&#x43f;" horiz-adv-x="550" 
d="M460 0h-10v440h-350v-440h-10v450h370v-450z" />
    <glyph glyph-name="afii10082" unicode="&#x440;" horiz-adv-x="551" 
d="M100 -200h-10v650h10v-71q29 35 79.5 57t101.5 22q100 0 157 -63q58 -61 58 -163q0 -104 -63 -172t-164 -68q-104 0 -169 50v-242zM281 448q-53 0 -107 -26q-52 -26 -74 -57v-310q73 -53 170 -53q95 0 155 63q61 64 61 164t-55 159.5t-150 59.5z" />
    <glyph glyph-name="afii10083" unicode="&#x441;" horiz-adv-x="492" 
d="M446 69l6 -6q-27 -33 -71 -52t-92 -19q-104 0 -169 64q-65 65 -65 169q0 97 63 165t155 68q111 0 170 -53l-6 -9q-58 52 -162 52q-87 0 -149 -65q-61 -64 -61 -158q0 -100 62 -162q62 -61 162 -61q98 0 157 67z" />
    <glyph glyph-name="afii10084" unicode="&#x442;" horiz-adv-x="430" 
d="M210 440h-200v10h410v-10h-200v-440h-10v440z" />
    <glyph glyph-name="afii10085" unicode="&#x443;" horiz-adv-x="466" 
d="M435 450h11l-185 -450q-48 -116 -84 -158t-82 -42q-29 0 -64 15l4 9q35 -15 58 -15q42 0 76.5 39t71.5 128l10 24l-231 450h11l187 -366l38 -74l31 76z" />
    <glyph glyph-name="afii10086" unicode="&#x444;" horiz-adv-x="650" 
d="M330 -200h-10v192h-21q-110 0 -178 65q-66 66 -66 168q0 96 67 164q68 69 176 69h22v242h10v-242h23q105 0 173 -67q69 -67 69 -166q0 -102 -67 -168q-67 -65 -175 -65h-23v-192zM65 225q0 -100 64 -161q65 -62 173 -62h18v446h-23q-104 0 -168 -64t-64 -159zM353 448
h-23v-446h19q107 0 172 62q64 61 64 161q0 93 -64 157q-65 66 -168 66z" />
    <glyph glyph-name="afii10087" unicode="&#x445;" horiz-adv-x="477" 
d="M414 450h13l-182 -219l192 -231h-13l-186 223l-185 -223h-13l192 231l-182 219h13l175 -211z" />
    <glyph glyph-name="afii10088" unicode="&#x446;" horiz-adv-x="555" 
d="M525 0h-435v450h10v-440h350v440h10v-440h75v-130h-10v120z" />
    <glyph glyph-name="afii10089" unicode="&#x447;" horiz-adv-x="465" 
d="M365 450h10v-450h-10v213q-58 -46 -150 -46q-155 0 -155 164v119h10v-122q0 -151 147 -151q86 0 148 47v226z" />
    <glyph glyph-name="afii10090" unicode="&#x448;" horiz-adv-x="690" 
d="M600 0h-510v450h10v-440h240v440h10v-440h240v440h10v-450z" />
    <glyph glyph-name="afii10091" unicode="&#x449;" horiz-adv-x="695" 
d="M665 0h-575v450h10v-440h240v440h10v-440h240v440h10v-440h75v-130h-10v120z" />
    <glyph glyph-name="afii10092" unicode="&#x44a;" horiz-adv-x="486" 
d="M154 440h-154v10h164v-175h94q94 0 136 -35t42 -103q0 -137 -181 -137h-101v440zM258 265h-94v-255h93q89 0 129 32t40 96q0 127 -168 127z" />
    <glyph glyph-name="afii10093" unicode="&#x44b;" horiz-adv-x="590" 
d="M181 0h-91v450h10v-175h84q94 0 136 -35t42 -103q0 -137 -181 -137zM184 265h-84v-255h83q89 0 129 32t40 96q0 127 -168 127zM500 0h-10v450h10v-450z" />
    <glyph glyph-name="afii10094" unicode="&#x44c;" horiz-adv-x="422" 
d="M191 0h-101v450h10v-175h94q94 0 136 -35t42 -103q0 -137 -181 -137zM194 265h-94v-255h93q89 0 129 32t40 96q0 127 -168 127z" />
    <glyph glyph-name="afii10095" unicode="&#x44d;" horiz-adv-x="492" 
d="M427 225h-261v10h261q-4 96 -66 155q-61 58 -158 58q-98 0 -157 -67l-6 6q27 33 71 52t92 19q104 0 168 -64q66 -64 66 -169q0 -99 -63 -166t-155 -67q-111 0 -170 53l6 9q58 -52 162 -52q87 0 148 64q62 65 62 159z" />
    <glyph glyph-name="afii10096" unicode="&#x44e;" horiz-adv-x="735" 
d="M100 0h-10v450h10v-215h140q3 99 64 160q62 63 156 63q96 0 158 -66q62 -65 62 -167q0 -101 -62 -168q-62 -65 -158 -65t-158 65q-62 67 -62 168h-140v-225zM308 385q-58 -61 -58 -160t58 -161q59 -62 152 -62q92 0 151 62q59 64 59 161q0 98 -59 160q-59 63 -151 63
q-94 0 -152 -63z" />
    <glyph glyph-name="afii10097" unicode="&#x44f;" horiz-adv-x="471" 
d="M256 450h125v-450h-10v195h-149l-158 -195h-14l159 195q-49 5 -87 39q-37 34 -37 85q0 131 171 131zM95 320q0 -50 39 -83q40 -32 79 -32h158v235h-117q-79 0 -119 -32t-40 -88z" />
    <glyph glyph-name="afii10071" unicode="&#x451;" horiz-adv-x="529" 
d="M446 69l6 -6q-27 -33 -71 -52t-92 -19q-104 0 -169 64q-65 65 -65 169q0 103 56 168q57 65 164 65q88 0 143 -55q56 -56 56 -145q0 -2 -0.5 -11t-0.5 -12h-408q0 -107 60 -170q61 -63 164 -63q98 0 157 67zM271 448q-91 0 -146 -55.5t-60 -147.5h399q1 91 -52 148
q-52 55 -141 55zM146 631q0 8 8 11t13 -3q6 -5 3 -13t-11 -8q-13 0 -13 13zM360 631q0 8 8 11t13 -3q6 -5 3 -13t-11 -8q-13 0 -13 13z" />
    <glyph glyph-name="afii10099" unicode="&#x452;" horiz-adv-x="609" 
d="M155 515h-155v10h155v175h10v-175h225v-10h-225v-219q30 36 81 58q52 24 102 24q98 0 144.5 -50t46.5 -156q0 -114 -46 -216q-45 -104 -141 -156h-16q111 61 154 170q39 95 39 199q0 102 -44 150.5t-137 48.5q-56 0 -108 -27t-75 -59v-282h-10v515z" />
    <glyph glyph-name="afii10100" unicode="&#x453;" horiz-adv-x="340" 
d="M307 706l7 -6l-109 -141l-8 5zM100 0h-10v450h250v-10h-240v-440z" />
    <glyph glyph-name="afii10101" unicode="&#x454;" horiz-adv-x="492" 
d="M65 235h261v-10h-261q0 -101 62 -163q63 -60 161 -60q91 0 149 52l6 -9q-59 -53 -159 -53q-101 0 -165 64t-64 169q0 104 65 169q65 64 169 64q48 0 92 -19t71 -52l-6 -6q-59 67 -157 67q-97 0 -159 -58q-62 -59 -65 -155z" />
    <glyph glyph-name="afii10102" unicode="&#x455;" horiz-adv-x="401" 
d="M331 111q0 72 -91 101q-2 1 -22 7t-24 7.5t-22 7.5t-23 9.5t-19.5 11t-19.5 13.5t-14.5 15.5t-13 19t-6.5 22t-3 26.5q0 48 36 77.5t95 29.5q35 0 68.5 -12.5t51.5 -32.5l-7 -8q-42 43 -115 43q-52 0 -85.5 -27.5t-33.5 -68.5q0 -42 26.5 -68.5t64.5 -39l76 -25t64.5 -39
t26.5 -68.5q0 -56 -40 -88t-104 -32q-37 0 -80 17q-42 16 -57 41l9 6q17 -23 54 -38.5t73 -15.5q57 0 96 29.5t39 79.5z" />
    <glyph glyph-name="afii10103" unicode="&#x456;" horiz-adv-x="250" 
d="M130 0h-10v450h10v-450zM113 633q0 12 13 12q11 0 11.5 -12.5t-11.5 -12.5q-13 0 -13 13z" />
    <glyph glyph-name="afii10104" unicode="&#x457;" horiz-adv-x="250" 
d="M56 631q0 8 8 11t13 -3q6 -5 3 -13t-11 -8q-13 0 -13 13zM170 631q0 8 8 11t13 -3q6 -5 3 -13t-11 -8q-13 0 -13 13zM130 0h-10v450h10v-450z" />
    <glyph glyph-name="afii10105" unicode="&#x458;" horiz-adv-x="251" 
d="M121 450h10v-483q0 -175 -141 -175q-46 0 -80 25l6 9q32 -24 74 -24q131 0 131 164v484zM112 633q0 8 8 11t13 -3q6 -5 3 -13t-11 -8q-13 0 -13 13z" />
    <glyph glyph-name="afii10106" unicode="&#x459;" horiz-adv-x="741" 
d="M510 0h-90v440h-237l-8 -132q-10 -154 -45 -229q-35 -79 -90 -79v10q24 0 49 26q19 19 32 48q34 71 44 226l8 140h257v-175h83q94 0 136 -35t42 -103q0 -137 -181 -137zM513 265h-83v-255h82q89 0 129 32t40 96q0 127 -168 127z" />
    <glyph glyph-name="afii10107" unicode="&#x45a;" horiz-adv-x="776" 
d="M100 0h-10v450h10v-195h355v195h10v-195h83q96 0 137 -31t41 -97q0 -65 -42 -96t-139 -31h-90v245h-355v-245zM548 245h-83v-235h82q91 0 130 28t39 90q0 61 -39.5 89t-128.5 28z" />
    <glyph glyph-name="afii10108" unicode="&#x45b;" horiz-adv-x="609" 
d="M155 515h-155v10h155v175h10v-175h225v-10h-225v-219q30 36 81 58q52 24 102 24q98 0 144.5 -50t46.5 -156v-172h-10v169q0 102 -44 150.5t-137 48.5q-56 0 -108 -27t-75 -59v-282h-10v515z" />
    <glyph glyph-name="afii10109" unicode="&#x45c;" horiz-adv-x="463" 
d="M401 450h16l-255 -215l271 -235h-17l-269 235zM100 0h-10v450h10v-450zM323 706l7 -6l-109 -141l-8 5z" />
    <glyph glyph-name="afii10110" unicode="&#x45e;" horiz-adv-x="466" 
d="M435 450h11l-185 -450q-48 -116 -84 -158t-82 -42q-29 0 -64 15l4 9q35 -15 58 -15q42 0 76.5 39t71.5 128l10 24l-231 450h11l187 -366l38 -74l31 76zM118 690h10q0 -45 30.5 -72.5t81.5 -27.5q48 0 78 28.5t30 71.5h10q0 -48 -33.5 -79t-84.5 -31q-54 0 -88 31t-34 79z
" />
    <glyph glyph-name="afii10193" unicode="&#x45f;" horiz-adv-x="540" 
d="M265 0h-175v450h10v-440h340v440h10v-450h-175v-140h-10v140z" />
    <glyph glyph-name="afii10146" unicode="&#x462;" horiz-adv-x="621" 
d="M154 700h10v-140h178v-10h-178v-151q76 6 135 6q130 0 196 -51t66 -145q0 -104 -69.5 -157.5t-196.5 -53.5q-41 0 -73 1t-68 1v550h-154v10h154v140zM301 395q-75 0 -137 -6v-379q31 0 60 -1q30 -1 72 -1q124 0 189.5 51.5t65.5 150.5q0 89 -64 137t-186 48z" />
    <glyph glyph-name="afii10194" unicode="&#x463;" horiz-adv-x="486" 
d="M154 440h-154v10h154v250h10v-250h175v-10h-175v-165h94q94 0 136 -35t42 -103q0 -137 -181 -137h-101v440zM258 265h-94v-255h93q89 0 129 32t40 96q0 127 -168 127z" />
    <glyph glyph-name="afii10147" unicode="&#x472;" horiz-adv-x="804" 
d="M158 95q-98 104 -98 255t98 255q99 103 244 103q146 0 243 -103q99 -103 99 -255t-99 -255q-97 -103 -243 -103q-145 0 -244 103zM255 395q-50 0 -101 -25q-52 -24 -83 -55q12 -136 105 -224q95 -89 226 -89q142 0 236 100q96 101 96 248q0 15 -1 19q-35 -30 -83 -50
t-92 -20q-55 -2 -152.5 48t-150.5 48zM70 350v-21q88 76 187 76q46 2 100 -23l107 -50t95 -23q44 0 92.5 21t80.5 52q-11 137 -104 226q-93 90 -226 90q-141 0 -237 -100q-95 -101 -95 -248z" />
    <glyph glyph-name="afii10195" unicode="&#x473;" horiz-adv-x="570" 
d="M120 58q-65 67 -65 167t65 167q64 66 165 66t165 -66q65 -67 65 -167t-65 -167q-64 -66 -165 -66t-165 66zM174 259q-57 0 -109 -49q5 -92 66 -150t154 -58q95 0 157 62q61 61 63 160q-49 -41 -101 -41q-38 0 -116 38q-76 38 -114 38zM65 225v-1q53 45 111 45
q42 0 116 -38t113 -38q51 0 100 44q-5 94 -66 152q-62 59 -154 59q-97 0 -159 -63q-61 -61 -61 -160z" />
    <glyph glyph-name="afii10148" unicode="&#x474;" horiz-adv-x="654" 
d="M517 513l-184 -521h-3l-310 708h11l300 -687l184 524q28 80 55 122q24 36 50 42.5t54 -5.5l-4 -9q-52 19 -82 -18q-29 -39 -71 -156z" />
    <glyph glyph-name="afii10196" unicode="&#x475;" horiz-adv-x="471" 
d="M376 328l-129 -336h-3l-224 458h11l169 -344l44 -92l38 96l87 225q35 90 60 109q27 20 62 3l-4 -9q-32 19 -54.5 -5.5t-56.5 -104.5z" />
    <glyph glyph-name="afii10050" unicode="&#x490;" horiz-adv-x="500" 
d="M130 0h-10v700h370v140h10v-150h-370v-690z" />
    <glyph glyph-name="afii10098" unicode="&#x491;" horiz-adv-x="340" 
d="M100 0h-10v450h240v120h10v-130h-240v-440z" />
    <glyph glyph-name="uni1E9E" unicode="&#x1e9e;" horiz-adv-x="584" 
d="M514 151q0 81 -71 158q-37 42 -70 69q-34 31 -86 71l139 211q-58 38 -125 38q-78 0 -124.5 -47t-46.5 -137v-518h-10v527q0 88 50 136.5t131 48.5q75 0 140 -45l-141 -212q93 -71 152 -136q72 -78 72 -163q0 -68 -47 -115q-47 -45 -107 -45q-45 0 -73.5 13t-63.5 45l9 6
q22 -20 33 -27q39 -27 94 -27q54 0 100 41q45 42 45 108z" />
    <glyph glyph-name="uni2010" unicode="&#x2010;" horiz-adv-x="414" 
d="M314 265h-214v10h214v-10z" />
    <glyph glyph-name="uni2011" unicode="&#x2011;" horiz-adv-x="414" 
d="M314 265h-214v10h214v-10z" />
    <glyph glyph-name="figuredash" unicode="&#x2012;" horiz-adv-x="584" 
d="M484 349h-384v10h384v-10z" />
    <glyph glyph-name="endash" unicode="&#x2013;" horiz-adv-x="584" 
d="M484 265h-384v10h384v-10z" />
    <glyph glyph-name="emdash" unicode="&#x2014;" horiz-adv-x="784" 
d="M684 265h-584v10h584v-10z" />
    <glyph glyph-name="afii00208" unicode="&#x2015;" horiz-adv-x="784" 
d="M684 265h-584v10h584v-10z" />
    <glyph glyph-name="quoteleft" unicode="&#x2018;" horiz-adv-x="236" 
d="M129 555l-8 -8q-21 23 -21 59q0 75 58 105l3 -8q-51 -25 -51 -95q0 -34 19 -53z" />
    <glyph glyph-name="quoteright" unicode="&#x2019;" horiz-adv-x="236" 
d="M107 703l8 8q21 -23 21 -59q0 -75 -58 -105l-3 8q51 25 51 95q0 34 -19 53z" />
    <glyph glyph-name="quotesinglbase" unicode="&#x201a;" horiz-adv-x="236" 
d="M107 38l8 8q21 -22 21 -59q0 -75 -58 -105l-3 8q51 26 51 95q0 34 -19 53z" />
    <glyph glyph-name="quotedblleft" unicode="&#x201c;" horiz-adv-x="346" 
d="M239 555l-8 -8q-21 23 -21 59q0 75 58 105l3 -8q-51 -25 -51 -95q0 -34 19 -53zM129 555l-8 -8q-21 23 -21 59q0 75 58 105l3 -8q-51 -25 -51 -95q0 -34 19 -53z" />
    <glyph glyph-name="quotedblright" unicode="&#x201d;" horiz-adv-x="346" 
d="M217 703l8 8q21 -23 21 -59q0 -75 -58 -105l-3 8q51 25 51 95q0 34 -19 53zM107 703l8 8q21 -23 21 -59q0 -75 -58 -105l-3 8q51 25 51 95q0 34 -19 53z" />
    <glyph glyph-name="quotedblbase" unicode="&#x201e;" horiz-adv-x="346" 
d="M217 38l8 8q21 -22 21 -59q0 -75 -58 -105l-3 8q51 26 51 95q0 34 -19 53zM107 38l8 8q21 -22 21 -59q0 -75 -58 -105l-3 8q51 26 51 95q0 34 -19 53z" />
    <glyph glyph-name="dagger" unicode="&#x2020;" horiz-adv-x="394" 
d="M192 440h-152v10h152v250h10v-250h152v-10h-152v-540h-10v540z" />
    <glyph glyph-name="daggerdbl" unicode="&#x2021;" horiz-adv-x="394" 
d="M192 440h-152v10h152v250h10v-250h152v-10h-152v-250h152v-10h-152v-280h-10v280h-152v10h152v250z" />
    <glyph glyph-name="bullet" unicode="&#x2022;" horiz-adv-x="120" 
d="M46 246q-14 14 0 28t28 0t0 -28t-28 0z" />
    <glyph glyph-name="ellipsis" unicode="&#x2026;" horiz-adv-x="825" 
d="M700 13q0 8 8 11t13 -3q6 -5 3 -13t-11 -8q-13 0 -13 13zM400 13q0 8 8 11t13 -3q6 -5 3 -13t-11 -8q-13 0 -13 13zM100 13q0 8 8 11t13 -3q6 -5 3 -13t-11 -8q-13 0 -13 13z" />
    <glyph glyph-name="perthousand" unicode="&#x2030;" horiz-adv-x="1209" 
d="M883 43q-44 44 -44 109t44 109q44 43 111 43t110 -43q45 -43 45 -109t-45 -109q-43 -43 -110 -43t-111 43zM849 152q0 -61 44 -102q43 -40 101 -40q59 0 102 40t43 102q0 61 -44 102q-43 40 -101 40q-59 0 -102 -40t-43 -102zM147 -8l-8 7l531 709l8 -5zM104 439
q-44 44 -44 109t44 109q44 43 111 43t110 -43q45 -43 45 -109t-45 -109q-43 -43 -110 -43t-111 43zM70 548q0 -61 44 -102q43 -40 101 -40q59 0 102 40t43 102q0 61 -44 102q-43 40 -101 40q-59 0 -102 -40t-43 -102zM483 43q-44 44 -44 109t44 109q44 43 111 43t110 -43
q45 -43 45 -109t-45 -109q-43 -43 -110 -43t-111 43zM449 152q0 -61 44 -102q43 -40 101 -40q59 0 102 40t43 102q0 61 -44 102q-43 40 -101 40q-59 0 -102 -40t-43 -102z" />
    <glyph glyph-name="guilsinglleft" unicode="&#x2039;" horiz-adv-x="319" 
d="M237 56l-6 -8l-171 200v4l172 198l7 -6l-168 -194z" />
    <glyph glyph-name="guilsinglright" unicode="&#x203a;" horiz-adv-x="319" 
d="M259 252v-4l-171 -200l-6 8l166 194l-168 194l7 6z" />
    <glyph glyph-name="fraction" unicode="&#x2044;" horiz-adv-x="179" 
d="M-172 -8l-8 7l531 709l8 -5z" />
    <glyph glyph-name="uni2070" unicode="&#x2070;" horiz-adv-x="356" 
d="M83 395q-33 49 -33 130q0 79 33 129t95 50t95 -50t33 -129q0 -81 -33 -130q-31 -49 -94 -49q-62 0 -96 49zM179 356q57 0 87 45t30 124q0 76 -31 122q-30 47 -87 47q-56 0 -88 -47q-30 -47 -30 -122q0 -77 31.5 -123t87.5 -46z" />
    <glyph glyph-name="uni2074" unicode="&#x2074;" horiz-adv-x="313" 
d="M227 350h-10v98h-197v5l196 247h11l-192 -242h182v117h10v-117h66v-10h-66v-98z" />
    <glyph glyph-name="uni2075" unicode="&#x2075;" horiz-adv-x="317" 
d="M79 541l25 159h173v-10h-165l-22 -137q28 7 51 7q59 0 96 -29t37 -75q0 -48 -35.5 -79t-85.5 -31q-82 0 -118 58l8 6q35 -54 110 -54q47 0 79 28.5t32 71.5q0 40 -35 67t-89 27q-30 0 -61 -9z" />
    <glyph glyph-name="uni2076" unicode="&#x2076;" horiz-adv-x="351" 
d="M50 474q0 92 61 154q61 63 139 76l4 -8q-71 -12 -127 -65q-55 -52 -66 -137q13 31 45.5 50.5t76.5 19.5q57 0 90 -30t33 -79q0 -45 -36 -77q-35 -32 -82 -32q-65 0 -101.5 35.5t-36.5 92.5zM60 474q0 -50 34 -84t93 -34q44 0 76 29q33 29 33 69q0 44 -31 72t-84 28
q-46 0 -79 -24t-42 -56z" />
    <glyph glyph-name="uni2077" unicode="&#x2077;" horiz-adv-x="280" 
d="M242 690h-217v10h230v-5l-166 -345h-11z" />
    <glyph glyph-name="uni2078" unicode="&#x2078;" horiz-adv-x="357" 
d="M167 535h23q33 0 62 23t29 56q0 35 -31 57.5t-72 22.5q-42 0 -72 -22.5t-30 -57.5q0 -33 29 -56t62 -23zM189 525h-19q-45 0 -77.5 -24.5t-32.5 -58.5q0 -36 35 -62q36 -24 83 -24q50 0 84.5 24t34.5 62q0 37 -31 60t-77 23zM50 441q0 31 26 56t67 32v2q-33 7 -55 31.5
t-22 51.5q0 39 32 64.5t80 25.5t80.5 -25.5t32.5 -64.5q0 -28 -21 -51t-56 -32v-1q41 -4 67 -29t26 -60q0 -42 -37.5 -68.5t-90.5 -26.5t-91 26.5t-38 68.5z" />
    <glyph glyph-name="uni2079" unicode="&#x2079;" horiz-adv-x="351" 
d="M301 576q0 -94 -60 -159q-58 -63 -150 -71l-1 8q86 11 141 67q58 59 59 135q-13 -31 -45.5 -50.5t-76.5 -19.5q-57 0 -90 30t-33 79q0 45 35 77q37 32 83 32q65 0 101.5 -35.5t36.5 -92.5zM291 576q0 50 -34 84t-93 34q-43 0 -77 -29q-32 -29 -32 -69q0 -44 31 -72
t84 -28q46 0 79 24t42 56z" />
    <glyph glyph-name="uni207A" unicode="&#x207a;" horiz-adv-x="360" 
d="M174 525h-124v10h124v124h10v-124h126v-10h-126v-125h-10v125z" />
    <glyph glyph-name="uni207B" unicode="&#x207b;" horiz-adv-x="360" 
d="M310 525h-260v10h260v-10z" />
    <glyph glyph-name="uni207C" unicode="&#x207c;" horiz-adv-x="360" 
d="M310 465h-260v10h260v-10zM310 585h-260v10h260v-10z" />
    <glyph glyph-name="uni207D" unicode="&#x207d;" horiz-adv-x="168" 
d="M158 313l-7 -6q-59 35 -90 94t-31 122q0 129 122 215l6 -6q-118 -79 -118 -209q0 -63 30 -118.5t88 -91.5z" />
    <glyph glyph-name="uni207E" unicode="&#x207e;" horiz-adv-x="168" 
d="M10 732l7 6q59 -35 90 -94t31 -122q0 -129 -122 -215l-6 6q118 79 118 209q0 63 -30 118.5t-88 91.5z" />
    <glyph glyph-name="uni2080" unicode="&#x2080;" horiz-adv-x="356" 
d="M83 45q-33 49 -33 130q0 79 33 129t95 50t95 -50t33 -129q0 -81 -33 -130q-31 -49 -94 -49q-62 0 -96 49zM179 6q57 0 87 45t30 124q0 76 -31 122q-30 47 -87 47q-56 0 -88 -47q-30 -47 -30 -122q0 -77 31.5 -123t87.5 -46z" />
    <glyph glyph-name="uni2081" unicode="&#x2081;" horiz-adv-x="220" 
d="M41 285l-6 8l89 61h6v-354h-10v338z" />
    <glyph glyph-name="uni2082" unicode="&#x2082;" horiz-adv-x="323" 
d="M288 0h-243v9l36 27l48 37q18 15 44 39q31 30 44 48q40 54 40 97q0 38 -25.5 62.5t-69.5 24.5q-38 0 -66.5 -19t-34.5 -53l-10 2q6 37 37.5 58.5t71.5 21.5q52 0 79.5 -27.5t27.5 -72.5q0 -98 -197 -238l-9 -6h227v-10z" />
    <glyph glyph-name="uni2083" unicode="&#x2083;" horiz-adv-x="329" 
d="M157 -4q-87 0 -117 62l8 5q28 -57 111 -57q49 0 79.5 25t30.5 63q0 35 -28 57.5t-70 22.5h-40v10h35q34 0 60.5 25t26.5 58q0 36 -26.5 56.5t-69.5 20.5q-75 0 -98 -54l-8 5q10 28 38.5 43.5t67.5 15.5q50 0 78 -23t28 -64q0 -28 -18.5 -52.5t-49.5 -33.5v-1
q37 -4 60.5 -28.5t23.5 -57.5q0 -44 -34 -71t-88 -27z" />
    <glyph glyph-name="uni2084" unicode="&#x2084;" horiz-adv-x="313" 
d="M227 0h-10v98h-197v5l196 247h11l-192 -242h182v117h10v-117h66v-10h-66v-98z" />
    <glyph glyph-name="uni2085" unicode="&#x2085;" horiz-adv-x="317" 
d="M79 191l25 159h173v-10h-165l-22 -137q28 7 51 7q59 0 96 -29t37 -75q0 -48 -35.5 -79t-85.5 -31q-82 0 -118 58l8 6q35 -54 110 -54q47 0 79 28.5t32 71.5q0 40 -35 67t-89 27q-30 0 -61 -9z" />
    <glyph glyph-name="uni2086" unicode="&#x2086;" horiz-adv-x="351" 
d="M50 124q0 92 61 154q61 63 139 76l4 -8q-71 -12 -127 -65q-55 -52 -66 -137q13 31 45.5 50.5t76.5 19.5q57 0 90 -30t33 -79q0 -46 -36 -77q-35 -32 -82 -32q-65 0 -101.5 35.5t-36.5 92.5zM60 124q0 -50 34 -84t93 -34q44 0 76 29q33 29 33 69q0 44 -31 72t-84 28
q-46 0 -79 -24t-42 -56z" />
    <glyph glyph-name="uni2087" unicode="&#x2087;" horiz-adv-x="280" 
d="M242 340h-217v10h230v-5l-166 -345h-11z" />
    <glyph glyph-name="uni2088" unicode="&#x2088;" horiz-adv-x="357" 
d="M167 185h23q33 0 62 23t29 56q0 35 -31 57.5t-72 22.5q-42 0 -72 -22.5t-30 -57.5q0 -33 29 -56t62 -23zM189 175h-19q-45 0 -77.5 -24.5t-32.5 -58.5q0 -36 35 -62q36 -24 83 -24q50 0 84.5 24t34.5 62q0 37 -31 60t-77 23zM50 91q0 31 26 56t67 32v2q-33 7 -55 31.5
t-22 51.5q0 39 32 64.5t80 25.5t80.5 -25.5t32.5 -64.5q0 -28 -21 -51t-56 -32v-1q41 -4 67 -29t26 -60q0 -42 -37.5 -68.5t-90.5 -26.5t-91 26.5t-38 68.5z" />
    <glyph glyph-name="uni2089" unicode="&#x2089;" horiz-adv-x="351" 
d="M301 226q0 -94 -60 -159q-58 -63 -150 -71l-1 8q86 11 141 67q58 59 59 135q-13 -31 -45.5 -50.5t-76.5 -19.5q-57 0 -90 30t-33 79q0 45 35 77q37 32 83 32q65 0 101.5 -35.5t36.5 -92.5zM291 226q0 50 -34 84t-93 34q-43 0 -77 -29q-32 -29 -32 -69q0 -44 31 -72
t84 -28q46 0 79 24t42 56z" />
    <glyph glyph-name="uni208A" unicode="&#x208a;" horiz-adv-x="360" 
d="M174 175h-124v10h124v124h10v-124h126v-10h-126v-125h-10v125z" />
    <glyph glyph-name="uni208B" unicode="&#x208b;" horiz-adv-x="360" 
d="M310 175h-260v10h260v-10z" />
    <glyph glyph-name="uni208C" unicode="&#x208c;" horiz-adv-x="360" 
d="M310 115h-260v10h260v-10zM310 235h-260v10h260v-10z" />
    <glyph glyph-name="uni208D" unicode="&#x208d;" horiz-adv-x="168" 
d="M158 -37l-7 -6q-59 35 -90 94t-31 122q0 129 122 215l6 -6q-118 -79 -118 -209q0 -63 30 -118.5t88 -91.5z" />
    <glyph glyph-name="uni208E" unicode="&#x208e;" horiz-adv-x="168" 
d="M10 382l7 6q59 -35 90 -94t31 -122q0 -129 -122 -215l-6 6q118 79 118 209q0 63 -30 118.5t-88 91.5z" />
    <glyph glyph-name="Euro" unicode="&#x20ac;" horiz-adv-x="584" 
d="M100 435h-80l5 10h77q28 116 114 190q86 73 209 73q86 0 139 -29l-4 -10q-64 29 -134 29q-121 0 -204 -70q-84 -72 -109 -183h388l-3 -10h-388q-8 -46 -8 -85q0 -41 4 -65h355l-3 -10h-350q23 -127 110 -199q89 -74 218 -74q73 0 116 25l3 -10q-15 -12 -52 -18
q-34 -7 -67 -7q-135 0 -226 76t-112 207h-78l5 10h71q-4 25 -4 65q0 39 8 85z" />
    <glyph glyph-name="uni20B4" unicode="&#x20b4;" horiz-adv-x="600" 
d="M403 435h-320v10h331q49 50 49 119q0 61 -42 97.5t-111 36.5q-104 0 -167 -66l-7 7q62 69 171 69q77 0 121.5 -39t44.5 -104q0 -67 -47 -120h91v-10h-100q-28 -28 -112 -77q-80 -47 -109 -73h321v-10h-332q-54 -55 -54 -128q0 -70 53 -108q53 -37 125 -37q55 0 102 24.5
t73 68.5l8 -7q-27 -45 -76 -70.5t-109 -25.5q-78 0 -133 41q-53 42 -53 114q0 74 51 128h-89v10h99q30 29 111 76q84 49 110 74z" />
    <glyph glyph-name="uni20B6" unicode="&#x20b6;" horiz-adv-x="600" 
d="M153 330h-121v10h121v360q39 0 78 1t74 1q235 0 235 -185q0 -87 -61 -137t-184 -50h-132v-150h193v-10h-193v-170h-10v170h-121v10h121v150zM306 692q-55 0 -143 -2v-350h131q117 0 176.5 46.5t59.5 131.5q0 174 -224 174z" />
    <glyph glyph-name="uni20B6" unicode="&#x20cf;" horiz-adv-x="600" 
d="M153 330h-121v10h121v360q39 0 78 1t74 1q235 0 235 -185q0 -87 -61 -137t-184 -50h-132v-150h193v-10h-193v-170h-10v170h-121v10h121v150zM306 692q-55 0 -143 -2v-350h131q117 0 176.5 46.5t59.5 131.5q0 174 -224 174z" />
    <glyph glyph-name="uni20B6" unicode="&#x20ce;" horiz-adv-x="600" 
d="M153 330h-121v10h121v360q39 0 78 1t74 1q235 0 235 -185q0 -87 -61 -137t-184 -50h-132v-150h193v-10h-193v-170h-10v170h-121v10h121v150zM306 692q-55 0 -143 -2v-350h131q117 0 176.5 46.5t59.5 131.5q0 174 -224 174z" />
    <glyph glyph-name="uni20B6" unicode="&#x20cd;" horiz-adv-x="600" 
d="M153 330h-121v10h121v360q39 0 78 1t74 1q235 0 235 -185q0 -87 -61 -137t-184 -50h-132v-150h193v-10h-193v-170h-10v170h-121v10h121v150zM306 692q-55 0 -143 -2v-350h131q117 0 176.5 46.5t59.5 131.5q0 174 -224 174z" />
    <glyph glyph-name="uni20B6" unicode="&#x20cc;" horiz-adv-x="600" 
d="M153 330h-121v10h121v360q39 0 78 1t74 1q235 0 235 -185q0 -87 -61 -137t-184 -50h-132v-150h193v-10h-193v-170h-10v170h-121v10h121v150zM306 692q-55 0 -143 -2v-350h131q117 0 176.5 46.5t59.5 131.5q0 174 -224 174z" />
    <glyph glyph-name="uni20B6" unicode="&#x20cb;" horiz-adv-x="600" 
d="M153 330h-121v10h121v360q39 0 78 1t74 1q235 0 235 -185q0 -87 -61 -137t-184 -50h-132v-150h193v-10h-193v-170h-10v170h-121v10h121v150zM306 692q-55 0 -143 -2v-350h131q117 0 176.5 46.5t59.5 131.5q0 174 -224 174z" />
    <glyph glyph-name="uni20B6" unicode="&#x20ca;" horiz-adv-x="600" 
d="M153 330h-121v10h121v360q39 0 78 1t74 1q235 0 235 -185q0 -87 -61 -137t-184 -50h-132v-150h193v-10h-193v-170h-10v170h-121v10h121v150zM306 692q-55 0 -143 -2v-350h131q117 0 176.5 46.5t59.5 131.5q0 174 -224 174z" />
    <glyph glyph-name="uni20B6" unicode="&#x20c9;" horiz-adv-x="600" 
d="M153 330h-121v10h121v360q39 0 78 1t74 1q235 0 235 -185q0 -87 -61 -137t-184 -50h-132v-150h193v-10h-193v-170h-10v170h-121v10h121v150zM306 692q-55 0 -143 -2v-350h131q117 0 176.5 46.5t59.5 131.5q0 174 -224 174z" />
    <glyph glyph-name="uni20B6" unicode="&#x20c8;" horiz-adv-x="600" 
d="M153 330h-121v10h121v360q39 0 78 1t74 1q235 0 235 -185q0 -87 -61 -137t-184 -50h-132v-150h193v-10h-193v-170h-10v170h-121v10h121v150zM306 692q-55 0 -143 -2v-350h131q117 0 176.5 46.5t59.5 131.5q0 174 -224 174z" />
    <glyph glyph-name="uni20B6" unicode="&#x20c7;" horiz-adv-x="600" 
d="M153 330h-121v10h121v360q39 0 78 1t74 1q235 0 235 -185q0 -87 -61 -137t-184 -50h-132v-150h193v-10h-193v-170h-10v170h-121v10h121v150zM306 692q-55 0 -143 -2v-350h131q117 0 176.5 46.5t59.5 131.5q0 174 -224 174z" />
    <glyph glyph-name="uni20B6" unicode="&#x20c6;" horiz-adv-x="600" 
d="M153 330h-121v10h121v360q39 0 78 1t74 1q235 0 235 -185q0 -87 -61 -137t-184 -50h-132v-150h193v-10h-193v-170h-10v170h-121v10h121v150zM306 692q-55 0 -143 -2v-350h131q117 0 176.5 46.5t59.5 131.5q0 174 -224 174z" />
    <glyph glyph-name="uni20B6" unicode="&#x20c5;" horiz-adv-x="600" 
d="M153 330h-121v10h121v360q39 0 78 1t74 1q235 0 235 -185q0 -87 -61 -137t-184 -50h-132v-150h193v-10h-193v-170h-10v170h-121v10h121v150zM306 692q-55 0 -143 -2v-350h131q117 0 176.5 46.5t59.5 131.5q0 174 -224 174z" />
    <glyph glyph-name="uni20B6" unicode="&#x20c4;" horiz-adv-x="600" 
d="M153 330h-121v10h121v360q39 0 78 1t74 1q235 0 235 -185q0 -87 -61 -137t-184 -50h-132v-150h193v-10h-193v-170h-10v170h-121v10h121v150zM306 692q-55 0 -143 -2v-350h131q117 0 176.5 46.5t59.5 131.5q0 174 -224 174z" />
    <glyph glyph-name="uni20B6" unicode="&#x20c3;" horiz-adv-x="600" 
d="M153 330h-121v10h121v360q39 0 78 1t74 1q235 0 235 -185q0 -87 -61 -137t-184 -50h-132v-150h193v-10h-193v-170h-10v170h-121v10h121v150zM306 692q-55 0 -143 -2v-350h131q117 0 176.5 46.5t59.5 131.5q0 174 -224 174z" />
    <glyph glyph-name="uni20B6" unicode="&#x20c2;" horiz-adv-x="600" 
d="M153 330h-121v10h121v360q39 0 78 1t74 1q235 0 235 -185q0 -87 -61 -137t-184 -50h-132v-150h193v-10h-193v-170h-10v170h-121v10h121v150zM306 692q-55 0 -143 -2v-350h131q117 0 176.5 46.5t59.5 131.5q0 174 -224 174z" />
    <glyph glyph-name="uni20B6" unicode="&#x20c1;" horiz-adv-x="600" 
d="M153 330h-121v10h121v360q39 0 78 1t74 1q235 0 235 -185q0 -87 -61 -137t-184 -50h-132v-150h193v-10h-193v-170h-10v170h-121v10h121v150zM306 692q-55 0 -143 -2v-350h131q117 0 176.5 46.5t59.5 131.5q0 174 -224 174z" />
    <glyph glyph-name="uni20B6" unicode="&#x20c0;" horiz-adv-x="600" 
d="M153 330h-121v10h121v360q39 0 78 1t74 1q235 0 235 -185q0 -87 -61 -137t-184 -50h-132v-150h193v-10h-193v-170h-10v170h-121v10h121v150zM306 692q-55 0 -143 -2v-350h131q117 0 176.5 46.5t59.5 131.5q0 174 -224 174z" />
    <glyph glyph-name="uni20B6" unicode="&#x20bf;" horiz-adv-x="600" 
d="M153 330h-121v10h121v360q39 0 78 1t74 1q235 0 235 -185q0 -87 -61 -137t-184 -50h-132v-150h193v-10h-193v-170h-10v170h-121v10h121v150zM306 692q-55 0 -143 -2v-350h131q117 0 176.5 46.5t59.5 131.5q0 174 -224 174z" />
    <glyph glyph-name="uni20B6" unicode="&#x20be;" horiz-adv-x="600" 
d="M153 330h-121v10h121v360q39 0 78 1t74 1q235 0 235 -185q0 -87 -61 -137t-184 -50h-132v-150h193v-10h-193v-170h-10v170h-121v10h121v150zM306 692q-55 0 -143 -2v-350h131q117 0 176.5 46.5t59.5 131.5q0 174 -224 174z" />
    <glyph glyph-name="uni20B6" unicode="&#x20bd;" horiz-adv-x="600" 
d="M153 330h-121v10h121v360q39 0 78 1t74 1q235 0 235 -185q0 -87 -61 -137t-184 -50h-132v-150h193v-10h-193v-170h-10v170h-121v10h121v150zM306 692q-55 0 -143 -2v-350h131q117 0 176.5 46.5t59.5 131.5q0 174 -224 174z" />
    <glyph glyph-name="uni20B6" unicode="&#x20bc;" horiz-adv-x="600" 
d="M153 330h-121v10h121v360q39 0 78 1t74 1q235 0 235 -185q0 -87 -61 -137t-184 -50h-132v-150h193v-10h-193v-170h-10v170h-121v10h121v150zM306 692q-55 0 -143 -2v-350h131q117 0 176.5 46.5t59.5 131.5q0 174 -224 174z" />
    <glyph glyph-name="uni20B6" unicode="&#x20bb;" horiz-adv-x="600" 
d="M153 330h-121v10h121v360q39 0 78 1t74 1q235 0 235 -185q0 -87 -61 -137t-184 -50h-132v-150h193v-10h-193v-170h-10v170h-121v10h121v150zM306 692q-55 0 -143 -2v-350h131q117 0 176.5 46.5t59.5 131.5q0 174 -224 174z" />
    <glyph glyph-name="uni20B6" unicode="&#x20ba;" horiz-adv-x="600" 
d="M153 330h-121v10h121v360q39 0 78 1t74 1q235 0 235 -185q0 -87 -61 -137t-184 -50h-132v-150h193v-10h-193v-170h-10v170h-121v10h121v150zM306 692q-55 0 -143 -2v-350h131q117 0 176.5 46.5t59.5 131.5q0 174 -224 174z" />
    <glyph glyph-name="uni20B6" unicode="&#x20b9;" horiz-adv-x="600" 
d="M153 330h-121v10h121v360q39 0 78 1t74 1q235 0 235 -185q0 -87 -61 -137t-184 -50h-132v-150h193v-10h-193v-170h-10v170h-121v10h121v150zM306 692q-55 0 -143 -2v-350h131q117 0 176.5 46.5t59.5 131.5q0 174 -224 174z" />
    <glyph glyph-name="uni20B6" unicode="&#x20b7;" horiz-adv-x="600" 
d="M153 330h-121v10h121v360q39 0 78 1t74 1q235 0 235 -185q0 -87 -61 -137t-184 -50h-132v-150h193v-10h-193v-170h-10v170h-121v10h121v150zM306 692q-55 0 -143 -2v-350h131q117 0 176.5 46.5t59.5 131.5q0 174 -224 174z" />
    <glyph glyph-name="afii61352" unicode="&#x2116;" horiz-adv-x="1150" 
d="M660 700v-700h-8l-522 680v-680h-10v700h8l522 -682v682h10zM804 397q-44 44 -44 109t44 109q44 43 111 43t110 -43q45 -44 45 -109q0 -66 -45 -109q-43 -43 -110 -43t-111 43zM770 506q0 -61 44 -102q43 -40 101 -40q59 0 102 40t43 102q0 61 -44 102q-43 40 -101 40
q-59 0 -102 -40t-43 -102zM1040 265h-250v10h250v-10z" />
    <glyph glyph-name="trademark" unicode="&#x2122;" horiz-adv-x="810" 
d="M394 385h-10v315h11l160 -202l155 202h10v-315h-10v300l-155 -202h-2l-159 202v-300zM159 690h-149v10h308v-10h-149v-305h-10v305z" />
    <glyph glyph-name="arrowleft" unicode="&#x2190;" horiz-adv-x="643" 
d="M40 273l283 282l7 -7l-270 -269h543v-10h-545l272 -272l-7 -7z" />
    <glyph glyph-name="arrowup" unicode="&#x2191;" horiz-adv-x="645" 
d="M316 543l-269 -270l-7 7l282 283l283 -283l-7 -7l-272 272v-545h-10v543z" />
    <glyph glyph-name="arrowright" unicode="&#x2192;" horiz-adv-x="643" 
d="M583 279l-270 269l7 7l283 -282l-283 -283l-7 7l272 272h-545v10h543z" />
    <glyph glyph-name="arrowdown" unicode="&#x2193;" horiz-adv-x="645" 
d="M322 -20l-282 283l7 7l269 -270v543h10v-545l272 272l7 -7z" />
    <glyph glyph-name="partialdiff" unicode="&#x2202;" horiz-adv-x="575" 
d="M55 205q0 103 70 177q70 76 170 76q87 0 143 -44t72 -98q0 139 -64 246q-34 57 -96.5 93t-145.5 43l2 10q148 -10 231 -116t83 -274q0 -80 -30 -153q-30 -74 -91 -123q-62 -50 -139 -50q-88 0 -146 60q-59 61 -59 153zM65 205q0 -86 55 -144q56 -59 141 -59q73 0 129 46
q108 87 120 248q-56 152 -215 152q-95 0 -163 -72q-67 -71 -67 -171z" />
    <glyph glyph-name="product" unicode="&#x220f;" horiz-adv-x="875" 
d="M755 -200h-10v890h-615v-890h-10v900h635v-900z" />
    <glyph glyph-name="summation" unicode="&#x2211;" horiz-adv-x="620" 
d="M40 -198l333 448l-333 448v2h540v-10h-522l328 -440l-328 -440h522v-10h-540v2z" />
    <glyph glyph-name="minus" unicode="&#x2212;" horiz-adv-x="584" 
d="M509 355h-434v10h434v-10z" />
    <glyph glyph-name="uni2215" unicode="&#x2215;" horiz-adv-x="289" 
d="M-20 -208l-10 4l340 912l9 -3z" />
    <glyph glyph-name="radical" unicode="&#x221a;" horiz-adv-x="563" 
d="M119 440h-119v10h126l202 -433l147 683h248v-10h-239l-152 -698h-3z" />
    <glyph glyph-name="infinity" unicode="&#x221e;" horiz-adv-x="726" 
d="M537 213q-48 0 -87 28.5t-88 92.5q-28 -39 -46 -61q-20 -23 -53 -41.5t-66 -18.5q-50 0 -94 35q-43 34 -43 93q0 54 40 91q40 39 100 39q31 0 63 -20q33 -21 50 -40q11 -12 49 -59q36 49 70 81q41 38 104 38q60 0 95 -37t35 -97q0 -48 -34 -86q-33 -38 -95 -38zM535 461
q-38 0 -70 -19q-32 -17 -52 -39q-16 -18 -45 -59l51 -61q58 -60 121 -60q55 0 85 35q31 35 31 78q0 55 -32.5 90t-88.5 35zM196 223q36 0 67 19q28 17 47 40q20 25 45 61q-29 38 -49 59q-20 23 -50 41t-58 18q-56 0 -92 -36q-36 -35 -36 -84q0 -54 41 -86t85 -32z" />
    <glyph glyph-name="integral" unicode="&#x222b;" horiz-adv-x="341" 
d="M120 514v-547q0 -146 -96 -170q-18 -5 -45 -5q-46 0 -80 25l6 9q32 -24 74 -24q131 0 131 164v557q0 155 105 180q25 5 46 5q64 0 110 -35l-6 -9q-46 34 -104 34q-47 0 -78 -19q-63 -39 -63 -165z" />
    <glyph glyph-name="approxequal" unicode="&#x2248;" horiz-adv-x="584" 
d="M76 265l-8 7q58 53 115 53q40 0 116 -38t113 -38q48 0 97 46l7 -7q-52 -49 -105 -49q-38 0 -116 38q-76 38 -114 38q-53 0 -105 -50zM76 425l-8 7q58 53 115 53q40 0 116 -38t113 -38q48 0 97 46l7 -7q-52 -49 -105 -49q-38 0 -116 38q-76 38 -114 38q-53 0 -105 -50z
" />
    <glyph glyph-name="notequal" unicode="&#x2260;" horiz-adv-x="584" 
d="M308 435h-233v10h237l98 263l9 -3l-97 -260h187v-10h-190l-56 -150h246v-10h-249l-105 -283l-10 4l104 279h-174v10h177z" />
    <glyph glyph-name="lessequal" unicode="&#x2264;" horiz-adv-x="584" 
d="M464 24l-389 256v13l389 -257v-12zM464 196v-12l-389 256v4l389 254v-12l-374 -244z" />
    <glyph glyph-name="greaterequal" unicode="&#x2265;" horiz-adv-x="584" 
d="M120 36l389 257v-13l-389 -256v12zM509 444v-4l-389 -256v12l374 246l-374 244v12z" />
    <glyph glyph-name="lozenge" unicode="&#x25ca;" horiz-adv-x="458" 
d="M230 -8h-3l-167 257l168 269h3l167 -258zM229 504l-158 -254l158 -243l158 253z" />
    <glyph glyph-name="spade" unicode="&#x2660;" horiz-adv-x="632" 
d="M316 510q88 -55 172 -151t84 -160q0 -44 -31 -74t-86 -30q-78 0 -131 72q29 -120 107 -167h-230q74 53 105 164q-51 -69 -129 -69q-55 0 -86 30t-31 75q0 63 84 159t172 151z" />
    <glyph glyph-name="club" unicode="&#x2663;" horiz-adv-x="612" 
d="M177 381q0 53 38 91t91 38t91 -38t38 -91q0 -3 -2 -19q51 -5 84 -41q35 -38 35 -87q0 -53 -38 -91t-91 -38q-66 0 -104 53q31 -114 102 -158h-230q62 43 100 156q-41 -51 -102 -51q-53 0 -91 38t-38 91q0 50 34 87q33 36 84 41q-1 4 -1 19z" />
    <glyph glyph-name="heart" unicode="&#x2665;" horiz-adv-x="649" 
d="M325 0q-95 72 -179 181q-86 113 -86 189q0 56 31.5 93t89.5 37q88 0 144 -104q54 104 143 104q57 0 89 -36.5t32 -92.5q0 -76 -86 -189q-87 -113 -178 -182z" />
    <glyph glyph-name="diamond" unicode="&#x2666;" horiz-adv-x="583" 
d="M523 249q-109 -109 -232 -268q-102 134 -231 268q106 110 231 269q124 -158 232 -269z" />
    <glyph glyph-name="uniF350" unicode="&#xf350;" horiz-adv-x="549" 
d="M35 0h-11l249 531h4l248 -531h-11l-97 206h-286zM413 215l-139 298l-139 -298h278z" />
    <glyph glyph-name="uniF351" unicode="&#xf351;" horiz-adv-x="486" 
d="M96 525h297v-10h-287v-215q47 4 107 4q104 0 156.5 -38t52.5 -109q0 -77 -56 -118t-156 -41q-34 0 -60 1q-25 1 -54 1v525zM215 295q-54 0 -109 -5v-280q25 0 48 -1q24 -1 57 -1q98 0 149.5 38.5t51.5 111.5q0 66 -50.5 101.5t-146.5 35.5z" />
    <glyph glyph-name="uniF352" unicode="&#xf352;" horiz-adv-x="494" 
d="M96 0v525q31 0 64 1q34 1 74 1q172 0 172 -129q0 -53 -36 -86.5t-91 -39.5v-1q151 -12 151 -129q0 -72 -51 -108t-143 -36q-41 0 -75 1q-33 1 -65 1zM236 265h-130v-255q28 0 59 -1t69 -1q89 0 137.5 34.5t48.5 100.5q0 58 -47.5 90t-136.5 32zM233 517q-57 0 -127 -2
v-240h136q66 0 109 34q45 35 45 89q0 119 -163 119z" />
    <glyph glyph-name="uniF353" unicode="&#xf353;" horiz-adv-x="400" 
d="M106 0h-10v525h304v-10h-294v-515z" />
    <glyph glyph-name="uniF354" unicode="&#xf354;" horiz-adv-x="588" 
d="M26 -105h-10v115h61q16 19 34 58q18 40 39 135q21 90 29 217l6 105h295v-515h76v-115h-10v105h-520v-105zM195 515l-6 -99q-8 -127 -29 -217q-21 -95 -39 -134q-18 -38 -33 -55h382v505h-275z" />
    <glyph glyph-name="uniF355" unicode="&#xf355;" horiz-adv-x="469" 
d="M405 0h-309v525h301v-10h-291v-242h267v-10h-267v-253h299v-10z" />
    <glyph glyph-name="uniF356" unicode="&#xf356;" horiz-adv-x="715" 
d="M662 525h14l-258 -250l266 -275h-13l-265 274zM363 0h-10v525h10v-525zM31 0l266 274l-257 251h13l257 -251l-266 -274h-13z" />
    <glyph glyph-name="uniF357" unicode="&#xf357;" horiz-adv-x="453" 
d="M207 -6q-45 0 -96 20q-48 20 -71 51l7 5q27 -30 72 -48t86 -18q81 0 127.5 38.5t46.5 104.5q0 54 -36 85.5t-96 31.5h-77v9h71q44 0 80 38q36 37 36 90q0 57 -38 88.5t-102 31.5q-93 0 -155 -62l-7 5q58 67 159 67q71 0 112 -35t41 -97q0 -41 -25 -76.5t-66 -50.5v-3
q50 -4 81.5 -39t31.5 -83q0 -71 -50 -112t-132 -41z" />
    <glyph glyph-name="uniF358" unicode="&#xf358;" 
d="M535 510l-429 -510h-10v525h10v-510l429 510h10v-525h-10v510z" />
    <glyph glyph-name="uniF359" unicode="&#xf359;" 
d="M535 510l-429 -510h-10v525h10v-510l429 510h10v-525h-10v510zM195 640h10q0 -42 30 -66t82 -24q50 0 79 24t29 66h10q0 -46 -32.5 -73t-85.5 -27q-57 0 -89.5 26.5t-32.5 73.5z" />
    <glyph glyph-name="uniF35A" unicode="&#xf35a;" horiz-adv-x="492" 
d="M439 525h15l-289 -251l297 -274h-15l-296 274zM106 0h-10v525h10v-525z" />
    <glyph glyph-name="uniF35B" unicode="&#xf35b;" horiz-adv-x="577" 
d="M481 0h-10v515h-281l-8 -99q-17 -215 -55 -315q-17 -43 -37 -66q-19 -22 -32.5 -28.5t-33.5 -6.5v10q116 0 148 410l8 105h301v-525z" />
    <glyph glyph-name="uniF35C" unicode="&#xf35c;" horiz-adv-x="699" 
d="M106 0h-10v525h11l247 -314l238 314h11v-525h-10v511l-239 -315h-2l-246 312v-508z" />
    <glyph glyph-name="uniF35D" unicode="&#xf35d;" horiz-adv-x="621" 
d="M525 0h-10v263h-409v-263h-10v525h10v-252h409v252h10v-525z" />
    <glyph glyph-name="uniF35E" unicode="&#xf35e;" horiz-adv-x="644" 
d="M48 263q0 115 79 191q80 77 195 77t195 -77q79 -76 79 -191q0 -116 -79 -192q-80 -77 -195 -77t-195 77q-79 76 -79 192zM58 263q0 -112 76 -185q77 -74 188 -74q112 0 188 74q76 73 76 185q0 111 -76 184q-77 74 -188 74t-188 -74q-76 -73 -76 -184z" />
    <glyph glyph-name="uniF35F" unicode="&#xf35f;" horiz-adv-x="620" 
d="M524 0h-10v515h-408v-515h-10v525h428v-525z" />
    <glyph glyph-name="uniF360" unicode="&#xf360;" horiz-adv-x="455" 
d="M106 224v-224h-10v525q31 0 62 1t60 1q102 0 146 -44q43 -43 43 -108q0 -69 -50 -112t-146 -43q-40 0 -105 4zM219 517q-43 0 -113 -2v-281q64 -4 104 -4q90 0 138.5 39.5t48.5 105.5t-44.5 104t-133.5 38z" />
    <glyph glyph-name="uniF361" unicode="&#xf361;" horiz-adv-x="526" 
d="M489 58l5 -8q-65 -56 -170 -56q-124 0 -200 73t-76 196q0 114 74 191q75 77 193 77q102 0 169 -47l-7 -7q-59 44 -161 44q-115 0 -187 -74q-71 -74 -71 -184q0 -118 73 -188q74 -71 193 -71q98 0 165 54z" />
    <glyph glyph-name="uniF362" unicode="&#xf362;" horiz-adv-x="472" 
d="M231 515h-223v10h456v-10h-223v-515h-10v515z" />
    <glyph glyph-name="uniF363" unicode="&#xf363;" horiz-adv-x="506" 
d="M479 525h11l-198 -409q-30 -63 -56 -89.5t-59 -26.5t-53 14l4 9q23 -14 48 -14q50 0 94 84l12 23l-266 409h11l260 -399z" />
    <glyph glyph-name="uniF364" unicode="&#xf364;" horiz-adv-x="660" 
d="M334 -6h-10v68h-8q-125 0 -201 55q-75 55 -75 153t75 153t204 55h5v53h10v-53h6q131 0 205.5 -55t74.5 -153t-76 -153t-200 -55h-10v-68zM340 469h-6v-398h10q118 0 191 51q75 52 75 148t-74 147q-73 52 -196 52zM316 71h8v398h-5q-122 0 -195 -52q-74 -53 -74 -147
t74 -147q74 -52 192 -52z" />
    <glyph glyph-name="uniF365" unicode="&#xf365;" horiz-adv-x="523" 
d="M472 525h12l-216 -258l224 -267h-13l-218 259l-217 -259h-13l224 267l-215 258h13l208 -249z" />
    <glyph glyph-name="uniF366" unicode="&#xf366;" horiz-adv-x="628" 
d="M587 0h-491v525h10v-515h404v515h10v-515h76v-115h-9v105z" />
    <glyph glyph-name="uniF367" unicode="&#xf367;" horiz-adv-x="493" 
d="M387 525h10v-525h-10v257q-80 -50 -175 -50q-77 0 -120.5 43t-43.5 125v150h10v-151q0 -75 41.5 -116t114.5 -41q87 0 173 50v258z" />
    <glyph glyph-name="uniF368" unicode="&#xf368;" horiz-adv-x="793" 
d="M697 0h-601v525h10v-515h285v515h10v-515h286v515h10v-525z" />
    <glyph glyph-name="uniF369" unicode="&#xf369;" horiz-adv-x="805" 
d="M763 0h-667v525h10v-515h285v515h10v-515h286v515h10v-515h76v-115h-10v105z" />
    <glyph glyph-name="uniF36A" unicode="&#xf36a;" horiz-adv-x="529" 
d="M154 515h-154v10h164v-224q49 4 108 4q209 0 209 -148q0 -77 -56 -118t-157 -41q-34 0 -60 1q-25 1 -54 1v515zM273 295q-60 0 -109 -4v-281q25 0 48 -1q24 -1 57 -1q98 0 150 38.5t52 111.5q0 66 -50 101.5t-148 35.5z" />
    <glyph glyph-name="uniF36B" unicode="&#xf36b;" horiz-adv-x="646" 
d="M550 0h-10v525h10v-525zM207 295q-54 0 -101 -4v-281q23 0 44 -1t53 -1q98 0 150 38.5t52 111.5q0 66 -51 101.5t-147 35.5zM96 525h10v-224q47 4 99 4q104 0 157 -38t53 -110q0 -77 -56.5 -118t-156.5 -41q-33 0 -56 1t-50 1v525z" />
    <glyph glyph-name="uniF36C" unicode="&#xf36c;" horiz-adv-x="471" 
d="M214 295q-61 0 -108 -4v-281q25 0 48 -1t56 -1q99 0 151 38.5t52 111.5q0 66 -50.5 101.5t-148.5 35.5zM96 525h10v-224q47 4 107 4q104 0 157 -38t53 -110q0 -77 -56.5 -118t-157.5 -41q-33 0 -59 1q-25 1 -54 1v525z" />
    <glyph glyph-name="uniF36D" unicode="&#xf36d;" horiz-adv-x="548" 
d="M490 263h-325v10h325q-3 114 -76 181t-194 67q-99 0 -161 -46l-6 7q61 49 167 49q129 0 204 -72q76 -70 76 -194q0 -117 -76 -194q-77 -77 -199 -77q-105 0 -185 55l6 7q79 -52 178 -52q118 0 192 74q72 74 74 185z" />
    <glyph glyph-name="uniF36E" unicode="&#xf36e;" horiz-adv-x="858" 
d="M106 0h-10v525h10v-252h173q3 110 77 184q76 74 188 74q116 0 191 -77t75 -191q0 -115 -75 -192t-191 -77q-115 0 -190 77t-75 192h-173v-263zM289 263q0 -113 72 -186t183 -73q112 0 184 73t72 186q0 111 -72 184q-72 74 -184 74q-111 0 -183 -74q-72 -73 -72 -184z" />
    <glyph glyph-name="uniF36F" unicode="&#xf36f;" horiz-adv-x="484" 
d="M388 0h-10v220h-152l-181 -220h-13l183 221q-54 9 -97 50q-41 43 -41 97q0 72 52.5 115.5t144.5 43.5q33 0 59 -1t55 -1v-525zM222 230h156v285q-25 0 -49 1q-23 1 -56 1q-90 0 -138 -41t-48 -109q0 -51 41 -90t94 -47z" />
    <glyph glyph-name="uniF371" unicode="&#xf371;" horiz-adv-x="469" 
d="M405 0h-309v525h301v-10h-291v-242h267v-10h-267v-253h299v-10zM141 671q0 12 13 12q11 0 11.5 -12.5t-11.5 -12.5q-13 0 -13 13zM315 671q0 12 13 12q11 0 11.5 -12.5t-11.5 -12.5q-13 0 -13 13z" />
    <glyph glyph-name="uniF372" unicode="&#xf372;" horiz-adv-x="606" 
d="M558 154q0 -160 -130 -160q-35 0 -64 19l6 9q24 -18 59 -18q56 0 87.5 37.5t31.5 112.5q0 153 -156 153q-52 0 -93 -19q-17 -7 -21 -10q-30 -16 -37 -22v-256h-10v515h-223v10h456v-10h-223v-249q79 51 153 51q164 0 164 -163z" />
    <glyph glyph-name="uniF373" unicode="&#xf373;" horiz-adv-x="400" 
d="M320 746l7 -6l-109 -141l-8 5zM106 0h-10v525h304v-10h-294v-515z" />
    <glyph glyph-name="uniF374" unicode="&#xf374;" horiz-adv-x="548" 
d="M58 273h325v-10h-325q0 -116 75 -188q77 -71 199 -71q90 0 169 52l7 -7q-80 -55 -177 -55q-125 0 -205 74q-78 74 -78 195q0 117 76 192q76 76 203 76q108 0 167 -49l-5 -7q-62 46 -161 46q-120 0 -193 -70q-74 -69 -77 -178z" />
    <glyph glyph-name="uniF375" unicode="&#xf375;" horiz-adv-x="454" 
d="M395 126q0 88 -117 124q-11 3 -36.5 11l-38 12t-35 13t-34.5 16t-27.5 18.5t-23.5 23t-14 28t-6 35.5q0 56 45 90t122 34q46 0 90 -14.5t65 -37.5l-6 -7q-49 49 -151 49q-70 0 -112.5 -31t-42.5 -82q0 -85 118 -121q108 -30 145 -51q71 -41 70 -110q0 -58 -50 -96
q-50 -36 -118 -36q-128 0 -190 68l8 7q65 -65 181 -65q61 0 110 32q48 33 48 90z" />
    <glyph glyph-name="uniF376" unicode="&#xf376;" horiz-adv-x="248" 
d="M129 0h-10v525h10v-525z" />
    <glyph glyph-name="uniF377" unicode="&#xf377;" horiz-adv-x="248" 
d="M56 671q0 8 8 11t13 -3q6 -5 3 -13t-11 -8q-13 0 -13 13zM170 671q0 8 8 11t13 -3q6 -5 3 -13t-11 -8q-13 0 -13 13zM129 0h-10v525h10v-525z" />
    <glyph glyph-name="uniF378" unicode="&#xf378;" horiz-adv-x="274" 
d="M168 525h10v-414q0 -59 -22 -88t-75 -29q-39 0 -65 19l5 9q26 -18 59 -18q49 0 68.5 26t19.5 80v415z" />
    <glyph glyph-name="uniF379" unicode="&#xf379;" horiz-adv-x="837" 
d="M471 0v515h-281l-8 -99q-17 -215 -55 -315q-17 -43 -37 -66q-19 -22 -32.5 -28.5t-33.5 -6.5v10q116 0 148 410l8 105h301v-224q47 4 99 4q209 0 209 -148q0 -77 -56 -118t-157 -41q-32 0 -55 1t-50 1zM581 295q-53 0 -100 -4v-281q23 0 44 -1t52 -1q98 0 150 38.5
t52 111.5q0 66 -51 101.5t-147 35.5z" />
    <glyph glyph-name="uniF37A" unicode="&#xf37a;" horiz-adv-x="873" 
d="M106 0h-10v525h10v-232h401v232h10v-232q47 4 99 4q209 0 209 -143q0 -78 -55 -117t-158 -39q-29 0 -50 1t-45 1h-10v283h-401v-283zM517 283v-273q23 0 44 -1t52 -1q202 0 202 146q0 134 -198 134q-45 0 -100 -5z" />
    <glyph glyph-name="uniF37B" unicode="&#xf37b;" horiz-adv-x="606" 
d="M231 515h-223v10h456v-10h-223v-250q71 52 162 52q155 0 155 -168v-149h-10v151q0 77 -38 116.5t-110 39.5q-77 0 -159 -52v-255h-10v515z" />
    <glyph glyph-name="uniF37C" unicode="&#xf37c;" horiz-adv-x="492" 
d="M439 525h15l-289 -251l297 -274h-15l-296 274zM106 0h-10v525h10v-525zM340 746l7 -6l-109 -141l-8 5z" />
    <glyph glyph-name="uniF37E" unicode="&#xf37e;" horiz-adv-x="506" 
d="M479 525h11l-198 -409q-30 -63 -56 -89.5t-59 -26.5t-53 14l4 9q23 -14 48 -14q50 0 94 84l12 23l-266 409h11l260 -399zM142 640h10q0 -42 30 -66t82 -24q50 0 79 24t29 66h10q0 -46 -32.5 -73t-85.5 -27q-57 0 -89.5 26.5t-32.5 73.5z" />
    <glyph glyph-name="uniF37F" unicode="&#xf37f;" horiz-adv-x="612" 
d="M301 0h-205v525h10v-515h400v515h10v-525h-205v-120h-10v120z" />
    <glyph glyph-name="uniF381" unicode="&#xf381;" horiz-adv-x="491" 
d="M116 410h-116v10h116v105h10v-105h146v-10h-146v-109q47 4 107 4q104 0 157 -38t53 -110q0 -77 -56.5 -118t-157.5 -41q-33 0 -59 1q-25 1 -54 1v410zM234 295q-61 0 -108 -4v-281q25 0 48 -1t56 -1q99 0 151 38.5t52 111.5q0 66 -50.5 101.5t-148.5 35.5z" />
    <glyph glyph-name="uniF389" unicode="&#xf389;" horiz-adv-x="644" 
d="M48 263q0 115 79 191q80 77 195 77t195 -77q79 -76 79 -191q0 -116 -79 -192q-80 -77 -195 -77t-195 77q-79 76 -79 192zM187 309q-67 0 -129 -59q4 -106 79 -176q76 -70 185 -70q112 0 188 74q76 73 76 185v1q-62 -51 -122 -51q-50 0 -139 48t-138 48zM465 223
q61 0 120 54q-4 105 -80 174q-74 70 -183 70q-111 0 -188 -74q-76 -73 -76 -183q64 55 131 55q50 0 139 -48t137 -48z" />
    <glyph glyph-name="uniF38A" unicode="&#xf38a;" horiz-adv-x="526" 
d="M428 398l-160 -404h-4l-248 531h11l239 -514l153 391q26 68 51 98.5t55 30.5q13 0 31 -7v-9q-15 6 -28 6q-29 0 -52 -29t-48 -94z" />
    <glyph glyph-name="uniF393" unicode="&#xf393;" horiz-adv-x="400" 
d="M106 0h-10v525h294v105h10v-115h-294v-515z" />
    <glyph glyph-name="uniF3CF" unicode="&#xf3cf;" horiz-adv-x="921" 
d="M529 525v-525h-8l-415 506v-506h-10v525h8l415 -507v507h10zM644 297q-36 33 -36 82t36 82t89 33t88 -33q36 -33 36 -82t-36 -82q-35 -33 -88 -33t-89 33zM733 274q48 0 81.5 30t33.5 75t-34 75t-81 30q-48 0 -81.5 -30t-33.5 -75q0 -46 35 -76q35 -29 80 -29zM833 196
h-201v10h201v-10z" />
    <glyph glyph-name="uniF3D0" unicode="&#xf3d0;" horiz-adv-x="360" 
d="M60 640h10q0 -42 30 -66t82 -24q50 0 79 24t29 66h10q0 -46 -32.5 -73t-85.5 -27q-57 0 -89.5 26.5t-32.5 73.5z" />
    <glyph glyph-name="uniF400" unicode="&#xf400;" horiz-adv-x="0" 
d="M-171 706l7 -6l-109 -141l-8 5z" />
    <glyph glyph-name="uniF401" unicode="&#xf401;" horiz-adv-x="0" 
d="M-265 840l4 -8l-154 -90l-5 7z" />
    <glyph glyph-name="uniF406" unicode="&#xf406;" horiz-adv-x="417" 
d="M60 834l7 6q55 -70 143 -70q85 0 140 70l7 -6q-56 -74 -147 -74q-51 0 -90.5 22t-59.5 52z" />
    <glyph glyph-name="uniF407" unicode="&#xf407;" horiz-adv-x="298" 
d="M60 -180l4 9q38 -19 74 -19q40 0 65 16.5t25 43.5q0 60 -90 60h-6v70h10v-60q96 -2 96 -70q0 -31 -27.5 -50.5t-72.5 -19.5q-35 0 -78 20z" />
    <glyph glyph-name="uniF408" unicode="&#xf408;" horiz-adv-x="453" 
d="M67 743l-7 7l165 90h4l164 -90l-8 -7l-158 87z" />
    <glyph glyph-name="uniF409" unicode="&#xf409;" horiz-adv-x="181" 
d="M76 -80l1 10q44 -5 44 -51q0 -32 -13.5 -49.5t-44.5 -29.5l-3 8q51 20 51 67q0 40 -35 45z" />
    <glyph glyph-name="uniF40A" unicode="&#xf40a;" horiz-adv-x="181" 
d="M92 721l8 8q21 -23 21 -59q0 -75 -58 -105l-3 8q51 25 51 95q0 34 -19 53z" />
    <glyph glyph-name="uniF40B" unicode="&#xf40b;" horiz-adv-x="145" 
d="M60 790q0 12 13 12q12 0 12 -12q0 -13 -12 -13q-13 0 -13 13z" />
    <glyph glyph-name="uniF40C" unicode="&#xf40c;" horiz-adv-x="305" 
d="M152 850q42 0 67.5 -19.5t25.5 -55.5t-26 -57t-67 -21t-66.5 21t-25.5 57t25.5 55.5t66.5 19.5zM92 824q-22 -16 -22 -49t23 -51q23 -17 59 -17t59 17q24 18 24 51q0 32 -23 49q-22 16 -60 16t-60 -16z" />
    <glyph glyph-name="uniF40D" unicode="&#xf40d;" horiz-adv-x="439" 
d="M66 776l-6 7q38 30 75 30q32 0 85 -25t80 -25q40 0 72 35l7 -7q-38 -38 -79 -38q-30 0 -84 25t-84 25q-33 0 -66 -27z" />
    <glyph glyph-name="uniF40E" unicode="&#xf40e;" horiz-adv-x="272" 
d="M209 -181l3 -9q-23 -10 -52 -10q-38 0 -69 21t-31 69q0 52 46 86t103 34v-10q-53 0 -96 -31t-43 -79q0 -43 29 -61q29 -19 62 -19q29 0 48 9z" />
    <glyph glyph-name="uniF410" unicode="&#xf410;" horiz-adv-x="0" 
d="M-315 749l-5 -7l-154 90l4 8z" />
    <glyph glyph-name="uniF416" unicode="&#xf416;" horiz-adv-x="181" 
d="M76 -80l1 10q44 -5 44 -51q0 -32 -13.5 -49.5t-44.5 -29.5l-3 8q51 20 51 67q0 40 -35 45z" />
    <glyph glyph-name="uniF418" unicode="&#xf418;" horiz-adv-x="181" 
d="M92 533l8 8q21 -23 21 -59q0 -75 -58 -105l-3 8q51 25 51 95q0 34 -19 53z" />
    <glyph glyph-name="uniF447" unicode="&#xf447;" horiz-adv-x="472" 
d="M159 -180l4 9q38 -19 74 -19q40 0 65 16.5t25 43.5q0 60 -90 60h-6v585h-223v10h456v-10h-223v-575q96 -2 96 -70q0 -31 -27.5 -50.5t-72.5 -19.5q-35 0 -78 20z" />
    <glyph glyph-name="uniF44E" unicode="&#xf44e;" horiz-adv-x="621" 
d="M40 273h523q-3 114 -76 181t-194 67q-99 0 -160 -46l-6 7q59 49 167 49q128 0 203 -72q76 -70 76 -194q0 -118 -73 -194q-72 -77 -194 -77q-121 0 -194 79q-72 79 -72 200zM306 4q118 0 187 74q68 73 70 185h-513q2 -112 72 -185q71 -74 184 -74z" />
    <glyph glyph-name="uniF639" unicode="&#xf639;" horiz-adv-x="584" 
d="M504 350q0 -104 -20 -184q-21 -80 -69.5 -127t-120.5 -47q-110 0 -162 97t-52 261q0 162 51 260q53 98 161 98q109 0 160 -98q52 -97 52 -260zM90 350q0 -160 49 -254t155 -94t152 94q48 94 48 254t-49 254q-48 94 -153 94t-154 -94q-48 -94 -48 -254z" />
    <glyph glyph-name="uniF63A" unicode="&#xf63a;" horiz-adv-x="584" 
d="M492 0h-402v10l82 82q40 42 91 101q55 64 93 119q34 49 64 116q28 63 28 114q0 63 -43 109q-44 47 -121 47q-60 0 -112 -37q-51 -37 -61 -112h-10q7 77 63 117q56 42 117 42q87 0 132 -50t45 -114q0 -192 -354 -534h388v-10z" />
    <glyph glyph-name="uniF63B" unicode="&#xf63b;" horiz-adv-x="584" 
d="M283 -8q-67 0 -118 30.5t-75 93.5l9 4q24 -59 74 -88.5t114 -29.5q84 0 136 52t52 133q0 73 -49 119q-49 47 -117 47h-67v10h60q55 0 100 51q46 50 46 122q0 77 -44 119.5t-120 42.5q-126 0 -166 -111l-9 2q16 54 63.5 86.5t110.5 32.5q83 0 129 -46t46 -129
q0 -53 -31 -102q-30 -49 -83 -69v-3q63 -7 102 -59q39 -50 39 -113q0 -88 -57 -142q-58 -53 -145 -53z" />
    <glyph glyph-name="uniF63C" unicode="&#xf63c;" horiz-adv-x="584" 
d="M416 0h-10v200h-328v2l330 498h12l-325 -490h311v240h10v-240h112v-10h-112v-200z" />
    <glyph glyph-name="uniF63D" unicode="&#xf63d;" horiz-adv-x="584" 
d="M153 388l40 312h286v-10h-278l-37 -288q45 14 88 14q98 0 160 -57t62 -149q0 -97 -60 -158q-58 -60 -140 -60q-136 0 -196 118l9 4q28 -54 79 -83t108 -29q79 0 135 59q55 59 55 149q0 84 -59 140t-152 56q-51 0 -100 -18z" />
    <glyph glyph-name="uniF63E" unicode="&#xf63e;" horiz-adv-x="584" 
d="M80 248q0 91 29 174t78 141q100 120 225 145l5 -8q-115 -25 -210 -127q-100 -112 -117 -294q22 65 77 106t130 41q95 0 151 -60q56 -61 56 -157q0 -88 -59 -153q-58 -64 -137 -64q-112 0 -170 73t-58 183zM90 249q0 -100 56 -174q55 -73 160 -73q76 0 132 60
q56 62 56 146q0 91 -52 149q-53 59 -146 59q-83 0 -138 -52q-54 -51 -68 -115z" />
    <glyph glyph-name="uniF63F" unicode="&#xf63f;" horiz-adv-x="584" 
d="M471 690h-365v10h380v-2l-279 -698h-12z" />
    <glyph glyph-name="uniF640" unicode="&#xf640;" horiz-adv-x="584" 
d="M273 365h39q56 0 106 48t50 117q0 77 -54 122q-52 46 -123 46q-70 0 -122 -46q-52 -45 -52 -122q0 -69 49 -117q50 -48 107 -48zM310 355h-32q-78 0 -133 -51t-55 -123q0 -77 60 -128q62 -51 142 -51q83 0 142 49q61 49 61 130q0 79 -54 126q-54 48 -131 48zM80 181
q0 62 42 113q43 51 115 64v3q-55 13 -93 63q-37 49 -37 103q0 81 53 131q55 50 132 50q78 0 132 -51q54 -49 54 -130q0 -54 -35.5 -100.5t-94.5 -64.5v-3q70 -8 113 -57q44 -50 44 -121q0 -85 -64 -137q-62 -52 -148 -52q-85 0 -149 52t-64 137z" />
    <glyph glyph-name="uniF641" unicode="&#xf641;" horiz-adv-x="584" 
d="M504 452q0 -190 -93 -314q-92 -123 -239 -146l-5 8q138 22 228 134q90 113 99 287q-21 -62 -76 -99.5t-131 -37.5q-94 0 -151 62q-56 62 -56 150t63 150q64 62 143 62q110 0 164 -73q54 -72 54 -183zM494 451q0 104 -52 175q-51 72 -154 72q-76 0 -138 -59
q-60 -59 -60 -142q0 -84 52 -143q52 -60 146 -60q83 0 138 47q54 47 68 110z" />
    <glyph glyph-name="uniF643" unicode="&#xf643;" horiz-adv-x="584" 
d="M111 68q-69 76 -69 182t69 182t181 76t181 -76t69 -182t-69 -182t-181 -76t-181 76zM118 425q-66 -73 -66 -175t66 -175t174 -73t174 73t66 175t-66 175t-174 73t-174 -73z" />
    <glyph glyph-name="uniF644" unicode="&#xf644;" horiz-adv-x="584" 
d="M175 380l-7 7l146 121h5v-508h-10v491z" />
    <glyph glyph-name="uniF645" unicode="&#xf645;" horiz-adv-x="584" 
d="M492 0h-402v10q101 40 181 91q51 32 89 67q88 84 88 172q0 74 -42.5 116.5t-121.5 42.5q-60 0 -112 -37q-51 -37 -61 -112h-10q7 76 63 117q56 42 117 42q87 0 132 -46t45 -124q0 -48 -28 -97.5t-72 -87.5t-93 -67q-78 -48 -154 -77h381v-10z" />
    <glyph glyph-name="uniF646" unicode="&#xf646;" horiz-adv-x="584" 
d="M283 -208q-67 0 -118 30.5t-75 93.5l9 4q24 -59 74 -88.5t114 -29.5q84 0 136 52t52 133q0 73 -49 119q-49 47 -117 47h-67v10h60q55 0 100 51q46 50 46 122q0 77 -44 119.5t-120 42.5q-126 0 -166 -111l-9 2q16 54 63.5 86.5t110.5 32.5q83 0 129 -46t46 -129
q0 -53 -31 -102q-30 -49 -83 -69v-3q63 -7 102 -59q39 -49 39 -113q0 -89 -57 -141q-57 -54 -145 -54z" />
    <glyph glyph-name="uniF647" unicode="&#xf647;" horiz-adv-x="584" 
d="M416 -200h-10v200h-328v2l330 498h12l-325 -490h311v240h10v-240h112v-10h-112v-200z" />
    <glyph glyph-name="uniF648" unicode="&#xf648;" horiz-adv-x="584" 
d="M153 188l40 312h286v-10h-278l-37 -288q45 14 88 14q98 0 160 -57t62 -149q0 -97 -60 -157q-58 -61 -140 -61q-136 0 -196 118l9 4q28 -54 79 -83t108 -29q80 0 135 60q55 58 55 148q0 84 -59 140t-152 56q-51 0 -100 -18z" />
    <glyph glyph-name="uniF649" unicode="&#xf649;" horiz-adv-x="584" 
d="M80 248q0 91 29 174t78 141q100 120 225 145l5 -8q-115 -25 -210 -127q-100 -112 -117 -294q22 65 77 106t130 41q95 0 151 -60q56 -61 56 -157q0 -88 -59 -153q-58 -64 -137 -64q-112 0 -170 73t-58 183zM90 249q0 -100 56 -174q55 -73 160 -73q76 0 132 60
q56 62 56 146q0 91 -52 149q-53 59 -146 59q-83 0 -138 -52q-54 -51 -68 -115z" />
    <glyph glyph-name="uniF64A" unicode="&#xf64a;" horiz-adv-x="584" 
d="M471 490h-365v10h380v-2l-279 -698h-12z" />
    <glyph glyph-name="uniF64B" unicode="&#xf64b;" horiz-adv-x="584" 
d="M273 365h39q56 0 106 48t50 117q0 77 -54 122q-52 46 -123 46q-70 0 -122 -46q-52 -45 -52 -122q0 -69 49 -117q50 -48 107 -48zM310 355h-32q-78 0 -133 -51t-55 -123q0 -77 60 -128q62 -51 142 -51q83 0 142 49q61 49 61 130q0 79 -54 126q-54 48 -131 48zM80 181
q0 62 42 113q43 51 115 64v3q-55 13 -93 63q-37 49 -37 103q0 81 53 131q55 50 132 50q78 0 132 -51q54 -49 54 -130q0 -54 -35.5 -100.5t-94.5 -64.5v-3q70 -8 113 -57q44 -50 44 -121q0 -85 -64 -137q-62 -52 -148 -52q-85 0 -149 52t-64 137z" />
    <glyph glyph-name="uniF64C" unicode="&#xf64c;" horiz-adv-x="584" 
d="M504 252q0 -188 -93 -313q-93 -124 -239 -147l-5 8q138 22 228 135q90 111 99 286q-21 -62 -76 -99.5t-131 -37.5q-94 0 -151 62q-56 62 -56 150t63 150q64 62 143 62q110 0 164 -73q54 -72 54 -183zM494 251q0 104 -52 175q-51 72 -154 72q-76 0 -138 -59
q-60 -59 -60 -142q0 -84 52 -143q52 -60 146 -60q83 0 138 47q54 47 68 110z" />
    <glyph glyph-name="uniF66D" unicode="&#xf66d;" horiz-adv-x="549" 
d="M35 0h-11l249 531h4l248 -531h-11l-97 206h-286zM413 215l-139 298l-139 -298h278zM146 714l7 6q55 -70 123 -70q65 0 120 70l7 -6q-56 -74 -127 -74q-80 0 -130 74z" />
    <glyph glyph-name="uniF66E" unicode="&#xf66e;" horiz-adv-x="549" 
d="M35 0h-11l249 531h4l248 -531h-11l-97 206h-286zM413 215l-139 298l-139 -298h278zM391 680h-234v10h234v-10z" />
    <glyph glyph-name="uniF66F" unicode="&#xf66f;" horiz-adv-x="549" 
d="M516 -181l3 -9q-23 -10 -52 -10q-37 0 -69 21q-31 21 -31 69q0 50 43 84q44 34 99 36l-92 196h-286l-96 -206h-11l249 531h4l248 -531h-9q-53 0 -96 -31t-43 -79q0 -43 29 -61q29 -19 62 -19q28 0 48 9zM413 215l-139 298l-139 -298h278z" />
    <glyph glyph-name="uniF671" unicode="&#xf671;" horiz-adv-x="526" 
d="M489 58l5 -8q-65 -56 -170 -56q-124 0 -200 73t-76 196q0 114 74 191q75 77 193 77q102 0 169 -47l-7 -7q-59 44 -161 44q-115 0 -187 -74q-71 -74 -71 -184q0 -118 73 -188q74 -71 193 -71q98 0 165 54zM390 746l7 -6l-109 -141l-8 5z" />
    <glyph glyph-name="uniF672" unicode="&#xf672;" horiz-adv-x="526" 
d="M309 611h-4l-125 110l7 7l120 -106l118 106l8 -7zM489 58l5 -8q-65 -56 -170 -56q-124 0 -200 73t-76 196q0 114 74 191q75 77 193 77q102 0 169 -47l-7 -7q-59 44 -161 44q-115 0 -187 -74q-71 -74 -71 -184q0 -118 73 -188q74 -71 193 -71q98 0 165 54z" />
    <glyph glyph-name="uniF673" unicode="&#xf673;" horiz-adv-x="526" 
d="M305 728h4l133 -110l-7 -7l-128 106l-130 -106l-8 7zM489 58l5 -8q-65 -56 -170 -56q-124 0 -200 73t-76 196q0 114 74 191q75 77 193 77q102 0 169 -47l-7 -7q-59 44 -161 44q-115 0 -187 -74q-71 -74 -71 -184q0 -118 73 -188q74 -71 193 -71q98 0 165 54z" />
    <glyph glyph-name="uniF674" unicode="&#xf674;" horiz-adv-x="526" 
d="M489 58l5 -8q-65 -56 -170 -56q-124 0 -200 73t-76 196q0 114 74 191q75 77 193 77q102 0 169 -47l-7 -7q-59 44 -161 44q-115 0 -187 -74q-71 -74 -71 -184q0 -118 73 -188q74 -71 193 -71q98 0 165 54zM292 673q0 8 8 11t13 -3q6 -5 3 -13t-11 -8q-13 0 -13 13z" />
    <glyph glyph-name="uniF675" unicode="&#xf675;" horiz-adv-x="588" 
d="M269 611h-4l-125 110l7 7l120 -106l118 106l8 -7zM100 0h-4v525h8q13 0 57 1t65 1q159 0 236 -73q78 -72 78 -183q0 -120 -84 -196q-83 -77 -237 -77q-36 0 -61 1t-58 1zM224 517q-20 0 -64 -1t-54 -1v-505l114 -2q149 0 229 74q81 75 81 189q0 108 -76 177
q-75 69 -230 69z" />
    <glyph glyph-name="uniF676" unicode="&#xf676;" horiz-adv-x="611" 
d="M119 265h-111v10h111v250h8q13 0 57.5 1t64.5 1q159 0 236 -73q78 -72 78 -183q0 -120 -84 -196q-83 -77 -237 -77q-36 0 -61 1t-58 1h-4v265zM247 517q-20 0 -63.5 -1t-54.5 -1v-240h170v-10h-170v-255l114 -2q149 0 229 74q81 75 81 189q0 108 -76 177q-75 69 -230 69z
" />
    <glyph glyph-name="uniF678" unicode="&#xf678;" horiz-adv-x="469" 
d="M249 611h-4l-125 110l7 7l120 -106l118 106l8 -7zM405 0h-309v525h301v-10h-291v-242h267v-10h-267v-253h299v-10z" />
    <glyph glyph-name="uniF679" unicode="&#xf679;" horiz-adv-x="469" 
d="M405 0h-309v525h301v-10h-291v-242h267v-10h-267v-253h299v-10zM232 673q0 8 8 11t13 -3q6 -5 3 -13t-11 -8q-13 0 -13 13z" />
    <glyph glyph-name="uniF67A" unicode="&#xf67a;" horiz-adv-x="469" 
d="M405 0h-309v525h301v-10h-291v-242h267v-10h-267v-253h299v-10zM361 680h-234v10h234v-10z" />
    <glyph glyph-name="uniF67C" unicode="&#xf67c;" horiz-adv-x="469" 
d="M341 0h-245v525h301v-10h-291v-242h267v-10h-267v-253h299v-10h-11q-52 -2 -93 -33q-41 -32 -41 -77q0 -43 29 -61q29 -19 62 -19q29 0 48 9l3 -9q-23 -10 -52 -10q-38 0 -69 21t-31 69q0 38 25 67.5t66 42.5z" />
    <glyph glyph-name="uniF67D" unicode="&#xf67d;" horiz-adv-x="582" 
d="M516 226h-182v10h192v-171q-33 -32 -95 -52q-57 -19 -114 -19q-120 0 -194 73q-75 73 -75 196q0 114 74 191q75 77 193 77q102 0 169 -47l-7 -8q-58 45 -161 45q-115 0 -187 -74q-71 -74 -71 -184q0 -118 72 -188q73 -71 188 -71q56 0 111 18t87 48v156zM170 714l7 6
q55 -70 123 -70q65 0 120 70l7 -6q-56 -74 -127 -74q-80 0 -130 74z" />
    <glyph glyph-name="uniF67E" unicode="&#xf67e;" horiz-adv-x="582" 
d="M516 226h-182v10h192v-171q-33 -32 -95 -52q-57 -19 -114 -19q-120 0 -194 73q-75 73 -75 196q0 114 74 191q75 77 193 77q102 0 169 -47l-7 -8q-58 45 -161 45q-115 0 -187 -74q-71 -74 -71 -184q0 -118 72 -188q73 -71 188 -71q56 0 111 18t87 48v156zM315 728h4
l133 -110l-7 -7l-128 106l-130 -106l-8 7z" />
    <glyph glyph-name="uniF67F" unicode="&#xf67f;" horiz-adv-x="582" 
d="M516 226h-182v10h192v-171q-33 -32 -95 -52q-57 -19 -114 -19q-120 0 -194 73q-75 73 -75 196q0 114 74 191q75 77 193 77q102 0 169 -47l-7 -8q-58 45 -161 45q-115 0 -187 -74q-71 -74 -71 -184q0 -118 72 -188q73 -71 188 -71q56 0 111 18t87 48v156zM297 -80l1 10
q44 -5 44 -51q0 -32 -13.5 -49.5t-44.5 -29.5l-3 8q51 20 51 67q0 40 -35 45z" />
    <glyph glyph-name="uniF680" unicode="&#xf680;" horiz-adv-x="582" 
d="M516 226h-182v10h192v-171q-33 -32 -95 -52q-57 -19 -114 -19q-120 0 -194 73q-75 73 -75 196q0 114 74 191q75 77 193 77q102 0 169 -47l-7 -8q-58 45 -161 45q-115 0 -187 -74q-71 -74 -71 -184q0 -118 72 -188q73 -71 188 -71q56 0 111 18t87 48v156zM292 673
q0 8 8 11t13 -3q6 -5 3 -13t-11 -8q-13 0 -13 13z" />
    <glyph glyph-name="uniF681" unicode="&#xf681;" horiz-adv-x="621" 
d="M96 402h-66v10h66v113h10v-113h409v113h10v-113h66v-10h-66v-402h-10v263h-409v-263h-10v402zM106 402v-129h409v129h-409z" />
    <glyph glyph-name="uniF682" unicode="&#xf682;" horiz-adv-x="621" 
d="M310 728h4l133 -110l-7 -7l-128 106l-130 -106l-8 7zM525 0h-10v263h-409v-263h-10v525h10v-252h409v252h10v-525z" />
    <glyph glyph-name="uniF685" unicode="&#xf685;" horiz-adv-x="248" 
d="M241 680h-234v10h234v-10zM129 0h-10v525h10v-525z" />
    <glyph glyph-name="uniF686" unicode="&#xf686;" horiz-adv-x="248" 
d="M129 -181l3 -9q-23 -10 -52 -10q-38 0 -69 21t-31 69t42 83q42 33 97 36v516h10v-525h-5q-52 -2 -93 -33q-41 -32 -41 -77q0 -43 29 -61q29 -19 62 -19q29 0 48 9z" />
    <glyph glyph-name="uniF688" unicode="&#xf688;" horiz-adv-x="274" 
d="M165 728h4l133 -110l-7 -7l-128 106l-130 -106l-8 7zM168 525h10v-414q0 -59 -22 -88t-75 -29q-39 0 -65 19l5 9q26 -18 59 -18q49 0 68.5 26t19.5 80v415z" />
    <glyph glyph-name="uniF689" unicode="&#xf689;" horiz-adv-x="492" 
d="M439 525h15l-289 -251l297 -274h-15l-296 274zM106 0h-10v525h10v-525zM227 -80l1 10q44 -5 44 -51q0 -32 -13.5 -49.5t-44.5 -29.5l-3 8q51 20 51 67q0 40 -35 45z" />
    <glyph glyph-name="uniF68A" unicode="&#xf68a;" horiz-adv-x="444" 
d="M270 746l7 -6l-109 -141l-8 5zM428 0h-332v525h10v-515h322v-10z" />
    <glyph glyph-name="uniF68B" unicode="&#xf68b;" horiz-adv-x="444" 
d="M307 525h10q10 -16 10 -43q0 -40 -16 -70.5t-42 -42.5l-3 8q23 13 37 41t14 63q0 28 -10 44zM428 0h-332v525h10v-515h322v-10z" />
    <glyph glyph-name="uniF68C" unicode="&#xf68c;" horiz-adv-x="444" 
d="M428 0h-332v525h10v-515h322v-10zM237 -80l1 10q44 -5 44 -51q0 -32 -13.5 -49.5t-44.5 -29.5l-3 8q51 20 51 67q0 40 -35 45z" />
    <glyph glyph-name="uniF68D" unicode="&#xf68d;" horiz-adv-x="444" 
d="M428 0h-332v525h10v-515h322v-10zM314 283q0 8 8 11t13 -3q6 -5 3 -13t-11 -8q-13 0 -13 13z" />
    <glyph glyph-name="uniF68E" unicode="&#xf68e;" 
d="M545 525v-525h-8l-431 506v-506h-10v525h8l431 -507v507h10zM410 746l7 -6l-109 -141l-8 5z" />
    <glyph glyph-name="uniF68F" unicode="&#xf68f;" 
d="M322 611h-4l-125 110l7 7l120 -106l118 106l8 -7zM545 525v-525h-8l-431 506v-506h-10v525h8l431 -507v507h10z" />
    <glyph glyph-name="uniF690" unicode="&#xf690;" 
d="M545 525v-525h-8l-431 506v-506h-10v525h8l431 -507v507h10zM287 -80l1 10q44 -5 44 -51q0 -32 -13.5 -49.5t-44.5 -29.5l-3 8q51 20 51 67q0 40 -35 45z" />
    <glyph glyph-name="uniF692" unicode="&#xf692;" horiz-adv-x="644" 
d="M480 746l7 -6l-109 -141l-8 5zM340 746l7 -6l-109 -141l-8 5zM48 263q0 115 79 191q80 77 195 77t195 -77q79 -76 79 -191q0 -116 -79 -192q-80 -77 -195 -77t-195 77q-79 76 -79 192zM58 263q0 -112 76 -185q77 -74 188 -74q112 0 188 74q76 73 76 185q0 111 -76 184
q-77 74 -188 74t-188 -74q-76 -73 -76 -184z" />
    <glyph glyph-name="uniF693" unicode="&#xf693;" horiz-adv-x="644" 
d="M48 263q0 115 79 191q80 77 195 77t195 -77q79 -76 79 -191q0 -116 -79 -192q-80 -77 -195 -77t-195 77q-79 76 -79 192zM58 263q0 -112 76 -185q77 -74 188 -74q112 0 188 74q76 73 76 185q0 111 -76 184q-77 74 -188 74t-188 -74q-76 -73 -76 -184zM439 680h-234v10
h234v-10z" />
    <glyph glyph-name="uniF695" unicode="&#xf695;" horiz-adv-x="491" 
d="M106 235v-235h-10v525q32 0 61 1q30 1 51 1q191 0 191 -145q0 -52 -40.5 -92.5t-107.5 -52.5l209 -237h-13l-207 235h-134zM207 517q-31 0 -101 -2v-270h117q64 0 114 40q52 40 52 98q0 134 -182 134zM300 746l7 -6l-109 -141l-8 5z" />
    <glyph glyph-name="uniF696" unicode="&#xf696;" horiz-adv-x="491" 
d="M106 235v-235h-10v525q32 0 61 1q30 1 51 1q191 0 191 -145q0 -52 -40.5 -92.5t-107.5 -52.5l209 -237h-13l-207 235h-134zM207 517q-31 0 -101 -2v-270h117q64 0 114 40q52 40 52 98q0 134 -182 134zM209 611h-4l-125 110l7 7l120 -106l118 106l8 -7z" />
    <glyph glyph-name="uniF697" unicode="&#xf697;" horiz-adv-x="491" 
d="M106 235v-235h-10v525q32 0 61 1q30 1 51 1q191 0 191 -145q0 -52 -40.5 -92.5t-107.5 -52.5l209 -237h-13l-207 235h-134zM207 517q-31 0 -101 -2v-270h117q64 0 114 40q52 40 52 98q0 134 -182 134zM237 -80l1 10q44 -5 44 -51q0 -32 -13.5 -49.5t-44.5 -29.5l-3 8
q51 20 51 67q0 40 -35 45z" />
    <glyph glyph-name="uniF698" unicode="&#xf698;" horiz-adv-x="454" 
d="M395 126q0 88 -117 124q-11 3 -36.5 11l-38 12t-35 13t-34.5 16t-27.5 18.5t-23.5 23t-14 28t-6 35.5q0 56 45 90t122 34q46 0 90 -14.5t65 -37.5l-6 -7q-49 49 -151 49q-70 0 -112.5 -31t-42.5 -82q0 -85 118 -121q108 -30 145 -51q71 -41 70 -110q0 -58 -50 -96
q-50 -36 -118 -36q-128 0 -190 68l8 7q65 -65 181 -65q61 0 110 32q48 33 48 90zM320 746l7 -6l-109 -141l-8 5z" />
    <glyph glyph-name="uniF699" unicode="&#xf699;" horiz-adv-x="454" 
d="M150 -180l4 9q38 -19 74 -19q40 0 65 16.5t25 43.5q0 60 -90 60h-6v64q-118 5 -174 68l8 7q65 -65 181 -65q61 0 110 32q48 33 48 90q0 88 -117 124q-11 3 -36.5 11l-38 12t-35 13t-34.5 16t-27.5 18.5t-23.5 23t-14 28t-6 35.5q0 56 45 90t122 34q46 0 90 -14.5
t65 -37.5l-6 -7q-49 49 -151 49q-70 0 -112.5 -31t-42.5 -82q0 -85 118 -121q108 -30 145 -51q71 -41 70 -110q0 -58 -50 -96q-50 -36 -118 -36h-6v-54q96 -2 96 -70q0 -31 -27.5 -50.5t-72.5 -19.5q-35 0 -78 20z" />
    <glyph glyph-name="uniF69A" unicode="&#xf69a;" horiz-adv-x="454" 
d="M395 126q0 88 -117 124q-11 3 -36.5 11l-38 12t-35 13t-34.5 16t-27.5 18.5t-23.5 23t-14 28t-6 35.5q0 56 45 90t122 34q46 0 90 -14.5t65 -37.5l-6 -7q-49 49 -151 49q-70 0 -112.5 -31t-42.5 -82q0 -85 118 -121q108 -30 145 -51q71 -41 70 -110q0 -58 -50 -96
q-50 -36 -118 -36q-128 0 -190 68l8 7q65 -65 181 -65q61 0 110 32q48 33 48 90zM225 728h4l133 -110l-7 -7l-128 106l-130 -106l-8 7z" />
    <glyph glyph-name="uniF69B" unicode="&#xf69b;" horiz-adv-x="454" 
d="M395 126q0 88 -117 124q-11 3 -36.5 11l-38 12t-35 13t-34.5 16t-27.5 18.5t-23.5 23t-14 28t-6 35.5q0 56 45 90t122 34q46 0 90 -14.5t65 -37.5l-6 -7q-49 49 -151 49q-70 0 -112.5 -31t-42.5 -82q0 -85 118 -121q108 -30 145 -51q71 -41 70 -110q0 -58 -50 -96
q-50 -36 -118 -36q-128 0 -190 68l8 7q65 -65 181 -65q61 0 110 32q48 33 48 90zM217 -80l1 10q44 -5 44 -51q0 -32 -13.5 -49.5t-44.5 -29.5l-3 8q51 20 51 67q0 40 -35 45z" />
    <glyph glyph-name="uniF69D" unicode="&#xf69d;" horiz-adv-x="472" 
d="M239 611h-4l-125 110l7 7l120 -106l118 106l8 -7zM231 515h-223v10h456v-10h-223v-515h-10v515z" />
    <glyph glyph-name="uniF69E" unicode="&#xf69e;" horiz-adv-x="472" 
d="M231 515h-223v10h456v-10h-223v-515h-10v515zM227 -80l1 10q44 -5 44 -51q0 -32 -13.5 -49.5t-44.5 -29.5l-3 8q51 20 51 67q0 40 -35 45z" />
    <glyph glyph-name="uniF69F" unicode="&#xf69f;" horiz-adv-x="602" 
d="M504 525h10v-304q0 -113 -59 -170q-59 -56 -147 -56q-98 0 -159 60t-61 171v299h10v-299q0 -104 59 -163q58 -58 151 -58q89 0 142.5 56t53.5 163v301zM173 714l7 6q55 -70 123 -70q65 0 120 70l7 -6q-56 -74 -127 -74q-80 0 -130 74z" />
    <glyph glyph-name="uniF6A0" unicode="&#xf6a0;" horiz-adv-x="602" 
d="M460 746l7 -6l-109 -141l-8 5zM320 746l7 -6l-109 -141l-8 5zM504 525h10v-304q0 -113 -59 -170q-59 -56 -147 -56q-98 0 -159 60t-61 171v299h10v-299q0 -104 59 -163q58 -58 151 -58q89 0 142.5 56t53.5 163v301z" />
    <glyph glyph-name="uniF6A1" unicode="&#xf6a1;" horiz-adv-x="602" 
d="M504 525h10v-304q0 -113 -59 -170q-59 -56 -147 -56q-98 0 -159 60t-61 171v299h10v-299q0 -104 59 -163q58 -58 151 -58q89 0 142.5 56t53.5 163v301zM418 680h-234v10h234v-10z" />
    <glyph glyph-name="uniF6A2" unicode="&#xf6a2;" horiz-adv-x="602" 
d="M504 525h10v-304q0 -85 -35 -139.5t-97 -75.5q-52 -28 -77 -54.5t-25 -61.5q0 -43 29 -61q29 -19 62 -19q29 0 48 9l3 -9q-23 -10 -52 -10q-38 0 -69 21t-31 69q0 67 82 109q-17 -4 -44 -4q-98 0 -159 60t-61 171v299h10v-299q0 -104 59 -163q58 -58 151 -58
q89 0 142.5 56t53.5 163v301z" />
    <glyph glyph-name="uniF6A3" unicode="&#xf6a3;" horiz-adv-x="602" 
d="M504 525h10v-304q0 -113 -59 -170q-59 -56 -147 -56q-98 0 -159 60t-61 171v299h10v-299q0 -104 59 -163q58 -58 151 -58q89 0 142.5 56t53.5 163v301zM236 590q-27 27 -27 65t27 65q27 28 65 28t65 -28q28 -27 28 -65t-28 -65q-27 -27 -65 -27t-65 27zM384 655
q0 35 -24 59t-59 24q-34 2 -58 -24.5t-24 -59t23 -58.5q26 -23 58.5 -23t59 24t24.5 58z" />
    <glyph glyph-name="uniF6AB" unicode="&#xf6ab;" horiz-adv-x="496" 
d="M439 515h-391v10h408v-3l-407 -512h415v-10h-432v3zM340 746l7 -6l-109 -141l-8 5z" />
    <glyph glyph-name="uniF6AC" unicode="&#xf6ac;" horiz-adv-x="496" 
d="M439 515h-391v10h408v-3l-407 -512h415v-10h-432v3zM236 673q0 8 8 11t13 -3q6 -5 3 -13t-11 -8q-13 0 -13 13z" />
    <glyph glyph-name="uniF6AD" unicode="&#xf6ad;" horiz-adv-x="248" 
d="M112 673q0 8 8 11t13 -3q6 -5 3 -13t-11 -8q-13 0 -13 13zM129 0h-10v525h10v-525z" />
    <glyph glyph-name="uniF6BA" unicode="&#xf6ba;" horiz-adv-x="414" 
d="M314 349h-214v10h214v-10z" />
    <glyph glyph-name="uniF6BB" unicode="&#xf6bb;" horiz-adv-x="584" 
d="M484 349h-384v10h384v-10z" />
    <glyph glyph-name="uniF6BC" unicode="&#xf6bc;" horiz-adv-x="784" 
d="M684 349h-584v10h584v-10z" />
    <glyph glyph-name="uniF6C3" unicode="&#xf6c3;" horiz-adv-x="181" 
d="M76 -80l1 10q44 -5 44 -51q0 -32 -13.5 -49.5t-44.5 -29.5l-3 8q51 20 51 67q0 40 -35 45z" />
    <glyph glyph-name="uniF6C9" unicode="&#xf6c9;" horiz-adv-x="279" 
d="M215 840l4 -8l-154 -90l-5 7z" />
    <glyph glyph-name="uniF6CA" unicode="&#xf6ca;" horiz-adv-x="453" 
d="M229 743h-4l-165 90l7 7l160 -87l158 87l8 -7z" />
    <glyph glyph-name="uniF6CB" unicode="&#xf6cb;" horiz-adv-x="379" 
d="M60 790q0 12 13 12q12 0 12 -12q0 -13 -12 -13q-13 0 -13 13zM294 790q0 12 13 12q12 0 12 -12q0 -13 -12 -13q-13 0 -13 13z" />
    <glyph glyph-name="uniF6CE" unicode="&#xf6ce;" horiz-adv-x="279" 
d="M219 749l-5 -7l-154 90l4 8z" />
    <glyph glyph-name="uniF6CF" unicode="&#xf6cf;" horiz-adv-x="449" 
d="M385 840l4 -8l-154 -90l-5 7zM215 840l4 -8l-154 -90l-5 7z" />
    <glyph glyph-name="uniF6D0" unicode="&#xf6d0;" horiz-adv-x="414" 
d="M354 790h-294v10h294v-10z" />
    <glyph glyph-name="uniF6D1" unicode="&#xf6d1;" horiz-adv-x="440" 
d="M60 840h10q56 -80 152 -80q48 0 91 23q43 24 57 57h10q-14 -38 -61 -64t-97 -26q-53 0 -98 25.5t-64 64.5z" />
    <glyph glyph-name="uniF6D4" unicode="&#xf6d4;" horiz-adv-x="360" 
d="M60 690h10q0 -45 30.5 -72.5t81.5 -27.5q48 0 78 28.5t30 71.5h10q0 -48 -33.5 -79t-84.5 -31q-54 0 -88 31t-34 79z" />
    <glyph glyph-name="uniF6DC" unicode="&#xf6dc;" horiz-adv-x="584" 
d="M175 580l-7 7l146 121h5v-708h-10v691z" />
    <glyph glyph-name="uniF6DE" unicode="&#xf6de;" horiz-adv-x="588" 
d="M513 265h-438v10h438v-10z" />
    <glyph glyph-name="uniF6F4" unicode="&#xf6f4;" horiz-adv-x="377" 
d="M60 714l7 6q55 -70 123 -70q65 0 120 70l7 -6q-56 -74 -127 -74q-80 0 -130 74z" />
    <glyph glyph-name="uniF6F5" unicode="&#xf6f5;" horiz-adv-x="373" 
d="M189 611h-4l-125 110l7 7l120 -106l118 106l8 -7z" />
    <glyph glyph-name="uniF6F6" unicode="&#xf6f6;" horiz-adv-x="393" 
d="M196 728h4l133 -110l-7 -7l-128 106l-130 -106l-8 7z" />
    <glyph glyph-name="uniF6F7" unicode="&#xf6f7;" horiz-adv-x="145" 
d="M60 673q0 8 8 11t13 -3q6 -5 3 -13t-11 -8q-13 0 -13 13z" />
    <glyph glyph-name="uniF6F8" unicode="&#xf6f8;" horiz-adv-x="377" 
d="M310 746l7 -6l-109 -141l-8 5zM170 746l7 -6l-109 -141l-8 5z" />
    <glyph glyph-name="uniF6F9" unicode="&#xf6f9;" horiz-adv-x="444" 
d="M96 220l-76 -41v12l76 40v294h10v-288l132 70v-11l-132 -71v-215h322v-10h-332v220z" />
    <glyph glyph-name="uniF6FA" unicode="&#xf6fa;" horiz-adv-x="848" 
d="M784 0h-308v35q-62 -41 -152 -41q-124 0 -200 73t-76 196q0 114 74 191q75 77 193 77q97 0 161 -42v36h300v-10h-290v-242h266v-10h-266v-253h298v-10zM324 4q90 0 152 45v429q-59 43 -160 43q-115 0 -187 -74q-71 -74 -71 -184q0 -118 73 -188q74 -71 193 -71z" />
    <glyph glyph-name="uniF6FB" unicode="&#xf6fb;" horiz-adv-x="272" 
d="M209 -181l3 -9q-23 -10 -52 -10q-38 0 -69 21t-31 69q0 52 46 86t103 34v-10q-53 0 -96 -31t-43 -79q0 -43 29 -61q29 -19 62 -19q29 0 48 9z" />
    <glyph glyph-name="uniF6FC" unicode="&#xf6fc;" horiz-adv-x="305" 
d="M87 590q27 -27 65 -27t65 27q28 27 28 65t-28 65q-27 28 -65 28t-65 -28q-27 -27 -27 -65t27 -65zM152 573q-34 -3 -58 23t-24 58.5t24 59.5q17 19 42 22.5t47.5 -5.5t37.5 -29.5t14 -46.5q0 -34 -24 -58t-59 -24z" />
    <glyph glyph-name="uniF6FD" unicode="&#xf6fd;" horiz-adv-x="454" 
d="M395 126q0 88 -117 124q-11 3 -36.5 11l-38 12t-35 13t-34.5 16t-27.5 18.5t-23.5 23t-14 28t-6 35.5q0 56 45 90t122 34q46 0 90 -14.5t65 -37.5l-6 -7q-49 49 -151 49q-70 0 -112.5 -31t-42.5 -82q0 -85 118 -121q108 -30 145 -51q71 -41 70 -110q0 -58 -50 -96
q-50 -36 -118 -36q-128 0 -190 68l8 7q65 -65 181 -65q61 0 110 32q48 33 48 90zM229 611h-4l-125 110l7 7l120 -106l118 106l8 -7z" />
    <glyph glyph-name="uniF6FE" unicode="&#xf6fe;" horiz-adv-x="399" 
d="M66 636l-6 7q50 41 87 41q25 0 56 -25q32 -24 52 -24q31 0 77 43l7 -7q-49 -46 -86 -46q-23 0 -54 24q-31 25 -55 25q-31 0 -78 -38z" />
    <glyph glyph-name="uniF6FF" unicode="&#xf6ff;" horiz-adv-x="496" 
d="M249 611h-4l-125 110l7 7l120 -106l118 106l8 -7zM439 515h-391v10h408v-3l-407 -512h415v-10h-432v3z" />
    <glyph glyph-name="uniF730" unicode="&#xf730;" horiz-adv-x="620" 
d="M129 68q-69 76 -69 182t69 182t181 76t181 -76t69 -182t-69 -182t-181 -76t-181 76zM136 425q-66 -73 -66 -175t66 -175t174 -73t174 73t66 175t-66 175t-174 73t-174 -73z" />
    <glyph glyph-name="uniF731" unicode="&#xf731;" horiz-adv-x="361" 
d="M67 380l-7 7l146 121h5v-508h-10v491z" />
    <glyph glyph-name="uniF732" unicode="&#xf732;" horiz-adv-x="532" 
d="M462 0h-402v10q101 40 181 91q51 32 89 67q88 84 88 172q0 74 -42.5 116.5t-121.5 42.5q-60 0 -112 -37q-51 -37 -61 -112h-10q7 76 63 117q56 42 117 42q87 0 132 -46t45 -124q0 -48 -28 -97.5t-72 -87.5t-93 -67q-78 -48 -154 -77h381v-10z" />
    <glyph glyph-name="uniF733" unicode="&#xf733;" horiz-adv-x="535" 
d="M253 -208q-67 0 -118 30.5t-75 93.5l9 4q24 -59 74 -88.5t114 -29.5q84 0 136 52t52 133q0 73 -49 119q-49 47 -117 47h-67v10h60q55 0 100 51q46 50 46 122q0 77 -44 119.5t-120 42.5q-126 0 -166 -111l-9 2q16 54 63.5 86.5t110.5 32.5q83 0 129 -46t46 -129
q0 -53 -31 -102q-30 -49 -83 -69v-3q63 -7 102 -59q39 -50 39 -113q0 -89 -57 -141q-57 -54 -145 -54z" />
    <glyph glyph-name="uniF734" unicode="&#xf734;" horiz-adv-x="520" 
d="M368 -200h-10v200h-328v2l330 498h12l-325 -490h311v240h10v-240h112v-10h-112v-200z" />
    <glyph glyph-name="uniF735" unicode="&#xf735;" horiz-adv-x="521" 
d="M135 188l40 312h286v-10h-278l-37 -288q45 14 88 14q98 0 160 -57t62 -149q0 -97 -60 -157q-58 -61 -140 -61q-136 0 -196 118l9 4q28 -54 79 -83t108 -29q80 0 135 60q55 58 55 148q0 84 -59 140t-152 56q-51 0 -100 -18z" />
    <glyph glyph-name="uniF736" unicode="&#xf736;" horiz-adv-x="544" 
d="M60 248q0 91 29 174t78 141q100 120 225 145l5 -8q-115 -25 -210 -127q-100 -112 -117 -294q22 65 77 106t130 41q95 0 151 -60q56 -61 56 -157q0 -88 -59 -153q-58 -64 -137 -64q-112 0 -170 73t-58 183zM70 249q0 -100 56 -174q55 -73 160 -73q76 0 132 60
q56 62 56 146q0 91 -52 149q-53 59 -146 59q-83 0 -138 -52q-54 -51 -68 -115z" />
    <glyph glyph-name="uniF737" unicode="&#xf737;" horiz-adv-x="460" 
d="M405 490h-365v10h380v-2l-279 -698h-12z" />
    <glyph glyph-name="uniF738" unicode="&#xf738;" horiz-adv-x="585" 
d="M273 365h39q56 0 106 48t50 117q0 77 -54 122q-52 46 -123 46q-70 0 -122 -46q-52 -45 -52 -122q0 -69 49 -117q50 -48 107 -48zM310 355h-32q-78 0 -133 -51t-55 -123q0 -77 60 -128q62 -51 142 -51q83 0 142 49q61 49 61 130q0 79 -54 126q-54 48 -131 48zM80 181
q0 62 42 113q43 51 115 64v3q-55 13 -93 63q-37 49 -37 103q0 81 53 131q55 50 132 50q78 0 132 -51q54 -49 54 -130q0 -54 -35.5 -100.5t-94.5 -64.5v-3q70 -8 113 -57q44 -50 44 -121q0 -85 -64 -137q-62 -52 -148 -52q-85 0 -149 52t-64 137z" />
    <glyph glyph-name="uniF739" unicode="&#xf739;" horiz-adv-x="544" 
d="M484 252q0 -188 -93 -313q-93 -124 -239 -147l-5 8q138 22 228 135q90 111 99 286q-21 -62 -76 -99.5t-131 -37.5q-94 0 -151 62q-56 62 -56 150t63 150q64 62 143 62q110 0 164 -73q54 -72 54 -183zM474 251q0 104 -52 175q-51 72 -154 72q-76 0 -138 -59
q-60 -59 -60 -142q0 -84 52 -143q52 -60 146 -60q83 0 138 47q54 47 68 110z" />
    <glyph glyph-name="uniF760" unicode="&#xf760;" horiz-adv-x="237" 
d="M177 604l-8 -5l-109 141l7 6z" />
    <glyph glyph-name="uniF761" unicode="&#xf761;" horiz-adv-x="549" 
d="M35 0h-11l249 531h4l248 -531h-11l-97 206h-286zM413 215l-139 298l-139 -298h278z" />
    <glyph glyph-name="uniF762" unicode="&#xf762;" horiz-adv-x="494" 
d="M96 0v525q31 0 64 1q34 1 74 1q172 0 172 -129q0 -53 -36 -86.5t-91 -39.5v-1q151 -12 151 -129q0 -72 -51 -108t-143 -36q-41 0 -75 1q-33 1 -65 1zM236 265h-130v-255q28 0 59 -1t69 -1q89 0 137.5 34.5t48.5 100.5q0 58 -47.5 90t-136.5 32zM233 517q-57 0 -127 -2
v-240h136q66 0 109 34q45 35 45 89q0 119 -163 119z" />
    <glyph glyph-name="uniF763" unicode="&#xf763;" horiz-adv-x="526" 
d="M489 58l5 -8q-65 -56 -170 -56q-124 0 -200 73t-76 196q0 114 74 191q75 77 193 77q102 0 169 -47l-7 -7q-59 44 -161 44q-115 0 -187 -74q-71 -74 -71 -184q0 -118 73 -188q74 -71 193 -71q98 0 165 54z" />
    <glyph glyph-name="uniF764" unicode="&#xf764;" horiz-adv-x="588" 
d="M100 0h-4v525h8q13 0 57 1t65 1q159 0 236 -73q78 -72 78 -183q0 -120 -84 -196q-83 -77 -237 -77q-36 0 -61 1t-58 1zM224 517q-20 0 -64 -1t-54 -1v-505l114 -2q149 0 229 74q81 75 81 189q0 108 -76 177q-75 69 -230 69z" />
    <glyph glyph-name="uniF765" unicode="&#xf765;" horiz-adv-x="469" 
d="M405 0h-309v525h301v-10h-291v-242h267v-10h-267v-253h299v-10z" />
    <glyph glyph-name="uniF766" unicode="&#xf766;" horiz-adv-x="436" 
d="M106 0h-10v525h308v-10h-298v-257h274v-10h-274v-248z" />
    <glyph glyph-name="uniF767" unicode="&#xf767;" horiz-adv-x="582" 
d="M516 226h-182v10h192v-171q-33 -32 -95 -52q-57 -19 -114 -19q-120 0 -194 73q-75 73 -75 196q0 114 74 191q75 77 193 77q102 0 169 -47l-7 -8q-58 45 -161 45q-115 0 -187 -74q-71 -74 -71 -184q0 -118 72 -188q73 -71 188 -71q56 0 111 18t87 48v156z" />
    <glyph glyph-name="uniF768" unicode="&#xf768;" horiz-adv-x="621" 
d="M525 0h-10v263h-409v-263h-10v525h10v-252h409v252h10v-525z" />
    <glyph glyph-name="uniF769" unicode="&#xf769;" horiz-adv-x="248" 
d="M129 0h-10v525h10v-525z" />
    <glyph glyph-name="uniF76A" unicode="&#xf76a;" horiz-adv-x="274" 
d="M168 525h10v-414q0 -59 -22 -88t-75 -29q-39 0 -65 19l5 9q26 -18 59 -18q49 0 68.5 26t19.5 80v415z" />
    <glyph glyph-name="uniF76B" unicode="&#xf76b;" horiz-adv-x="492" 
d="M439 525h15l-289 -251l297 -274h-15l-296 274zM106 0h-10v525h10v-525z" />
    <glyph glyph-name="uniF76C" unicode="&#xf76c;" horiz-adv-x="444" 
d="M428 0h-332v525h10v-515h322v-10z" />
    <glyph glyph-name="uniF76D" unicode="&#xf76d;" horiz-adv-x="699" 
d="M106 0h-10v525h11l247 -314l238 314h11v-525h-10v511l-239 -315h-2l-246 312v-508z" />
    <glyph glyph-name="uniF76E" unicode="&#xf76e;" 
d="M545 525v-525h-8l-431 506v-506h-10v525h8l431 -507v507h10z" />
    <glyph glyph-name="uniF76F" unicode="&#xf76f;" horiz-adv-x="644" 
d="M48 263q0 115 79 191q80 77 195 77t195 -77q79 -76 79 -191q0 -116 -79 -192q-80 -77 -195 -77t-195 77q-79 76 -79 192zM58 263q0 -112 76 -185q77 -74 188 -74q112 0 188 74q76 73 76 185q0 111 -76 184q-77 74 -188 74t-188 -74q-76 -73 -76 -184z" />
    <glyph glyph-name="uniF770" unicode="&#xf770;" horiz-adv-x="455" 
d="M106 224v-224h-10v525q31 0 62 1t60 1q102 0 146 -44q43 -43 43 -108q0 -69 -50 -112t-146 -43q-40 0 -105 4zM219 517q-43 0 -113 -2v-281q64 -4 104 -4q90 0 138.5 39.5t48.5 105.5t-44.5 104t-133.5 38z" />
    <glyph glyph-name="uniF771" unicode="&#xf771;" horiz-adv-x="644" 
d="M48 263q0 115 79 191q80 77 195 77t195 -77q79 -76 79 -191q0 -129 -98 -209l48 -54h-14l-42 48q-74 -54 -168 -54q-115 0 -195 77q-79 76 -79 192zM58 263q0 -112 76 -185q77 -74 188 -74q90 0 161 51l-49 57l7 7l50 -58q95 77 95 202q0 111 -76 184q-77 74 -188 74
t-188 -74q-76 -73 -76 -184z" />
    <glyph glyph-name="uniF772" unicode="&#xf772;" horiz-adv-x="491" 
d="M106 235v-235h-10v525q32 0 61 1q30 1 51 1q191 0 191 -145q0 -52 -40.5 -92.5t-107.5 -52.5l209 -237h-13l-207 235h-134zM207 517q-31 0 -101 -2v-270h117q64 0 114 40q52 40 52 98q0 134 -182 134z" />
    <glyph glyph-name="uniF773" unicode="&#xf773;" horiz-adv-x="454" 
d="M395 126q0 88 -117 124q-11 3 -36.5 11l-38 12t-35 13t-34.5 16t-27.5 18.5t-23.5 23t-14 28t-6 35.5q0 56 45 90t122 34q46 0 90 -14.5t65 -37.5l-6 -7q-49 49 -151 49q-70 0 -112.5 -31t-42.5 -82q0 -85 118 -121q108 -30 145 -51q71 -41 70 -110q0 -58 -50 -96
q-50 -36 -118 -36q-128 0 -190 68l8 7q65 -65 181 -65q61 0 110 32q48 33 48 90z" />
    <glyph glyph-name="uniF774" unicode="&#xf774;" horiz-adv-x="472" 
d="M231 515h-223v10h456v-10h-223v-515h-10v515z" />
    <glyph glyph-name="uniF775" unicode="&#xf775;" horiz-adv-x="602" 
d="M504 525h10v-304q0 -113 -59 -170q-59 -56 -147 -56q-98 0 -159 60t-61 171v299h10v-299q0 -104 59 -163q58 -58 151 -58q89 0 142.5 56t53.5 163v301z" />
    <glyph glyph-name="uniF776" unicode="&#xf776;" horiz-adv-x="526" 
d="M499 525h11l-242 -531h-4l-248 531h11l239 -514z" />
    <glyph glyph-name="uniF777" unicode="&#xf777;" horiz-adv-x="753" 
d="M727 525h10l-165 -525h-5l-189 503l-184 -503h-5l-173 525h11l165 -499l184 499h5l188 -500z" />
    <glyph glyph-name="uniF778" unicode="&#xf778;" horiz-adv-x="523" 
d="M472 525h12l-216 -258l224 -267h-13l-218 259l-217 -259h-13l224 267l-215 258h13l208 -249z" />
    <glyph glyph-name="uniF779" unicode="&#xf779;" horiz-adv-x="445" 
d="M417 525h12l-202 -289v-236h-10v236l-201 289h13l193 -279z" />
    <glyph glyph-name="uniF77A" unicode="&#xf77a;" horiz-adv-x="496" 
d="M439 515h-391v10h408v-3l-407 -512h415v-10h-432v3z" />
    <glyph glyph-name="uniF7A8" unicode="&#xf7a8;" horiz-adv-x="319" 
d="M60 671q0 8 8 11t13 -3q6 -5 3 -13t-11 -8q-13 0 -13 13zM234 671q0 8 8 11t13 -3q6 -5 3 -13t-11 -8q-13 0 -13 13z" />
    <glyph glyph-name="uniF7AF" unicode="&#xf7af;" horiz-adv-x="354" 
d="M294 680h-234v10h234v-10z" />
    <glyph glyph-name="uniF7B4" unicode="&#xf7b4;" horiz-adv-x="237" 
d="M170 746l7 -6l-109 -141l-8 5z" />
    <glyph glyph-name="uniF7B8" unicode="&#xf7b8;" horiz-adv-x="298" 
d="M60 -180l4 9q38 -19 74 -19q40 0 65 16.5t25 43.5q0 60 -90 60h-6v70h10v-60q96 -2 96 -70q0 -31 -27.5 -50.5t-72.5 -19.5q-35 0 -78 20z" />
    <glyph glyph-name="uniF7E0" unicode="&#xf7e0;" horiz-adv-x="549" 
d="M35 0h-11l249 531h4l248 -531h-11l-97 206h-286zM413 215l-139 298l-139 -298h278zM307 604l-8 -5l-109 141l7 6z" />
    <glyph glyph-name="uniF7E1" unicode="&#xf7e1;" horiz-adv-x="549" 
d="M35 0h-11l249 531h4l248 -531h-11l-97 206h-286zM413 215l-139 298l-139 -298h278zM360 746l7 -6l-109 -141l-8 5z" />
    <glyph glyph-name="uniF7E2" unicode="&#xf7e2;" horiz-adv-x="549" 
d="M35 0h-11l249 531h4l248 -531h-11l-97 206h-286zM413 215l-139 298l-139 -298h278zM274 728h4l133 -110l-7 -7l-128 106l-130 -106l-8 7z" />
    <glyph glyph-name="uniF7E3" unicode="&#xf7e3;" horiz-adv-x="549" 
d="M35 0h-11l249 531h4l248 -531h-11l-97 206h-286zM413 215l-139 298l-139 -298h278zM141 636l-6 7q50 41 87 41q25 0 56 -25q31 -24 52 -24q31 0 77 43l7 -7q-49 -46 -86 -46q-22 0 -54 24q-31 25 -55 25q-31 0 -78 -38z" />
    <glyph glyph-name="uniF7E4" unicode="&#xf7e4;" horiz-adv-x="549" 
d="M35 0h-11l249 531h4l248 -531h-11l-97 206h-286zM413 215l-139 298l-139 -298h278zM175 671q0 12 13 12q11 0 11.5 -12.5t-11.5 -12.5q-13 0 -13 13zM349 671q0 12 13 12q11 0 11.5 -12.5t-11.5 -12.5q-13 0 -13 13z" />
    <glyph glyph-name="uniF7E5" unicode="&#xf7e5;" horiz-adv-x="549" 
d="M24 0h11l96 206h286l97 -206h11l-248 531h-4zM274 513l139 -298h-278zM209 590q27 -27 65 -27t65 27q28 27 28 65t-28 65q-27 28 -65 28t-65 -28q-27 -27 -27 -65t27 -65zM274 573q-34 -3 -58 23t-24 58.5t24 59.5q17 19 42 22.5t47.5 -5.5t37.5 -29.5t14 -46.5
q0 -34 -24 -58t-59 -24z" />
    <glyph glyph-name="uniF7E6" unicode="&#xf7e6;" horiz-adv-x="780" 
d="M716 0h-308v211h-228l-161 -211h-12l169 221l233 304h299v-10h-290v-242h266v-10h-266v-253h298v-10zM408 221v287l-220 -287h220z" />
    <glyph glyph-name="uniF7E7" unicode="&#xf7e7;" horiz-adv-x="526" 
d="M220 -180l4 9q38 -19 74 -19q40 0 65 16.5t25 43.5q0 60 -90 60h-6v66q-110 9 -178 81q-66 72 -66 186t74 191q75 77 193 77q102 0 169 -47l-7 -7q-59 44 -161 44q-115 0 -187 -74q-71 -74 -71 -184q0 -118 73 -188q74 -71 193 -71q98 0 165 54l5 -8q-65 -56 -170 -56
q-17 0 -22 1v-55q96 -2 96 -70q0 -31 -27.5 -50.5t-72.5 -19.5q-35 0 -78 20z" />
    <glyph glyph-name="uniF7E8" unicode="&#xf7e8;" horiz-adv-x="469" 
d="M405 0h-309v525h301v-10h-291v-242h267v-10h-267v-253h299v-10zM277 604l-8 -5l-109 141l7 6z" />
    <glyph glyph-name="uniF7E9" unicode="&#xf7e9;" horiz-adv-x="469" 
d="M405 0h-309v525h301v-10h-291v-242h267v-10h-267v-253h299v-10zM340 746l7 -6l-109 -141l-8 5z" />
    <glyph glyph-name="uniF7EA" unicode="&#xf7ea;" horiz-adv-x="469" 
d="M250 728h4l133 -110l-7 -7l-128 106l-130 -106l-8 7zM405 0h-309v525h301v-10h-291v-242h267v-10h-267v-253h299v-10z" />
    <glyph glyph-name="uniF7EB" unicode="&#xf7eb;" horiz-adv-x="469" 
d="M405 0h-309v525h301v-10h-291v-242h267v-10h-267v-253h299v-10zM141 671q0 12 13 12q11 0 11.5 -12.5t-11.5 -12.5q-13 0 -13 13zM315 671q0 12 13 12q11 0 11.5 -12.5t-11.5 -12.5q-13 0 -13 13z" />
    <glyph glyph-name="uniF7EC" unicode="&#xf7ec;" horiz-adv-x="248" 
d="M147 604l-8 -5l-109 141l7 6zM129 0h-10v525h10v-525z" />
    <glyph glyph-name="uniF7ED" unicode="&#xf7ed;" horiz-adv-x="248" 
d="M220 746l7 -6l-109 -141l-8 5zM129 0h-10v525h10v-525z" />
    <glyph glyph-name="uniF7EE" unicode="&#xf7ee;" horiz-adv-x="248" 
d="M124 728h4l133 -110l-7 -7l-128 106l-130 -106l-8 7zM129 0h-10v525h10v-525z" />
    <glyph glyph-name="uniF7EF" unicode="&#xf7ef;" horiz-adv-x="248" 
d="M129 0h-10v525h10v-525zM25 671q0 12 13 12q11 0 11.5 -12.5t-11.5 -12.5q-13 0 -13 13zM199 671q0 12 13 12q11 0 11.5 -12.5t-11.5 -12.5q-13 0 -13 13z" />
    <glyph glyph-name="uniF7F0" unicode="&#xf7f0;" horiz-adv-x="611" 
d="M119 265h-111v10h111v250h8q13 0 57.5 1t64.5 1q159 0 236 -73q78 -72 78 -183q0 -120 -84 -196q-83 -77 -237 -77q-36 0 -61 1t-58 1h-4v265zM247 517q-20 0 -63.5 -1t-54.5 -1v-240h170v-10h-170v-255l114 -2q149 0 229 74q81 75 81 189q0 108 -76 177q-75 69 -230 69z
" />
    <glyph glyph-name="uniF7F1" unicode="&#xf7f1;" 
d="M545 525v-525h-8l-431 506v-506h-10v525h8l431 -507v507h10zM186 636l-6 7q50 41 87 41q25 0 56 -25q31 -24 52 -24q31 0 77 43l7 -7q-49 -46 -86 -46q-23 0 -54 24q-31 25 -55 25q-31 0 -78 -38z" />
    <glyph glyph-name="uniF7F2" unicode="&#xf7f2;" horiz-adv-x="644" 
d="M48 263q0 115 79 191q80 77 195 77t195 -77q79 -76 79 -191q0 -116 -79 -192q-80 -77 -195 -77t-195 77q-79 76 -79 192zM58 263q0 -112 76 -185q77 -74 188 -74q112 0 188 74q76 73 76 185q0 111 -76 184q-77 74 -188 74t-188 -74q-76 -73 -76 -184zM347 604l-8 -5
l-109 141l7 6z" />
    <glyph glyph-name="uniF7F3" unicode="&#xf7f3;" horiz-adv-x="644" 
d="M48 263q0 115 79 191q80 77 195 77t195 -77q79 -76 79 -191q0 -116 -79 -192q-80 -77 -195 -77t-195 77q-79 76 -79 192zM58 263q0 -112 76 -185q77 -74 188 -74q112 0 188 74q76 73 76 185q0 111 -76 184q-77 74 -188 74t-188 -74q-76 -73 -76 -184zM410 746l7 -6
l-109 -141l-8 5z" />
    <glyph glyph-name="uniF7F4" unicode="&#xf7f4;" horiz-adv-x="644" 
d="M322 728h4l133 -110l-7 -7l-128 106l-130 -106l-8 7zM48 263q0 115 79 191q80 77 195 77t195 -77q79 -76 79 -191q0 -116 -79 -192q-80 -77 -195 -77t-195 77q-79 76 -79 192zM58 263q0 -112 76 -185q77 -74 188 -74q112 0 188 74q76 73 76 185q0 111 -76 184
q-77 74 -188 74t-188 -74q-76 -73 -76 -184z" />
    <glyph glyph-name="uniF7F5" unicode="&#xf7f5;" horiz-adv-x="644" 
d="M48 263q0 115 79 191q80 77 195 77t195 -77q79 -76 79 -191q0 -116 -79 -192q-80 -77 -195 -77t-195 77q-79 76 -79 192zM58 263q0 -112 76 -185q77 -74 188 -74q112 0 188 74q76 73 76 185q0 111 -76 184q-77 74 -188 74t-188 -74q-76 -73 -76 -184zM189 636l-6 7
q50 41 87 41q25 0 56 -25q32 -24 52 -24q31 0 77 43l7 -7q-49 -46 -86 -46q-22 0 -54 24q-31 25 -55 25q-31 0 -78 -38z" />
    <glyph glyph-name="uniF7F6" unicode="&#xf7f6;" horiz-adv-x="644" 
d="M48 263q0 115 79 191q80 77 195 77t195 -77q79 -76 79 -191q0 -116 -79 -192q-80 -77 -195 -77t-195 77q-79 76 -79 192zM58 263q0 -112 76 -185q77 -74 188 -74q112 0 188 74q76 73 76 185q0 111 -76 184q-77 74 -188 74t-188 -74q-76 -73 -76 -184zM223 671q0 12 13 12
q11 0 11.5 -12.5t-11.5 -12.5q-13 0 -13 13zM397 671q0 12 13 12q11 0 11.5 -12.5t-11.5 -12.5q-13 0 -13 13z" />
    <glyph glyph-name="uniF7F8" unicode="&#xf7f8;" horiz-adv-x="644" 
d="M48 263q0 115 79 191q80 77 195 77q120 0 201 -83l67 65l6 -6l-67 -66q67 -74 67 -178q0 -116 -79 -192q-80 -77 -195 -77q-106 0 -183 66l-63 -61l-7 7l62 61q-83 78 -83 196zM58 263q0 -115 80 -189l378 367q-78 80 -194 80q-111 0 -188 -74q-76 -73 -76 -184zM586 263
q0 100 -64 171l-376 -367q72 -63 176 -63q112 0 188 74q76 73 76 185z" />
    <glyph glyph-name="uniF7F9" unicode="&#xf7f9;" horiz-adv-x="602" 
d="M504 525h10v-304q0 -113 -59 -170q-59 -56 -147 -56q-98 0 -159 60t-61 171v299h10v-299q0 -104 59 -163q58 -58 151 -58q89 0 142.5 56t53.5 163v301zM327 604l-8 -5l-109 141l7 6z" />
    <glyph glyph-name="uniF7FA" unicode="&#xf7fa;" horiz-adv-x="602" 
d="M504 525h10v-304q0 -113 -59 -170q-59 -56 -147 -56q-98 0 -159 60t-61 171v299h10v-299q0 -104 59 -163q58 -58 151 -58q89 0 142.5 56t53.5 163v301zM380 746l7 -6l-109 -141l-8 5z" />
    <glyph glyph-name="uniF7FB" unicode="&#xf7fb;" horiz-adv-x="602" 
d="M301 728h4l133 -110l-7 -7l-128 106l-130 -106l-8 7zM504 525h10v-304q0 -113 -59 -170q-59 -56 -147 -56q-98 0 -159 60t-61 171v299h10v-299q0 -104 59 -163q58 -58 151 -58q89 0 142.5 56t53.5 163v301z" />
    <glyph glyph-name="uniF7FC" unicode="&#xf7fc;" horiz-adv-x="602" 
d="M504 525h10v-304q0 -113 -59 -170q-59 -56 -147 -56q-98 0 -159 60t-61 171v299h10v-299q0 -104 59 -163q58 -58 151 -58q89 0 142.5 56t53.5 163v301zM202 671q0 8 8 11t13 -3q6 -5 3 -13t-11 -8q-13 0 -13 13zM376 671q0 8 8 11t13 -3q6 -5 3 -13t-11 -8q-13 0 -13 13z
" />
    <glyph glyph-name="uniF7FD" unicode="&#xf7fd;" horiz-adv-x="445" 
d="M417 525h12l-202 -289v-236h-10v236l-201 289h13l193 -279zM320 746l7 -6l-109 -141l-8 5z" />
    <glyph glyph-name="uniF7FE" unicode="&#xf7fe;" horiz-adv-x="455" 
d="M106 142v-142h-10v525h10v-82h60q28 1 52 1q102 0 146 -44q43 -43 43 -108q0 -69 -50 -111.5t-146 -42.5q-61 0 -105 4zM219 434q-96 0 -113 -1v-281q43 -4 104 -4q90 0 138.5 39.5t48.5 105.5t-44.5 103.5t-133.5 37.5z" />
    <glyph glyph-name="uniF7FF" unicode="&#xf7ff;" horiz-adv-x="445" 
d="M417 525h12l-202 -289v-236h-10v236l-201 289h13l193 -279zM123 671q0 12 13 12q11 0 11.5 -12.5t-11.5 -12.5q-13 0 -13 13zM297 671q0 12 13 12q11 0 11.5 -12.5t-11.5 -12.5q-13 0 -13 13z" />
    <glyph glyph-name="NULL" horiz-adv-x="0" 
 />
    <glyph glyph-name="CR" horiz-adv-x="333" 
 />
    </font>
</defs>
</svg>
