<svg id="Objects" xmlns="http://www.w3.org/2000/svg" viewBox="0 0 725.1 220.2"><style>.st0{fill:#7a7c8a}</style><path class="st0" d="M26.7 93.1c4.9 8.5 9.8 12 17 14.5 7.1 2.5 19.4-1.1 19.4-1.1-6.7-8.2-12.6-12-22.7-12.5-5.2-.3-8.6 2.1-13.7-.9zm19.1 18.5c5.4 2.4 8.5-.4 13.7-.7 10.1-.6 16.2 2.5 23.7 9.9 0 0-11.8 4.9-19.1 3.3-7.3-1.7-12.6-4.6-18.3-12.5zM23.2 74.9c10 1.7 15.5 6.1 21.3 15 0 0-12.6 2.2-19.5-1.1-7-3.2-11.5-7.3-15.5-16.4 4.8 3.7 8.4 1.6 13.7 2.5zm66 66.7c5.8 1.1 8.2-2.3 13.2-3.7 9.7-2.7 16.4-1.1 25.3 4.5 0 0-10.5 7.4-18 7.3-7.5 0-13.2-1.7-20.5-8.1zM28 71.4s-10.6.7-16-2.6S3.2 61.9.5 54.1c10.8 8.4 19.8 1.1 27.5 17.3zm58.3 66.7c-7.5-.9-13-3.1-19.5-10.3 5.7 1.8 8.4-1.3 13.5-2.2 9.9-1.7 16.4.7 24.6 7.2 0 0-11.2 6.2-18.6 5.3zm19.1-26.5c8.2 1.9 12.1 4.7 16.5 9.7 4.4 5.1 7.2 17.2 7.2 17.2-22.1-2.6-13.9-14.9-23.7-26.9zm-19.9 5.7c-21.1-7.4-10.3-17.6-17.4-31.4 7.6 3.6 10.8 7.2 14.1 13.1 3.2 5.8 3.3 18.3 3.3 18.3z"/><path class="st0" d="M101.4 111.2c3.8 5.5 5.3 17.9 5.3 17.9-21.7-5-12.1-16.3-20.6-29.3 8 2.7 11.5 5.9 15.3 11.4zM51.6 70c7.2 4.5 10.1 8.4 12.6 14.6 2.6 6.2 1.4 18.7 1.4 18.7-20.2-9.7-8.4-18.8-14-33.3zm-27-30.8c5.3 5 7 8.8 8.1 14.4 1.1 5.6-2 15.6-2 15.6-14.6-11.2-4.2-17-6.1-30zm12.3 13c6.7 5.3 9.1 9.6 11.1 16.1 1.9 6.5-.6 18.8-.6 18.8-19.2-12-6.5-19.7-10.5-34.9zm-26.3 1c-8.6-5-8.7-11-9.1-19.7-.2-4.2-1.4-10-1.4-10s4.9 5.2 7.1 6.9c6.7 5.4 11.4 7.6 12.1 17.2.4 5.5-.8 8.1-.8 8.1s-2.9.4-7.9-2.5zM100.8 182s-8.2 6.2-14.2 6.4c-6.1.2-10.8-1-16.9-6 13 1.3 16.5-9.3 31.1-.4zm19.3 5s-7.4 7.1-13.4 7.9c-6 .9-10.8.2-17.3-4.1 13-.2 15.3-11.1 30.7-3.8zm-38-12s-8.8 5.3-14.9 4.8-10.7-2.2-16.3-7.9c12.8 2.8 17.6-7.4 31.2 3.1zm77.5 15.5s-5.7 8.5-11.4 10.6c-5.7 2.1-10.5 2.5-17.7-.2 12.7-3.1 12.5-14.2 29.1-10.4zm-95.1-24.7s-7.8 3.6-12.8 2.6c-5-.9-8.6-2.7-12.8-7.7 10.6 2.5 15.6-4.9 25.6 5.1zm75.3 24s-6.6 7.9-12.5 9.3c-5.9 1.5-10.7 1.4-17.6-2.2 12.9-1.6 13.9-12.7 30.1-7.1z"/><path class="st0" d="M149.2 176.3c4.8 2.5 10.3 10.9 10.3 10.9-16.9 4.5-15.1-6.9-25.5-13.4 6.8-1 10.5 0 15.2 2.5zm-50.5-11.2c6.8.5 10.2 2.3 14.3 5.8 4.1 3.5 7.8 12.8 7.8 12.8-17.6.8-13.3-9.9-22.1-18.6zm17.5 5.3c6.8-.2 10.3 1.2 14.8 4.2s9.1 11.9 9.1 11.9c-17.3 2.7-14.3-8.5-23.9-16.1zm-34.4-12.5c6.7 1.3 9.9 3.4 13.7 7.3 3.7 3.9 6.4 13.6 6.4 13.6-17.7-1.1-12.3-11.3-20.1-20.9zm-29.1-15.3c5.4 2.3 7.8 4.6 10.2 8.5 2.5 3.9 3 12.3 3 12.3-13.8-3.8-8.8-11.5-13.2-20.8zm12.9 6.2c6.6 2.1 9.6 4.5 12.9 8.9 3.3 4.3 4.9 14.3 4.9 14.3-17.4-3.2-10.9-12.8-17.8-23.2zm-14.5 1.6c1.9 4 1.7 6.3 1.7 6.3s-2.1 1.1-6.6.4c-7.9-1.3-9.7-5.7-12.5-12.2-1.3-3.1-3.9-7.1-3.9-7.1s5.2 2.5 7.3 3.1c6.5 2.2 10.7 2.6 14 9.5z"/><path class="st0" d="M151.6 202.5c7.6-1.8 7-10.7 15.8-13.9-9.3-2-8.7-11.3-15.2-13.4 6.5-1.7 10.3-1.1 15.4.9 3.6 1.4 8.4 6.7 10.9 9.4 20-2.7 38.2-7.7 55.8-15.6-2.6.4-5.1.7-7.7.9-4.7.5-9.2.8-13.7.9-4.4.1-8.7.1-12.8 0-4.1-.2-8-.4-11.7-.8-3.7-.4-7.2-.8-10.5-1.3-6.6-1-12.2-2.2-16.8-3.2-2.3-.5-4.4-1-6.1-1.5-1.8-.5-3.3-.9-4.5-1.2-2.4-.7-3.7-1.1-3.7-1.1s1.3.2 3.8.7c1.2.2 2.8.5 4.6.8 1.8.3 3.9.6 6.2 1 4.7.7 10.3 1.4 16.9 1.9 3.3.2 6.7.4 10.4.5 3.7.1 7.5.2 11.5.1s8.2-.3 12.5-.7c4.3-.3 8.7-.8 13.3-1.5 4.5-.6 9.2-1.5 13.9-2.5 4.7-1 9.5-2.1 14.3-3.4.3-.1.6-.2.8-.2.3-.2.6-.3.9-.5-.2.2-.5.3-.7.5 9.3-2.5 18.9-5.6 28.6-8.8 10.1-3.3 20.6-6.5 31.4-8.7 10.8-2.2 21.8-3.5 32.8-3.2 5.5.2 11 .8 16.3 2.1 5.3 1.2 10.5 3.1 15.2 5.8 4.7 2.6 8.9 6.1 12.3 10 1.7 2 3.2 4 4.5 6.2 1.3 2.2 2.5 4.3 3.4 6.6.5 1.1.9 2.2 1.4 3.3.4 1.1.8 2.2 1.1 3.4.7 2.4 1 4.8 1 7.2.1 4.7-.7 9.1-2.2 13.1-2.9 8.1-8.3 14.2-14 17.9a35.3 35.3 0 0 1-8.6 4.1c-2.8.9-5.4 1.4-7.8 1.7-4.8.5-8.5.2-11 0-1.3-.1-2.2-.3-2.9-.4-.6-.1-1-.2-1-.2s.3 0 1 .1c.7 0 1.6.1 2.9.1 2.5 0 6.2 0 10.8-.9 4.6-.8 10-2.7 15.1-6.5 2.5-1.9 4.9-4.3 7-7.2 2-2.9 3.7-6.2 4.8-9.9 1.1-3.7 1.7-7.7 1.4-11.7-.1-2-.5-4.1-1.1-5.9-.3-1-.8-2-1.2-3-.5-1-.9-2-1.4-3-.9-2-2.1-3.9-3.3-5.8-1.3-1.9-2.7-3.6-4.2-5.3-3.1-3.3-6.9-6.1-11-8.3-8.4-4.5-18.4-6.2-28.7-6.4-10.3-.2-20.8 1.2-31.2 3.3-10.4 2.2-20.6 5-30.7 8.3-2.5.8-5.1 1.6-7.6 2.4-2.5.8-5.1 1.5-7.6 2.2-5 1.4-10.1 2.8-15 4-5 1.2-9.9 2.2-14.8 3.1-1 .2-2.1.3-3.1.5-18.4 9.6-37.5 16-58.7 20-1.8 3.3-6 9.5-9.9 11.5-5.3 2.5-10 3.4-17.6 1.5m-34-124.4s-10.3.3-15.3-3.1-8.2-7.1-10.2-14.7c9.7 8.6 18.8 2.1 25.5 17.8zm12.8 15.3s-10.2 1.4-15.5-1.4c-5.4-2.8-8.9-6.1-11.7-13.4 10.6 7.4 18.8-.1 27.2 14.8zm-23.9-31.9s-10.3-.9-14.9-4.8c-4.7-4-7.4-8-8.6-15.9 8.7 9.7 18.5 4.2 23.5 20.7zm53.9 57.8s-9.6 3.6-15.4 2c-5.8-1.6-10-4-14.3-10.5 12.1 4.8 18.4-4.3 29.7 8.5zM97.5 43.7s-8.4-1.6-11.9-5.3c-3.5-3.6-5.5-7.2-5.9-13.8 7.1 8.3 15.5 5.1 17.8 19.1zm18.6 51.7c11.4 6.2 18.7-2.2 28.6 11.7 0 0-9.9 2.5-15.6.3-5.6-2.1-9.4-5-13-12z"/><path class="st0" d="M149.4 90.8c6 3.1 8.4 6.1 10.8 10.9 2.4 4.8 2.1 14.8 2.1 14.8-16.4-6.2-8.2-14.3-12.9-25.7zm-23.7-27.7c5.2 4.4 7 7.8 8.3 13 1.3 5.2-1.2 14.9-1.2 14.9-14.7-9.5-5-15.7-7.1-27.9zm11.1 14.5c5.6 3.8 7.7 7 9.6 12 1.9 5.1.4 15 .4 15-15.6-7.9-6.6-15.2-10-27zm-20.6-30.2c4.7 5 6.1 8.6 6.8 13.9.7 5.4-2.8 14.8-2.8 14.8-13.6-11.2-3.2-16.3-4-28.7zM100 42.6c-9-11.1-.4-14.5 1.4-24.6 3.1 5 3.7 8.3 3.4 12.9-.3 4.6-4.8 11.7-4.8 11.7zm8.3-12c4.1 5.5 5.2 9.3 5.3 14.7.2 5.5-4.3 14.4-4.3 14.4-12.3-12.6-1.5-16.7-1-29.1zm-15-1s-2.3-.3-5.6-3.5c-5.7-5.6-4.6-10.3-3.1-17.2.7-3.3 1-8.1 1-8.1s2.8 5 4.1 6.8c4.1 5.6 7.3 8.2 5.9 15.9-.8 4.3-2.3 6.1-2.3 6.1z"/><path class="st0" d="M385.7 138.6c-5.6-3.2-12.2-5.8-19.5-7.3-7.3-1.5-15.2-2.3-23.5-2.2h-4.6l-1.5.1c-2 .1-4.1.3-6.2.5-4.2.5-8.4 1.2-12.6 2.1-8.5 1.8-16.9 4.4-25.4 7.2s-17 5.7-25.6 8.3c-8.5 2.6-17.1 4.8-25.5 6.5-8.4 1.6-16.6 2.6-24.5 3.1-7.8.5-15.2.3-22-.1-6.8-.4-13-1.3-18.4-2.2-4.3-.7-8.2-1.6-11.5-2.3-4.6-.6-9.2-1.4-13.9-2.3-3.6 3-11.2 8.4-16.6 8.9-7.5.8-13.4-.3-21.3-5.9 9.6.4 14.8-9 24.6-9.2-8.3-5.9-5.2-15.6-11.7-22.4 8.3 1 12.5 3.3 17.4 7.9 3.6 3.3 6.8 11.5 8.5 15.8 19.7 4.8 39 7.2 58.5 7.2 2-.2 4-.3 6.1-.5 7.1-.7 14.5-2 22-3.6-21.3-2.8-41.3-8.8-61.4-18.3-3.4 1.6-10.4 4.2-14.7 3.5-6-.9-10.4-3-15.3-8.9 7.2 3 11.9-4.7 21-2.1-6.4-7-.5-14.3-4.5-19.8 6.3 2.5 9 5.1 11.9 9.7 2.1 3.3 2.9 10.3 3.4 14 20.1 10.7 40.2 17.6 61.9 21.3 7.9-1.8 16-4.2 24.1-6.8 8.4-2.7 16.8-5.8 25.4-8.6 8.6-2.9 17.3-5.5 26.2-7.4 4.4-.9 8.9-1.6 13.4-2.1 2.2-.2 4.4-.4 6.7-.5l1.7-.2h2.4l.9.2 1.6.2c4.3.1 8.5.4 12.7 1 4.1.5 8.2 1.3 12 2.3 7.7 2 14.8 5.1 20.6 9.1 5.8 4 10.3 8.8 13.3 13.6 3.1 4.8 4.9 9.3 6.1 13.1 1.2 3.8 1.8 6.9 2.1 9 .2 1 .3 1.8.3 2.4.1.5.1.8.1.8s-.3-1.1-.9-3.1c-.6-2-1.6-4.9-3.1-8.5-.8-1.8-1.8-3.7-2.9-5.7-1.1-2-2.5-4.1-4.2-6.2-3.6-4.3-8-8.4-13.6-11.6zm312.8-45.5c-4.9 8.5-9.8 12-17 14.5-7.1 2.5-19.4-1.1-19.4-1.1 6.7-8.2 12.5-11.9 22.6-12.5 5.3-.3 8.7 2.1 13.8-.9zm-19.1 18.5c-5.4 2.4-8.5-.4-13.7-.7-10.1-.6-16.2 2.5-23.7 9.9 0 0 11.8 4.9 19.1 3.3 7.3-1.7 12.6-4.6 18.3-12.5zM702 74.9c-10 1.7-15.5 6.1-21.3 15 0 0 12.6 2.2 19.5-1.1 6.9-3.3 11.5-7.3 15.4-16.4-4.7 3.7-8.3 1.6-13.6 2.5zm-66 66.7c-5.8 1.1-8.2-2.3-13.2-3.7-9.7-2.7-16.4-1.1-25.3 4.5 0 0 10.5 7.4 18 7.3 7.5 0 13.2-1.7 20.5-8.1zm61.2-70.2s10.6.7 16-2.6 8.8-6.9 11.5-14.7c-10.8 8.4-19.8 1.1-27.5 17.3zm-58.3 66.7c7.5-.9 13-3.1 19.5-10.3-5.7 1.8-8.4-1.3-13.5-2.2-9.9-1.7-16.4.7-24.6 7.2 0 0 11.2 6.2 18.6 5.3zm-19.1-26.5c-8.2 1.9-12.1 4.7-16.5 9.7-4.4 5.1-7.2 17.2-7.2 17.2 22.1-2.6 13.9-14.9 23.7-26.9zm19.9 5.7c21.1-7.4 10.3-17.6 17.4-31.4-7.6 3.6-10.8 7.2-14.1 13.1-3.2 5.8-3.3 18.3-3.3 18.3z"/><path class="st0" d="M623.8 111.2c-3.8 5.5-5.3 17.9-5.3 17.9 21.7-5 12.1-16.3 20.6-29.3-8 2.7-11.5 5.9-15.3 11.4zM673.6 70c-7.2 4.5-10.1 8.4-12.6 14.6-2.6 6.2-1.4 18.7-1.4 18.7 20.2-9.7 8.4-18.8 14-33.3zm27-30.8c-5.3 5-7 8.8-8.1 14.4-1.1 5.6 2 15.6 2 15.6 14.6-11.2 4.2-17 6.1-30zm-12.3 13c-6.7 5.3-9.1 9.6-11.1 16.1-1.9 6.5.6 18.8.6 18.8 19.2-12 6.5-19.7 10.5-34.9zm26.3 1c8.6-5 8.7-11 9.1-19.7.2-4.2 1.4-10 1.4-10s-4.9 5.2-7.1 6.9c-6.7 5.4-11.4 7.6-12.1 17.2-.4 5.5.8 8.1.8 8.1s2.9.4 7.9-2.5zM624.4 182s8.2 6.2 14.2 6.4c6.1.2 10.8-1 16.9-6-13 1.3-16.5-9.3-31.1-.4zm-19.3 5s7.4 7.1 13.4 7.9c6 .9 10.8.2 17.3-4.1-13-.2-15.3-11.1-30.7-3.8zm38-12s8.8 5.3 14.9 4.8 10.7-2.2 16.3-7.9c-12.8 2.8-17.6-7.4-31.2 3.1zm-77.5 15.5s5.7 8.5 11.4 10.6c5.7 2.1 10.5 2.5 17.7-.2-12.7-3.1-12.5-14.2-29.1-10.4zm95.1-24.7s7.8 3.6 12.8 2.6c5-.9 8.6-2.7 12.8-7.7-10.6 2.5-15.5-4.9-25.6 5.1zm-75.3 24s6.6 7.9 12.5 9.3c5.9 1.5 10.7 1.4 17.6-2.2-12.9-1.6-13.9-12.7-30.1-7.1z"/><path class="st0" d="M576 176.3c-4.8 2.5-10.3 10.9-10.3 10.9 16.9 4.5 15.1-6.9 25.5-13.4-6.8-1-10.5 0-15.2 2.5zm50.5-11.2c-6.8.5-10.2 2.3-14.3 5.8-4.1 3.5-7.8 12.8-7.8 12.8 17.6.8 13.3-9.9 22.1-18.6zm-17.5 5.3c-6.8-.2-10.3 1.2-14.8 4.2s-9.1 11.9-9.1 11.9c17.3 2.7 14.3-8.5 23.9-16.1zm34.4-12.5c-6.7 1.3-9.9 3.4-13.7 7.3-3.7 3.9-6.4 13.6-6.4 13.6 17.7-1.1 12.3-11.3 20.1-20.9zm29.1-15.3c-5.4 2.3-7.8 4.6-10.2 8.5-2.5 3.9-3 12.3-3 12.3 13.8-3.8 8.8-11.5 13.2-20.8zm-12.9 6.2c-6.6 2.1-9.6 4.5-12.9 8.9-3.3 4.3-4.9 14.3-4.9 14.3 17.4-3.2 10.9-12.8 17.8-23.2zm14.5 1.6c-1.9 4-1.7 6.3-1.7 6.3s2.1 1.1 6.6.4c7.9-1.3 9.7-5.7 12.5-12.2 1.3-3.1 3.9-7.1 3.9-7.1s-5.2 2.5-7.3 3.1c-6.5 2.2-10.7 2.6-14 9.5z"/><path class="st0" d="M573.6 202.5c-7.6-1.8-7-10.7-15.8-13.9 9.3-2 8.7-11.3 15.2-13.4-6.5-1.7-10.3-1.1-15.4.9-3.6 1.4-8.4 6.7-10.9 9.4-20-2.7-38.2-7.7-55.8-15.6 2.6.4 5.1.7 7.7.9 4.7.5 9.2.8 13.7.9 4.4.1 8.7.1 12.8 0 4.1-.2 8-.4 11.7-.8 3.7-.4 7.2-.8 10.5-1.3 6.6-1 12.2-2.2 16.8-3.2 2.3-.5 4.4-1 6.1-1.5 1.8-.5 3.3-.9 4.5-1.2 2.4-.7 3.7-1.1 3.7-1.1s-1.3.2-3.8.7c-1.2.2-2.8.5-4.6.8-1.8.3-3.9.6-6.2 1-4.7.7-10.3 1.4-16.9 1.9-3.3.2-6.7.4-10.4.5-3.7.1-7.5.2-11.5.1s-8.2-.3-12.5-.7c-4.3-.3-8.7-.8-13.3-1.5-4.5-.6-9.2-1.5-13.9-2.5-4.7-1-9.5-2.1-14.3-3.4-.3-.1-.6-.2-.8-.2-.3-.2-.6-.3-.9-.5.2.2.5.3.7.5-9.3-2.5-18.9-5.6-28.6-8.8-10.1-3.3-20.6-6.5-31.4-8.7-10.8-2.2-21.8-3.5-32.8-3.2-5.5.2-11 .8-16.3 2.1-5.3 1.2-10.5 3.1-15.2 5.8-4.7 2.6-8.9 6.1-12.3 10-1.7 2-3.2 4-4.5 6.2-1.3 2.2-2.5 4.3-3.4 6.6-.5 1.1-.9 2.2-1.4 3.3-.4 1.1-.8 2.2-1.1 3.4-.7 2.4-1 4.8-1 7.2-.1 4.7.7 9.1 2.2 13.1 2.9 8.1 8.3 14.2 14 17.9 2.9 1.9 5.8 3.2 8.6 4.1 2.8.9 5.4 1.4 7.8 1.7 4.8.5 8.5.2 11 0 1.3-.1 2.2-.3 2.9-.4.6-.1 1-.2 1-.2s-.3 0-1 .1c-.7 0-1.6.1-2.9.1-2.5 0-6.2 0-10.8-.9-4.6-.8-10-2.7-15.1-6.5-2.5-1.9-4.9-4.3-7-7.2-2-2.9-3.7-6.2-4.8-9.9-1.1-3.7-1.7-7.7-1.4-11.7.1-2 .5-4.1 1.1-5.9.3-1 .8-2 1.2-3 .5-1 .9-2 1.4-3 .9-2 2.1-3.9 3.3-5.8 1.3-1.9 2.7-3.6 4.2-5.3 3.1-3.3 6.9-6.1 11-8.3 8.4-4.5 18.4-6.2 28.7-6.4 10.3-.2 20.8 1.2 31.2 3.3 10.4 2.2 20.6 5 30.7 8.3 2.5.8 5.1 1.6 7.6 2.4 2.5.8 5.1 1.5 7.6 2.2 5 1.4 10.1 2.8 15 4 5 1.2 9.9 2.2 14.8 3.1 1 .2 2.1.3 3.1.5 18.4 9.6 37.5 16 58.7 20 1.8 3.3 6 9.5 9.9 11.5 5.3 2.5 10 3.4 17.6 1.5m34-124.4s10.3.3 15.3-3.1 8.2-7.1 10.2-14.7c-9.7 8.6-18.8 2.1-25.5 17.8zm-12.8 15.3s10.2 1.4 15.5-1.4c5.4-2.8 8.9-6.1 11.7-13.4-10.6 7.4-18.8-.1-27.2 14.8zm23.9-31.9s10.3-.9 14.9-4.8c4.7-4 7.4-8 8.6-15.9-8.7 9.7-18.5 4.2-23.5 20.7zm-53.9 57.8s9.6 3.6 15.4 2c5.8-1.6 10-4 14.3-10.5-12.1 4.8-18.4-4.3-29.7 8.5zm62.9-75.6s8.4-1.6 11.9-5.3c3.5-3.6 5.5-7.2 5.9-13.8-7.1 8.3-15.5 5.1-17.8 19.1zm-18.6 51.7c-11.4 6.2-18.7-2.2-28.6 11.7 0 0 9.9 2.5 15.6.3 5.6-2.1 9.4-5 13-12z"/><path class="st0" d="M575.8 90.8c-6 3.1-8.4 6.1-10.8 10.9-2.4 4.8-2.1 14.8-2.1 14.8 16.4-6.2 8.2-14.3 12.9-25.7zm23.7-27.7c-5.2 4.4-7 7.8-8.3 13-1.3 5.2 1.2 14.9 1.2 14.9 14.7-9.5 5-15.7 7.1-27.9zm-11.1 14.5c-5.6 3.8-7.7 7-9.6 12-1.9 5.1-.4 15-.4 15 15.6-7.9 6.6-15.2 10-27zM609 47.4c-4.7 5-6.1 8.6-6.8 13.9-.7 5.4 2.8 14.8 2.8 14.8 13.6-11.2 3.2-16.3 4-28.7zm16.2-4.8c9-11.1.4-14.5-1.4-24.6-3.1 5-3.7 8.3-3.4 12.9.3 4.6 4.8 11.7 4.8 11.7zm-8.3-12c-4.1 5.5-5.2 9.3-5.3 14.7-.2 5.5 4.3 14.4 4.3 14.4 12.3-12.6 1.5-16.7 1-29.1zm15-1s2.3-.3 5.6-3.5c5.7-5.6 4.6-10.3 3.1-17.2-.7-3.3-1-8.1-1-8.1s-2.8 5-4.1 6.8c-4.1 5.6-7.3 8.2-5.9 15.9.8 4.3 2.3 6.1 2.3 6.1z"/><path class="st0" d="M339.5 138.6c5.6-3.2 12.2-5.8 19.5-7.3 7.3-1.5 15.2-2.3 23.5-2.2h4.6l1.5.1c2 .1 4.1.3 6.2.5 4.2.5 8.4 1.2 12.6 2.1 8.5 1.8 16.9 4.4 25.4 7.2s17 5.7 25.6 8.3c8.5 2.6 17.1 4.8 25.5 6.5 8.4 1.6 16.6 2.6 24.5 3.1 7.8.5 15.2.3 22-.1 6.8-.4 13-1.3 18.4-2.2 4.3-.7 8.2-1.6 11.5-2.3 4.6-.6 9.2-1.4 13.9-2.3 3.6 3 11.2 8.4 16.6 8.9 7.5.8 13.4-.3 21.3-5.9-9.6.4-14.8-9-24.6-9.2 8.3-5.9 5.2-15.6 11.7-22.4-8.3 1-12.5 3.3-17.4 7.9-3.6 3.3-6.8 11.5-8.5 15.8-19.7 4.8-39 7.2-58.5 7.2-2-.2-4-.3-6.1-.5-7.1-.7-14.5-2-22-3.6 21.3-2.8 41.3-8.8 61.4-18.3 3.4 1.6 10.4 4.2 14.7 3.5 6-.9 10.4-3 15.3-8.9-7.2 3-11.9-4.7-21-2.1 6.4-7 .5-14.3 4.5-19.8-6.3 2.5-9 5.1-11.9 9.7-2.1 3.3-2.9 10.3-3.4 14-20.1 10.7-40.2 17.6-61.9 21.3-7.9-1.8-16-4.2-24.1-6.8-8.4-2.7-16.8-5.8-25.4-8.6-8.6-2.9-17.3-5.5-26.2-7.4-4.4-.9-8.9-1.6-13.4-2.1-2.2-.2-4.4-.4-6.7-.5l-1.7-.2h-2.4l-.9.2-1.6.2c-4.3.1-8.5.4-12.7 1-4.1.5-8.2 1.3-12 2.3-7.7 2-14.8 5.1-20.6 9.1-5.8 4-10.3 8.8-13.3 13.6-3.1 4.8-4.9 9.3-6.1 13.1-1.2 3.8-1.8 6.9-2.1 9-.2 1-.3 1.8-.3 2.4-.1.5-.1.8-.1.8s.3-1.1.9-3.1c.6-2 1.6-4.9 3.1-8.5.8-1.8 1.8-3.7 2.9-5.7 1.1-2 2.5-4.1 4.2-6.2 3.6-4.3 8-8.4 13.6-11.6z"/></svg>