<svg xmlns="http://www.w3.org/2000/svg" viewBox="0 0 258.7 258.7"><style>.st0{fill:rgba(255,255,255,.9)}.st1{fill:none;stroke:rgba(255,255,255,.9);stroke-width:2;stroke-miterlimit:10}</style><g id="Ebene_1"><g id="XMLID_391_"><path id="XMLID_13_" class="st0" d="M117.6 17.3c7.3-7.7 19.3-7.7 26.7 0 7.3 7.7 21.7 11.6 31.9 8.6s20.6 3 23.1 13.3c2.5 10.4 13 20.9 23.4 23.4 10.4 2.5 16.4 12.9 13.3 23.1-3 10.2.8 24.6 8.6 31.9 7.7 7.3 7.7 19.3 0 26.7-7.7 7.3-11.6 21.7-8.6 31.9s-3 20.6-13.3 23.1c-10.4 2.5-20.9 13-23.4 23.4-2.5 10.4-12.9 16.4-23.1 13.3-10.2-3-24.6.8-31.9 8.6-7.3 7.7-19.3 7.7-26.7 0-7.3-7.7-21.7-11.6-31.9-8.6s-20.6-3-23.1-13.3c-2.5-10.4-13-20.9-23.4-23.4s-16.4-12.9-13.3-23.1c3-10.2-.8-24.6-8.6-31.9s-7.7-19.3 0-26.7c7.7-7.3 11.6-21.7 8.6-31.9s3-20.6 13.3-23.1c10.4-2.5 20.9-13 23.4-23.4 2.5-10.4 12.9-16.4 23.1-13.3s24.6-.9 31.9-8.6z"/></g></g><g id="Ebene_1_Kopie"><g id="XMLID_2_"><path id="XMLID_4_" class="st1" d="M117.3 14.4c7.5-7.9 19.8-7.9 27.4 0s22.3 11.9 32.7 8.8c10.5-3.1 21.1 3.1 23.7 13.7s13.3 21.4 24 24 16.8 13.2 13.7 23.7.8 25.2 8.8 32.7 7.9 19.8 0 27.4-11.9 22.3-8.8 32.7c3.1 10.5-3.1 21.1-13.7 23.7s-21.4 13.3-24 24c-2.6 10.6-13.2 16.8-23.7 13.7-10.5-3.1-25.2.8-32.7 8.8-7.5 7.9-19.8 7.9-27.4 0-7.5-7.9-22.3-11.9-32.7-8.8-10.5 3.1-21.1-3.1-23.7-13.7-2.6-10.6-13.3-21.4-24-24s-16.8-13.2-13.7-23.7c3.1-10.5-.8-25.2-8.8-32.7s-7.9-19.8 0-27.4S26.3 95 23.2 84.5s3.1-21.1 13.7-23.7 21.4-13.3 24-24C63.5 26.2 74.1 20 84.6 23.1s25.2-.7 32.7-8.7z"/></g></g></svg>