<svg id="Ebene_1_Kopie" xmlns="http://www.w3.org/2000/svg" viewBox="0 0 261.9 261.9"><style>.st0{fill:none;stroke:#c8b6ad;stroke-width:2;stroke-miterlimit:10}</style><g id="XMLID_392_"><path id="XMLID_13_" class="st0" d="M117.3 14.4c7.5-7.9 19.8-7.9 27.4 0s22.3 11.9 32.7 8.8c10.5-3.1 21.1 3.1 23.7 13.7s13.3 21.4 24 24 16.8 13.2 13.7 23.7.8 25.2 8.8 32.7 7.9 19.8 0 27.4-11.9 22.3-8.8 32.7c3.1 10.5-3.1 21.1-13.7 23.7s-21.4 13.3-24 24c-2.6 10.6-13.2 16.8-23.7 13.7-10.5-3.1-25.2.8-32.7 8.8-7.5 7.9-19.8 7.9-27.4 0-7.5-7.9-22.3-11.9-32.7-8.8-10.5 3.1-21.1-3.1-23.7-13.7-2.6-10.6-13.3-21.4-24-24s-16.8-13.2-13.7-23.7c3.1-10.5-.8-25.2-8.8-32.7s-7.9-19.8 0-27.4S26.3 95 23.2 84.5s3.1-21.1 13.7-23.7 21.4-13.3 24-24C63.5 26.2 74.1 20 84.6 23.1s25.2-.7 32.7-8.7z"/></g></svg>