<svg id="objects" xmlns="http://www.w3.org/2000/svg" viewBox="0 0 215.8 194.4"><style>path{fill:#c8b6ad}</style><path d="M64.7 77.4c-.8-.4-1.4.7-.7 1.2 18.6 13.2 38.6 30.2 42 54-15.8-12.2-33.6-21.5-49.3-33.9-13.2-10.4-29-22.1-34.7-38.5-.3-1-2.1-.9-2 .3 2 15.1 18.2 28.3 29.3 37.1 18.3 14.6 38 26.3 57.6 38.9.8.5 2-.1 1.9-1.1-2.2-24.8-22.9-46.8-44.1-58zm37.6-32.6c-.9-.5-1.6.8-.8 1.4 11.4 8.5 22 16.3 29.6 28.7 6.3 10.3 9 22.1 9.7 34-2.3-6.1-4.7-11.8-8.5-17.5-4.8-7.1-11-13.3-17.9-18.4-9.6-7.2-18.6-15-27.8-22.6-8.8-7.3-19.2-13.2-27.4-21.2-.7-.6-1.5.3-1 1 6.1 7.9 14.8 13.4 22.4 19.7 8.4 6.9 16.4 14.4 25.1 21 7.5 5.7 14.8 11.2 20.9 18.5 6 7.2 11.2 16.7 14.4 25.5.4.9 1.8.9 1.8-.2-.4-29.2-14.3-55.9-40.5-69.9zm39.2-22.7c-1.2-.5-2.2 1.1-1 1.8 17.5 9.4 40.3 23 38.4 44.9C173 56 157.5 46 146.2 40.1c-.5-.3-1 .5-.5.8 6.2 4.6 12.3 9.5 18 14.7 5.9 5.4 12.5 12.1 14 20.2.3 1.7 2.7 1.5 3.2 0 7.6-26.8-17.9-44.4-39.4-53.7zM116-.4h-.8c-.1 0-.1.1 0 .1h.8c.1.1.1-.1 0-.1z"/><path d="M192.6 30.3c-7.4-8.7-16.1-14.6-26.9-18.4-7.6-2.7-16.4-3.8-24.3-5.2-7.6-1.3-15.2-1.6-23-1.2-1.2.1-1.2 1.8 0 1.8 9.6.7 19.1 2.3 28.6 4.2 9.3 1.8 18.4 3.5 26.9 7.9 12.6 6.5 23 20.2 29.4 32.6 3 5.8 5.1 11.8 6.3 18-4.3-6.5-10.5-12.2-15.5-16.8-.8-.8-2.4.3-1.7 1.3 3.6 4.7 7.2 9.5 10.6 14.4 4.4 6.3 5.1 12.8 7.5 19.8.1.2.2.4.4.6-.1 2.7-.4 5.4-.8 8.1-2.8-9.2-9-17.9-13.4-25.6-.7-1.2-2.5-.1-1.9 1.1 3.2 6.3 6.5 12.4 8.9 19.1 2.3 6.3 2.4 12.6 3.3 19.1-.8 2.8-1.8 5.5-2.9 8.2-.7-11.3-5.8-23-10.2-32.3-.4-.9-1.8-.3-1.5.6 2.3 6.7 4.8 13.2 6.4 20.1 2 8.9.2 17.8-2 26.4-1.4 2.3-2.8 4.5-4.3 6.7-25.8 36.4-76.3 55.5-120.1 46.4-6.8-10.6-8.6-22.3-9.2-34.8 0-.9-1.4-.9-1.4 0-.4 12 0 23.1 5.3 33.6-1.9-.5-3.8-1-5.6-1.6v-.1c-12.8-14.7-20.7-30.6-22.4-50.2-.1-.8-1.3-.9-1.3 0 .3 17.7 5.1 33.8 15.9 47.3-5.8-2.5-11.3-5.5-16.6-9.2.2-.7.2-1.5-.4-2.2-11.2-13.6-11.3-33.3-10.8-50 0-.9-1.4-.9-1.4 0-1.2 15-2.6 31.7 4.1 45.4-5.7-5.3-10.4-11.4-14.1-18 .2-.4.3-.8.2-1.3-1.7-7.6-2.8-14.1-1.6-21.9.8-5.6 2.2-11.1 1.8-16.7 0-.4-.5-.5-.7-.1-2.8 7.4-5.8 16.6-6.1 25.4C1.2 112.2 2 88.7 9 68.1c6.7-19.6 19.5-35.4 36.5-47 17.4-11.9 37.2-16.9 58-18 .5 0 .6-.8.1-.8C76-3 45.7 13.1 26.7 32.2 7.4 51.7-1.4 80.6-.3 107.6c1.1 26.9 13.6 52.6 35.6 68.4 22.3 16.1 51.4 21.1 78.2 17.1 48.6-7.2 95.6-42.9 101.7-94 3.1-25.9-6-49.4-22.6-68.8z"/><path d="M80.8 103.8c-25-7.1-39.6-28.5-59.1-43.9-.6-.5-1.4.3-.8.8 9.9 8.4 18.7 18 28.5 26.6 8.8 7.8 19.3 15.7 31.2 17.5.6.1.9-.8.2-1zm36.3-35.2c-10.4-11-20.3-23.4-32.9-31.9-.3-.2-.6.3-.4.5 11.9 9.7 20.9 22.3 32.5 32.2.5.5 1.3-.3.8-.8zM46.8 17c.1-.1-.2-.2-.2-.1-4.8 10.3-10.1 20.8-5.5 32.1.1.3.7.2.6-.2-3.9-11.3.7-21.3 5.1-31.8zm12.3-7.6c-6.2 6.4-9 14.9-10.1 23.6 0 .4.6.5.7.1 1.8-8.6 4.6-16.2 9.9-23.3.2-.3-.2-.6-.5-.4zm23.5-6.6c-7.2 2.8-11.5 10.9-12.9 18.1-.1.4.5.6.6.2C72 13.9 75.9 6.6 82.8 3.2c.2-.1 0-.5-.2-.4zm15.8-.7c-5.2 4.1-8.1 10.4-8.8 16.9 0 .4.7.5.7.1.9-6.5 3.9-11.9 8.5-16.5.4-.3 0-.7-.4-.5zM70.3 6.7c-4.3 4.2-8.1 8.9-9.4 14.9-.1.5.6.6.7.2 1.7-5.7 5.3-10.2 9.3-14.4.5-.5-.1-1.1-.6-.7zM37.6 56.2c-2.2-5.5-3.5-10.8-3.1-16.7.3-4.7 2-9.2 2.2-13.9 0-.1-.1-.1-.2 0-3.7 10-4.6 21.3.5 30.9.2.3.8.1.6-.3zm152 47.3c-.2-.3-.7-.1-.6.2 3.5 9.1 1.9 19.6-.4 28.8-1.3 5.2-3.2 10.3-5.4 15.2-1.8 3.9-4.5 7.2-6.5 10.9-.4.7.5 1.3 1.1.8 3.5-2.9 5.6-8.1 7.4-12.1 2.3-5.1 4-10.4 5.3-15.8 2.2-8.8 3.4-19.5-.9-28zM7.4 94.8c-2.8 7.4-6 15.5-6 23.5 0 .6.9.8 1.1.1 1.6-8 3.7-15.5 6.1-23.3.2-.7-.9-1-1.2-.3zm57.2 92.7c-2.2-5.4-4.7-10.6-6.4-16.2-2-6.6-2.7-13.4-3.1-20.3 0-.4-.7-.4-.7 0-.5 12.5 2.9 26.1 9.2 37 .2.6 1.3.2 1-.5zm-15-4.7c-12.3-12.5-18.8-30.2-16-47.7 0-.2-.3-.4-.4-.1-3.7 16.7 2.7 37.1 16 48.3.2.2.6-.2.4-.5zm39.3 9.3c-7.9-6.5-11.6-15.2-13.4-25.1 0-.2-.4-.1-.3 0 1.2 10 5.1 19.5 13.3 25.6.3.3.7-.3.4-.5zm12.6-.7c-10.1-4.7-14.7-13.7-19.3-23.2-.1-.2-.4-.1-.3.1 3.5 9.3 9 20.6 19.4 23.5.2.2.4-.2.2-.4z"/></svg>