<svg id="Objects" xmlns="http://www.w3.org/2000/svg" viewBox="0 0 410.1 219.2"><style>.st0{fill:#d6d4cf}.st1{display:none;fill:#454c53}.st2{font-family:&apos;Cinzel-Regular&apos;}.st3{font-size:31.5163px}.st4{letter-spacing:1}.st5{display:none}.st6{display:inline;fill:#d6d4cf}</style><path class="st0" d="M40.4 93c10.1.6 15.9 4.3 22.6 12.5 0 0-12.3 3.6-19.4 1.1-7.1-2.5-12.1-5.9-17-14.5 5.2 3 8.6.6 13.8.9zm23.8 30c7.3 1.7 19.1-3.3 19.1-3.3-7.5-7.4-13.7-10.4-23.7-9.9-5.2.3-8.3 3.1-13.7.7 5.6 8 10.9 10.9 18.3 12.5zM9.5 71.4c4 9.1 8.5 13.1 15.4 16.4 6.9 3.3 19.5 1.1 19.5 1.1-5.8-8.9-11.2-13.3-21.3-15-5.2-.9-8.8 1.2-13.6-2.5zm100.2 77.3c7.5 0 18-7.3 18-7.3-8.9-5.6-15.6-7.2-25.3-4.5-5 1.4-7.4 4.8-13.2 3.7 7.3 6.4 13 8.1 20.5 8.1zM.6 53.1c2.6 7.8 6 11.4 11.4 14.7 5.4 3.3 16 2.6 16 2.6C20.3 54.2 11.3 61.5.6 53.1zm104.3 78.7c-8.2-6.5-14.7-8.9-24.6-7.2-5.2.9-7.9 4-13.5 2.2 6.5 7.2 12 9.5 19.5 10.3 7.4.9 18.6-5.3 18.6-5.3zm24.2 5.8s-2.8-12.2-7.2-17.2c-4.4-5.1-8.3-7.8-16.5-9.7 9.8 11.9 1.6 24.2 23.7 26.9zM82.2 97.9C79 92 75.8 88.5 68.1 84.8c7.1 13.9-3.7 24.1 17.4 31.4 0 .1-.1-12.4-3.3-18.3zm3.9.9c8.5 13-1.1 24.3 20.6 29.3 0 0-1.4-12.4-5.3-17.9-3.8-5.5-7.3-8.7-15.3-11.4zm-20.5 3.4s1.2-12.4-1.4-18.7c-2.6-6.2-5.4-10.1-12.6-14.6 5.6 14.6-6.2 23.7 14 33.3zm-34.9-34s3.1-9.9 2-15.6c-1.1-5.6-2.8-9.4-8.1-14.4 1.9 13-8.5 18.8 6.1 30zM47.3 86s2.5-12.2.6-18.8c-1.9-6.5-4.3-10.7-11.1-16.1 4.1 15.3-8.6 23 10.5 34.9zM18.5 54.7s1.3-2.6.8-8.1c-.8-9.6-5.5-11.8-12.1-17.2C5 27.7.1 22.5.1 22.5s1.2 5.9 1.4 10c.4 8.8.5 14.7 9.1 19.7 5 2.9 7.9 2.5 7.9 2.5zm51.2 126.8c6.1 5 10.8 6.2 16.9 6 6.1-.2 14.2-6.4 14.2-6.4-14.6-9-18.1 1.6-31.1.4zm19.7 8.3c6.5 4.3 11.3 4.9 17.3 4.1 6-.9 13.4-7.9 13.4-7.9-15.4-7.3-17.7 3.6-30.7 3.8zm-38.5-18.9c5.6 5.7 10.2 7.4 16.3 7.9 6.1.5 14.9-4.8 14.9-4.8-13.6-10.5-18.4-.3-31.2-3.1zm79.6 29c7.3 2.8 12.1 2.4 17.7.2 5.7-2.1 11.4-10.6 11.4-10.6-16.6-3.8-16.4 7.3-29.1 10.4zm-91.6-40.2c4.2 5.1 7.8 6.8 12.8 7.7 5 .9 12.8-2.6 12.8-2.6-10-10-15-2.6-25.6-5.1zm70.8 36.3c6.9 3.5 11.8 3.7 17.6 2.2 5.9-1.5 12.5-9.3 12.5-9.3-16.2-5.7-17.2 5.4-30.1 7.1zm24.4-23.3c10.4 6.6 8.5 17.9 25.5 13.4 0 0-5.6-8.3-10.3-10.9-4.8-2.4-8.5-3.4-15.2-2.5zm-13.3 10s-3.7-9.3-7.8-12.8-7.5-5.2-14.3-5.8c8.8 8.7 4.5 19.4 22.1 18.6zm19.3 2.8s-4.6-8.9-9.1-11.9-8-4.4-14.8-4.2c9.6 7.6 6.6 18.8 23.9 16.1zm-38.3-7.6s-2.6-9.7-6.4-13.6c-3.7-3.9-7-6-13.7-7.3 7.9 9.5 2.5 19.7 20.1 20.9zm-35.9-15.5s-.5-8.4-3-12.3c-2.5-3.9-4.8-6.2-10.2-8.5 4.4 9.3-.6 17 13.2 20.8zm17.5 8.6s-1.6-9.9-4.9-14.3c-3.3-4.3-6.3-6.8-12.9-8.9 6.9 10.4.4 20 17.8 23.2zm-46.3-31c-2.1-.7-7.3-3.1-7.3-3.1s2.6 4 3.9 7.1c2.8 6.4 4.6 10.9 12.5 12.2 4.5.7 6.6-.4 6.6-.4s.2-2.3-1.7-6.3c-3.3-7-7.5-7.4-14-9.5zm114.5 61.5c7.5 2 12.3 1 17.7-1.7 3.9-2 8.1-8.2 9.9-11.5 21.2-3.9 40.3-10.4 58.7-20 1-.2 2.1-.3 3.1-.5 4.9-.8 9.8-1.9 14.8-3.1 5-1.2 10-2.5 15-4 2.5-.7 5-1.5 7.6-2.2 2.5-.8 5.1-1.6 7.6-2.4 10.1-3.2 20.3-6.1 30.7-8.3 10.4-2.2 20.9-3.5 31.2-3.3 10.2.1 20.3 1.9 28.7 6.4 4.2 2.2 7.9 5 11 8.3 1.5 1.7 3 3.4 4.2 5.3 1.2 1.9 2.4 3.8 3.3 5.8.5 1 .9 2 1.4 3l1.2 3c.6 1.9 1 3.9 1.1 5.9.3 4-.3 8.1-1.4 11.7-1.1 3.7-2.8 7-4.8 9.9-2 2.9-4.4 5.3-7 7.2-5.1 3.8-10.6 5.7-15.1 6.5-4.6.9-8.3.9-10.8.9-1.3 0-2.2-.1-2.9-.1-.7 0-1-.1-1-.1s.3.1 1 .2c.6.1 1.6.3 2.9.4 2.5.2 6.3.6 11 0 2.4-.3 5-.8 7.8-1.7 2.8-.9 5.7-2.2 8.6-4.1 5.7-3.7 11.1-9.8 14-17.9 1.4-4 2.3-8.5 2.2-13.1-.1-2.3-.4-4.7-1-7.2-.3-1.2-.7-2.2-1.1-3.4-.4-1.1-.8-2.2-1.4-3.3-1-2.2-2.1-4.4-3.4-6.6-1.3-2.1-2.8-4.2-4.5-6.2-3.4-3.9-7.5-7.4-12.3-10-4.7-2.6-9.9-4.6-15.2-5.8-5.3-1.3-10.8-1.9-16.3-2.1-11-.3-22 1.1-32.8 3.2-10.8 2.2-21.3 5.3-31.4 8.7-9.7 3.2-19.3 6.3-28.6 8.8.2-.2.5-.3.7-.5-.3.2-.6.3-.9.5-.3.1-.6.2-.8.2-4.8 1.3-9.6 2.4-14.3 3.4-4.7 1-9.3 1.8-13.9 2.5-4.5.6-9 1.1-13.3 1.5-4.3.4-8.5.5-12.5.7-4 .1-7.9 0-11.5-.1-3.7-.1-7.1-.3-10.4-.5-6.5-.5-12.2-1.2-16.9-1.9-2.3-.3-4.4-.7-6.2-1-1.8-.3-3.3-.5-4.6-.8-2.5-.5-3.8-.7-3.8-.7s1.3.4 3.7 1.1c1.2.4 2.7.8 4.5 1.2 1.8.5 3.8 1 6.1 1.5 4.6 1.1 10.3 2.3 16.8 3.2 3.3.5 6.8.9 10.5 1.3s7.6.6 11.7.8c4.1.1 8.4.2 12.8 0s9-.5 13.7-.9c2.5-.3 5.1-.6 7.7-.9-17.7 7.8-35.9 12.9-55.8 15.6-2.5-2.8-7.3-8-10.9-9.4-5-2-8.8-2.6-15.4-.9 6.5 2.1 5.9 11.4 15.2 13.4-8.9 3.3-8.3 12.3-15.9 14.1zM92 59.3c2 7.6 5.2 11.3 10.2 14.7 5 3.4 15.3 3.1 15.3 3.1-6.6-15.7-15.7-9.2-25.5-17.8zm11.1 18.3c2.8 7.3 6.3 10.6 11.7 13.4 5.4 2.8 15.5 1.4 15.5 1.4-8.3-14.9-16.5-7.4-27.2-14.8zM82.9 39.8c1.2 7.9 4 11.9 8.6 15.9 4.7 4 14.9 4.8 14.9 4.8-4.9-16.5-14.7-11-23.5-20.7zm47.8 69.9c4.3 6.5 8.4 9 14.3 10.5 5.8 1.6 15.4-2 15.4-2-11.3-12.7-17.6-3.6-29.7-8.5zm-51-86c.5 6.6 2.4 10.1 5.9 13.8 3.5 3.6 11.9 5.3 11.9 5.3-2.3-14.1-10.7-10.9-17.8-19.1zm49.4 82.8c5.6 2.2 15.6-.3 15.6-.3-9.9-13.9-17.2-5.5-28.6-11.7 3.6 6.9 7.4 9.8 13 12zm33.2 9s.3-10-2.1-14.8c-2.4-4.8-4.8-7.8-10.8-10.9 4.7 11.4-3.5 19.5 12.9 25.7zm-29.5-25.4s2.5-9.7 1.2-14.9c-1.3-5.2-3.1-8.6-8.3-13 2.1 12.1-7.6 18.3 7.1 27.9zm14.1 13.5s1.4-9.9-.4-15c-1.9-5.1-4-8.3-9.6-12 3.3 11.8-5.7 19.1 10 27zm-26.7-28.5s3.5-9.4 2.8-14.8c-.7-5.4-2.1-9-6.8-13.9.8 12.4-9.6 17.5 4 28.7zm-15.4-45.2c.3-4.6-.3-7.9-3.4-12.9C99.6 27.1 91 30.4 100 41.6c0 0 4.5-7.1 4.8-11.7zm4.5 28.9s4.5-9 4.3-14.4c-.2-5.5-1.2-9.2-5.3-14.7-.5 12.3-11.3 16.4 1 29.1zM95.6 22.5c1.3-7.6-1.8-10.3-5.9-15.9-1.3-1.8-4.1-6.8-4.1-6.8s-.3 4.8-1 8.1C83.2 14.7 82 19.4 87.7 25c3.3 3.2 5.6 3.5 5.6 3.5s1.5-1.7 2.3-6zM399 149.1c1.6 2.1 3 4.2 4.2 6.2 1.2 2 2.1 3.9 2.9 5.7 1.6 3.6 2.5 6.5 3.1 8.5.6 2 .9 3.1.9 3.1s0-.3-.1-.8-.2-1.3-.3-2.4c-.3-2.1-.9-5.2-2.1-9-1.2-3.8-3-8.4-6.1-13.1-3-4.8-7.5-9.6-13.3-13.6-5.8-4.1-12.9-7.1-20.6-9.1-3.9-1-7.9-1.8-12-2.3-4.1-.5-8.4-.8-12.7-1l-1.6-.2-.9-.2H338l-1.7.2c-2.3.1-4.4.3-6.7.5-4.4.4-8.9 1.1-13.4 2.1-8.9 1.8-17.6 4.5-26.2 7.4-8.6 2.8-17 5.9-25.4 8.6-8.1 2.7-16.2 5-24.1 6.8-21.7-3.7-41.8-10.6-61.9-21.3-.4-3.7-1.3-10.7-3.4-14-2.9-4.6-5.7-7.2-11.9-9.7 4 5.5-1.9 12.7 4.5 19.8-9-2.6-13.8 5.1-21 2.1 5 6 9.3 8 15.3 8.9 4.3.7 11.3-2 14.7-3.5 20.2 9.5 40.1 15.4 61.4 18.3-7.5 1.7-14.9 2.9-22 3.6-2.1.2-4.1.4-6.1.5-19.5 0-38.7-2.4-58.5-7.2-1.7-4.3-4.9-12.5-8.5-15.8-4.9-4.6-9.1-6.9-17.4-7.9 6.5 6.8 3.5 16.4 11.7 22.4-9.8.2-14.9 9.5-24.6 9.2 7.9 5.6 13.8 6.7 21.3 5.9 5.4-.6 13-5.9 16.6-8.9 4.7.9 9.3 1.6 13.9 2.3 3.3.8 7.2 1.6 11.5 2.3 5.4.9 11.6 1.8 18.4 2.2 6.8.4 14.2.6 22 .1 7.8-.5 16.1-1.5 24.5-3.1 8.4-1.6 16.9-3.9 25.5-6.5 8.5-2.6 17.1-5.5 25.6-8.3 8.5-2.8 17-5.4 25.4-7.2 4.2-.9 8.4-1.6 12.6-2.1 2.1-.2 4.2-.4 6.2-.5l1.5-.1h4.6c8.2-.1 16.2.7 23.5 2.2 7.3 1.5 13.9 4 19.5 7.3 5.9 3.3 10.3 7.4 13.6 11.6z"/><text transform="matrix(-1 0 0 1 350.11 240.825)" class="st1 st2 st3 st4">ORGANIC WHEAT</text><text transform="matrix(-1 0 0 1 296.092 279.656)" class="st1 st4" font-family="Aleo-LightItalic" font-size="18.294">natural cereal</text><g class="st5"><path class="st6" d="M367.5 254.3s-1.1 0-3.1.1c-2.1.1-5.1.1-8.9.2-7.7.1-18.6.5-31.7.6-6.6.1-13.7.2-21.2.3-7.5.1-15.5.2-23.7.2s-16.7.1-25.3.1c-8.6 0-17.4 0-26.1.1-8.8 0-17.5 0-26.1-.1-8.6 0-17.1-.1-25.3-.1-8.2-.1-16.1-.2-23.7-.2-7.5-.1-14.6-.2-21.2-.3-13.1-.2-24.1-.5-31.7-.6-3.8-.1-6.8-.2-8.9-.2-2.1-.1-3.1-.1-3.1-.1s1.1 0 3.1-.1c2.1-.1 5.1-.1 8.9-.2 7.7-.1 18.6-.5 31.7-.6 6.6-.1 13.7-.2 21.2-.3 7.5-.1 15.5-.1 23.7-.2 8.2 0 16.7-.1 25.3-.1 8.6 0 17.4 0 26.1-.1 8.8 0 17.5 0 26.1.1 8.6.1 17.1.1 25.3.1 8.2.1 16.1.2 23.7.2 7.5.1 14.6.2 21.2.3 13.1.2 24.1.5 31.7.6 3.8.1 6.8.2 8.9.2 2 .1 3.1.1 3.1.1z"/></g></svg>