<?xml version="1.0" encoding="iso-8859-1"?>
<!-- Generator: Adobe Illustrator 19.0.0, SVG Export Plug-In . SVG Version: 6.00 Build 0)  -->
<svg version="1.1" id="Layer_1" xmlns="http://www.w3.org/2000/svg" xmlns:xlink="http://www.w3.org/1999/xlink" x="0px" y="0px"
	 viewBox="0 0 463 463" style="enable-background:new 0 0 463 463;" xml:space="preserve">
	 <style>path{fill: #fff}</style>
<g>
	<g>
		<g>
			<path d="M431.5,104h-400C14.131,104,0,118.131,0,135.5v192c0,8.547,6.953,15.5,15.5,15.5H16v8.5c0,4.143,3.358,7.5,7.5,7.5
				s7.5-3.357,7.5-7.5V343h401v8.5c0,4.143,3.358,7.5,7.5,7.5c4.142,0,7.5-3.357,7.5-7.5V343h0.5c8.547,0,15.5-6.953,15.5-15.5v-192
				C463,118.131,448.869,104,431.5,104z M448,327.5c0,0.275-0.224,0.5-0.5,0.5h-432c-0.276,0-0.5-0.225-0.5-0.5V279h433V327.5z
				 M448,264H15V135.5c0-9.099,7.402-16.5,16.5-16.5h400c9.098,0,16.5,7.401,16.5,16.5V264z"/>
			<path d="M423.5,224H399v-8.5c0-4.143-3.358-7.5-7.5-7.5c-4.142,0-7.5,3.357-7.5,7.5v8.5h-17v-16.5c0-4.143-3.358-7.5-7.5-7.5
				c-4.142,0-7.5,3.357-7.5,7.5V224h-17v-16.5c0-4.143-3.358-7.5-7.5-7.5c-4.142,0-7.5,3.357-7.5,7.5V224h-17v-8.5
				c0-4.143-3.358-7.5-7.5-7.5c-4.142,0-7.5,3.357-7.5,7.5v8.5h-17v-16.5c0-4.143-3.358-7.5-7.5-7.5c-4.142,0-7.5,3.357-7.5,7.5V224
				h-17v-8.5c0-4.143-3.358-7.5-7.5-7.5c-4.142,0-7.5,3.357-7.5,7.5v8.5h-17v-8.5c0-4.143-3.358-7.5-7.5-7.5
				c-4.142,0-7.5,3.357-7.5,7.5v8.5h-17v-16.5c0-4.143-3.358-7.5-7.5-7.5c-4.142,0-7.5,3.357-7.5,7.5V224h-17v-16.5
				c0-4.143-3.358-7.5-7.5-7.5c-4.142,0-7.5,3.357-7.5,7.5V224h-17v-8.5c0-4.143-3.358-7.5-7.5-7.5c-4.142,0-7.5,3.357-7.5,7.5v8.5
				H79v-8.5c0-4.143-3.358-7.5-7.5-7.5c-4.142,0-7.5,3.357-7.5,7.5v8.5H39.5c-4.142,0-7.5,3.357-7.5,7.5s3.358,7.5,7.5,7.5h384
				c4.142,0,7.5-3.357,7.5-7.5S427.642,224,423.5,224z"/>
			<path d="M423.5,168H399v-8.5c0-4.143-3.358-7.5-7.5-7.5c-4.142,0-7.5,3.357-7.5,7.5v8.5h-17v-16.5c0-4.143-3.358-7.5-7.5-7.5
				c-4.142,0-7.5,3.357-7.5,7.5V168h-17v-16.5c0-4.143-3.358-7.5-7.5-7.5c-4.142,0-7.5,3.357-7.5,7.5V168h-17v-8.5
				c0-4.143-3.358-7.5-7.5-7.5c-4.142,0-7.5,3.357-7.5,7.5v8.5h-17v-16.5c0-4.143-3.358-7.5-7.5-7.5c-4.142,0-7.5,3.357-7.5,7.5V168
				h-17v-8.5c0-4.143-3.358-7.5-7.5-7.5c-4.142,0-7.5,3.357-7.5,7.5v8.5h-17v-8.5c0-4.143-3.358-7.5-7.5-7.5
				c-4.142,0-7.5,3.357-7.5,7.5v8.5h-17v-16.5c0-4.143-3.358-7.5-7.5-7.5c-4.142,0-7.5,3.357-7.5,7.5V168h-17v-16.5
				c0-4.143-3.358-7.5-7.5-7.5c-4.142,0-7.5,3.357-7.5,7.5V168h-17v-8.5c0-4.143-3.358-7.5-7.5-7.5c-4.142,0-7.5,3.357-7.5,7.5v8.5
				H79v-8.5c0-4.143-3.358-7.5-7.5-7.5c-4.142,0-7.5,3.357-7.5,7.5v8.5H39.5c-4.142,0-7.5,3.357-7.5,7.5s3.358,7.5,7.5,7.5h384
				c4.142,0,7.5-3.357,7.5-7.5S427.642,168,423.5,168z"/>
		</g>
	</g>
</g>
<g>
</g>
<g>
</g>
<g>
</g>
<g>
</g>
<g>
</g>
<g>
</g>
<g>
</g>
<g>
</g>
<g>
</g>
<g>
</g>
<g>
</g>
<g>
</g>
<g>
</g>
<g>
</g>
<g>
</g>
</svg>
