<svg id="washing-machine" xmlns="http://www.w3.org/2000/svg" width="90.733" height="108.88" viewBox="0 0 90.733 108.88">
  <path id="Path_3" data-name="Path 3" d="M81.66,0H9.074A9.084,9.084,0,0,0,0,9.074v87.1a5.444,5.444,0,0,0,5.444,5.444v5.443a1.815,1.815,0,0,0,1.814,1.815H83.475a1.815,1.815,0,0,0,1.814-1.815v-5.443a5.444,5.444,0,0,0,5.444-5.444V9.074A9.084,9.084,0,0,0,81.66,0ZM9.074,3.629H81.66A5.444,5.444,0,0,1,87.1,9.074v12.7H3.629V9.074A5.444,5.444,0,0,1,9.074,3.629ZM81.66,105.25H9.074v-3.629H81.66Zm3.629-7.259H5.444a1.815,1.815,0,0,1-1.815-1.815V25.4H87.1V96.177A1.815,1.815,0,0,1,85.289,97.992Zm0,0"/>
  <path id="Path_4" data-name="Path 4" d="M18.816,27.9H40.608a1.816,1.816,0,0,0,1.816-1.816V18.816A1.816,1.816,0,0,0,40.608,17H18.816A1.816,1.816,0,0,0,17,18.816V26.08A1.816,1.816,0,0,0,18.816,27.9Zm1.816-7.264H38.793v3.632H20.632Zm0,0" transform="translate(-9.736 -9.736)"/>
  <path id="Path_5" data-name="Path 5" d="M90.448,27.9A5.448,5.448,0,1,0,85,22.448,5.448,5.448,0,0,0,90.448,27.9Zm0-7.264a1.816,1.816,0,1,1-1.816,1.816A1.816,1.816,0,0,1,90.448,20.632Zm0,0" transform="translate(-48.711 -9.736)"/>
  <path id="Path_6" data-name="Path 6" d="M124.448,27.9A5.448,5.448,0,1,0,119,22.448,5.448,5.448,0,0,0,124.448,27.9Zm0-7.264a1.816,1.816,0,1,1-1.816,1.816A1.816,1.816,0,0,1,124.448,20.632Zm0,0" transform="translate(-68.195 -9.736)"/>
  <path id="Path_7" data-name="Path 7" d="M154.816,29.132h3.632a1.816,1.816,0,0,0,0-3.632h-3.632a1.816,1.816,0,1,0,0,3.632Zm0,0" transform="translate(-87.676 -14.604)"/>
  <path id="Path_8" data-name="Path 8" d="M180.316,29.132h3.632a1.816,1.816,0,1,0,0-3.632h-3.632a1.816,1.816,0,1,0,0,3.632Zm0,0" transform="translate(-102.295 -14.604)"/>
  <path id="Path_9" data-name="Path 9" d="M67.272,76.5a29.057,29.057,0,1,0,29.022,29.056A29.039,29.039,0,0,0,67.272,76.5Zm0,54.481a25.425,25.425,0,1,1,25.395-25.425A25.41,25.41,0,0,1,67.272,130.982Zm0,0" transform="translate(-21.906 -43.865)"/>
  <path id="Path_10" data-name="Path 10" d="M74.573,89.249a23.59,23.59,0,0,0-21.8,32.56c.011.037,0,.074.014.111s.049.071.067.113a23.546,23.546,0,0,0,44.466-3.069.706.706,0,0,0,.023-.091A23.5,23.5,0,0,0,74.573,89.249Zm0,3.632a19.933,19.933,0,0,1,19.463,24.3,27.962,27.962,0,0,0-2.78,1.09,16.435,16.435,0,0,1-7.616,1.852,12.234,12.234,0,0,1-6.443-1.634,15.823,15.823,0,0,0-8.064-2,47.575,47.575,0,0,0-13.521,2.542,19.939,19.939,0,0,1,18.96-26.151Zm0,39.953a19.958,19.958,0,0,1-17.524-10.444,43.15,43.15,0,0,1,12.085-2.269,12.237,12.237,0,0,1,6.442,1.634,15.82,15.82,0,0,0,8.064,2,19.539,19.539,0,0,0,8.782-2.032A19.946,19.946,0,0,1,74.573,132.835Zm0,0" transform="translate(-29.207 -51.164)"/>
</svg>
