<?xml version="1.0" encoding="UTF-8" standalone="no"?>
<!-- Created with Inkscape (http://www.inkscape.org/) -->

<svg
   xmlns:dc="http://purl.org/dc/elements/1.1/"
   xmlns:cc="http://creativecommons.org/ns#"
   xmlns:rdf="http://www.w3.org/1999/02/22-rdf-syntax-ns#"
   xmlns:svg="http://www.w3.org/2000/svg"
   xmlns="http://www.w3.org/2000/svg"
   xmlns:sodipodi="http://sodipodi.sourceforge.net/DTD/sodipodi-0.dtd"
   xmlns:inkscape="http://www.inkscape.org/namespaces/inkscape"
   version="1.0"
   width="1091.9919"
   height="630.11902"
   viewBox="0 0 1091.992 630.119"
   id="svg2"
   inkscape:version="0.48.2 r9819"
   sodipodi:docname="Урал.svg">
  <metadata
     id="metadata155">
    <rdf:RDF>
      <cc:Work
         rdf:about="">
        <dc:format>image/svg+xml</dc:format>
        <dc:type
           rdf:resource="http://purl.org/dc/dcmitype/StillImage" />
        <dc:title></dc:title>
      </cc:Work>
    </rdf:RDF>
  </metadata>
  <sodipodi:namedview
     pagecolor="#ffffff"
     bordercolor="#666666"
     borderopacity="1"
     objecttolerance="10"
     gridtolerance="10"
     guidetolerance="10"
     inkscape:pageopacity="0"
     inkscape:pageshadow="2"
     inkscape:window-width="1280"
     inkscape:window-height="668"
     id="namedview153"
     showgrid="false"
     inkscape:zoom="0.71154371"
     inkscape:cx="545.99597"
     inkscape:cy="315.05951"
     inkscape:window-x="-8"
     inkscape:window-y="-8"
     inkscape:window-maximized="1"
     inkscape:current-layer="svg2" />
  <defs
     id="defs558">
    <inkscape:perspective
       sodipodi:type="inkscape:persp3d"
       inkscape:vp_x="0 : 315.05951 : 1"
       inkscape:vp_y="0 : 1000 : 0"
       inkscape:vp_z="1091.9919 : 315.05951 : 1"
       inkscape:persp3d-origin="545.99597 : 210.03967 : 1"
       id="perspective157" />
    <inkscape:perspective
       id="perspective3854"
       inkscape:persp3d-origin="0.5 : 0.33333333 : 1"
       inkscape:vp_z="1 : 0.5 : 1"
       inkscape:vp_y="0 : 1000 : 0"
       inkscape:vp_x="0 : 0.5 : 1"
       sodipodi:type="inkscape:persp3d" />
    <inkscape:perspective
       id="perspective3868"
       inkscape:persp3d-origin="0.5 : 0.33333333 : 1"
       inkscape:vp_z="1 : 0.5 : 1"
       inkscape:vp_y="0 : 1000 : 0"
       inkscape:vp_x="0 : 0.5 : 1"
       sodipodi:type="inkscape:persp3d" />
  </defs>
  <g
     id="g4384">
    <g
       transform="translate(28.000001,0)"
       style="fill:none;stroke:#000000"
       id="State_Outline">
      <polygon
         id="polygon5"
         points="726.107,136.784 723.385,136.784 721.343,138.826 718.091,137.691 716.427,135.271 715.671,134.212 715.671,134.212 715.368,133.002 717.637,134.061 718.771,132.926 720.359,131.338 722.704,128.994 724.141,130.733 724.897,130.733 726.787,128.843 728.527,126.801 731.854,125.289 734.274,127.104 732.913,130.885 732.913,133.002 731.325,134.59 728.829,135.725 " />
      <polygon
         id="polygon7"
         points="686.177,147.674 687.387,148.883 685.118,150.094 685.118,152.967 686.934,154.782 686.479,156.9 688.143,156.9 690.261,159.018 689.655,161.438 692.378,162.799 696.008,162.95 697.521,164.462 700.243,164.462 703.419,163.555 703.419,161.135 701.453,159.32 702.512,158.261 704.1,159.849 706.898,154.783 709.545,152.136 710.68,153.27 713.1,150.85 713.855,148.581 711.133,147.674 709.318,149.489 707.05,147.825 704.327,146.161 701.604,144.195 702.512,142.229 703.949,140.792 705.083,144.648 706.822,146.388 709.771,146.917 711.587,146.161 713.1,146.161 714.611,144.649 713.855,141.472 711.436,141.472 712.041,138.75 712.041,136.784 710.074,137.389 710.074,137.389 705.234,137.389 703.646,138.977 701.15,140.716 699.335,138.901 694.949,140.262 695.252,142.985 696.387,144.12 698.05,145.783 699.185,146.917 697.521,148.279 695.252,146.313 694.042,147.522 692.378,145.858 688.597,146.615 686.933,145.708 " />
      <polygon
         id="polygon9"
         points="712.646,164.009 711.284,165.219 712.343,168.244 714.083,169.984 715.52,167.185 715.52,164.917 714.461,163.858 712.646,164.009 " />
      <polygon
         id="polygon11"
         points="717.107,168.471 718.091,170.815 719.755,172.479 718.695,174.899 719.604,175.807 720.965,172.933 724.443,172.176 727.469,170.966 731.552,168.546 729.435,164.614 726.561,164.614 722.477,163.252 720.586,164.992 718.847,166.731 718.847,166.731 " />
      <polygon
         id="polygon13"
         points="684.815,160.227 683.454,158.866 681.034,158.715 682.623,160.303 683.605,163.857 685.571,163.857 685.571,161.891 684.815,160.227 " />
      <polygon
         id="polygon15"
         points="613.727,222.391 613.727,218.761 610.853,218.761 609.188,219.064 609.188,219.064 606.391,221.862 606.391,223.752 608.734,223.752 609.491,225.567 611.457,224.66 " />
      <polygon
         id="polygon17"
         points="706.891,114.247 707.874,115.23 709.009,114.247 707.798,112.583 707.798,112.583 " />
      <polygon
         id="polygon19"
         points="695.547,178.831 697.211,179.587 699.328,181.251 700.235,180.041 699.328,178.68 699.328,178.68 696.454,178.075 " />
      <polygon
         id="polygon21"
         points="576.813,182.16 578.175,183.067 578.779,182.008 577.419,181.252 577.419,181.252 " />
      <polygon
         id="polygon23"
         points="570.915,167.791 569.402,168.698 571.52,169.757 573.032,170.815 574.696,170.362 574.242,168.396 572.578,168.849 570.915,167.791 " />
      <polygon
         id="polygon25"
         points="557.756,171.27 560.781,170.967 564.563,168.093 566.377,164.614 565.167,161.589 563.806,159.32 561.991,160.077 560.176,156.9 558.814,155.539 557.15,157.505 556.092,160.379 556.092,160.379 556.092,158.262 556.243,154.48 555.185,152.363 553.672,152.514 551.555,155.085 551.706,157.354 550.798,158.867 551.403,162.951 549.588,164.766 549.739,168.849 548.832,172.328 548.075,175.807 549.437,176.563 552.311,174.294 553.975,173.236 " />
      <path
         inkscape:connector-curvature="0"
         id="path27"
         d="m 542.479,144.195 -1.361,1.664 -1.21,2.269 -1.059,-0.454 0.756,-2.874 0,-3.025 -3.327,1.059 c 0,0 -1.966,0.454 -2.42,0.605 -0.454,0.151 -2.723,0.908 -2.723,0.908 l -1.059,2.269 -0.605,1.966 -1.361,1.664 0.454,1.966 -2.571,1.966 1.21,1.059 1.814,-0.605 1.513,2.117 0.151,1.966 1.361,1.664 3.479,0.302 0.454,1.966 2.42,-1.512 1.21,1.966 3.327,1.21 3.177,-1.513 1.513,-2.118 -1.21,-2.42 -1.967,-2.723 1.513,-1.059 0.605,-2.571 -0.757,-2.874 0.303,-2.874 -3.63,-1.964 z" />
      <polygon
         id="polygon29"
         points="539.908,192.293 539.757,190.479 539.757,190.479 538.244,192.293 536.278,192.747 538.093,194.108 " />
      <polygon
         id="polygon31"
         points="513.742,191.083 514.8,191.991 516.162,190.024 514.498,189.874 514.498,189.874 " />
      <path
         inkscape:connector-curvature="0"
         id="path33"
         d="m 498.919,231.316 -1.815,0.908 c 0,0 0.756,2.269 0.756,1.966 0,-0.303 1.361,-0.605 1.361,-0.605 l -0.302,-2.269 z" />
      <polygon
         id="polygon35"
         points="484.248,219.064 485.155,220.88 486.667,220.577 485.912,217.704 485.912,217.704 " />
      <polygon
         id="polygon37"
         points="487.575,239.181 488.937,240.542 489.088,238.273 487.575,237.971 485.306,237.518 485.306,237.518 485.004,239.181 " />
      <polygon
         id="polygon39"
         points="478.803,149.035 476.534,147.825 476.534,147.825 475.626,148.733 476.685,149.338 478.349,150.548 " />
      <polygon
         id="polygon41"
         points="467.308,253.247 466.249,254.608 466.854,256.423 467.913,257.785 469.425,256.121 470.03,254.155 468.669,252.793 467.308,253.247 " />
      <polygon
         id="polygon43"
         points="461.409,257.936 459.594,258.39 459.594,258.39 457.93,260.054 456.115,261.566 457.779,262.776 459.14,261.566 461.258,261.566 463.224,259.751 " />
      <polygon
         id="polygon45"
         points="453.695,244.172 455.51,242.962 457.779,243.567 457.174,242.206 454.149,241.601 454.149,241.601 452.788,242.811 " />
      <polygon
         id="polygon47"
         points="446.435,249.617 447.645,250.676 449.006,249.012 447.191,247.651 447.191,247.651 " />
      <polygon
         id="polygon49"
         points="429.95,240.392 428.74,242.055 429.042,243.114 431.765,243.87 434.336,242.66 435.849,242.812 435.849,241.299 433.429,240.694 434.639,239.333 433.277,237.367 431.614,237.972 431.009,237.82 431.009,237.82 429.345,239.03 " />
      <polygon
         id="polygon51"
         points="361.886,269.583 363.55,270.036 364.155,273.212 367.332,273.515 368.39,270.944 366.877,268.373 367.029,265.499 365.365,261.717 365.365,261.717 362.945,262.927 361.13,263.532 361.584,267.465 " />
      <polygon
         id="polygon53"
         points="305.016,254.004 306.074,256.877 308.495,257.785 310.763,258.692 312.881,257.18 315.452,257.634 316.813,254.458 314.696,251.735 314.544,249.466 311.822,248.559 311.822,248.559 308.495,249.466 306.528,252.038 " />
      <polygon
         id="polygon55"
         points="213.206,251.583 214.265,252.945 215.626,251.583 213.811,250.676 213.811,250.676 " />
      <polygon
         id="polygon57"
         points="344.188,222.695 347.063,222.997 347.97,224.056 349.028,224.51 349.482,222.543 352.961,221.485 355.684,218.611 353.869,216.645 356.289,215.132 359.011,216.191 359.768,213.922 359.768,211.653 363.246,211.653 364.91,213.317 366.649,211.578 367.027,209.99 370.809,209.233 369.523,207.948 366.271,206.813 366.271,205.604 370.053,204.544 373.985,203.486 375.951,201.52 378.522,201.52 378.522,199.705 382.153,199.553 380.187,197.587 383.363,197.436 384.573,198.646 384.421,195.621 385.934,194.108 384.27,192.142 385.329,190.478 387.144,192.293 389.413,192.293 389.413,190.024 392.74,191.234 394.404,189.419 396.068,187.453 398.186,187.453 401.815,185.79 404.387,186.697 408.168,186.697 410.664,184.201 413.613,184.428 414.974,186.395 418.15,186.395 419.663,187.907 422.386,187.15 426.167,187.15 428.663,184.655 431.612,183.067 435.544,181.554 439.174,181.554 441.292,184.882 441.292,188.512 438.116,191.386 435.242,194.108 431.461,194.411 426.923,196.528 422.839,195.016 420.873,196.982 416.184,196.831 410.134,196.831 407.865,199.251 403.177,199.251 399.698,201.217 400.757,203.637 398.336,204.544 395.463,204.242 392.892,204.242 392.589,205.906 389.867,205.149 389.867,207.872 387.144,209.838 384.875,211.502 384.875,208.931 383.06,210.595 383.514,213.62 381.699,213.62 380.413,212.334 380.413,213.771 380.413,216.04 379.09,214.716 377.389,216.417 375.951,217.855 373.984,217.855 372.472,219.821 370.506,223.148 367.33,223.148 364.758,225.266 364.758,228.14 362.187,229.199 361.279,232.224 359.162,234.341 359.162,238.123 358.103,240.845 359.464,244.777 358.254,248.71 359.918,251.281 360.674,254.004 359.767,254.912 357.196,256.122 357.196,254.155 354.776,252.794 354.776,252.794 353.112,252.794 351.297,250.071 350.239,250.676 347.063,247.651 344.642,245.08 345.55,242.357 347.97,241.601 348.877,240.089 347.213,238.728 347.365,235.097 346.306,234.795 345.247,232.072 342.979,231.921 341.164,229.35 341.769,226.022 " />
      <polygon
         id="polygon59"
         points="487.188,129.307 488.438,130.557 490.125,129.995 491.125,128.995 489.25,128.245 489.25,128.245 488,128.495 " />
      <polygon
         id="polygon61"
         points="517.625,127.745 518.563,128.682 520.5,126.87 520.5,125.62 517.875,125.745 517.875,125.745 516.75,126.87 " />
      <polygon
         id="polygon63"
         points="536.625,133.745 538.5,132.12 536.938,130.557 533.75,127.37 532.625,124.87 529.875,124.12 529.875,124.12 529.5,126.62 527.25,127.62 523.875,129.87 523.875,132.995 525.25,134.37 523.438,136.182 522.25,138.495 523.875,140.745 524.5,142.995 527.375,145.495 530,142.995 531.75,142.995 534.375,141.495 537.5,140.495 536.625,137.495 " />
      <polygon
         id="polygon65"
         points="526.313,149.307 527.25,146.87 525.625,145.62 522.5,144.87 522.5,144.87 520.375,144.62 520.75,147.37 520.75,149.12 523.5,149.87 524.625,150.995 " />
      <polygon
         id="polygon67"
         points="488.313,209.682 489.375,210.62 491.125,210.12 489.125,208.87 489.125,208.87 " />
      <polygon
         id="polygon69"
         points="450.875,105.87 450.875,107.12 452.625,107.12 452.625,104.745 451.125,104.12 451.125,104.12 449.875,104.495 " />
      <polygon
         id="polygon71"
         points="446.125,118.62 445.375,120.37 446.75,120.745 449.5,120.745 451.688,118.557 453.313,116.932 452.75,114.495 450.75,114.745 450.75,114.745 449.875,116.12 446.625,116.745 444.5,117.87 " />
      <polygon
         id="polygon73"
         points="441,114.495 443.375,113.62 443.375,111.62 442,111.62 440.375,112.495 440.375,112.495 439.688,113.182 " />
      <polygon
         id="polygon75"
         points="434.375,117.745 434.375,120.245 436.5,120.62 437,122.12 439.625,121.495 441.313,119.807 442.563,118.557 443.25,116.495 441.375,116.495 438.563,116.432 438.563,116.432 436.75,114.37 435.375,115.745 " />
      <polygon
         id="polygon77"
         points="432.625,125.495 431.125,125.12 431.125,125.12 430.313,125.932 430.313,127.495 432,127.495 " />
      <polygon
         id="polygon79"
         points="424,117.87 424,119.745 422.5,121.245 423.375,122.12 426.375,121.495 427.5,122.62 430.125,121.995 430.875,120.245 432.75,120.87 431.75,118.62 430.063,116.932 427.625,118.745 427.625,118.745 426.75,117.87 " />
      <polygon
         id="polygon81"
         points="440.75,99.37 442.063,100.682 443.313,99.432 441.5,97.87 441.5,97.87 " />
      <polygon
         id="polygon83"
         points="438.75,101.37 436.75,101.37 436.75,103.62 438.875,105.745 438.875,107.495 440.75,106.62 439.625,104.245 438.75,101.37 " />
      <polygon
         id="polygon85"
         points="424.5,107.87 424.125,108.245 425.563,109.682 426.25,107.87 426.25,107.87 " />
      <polygon
         id="polygon87"
         points="426.563,111.932 427.75,113.245 429.125,113.12 427.75,110.745 427.75,110.745 " />
      <polygon
         id="polygon89"
         points="428.875,106.87 430.625,106.87 430.25,104.995 428.875,105.245 428.875,105.245 " />
      <polygon
         id="polygon91"
         points="431.313,110.745 432.75,110.745 431.625,109.62 431.313,109.307 431.313,109.307 " />
      <polygon
         id="polygon93"
         points="432.75,112.62 433.375,113.245 434.5,112.12 432.75,112.62 " />
      <polygon
         id="polygon95"
         points="434.5,107.745 436,107.87 436,105.995 434.5,105.995 434.5,105.995 " />
      <polygon
         id="polygon97"
         points="433.125,104.12 433.938,103.307 433.125,102.495 432.25,102.495 432.25,102.495 " />
      <polygon
         id="polygon99"
         points="416.813,115.557 418.625,115.62 418.625,112.62 417.375,110.995 416.125,112.995 416.125,112.995 415.188,113.932 " />
      <polygon
         id="polygon101"
         points="420.875,112.745 422.125,112.745 422.125,111.245 420.25,110.995 420.25,110.995 " />
      <polygon
         id="polygon103"
         points="415.375,107.37 417.625,105.12 415.5,102.995 416.938,101.557 414.5,100.12 413.25,100.995 413.25,100.995 412,102.245 412,103.62 410.563,105.057 408,103.245 405.875,104.37 405.875,105.87 403.25,103.995 401.25,104.745 401.875,107.745 403.75,107.12 403.75,109.12 405.75,109.62 407.563,107.807 410.125,106.745 412.25,107.37 " />
      <polygon
         id="polygon105"
         points="401.75,96.245 400.625,98.495 402.063,99.932 402.625,101.62 405.875,100.495 407,101.62 409.125,100.745 410,101.62 410,99.745 408.563,98.307 407.25,98.307 406.125,97.87 406.125,97.87 403.375,97.87 " />
      <polygon
         id="polygon107"
         points="407.5,111.057 407.875,112.62 410.125,112.745 408.563,111.057 408.563,111.057 " />
      <polygon
         id="polygon109"
         points="409.5,115.495 409,114.37 409,114.37 407.875,115.495 408.75,116.37 410.875,116.87 " />
      <polygon
         id="polygon111"
         points="418.125,99.87 419.375,99.87 420.625,98.62 418.125,98.245 418.125,98.245 " />
      <path
         inkscape:connector-curvature="0"
         id="path113"
         d="m 857.333,70.12 1.333,-4.833 5.084,-4.917 5.666,-5.667 2.584,-2.583 5,-2.167 3.582,-2.083 3.334,-3.333 3.417,-3.417 4.167,-1.667 3,-4.333 5.666,-1.667 3,-3.167 3.667,-1.667 2.333,-1.333 2.667,2.667 3.833,-1.167 3.417,2.583 2.25,-2.25 4,-2.167 0,-2 -4,0.833 -4.667,-0.333 -3,-0.833 1,-3 3.167,-2.167 -2.667,-0.667 0,-1.5 1.834,0.168 0.333,-3 1.667,-2.333 2.333,-2.333 4,-1.5 1.167,0 3,-4.167 c 0,0 2.833,-0.833 3.833,-1.833 1,-1 0,2.833 0,2.833 l 2.167,1.833 1.666,1.667 -1.833,3.833 c 0,0 2.5,0 3.5,-1 1,-1 0,2 0,2 l 0,3.5 -3.833,2.5 3,0.5 1.833,-1.833 3.917,1.5 0,-1.75 3.083,3.083 2.167,3.334 1.833,-0.5 1.833,-2.333 0,2.167 1.167,2.667 -3.5,0 0,1.333 2.833,0.833 -1.5,4.333 -3.833,0.333 -3.5,3.833 -1.833,4 -3.5,1.167 -2.5,-1 -3.167,0 -2.833,4.167 1.25,2.5 0,4.25 -2.75,2.75 -2.167,-1.667 -2.167,1.667 -3.166,0 -1.834,-1.5 -1.666,-1 -0.25,1.583 1.25,1.25 -1.5,0.667 -1,1 2.916,0.5 0,2.25 2.25,2.25 3.667,-1 2.5,0 0.166,3.167 1.5,-1.5 2.584,2.584 2.75,2.75 1.333,4.833 0.667,3.833 -2.667,4.333 -2.5,0 -3.5,1.5 -1.166,2.666 2.833,-1.167 1.833,0 -2.666,3.168 1.666,1.666 2.167,-0.833 0,-3.167 2,-1.5 3.583,-0.083 2.084,-2.083 1,-1.667 2.5,0.167 2,-0.333 3.666,-0.167 0,2.333 3,0 0.834,-1.583 2.916,0 1.75,-1.75 2.167,-0.333 1.833,1.5 2.667,-2 1.25,2.917 2.417,2.417 0,3.5 -3.334,1.333 -2.166,4.665 -3.5,0 -1,1.5 3.916,2.583 -1.25,1.25 2.834,4.334 1.166,5.333 0,6 1,4.667 1.667,4 0.834,5.333 1.666,5.167 3.167,2.833 0,4.833 1.667,6.667 2.833,3.167 1.833,1.833 -2.833,2.5 -3,-1.5 -4.167,1.333 -2.166,5 -3.5,5 1.833,1.834 -1.333,4.667 0,2.5 2.833,4.333 0,2.667 -3.167,-1.5 -2.333,-2.334 -2,0.167 1.833,4.833 0,3.167 3.083,1.417 -3.083,3.083 -2,0 0,4.333 -1.833,1.833 2.5,4.167 2,2 2.333,2.333 3.167,3.167 0.666,4.667 0.5,3.667 4.584,2.416 2.75,2.75 4.666,0 -1.25,-2.833 0,-1.417 1.584,-1.583 1.167,-2.5 4.333,4.333 0.833,3.833 4.333,3 4.292,0.958 1.708,-1.708 2.75,0 3.25,3.25 -1.333,3.167 -3.333,1 1,4 3.5,5.833 3.083,0.75 2.417,2.417 5.666,-0.667 3.334,2.667 1.166,3 -2,1.333 -2.833,1.833 -1.667,3.667 1.167,6.667 3.333,5.167 2.917,1.083 1.417,1.417 4.833,1.167 0,2 -3.667,0.5 0,3 -1.333,3 1.667,6 2.832,1.167 4.334,4.333 3.167,3 0.667,5.333 1.666,7 0.834,4.5 0,3.333 -1.834,-2.5 -4.833,0 -3.083,-1.583 -2.417,-2.417 -3.333,0 -3,-3 -5.834,-2.667 -5.5,-2.333 -6.333,-3.333 -1.833,-2.5 -3,-2 -3.334,-0.667 -7.166,-2.167 -4.667,-2.5 -4.5,-3 -2.167,-4 -4.833,-4.833 -3.333,-3.5 -10e-4,-3.5 -2.333,-2.333 -0.5,-3.833 -2.833,-4 -3.084,-0.667 0,-1.417 1.417,-1.417 1.167,-2.5 -1.583,-2.75 1.5,-1.5 1.25,-1.25 -1.667,-5 -0.833,-5.333 -2,-6.167 -3.167,-4.167 -1.333,-5.5 -1.5,-5.167 -1.667,-4.167 -2,-6.167 -2,-1.667 -0.167,-3.333 1.167,-4 0,-2.333 0,-2.833 -2,-2 -2.167,-4.167 -2.166,0 -2.084,-0.75 -1.916,-1.917 -2.334,-3 -3.5,-2.167 0,-3.833 3.167,-2.999 -1.084,-1.084 -2.583,2.583 -3.666,2 0,3.5 -1,2.667 1.999,1.833 2.917,2.917 2.75,2.75 3.334,0 -0.334,2.167 -1.5,-0.167 -1.583,2.25 2.083,2.083 0,5.333 1.667,4 0.333,6.333 -1.166,3.836 -1.334,-3.333 -3,-1.5 10e-4,4.167 -2.5,-2.5 -1.667,-1.667 -1.334,-2.833 -4.666,-4.333 1.333,3.667 -1.333,4 -4.5,0 0,2.667 -1.5,5.5 -1.834,2.167 0.167,7.333 3,2 -0.5,4.667 3,4.667 0,5 0.917,6.583 2.75,2.75 0,3 2.333,2.333 2.167,-0.333 1.916,-1.75 1.417,-1.417 2.5,0 -0.167,3.167 -2.666,0.833 0,4.5 -5,0.833 1.166,5.833 -0.5,2.5 -3.166,1.332 0,3.5 -1.167,3.167 c 0,0 -3.917,0.917 -3.167,0.167 0.75,-0.75 -1.5,-1.5 -1.5,-1.5 l 0,-2.167 0.667,-2.167 2.75,-0.917 -1.25,-1.25 -3,1.167 -3.167,0.5 0,1.5 -4.666,2.167 -2.334,2.833 -2.666,0.667 -2.167,2.167 -0.833,2.5 0.832,3.167 1.834,1.833 -2.166,2.333 -3.5,-1.333 1.083,3.583 -2.583,2.583 -2.334,2.167 -2,0 -2,1.833 1.334,2.167 1,1 -2.834,1.833 -3.833,0 -3.75,3.75 -2.417,2.417 -2.667,4.5 -2.833,2.833 -2.833,5.667 -0.5,5.5 2.667,5.333 -2.5,2.5 -0.833,5.333 1.499,3.833 2.334,2.333 -2,3.333 0,4.5 0,6 -1,4.167 0,5.667 1.667,1.833 0,4 0,4.5 -1.5,5.667 0,4.667 -2.5,4.167 0,4.166 -1.334,3.667 1.5,3.375 2.542,0 1.958,-1.958 2.749,0 2.168,-2.168 2.416,-2.416 1.667,1.667 2,1 0,2.167 1.584,2.916 2,2 1.75,-1.75 0,-2.666 -2.334,-1 0,-2.5 1.834,-2 0,1.666 2,1.5 1,-0.333 1,1 0,3 0,2.167 3.333,-1.333 0,-1.666 1.833,-2.5 1.167,-1 1.833,1.333 0.417,-2.75 -1.583,-1.583 -1.5,-2.834 -1.834,-3.333 3,-1.666 1.834,-1.834 3.666,-0.833 4.334,0 3.583,0.417 1.583,1.583 c 0,0 3.834,-0.667 4.667,-0.667 0.833,0 3.166,-1.001 3.166,-1.001 l 2.084,2.084 -1.584,1.584 -1.166,1.166 -1,1.834 2.833,0 3,0 0.667,2.166 2.5,2.5 3.084,-0.416 1.583,1.583 1.666,3.167 0.5,6.333 2.167,6.667 3.416,4.916 4.25,4.25 1.667,1.668 0.833,2.832 3.334,3.334 2.333,4 0.834,2.334 3.083,4.75 2.583,2.582 0,7 -1,6 1.834,6 -0.167,6.166 1.833,4.834 1.333,5.334 1,4.832 1,6.5 0,6.334 -1,3.334 0,6.5 0,8 -1,6 1,6.166 -0.333,8 0,3.834 -3.333,5.5 -2.167,4.666 -2.5,4.668 -2.167,0 -4.166,1.665 -3.5,2 -2.417,-1 0,-2.25 -1.25,-1.25 -1.251,2.834 0,3.082 -1.416,-1.416 -2.166,-2.166 0,1.666 -0.667,4.166 0.667,2.834 -0.917,3.25 -1.417,1.416 0,1.668 0,2.666 -3.166,-0.166 -1.334,-1.334 1.167,-3.834 2,-4 0,-3.332 -1.75,-3.918 -3.583,-3.582 -1.834,-1.834 -1.5,-3.834 -3.166,-3.166 -3,-1 -0.084,-3.25 2.084,-2.084 1.833,-1.832 0,-3.334 2.333,-2.334 2.667,-1.332 2.751,0.916 2.416,-2.416 1.5,-3 -2.667,-4.168 1.333,-3.5 -1.666,-3.666 -0.334,-3.834 -2.333,-3.166 0.667,-2.666 -1.834,-3.168 -0.833,-3.666 -3.333,-3.5 2.5,-2.5 0,-3.668 -2.083,-2.082 -2.417,-2.418 -0.667,-2.166 -2.833,0 -4,2.166 -1,3.334 -2.667,4.334 -3,3.832 1.334,4.168 -3.5,2.832 -3.5,2 -3,1 -0.834,3 -3.166,0 -3.167,-1.832 -2.333,-0.834 0,-3.834 -2.667,-2.332 -2.167,-2.168 -3.583,-0.916 -1.917,1.916 -3.833,-1 -3.167,-0.832 -4.833,0.666 -4.5,0 -1.833,1.834 -5,1.832 -5,-1 -2.083,-4.082 -2.417,-2.418 c 0,0 -2.833,-1.666 -2.833,-2.334 0,-0.668 -3.167,-3.166 -3.167,-3.166 l -4,-0.666 -1.667,-4 -3.834,-3 -2.666,-2.666 -3.667,-1 -1.333,-3.5 -3.334,-1.5 -2,-2 -6.666,-0.668 -3.5,0 -4,2.168 -5,-0.834 -3.834,1.334 -4.166,0 -5.668,4.166 -2.666,2.666 -5.25,3.084 -2.583,2.584 -1.833,5.5 -1.334,3.332 1.834,2.334 2.583,-2.084 2.083,2.084 2.334,2.334 1.333,5.332 -1.333,2.834 -1,7.166 0,4.5 -1.834,4.668 2.5,4.832 1.5,1.5 0,4.668 -3.5,1 -2.25,5.25 -3.25,3.25 -5.5,2 -6.166,-0.5 -4.5,-0.834 -3.333,2 -4.667,2.666 -3.5,-1.832 -3.167,-1.168 -4.166,1.834 -3.5,3.5 -2.5,2.5 -1.417,4.916 -2.917,2.918 -3.833,2.666 -5.333,2.5 -4.084,4.084 -2.083,2.082 -5.333,0 -4.834,1.5 -6.833,0 -5,0.668 -4.5,-1.5 -1.334,-2.5 -2.333,-2.334 -6.333,0 -5.833,-0.834 -2.334,-1.5 -7.666,1.084 -4.751,0 -3.916,3.916 -4.333,1 -4.167,1.168 -6,-0.5 -4.082,-1.75 -2.584,-2.584 -2.416,-5.084 -3.084,-3.082 -4.334,-1.666 -4.166,0 -4.75,1.248 -3.25,-3.248 -6.5,0 -3.834,-2.834 -1.917,1.916 -2.583,2.584 -2.083,4.25 -2.25,2.25 -0.667,4.334 2.084,2.5 0,3.748 2.916,2.918 0,4 -3.916,2.584 -3.75,3.75 -3.167,0 -4.833,0 -4.5,-1.168 -4.667,0.834 -3.333,-1 -4.834,-1.668 -2.666,-2.666 -3.167,-3.166 -3.833,-1.166 -4.5,1.832 -2.834,-2.834 -3.583,-1.582 -2.917,2.916 -3.666,0 -1.167,3.5 -4.333,0 -5.5,3.5 -3.334,3.334 -3.333,0 -0.667,3.5 -3.916,0.916 -2.75,2.75 -5,-0.166 -4.167,2.332 -2.167,2.168 -4.833,-0.834 -1.5,-2.5 -1.833,-3.334 -0.917,-3.416 -2.583,2.584 -4.333,1.666 -4,-1.334 -4.5,-1.166 0,-4 -3.5,-2.166 -1.333,-3 -2.833,-1.834 -0.667,-4 -2.333,-2.166 -3.125,-1.375 -2.042,-2.041 -4.25,0 -2.083,2.082 -4.167,0.668 -1.668,-1.668 -3.666,0.666 -2,-2 -1.833,-1.832 0,-2.5 -1.833,-2.166 -2.668,0.832 -1.833,3.834 -3.667,0.666 -2.167,-4.332 -1.167,-3.834 -0.833,-4.334 -2.833,-5 0,-4 -2.667,-2.5 0,-5.5 -2,-6.666 -2.833,-2.834 -1.833,-1.832 -1.917,-4.084 -2.083,-2.084 -2.833,-1.166 0,-3 2.333,0 2,-2.666 -0.833,-2.334 -3,0 -2.5,2.5 -3.5,0.166 -2.583,0.084 -2.75,2.75 -4.667,1.334 -4,2.166 -1.834,-2.666 -3.5,1.666 -2.833,0 1,-4.5 4,-1.834 0,-2.332 -3.333,0 -3,-1.834 -1.833,1.834 -3.333,-1 1.083,-3.918 -2.417,-2.416 -3.333,2 -3.667,-1 -0.917,-2.916 2.084,-2.084 0,-3.166 0.833,-2.334 -1.333,-4.166 -2.5,-1.168 -3,0 -1.5,-3 -4.167,0 -3.333,-2 -3.667,-0.334 -2,2.834 -4.167,0 -3.667,1 -3,-1.666 -3.667,0.666 -4.5,0 -4.333,-2.25 -1.75,0 -1.917,1.916 -3.333,0.668 -3.167,-1.668 -2.833,0 -3.833,-1.166 -5.667,0.166 -4.167,-0.832 -3,0.832 -2.667,-2.332 -3.833,-2 -3.5,0 -1.167,3.666 1.167,2.5 -2.333,2.334 1.833,1.166 1.833,1.834 2.25,2.25 -2.083,2.082 -2.333,0 -2.833,-2.832 -4.333,0.166 -2.833,1.166 1.167,4.168 -1.167,3 -2.833,0.832 -3.333,-0.832 -1.333,3.5 1.083,2.416 2.333,2.334 1.583,1.582 0.667,2.834 2.333,2.334 -2.333,3.166 -2.167,2.166 -3.667,0 -3.75,0.25 -1.917,-1.916 -1.333,-2.709 -1.708,0 -1.792,1.793 -2.917,0 -3.25,-3.25 -0.625,-1.875 -2.458,-2.459 0,-4.25 -2.084,-2.084 -3.833,0 -3.167,1.168 -1.167,-2.5 -3.167,-2.5 -2.833,-1.5 -3.833,1.834 -3.5,0.5 -2.833,-0.834 -2,-3.834 -2.833,-2.5 -2,3.334 -2.167,0 0,-2.666 2,-2 -1.333,-2.834 -1.667,-4.334 -0.667,-4.5 -2.5,-3 -4,-1.5 -1.166,-2.832 -2.167,-2.168 -4,0.668 -2.333,0 0,-3.168 -1.167,-3.332 -4.083,-0.752 -2.083,2.084 -3.833,1.334 -3.333,-1.834 -3.5,0 -1.667,2.5 -3.5,0 -3.833,0 -0.835,1.834 -2.167,2.166 -0.333,3.166 -4.083,-0.748 -2.417,-2.418 0,-3.334 1.084,-3.25 -1.75,-1.75 -2.834,0 -1.167,2.668 -2.167,1.582 -3.25,0 -2.583,2.584 -2.167,2.166 0,3 -2.833,1.168 -3,-0.168 -2.167,2.168 -2.667,1.832 1.083,3.25 2.417,2.418 -1,4.332 -2.167,2.168 2.167,1.332 3.167,3 2,2 -0.833,4.334 0.917,5.666 0,4.584 -1.75,1.75 -1.667,-1.834 -2.5,-0.332 0.333,3 1.417,2.916 2.083,2.084 -1.667,1.666 -2.833,0.334 -2.333,0 -1.833,0 -1.5,0 c 0,0 -2,0.25 -3.583,0.25 -1.583,0 -1.25,-1.25 -1.25,-1.25 l -2.5,-0.668 -1.166,-1.166 -3,-0.5 0,2.334 -2.333,1 -2.833,3.332 -3.167,0 -3.5,1 -2.042,-0.541 -1.708,1.709 0,2.75 1.75,1.75 1,3.166 -0.833,3.166 -0.75,2.918 -1.917,1.916 0,1.166 -1.667,1.5 -3.667,6 0,4.668 1,5.666 -0.667,4.334 0.333,5.332 -4,1.834 -2.667,-1.166 -3.833,1.332 -3.667,-0.832 -0.5,-3.168 -1.833,-5.5 -0.333,-4 -2.667,-1.832 0,-2.168 -1.333,-3.5 -2.333,-3 1.5,-2.5 1,-2.832 -2.5,-2.668 -0.833,-3 -2.833,-0.332 -0.583,-1.75 L 58,544.119 54.333,543.619 52,541.285 51.333,535.953 49,533.785 l 0.667,-3.332 -2.833,-2.334 -1.5,-3.832 -2.5,-1.168 -3.667,-2.5 -1.167,-4 -2.5,-3.832 -0.833,-3.334 -1.833,-0.334 -1.333,-1.666 -1.667,-2.334 -2.167,0.334 -1.333,-4 0.5,-7.666 -0.667,-5.668 -1.333,-2.832 -1.667,-2.5 0.333,-5 -2,-1.834 -1.333,-2.666 1,-3 -0.833,-3.334 1.833,-1.834 2,-0.332 2.667,3.332 2.5,0.834 1.167,-2.5 2.833,-1.166 3.833,-0.168 2,0 2.5,0.834 0.5,-4.166 -1.333,-2.5 0.667,-2.168 2,0.334 1.833,1.334 2,1.832 1.5,-1.5 2.333,1 3.833,0.5 2.833,1.168 0.667,-3 -2,-1.5 -2.833,-0.668 -1.833,-1.832 -2,-0.668 2.5,-2.666 3.666,-1.666 3.167,1.332 2.833,-1.166 2.667,2.834 4,4.332 3.667,-3.666 2.5,-1.5 -0.667,-3.668 2.333,-2.332 2.333,0.334 -0.167,-2.668 6.167,-0.832 1.167,-2.834 1.333,-1.666 -2.833,-1.334 0,-3.5 -2.667,-3 -1,-3.834 -2.5,-1.5 -2.667,-3 1,-3.5 -1,-5.167 -3.166,-2.332 -3.667,-2.833 -1.167,-3.834 -2.5,-2 -0.833,-2.333 2.167,-2.5 1.667,-3.667 0,-3.5 -1.833,-3.333 -1.833,-2.833 1.667,-1.333 1,-2.5 2,0 1.5,-1.333 1.167,-4.5 0.333,-2.667 -1.334,-3.333 -1.834,-1.834 -2.5,-0.333 -1.833,-2 -1.5,-2.167 -2.25,1.916 -1.75,-1.75 -1.5,-2.5 1.5,-2.667 3.167,-3.167 2.167,-2.5 0.833,-3 2.5,-0.167 1.833,2 1,2.5 3.333,1.168 3.167,-1 0.833,-3.333 1,-3.667 -2.5,-2.5 1.667,-1.167 -0.167,-2.833 1,-4 1.833,-4.333 1.333,-3.667 3.333,-1 1.167,-2.5 3.167,-2.667 0,-5.667 -2.833,-2.666 -3.167,-0.833 1,-2.5 0.833,-2.667 -2.333,-2.333 -1.5,-3.333 0.5,-2.333 3.167,-3.167 1.833,-3.333 -0.833,-3 2.667,-0.667 4,-2.5 0,-3.5 1.667,-2 4.166,-0.167 1.833,-2.167 0.167,-2.5 3.5,-1.333 2.833,-3.833 3.833,0.167 3.333,-2 4.5,1 0.667,-2.5 1.5,-1.5 2.833,1.333 2.333,2.5 3.668,1.166 1.333,3 1.333,3.333 2,-2 -0.333,-4.833 -3,-2.667 0,-5.667 2.667,-0.666 0.833,-0.833 -3.667,-1.5 -2.167,-2.5 37.333,-0.167 7,-2.5 0,-4.333 1.167,-11 4.667,0 4,-3.167 0,-4.333 3,-1.167 0,-5.667 2.667,-0.167 5.833,-4.667 2.833,1.333 6.167,-11.5 0.417,-3.083 5.083,-5.083 8.5,0 2.667,-4.667 0,-9 5.333,-2.667 7,-3.5 4.833,1.833 2.834,0 2.333,2.333 2.862,-1.994 -0.696,3.494 2.833,-0.333 4,0.167 0,2.667 0.833,3 -1.833,-1.167 -1.917,-1.917 -1.75,1.75 0.833,3.167 0,3.167 2.833,1.5 2.167,2.167 0,3.5 2.417,1.167 0,3.917 2.75,2.75 1.333,4.667 0,4.833 -0.833,4.167 1,2.333 0.083,5.083 2.917,2.917 -0.167,3.667 -0.667,6 -2.917,5.083 -4.417,4.417 -4.667,0 -5.167,1 -4.5,-1.667 -4.917,-2.75 -3.079,-3.084 0,-4.5 -3.167,-3.167 -1.5,-3.5 -1.167,-3.333 -2.166,-3.666 -1.167,-6.167 -2.333,-1 0.75,-3.75 1.917,-1.917 -2.333,-2.333 -1.083,2.917 -1.583,1.583 0.667,3.667 0.083,4.25 -1.833,1.833 2.417,2.417 -0.667,3.667 -2.333,5.167 -4.083,1.25 -3.25,3.25 -1.25,5.917 -3.083,3.083 1,3.5 1.5,4.333 -2.417,4.25 3.417,3.417 3.664,3.666 4.167,-3 0.833,-4.166 -2.167,-2.167 0.333,-3.667 0,-2.833 2.833,-3 2.833,0 1,7.5 0.917,4.917 2.917,2.917 1.833,3.833 4.75,1.417 1.417,-1.417 -1.167,-2.833 2.833,-2.333 0.167,-5.833 5.167,0.833 4.833,-1.833 4,2.167 4.5,-1.417 3.083,0 1.918,1.915 2.833,4.333 -2.333,2.333 0,3.667 2.083,-2.583 2.917,-2.917 4,-0.833 3.333,-4.833 0,-4.167 1.333,-2.833 4.333,-2.167 0,-2.667 4.167,-2.5 0,-4.167 -0.667,-4 2.833,0 0.917,2.083 3.75,3.75 2.833,4.333 0,5.833 -1,3 -1.5,1.5 -2.5,-2.5 -3.5,-0.833 -5.333,1.833 0,4.333 1.333,4 0,3.333 3.833,1 3.667,1.667 4.167,-2 0,-3 4.333,-1 4.167,2 -0.667,-2.667 6.5,1.167 3.5,-0.667 6.333,0.833 3.667,0 1.833,3.333 1.667,0 0,-3 5.333,-1.667 2.835,0 1.167,4.333 -3.167,0 -1,3 -2.5,0.833 3.833,3.5 2.667,0 5,-2.167 4.75,0.917 5.167,5.167 1.75,-1.75 3.5,0 4.417,-1.417 1.75,1.75 -0.5,2.333 -2.667,1.833 0,2.833 3.167,2.667 0.25,-3.083 1.417,-1.417 3.333,0.833 0,-2.667 3.167,-0.5 0.667,-4 -0.5,-4.833 3,-1.5 2.583,-0.75 3.083,3.083 1.333,-1.333 3.417,4.25 3.917,3.917 3.167,3.167 2.083,4.25 3.917,3.917 2.667,4.167 2.833,3.833 0,3.333 2.332,3.671 3.333,-2 0,-3.5 3.833,-3.5 -2.667,-0.833 -1.833,-4.333 0.667,-4.667 -3.167,-2.167 -1.75,-3.583 1.583,-1.583 3.333,-1.667 0,-2.667 0.833,-4 1.5,-2 0,-2.5 -2.167,-0.667 1.167,-3.333 1.833,-2.333 3.333,-1.167 3.583,-1.75 1.25,-1.25 2.833,-2.833 2.167,-4.833 1.667,-4 1.833,-4 3.167,-1.667 2,2.833 4,0 2,2 3.5,0 1.5,5.667 -1.667,1.667 -0.75,6.083 -4.75,4.75 -1.333,4.333 2.833,2.5 -1,5.667 -0.833,4.5 -3.333,5 -1.167,7.167 -1.833,6.333 -1.333,3.167 1.25,4.417 2.917,2.917 -0.5,2.667 -3.667,2.833 -0.667,6.167 -3.667,1 -4.333,4.333 -2.5,3.667 -2.333,1.333 -4.167,-0.833 -2.5,1.667 -2.75,-1.75 -1.75,-1.75 -2.5,-0.833 0,3.167 2.5,3.833 2.5,1.167 3.333,2.333 2.833,-0.167 2,2.833 3,0 c 0,0 1.25,-2.25 0.583,-2.917 -0.667,-0.667 1.75,-1.75 1.75,-1.75 l 2.167,0 1,-1 4.167,-1.167 3.333,-1.833 0,-3.5 1.5,-1.5 2.583,-2.583 2.083,-2.083 1,-4 -0.833,-3.5 -0.333,-3.167 2.25,-2.25 2.25,-2.25 3.5,0 3.833,-0.5 1.083,3.25 1.583,1.583 2,5.167 -2.663,2.665 0.167,4 0,2.5 3.333,3.333 3.833,0.833 0,-2.333 -3.75,-1.083 -1.417,-1.417 0,-2 -0.333,-3 2.667,-0.833 1,-2.167 -1,-3.167 1.167,-2.667 -1.667,-3.333 -2.167,-2 -1.333,-1.333 -4.083,-1.417 -2.333,-2.333 -1.917,1.917 -2.5,1.167 -1.333,-1.833 -3,0 -0.5,-3.167 2,-2 -0.5,-5.333 2.333,-3.667 1.5,-4.333 3.333,-3.333 -1.167,-3.667 -1,-3.167 0.417,-3.416 -2.417,-2.417 2.667,-2.667 4.167,-4.167 3.5,0 2,-3.167 1.333,-3.5 -1.167,-2.833 1.167,-2.5 2.667,0 -0.833,3.5 0,4.833 -0.667,4.333 -3,3 0,4.167 0,3 3.5,2.667 2,1.667 2.583,-1.583 2.583,2.583 2.833,2.667 0,-2 -1.083,-2.583 -1.917,-1.917 -3,-1.5 0,-1.333 -2.5,-2.5 -1.166,-3.668 3.5,-2.333 1.667,1.667 2.667,2.667 2,-1.833 -0.667,-2.167 -0.25,-1.917 1.917,-1.917 3.333,0.667 2.75,-0.417 2.25,2.25 4.333,2.333 -1.167,3.333 1.083,1.083 2.917,2.917 4.5,0 0.667,-2.667 -1.833,-2.5 0.167,-2.333 -3.167,-1.167 -2.333,-3.833 -1.334,-1.333 1,-4 1.5,-3.333 -1.333,-1.333 -0.833,-4.167 3.333,-3 7.833,0 4,1.5 0,-1 6.5,0 4.333,-1.833 3.166,0 1.667,-1.667 -1.667,-2.5 -2,-0.667 -1.667,-1.667 c 0,0 0.667,-0.667 1.917,-1.917 1.25,-1.25 1.25,1.25 1.25,1.25 l 2,-0.5 -1.333,-1.5 0.917,-2.083 -1.417,-1.417 1.667,-2.333 2.333,-1.833 -2.333,-0.167 -0.167,-2.5 4.667,0.167 1.833,-3.833 4.583,-1.75 1.75,-1.75 6.25,-0.917 1.583,-1.583 4.5,-1.333 1,-1.167 -3,-1 1.667,-1.667 4.333,-1 3.667,-0.5 0.833,-1.833 3,-0.5 -1.583,3 0,2.417 2.083,-2.083 5.168,0.166 0.5,-2.667 3.333,-0.667 3.333,0.667 -1.5,-2 -2,-1.5 -1,-1.833 3.667,0 3.833,-1.167 1.167,0 -0.333,-2.833 -1.334,-1 0,-4 0.834,-2.667 2.5,-6.167 3,-2.167 2.666,-2.833 3.334,2 2.5,-0.333 0.75,3.417 -2.584,2.583 -2.166,2.833 5.291,0.292 1.042,-1.042 3.25,0 2.417,2.417 -2.167,2.167 c 0,0 -0.167,2.167 0.833,2.167 1,0 3.667,1.167 3.667,1.167 l 0.833,-2.833 -1.5,-1.5 3.667,-2 3.333,0 3.417,-2.417 1.917,1.917 2.583,-1.25 1.917,1.917 1.666,3.333 2,1.667 1.167,-1.333 1.75,1.75 2.25,2.25 -0.333,3.5 -3.334,-0.667 1.334,1.333 3.333,1.833 2.083,3.583 -1.916,1.916 0,3.333 -1.667,2.333 -1.583,3.25 -1.917,1.917 -3.333,4 0,1.667 -1,4.667 -2.5,2.5 -1,5.167 -4,1 -1.25,3.75 -2.75,2.75 -0.667,4.333 -0.833,3 3,-1.333 -0.667,-3.333 3,-1.833 c 0,0 2.667,-0.833 4.167,-0.833 1.5,0 2,-3 2,-3 l 2.833,-2.333 2.667,-1 1.583,-3.083 -1.25,-1.25 -2,-0.167 0.167,-1.335 -0.167,-2.667 2.5,-0.167 2,0 2.833,0.667 3.334,1.333 0.666,-2 2.084,-2.917 1.75,1.75 0,3.333 2,2.833 2.333,0 -2.333,-2.165 1.583,-1.583 3.083,-3.083 4.167,-2.167 6.333,-1.167 5,-1.5 1.251,1.917 -1.167,1.167 2.75,2.75 5.166,0 0.167,-1.333 0.5,-1.833 2,3.167 3.5,-1.333 3.5,-3 c 0,0 3.667,-0.667 4.5,-0.667 0.833,0 0,-3 0,-3 l -0.5,-3.333 -2.5,-3.833 0.667,-3.833 0.5,-2 2,2 2.083,-1.583 1.75,1.75 2.667,1.833 0.666,-2 1.334,-0.336 1.333,1.5 1.333,-1 c 0,0 -0.166,-3.083 1.084,-3.083 1.25,0 1.583,-1.583 1.583,-1.583 l 3.667,2.833 1.166,-1.167 4,1.333 -1.333,4.083 1.916,0 1.917,1.917 0,3.167 3.167,-2 1.667,1.667 0,3.667 -2.167,0.667 -1.333,1.332 2.333,2.333 c 0,0 1.833,-0.833 1.833,-1.667 0,-0.834 1.5,1.5 1.5,1.5 l 0,2.667 3.417,-0.084 3.25,3.25 2.5,1.667 3.5,0.667 1.5,-1.5 3.833,2 0.334,-3.166 -1.667,-5.5 -1,-2.5 0,-2.333 -2.167,-2.167 0,-3 4.167,0.5 2.333,2.333 3.667,-1 4.167,0 -0.834,-4.333 2.334,-4.333 4.333,-1 3.167,-0.167 3.666,1 0,-2.5 -3.916,-1.75 1.416,-1.417 1.834,-2 3.166,0.167 2.5,-2.5 -1.166,-0.667 -2.5,-2.5 -2.834,-1.5 0,-3.667 -1.166,-1 -1.667,4.333 -2,-1.333 0,-3.5 3.667,-3.333 -0.5,-2.333 -3.5,-2.167 2.166,-2.167 3.167,0 4.667,-2.333 1.333,-3.833 6.167,-2.333 4.833,-2.167 c 0,0 0.667,0.667 0.667,1.667 0,1 -3.167,2.167 -3.167,2.167 l -1.167,4.5 2.834,-1.334 2.5,-2.5 3.166,1 -0.833,6.5 2.833,-2.667 0,-3.167 -1,-5.333 0.667,-2.333 1.5,-4.167 3.5,-1.667 5,-2.167 3,2.167 c 0,0 -1.417,1.917 -2.5,3 -1.083,1.083 1.167,1.834 1.167,1.834 l 3.666,0 2.334,-2.667 c 0,0 2.666,2.833 3.166,3.333 0.5,0.5 -0.5,-3.833 -0.5,-3.833 l 4.5,-2.5 3.167,1.667 3.5,-0.166 3.167,-3.167 3.333,-4.167 0,-4.833 4.167,-6.167 3.5,-3.5 3.166,-3.833 5.5,-0.833 4.584,-0.25 2.25,2.25 4.666,4.667 4.167,-1.833 3,-2.417 3.25,0 -1.583,-1.584 0,-2.334 3.166,-3.166 0,-5.5 1.5,-2.833 2.5,0 2.167,-2.167 0,-3.333 4.167,-3 1,-4 -1.667,-1.667 0.667,-2 -2.333,-3.333 1.833,-3.334 1.75,-1.75 3.167,3.167 -2.417,2.417 2.5,2.5 3.833,0 2.667,-1 3.667,-1.667 3.333,-0.833 0.833,-2.667 -1,-2.667 -1.833,-0.333 -5.667,-2.5 -4.166,0.667 -1,-2.333 -3.334,0 0,-1.833 0.834,-3.167 3,-1.5 0.333,-3.5 2.667,-1.5 2.333,0 -1,-2.833 1,-3 2.833,-4.168 z" />
      <polygon
         id="polygon115"
         points="884.477,395.399 885.053,392.513 883.467,390.207 880.727,390.784 880.727,390.784 879.285,392.37 879.285,394.388 879.285,396.551 881.736,395.542 883.035,396.84 " />
      <path
         inkscape:connector-curvature="0"
         id="path117"
         d="m 920.815,375.931 -1.154,0.289 -0.864,-2.452 0,-2.163 3.749,1.009 1.874,0.865 1.01,2.308 2.019,2.019 3.605,0.721 0.865,2.307 4.037,2.596 2.163,0 1.73,2.451 1.442,3.894 2.235,2.234 4.254,4.399 2.739,0.721 3.75,1.442 3.605,3.173 4.903,2.739 3.172,2.74 4.183,2.163 3.604,2.163 2.308,1.874 4.037,1.587 -0.576,1.875 -1.441,1.441 -2.74,0.865 -2.163,0 0.577,3.028 -0.577,2.163 0,1.73 2.451,3.75 c 0,0 2.309,2.594 1.875,3.027 -0.434,0.433 0.145,4.471 0.145,4.471 l 1.875,1.875 2.884,2.885 2.451,1.586 3.749,0 2.163,2.162 2.451,0 1.298,2.74 3.173,0.145 1.946,-1.947 3.389,1.947 2.02,2.596 c 0,0 0.722,1.73 0,1.73 -0.722,0 -4.615,-1.875 -4.615,-1.875 l -1.658,1.658 -3.677,0 -1.153,2.957 0.721,2.883 2.307,2.307 1.73,3.75 -2.307,1.875 -1.875,-2.307 -2.451,-2.453 -4.326,-4.037 0,-2.74 -2.884,-2.883 -2.739,-2.74 -1.875,-2.451 -2.308,-4.471 -2.884,-2.74 -3.028,-1.73 -2.884,-0.865 -2.453,-5.191 -5.335,-7.354 -4.326,-4.327 -3.604,-3.604 -3.174,-4.326 -2.019,-3.316 -5.479,-2.452 -4.326,-1.874 -2.596,-0.289 -3.461,-4.759 0,-2.162 -3.749,-3.75 -2.019,-3.749 -4.038,-1.298 1.01,-2.884 0,-2.163 3.316,1.009 0.577,-2.884 -1.946,-1.946 0,-1.082 -1.911,-1.912 -2.777,-0.973 z" />
      <polygon
         id="polygon119"
         points="1042.666,451.203 1043.243,454.23 1043.531,457.115 1044.686,457.547 1044.686,455.24 1045.551,453.365 1045.551,450.77 1042.666,451.203 " />
      <polygon
         id="polygon121"
         points="1052.616,454.23 1054.491,455.24 1054.491,453.076 1052.616,452.934 1052.616,452.934 " />
      <polygon
         id="polygon123"
         points="1049.444,430.148 1046.992,429.428 1046.271,433.178 1047.209,434.113 1046.416,436.926 1046.704,441.252 1046.704,441.252 1048.435,441.973 1049.012,439.666 1048.146,435.053 1049.732,433.467 " />
      <polygon
         id="polygon125"
         points="1050.309,422.938 1050.886,425.391 1052.04,423.66 1051.03,422.217 1051.03,422.217 " />
      <polygon
         id="polygon127"
         points="1055.067,408.374 1055.645,411.546 1054.635,413.853 1052.761,413.42 1052.761,413.42 1053.481,409.671 1052.473,407.365 1053.049,404.913 1054.996,402.965 1055.5,405.634 " />
      <polygon
         id="polygon129"
         points="972.151,202.308 973.305,203.75 973.449,206.345 975.757,207.21 975.18,204.615 974.17,202.596 975.18,199.279 975.18,195.242 972.439,194.088 970.709,195.098 970.709,195.098 970.709,198.27 970.421,201.154 " />
      <polygon
         id="polygon131"
         points="1029.399,211.249 1026.804,210.239 1026.804,210.239 1024.785,210.96 1025.795,213.123 1029.256,213.123 1032.717,213.123 1034.88,210.96 1032.14,210.095 " />
      <polygon
         id="polygon133"
         points="1035.891,319.111 1034.521,320.481 1036.107,322.068 1037.044,324.014 1036.756,326.61 1036.611,329.926 1038.125,331.44 1039.784,330.503 1039.784,327.042 1041.298,325.529 1040.072,322.572 1038.054,320.553 1038.197,317.958 1036.756,316.516 1036.756,316.516 " />
      <polygon
         id="polygon135"
         points="1042.956,341.174 1044.398,341.895 1045.408,340.598 1042.956,339.011 1042.956,339.011 " />
      <polygon
         id="polygon137"
         points="1054.637,381.263 1054.637,384.436 1054.637,387.031 1056.656,387.031 1056.079,384.58 1056.079,382.993 1056.079,381.119 1054.637,381.263 " />
      <polygon
         id="polygon139"
         points="1040.939,202.305 1039.065,202.738 1039.065,202.738 1037.19,204.036 1038.199,205.045 1039.569,203.675 " />
      <polygon
         id="polygon141"
         points="850.372,30.993 848.222,29.284 848.222,29.284 846.898,28.788 845.741,30 843.205,31.324 841.138,33.391 841.33,36.947 840.448,37.83 840.889,40.696 842.543,43.122 844.252,47.092 846.898,47.643 848.69,45.851 850.041,43.398 848.553,41.799 850.758,38.601 850.372,35.128 " />
      <polygon
         id="polygon143"
         points="38.427,267.771 39.75,269.941 41.074,270.841 41.55,274.07 40.386,276.505 34.828,279.311 26.411,269.306 21.541,258.137 21.541,258.137 24.135,258.719 26.358,258.084 27.205,256.443 29.216,256.761 31.096,258.64 31.175,261.207 32.71,261.684 33.028,263.695 35.41,264.119 35.939,262.213 34.643,260.916 35.754,259.805 36.469,260.52 38.745,262.425 38.745,265.283 " />
    </g>
    <path
       inkscape:connector-curvature="0"
       id="Central"
       d="m 105.167,353.12 0.833,-3.333 1,-3.667 -2.5,-2.5 1.667,-1.166 -0.167,-2.834 1,-4 1.833,-4.333 1.334,-3.667 3.333,-1 1.167,-2.5 3.166,-2.666 2.834,-0.251 2.25,2.75 1,-2.833 2.333,0 1,-1.75 0.917,-2 0.333,-3.5 1.5,-1.5 0.252,-2.083 2.583,-2.167 1.001,2.166 1.509,1.509 2.91,0 1.455,1.455 2.533,-0.162 1.94,1.186 3.557,0 1.886,1.886 2.318,0.27 1.401,-1.401 2.802,0 1.779,-1.779 2.209,0 1.833,0.916 c 0,0 0.862,1.347 1.347,1.347 0.485,0 0.593,2.425 0.593,2.425 l 2.372,0 1.617,1.94 2.156,0 0.431,-1.401 1.401,1.401 c 0,0 2.263,1.078 2.695,1.078 0.432,0 2.371,1.078 2.371,1.078 l 1.509,0.862 1.94,0.755 2.695,-0.539 2.371,0.754 -0.862,2.803 -5e-4,3.3415 2.0535,-0.3735 3.07,-0.292 1.754,1.754 4.166,2.851 1.608,-1.608 3.142,3.142 0,6.578 3.948,3.947 3.654,-1.608 4.093,-1.023 3.655,1.608 3.362,-1.608 2.192,4.678 4.312,0.804 3.29,3.289 1.169,3.216 6.14,3.216 2.266,3.289 1.534,-1.535 3.655,0.877 2.046,-3.216 3.874,3.435 -1.973,2.266 -0.585,7.894 -4.678,0 -1.973,2.119 -1.681,-1.681 -4.02,1.388 -2.595,2.595 -1.133,-1.133 -3.142,0 -1.828,-1.827 -1.169,-2.777 -2.924,0 -1.9,1.9 -5.116,1.316 -3.947,-0.877 -3.362,0 -1.316,3.362 -3.362,0 -2.339,-2.339 -1.9,1.901 -0.877,3.508 -2.12,2.12 -4.313,0.511 -3.654,1.17 -3.362,0.585 -2.046,2.047 -2.777,0.584 -1.889,1.903 0,3.043 1.607,1.099 1.099,1.099 0,1.606 0.591,1.522 -1.606,1.607 -2.028,0.507 -1.015,1.014 -1.564,1.564 -1.902,0 0,1.309 -1.479,1.48 -1.902,1.31 -1.606,-0.76 -1.902,2.156 -1.564,1.563 0.592,2.621 -0.592,4.395 1.353,2.452 -0.339,5.24 -2.789,0 -0.93,1.691 -3.297,2.03 -2.916,1.562 -1.649,1.649 -1.606,0.086 -2.346,1.062 1.335,3.426 -1.219,1.219 -3.368,0 -2.555,-1.393 -0.581,-1.859 -2.439,-0.465 -2.322,2.092 -4.762,0 -1.219,4.005 -3.892,3.891 -4.297,0 -1.51,1.51 -2.322,0 -1.163,-1.625 -2.887,0 0,-2.106 -1.282,-1.281 -2.833,-1.334 0,-3.5 -2.182,-2.455 -0.485,-0.545 -1,-3.834 -2.5,-1.5 -2.666,-2.999 1,-3.5 -1,-5.167 -3.167,-2.333 -3.666999,-2.833 -1.166,-3.834 -2.5,-2 -0.834,-2.333 2.167,-2.5 1.667,-3.667 0,-3.5 -1.834,-3.333 -1.833,-2.833 1.667,-1.333 1,-2.5 2,0 1.5,-1.334 1.166,-4.5 0.333999,-2.666 -1.333999,-3.334 -1.833,-1.833 -2.5,-0.333 -1.833,-2 -1.5,-2.167 -2.25,1.916 -1.75,-1.749 -1.5,-2.5 1.5,-2.667 3.166,-3.167 2.167,-2.5 0.833,-3 2.5,-0.166 1.834,2 1,2.5 3.332999,1.166 3.167,-1 z"
       style="fill:#cccccc;stroke:#000000" />
    <path
       inkscape:connector-curvature="0"
       id="Volga"
       d="m 276.003,500.049 2.705,0 3.213,0 1.944,-0.762 2.705,1.184 1.691,0 1.183,2.113 -0.845,2.113 -3.128,1.522 0.254,2.113 1.775,0 0.5,2.621 1.083,2.416 2.334,2.334 1.583,1.582 0.667,2.834 2.333,2.334 -2.333,3.166 -2.167,2.166 -3.667,0 -3.75,0.25 -1.916,-1.916 -1.334,-2.709 -1.708,0 -1.792,1.793 -2.916,0 -3.25,-3.25 -0.625,-1.875 -2.459,-2.459 0,-4.25 -2.083,-2.084 -3.833,0 -3.167,1.168 -1.167,-2.5 -3.166,-2.5 -2.834,-1.5 -3.833,1.834 -3.5,0.5 -2.833,-0.834 -2,-3.834 -2.834,-2.5 -2,3.334 -2.166,0 0,-2.666 2,-2 -1.334,-2.834 -1.666,-4.334 -0.667,-4.5 -2.5,-3 -4,-1.5 -1.166,-2.832 -2.167,-2.168 -4,0.668 -2.334,0 0,-3.168 -1.166,-3.332 -4.084,-0.752 -2.083,2.084 -3.833,1.334 -3.334,-1.834 -3.5,0 -1.666,2.5 -3.5,0 -3.834,0 -0.833,1.834 -2.167,2.166 -0.333,3.166 -4.083,-0.748 -2.417,-2.418 0,-3.334 1.084,-3.25 -1.751,-1.75 -2.833,0 -0.12,-3.34 -2.032,-2.033 -0.465,-2.496 -2.381,0 -1.567,-1.568 -0.697,-3.368 -2.381,-0.871 -1.219,1.219 -2.207,-2.09 3.02,-2.904 -0.465,-4.646 -3.949,-3.833 -3.368,0.118 0,-1.975 -2.207,-1.162 -3.716,-0.465 -1.045,-3.949 0.231,-2.904 1.219,-1.219 -1.335,-3.426 2.346,-1.062 1.606,-0.086 1.649,-1.649 2.916,-1.562 3.297,-2.03 0.93,-1.691 2.789,0 0.339,-5.24 -1.353,-2.452 0.592,-4.395 -0.592,-2.621 3.466,-3.719 1.606,0.76 1.902,-1.31 1.479,-1.48 0,-1.309 1.902,0 2.579,-2.578 2.028,-0.507 1.606,-1.607 -0.591,-1.522 0,-1.606 -2.706,-2.198 0,-3.043 1.889,-1.903 2.777,-0.584 2.046,-2.047 3.362,-0.585 3.654,-1.17 4.313,-0.511 2.12,-2.12 0.877,-3.508 1.9,-1.901 2.339,2.339 3.362,0 1.316,-3.362 3.362,0 3.947,0.877 5.116,-1.316 1.9,-1.9 2.924,0 1.169,2.777 1.828,1.827 3.142,0 1.133,1.133 2.595,-2.595 4.02,-1.388 1.681,1.681 1.973,-2.119 4.678,0 0.585,-7.894 1.973,-2.266 1.097,-1.096 0,-3.07 2.338,-1.169 -3.654,-3.801 1.754,-1.608 3.157,1.403 5.929,-5.929 1.792,-1.541 1.25,0.417 3.167,3.75 -0.584,1.833 1.5,0.75 0.309,2.533 -2.047,2.047 0,3.362 -3.216,0.73 0,2.193 -2.192,2.193 0,2.485 1.753,1.754 0,2.485 0.731,2.632 -1.023,2.339 1.169,1.169 1.901,-2.339 1.169,-3.362 2.924,-0.731 3.07,1.462 1.9,1.9 2.631,-2.485 1.389,1.388 0.804,1.828 2.485,-0.292 1.535,-1.536 2.704,0 2.546,-1.005 0,-2 -1.687,-1.688 1.562,-3.062 3.375,1.875 1.188,-1.188 1.187,1.188 1.625,-1.625 2.125,0.75 0.875,1.375 -0.375,2.125 1.75,2.125 2.125,-0.75 3.625,1.625 2.375,2.375 2.625,-1.375 3,1.125 1.688,-1.688 1.687,0.563 1.188,1.187 1.687,-0.562 1,-2.125 1.75,0 3.875,2.625 3.75,2 4.25,1.625 5.75,0.875 0,2.625 -3.375,1.75 0,3.375 -1.875,4.625 -3.375,3 -2.5,3.75 -2.25,2.25 -2.875,0 -2.75,2.375 0,4.25 2.125,3.375 -1.125,3.75 -1.687,1.687 0,1.188 1.812,1.875 -2.062,2.062 -2.063,1.687 -2.875,-0.625 -3,2 0.125,1.625 1.313,1.313 -1.813,1.812 -1.25,1.25 -2,-3 -2.25,0 -1.75,2.875 -0.75,3.125 -2.75,1.375 -3.25,0 -1,-1 -1.125,2.25 0,2.875 -1.312,1.313 -2.184,2.418 2.141,2.963 3.869,2.798 2.387,0 1.973,2.879 2.118,-2.117 0.676,2.789 -0.761,2.535 -2.029,3.721 0,2.027 -3.762,0.889 -2.24,2.24 -3.466,-1.267 0,-2.284 -1.859,-1.859 -2.705,-1.353 -2.536,-0.76 -3.635,2.705 0.676,3.211 1.606,1.607 0.507,4.481 2.114,3.381 4.142,0.421 1.775,-1.183 4.058,1.269 1.183,3.635 0,3.211 -1.944,0 -1.184,-1.607 -2.789,0.254 0,1.183 -2.579,0.887 -3.423,3.424 0,1.861 -2.198,2.957 0,2.875 -1.775,0 -2.282,4.143 -0.423,2.451 -2.621,1.183 -1.015,1.774 z"
       style="fill:#cccccc;stroke:#000000" />
    <path
       inkscape:connector-curvature="0"
       style="fill:#cccccc;stroke:#000000;fill-opacity:1"
       id="Urals"
       d="m 323.5,490.285 5.667,-0.166 3.833,1.166 2.833,0 3.167,1.668 3.333,-0.668 1.917,-1.916 1.75,0 4.333,2.25 4.5,0 3.667,-0.666 3,1.666 3.667,-1 4.166,0 2.0005,-2.834 3.6665,0.334 3.333,2 4.167,0 1.5,3 3,0 0,-2 0.938,-1.937 1.687,-1.688 0,-2.25 1.375,-0.25 1.75,-1.75 0.688,-1.75 0,-2.937 2.375,-2.375 1.812,-1.813 3.188,-0.562 1.187,-1.188 0,-2.25 -2.5,-1.375 -0.812,-1.937 -1.563,-1.563 -2.25,-1.125 0,-1.875 2.625,-1.25 -1.125,-3.375 0.25,-2.625 2,-2 1.5,-2.5 2.5,-1.75 2.625,2.625 -1.625,1.625 0,2 2.25,0.75 2.875,0.875 1.875,0.875 2.125,1.375 2.75,0 1.75,-1.625 2.875,1.5 2.5,0.75 4,0 3.313,-1.562 2.687,-2.688 1.5005,-2.1265 4.7245,-2.7635 0.513,-3.49 4.516,-3.285 5.542,-1.539 -0.308,-5.234 1.95,-4.824 1.95,-3.9 5.337,-0.82 4.003,1.744 5.748,0 1.437,2.156 5.337,0.615 4.157,-1.59 3.849,3.848 3.182,-0.82 4.414,2.258 1.231,-4.105 6.569,-2.771 6.158,4.516 3.798,-3.797 5.953,-2.566 2.463,-4.105 -4.721,-2.053 -4.208,-2.771 -0.0185,-5.1175 3.9525,-3.9175 1.417,-1.417 0.25,-3.75 2.417,-2.417 0,-4.166 -2.5,-3.5 1.667,-3.167 2.417,-3.084 2.25,-2.25 -1.167,-2.667 0.667,-3.5 -0.667,-4 -1.917,1.917 -1.917,-1.917 -3.833,-0.833 -0.833,-3.5 1.667,-1.667 -0.333,-3.833 -1.5,-3 -2,-2 -2,0 -1.833,-3.333 1.5,-1.167 0,-3 -1.167,-2 0,-1.667 2.25,-2.083 -1.417,-2.917 -3.667,-2.167 0,-2.333 -1.5,-1.5 1.417,-2.5 -0.542,-3.042 -1.625,-1.625 0.083,-2.667 2.333,0.5 0.625,-2.042 1.792,-1.792 1.083,-3.167 -1.333,-2.5 1.25,0 0.917,-2.417 -1.583,-3.833 0,-2.583 -2.583,-0.5 0.083,-3.25 -2,1.917 -1,-1 -2,1.75 -1.083,-1.083 -0.417,-2.167 -3.167,-0.5 -2.083,-2.083 -0.458,-1.792 -1.458,-1.458 -0.167,-3.083 3.042,-2.292 2.458,-2.458 1.25,-2 3.333,0 0,-5.75 0.333,-4 -3.583,-2 -0.958,-1.958 -0.792,0.792 -1.042,-2.208 0.875,-0.875 1.417,-1.417 3.167,-0.5 -0.333,-1.75 1.583,-1.583 -0.583,-2.167 -2.333,-1.25 -2.25,-0.583 -1.25,-1.25 -0.667,-1.833 -1.583,0 -0.167,-2 -1.917,1.917 0.25,1.917 0.667,2.166 -2,1.834 -2.667,-2.667 -1.667,-1.667 -3.5,2.334 1.167,3.666 2.5,2.5 0,1.334 3,1.5 1.917,1.916 1.083,2.584 0,2 -2.833,-2.668 -2.583,-2.583 -2.583,1.583 -2,-1.666 -3.5,-2.666 0,-3 0,-4.168 3,-2.999 0.667,-4.333 0,-4.834 0.833,-3.5 -2.667,0 -1.167,2.5 1.167,2.834 -1.333,3.5 -2,3.166 -3.5,0 -4.167,4.167 -2.667,2.667 2.417,2.416 -0.417,3.416 1,3.168 1.167,3.666 -3.333,3.334 -1.5,4.332 -2.333,3.668 0.5,5.332 -2,2 0.5,3.168 3,0 1.333,1.832 2.5,-1.166 1.917,-1.916 2.333,2.333 4.083,1.417 1.333,1.333 2.167,1.999 1.667,3.334 -1.167,2.666 1,3.168 -1,2.166 -2.667,0.834 0.333,3 0,2 1.417,1.416 3.75,1.084 0,2.332 -3.833,-0.832 -3.333,-3.334 0,-2.5 -0.167,-4 2.667,-2.667 -2,-5.167 -1.583,-1.583 -1.083,-3.249 -3.833,0.5 -3.5,0 -2.25,2.25 -2.25,2.25 0.333,3.166 0.833,3.5 -1,4 -2.083,2.084 -2.583,2.583 -1.5,1.5 0,3.5 -3.333,1.833 -4.167,1.167 -1,1 -2.167,0 c 0,0 -2.417,1.083 -1.75,1.75 0.667,0.667 -0.583,2.917 -0.583,2.917 l -3,0 -2,-2.834 -2.833,0.167 -3.333,-2.333 -2.5,-1.167 -2.5,-3.833 0,-3.167 2.5,0.833 1.75,1.75 2.75,1.75 2.5,-1.666 4.167,0.833 2.333,-1.333 2.5,-3.667 4.333,-4.333 3.667,-1 0.667,-6.167 3.667,-2.833 0.5,-2.667 -2.917,-2.917 -1.25,-4.416 1.333,-3.167 1.833,-6.333 1.167,-7.167 3.333,-5 0.833,-4.5 1,-5.667 -2.833,-2.5 1.333,-4.333 4.75,-4.75 0.75,-6.083 1.667,-1.667 -1.5,-5.667 -3.5,0 -2,-2 -4,0 -2,-2.833 -3.167,1.667 -1.833,4 -1.667,4 -2.167,4.833 -2.833,2.833 -1.25,1.25 -3.583,1.75 -3.333,1.167 -1.833,2.333 -1.167,3.334 2.167,0.666 0,2.5 -1.5,2 -0.833,4 0,2.667 -3.333,1.667 -1.583,1.582 1.75,3.584 3.167,2.167 -0.667,4.667 1.833,4.333 2.667,0.833 -3.833,3.5 0,3.5 -3.333,2 -2.333,-3.666 0,-3.334 -2.833,-3.833 -2.667,-4.167 -3.917,-3.917 -1.307,-2.666 -1.359,2 -2.625,2.625 1.625,1.542 0.333,1.25 1.25,0.417 0,5.667 -1.583,0 -0.75,1.833 -1.333,0.667 -0.25,1.833 -0.254,1.249 3.333,1.667 0,2.167 -3.083,1.25 2.583,2.583 -4,2 -3,3 -3.167,0 -1.167,3.667 -5.667,0 -5.333,1.167 -5.333,3 0,3.667 -4.3695,-0.167 -3.2425,0.499 -1.75,2 -3.125,1.625 -3.125,3.125 -2.875,0.375 0,-2.625 -2.125,-0.75 -2.563,2.563 -3.438,3.438 -1.5,2.875 0.625,3.625 -4,2.5 -0.375,3 -3.375,2.125 -2.25,4.25 0.625,2.875 -1.375,2.625 0,2.25 -4.125,4.125 -0.5635,2.9375 -1.5635,1.5625 -0.875,2.375 0,2.625 -3.375,1.75 0,3.375 -1.875,4.625 -3.375,3 -2.5,3.75 -2.25,2.25 -2.875,0 -2.75,2.375 0,4.25 2.125,3.375 -1.125,3.75 -1.687,1.687 0,1.188 1.812,1.875 -2.062,2.062 -2.063,1.687 -2.875,-0.625 -3,2 0.125,1.625 1.313,1.313 -1.813,1.812 -1.25,1.25 -2,-3 -2.25,0 -1.75,2.875 -0.75,3.125 -2.75,1.375 -3.25,0 -1,-1 -1.125,2.25 0,2.875 -1.312,1.313 -2.184,2.418 2.141,2.963 3.869,2.798 2.387,0 1.973,2.879 2.118,-2.117 0.676,2.789 -0.761,2.535 -2.029,3.721 0,2.027 -3.762,0.889 -2.24,2.24 -3.466,-1.267 0,-2.284 -1.859,-1.859 -2.705,-1.353 -2.536,-0.76 -3.635,2.705 0.676,3.211 1.606,1.607 0.507,4.481 2.114,3.381 4.142,0.421 1.775,-1.183 4.058,1.269 1.183,3.635 0,3.211 -1.944,0 -1.184,-1.607 -2.789,0.254 0,1.183 -2.579,0.887 -3.423,3.424 0,1.861 -2.198,2.957 0,2.875 -1.775,0 -2.282,4.143 -0.423,2.451 -2.621,1.183 -1.015,1.774 5.918,0 1.944,-0.762 2.705,1.184 1.691,0 1.183,2.113 -0.845,2.113 -3.128,1.522 0.254,2.113 1.775,0 0.5,2.621 1.333,-3.5 3.334,0.832 2.833,-0.832 1.167,-3 -1.167,-4.168 2.833,-1.166 4.334,-0.166 2.833,2.832 2.333,0 2.084,-2.082 -2.25,-2.25 -1.834,-1.834 -1.833,-1.166 2.333,-2.334 -1.166,-2.5 1.166,-3.666 3.5,0 3.834,2 2.666,2.332 3,-0.832 4.167,0.832 z m 164.094,-231.896 -1.664,1.664 -1.815,1.513 1.664,1.21 1.361,-1.21 2.118,0 1.966,-1.816 -1.815,-1.814 -1.815,0.453 z m -5.445,-16.788 -1.361,1.21 0.907,1.361 1.815,-1.21 2.269,0.605 -0.605,-1.361 -3.025,-0.605 z m -6.958,6.05 -0.756,1.966 1.21,1.059 1.361,-1.664 -1.815,-1.361 z m -16.182,-9.831 -1.664,1.21 0.605,1.362 -1.21,1.663 0.302,1.059 2.723,0.756 2.571,-1.21 1.513,0.152 0,-1.513 -2.42,-0.605 1.21,-1.361 -1.362,-1.966 -1.663,0.605 -0.605,-0.152 z" />
    <path
       inkscape:connector-curvature="0"
       id="Siberia"
       d="m 661.466,373.5065 -0.105,-1.9765 -2.446,-0.156 -1.821,1.822 -2.29,-1.041 -3.019,1.145 -1.458,-1.769 -1.561,0 -1.354,1.353 -2.707,0 -1.77,-0.832 0,-3.332 1.041,-1.041 0,-2.186 -0.833,-2.498 1.979,-3.123 1.145,-3.227 -3.436,-3.436 -0.937,-4.58 -2.915,-1.563 0,-2.914 1.146,-1.041 -1.146,-1.146 0,-2.706 -3.122,-1.25 -0.938,0.938 -0.937,-2.811 1.562,-1.563 1.665,-2.706 2.499,-0.729 -0.938,-6.454 -0.729,-4.164 0,-2.187 -2.915,-5.309 -0.312,-5.518 -2.914,-1.978 -1.25,-2.915 -0.8995,-2.243 5e-4,-1.375 3.5,-1.375 3.625,-5.125 2.5,-0.75 3.375,1 1,-2.25 0,-2.75 -1.875,-1.875 0.875,-3.25 2.5,-0.875 0,-2.625 -0.125,-3.375 2.75,-1.875 3.188,-3.188 0.688,-2.313 1.375,0 -0.25,-3.375 -2.625,0 -2.375,-4.5 0,-4.125 -2.125,-2.125 -4.5,-3.25 0,-1.75 -3.375,-1.25 -1.183,-2.486 0.573,-3.35 -1.418,-1.418 -1.479,-2.233 -0.755,-1.931 1.146,-1.207 0.332,-1.6 -1.327,-1.056 -0.433,-2.927 -2,0 -2.5,0.167 0.167,2.667 -0.167,1.334 2,0.167 1.25,1.25 -1.583,3.083 -2.667,1 -2.833,2.333 c 0,0 -0.5,3 -2,3 -1.5,0 -4.167,0.833 -4.167,0.833 l -3,1.833 0.667,3.333 -3,1.334 0.833,-3 0.667,-4.333 2.75,-2.75 1.25,-3.75 4,-1 1,-5.167 2.5,-2.5 1,-4.667 0,-1.667 3.333,-4 1.917,-1.917 1.583,-3.25 1.667,-2.333 0,-3.333 1.916,-1.916 -2.083,-3.583 -3.333,-1.833 -1.334,-1.333 3.334,0.667 0.333,-3.5 -2.25,-2.25 -1.75,-1.75 -1.167,1.333 -2,-1.667 -1.666,-3.333 -1.917,-1.917 -2.583,1.25 -1.917,-1.917 -3.417,2.417 -3.333,0 -3.667,2 1.5,1.5 -0.833,2.833 c 0,0 -2.667,-1.167 -3.667,-1.167 -1,0 -0.833,-2.167 -0.833,-2.167 l 2.167,-2.167 -2.417,-2.417 -3.25,0 -1.042,1.042 -5.291,-0.292 2.166,-2.833 2.584,-2.583 -0.75,-3.417 -2.5,0.333 -3.334,-2 -2.666,2.833 -3,2.167 -2.5,6.167 -0.834,2.667 0,4 1.334,1 0.333,2.833 -1.167,0 -3.833,1.167 -3.667,0 1,1.833 2,1.5 1.5,2 -3.333,-0.667 -3.333,0.667 -0.5,2.667 -5.168,-0.166 -2.083,2.083 0,-2.417 1.583,-3 -3,0.5 -0.833,1.833 -3.667,0.5 -4.333,1 -1.667,1.667 3,1 -1,1.167 -4.5,1.333 -1.583,1.583 -6.25,0.917 -1.75,1.75 -4.583,1.75 -1.833,3.833 -4.667,-0.167 0.167,2.5 2.333,0.167 -2.333,1.833 -1.667,2.333 1.417,1.417 -0.917,2.083 1.333,1.5 -2,0.5 c 0,0 0,-2.5 -1.25,-1.25 -1.25,1.25 -1.917,1.917 -1.917,1.917 l 1.667,1.667 2,0.667 1.667,2.5 -1.667,1.667 -3.166,0 -4.333,1.833 -6.5,0 0,1 -4,-1.5 -7.833,0 -3.333,3 0.833,4.166 1.333,1.334 -1.5,3.334 -1,4 1.333,1.333 2.333,3.833 3.167,1.166 -0.167,2.334 1.833,2.5 -0.667,2.666 -4.5,0 -2.917,-2.916 -1.083,-1.084 1.167,-3.332 -4.333,-2.334 -2.25,-2.25 -2.75,0.416 -3.333,-0.666 0.167,2 1.584,0 0.667,1.833 1.417,1.417 2.083,0.417 2.333,1.25 0.583,2.167 -1.583,1.583 0.333,1.75 -3.167,0.5 -2.292,2.292 1.042,2.208 0.667,-0.916 1.083,2.083 3.583,2 -0.333,4 0,5.75 -3.333,0 -1.25,2 -2.458,2.458 -3.042,2.292 0.167,3.083 1.458,1.458 0.458,1.792 2.084,2.084 3.167,0.5 0.417,2.167 1.083,1.083 2,-1.75 c 0,0 0.729,1.271 1,1 0.271,-0.271 2,-1.917 2,-1.917 l -0.083,3.25 2.583,0.5 0,2.583 1.583,3.833 -0.917,2.417 -1.25,0 1.333,2.5 -1.083,3.167 -1.792,1.791 -0.625,2.042 -2.333,-0.5 -0.083,2.667 1.625,1.625 0.541,3.041 -1.416,2.5 1.5,1.5 0,2.334 3.666,2.166 1.417,2.917 -2.251,2.083 0,1.666 1.168,2 0,3 -1.5,1.168 1.832,3.332 2,0 2,2 1.5,3 0.334,3.834 -1.666,1.666 0.832,3.5 3.834,0.834 1.916,1.916 1.917,-1.916 0.667,4 -0.666,3.5 1.166,2.666 -2.25,2.25 -2.416,3.084 -1.668,3.167 2.5,3.5 0,4.166 -2.416,2.417 -0.25,3.75 -1.418,1.416 -3.917,3.917 0.054,5.117 4.208,2.771 4.721,2.053 -2.463,4.105 -5.953,2.566 -3.7975,3.7975 -6.1575,-4.5145 -6.569,2.771 -1.231,4.106 -4.414,-2.258 -3.182,0.82 -3.849,-3.848 -4.157,1.59 -5.337,-0.615 -1.437,-2.156 -5.747,0 -4.003,-1.744 -5.338,0.82 -3.9,8.725 0.308,5.234 -5.543,1.539 -4.516,3.285 -0.513,3.49 -4.724,2.762 -1.5,2.125 -2.687,2.688 -3.313,1.562 -4,0 -2.5,-0.75 -2.875,-1.5 -1.125,1.625 -3.375,0 -2.125,-1.375 -1.875,-0.875 -2.875,-0.875 -2.25,-0.75 0,-2 1.625,-1.625 -2.625,-2.625 -2.5,1.75 -1.158,1.93 -2.342,2.57 -0.25,2.625 1.125,3.375 -2.625,1.25 0,1.875 2.25,1.125 1.563,1.563 0.812,1.937 2.5,1.375 0,2.25 -1.187,1.188 -3.188,0.562 -4.187,4.188 0,2.937 -0.688,1.75 -1.75,1.75 -1.375,0.25 0,2.25 -1.687,1.688 -0.938,1.937 0,2 2.5,1.168 1.333,4.166 -0.833,2.334 0,3.166 -2.084,2.084 0.917,2.916 3.667,1 3.333,-2 2.417,2.416 -1.083,3.918 3.333,1 1.833,-1.834 3,1.834 3.334,0 0,2.332 -4,1.834 -1,4.5 2.833,0 3.5,-1.666 1.833,2.666 4,-2.166 4.667,-1.334 2.75,-2.75 2.583,-0.084 3.5,-0.166 2.5,-2.5 3,0 0.834,2.334 -2,2.666 -2.334,0 0,3 2.834,1.166 2.083,2.084 1.917,4.084 1.833,1.832 2.833,2.834 2,6.666 0,5.5 2.667,2.5 0,4 2.833,5 0.834,4.334 1.166,3.834 2.167,4.332 3.667,-0.666 1.833,-3.834 2.667,-0.832 1.833,2.166 0,2.5 1.833,1.832 2.001,2 3.666,-0.666 1.667,1.668 4.166,-0.668 2.084,-2.082 4.25,0 2.041,2.041 3.125,1.375 2.334,2.166 0.666,4 2.834,1.834 1.333,3 3.5,2.166 0,4 4.5,1.166 4,1.334 4.333,-1.666 2.584,-2.584 0.916,3.416 1.834,3.334 1.5,2.5 4.833,0.834 2.167,-2.168 4.166,-2.332 5,0.166 2.751,-2.75 3.916,-0.916 0.667,-3.5 3.333,0 3.334,-3.334 5.5,-3.5 4.333,0 1.167,-3.5 3.666,0 2.917,-2.916 3.583,1.582 2.834,2.834 4.5,-1.832 3.833,1.166 3.167,3.166 2.666,2.666 4.834,1.668 3.333,1 4.667,-0.834 4.5,1.168 4.833,0 3.167,0 3.75,-3.75 3.916,-2.584 0,-4 -2.916,-2.918 0,-3.748 -2.084,-2.5 0.667,-4.334 2.25,-2.25 2.083,-4.25 2.583,-2.584 1.917,-1.916 3.834,2.834 6.5,0 3.25,3.248 4.75,-1.248 4.166,0 4.334,1.666 3.084,3.082 2.416,5.084 2.584,2.584 4.082,1.75 6,0.5 4.167,-1.168 4.333,-1 3.916,-3.916 4.751,0 7.666,-1.084 2.334,1.5 5.833,0.834 6.333,0 2.333,2.334 1.334,2.5 4.5,1.5 5,-0.668 6.833,0 4.834,-1.5 5.333,0 2.083,-2.082 4.084,-4.084 5.333,-2.5 3.833,-2.666 2.917,-2.918 1.417,-4.916 6,-6 4.166,-1.834 3.167,1.168 3.5,1.832 4.667,-2.666 3.333,-2 4.5,0.834 6.166,0.5 5.5,-2 3.25,-3.25 2.25,-5.25 3.5,-1 0,-4.668 -1.5,-1.5 -2.5,-4.832 1.834,-4.668 0,-4.5 1,-7.166 1.333,-2.834 -1.333,-5.332 -2.334,-2.334 -2.083,-2.084 -2.583,2.084 -1.834,-2.334 1.334,-3.332 1.833,-5.5 2.583,-2.584 5.25,-3.084 -2.415,-4.164 -1.083,-2.168 -2.834,0 -0.833,-3.582 -1.417,-2.168 2.5,-1.5 0,-1.166 -1.333,0 -2.25,-2.416 -1.833,-0.25 0.416,-4.25 -1.083,-1.918 -1.167,-3.25 -2.666,-1.332 -1.917,2.666 -2,-0.75 -0.167,-2.834 -1.333,-1.332 -1.958,-0.543 -2.042,2.043 -1,2.5 -3.417,-0.918 -1.083,-2.082 2,-2.5 -1.167,-1.918 -2.25,0.75 -2.916,-0.75 -2.01,-2.029 -0.038,-2.008 -2.706,-0.728 0,-2.915 -2.498,-0.834 -2.603,-3.435 -3.643,-1.352 -0.78,-3.8 -1.718,-1.717 0.572,-1.822 -4.736,-4.737 -1.354,-3.747 -2.082,-0.208 0,-2.395 -2.238,-2.446 -1.822,-1.822 -2.656,0 0,2.55 -2.341,2.342 -3.643,-0.52 0,-2.394 -1.561,-1.353 0,-3.019 -3.228,-0.417 -3.747,-1.77 -3.54,0.417 -3.539,-0.52 -1.978,2.393 -0.989,3.28 -2.342,2.342 0.937,3.227 -1.249,3.748 -3.123,3.123 0,5.83 -4.372,3.017 0,3.436 -1.873,-2.602 0,-2.916 -2.187,-2.185 -2.082,0.937 -0.52,2.705 -5.518,2.082 -2.602,0 -1.041,3.123 -1.666,2.499 -3.591,0.259 -4.007,-4.006 -0.417,-8.328 0.52,-4.996 0,-4.685 0.625,-4.164 0,-4.06 -2.915,-1.249 -2.082,-0.729 -0.312,-1.978 -0.963,-2.263 -1.9,-1.901 0,-2.238 1.301,-1.301 0.364,-3.071 -1.821,-1.821 -2.394,0 -2.603,-1.249 0,-2.395 1.041,-1.041 -1.145,-1.145 -0.937,-3.643 -2.082,-3.748 -2.498,-1.769 -2.811,0.833 -2.707,0.208 0,-3.227 2.239,-0.625 0,-2.135 -2.341,-2.3395 z m -56.047,-192.2545 -0.606,0.908 1.362,0.907 0.604,-1.059 -1.36,-0.756 z m -6.504,-13.461 -1.513,0.907 2.118,1.059 1.512,1.058 1.664,-0.453 -0.454,-1.966 -1.664,0.453 -1.663,-1.058 z m -14.823,-7.412 0,-2.117 0.151,-3.782 -1.058,-2.117 -1.513,0.151 -2.117,2.571 0.151,2.269 -0.908,1.513 0.605,4.084 -1.815,1.815 0.151,4.083 -0.907,3.479 -0.757,3.479 1.362,0.756 2.874,-2.269 1.664,-1.058 3.781,-1.966 3.025,-0.303 3.782,-2.874 1.814,-3.479 -1.21,-3.025 -1.361,-2.269 -1.815,0.757 -1.815,-3.177 -1.362,-1.361 -1.664,1.966 -1.058,2.874 z m -13.613,-16.184 -1.361,1.664 -1.21,2.269 -1.059,-0.454 0.756,-2.874 0,-3.025 -3.327,1.059 c 0,0 -1.966,0.454 -2.42,0.605 -0.454,0.151 -2.723,0.908 -2.723,0.908 l -1.059,2.269 -0.605,1.966 -1.361,1.664 0.454,1.966 -2.571,1.966 1.21,1.059 1.814,-0.605 1.513,2.117 0.151,1.966 1.361,1.664 3.479,0.302 0.454,1.966 2.42,-1.512 1.21,1.966 3.327,1.21 3.177,-1.513 1.513,-2.118 -1.21,-2.42 -1.967,-2.723 1.513,-1.059 0.605,-2.571 -0.757,-2.874 0.303,-2.874 -3.63,-1.964 z m -2.722,46.284 -1.513,1.814 -1.966,0.454 1.815,1.361 1.815,-1.815 -0.151,-1.814 z m -25.259,-0.605 -0.756,1.209 1.058,0.908 1.362,-1.967 -1.664,-0.15 z m -15.579,41.442 -1.815,0.908 c 0,0 0.756,2.269 0.756,1.966 0,-0.303 1.361,-0.605 1.361,-0.605 l -0.302,-2.269 z m -13.007,-13.612 -1.664,1.36 0.907,1.816 1.512,-0.303 -0.755,-2.873 z m -0.606,19.814 -0.302,1.663 2.571,0 1.362,1.361 0.151,-2.269 -1.513,-0.302 -2.269,-0.453 z m -8.772,-89.693 -0.908,0.908 1.059,0.605 1.664,1.21 0.454,-1.513 -2.269,-1.21 z m -9.226,105.422 -1.059,1.361 0.605,1.815 1.059,1.362 1.512,-1.663 0.605,-1.967 -1.361,-1.362 -1.361,0.454 z m 21.942,-125.002 -1.25,0.25 -0.812,0.812 1.25,1.25 1.687,-0.562 1,-1 -1.875,-0.75 z m 28.625,-2.5 -1.125,1.125 0.875,0.875 0.938,0.937 1.937,-1.812 0,-1.25 -2.625,0.125 z m 12,-1.625 -0.375,2.5 -2.25,1 -3.375,2.25 0,3.125 1.375,1.375 -1.812,1.812 -1.188,2.313 1.625,2.25 0.625,2.25 2.875,2.5 2.625,-2.5 1.75,0 2.625,-1.5 3.125,-1 -0.875,-3 0,-3.75 1.875,-1.625 -1.562,-1.563 -3.188,-3.187 -1.125,-2.5 -2.75,-0.75 z m -7.375,20.75 -2.125,-0.25 0.375,2.75 0,1.75 2.75,0.75 1.125,1.125 1.688,-1.688 0.937,-2.437 -1.625,-1.25 -3.125,-0.75 z m -33.375,64 -0.812,0.812 1.062,0.938 1.75,-0.5 -2,-1.25 z"
       style="fill:#aa0000;stroke:#000000;fill-opacity:1" />
    <path
       inkscape:connector-curvature="0"
       id="Far_Eastern"
       d="m 773.375,444.9225 -2.701,-0.7225 0,-2.914 -2.498,-0.834 -2.603,-3.436 -3.644,-1.352 -0.78,-3.801 -1.718,-1.717 0.572,-1.822 -2.551,-2.551 -2.186,-2.186 -1.354,-3.748 -2.082,-0.208 0,-2.395 -2.238,-2.446 -1.822,-1.822 -2.655,0 0,2.551 -2.342,2.342 -3.643,-0.521 0,-2.394 -1.562,-1.354 0,-3.019 -3.228,-0.417 -3.747,-1.77 -3.54,0.417 -3.539,-0.521 -1.978,2.394 -0.989,3.279 -2.342,2.342 0.937,3.228 -1.249,3.748 -3.123,3.123 0,5.83 -4.372,3.018 0,3.436 -1.873,-2.602 0,-2.916 -2.187,-2.186 -2.082,0.938 -0.521,2.705 -5.518,2.082 -2.602,0 -1.041,3.123 -1.666,2.498 -3.592,0.26 -4.007,-4.006 -0.417,-8.328 0.521,-4.996 0,-4.685 0.625,-4.164 0,-4.06 -2.915,-1.249 -2.082,-0.729 -0.313,-1.978 -0.963,-2.264 -1.899,-1.9 0,-2.238 1.301,-1.301 0.364,-3.071 -1.821,-1.821 -2.395,0 -2.603,-1.249 0,-2.395 1.041,-1.041 -1.146,-1.146 -0.937,-3.643 -2.082,-3.748 -2.498,-1.77 -2.811,0.833 -2.707,0.208 0,-3.227 2.238,-0.625 0,-2.134 -2.342,-2.342 -0.106,-1.979 -2.446,-0.156 -1.821,1.822 -2.29,-1.041 -3.019,1.145 -1.458,-1.769 -1.561,0 -1.354,1.353 -2.707,0 -1.77,-0.833 0,-3.331 1.041,-1.041 0,-2.186 -0.833,-2.499 1.979,-3.123 1.145,-3.227 -3.436,-3.435 -0.937,-4.581 -2.915,-1.562 0,-2.915 1.146,-1.041 -1.146,-1.146 0,-2.707 -3.122,-1.25 -0.938,0.937 -0.937,-2.811 1.562,-1.562 1.665,-2.707 2.499,-0.729 -0.938,-6.454 -0.729,-4.164 0,-2.186 -2.915,-5.309 -0.312,-5.518 -2.914,-1.978 -1.25,-2.915 -0.9,-2.243 0,-1.375 3.5,-1.375 3.625,-5.125 2.5,-0.75 3.375,1 1,-2.25 0,-2.75 -1.875,-1.875 0.875,-3.25 2.5,-0.875 -0.125,-6 2.75,-1.875 3.188,-3.188 0.688,-2.313 1.375,0 -0.25,-3.375 -2.625,0 -2.375,-4.5 0,-4.125 -2.125,-2.125 -4.5,-3.25 0,-1.75 -3.375,-1.25 -1.183,-2.486 0.573,-3.35 -1.418,-1.418 -1.479,-2.233 -0.755,-1.931 1.146,-1.207 0.332,-1.6 -1.327,-1.056 -0.433,-2.927 2.833,0.667 3.334,1.333 0.666,-2 2.084,-2.917 1.75,1.75 0,3.333 2,2.833 2.333,0 -2.333,-2.167 1.583,-1.587 3.083,-3.083 4.167,-2.167 6.333,-1.167 5,-1.5 1.251,1.917 -1.167,1.167 2.75,2.75 5.166,0 0.167,-1.333 0.5,-1.833 2,3.167 3.5,-1.333 3.5,-3 c 0,0 3.667,-0.667 4.5,-0.667 0.833,0 0,-3 0,-3 l -0.5,-3.333 -2.5,-3.833 0.667,-3.833 0.5,-2 2,2 2.083,-1.583 1.75,1.75 2.667,1.833 0.666,-2 1.334,-0.333 1.333,1.5 1.333,-1 c 0,0 -0.166,-3.083 1.084,-3.083 1.25,0 1.583,-1.583 1.583,-1.583 l 3.667,2.833 1.166,-1.167 4,1.333 -1.333,4.083 1.916,0 1.917,1.917 0,3.167 3.167,-2 1.667,1.667 0,3.667 -2.167,0.667 -1.333,1.333 2.333,2.334 c 0,0 1.833,-0.834 1.833,-1.667 0,-0.833 1.5,1.5 1.5,1.5 l 0,2.667 3.417,-0.084 3.25,3.25 2.5,1.667 3.5,0.667 1.5,-1.5 3.833,2 0.334,-3.167 -1.667,-5.5 -1,-2.5 0,-2.333 -2.167,-2.167 0,-3 4.167,0.5 2.333,2.333 3.667,-1 4.167,0 -0.834,-4.333 2.334,-4.333 4.333,-1 3.167,-0.167 3.666,1 0,-2.5 -3.916,-1.75 1.416,-1.417 1.834,-2 3.166,0.167 2.5,-2.5 -1.166,-0.667 -2.5,-2.5 -2.834,-1.5 0,-3.667 -1.166,-1 -1.667,4.333 -2,-1.333 0,-3.5 3.667,-3.333 -0.5,-2.333 -3.5,-2.167 2.166,-2.167 3.167,0 4.667,-2.333 1.333,-3.833 6.167,-2.333 4.833,-2.167 c 0,0 0.667,0.667 0.667,1.667 0,1 -3.167,2.167 -3.167,2.167 l -1.167,4.5 2.834,-1.333 2.5,-2.5 3.166,1 -0.833,6.5 2.833,-2.667 0,-3.167 -1,-5.333 0.667,-2.333 1.5,-4.167 3.5,-1.667 5,-2.167 3,2.167 c 0,0 -1.417,1.917 -2.5,3 -1.083,1.083 1.167,1.833 1.167,1.833 l 3.666,0 2.334,-2.667 c 0,0 2.666,2.833 3.166,3.333 0.5,0.5 -0.5,-3.833 -0.5,-3.833 l 4.5,-2.5 3.167,1.667 3.5,-0.166 3.167,-3.167 3.333,-4.167 0,-4.833 4.167,-6.167 3.5,-3.5 3.166,-3.834 5.5,-0.833 4.584,-0.25 2.25,2.25 4.666,4.667 4.167,-1.833 3,-2.417 3.25,0 -1.583,-1.583 0,-2.334 3.166,-3.1665 0,-5.5005 1.5,-2.833 2.5,0 2.167,-2.167 0,-3.333 4.167,-3 1,-4 -1.667,-1.667 0.667,-2 -2.333,-3.333 1.833,-3.333 1.75,-1.75 3.167,3.167 -2.417,2.417 2.5,2.5 3.833,0 2.667,-1 3.667,-1.667 3.333,-0.833 0.833,-2.667 -1,-2.667 -1.833,-0.333 -5.667,-2.5 -4.166,0.667 -1,-2.333 -3.334,0 0,-1.833 0.834,-3.167 3,-1.5 0.333,-3.5 2.667,-1.5 2.333,0 -1,-2.833 1,-3 2.833,-4.167 1.333,-4.833 5.084,-4.917 5.666,-5.667 2.584,-2.584 5,-2.167 3.582,-2.083 3.334,-3.333 3.417,-3.417 4.167,-1.667 3,-4.333 5.666,-1.666 3,-3.167 3.667,-1.667 2.333,-1.333 2.667,2.667 3.833,-1.167 3.417,2.583 2.25,-2.25 4,-2.167 0,-2 -4,0.833 -4.667,-0.333 -3,-0.833 1,-3 3.167,-2.167 -2.667,-0.667 0,-1.5 1.834,0.167 0.333,-3 1.667,-2.333 2.333,-2.333 4,-1.5 1.167,0 3,-4.167 c 0,0 2.833,-0.833 3.833,-1.833 1,-1 0,2.833 0,2.833 l 2.167,1.833 1.666,1.667 -1.833,3.833 c 0,0 2.5,0 3.5,-1 1,-1 0,2 0,2 l 0,3.5 -3.833,2.5 3,0.5 1.833,-1.833 3.917,1.5 0,-1.75 3.083,3.083 2.167,3.333 1.833,-0.5 1.833,-2.333 0,2.167 1.167,2.667 -3.5,0 0,1.333 2.833,0.833 -1.5,4.333 -3.833,0.333 -3.5,3.833 -1.833,4 -3.5,1.167 -2.5,-1 -3.167,0 -2.833,4.167 1.25,2.5 0,4.25 -2.75,2.75 -2.167,-1.667 -2.167,1.667 -3.166,0 -1.834,-1.5 -1.666,-1 -0.25,1.583 1.25,1.25 -1.5,0.667 -1,1 2.916,0.5 0,2.25 2.25,2.25 3.667,-1 2.5,0 0.166,3.167 1.5,-1.5 2.584,2.584 2.75,2.75 1.333,4.833 0.667,3.833 -2.667,4.333 -2.5,0 -3.5,1.5 -1.166,2.667 2.833,-1.166 1.833,0 -2.666,3.167 1.666,1.665 2.167,-0.833 0,-3.167 2,-1.5 3.583,-0.083 2.084,-2.083 1,-1.667 2.5,0.167 2,-0.333 3.666,-0.167 0,2.333 3,0 0.834,-1.583 2.916,0 1.75,-1.75 2.167,-0.333 1.833,1.5 2.667,-2 1.25,2.917 2.417,2.417 0,3.5 -3.334,1.333 -2.166,4.667 -3.5,0 -1,1.5 3.916,2.583 -1.25,1.25 2.834,4.333 1.166,5.333 0,6 1,4.667 1.667,4 0.834,5.333 1.666,5.167 3.167,2.833 0,4.833 1.667,6.667 2.833,3.167 1.833,1.834 -2.833,2.5 -3,-1.5 -4.167,1.333 -2.166,5 -3.5,5 1.833,1.833 -1.333,4.666 0,2.5 2.833,4.333 0,2.667 -3.167,-1.5 -2.333,-2.333 -2,0.167 1.833,4.833 0,3.167 3.083,1.417 -3.083,3.083 -2,0 0,4.333 -1.833,1.833 2.5,4.167 2,2 2.333,2.333 3.167,3.167 0.666,4.667 0.5,3.667 4.584,2.416 2.75,2.75 4.666,0 -1.25,-2.833 0,-1.417 1.584,-1.583 1.167,-2.5 4.333,4.333 0.833,3.834 4.333,3 4.292,0.958 1.708,-1.708 2.75,0 3.25,3.25 -1.333,3.167 -3.333,1 1,4 3.5,5.833 3.083,0.75 2.417,2.417 5.666,-0.667 3.334,2.667 1.166,3 -2,1.333 -2.833,1.833 -1.667,3.667 1.167,6.667 3.333,5.166 2.917,1.083 1.417,1.417 4.833,1.167 0,2 -3.667,0.5 0,3 -1.333,3 1.667,6 2.832,1.167 4.334,4.333 3.167,3 0.667,5.333 1.666,7 0.834,4.5 0,3.334 -1.834,-2.5 -4.833,0 -3.083,-1.584 -2.417,-2.416 -3.333,0 -3,-3 -5.834,-2.667 -5.5,-2.333 -6.333,-3.334 -1.833,-2.5 -3,-2 -3.334,-0.666 -7.166,-2.167 -4.667,-2.5 -4.5,-3 c -0.75,-0.75 -2.167,-4 -2.167,-4 l -4.835,-4.824 -3.333,-3.5 -0.001,-3.5 -2.333,-2.334 -0.5,-3.834 -2.833,-4 -3.084,-0.666 0,-1.417 1.417,-1.417 1.167,-2.5 -1.583,-2.75 1.5,-1.5 1.25,-1.25 -1.667,-5 -0.833,-5.333 -2,-6.167 -3.167,-4.167 -1.333,-5.5 -1.5,-5.167 -1.667,-4.167 -2,-6.167 -2,-1.667 -0.167,-3.333 1.167,-4 0,-2.333 0,-2.833 -2,-2 -2.167,-4.167 -2.166,0 -2.084,-0.75 -1.916,-1.917 -2.334,-3 -3.5,-2.167 0,-3.833 3.167,-2.999 -1.084,-1.084 -2.583,2.583 -3.666,2 0,3.5 -1,2.667 1.999,1.833 2.917,2.917 2.75,2.75 3.334,0 -0.334,2.167 -1.5,-0.167 -1.582,2.2465 2.084,2.0795 0,5.333 1.667,4 0.333,6.333 -1.166,3.834 -1.334,-3.333 -3,-1.5 10e-4,4.167 -2.5,-2.5 -1.667,-1.667 -1.334,-2.833 -4.666,-4.333 1.333,3.667 -1.333,4 -4.5,0 0,2.667 -1.5,5.5 -1.834,2.167 0.167,7.333 3,2 -0.5,4.667 3,4.667 0,5 0.917,6.583 2.75,2.75 0,3 2.333,2.334 2.167,-0.334 1.916,-1.75 1.417,-1.416 2.5,0 -0.167,3.166 -2.666,0.834 0,4.5 -5,0.833 1.166,5.833 -0.5,2.5 -3.166,1.332 0,3.5 -1.167,3.166 c 0,0 -3.917,0.917 -3.167,0.167 0.75,-0.75 -1.5,-1.5 -1.5,-1.5 l 0,-2.167 0.667,-2.166 2.75,-0.917 -1.25,-1.25 -3,1.167 -3.167,0.5 0,1.5 -4.666,2.166 -2.334,2.834 -2.666,0.666 -2.167,2.167 -0.833,2.5 0.832,3.167 1.834,1.833 -2.166,2.333 -3.5,-1.333 1.083,3.583 -2.583,2.584 -2.334,2.166 -2,0 -2,1.834 1.334,2.166 1,1 -2.834,1.834 -3.833,0 -3.75,3.749 -2.417,2.417 -2.667,4.5 -2.833,2.834 -2.833,5.666 -0.5,5.5 2.667,5.334 -2.5,2.5 -0.833,5.333 1.499,3.833 2.334,2.334 -2,3.333 0,4.5 0,6 -1,4.167 0,5.666 1.667,1.834 0,4 0,4.5 -1.5,5.666 0,4.667 -2.5,4.167 0,4.166 -1.334,3.667 1.5,3.375 2.542,0 1.958,-1.958 2.749,0 2.168,-2.168 2.416,-2.416 1.667,1.667 2,1 0,2.167 1.584,2.916 2,2 1.75,-1.75 0,-2.666 -2.334,-1 0,-2.5 1.834,-2 0,1.666 2,1.5 1,-0.333 1,1 0,3 0,2.167 3.333,-1.334 0,-1.666 1.833,-2.5 1.167,-1 1.833,1.333 0.417,-2.75 -1.583,-1.583 -1.5,-2.834 -1.834,-3.333 3,-1.666 1.834,-1.834 3.666,-0.833 4.334,0 3.583,0.417 1.583,1.583 c 0,0 3.834,-0.667 4.667,-0.667 0.833,0 3.166,-1.001 3.166,-1.001 l 2.084,2.084 -1.584,1.584 -1.166,1.166 -1,1.834 2.833,0 3,0 0.667,2.166 2.5,2.5 3.084,-0.416 1.583,1.583 1.666,3.167 0.5,6.333 2.167,6.667 3.416,4.916 4.25,4.25 1.667,1.668 0.833,2.832 3.334,3.334 2.333,4 0.834,2.334 3.083,4.75 2.583,2.582 0,7 -1,6 1.834,5.9995 -0.167,6.1655 1.833,4.834 1.333,5.334 1,4.832 1,6.5 0,6.334 -1,3.334 0,6.5 0,8 -1,6 1,6.166 -0.333,8 0,3.834 -3.333,5.5 -2.167,4.666 -2.5,4.668 -2.167,0 -4.166,1.666 -3.5,2 -2.417,-1 0,-2.25 -1.25,-1.25 -1.251,2.834 0,3.082 -1.416,-1.416 -2.166,-2.166 0,1.666 -0.667,4.166 0.667,2.834 -0.917,3.25 -1.417,1.416 0,1.668 0,2.666 -3.166,-0.166 -1.334,-1.334 1.167,-3.834 2,-4 0,-3.332 -1.75,-3.918 -3.583,-3.582 -1.834,-1.834 -1.5,-3.834 -3.166,-3.166 -3,-1 -0.084,-3.25 2.084,-2.084 1.833,-1.832 0,-3.334 2.333,-2.334 2.667,-1.332 2.751,0.916 2.416,-2.416 1.5,-3 -2.667,-4.168 1.333,-3.5 -1.666,-3.666 -0.334,-3.834 -2.333,-3.166 0.667,-2.666 -1.835,-3.167 -0.834,-3.665 -3.333,-3.5 2.5,-2.5 0,-3.668 -2.083,-2.082 -2.415,-2.42 -0.667,-2.166 -2.833,0 0,0 -4,2.166 -1,3.334 -2.667,4.334 -3,3.832 1.334,4.168 -3.5,2.832 -3.5,2 -3,1 -0.834,3 -3.166,0 -3.167,-1.832 -2.333,-0.834 0,-3.834 -2.667,-2.332 -2.164,-2.1675 -3.586,-0.9165 -1.917,1.916 -3.833,-1 -3.167,-0.832 -4.833,0.666 -4.5,0 -1.833,1.834 -5,1.832 -5,-1 -2.083,-4.082 -2.417,-2.418 c 0,0 -2.833,-1.666 -2.833,-2.334 0,-0.668 -3.167,-3.166 -3.167,-3.166 l -4,-0.666 -1.667,-4 -3.834,-3 -2.666,-2.666 -3.667,-1 -1.333,-3.5 -3.334,-1.5 -2,-2 -6.666,-0.668 -3.5,0 -4,2.168 -5,-0.834 -3.834,1.334 -4.166,0 -5.668,4.166 -2.666,2.666 -2.415,-4.164 -1.083,-2.168 -2.834,0 -0.833,-3.582 -1.417,-2.168 2.5,-1.5 0,-1.166 -1.333,0 -2.25,-2.416 -1.833,-0.25 0.416,-4.25 -1.083,-1.918 -1.167,-3.25 -2.666,-1.332 -1.917,2.666 -2,-0.75 -0.167,-2.834 -1.333,-1.332 -1.958,-0.543 -2.042,2.043 -1,2.5 -3.417,-0.918 -1.083,-2.082 2,-2.5 -1.167,-1.918 -2.25,0.75 -2.916,-0.75 -2.01,-2.029 -0.033,-2.0015 z m 175.44,-68.9925 -1.154,0.289 -0.864,-2.451 0,-2.164 3.749,1.01 1.874,0.865 1.01,2.308 2.019,2.019 3.605,0.721 0.865,2.308 4.037,2.596 2.163,0 1.73,2.451 1.442,3.894 2.235,2.234 4.254,4.399 2.739,0.721 3.75,1.442 3.605,3.173 4.903,2.739 3.172,2.74 4.183,2.163 3.604,2.163 2.308,1.874 4.037,1.587 -0.576,1.875 -1.441,1.441 -2.74,0.865 -2.163,0 0.577,3.028 -0.577,2.163 0,1.73 2.451,3.75 c 0,0 2.309,2.594 1.875,3.027 -0.434,0.433 0.145,4.471 0.145,4.471 l 1.875,1.875 2.884,2.885 2.451,1.586 3.749,0 2.163,2.162 2.451,0 1.298,2.74 3.173,0.145 1.946,-1.947 3.389,1.947 2.02,2.596 c 0,0 0.722,1.73 0,1.73 -0.722,0 -4.615,-1.875 -4.615,-1.875 l -1.658,1.658 -3.677,0 -1.153,2.957 0.721,2.883 2.307,2.307 1.73,3.75 -2.307,1.875 -1.875,-2.307 -2.451,-2.453 -4.326,-4.037 0,-2.74 -2.884,-2.883 -2.739,-2.74 -1.875,-2.451 -2.308,-4.471 -2.884,-2.74 -3.028,-1.73 -2.884,-0.865 -2.453,-5.191 -5.335,-7.354 -4.326,-4.327 -3.604,-3.604 -3.174,-4.326 -2.019,-3.316 -5.479,-2.452 -4.326,-1.874 -2.596,-0.289 -3.461,-4.759 0,-2.162 -3.749,-3.75 -2.019,-3.749 -4.038,-1.298 1.01,-2.884 0,-2.163 3.316,1.009 0.577,-2.884 -1.946,-1.946 0,-1.082 -1.911,-1.911 -2.777,-0.976 z m 121.851,75.273 0.577,3.027 0.288,2.885 1.155,0.432 0,-2.307 0.865,-1.875 0,-2.595 -2.885,0.433 z m 9.95,1.731 0,1.296 1.875,1.01 0,-2.164 -1.875,-0.142 z m -5.912,-11.682 1.731,0.721 0.577,-2.307 -0.866,-4.613 1.586,-1.586 -0.288,-3.319 -2.452,-0.72 -0.721,3.75 0.938,0.935 -0.793,2.813 0.288,4.326 z m 4.326,-19.035 -0.721,0.721 0.577,2.453 1.154,-1.731 -1.01,-1.443 z m 1.731,-8.797 0.72,-3.749 -1.008,-2.306 0.576,-2.452 1.947,-1.948 0.504,2.669 -0.433,2.74 0.578,3.172 -1.01,2.307 -1.874,-0.433 z m 1.876,-32.158 0,3.174 0,2.595 2.019,0 -0.577,-2.451 0,-1.587 0,-1.874 -1.442,0.143 z m -83.928,-186.164 0,3.172 -0.288,2.884 1.73,1.154 1.154,1.442 0.144,2.595 2.308,0.865 -0.577,-2.595 -1.01,-2.019 1.01,-3.317 0,-4.037 -2.741,-1.154 -1.73,1.01 z m 56.095,15.141 -2.019,0.721 1.01,2.163 3.461,0 3.461,0 2.163,-2.163 -2.74,-0.865 -2.741,1.154 -2.595,-1.01 z m 9.952,106.277 -0.865,2.596 -1.37,1.369 1.586,1.587 0.937,1.946 -0.288,2.596 -0.145,3.316 1.514,1.514 1.659,-0.937 0,-3.461 1.514,-1.513 -1.226,-2.956 -2.018,-2.02 0.143,-2.595 -1.441,-1.442 z m 6.2,22.495 0,2.163 1.442,0.721 1.01,-1.297 -2.452,-1.587 z m -3.891,-136.273 -1.875,1.298 1.009,1.009 1.37,-1.37 1.37,-1.37 -1.874,0.433 z M 876.222,29.284 874.898,28.788 873.741,30 l -2.536,1.324 -2.067,2.067 0.192,3.556 -0.882,0.883 0.441,2.866 1.654,2.426 1.709,3.97 2.646,0.551 1.792,-1.792 1.351,-2.453 -1.488,-1.599 2.205,-3.198 -0.386,-3.473 0,-4.135 -2.15,-1.709 z m 32.505,361.5 -1.442,1.586 0,2.018 0,2.163 2.451,-1.009 1.299,1.298 1.442,-1.441 0.576,-2.886 -1.586,-2.306 -2.74,0.577 z m -165.056,-256.572 -0.303,-1.21 2.269,1.059 1.134,-1.135 1.588,-1.588 2.345,-2.344 1.437,1.739 0.756,0 1.89,-1.89 1.74,-2.042 3.327,-1.512 2.42,1.815 -1.361,3.781 0,2.117 -1.588,1.588 -2.496,1.135 -2.722,1.059 -2.722,0 -2.042,2.042 -3.252,-1.135 -1.664,-2.42 -0.756,-1.059 z m -5.597,3.177 -4.84,0 -1.588,1.588 -2.496,1.739 -1.815,-1.815 -4.386,1.361 0.303,2.723 1.135,1.135 1.663,1.663 1.135,1.134 -1.664,1.362 -2.269,-1.966 -1.21,1.209 -1.664,-1.664 -3.781,0.757 -1.664,-0.907 -0.756,1.966 1.21,1.209 -2.269,1.211 0,2.873 1.816,1.815 -0.455,2.118 1.664,0 2.118,2.118 -0.606,2.42 2.723,1.361 3.63,0.151 1.513,1.512 2.722,0 3.176,-0.907 0,-2.42 -1.966,-1.815 1.059,-1.059 1.588,1.588 2.798,-5.066 2.647,-2.647 1.135,1.134 2.42,-2.42 0.755,-2.269 -2.722,-0.907 -1.815,1.815 -2.268,-1.664 -2.723,-1.664 -2.723,-1.966 0.908,-1.966 1.437,-1.437 1.134,3.856 1.739,1.74 2.949,0.529 1.816,-0.756 1.513,0 1.511,-1.512 -0.756,-3.177 -2.419,0 0.605,-2.722 0,-1.966 -1.967,0.605 z m 2.572,26.62 -1.362,1.21 1.059,3.025 1.74,1.74 1.437,-2.799 0,-2.268 -1.059,-1.059 -1.815,0.151 z m 6.201,2.722 -1.74,1.74 0.984,2.344 1.664,1.664 -1.06,2.42 0.909,0.908 1.361,-2.874 3.478,-0.757 3.026,-1.21 4.083,-2.42 -2.117,-3.932 -2.874,0 -4.084,-1.362 -1.891,1.74 -1.739,1.739 z m -34.032,-6.504 -1.361,-1.361 -2.42,-0.151 1.589,1.588 0.982,3.554 1.966,0 0,-1.966 -0.756,-1.664 z m -75.627,58.837 -2.797,2.798 0,1.89 2.343,0 0.757,1.815 1.966,-0.907 2.27,-2.269 0,-3.63 -2.874,0 -1.665,0.303 z m 98.61,-106.481 -0.907,1.664 0.983,0.983 1.135,-0.983 -1.211,-1.664 z m -8.47,66.097 -2.874,-0.605 -0.907,0.756 1.664,0.756 2.117,1.664 0.907,-1.21 -0.907,-1.361 z"
       style="fill:#cccccc;stroke:#000000" />
    <path
       inkscape:connector-curvature="0"
       id="Northwestern"
       d="m 231.667,209.453 0.417,-3.083 5.083,-5.083 8.5,0 2.666,-4.667 0,-9 5.334,-2.667 7,-3.5 4.833,1.834 2.834,0 2.333,2.333 2.862,-1.995 -0.696,3.495 2.833,-0.334 4,0.167 0,2.667 0.834,3 -1.834,-1.167 -1.916,-1.917 -1.75,1.75 0.833,3.167 0,3.167 2.834,1.5 2.166,2.166 0,3.5 2.417,1.167 0,3.917 2.75,2.75 1.333,4.666 0,4.834 -0.833,4.166 1,2.334 0.083,5.083 2.917,2.917 -0.167,3.666 -0.667,6 -2.916,5.084 -4.417,4.416 -4.667,0 -5.166,1 -4.5,-1.666 -4.917,-2.75 -3.083,-3.084 0,-4.5 -3.167,-3.166 -1.5,-3.5 -1.167,-3.334 -2.166,-3.666 -1.167,-6.167 -2.333,-1 0.75,-3.75 1.916,-1.916 -2.333,-2.334 -1.083,2.917 -1.584,1.583 0.667,3.667 0.083,4.25 -1.833,1.833 2.417,2.417 -0.667,3.667 -2.333,5.166 -4.083,1.25 -3.25,3.25 -1.251,5.917 -3.083,3.083 2.5,7.834 -2.416,4.25 3.416,3.417 3.667,3.666 4.167,-3 0.833,-4.166 -2.167,-2.167 0.334,-3.667 0,-2.833 2.833,-3 2.833,0 1,7.5 0.917,4.917 2.917,2.916 1.833,3.834 4.75,1.416 1.417,-1.416 -1.167,-2.834 2.833,-2.333 0.167,-5.833 5.167,0.833 4.833,-1.833 4,2.166 4.5,-1.416 3.083,0 1.917,1.916 2.833,4.334 -2.333,2.333 0,3.667 2.083,-2.584 2.917,-2.9155 4,-0.8335 3.333,-4.834 0,-4.166 1.333,-2.834 4.333,-2.166 0,-2.666 4.167,-2.5 0,-4.167 -0.667,-4 2.833,0 0.917,2.083 3.75,3.75 2.833,4.334 0,5.832 -1,3.001 -1.5,1.499 -2.5,-2.5 -3.5,-0.832 -5.333,1.832 0,4.334 1.333,4 0,3.334 3.833,1 3.667,1.666 4.167,-2 0,-3 4.333,-1 4.167,2 -0.667,-2.666 6.5,1.166 3.5,-0.666 6.333,0.832 3.667,0 1.833,3.334 1.667,0 0,-3 5.333,-1.666 2.835,0 1.167,4.332 -3.167,0 -1,3 -2.5,0.834 3.833,3.5 2.667,0 5,-2.166 4.75,0.916 5.167,5.167 1.75,-1.75 3.5,0 4.417,-1.417 1.75,1.75 -0.5,2.334 -2.667,1.833 0,2.833 3.167,2.667 0.25,-3.083 1.417,-1.417 3.333,0.833 0,-2.666 3.167,-0.5 0.667,-4 -0.5,-4.834 3,-1.5 2.583,-0.75 3.083,3.084 1.333,-1.334 3.417,4.25 3.917,3.917 3.167,3.167 0.775,1.582 -1.359,2 -1.625,1.625 -1,1 1.625,1.542 0.333,1.25 1.25,0.417 0,2.583 0,3.083 -1.5835,0 -0.7505,1.833 -1.333,0.667 -0.5,3.083 3.333,1.666 0,2.167 -3.083,1.25 2.583,2.583 -4,2 -3,3 -3.166,0 -1.167,3.667 -5.667,0 -5.333,1.167 -5.333,3 0,3.667 -4.334,-0.167 -3.208,0.5 -1.75,2 -3.125,1.625 -3.125,3.125 -2.875,0.375 0,-2.625 -2.125,-0.75 -2.562,2.562 -3.438,3.438 -1.5,2.875 0.625,3.625 -4,2.5 -0.375,3 -3.375,2.125 -2.25,4.25 0.625,2.875 -1.375,2.625 0,2.25 -4.125,4.125 -0.562,2.937 -1.563,1.563 -0.875,2.375 -5.75,-0.875 -4.25,-1.625 -3.75,-2 -3.875,-2.625 -1.75,0 -1,2.125 -1.687,0.562 -1.188,-1.187 -1.687,-0.563 -1.688,1.688 -3,-1.125 -2.625,1.375 -2.375,-2.375 -3.625,-1.625 -2.125,0.75 -1.75,-2.125 0.375,-2.125 -0.875,-1.375 -2.125,-0.75 -1.625,1.625 -1.187,-1.188 -1.188,1.188 -3.375,-1.875 -1.562,3.062 1.687,1.688 0,2 -2.546,1.005 -2.704,0 -1.535,1.536 -2.485,0.292 -0.804,-1.828 -1.389,-1.388 -2.631,2.485 -1.9,-1.9 -3.07,-1.462 -2.924,0.731 -1.169,3.362 -1.901,2.339 -1.169,-1.169 1.023,-2.339 -0.731,-2.632 0,-2.485 -1.753,-1.754 0,-2.485 2.192,-2.193 0,-2.193 3.216,-0.73 0,-3.362 2.047,-2.047 -0.309,-2.533 -1.5,-0.75 0.584,-1.833 -1.625,-1.625 -0.625,-0.625 -0.917,-1.5 -1.25,-0.417 -1.792,1.541 -3.663,3.664 -2.266,2.265 -3.157,-1.403 -1.754,1.608 3.654,3.801 -2.338,1.169 0,3.07 -1.097,1.096 -3.874,-3.435 -2.046,3.216 -3.655,-0.877 -1.534,1.535 -2.266,-3.289 -3.362,-1.901 -2.778,-1.315 -1.169,-3.216 -3.29,-3.289 -4.312,-0.804 -2.192,-4.678 -3.362,1.608 -3.655,-1.608 -4.093,1.023 -3.654,1.608 -3.948,-3.947 0,-3.508 0,-3.07 -3.142,-3.142 -1.608,1.608 -4.166,-2.851 -1.754,-1.754 -3.07,0.292 -2.054,0.374 0,-3.342 0.862,-2.802 -2.371,-0.755 -2.695,0.539 -3.449,-1.616 -2.803,-1.078 -2.263,-1.079 -1.401,-1.4 -0.431,1.401 -2.156,0 -1.617,-1.941 -2.371,0 -0.593,-2.425 -1.347,-1.347 -1.833,-0.916 -2.209,0 -1.779,1.779 -2.802,0 -1.402,1.401 -2.318,-0.27 -1.886,-1.886 -3.556,0 -1.941,-1.186 -2.533,0.162 -1.455,-1.455 -2.91,0 -1.51,-1.509 -1.001,-2.166 -2.583,2.167 -0.25,2.083 -1.5,1.5 -0.333,3.5 -0.917,2 -1,1.75 -2.333,0 -1,2.833 -2.25,-2.75 -2.834,0.251 0,-5.668 -2.833,-2.666 -3.167,-0.834 1,-2.5 0.834,-2.666 -2.334,-2.334 -1.5,-3.332 0.5,-2.334 3.167,-3.166 1.833,-3.334 -0.833,-3 2.667,-0.666 4,-2.5 0,-3.5 1.666,-2 4.167,-0.167 1.833,-2.167 0.167,-2.5 3.5,-1.333 2.833,-3.833 3.834,0.166 3.333,-2 4.5,1 0.667,-2.5 1.5,-1.5 2.833,1.333 2.333,2.5 3.667,1.167 1.333,3 1.334,3.334 2,-2 -0.334,-4.834 -3,-2.667 0,-5.666 2.667,-0.667 0.833,-0.833 -3.666,-1.5 -2.167,-2.5 15.258,0 22.075,-0.167 7,-2.5 0,-4.333 1.167,-11 4.667,0 4,-3.167 0,-4.333 3,-1.167 0,-5.667 2.666,-0.166 5.834,-4.667 2.833,1.333 6.167,-11.5 z m 10.144,41.223 -0.605,0.907 1.059,1.362 1.361,-1.362 -1.815,-0.907 z m 140.965,2.117 -1.664,0 -1.815,-2.722 -1.058,0.605 -3.176,-3.025 -2.421,-2.571 0.908,-2.723 2.42,-0.756 0.907,-1.512 -1.664,-1.361 0.152,-3.631 -1.059,-0.302 -1.059,-2.723 -2.268,-0.151 -1.815,-2.571 0.605,-3.328 2.419,-3.327 2.875,0.302 0.907,1.059 1.058,0.454 0.454,-1.967 3.479,-1.058 2.723,-2.874 -1.815,-1.966 2.42,-1.513 2.722,1.059 0.757,-2.269 0,-2.269 3.478,0 1.664,1.664 1.739,-1.739 0.378,-1.588 3.782,-0.757 -1.286,-1.285 -3.252,-1.135 0,-1.209 3.782,-1.06 3.932,-1.058 1.966,-1.966 2.571,0 0,-1.815 3.631,-0.152 -1.966,-1.966 3.176,-0.151 1.21,1.21 -0.152,-3.025 1.513,-1.513 -1.664,-1.966 1.059,-1.664 1.815,1.815 2.269,0 0,-2.269 3.327,1.21 1.664,-1.815 1.664,-1.966 2.118,0 3.629,-1.663 2.572,0.907 3.781,0 2.496,-2.496 2.949,0.227 1.361,1.967 3.176,0 1.513,1.512 2.723,-0.757 3.781,0 2.496,-2.495 2.949,-1.588 3.932,-1.513 3.63,0 2.118,3.328 0,3.63 -3.176,2.874 -2.874,2.722 -3.781,0.303 -4.538,2.117 -4.084,-1.512 -1.966,1.966 -4.689,-0.151 -6.05,0 -2.269,2.42 -4.688,0 -3.479,1.966 1.059,2.42 -2.421,0.907 -2.873,-0.302 -2.571,0 -0.303,1.664 -2.722,-0.757 0,2.723 -2.723,1.966 -2.269,1.664 0,-2.571 -1.815,1.664 0.454,3.025 -1.815,0 -1.286,-1.286 0,1.437 0,2.269 -1.323,-1.324 -1.701,1.701 -1.438,1.438 -1.967,0 -1.512,1.966 -1.966,3.327 -3.176,0 -2.572,2.118 0,2.874 -2.571,1.059 -0.908,3.025 -2.117,2.117 0,3.782 -1.059,2.722 1.361,3.932 -1.21,3.933 1.664,2.572 0.756,2.722 -0.907,0.908 -2.571,1.21 0,-1.967 -2.42,-1.362 z m 96.349,-148.673 -1.25,0.375 1,1.375 0,1.25 1.75,0 0,-2.375 -1.5,-0.625 z m -0.375,10.625 -0.875,1.375 -3.25,0.625 -2.125,1.125 1.625,0.75 -0.75,1.75 1.375,0.375 2.75,0 2.188,-2.188 1.625,-1.625 -0.563,-2.437 -2,0.25 z m -10.375,-2.25 -0.687,0.687 1.312,1.313 2.375,-0.875 0,-2 -1.375,0 -1.625,0.875 z m -1.812,3.937 -1.813,-2.062 -1.375,1.375 -1,2 0,2.5 2.125,0.375 0.5,1.5 2.625,-0.625 1.688,-1.688 1.25,-1.25 0.687,-2.062 -1.875,0 -2.812,-0.063 z m -7.438,8.688 -0.812,0.812 0,1.563 1.687,0 0.625,-2 -1.5,-0.375 z m -3.5,-6.375 -0.875,-0.875 -2.75,0 0,1.875 -1.5,1.5 0.875,0.875 3,-0.625 1.125,1.125 2.625,-0.625 0.75,-1.75 1.875,0.625 -1,-2.25 -1.687,-1.688 -2.438,1.813 z M 469.5,97.87 l -0.75,1.5 1.313,1.312 1.25,-1.25 -1.813,-1.562 z m -2.75,3.5 -2,0 0,2.25 2.125,2.125 0,1.75 1.875,-0.875 -1.125,-2.375 -0.875,-2.875 z m -12.5,6.5 -1.75,0 -0.375,0.375 1.438,1.437 0.687,-1.812 z m 1.5,2.875 -1.187,1.187 1.187,1.313 1.375,-0.125 -1.375,-2.375 z m 1.125,-5.5 0,1.625 1.75,0 -0.375,-1.875 -1.375,0.25 z m 2.438,4.062 0,1.438 1.437,0 -1.125,-1.125 -0.312,-0.313 z m 1.437,3.313 0.625,0.625 1.125,-1.125 -1.75,0.5 z m 1.75,-6.625 0,1.75 1.5,0.125 0,-1.875 -1.5,0 z m -2.25,-3.5 0.875,1.625 0.813,-0.813 -0.813,-0.812 -0.875,0 z m -16.125,10.5 -0.937,0.937 1.625,1.625 1.812,0.063 0,-3 -1.25,-1.625 -1.25,2 z m 4.125,-2 0.625,1.75 1.25,0 0,-1.5 -1.875,-0.25 z m -7,-10 -1.25,1.25 0,1.375 -1.437,1.437 -2.563,-1.812 -2.125,1.125 0,1.5 -2.625,-1.875 -2,0.75 0.625,3 1.875,-0.625 0,2 2,0.5 1.813,-1.813 2.562,-1.062 2.125,0.625 3.125,0 2.25,-2.25 -2.125,-2.125 1.438,-1.438 -2.438,-1.437 -1.25,0.875 z m -7.125,-3.125 -2.75,0 -1.625,-1.625 -1.125,2.25 1.438,1.437 0.562,1.688 3.25,-1.125 1.125,1.125 2.125,-0.875 0.875,0.875 0,-1.875 -1.437,-1.438 -1.313,0 -1.125,-0.437 z m 2.438,13.187 -1.063,0 0.375,1.563 2.25,0.125 -1.562,-1.688 z m 0.437,3.313 -1.125,1.125 0.875,0.875 2.125,0.5 -1.375,-1.375 -0.5,-1.125 z m 9.125,-16.125 0,1.625 1.25,0 1.25,-1.25 -2.5,-0.375 z m -396.583999,159.892 2.594,0.582 2.223,-0.635 0.847,-1.641 2.011,0.317 1.88,1.88 0.079,2.568 1.535,0.476 0.318,2.012 2.382,0.423 0.529,-1.906 -1.296,-1.296 1.111,-1.112 0.715,0.715 2.276,1.904 0,2.86 -0.318,2.488 1.323,2.17 1.324,0.899 0.476,3.23 -1.164,2.434 -5.558,2.806 -8.417,-10.005 -4.87,-11.169 z m 343.823999,3.58 -2.42,1.21 -1.815,0.605 0.454,3.933 0.302,2.118 1.664,0.453 0.605,3.176 3.177,0.303 1.058,-2.571 -1.513,-2.571 0.152,-2.874 -1.664,-3.782 z m -53.543,-13.158 -3.327,0.907 -1.967,2.572 -1.512,1.966 1.058,2.873 2.421,0.909 2.268,0.906 2.118,-1.512 2.571,0.453 1.361,-3.175 -2.117,-2.723 -0.152,-2.269 -2.722,-0.907 z"
       style="fill:#cccccc;stroke:#000000;stroke-width:1.00000005;stroke-miterlimit:4;stroke-dasharray:none" />
    <path
       sodipodi:nodetypes="ccccccccccccccccccccccccccccccccccccccccccccccccccccccccccccccccccccccccccccccccccccccccccccccccc"
       id="KC"
       d="m 82.966148,487.34979 -1.25,1.4375 0,2 -1.375,2 1.25,1.0625 1,2 -1.375,2.18751 1.625,1.625 -2.75,2.125 -1.75,0.5 0.625,2.375 -0.875,1.8125 -2.5,3.125 -3.25,0 -1.4375,-2.125 -0.9375,-2.03125 -1.65625,0 -1.65625,1.65625 -2.375,0.375 -2.03125,2 0.84375,3.34375 2.5,3.84375 1.15625,4 3.6875,2.5 2.5,1.15625 1.5,3.84375 2.8125,2.3125 -0.65625,3.34375 2.34375,2.15625 0.65625,5.34375 2.34375,2.34375 3.65625,0.5 2.09375,2.0625 0.5625,1.75 2.84376,0.34375 0.84375,3 2.5,2.65625 -1,2.84375 -1.5,2.5 2.3125,3 1.34375,3.5 0,2.15625 2.65625,1.84375 0.34375,4 1.843752,5.5 0.5,3.15625 3.65625,0.84375 3.84375,-1.34375 2.65625,1.1875 4,-1.84375 -0.34375,-5.34375 0.6875,-4.3125 -1,-5.6875 0,-4.65625 3.65625,-6 1.65625,-1.5 0,-1.15625 1.9375,-1.9375 0.75,-2.90625 0.8125,-3.15625 -1,-3.1875 -1.75,-1.75 0,-2.75 1.71875,-1.6875 0.21875,-2.9375 -0.8125,-2.125 -1.8125,-0.625 -1.125,-1.71875 -2.25,-1.65625 0,-3.8125 -1.4375,-2.09375 -0.4375,-2.53125 -1.8125,-1.8125 0,-2 -1.28125,-1.6875 -1.71875,-1.71875 -1.25,-2.34375 1.1875,-2.25 -1.09375,-3 -1.59375,-1.5625 -0.5,-2.09375 -1.5625,-1.84375 -0.34375,-2.40626 -1.875,-0.78125 -2.968752,0.53125 -1.34375,-1.34375 -0.75,-2.1875 -1.375,0.5 -1.6875,0 -0.75,-2.1875 -1.875,-0.9375 -1.1875,-1.28125 -1.84376,0 -1.46875,1.46875 -2.3125,0.3125 -0.875,-1.375 -1.3125,-0.4375 z"
       style="fill:#cccccc;stroke:#000000;stroke-width:1"
       inkscape:connector-curvature="0" />
    <path
       sodipodi:nodetypes="ccccccccccccccccccccccccccccccccccccccccccccccccccccccccccccccccccccccccccccccccccccccccccccccccccccccccccccccccccccccccccccccscccccccccccccccccccccccccccccccccccccccccccccccccccccc"
       id="KL"
       d="m 140.7755,431.95237 -2.34375,2.09375 -4.75001,0 -1.21875,4 -3.90625,3.875 -4.28125,0 -1.5,1.53125 -2.34375,0 -1.15625,-1.625 -2.875,0 0,-2.125 -1.28125,-1.28125 -1.34375,1.65625 -1.15625,2.84375 -6.1875,0.84375 0.1875,2.65625 -2.34375,-0.34375 -2.34375,2.34375 0.6875,3.65625 -2.5,1.5 -3.687495,3.6875 -4,-4.34375 -2.65625,-2.84375 -2.84375,1.1875 -3.15625,-1.34375 -3.65625,1.65625 -2.5,2.6875 2,0.65625 1.8125,1.84375 2.84375,0.65625 2,1.5 -0.65625,3 -2.84375,-1.15625 -3.84375,-0.5 -2.3125,-1 -1.5,1.5 -2,-1.84375 -1.84375,-1.34375 -2,-0.3125 -0.65625,2.15625 1.3125,2.5 -0.5,4.15625 -2.5,-0.8125 -1.999998,0 -3.8125,0.15625 -2.84375,1.15625 -1.156251,2.5 -2.5,-0.8125 -2.6875,-3.34375 -2,0.34375 -1.8125,1.8125 0.8125,3.34375 -1,3 1.34375,2.65625 2,1.84375 -0.34375,5 1.6875,2.5 1.3125,2.84375 0.6875,5.65625 -0.5,7.65625 1.3125,4 2.187501,-0.3125 1.65625,2.3125 1.34375,1.6875 1.8125,0.3125 2.03125,-2 2.374998,-0.375 1.65625,-1.65625 1.65625,0 0.9375,2.03125 1.4375,2.125 3.25,0 2.5,-3.125 0.875,-1.8125 -0.625,-2.375 1.75,-0.5 2.75,-2.125 -1.625,-1.625 1.375,-2.1875 -1,-2 -1.25,-1.0625 1.375,-2 0,-2 1.25,-1.4375 1.3125,0.4375 0.875,1.375 2.3125,-0.3125 1.46875,-1.46875 1.84375,0 1.1875,1.28125 1.875,0.9375 0.75,2.1875 1.6875,0 1.375,-0.5 0.75,2.1875 1.34375,1.34375 2.968745,-0.53125 1.875,0.78125 0.34375,2.40625 1.5625,1.84375 0.5,2.09375 1.59375,1.5625 1.09375,3 -1.1875,2.25 1.25,2.34375 1.71875,1.71875 1.28125,1.6875 0,2 1.8125,1.8125 0.4375,2.53125 1.4375,2.09375 0,3.8125 2.25,1.65625 1.125,1.71875 1.8125,0.625 0.8125,2.125 -0.21875,2.9375 2.03125,0.53125 3.5,-1 3.1875,0 2.8125,-3.34375 2.34376,-1 0,-2.3125 3,0.5 1.15625,1.15625 2.5,0.6875 c 0,0 -0.333,1.25 1.25,1.25 1.583,0 3.59375,-0.25 3.59375,-0.25 l 1.5,0 1.84375,0 2.3125,0 2.84375,-0.34375 1.65625,-1.65625 -2.0625,-2.09375 -1.4375,-2.90625 -0.3125,-3 2.5,0.3125 1.65625,1.84375 1.75,-1.75 0,-4.59375 -0.90625,-5.65625 0.8125,-4.34375 -2,-2 -3.15625,-3 -2.15625,-1.3125 2.15625,-2.1875 1,-4.3125 -2.40625,-2.4375 -1.09375,-3.25 2.65625,-1.84375 2.1875,-2.15625 3,0.15625 2.8125,-1.15625 0,-3 2.1875,-2.15625 2.5625,-2.59375 3.25,0 2.1875,-1.59375 1.15625,-2.65625 -0.125,-3.34375 -2.03125,-2.03125 -0.46875,-2.5 -2.375,0 -1.5625,-1.5625 -0.6875,-3.375 -2.40625,-0.875 -1.21875,1.21875 -2.1875,-2.0625 3,-2.90625 -0.4375,-4.65625 -3.96875,-3.84375 -3.375,0.125 0,-1.96875 -2.1875,-1.15625 -3.71875,-0.46875 -1.0625,-3.9375 0.25,-2.90625 -3.375,0 -2.5625,-1.40625 -0.5625,-1.84375 -2.4375,-0.46875 z"
       style="fill:#cccccc;stroke:#000000;stroke-width:1"
       inkscape:connector-curvature="0" />
    <path
       inkscape:transform-center-y="-17.577693"
       inkscape:transform-center-x="25.668683"
       id="path4765"
       d="m 42.618348,438.29735 -0.19768,-0.0517 -0.1696,0.0649 -0.24276,0.26536 -0.39278,-0.0931 -0.25849,-0.0926 -0.0507,0.0553 -0.24823,0.003 -0.34179,0.11906 -0.19215,0.2101 -0.1161,0.26091 -0.14661,0.16035 -0.71983,-0.28488 -0.97396,-0.78405 -2.13841,1.30598 -2.04317,-0.95491 -0.0207,-1.91976 -2.59083,-2.91487 -2.87273,-3.37032 c 0,0 -1.29156,-0.16915 -1.42387,-0.18534 l -0.18494,-0.0258 0.13432,0.0541 0.0485,0.20159 -0.002,0.25683 -0.0656,0.2056 -0.0527,0.31213 -0.14661,0.16035 -0.2177,0.10398 -0.2457,0.0141 -0.0656,0.2056 -0.10116,0.11056 -0.0732,0.20049 -0.10117,0.11055 -0.02,0.15585 -0.33672,0.11354 -0.0961,0.10504 0.0939,0.15185 -0.0506,0.0553 -0.2177,0.10397 -0.16959,0.0649 -0.24063,0.008 0.099,0.14632 0.24064,-0.008 0.19016,0.0464 0.22063,0.14727 0.34512,0.39973 0.2206,0.14737 0.1169,0.24731 0.0484,0.20158 -0.24062,0.008 -0.26358,-0.087 -0.20273,-0.0463 -0.26618,-0.0976 -0.099,-0.14631 -0.58162,0.63575 -0.26616,-0.0976 -0.14454,-0.0965 0.0277,-0.15072 0.0455,-0.0497 -0.10155,-0.15692 -0.0178,-0.10104 -0.099,-0.14632 -0.12162,-10e-4 -0.14455,-0.0965 -0.85361,0.0355 -0.31674,-0.042 -0.14452,-0.0966 -0.0254,-0.10611 -0.12453,-0.25237 -0.0685,-0.0457 -0.39277,-0.0931 -0.31674,-0.042 -0.39022,-0.0825 -0.28615,0.0583 -0.24572,0.0141 -0.17219,0.0543 -0.26609,-0.0976 -0.19513,-0.0412 -0.63337,-0.085 -0.24566,0.014 -0.31675,-0.042 -0.35754,-0.23879 -0.17,-0.20265 -0.12451,-0.25238 0.002,-0.25683 -0.0306,-0.10069 -0.1902,-0.0464 -0.0961,0.10504 -0.0327,0.15628 0.1066,0.1514 -0.1466,0.16035 -0.24824,0.003 -0.26358,-0.0871 -0.19771,-0.0517 -0.31416,-0.0316 -0.26616,-0.0975 -0.19513,-0.0412 -0.31674,-0.042 -0.19514,-0.0412 -0.26616,-0.0975 -0.19512,-0.0412 -0.31676,-0.042 -0.2712,-0.092 -0.19019,-0.0464 -0.31675,-0.042 -0.24568,0.014 -0.26609,-0.0976 -0.24064,0.008 -0.321769,-0.0366 -0.28615,0.0583 -0.24567,0.014 -0.17218,0.0543 -0.12157,-10e-4 -0.19727,0.2156 -0.02,0.15582 -0.17219,0.0543 -0.28908,-0.19306 -0.0991,-0.14625 -0.29667,-0.19814 -0.1139,0.004 -0.17218,0.0542 -0.24571,0.0141 -0.19016,-0.0464 -0.24063,0.008 -0.2712,-0.092 -0.2206,-0.14738 -0.27121,-0.092 -0.4812604,0.017 -0.31675,-0.042 -0.19512,-0.0412 -0.97519,0.0345 -0.31673,-0.042 -0.29122,0.0638 -0.43281,0.21858 -0.14879,0.41718 -0.1161,0.26091 -0.14879,0.41718 0.22059,0.14737 0.12452,0.25238 0.0939,0.15185 0.1169,0.2473 0.80637,0.53855 0.73457,-0.026 0.16452,-0.0593 0.31675,0.042 0.8063604,0.53855 0.16745,0.19205 0.58576,0.3912 0.51516,0.60236 0.1169,0.2473 0.29577,1.23064 0.0685,0.0457 0.12452,0.25238 0.0306,0.10059 -0.002,0.25685 -0.0277,0.15071 0.10154,0.15693 0.0969,0.40315 -0.025,0.16141 0.003,0.25132 0.0434,0.2071 0.24352,0.24285 0.17002,0.20266 0.1245,0.25237 -0.0704,0.21121 -0.002,0.25684 0.32177,0.0366 0.25856,0.0925 0.31675,0.042 0.19512,0.0412 0.537309,0.18967 0.22061,0.14739 0.17505,0.19711 0.24477,1.01847 0.11185,0.25282 0.0561,0.20665 0.16744,0.19205 0.003,0.51879 -0.1466,0.16035 -0.1437,0.41165 -0.14671,0.16034 -0.0704,0.2112 -0.0962,0.10501 -0.0782,0.20604 -0.002,0.25684 -0.28826,0.31512 -0.14123,0.42225 -0.581619,0.63576 -0.31885,0.21454 -0.24063,0.008 -0.32177,-0.0366 -0.26617,-0.0975 -0.29122,0.0638 -0.26827,0.15926 -0.16959,0.0649 -0.19216,0.21011 -0.24062,0.008 -0.14878,0.41717 -0.1467,0.16031 -0.12367,0.25583 -0.02,0.15583 -0.0961,0.10504 -0.0704,0.21122 -0.27334,0.16479 -0.17217,0.0542 -0.2912204,0.0638 -0.16453,0.0594 -0.19215,0.2101 0.0178,0.10103 0.17507,0.19712 0.14452,0.0966 0.10154,0.15692 -0.31673,-0.042 -0.58575,-0.39121 -0.19515,-0.0413 -0.0761,-0.0508 -0.12155,-0.001 -0.2436,-0.24278 -0.48126,0.017 -0.0761,-0.0508 -0.27122,-0.092 -0.22062,-0.14728 -0.02,0.15583 -0.0704,0.21122 0.0969,0.40314 0.12451,0.25238 0.0939,0.15185 0.0969,0.40314 0.11946,0.25791 -0.02,0.15584 0.0739,0.30766 0.53477,0.17899 0.2206,0.14738 0.0434,0.20709 -0.02,0.15585 0.0484,0.20158 -0.0476,0.30661 -0.16663,0.31619 0.0434,0.2071 0.17513,0.19705 0.12451,0.25238 0.0939,0.15186 0.12451,0.25236 0.17003,0.20266 0.8748104,0.58428 0.26358,0.087 0.12163,10e-4 0.17506,0.19711 0.0485,0.20157 0.0939,0.15185 0.17001,0.20265 0.44121,0.29467 0.31417,0.0316 0.19767,0.0517 0.30912,0.0372 0.2712,0.092 0.19513,0.0412 0.31674,0.042 0.22061,0.14738 0.19015,0.0464 0.32177,0.0366 0.481269,-0.017 0.34434,-0.10848 0.2151,-0.11461 0.29122,-0.0638 0.27119,0.092 0.14453,0.0966 0.39279,0.0931 0.2912,-0.0638 0.2177,-0.104 0.1191,-0.01 0.0961,-0.10503 0.12671,-0.005 0.0939,0.15185 0.44122,0.29468 0.29119,-0.0638 0.8707,-0.44268 0.14661,-0.16035 0.17218,-0.0542 0.29121,-0.0638 0.17218,-0.0542 0.21509,-0.1146 0.1722,-0.0543 0.24063,-0.008 0.34178,-0.11908 0.29121,-0.0638 0.17219,-0.0542 0.24061,-0.008 -0.0507,0.0553 0.49394,-0.0175 0.3091,0.0372 0.20274,0.0463 0.213,0.14228 1.07464,0.37924 0.19512,0.0412 0.62586,0.079 0.24823,-0.003 0.30911,0.0372 0.20274,0.0463 0.31674,0.042 0.16745,0.19204 0.14456,0.0965 0.17,0.20266 0.14455,0.0965 0.27121,0.092 0.1902,0.0464 0.15215,0.10155 0.16746,0.19204 0.39279,0.0931 0.36727,-0.0129 0.50968,0.34041 0.17001,0.20265 -0.002,0.25683 -0.14369,0.41168 0.28907,0.19306 0.17001,0.20266 0.22275,-0.10951 0.24063,-0.008 0.65557,-0.32809 0.26568,-0.1699 0.17219,-0.0543 0.29122,-0.0638 0.17216,-0.0542 0.24063,-0.008 0.27121,0.092 0.28907,0.19306 0.29122,-0.0638 0.2177,-0.10396 0.24569,-0.0141 0.2177,-0.10397 0.24571,-0.0141 0.0434,0.2071 0.0991,0.14625 0.36729,-0.013 0.0434,0.20711 0.12452,0.25239 0.0485,0.20155 0.19215,-0.2101 0.0782,-0.20602 0.1466,-0.16035 0.29122,-0.0638 0.19016,0.0464 0.22059,0.14739 0.0991,0.14624 0.19768,0.0517 0.10116,-0.11056 -0.20059,-0.30319 -0.0306,-0.10069 0.19726,-0.21558 0.1722,-0.0543 0.14661,-0.16035 0.17219,-0.0542 0.19511,0.0412 0.72191,-0.0255 0.27121,0.092 0.31674,0.042 0.22059,0.14739 0.27121,0.092 0.65422,0.43694 0.23847,0.24837 0.10154,0.15694 0.16753,0.19196 0.12453,0.25238 0.0939,0.15185 0.17,0.20265 0.1045,0.40822 0.17001,0.20265 0.0484,0.20157 7.9e-4,0.50817 -0.0704,0.21123 -0.0961,0.10503 -0.0782,0.20604 0.17002,0.20264 0.22059,0.14739 0.19514,0.0412 0.2206,0.14738 0.19015,0.0464 0.17513,0.19706 0.65422,0.43693 0.29119,-0.0638 0.17219,-0.0543 0.22278,-0.10951 0.48126,-0.017 0.0484,0.20157 0.0939,0.15184 0.0961,-0.10504 0.10659,0.1514 0.0485,0.20156 0.17001,0.20266 0.0484,0.20158 0.14454,0.0965 0.17002,0.20266 0.099,0.14631 0.2206,0.14739 0.17,0.20264 0.26358,0.0871 0.0455,-0.0497 0.27333,-0.1648 0.24062,-0.008 0.19773,0.0517 0.72268,0.48266 0.54239,0.18408 0.1902,0.0464 0.5373,0.18966 0.24567,-0.014 0.19219,-0.21008 0.004,-0.5137 -0.056,-0.20667 0.0782,-0.20603 0.48552,-0.53073 0.26065,-0.16434 0.33885,-0.3704 0.17217,-0.0543 0.1467,-0.1603 0.34179,-0.11908 0.29376,-0.0532 0.11908,-0.01 0.28908,0.19306 0.12669,-0.005 0.17217,-0.0543 0.0455,-0.0497 -0.0255,-0.10613 0.02,-0.15584 0.0961,-0.10504 0.17723,-0.0598 0.28615,-0.0583 0.44122,0.29468 0.0485,0.20157 0.099,0.14633 0.44122,0.29468 0.26616,0.0976 0.21513,-0.1146 0.0276,-0.15078 0.14667,-0.16031 0.0706,-0.21114 0.0276,-0.15076 0.0706,-0.21115 0.002,-0.25685 -0.1066,-0.15141 -0.21299,-0.14228 -0.29882,0.0587 -0.25848,-0.0926 -0.0561,-0.20665 0.004,-0.51371 -0.43361,-0.2896 -0.54238,-0.18408 -0.17001,-0.20266 -0.0484,-0.20156 -0.0939,-0.15186 -0.17506,-0.19712 -0.19021,-0.0464 -0.24822,0.003 -0.14453,-0.0966 0.26829,-0.15926 0.0704,-0.21121 -0.099,-0.14631 -0.36222,0.007 -0.19513,-0.0412 -1.23998,-0.82816 -0.2712,-0.092 -0.60792,0.0215 -0.19016,-0.0464 -0.12668,0.004 -0.26062,0.16436 -0.22276,0.10951 -0.17219,0.0543 -0.24063,0.008 -0.16959,0.0649 -0.53731,-0.18967 -0.0939,-0.15185 -0.17506,-0.19713 -0.11946,-0.25791 -0.0991,-0.14624 -0.0484,-0.20157 -0.0939,-0.15184 -0.056,-0.20667 -0.11693,-0.24728 0.0704,-0.21122 0.53397,-0.32915 0.0961,-0.10503 -0.28908,-0.19307 -0.19019,-0.0464 -0.68612,0.22752 -0.19727,0.21561 -0.1139,0.004 -0.34178,0.11908 -0.12162,-0.001 -0.14456,-0.0965 -0.17217,0.0542 -0.19727,0.2156 -0.24063,0.008 -0.2912,0.0638 -0.31675,-0.042 -0.53731,-0.18967 -0.19511,-0.0412 -0.2206,-0.14738 -0.25856,-0.0925 -0.20276,-0.0462 -0.27121,-0.092 -0.19016,-0.0464 -0.2206,-0.14738 -0.26357,-0.087 -0.36514,-0.24387 -0.0994,-0.41375 -0.16745,-0.19205 -0.0994,-0.41374 -0.099,-0.14632 -0.0484,-0.20158 -0.11946,-0.25792 -0.0485,-0.20155 -0.1066,-0.1514 0.002,-0.25687 0.0277,-0.15074 -0.005,-0.26193 0.0277,-0.15073 0.002,-0.25684 0.0704,-0.21121 -0.0484,-0.20158 0.002,-0.25687 0.02,-0.15583 0.002,-0.25685 0.02,-0.15582 0.002,-0.25686 0.02,-0.15584 0.004,-0.51371 0.02,-0.15585 0.002,-0.25686 0.0277,-0.15074 -0.005,-0.26193 0.0277,-0.15074 0.002,-0.25682 -0.0485,-0.20158 0.0704,-0.21122 -0.0484,-0.20155 0.0704,-0.21123 0.002,-0.25686 -0.0484,-0.20157 0.13613,-0.41674 0.0327,-0.15627 -0.003,-0.25133 0.0704,-0.21122 0.02,-0.15584 0.0782,-0.20603 0.002,-0.25685 0.0704,-0.21121 0.02,-0.15584 0.3707,-1.03488 0.02,-0.15585 0.14878,-0.41718 -0.005,-0.26193 0.0731,-0.20051 0.002,-0.25685 0.14661,-0.16034 0.0704,-0.21121 0.14661,-0.16035 0.14369,-0.41166 0.14661,-0.16035 0.0704,-0.21122 0.14661,-0.16034 0.0732,-0.20049 0.12119,-0.2664 0.0704,-0.21121 0.43492,-0.47547 0.0782,-0.20603 0.14661,-0.16036 0.1162,-0.26085 0.19214,-0.21009 0.34179,-0.11907 0.24824,-0.003 0.0507,-0.0553 0.25855,0.0925 0.39278,0.0931 0.24277,-0.26536 0.16957,-0.0649 0.16976,0.0424 0.005,-0.004 z"
       style="fill:#cccccc;fill-opacity:1;stroke:#000000;display:inline;stroke-opacity:1"
       inkscape:connector-curvature="0" />
  </g>
</svg>
